<?xml version="1.0" encoding="utf-8"?>
<!-- Generator: Adobe Illustrator 16.0.0, SVG Export Plug-In . SVG Version: 6.00 Build 0)  -->
<!DOCTYPE svg PUBLIC "-//W3C//DTD SVG 1.1//EN" "http://www.w3.org/Graphics/SVG/1.1/DTD/svg11.dtd">
<svg version="1.1" id="Layer_1" xmlns="http://www.w3.org/2000/svg" xmlns:xlink="http://www.w3.org/1999/xlink" x="0px" y="0px"
	 width="126px" height="126px" viewBox="0 0 126 126" enable-background="new 0 0 126 126" xml:space="preserve">
<g>
	<path d="M56.726,33.978c0.31,0.067,0.631-0.056,0.816-0.314L77.43,5.904c0.256-0.357,0.174-0.854-0.184-1.11
		s-0.854-0.173-1.11,0.184L56.553,32.311L36.77,28.002c-0.323-0.07-0.656,0.067-0.836,0.345L17.015,57.521
		c-0.239,0.369-0.134,0.861,0.235,1.101c0.133,0.086,0.284,0.128,0.432,0.128c0.26,0,0.516-0.127,0.668-0.363l18.62-28.712
		L56.726,33.978z"/>
	<path d="M109.106,42.706c-0.004-0.091-0.024-0.179-0.063-0.259c-0.003-0.007-0.004-0.013-0.007-0.02
		c-0.043-0.082-0.106-0.15-0.181-0.209c-0.009-0.007-0.012-0.019-0.022-0.025c-0.008-0.006-0.018-0.006-0.026-0.011
		c-0.016-0.01-0.028-0.025-0.045-0.034l-8.121-4.396c-0.164-0.088-0.356-0.105-0.532-0.046l-10.293,3.451V25.722
		c0-0.012-0.007-0.021-0.008-0.032c-0.004-0.091-0.024-0.179-0.063-0.259c-0.003-0.007-0.004-0.013-0.007-0.02
		c-0.043-0.082-0.106-0.15-0.181-0.209c-0.009-0.007-0.012-0.019-0.022-0.025c-0.008-0.006-0.018-0.006-0.026-0.011
		c-0.016-0.01-0.028-0.025-0.045-0.034l-8.121-4.396c-0.164-0.088-0.356-0.105-0.532-0.046l-13.114,4.396
		c-0.036,0.012-0.066,0.033-0.099,0.05c-0.009,0.005-0.021,0.003-0.03,0.009c-0.006,0.003-0.007,0.01-0.013,0.013
		c-0.086,0.054-0.156,0.127-0.209,0.212c-0.009,0.015-0.017,0.029-0.025,0.044c-0.04,0.077-0.071,0.158-0.079,0.248
		c-0.001,0.015,0.002,0.028,0.002,0.043c0,0.006-0.005,0.011-0.005,0.018v32.137l-1.133-0.613c-0.174-0.095-0.382-0.107-0.566-0.033
		l-6.604,2.621V45.989c0-0.012-0.008-0.022-0.009-0.035c-0.004-0.089-0.023-0.176-0.062-0.254c-0.003-0.007-0.004-0.014-0.008-0.021
		c-0.043-0.083-0.107-0.152-0.182-0.21c-0.008-0.007-0.012-0.018-0.021-0.024c-0.007-0.005-0.017-0.005-0.024-0.01
		c-0.017-0.011-0.03-0.026-0.047-0.035l-8.122-4.396c-0.163-0.088-0.356-0.105-0.532-0.046l-13.114,4.396
		c-0.036,0.012-0.066,0.033-0.099,0.05c-0.009,0.005-0.02,0.003-0.029,0.008c-0.006,0.003-0.008,0.01-0.013,0.013
		c-0.086,0.054-0.155,0.127-0.208,0.212c-0.01,0.015-0.018,0.028-0.026,0.044c-0.04,0.076-0.071,0.158-0.079,0.247
		c-0.001,0.015,0.003,0.028,0.002,0.042c0,0.006-0.004,0.011-0.004,0.018v16.804l-1.436-0.777c-0.163-0.088-0.356-0.105-0.532-0.046
		l-13.114,4.396c-0.036,0.012-0.066,0.033-0.099,0.05c-0.009,0.005-0.02,0.003-0.029,0.008c-0.006,0.003-0.007,0.009-0.013,0.013
		c-0.087,0.054-0.156,0.127-0.209,0.212c-0.009,0.015-0.018,0.028-0.026,0.044c-0.04,0.077-0.071,0.158-0.079,0.247
		c-0.001,0.014,0.002,0.028,0.002,0.042c0,0.006-0.004,0.011-0.004,0.018v46.196c0,0.245,0.133,0.47,0.347,0.587l8.122,4.471
		c0.011,0.006,0.023,0.004,0.035,0.009c0.091,0.044,0.188,0.074,0.289,0.074c0.073,0,0.146-0.012,0.216-0.036l10.29-3.508v1.418
		c0,0.245,0.133,0.47,0.347,0.587l8.122,4.471c0.011,0.006,0.023,0.004,0.035,0.009c0.091,0.044,0.188,0.074,0.289,0.074
		c0.073,0,0.146-0.012,0.216-0.036l13.114-4.471c0.271-0.093,0.454-0.347,0.454-0.635v-1.953l1.432,0.788
		c0.011,0.006,0.024,0.003,0.036,0.009c0.091,0.044,0.188,0.074,0.288,0.074c0.073,0,0.146-0.012,0.216-0.036l13.114-4.47
		c0.271-0.093,0.454-0.348,0.454-0.635v-1.816l1.536,0.846c0.011,0.006,0.024,0.004,0.036,0.009
		c0.091,0.043,0.188,0.074,0.288,0.074c0.073,0,0.146-0.012,0.216-0.036l13.113-4.47c0.272-0.093,0.455-0.348,0.455-0.635v-0.957
		l1.078,0.723c0.036,0.024,0.076,0.038,0.115,0.054c0.021,0.008,0.039,0.022,0.06,0.028c0.064,0.021,0.132,0.031,0.199,0.031
		c0.073,0,0.146-0.012,0.216-0.035l13.114-4.471c0.271-0.092,0.454-0.347,0.454-0.635V42.738
		C109.114,42.727,109.106,42.717,109.106,42.706z M80.961,22.054l6.517,3.528l-11.382,3.88l-1.463-0.806l-5.059-2.785L80.961,22.054
		z M75.361,30.589V61.05L69.76,58.02c-0.163-0.088-0.356-0.105-0.532-0.046l-0.648,0.217V26.857L75.361,30.589z M65.744,58.575
		l0.616,0.333c0.276-0.112,0.563-0.199,0.859-0.261l-8.283,2.776v-0.147L65.744,58.575z M57.594,61.873l-1.48,0.496
		c-0.036,0.012-0.066,0.033-0.099,0.05c-0.009,0.005-0.02,0.003-0.029,0.008c-0.006,0.003-0.008,0.01-0.013,0.013
		c-0.086,0.054-0.155,0.127-0.208,0.212c-0.01,0.015-0.018,0.028-0.026,0.044c-0.04,0.076-0.071,0.158-0.079,0.247
		c-0.001,0.015,0.003,0.028,0.002,0.042c0,0.006-0.004,0.011-0.004,0.018v16.804l-1.436-0.777c-0.163-0.088-0.356-0.105-0.532-0.046
		l-7.867,2.638V50.939l11.772-4.013V61.873z M50.081,42.322l6.517,3.527l-4.875,1.662l-6.507,2.218l-6.523-3.59L50.081,42.322z
		 M37.7,47.124l6.781,3.732v31.216l-1.085,0.364V67c0-0.011-0.007-0.021-0.008-0.032c-0.005-0.092-0.024-0.179-0.063-0.26
		c-0.003-0.005-0.004-0.012-0.007-0.018c-0.043-0.083-0.108-0.152-0.183-0.211c-0.008-0.007-0.011-0.017-0.02-0.023
		c-0.007-0.005-0.017-0.005-0.024-0.01c-0.017-0.011-0.03-0.025-0.047-0.035L37.7,63.518V47.124z M28.941,116.533l-6.781-3.732
		V68.135l6.781,3.732V116.533z M29.676,70.741l-4.1-2.257l-2.423-1.333l11.388-3.817l6.517,3.527l-5.784,1.972L29.676,70.741z
		 M30.282,116.731v-44.78l6.07-2.069l5.702-1.943v14.947l-1.479,0.496c-0.036,0.012-0.066,0.033-0.099,0.05
		c-0.009,0.005-0.02,0.003-0.029,0.008c-0.006,0.003-0.007,0.009-0.013,0.013c-0.087,0.054-0.156,0.127-0.209,0.212
		c-0.009,0.015-0.018,0.028-0.026,0.044c-0.04,0.077-0.071,0.158-0.079,0.247c-0.001,0.014,0.002,0.028,0.002,0.042
		c0,0.006-0.004,0.011-0.004,0.018v29.361L30.282,116.731z M48.239,119.549l-6.781-3.732V85.151l6.781,3.732V119.549z
		 M48.974,87.757l-4.1-2.257l-2.423-1.333l11.388-3.817l6.517,3.527l-5.784,1.972L48.974,87.757z M63.779,113.326l-1.085-0.598
		V84.017c0-0.011-0.007-0.021-0.008-0.032c-0.005-0.092-0.024-0.179-0.063-0.26c-0.003-0.005-0.004-0.012-0.007-0.018
		c-0.043-0.083-0.108-0.152-0.183-0.211c-0.008-0.007-0.011-0.017-0.02-0.023c-0.007-0.005-0.017-0.005-0.024-0.01
		c-0.017-0.011-0.03-0.025-0.047-0.035l-5.345-2.893V64.14l6.781,3.732V113.326z M64.513,66.745l-6.523-3.59l11.388-3.817
		l6.517,3.527l-4.875,1.662L64.513,66.745z M78.225,62.97c-0.004-0.089-0.023-0.176-0.062-0.254
		c-0.003-0.007-0.004-0.014-0.008-0.021c-0.043-0.083-0.107-0.152-0.182-0.21c-0.008-0.007-0.012-0.018-0.021-0.024
		c-0.007-0.005-0.017-0.005-0.024-0.01c-0.017-0.011-0.03-0.026-0.047-0.035l-1.181-0.639V30.672l11.773-4.013v14.947l-1.479,0.496
		c-0.036,0.012-0.066,0.033-0.099,0.05c-0.009,0.005-0.021,0.003-0.03,0.009c-0.006,0.003-0.007,0.01-0.013,0.013
		c-0.086,0.054-0.156,0.127-0.209,0.212c-0.009,0.015-0.017,0.029-0.025,0.044c-0.04,0.077-0.071,0.158-0.079,0.248
		c-0.001,0.015,0.002,0.028,0.002,0.043c0,0.006-0.005,0.011-0.005,0.018v32.137l-1.133-0.613c-0.174-0.095-0.382-0.107-0.566-0.033
		l-6.604,2.621V63.005C78.234,62.993,78.226,62.982,78.225,62.97z M79.423,107.297l-1.189-0.654V83.345l1.189,0.745V107.297z
		 M80.179,82.981l-1.945-1.218v-3.471l6.808-2.701l6.498,3.518L80.179,82.981z M94.659,101.914l-0.78-0.523V79.248
		c0-0.012-0.008-0.022-0.009-0.034c-0.004-0.09-0.023-0.176-0.062-0.256c-0.003-0.006-0.004-0.014-0.008-0.021
		c-0.043-0.083-0.107-0.152-0.182-0.211c-0.008-0.007-0.012-0.018-0.021-0.023c-0.007-0.005-0.017-0.005-0.024-0.01
		c-0.016-0.011-0.029-0.026-0.046-0.035l-5.648-3.057V43.873l6.78,3.732V101.914z M95.393,46.479l-1.463-0.806l-5-2.752
		c0.014-0.022,0.026-0.044,0.041-0.066l11.288-3.784l6.517,3.528L95.393,46.479z"/>
</g>
</svg>
