<?xml version="1.0" encoding="utf-8"?>
<!-- Generator: Adobe Illustrator 16.0.0, SVG Export Plug-In . SVG Version: 6.00 Build 0)  -->
<!DOCTYPE svg PUBLIC "-//W3C//DTD SVG 1.1//EN" "http://www.w3.org/Graphics/SVG/1.1/DTD/svg11.dtd">
<svg version="1.1" id="Layer_1" xmlns="http://www.w3.org/2000/svg" xmlns:xlink="http://www.w3.org/1999/xlink" x="0px" y="0px"
	 width="126px" height="126px" viewBox="0 0 126 126" enable-background="new 0 0 126 126" xml:space="preserve">
<g>
	<path d="M116.25,21.576c0.002-0.2-0.112-0.384-0.294-0.469l-15.837-7.52c-0.143-0.067-0.306-0.066-0.446,0.003l-15.554,7.691
		c-0.007,0.004-0.013,0.01-0.02,0.014c-0.009,0.005-0.018,0.007-0.026,0.013c-0.016,0.01-0.027,0.023-0.042,0.035
		c-0.015,0.011-0.03,0.022-0.043,0.035c-0.021,0.021-0.038,0.044-0.056,0.067c-0.009,0.014-0.021,0.025-0.028,0.04
		c-0.018,0.031-0.031,0.065-0.043,0.1c-0.002,0.009-0.008,0.017-0.01,0.026c-0.012,0.042-0.018,0.086-0.018,0.131v84.314
		c0,0.181,0.095,0.348,0.25,0.44l15.544,9.292c0.038,0.044,0.081,0.084,0.132,0.114c0.078,0.044,0.166,0.067,0.253,0.067
		c0.011,0,0.021-0.004,0.029-0.004c0.01,0,0.02,0.004,0.028,0.004c0.087,0,0.175-0.022,0.253-0.067
		c0.052-0.029,0.094-0.069,0.132-0.112l15.544-9.293c0.156-0.093,0.251-0.26,0.251-0.44V21.741c0-0.031-0.008-0.06-0.013-0.089
		C116.242,21.627,116.249,21.603,116.25,21.576z M84.859,22.554L99.5,29.557v84.96l-14.641-8.753V22.554z"/>
	<path d="M78.471,55.516l-15.837-7.52c-0.142-0.067-0.306-0.066-0.447,0.003L46.634,55.69c-0.007,0.003-0.013,0.009-0.019,0.013
		c-0.008,0.004-0.016,0.006-0.023,0.011c-0.017,0.01-0.029,0.024-0.044,0.036c-0.016,0.011-0.031,0.022-0.044,0.035
		c-0.021,0.02-0.037,0.042-0.054,0.065c-0.01,0.014-0.022,0.026-0.03,0.042c-0.017,0.028-0.028,0.059-0.039,0.09
		c-0.004,0.012-0.012,0.022-0.015,0.034c-0.011,0.043-0.019,0.088-0.019,0.133v49.905c0,0.181,0.096,0.348,0.251,0.44l15.544,9.292
		c0.037,0.044,0.08,0.084,0.132,0.114c0.079,0.044,0.166,0.067,0.254,0.067c0.009,0,0.019-0.004,0.028-0.004
		s0.019,0.004,0.028,0.004c0.087,0,0.175-0.022,0.253-0.067c0.052-0.029,0.094-0.069,0.131-0.112l15.546-9.293
		c0.154-0.093,0.249-0.26,0.249-0.44V56.15c0-0.03-0.006-0.059-0.012-0.088c0.005-0.027,0.012-0.053,0.012-0.081
		C78.765,55.782,78.65,55.601,78.471,55.516z M47.374,56.98l14.641,7.32v50.216l-14.641-8.753V56.98z"/>
	<path d="M41.874,73.975l-15.724-7.52c-0.088-0.042-0.184-0.058-0.277-0.047c-0.097-0.011-0.195,0.005-0.285,0.05l-15.552,7.691
		c-0.005,0.002-0.01,0.006-0.015,0.009c-0.004,0.002-0.008,0.002-0.012,0.004c-0.007,0.004-0.012,0.01-0.019,0.014
		c-0.025,0.017-0.051,0.035-0.073,0.056c-0.008,0.008-0.017,0.015-0.025,0.024c-0.025,0.027-0.048,0.055-0.066,0.086
		c-0.002,0.003-0.005,0.006-0.007,0.01c-0.02,0.035-0.034,0.072-0.046,0.11c-0.003,0.011-0.005,0.022-0.008,0.034
		c-0.007,0.03-0.011,0.061-0.013,0.092c0,0.007-0.003,0.014-0.003,0.021v31.447c0,0.181,0.095,0.348,0.25,0.44l15.544,9.292
		c0.038,0.044,0.08,0.084,0.133,0.114c0.078,0.044,0.166,0.067,0.253,0.067c0.009,0,0.02-0.004,0.029-0.004
		c0.009,0,0.019,0.004,0.028,0.004c0.087,0,0.173-0.022,0.253-0.067c0.051-0.029,0.094-0.069,0.131-0.112l15.545-9.293
		c0.155-0.093,0.25-0.26,0.25-0.44V74.608c0-0.026-0.007-0.052-0.011-0.078C42.197,74.308,42.088,74.077,41.874,73.975z
		 M25.417,114.517l-14.641-8.753V75.512l14.641,7.214V114.517z"/>
</g>
</svg>
