<?xml version="1.0" encoding="utf-8"?>
<!-- Generator: Adobe Illustrator 16.0.0, SVG Export Plug-In . SVG Version: 6.00 Build 0)  -->
<!DOCTYPE svg PUBLIC "-//W3C//DTD SVG 1.1//EN" "http://www.w3.org/Graphics/SVG/1.1/DTD/svg11.dtd">
<svg version="1.1" id="Layer_1" xmlns="http://www.w3.org/2000/svg" xmlns:xlink="http://www.w3.org/1999/xlink" x="0px" y="0px"
	 width="126px" height="126px" viewBox="0 0 126 126" enable-background="new 0 0 126 126" xml:space="preserve">
<g>
	<path d="M97.49,25.508c-0.004-0.091-0.024-0.179-0.063-0.259c-0.003-0.007-0.004-0.013-0.007-0.02
		c-0.043-0.082-0.106-0.15-0.181-0.209c-0.009-0.007-0.012-0.019-0.022-0.025c-0.008-0.006-0.018-0.006-0.026-0.011
		c-0.016-0.01-0.028-0.025-0.045-0.034l-8.121-4.396c-0.164-0.088-0.356-0.105-0.532-0.046l-13.114,4.396
		c-0.036,0.012-0.066,0.033-0.099,0.05c-0.009,0.005-0.021,0.003-0.03,0.009c-0.006,0.003-0.007,0.01-0.013,0.013
		c-0.086,0.054-0.156,0.127-0.209,0.212c-0.009,0.015-0.017,0.029-0.025,0.044c-0.04,0.077-0.071,0.158-0.079,0.248
		c-0.001,0.015,0.002,0.028,0.002,0.043c0,0.006-0.005,0.011-0.005,0.018v32.137l-1.133-0.613c-0.174-0.095-0.382-0.107-0.566-0.033
		l-6.604,2.621V45.807c0-0.012-0.008-0.022-0.009-0.035c-0.004-0.089-0.023-0.176-0.062-0.254c-0.003-0.007-0.004-0.014-0.008-0.021
		c-0.043-0.083-0.107-0.152-0.182-0.21c-0.008-0.007-0.012-0.018-0.021-0.024c-0.007-0.005-0.017-0.005-0.024-0.01
		c-0.017-0.011-0.03-0.026-0.047-0.035l-8.122-4.396c-0.163-0.088-0.356-0.105-0.532-0.046l-13.114,4.396
		c-0.036,0.012-0.066,0.033-0.099,0.05c-0.009,0.005-0.02,0.003-0.029,0.008c-0.006,0.003-0.008,0.01-0.013,0.013
		c-0.086,0.054-0.155,0.127-0.208,0.212c-0.01,0.015-0.018,0.028-0.026,0.044c-0.04,0.076-0.071,0.158-0.079,0.247
		c-0.001,0.015,0.003,0.028,0.002,0.042c0,0.006-0.004,0.011-0.004,0.018V62.61l-1.436-0.777c-0.163-0.088-0.356-0.105-0.532-0.046
		l-13.114,4.396c-0.036,0.012-0.066,0.033-0.099,0.05c-0.009,0.005-0.02,0.003-0.029,0.008c-0.006,0.003-0.007,0.009-0.013,0.013
		c-0.087,0.054-0.156,0.127-0.209,0.212c-0.009,0.015-0.018,0.028-0.026,0.044c-0.04,0.077-0.071,0.158-0.079,0.247
		c-0.001,0.014,0.002,0.028,0.002,0.042c0,0.006-0.004,0.011-0.004,0.018v46.196c0,0.245,0.133,0.47,0.347,0.587l8.122,4.471
		c0.011,0.006,0.023,0.004,0.035,0.009c0.091,0.044,0.188,0.074,0.289,0.074c0.073,0,0.146-0.012,0.216-0.036l13.114-4.471
		c0.271-0.093,0.454-0.347,0.454-0.635v-1.953l1.432,0.788c0.011,0.006,0.024,0.003,0.036,0.009
		c0.091,0.044,0.188,0.074,0.288,0.074c0.073,0,0.146-0.012,0.216-0.036l13.114-4.47c0.271-0.093,0.454-0.348,0.454-0.635v-1.816
		l1.536,0.846c0.011,0.006,0.024,0.004,0.036,0.009c0.091,0.043,0.188,0.074,0.288,0.074c0.073,0,0.146-0.012,0.216-0.036
		l13.113-4.47c0.272-0.093,0.455-0.348,0.455-0.635v-0.957l1.078,0.723c0.036,0.024,0.076,0.038,0.115,0.054
		c0.021,0.008,0.039,0.022,0.06,0.028c0.064,0.021,0.132,0.031,0.199,0.031c0.073,0,0.146-0.012,0.216-0.035l13.114-4.471
		c0.271-0.092,0.454-0.347,0.454-0.635V25.54C97.498,25.528,97.491,25.519,97.49,25.508z M36.624,116.351l-6.781-3.732V67.953
		l6.781,3.732V116.351z M37.358,70.559l-4.1-2.257l-2.423-1.333l11.388-3.817l6.517,3.527l-5.784,1.972L37.358,70.559z
		 M49.737,109.587c-0.095,0.19-0.085,0.399,0,0.579v2.369l-11.772,4.014v-44.78l6.07-2.069l5.702-1.943V109.587z M52.163,110.128
		l-1.085-0.598V66.818c0-0.011-0.007-0.021-0.008-0.032c-0.005-0.092-0.024-0.179-0.063-0.26c-0.003-0.005-0.004-0.012-0.007-0.018
		c-0.043-0.083-0.108-0.152-0.183-0.211c-0.008-0.007-0.011-0.017-0.02-0.023c-0.007-0.005-0.017-0.005-0.024-0.01
		c-0.017-0.011-0.03-0.025-0.047-0.035l-5.345-2.893V46.941l6.781,3.732V110.128z M52.897,49.547l-6.523-3.59l11.388-3.817
		l6.517,3.527l-4.875,1.662L52.897,49.547z M65.276,106.312l-11.772,4.013V50.757l11.772-4.013V106.312z M67.808,104.099
		l-1.189-0.654V66.147l1.189,0.745V104.099z M68.563,65.783l-1.945-1.218v-3.471l6.808-2.701l6.498,3.518L68.563,65.783z
		 M80.921,100.284l-11.772,4.013V67l11.772-4.013V100.284z M83.043,98.715l-0.78-0.523V62.05c0-0.012-0.008-0.022-0.009-0.034
		c-0.004-0.09-0.023-0.176-0.062-0.256c-0.003-0.006-0.004-0.014-0.008-0.021c-0.043-0.083-0.107-0.152-0.182-0.211
		c-0.008-0.007-0.012-0.018-0.021-0.023c-0.007-0.005-0.017-0.005-0.024-0.01c-0.016-0.011-0.029-0.026-0.046-0.035l-5.648-3.057
		V26.675l6.78,3.732V98.715z M83.777,29.28l-1.463-0.806l-5.059-2.785l11.388-3.817L95.16,25.4L83.777,29.28z M96.157,95.022
		l-11.773,4.013V30.49l11.773-4.013V95.022z"/>
	<path d="M31.156,55.563c0.187,0.121,0.402,0.185,0.624,0.185c0.392,0,0.752-0.196,0.964-0.524l15.513-23.922l16.33,3.557
		c0.44,0.096,0.916-0.088,1.176-0.454L82.4,11.183l2.021,7.082c0.119,0.42,0.502,0.694,0.918,0.694c0.087,0,0.175-0.012,0.263-0.037
		c0.508-0.145,0.802-0.674,0.657-1.182l-2.626-9.203c-0.145-0.508-0.673-0.803-1.182-0.657c-0.002,0-0.003,0.002-0.005,0.003
		c-0.163-0.038-0.332-0.049-0.503,0.006l-10.039,3.227c-0.503,0.161-0.779,0.7-0.618,1.203c0.13,0.405,0.506,0.664,0.91,0.664
		c0.097,0,0.195-0.015,0.293-0.046l7.572-2.434L64.336,32.453l-16.368-3.565c-0.462-0.099-0.95,0.103-1.206,0.499L30.816,53.974
		C30.472,54.505,30.624,55.218,31.156,55.563z"/>
</g>
</svg>
