<?xml version="1.0" encoding="utf-8"?>
<!-- Generator: Adobe Illustrator 16.0.0, SVG Export Plug-In . SVG Version: 6.00 Build 0)  -->
<!DOCTYPE svg PUBLIC "-//W3C//DTD SVG 1.1//EN" "http://www.w3.org/Graphics/SVG/1.1/DTD/svg11.dtd">
<svg version="1.1" id="Layer_1" xmlns="http://www.w3.org/2000/svg" xmlns:xlink="http://www.w3.org/1999/xlink" x="0px" y="0px"
	 width="126px" height="126px" viewBox="0 0 126 126" enable-background="new 0 0 126 126" xml:space="preserve">
<path d="M117,47.182c0-16.518-22.282-29.455-50.728-29.455c-27.854,0-49.784,12.408-50.684,28.432h-0.043v18.241l-4.289,1.035
	c-0.439,0.034-0.875,0.188-1.256,0.47c-0.663,0.485-1.009,1.243-1,2.007v29.453c0,0.879,0.47,1.69,1.232,2.128
	c0.625,0.358,15.427,8.781,26.994,8.781h0.001c0.001,0,0.001,0,0.001,0c0.218,0,0.43-0.038,0.636-0.094
	c0.051-0.015,0.098-0.028,0.148-0.047c0.198-0.065,0.388-0.15,0.563-0.266c0.005-0.003,0.01-0.004,0.015-0.008
	c0.135-0.09,0.262-0.193,0.378-0.31c0.036-0.036,0.063-0.078,0.096-0.117c0.037-0.041,0.07-0.083,0.104-0.127
	c0.135-0.176,0.253-0.363,0.335-0.566c0-0.003,0.003-0.005,0.003-0.008L58.733,58.73c0.084-0.209,0.126-0.424,0.15-0.639
	c0.363-0.724,0.361-1.594-0.061-2.324c-0.544-0.938-1.641-1.411-2.699-1.154l-35.669,8.603v-7.154l42.808-5.981l-4.547,25.465
	h-0.026l0.001,0.139l-0.118,0.66l0.121,0.006l0.118,28.373l2.308,0.13c1.645,0.091,3.305,0.137,4.935,0.137
	c28.445,0,50.727-12.937,50.727-29.454V50.129h-0.024C116.916,49.16,117,48.179,117,47.182z M13.909,95.906V73.638
	c4.081,3.117,10.978,6.616,20.732,5.75l0.119,23.837C26.703,102.354,17.239,97.669,13.909,95.906z M49.246,61.322L37.208,74.078
	c-10.404,1.951-17.344-1.889-20.921-4.807L49.246,61.322z M64.387,71.705l4.896-27.422l-48.244,6.74
	c-0.388-1.273-0.585-2.561-0.585-3.842c0-13.305,20.982-24.546,45.818-24.546s45.818,11.241,45.818,24.546
	C112.091,60.822,90.088,72.287,64.387,71.705z"/>
</svg>
