<?xml version="1.0" encoding="utf-8"?>
<!-- Generator: Adobe Illustrator 16.0.0, SVG Export Plug-In . SVG Version: 6.00 Build 0)  -->
<!DOCTYPE svg PUBLIC "-//W3C//DTD SVG 1.1//EN" "http://www.w3.org/Graphics/SVG/1.1/DTD/svg11.dtd">
<svg version="1.1" id="Layer_1" xmlns="http://www.w3.org/2000/svg" xmlns:xlink="http://www.w3.org/1999/xlink" x="0px" y="0px"
	 width="126px" height="126px" viewBox="0 0 126 126" enable-background="new 0 0 126 126" xml:space="preserve">
<g>
	<path opacity="0.9" d="M81.859,16.667H28.666v92.666h67.668v-75.72L81.859,16.667z M81.168,20.477L92.293,33.5H81.168V20.477z
		 M93.334,106.333H31.666V19.667h46.502V36.5h15.166V106.333z"/>
	<polygon opacity="0.9" points="74.334,37.167 74.334,34.833 49.167,34.833 35.834,34.833 35.834,37.167 49.167,37.167 	"/>
	<polygon opacity="0.9" points="74.334,43.667 74.334,41.333 49.167,41.333 35.834,41.333 35.834,43.667 49.167,43.667 	"/>
	<polygon opacity="0.9" points="74.334,50.167 74.334,47.833 49.167,47.833 35.834,47.833 35.834,50.167 49.167,50.167 	"/>
	<rect x="36.583" y="98" opacity="0.9" width="49.584" height="2.333"/>
	<rect x="40.667" y="68.167" opacity="0.9" width="6.674" height="24.172"/>
	<rect x="62.271" y="68.167" opacity="0.9" width="6.674" height="24.172"/>
	<rect x="73.159" y="61.833" opacity="0.9" width="6.674" height="30.505"/>
	<rect x="51.381" y="59.103" opacity="0.9" width="6.674" height="33.235"/>
</g>
</svg>
