<?xml version="1.0" encoding="utf-8"?>
<!-- Generator: Adobe Illustrator 16.0.0, SVG Export Plug-In . SVG Version: 6.00 Build 0)  -->
<!DOCTYPE svg PUBLIC "-//W3C//DTD SVG 1.1//EN" "http://www.w3.org/Graphics/SVG/1.1/DTD/svg11.dtd">
<svg version="1.1" id="Layer_1" xmlns="http://www.w3.org/2000/svg" xmlns:xlink="http://www.w3.org/1999/xlink" x="0px" y="0px"
	 width="126px" height="126px" viewBox="0 0 126 126" enable-background="new 0 0 126 126" xml:space="preserve">
<g>
	<polygon points="79.699,26.392 81.475,31.065 88.836,28.27 72.951,48.926 59.541,33.205 27.99,65.029 31.541,68.549 59.266,40.586 
		73.152,56.865 93.01,31.045 93.01,40.437 98.01,40.437 98.01,19.438 	"/>
	<path d="M38.836,76.896h-6.513c-1.105,0-2,0.896-2,2v25.666c0,1.104,0.895,2,2,2h6.513c1.104,0,2-0.896,2-2V78.896
		C40.836,77.791,39.94,76.896,38.836,76.896z"/>
	<path d="M60.167,56.896h-6.513c-1.105,0-2,0.896-2,2v45.666c0,1.104,0.895,2,2,2h6.513c1.104,0,2-0.896,2-2V58.896
		C62.167,57.791,61.271,56.896,60.167,56.896z"/>
	<path d="M81.169,67.229h-6.513c-1.105,0-2,0.896-2,2v35.333c0,1.104,0.895,2,2,2h6.513c1.104,0,2-0.896,2-2V69.229
		C83.169,68.124,82.273,67.229,81.169,67.229z"/>
</g>
</svg>
