<?xml version="1.0" encoding="utf-8"?>
<!-- Generator: Adobe Illustrator 16.0.4, SVG Export Plug-In . SVG Version: 6.00 Build 0)  -->
<!DOCTYPE svg PUBLIC "-//W3C//DTD SVG 1.1//EN" "http://www.w3.org/Graphics/SVG/1.1/DTD/svg11.dtd">
<svg version="1.1" id="Layer_1" xmlns="http://www.w3.org/2000/svg" xmlns:xlink="http://www.w3.org/1999/xlink" x="0px" y="0px"
	 width="126px" height="126px" viewBox="0 0 126 126" enable-background="new 0 0 126 126" xml:space="preserve">
<path d="M31.538,68.564l-3.551-3.52l4.002-4.038l3.551,3.52L31.538,68.564z M35.975,56.991l3.551,3.522l4.793-4.833l-3.551-3.521
	L35.975,56.991z M79.697,26.406l1.777,4.674l7.362-2.795L72.952,48.941l-13.41-15.72L43.69,49.209l3.551,3.52l12.024-12.127
	l13.887,16.279l19.859-25.82v9.39h5V19.453L79.697,26.406z M38.758,76.881h-6.513c-1.105,0-2,0.895-2,2v25.666c0,1.104,0.895,2,2,2
	h6.513c1.104,0,2-0.896,2-2V78.881C40.758,77.775,39.862,76.881,38.758,76.881z M60.089,56.881h-6.513c-1.105,0-2,0.895-2,2v45.666
	c0,1.104,0.895,2,2,2h6.513c1.104,0,2-0.896,2-2V58.881C62.089,57.775,61.193,56.881,60.089,56.881z M81.091,67.213h-6.513
	c-1.105,0-2,0.896-2,2v35.334c0,1.104,0.895,2,2,2h6.513c1.104,0,2-0.896,2-2V69.213C83.091,68.109,82.195,67.213,81.091,67.213z"/>
</svg>
