<?xml version="1.0" encoding="utf-8"?>
<!-- Generator: Adobe Illustrator 16.0.0, SVG Export Plug-In . SVG Version: 6.00 Build 0)  -->
<!DOCTYPE svg PUBLIC "-//W3C//DTD SVG 1.1//EN" "http://www.w3.org/Graphics/SVG/1.1/DTD/svg11.dtd">
<svg version="1.1" id="Layer_2" xmlns="http://www.w3.org/2000/svg" xmlns:xlink="http://www.w3.org/1999/xlink" x="0px" y="0px"
	 width="126px" height="126px" viewBox="0 0 126 126" enable-background="new 0 0 126 126" xml:space="preserve">
<g>
	<path fill="#010101" d="M110.073,22.714c-2.831-2.831-7.422-2.831-10.253,0L78.96,43.573c-1.785,1.785-2.442,4.27-1.976,6.572
		L72.13,55c-10.959-8.205-26.608-7.333-36.564,2.624c-1.809,1.809-3.311,3.808-4.52,5.93c-0.159-0.195-0.391-0.328-0.662-0.328
		h-1.347c-0.477,0-0.866,0.388-0.866,0.865v2.694c0,0.477,0.389,0.865,0.866,0.865h0.098c-0.183,0.492-0.353,0.988-0.507,1.487
		l-1.432,0.998c-0.131,0.091-0.163,0.271-0.071,0.402c0.09,0.131,0.271,0.162,0.401,0.071l0.849-0.591
		c-0.496,1.821-0.806,3.683-0.929,5.555c-0.066,0.122-0.113,0.255-0.113,0.403v2.694c0,0.138,0.04,0.264,0.098,0.38
		c0.074,1.283,0.233,2.563,0.482,3.828v2.265c0,0.457,0.36,0.823,0.81,0.854c0.576,1.8,1.338,3.552,2.287,5.228
		c0.014,0.282,0.166,0.52,0.388,0.667c0.357,0.592,0.739,1.171,1.144,1.74l-1.013,0.705c-0.131,0.092-0.163,0.271-0.072,0.402
		c0.091,0.131,0.271,0.163,0.401,0.072l1.02-0.71c0.037,0.05,0.077,0.099,0.115,0.148v3.355c0,0.159,0.129,0.288,0.289,0.288
		c0.159,0,0.289-0.129,0.289-0.288v-2.61c0.62,0.768,1.284,1.512,1.998,2.226c10.917,10.917,28.681,10.917,39.598,0
		c0.585-0.585,1.132-1.193,1.655-1.815v1.479c0,0.477,0.389,0.865,0.866,0.865h1.347c0.478,0,0.865-0.389,0.865-0.865V94.19
		c0-0.478-0.388-0.866-0.865-0.866h-0.623c0.907-1.313,1.679-2.69,2.336-4.109v1.825c0,0.478,0.388,0.865,0.866,0.865h1.347
		c0.478,0,0.866-0.388,0.866-0.865v-2.693c0-0.479-0.388-0.866-0.866-0.866H81.61c-0.056,0-0.104,0.021-0.157,0.031
		c0.523-1.358,0.938-2.745,1.242-4.155c0.133-0.1,0.225-0.252,0.225-0.432v-0.478l0.654-0.455v3.584c0,0.159,0.13,0.288,0.289,0.288
		s0.289-0.129,0.289-0.288v-4.137c0-0.108-0.06-0.207-0.155-0.256c-0.096-0.051-0.211-0.043-0.298,0.019l-0.672,0.469
		c0.115-0.758,0.199-1.519,0.252-2.281c0.002,0,0.003,0.002,0.005,0.002c0.159,0,0.288-0.129,0.288-0.288v-4.138
		c0-0.107-0.06-0.206-0.155-0.256c-0.067-0.035-0.141-0.032-0.21-0.012c-0.038-0.386-0.097-0.768-0.15-1.151h0.159
		c0.478,0,0.866-0.388,0.866-0.865v-2.693c0-0.479-0.388-0.866-0.866-0.866h-1.136c-0.303-0.982-0.671-1.946-1.085-2.896v-2.279
		c0-0.478-0.388-0.865-0.866-0.865h-0.734c-0.494-0.828-1.021-1.641-1.607-2.424l4.855-4.855c2.303,0.467,4.787-0.19,6.572-1.976
		l20.859-20.859C112.904,30.136,112.904,25.545,110.073,22.714z M82.957,88.058c0.159,0,0.289,0.13,0.289,0.289v2.693
		c0,0.159-0.129,0.288-0.289,0.288H81.61c-0.159,0-0.289-0.129-0.289-0.288v-2.693c0-0.159,0.129-0.289,0.289-0.289H82.957z
		 M39.75,64.937c0.445-0.556,0.919-1.095,1.432-1.61h1.683c0.303,0,0.549,0.246,0.549,0.549v5.128c0,0.303-0.246,0.549-0.549,0.549
		h-2.564c-0.302,0-0.55-0.246-0.55-0.549V64.937z M29.037,67.073c-0.159,0-0.289-0.129-0.289-0.288v-2.694
		c0-0.159,0.13-0.288,0.289-0.288h1.347c0.159,0,0.288,0.129,0.288,0.288v0.133c-0.496,0.93-0.936,1.881-1.32,2.85H29.037z
		 M41.816,91.628c0,0.135-0.055,0.255-0.136,0.351c-0.15-0.142-0.311-0.267-0.458-0.414c-1.222-1.222-2.23-2.574-3.069-3.998V86.5
		c0-0.303,0.248-0.549,0.55-0.549h2.564c0.303,0,0.549,0.246,0.549,0.549V91.628z M42.496,92.715
		c0.258-0.29,0.419-0.669,0.419-1.087V86.5c0-0.909-0.738-1.648-1.647-1.648h-2.564c-0.652,0-1.213,0.385-1.48,0.937
		c-2.849-6.196-2.387-13.552,1.428-19.352v2.566c0,0.908,0.74,1.647,1.648,1.647h2.564c0.909,0,1.647-0.739,1.647-1.647v-5.128
		c0-0.909-0.738-1.648-1.647-1.648h-0.475c7.617-6.511,18.982-6.361,26.433,0.436c-0.212-0.101-0.447-0.16-0.697-0.16H65.56
		c-0.908,0-1.648,0.739-1.648,1.648v5.128c0,0.908,0.74,1.647,1.648,1.647h2.564c0.909,0,1.647-0.739,1.647-1.647V64.15
		c0-0.307-0.089-0.591-0.235-0.837c3.12,3.134,4.964,7.054,5.574,11.126c-0.293-0.27-0.681-0.438-1.11-0.438h-2.563
		c-0.909,0-1.647,0.739-1.647,1.648v5.128c0,0.908,0.738,1.647,1.647,1.647H74c0.27,0,0.521-0.071,0.747-0.188
		c-0.197,0.801-0.436,1.592-0.733,2.367c-0.069,0.016-0.139,0.028-0.199,0.07l-3.022,2.105c-0.249,0.174-0.31,0.517-0.136,0.766
		c0.173,0.249,0.516,0.31,0.764,0.137l1.783-1.242c-0.932,1.847-2.156,3.583-3.696,5.123C62.118,98.953,50.345,99.329,42.496,92.715
		z M68.673,64.15v5.128c0,0.303-0.246,0.549-0.549,0.549H65.56c-0.302,0-0.55-0.246-0.55-0.549V64.15
		c0-0.303,0.248-0.549,0.55-0.549h2.564C68.427,63.602,68.673,63.848,68.673,64.15z M74.55,75.65v5.128
		c0,0.303-0.247,0.549-0.55,0.549h-2.563c-0.303,0-0.549-0.246-0.549-0.549V75.65c0-0.303,0.246-0.549,0.549-0.549H74
		C74.303,75.102,74.55,75.348,74.55,75.65z M79.031,93.902c0.159,0,0.288,0.129,0.288,0.288v2.694c0,0.159-0.129,0.288-0.288,0.288
		h-1.347c-0.159,0-0.289-0.129-0.289-0.288v-2.219c0.197-0.252,0.389-0.507,0.577-0.764H79.031z M83.215,69.699
		c0.159,0,0.289,0.13,0.289,0.289v2.693c0,0.159-0.129,0.288-0.289,0.288h-0.247c-0.176-1.1-0.397-2.193-0.704-3.271H83.215z
		 M80.128,63.658c0.159,0,0.289,0.13,0.289,0.288v0.981c-0.215-0.432-0.465-0.848-0.703-1.27H80.128z"/>
	<path fill="#010101" d="M59.071,62.227h-2.563c-0.909,0-1.647,0.739-1.647,1.648v5.128c0,0.908,0.738,1.647,1.647,1.647h2.563
		c0.909,0,1.648-0.739,1.648-1.647v-5.128C60.719,62.966,59.98,62.227,59.071,62.227z M59.621,69.003
		c0,0.303-0.247,0.549-0.55,0.549h-2.563c-0.303,0-0.549-0.246-0.549-0.549v-5.128c0-0.303,0.246-0.549,0.549-0.549h2.563
		c0.303,0,0.55,0.246,0.55,0.549V69.003z"/>
	<path fill="#010101" d="M50.718,61.739c-0.183-0.096-0.401-0.081-0.568,0.036l-3.022,2.105c-0.249,0.174-0.31,0.517-0.136,0.766
		c0.173,0.249,0.516,0.31,0.764,0.137l2.159-1.504v6.822c0,0.304,0.246,0.549,0.55,0.549c0.303,0,0.549-0.245,0.549-0.549v-7.875
		C51.013,62.021,50.899,61.834,50.718,61.739z"/>
	<path fill="#010101" d="M48.74,73.727h-2.563c-0.909,0-1.647,0.739-1.647,1.648v5.128c0,0.908,0.738,1.647,1.647,1.647h2.563
		c0.909,0,1.648-0.739,1.648-1.647v-5.128C50.388,74.466,49.649,73.727,48.74,73.727z M49.29,80.503c0,0.303-0.247,0.549-0.55,0.549
		h-2.563c-0.303,0-0.549-0.246-0.549-0.549v-5.128c0-0.303,0.246-0.549,0.549-0.549h2.563c0.303,0,0.55,0.246,0.55,0.549V80.503z"/>
	<path fill="#010101" d="M40.387,73.239c-0.183-0.096-0.401-0.081-0.568,0.036l-3.022,2.105c-0.249,0.174-0.31,0.517-0.136,0.766
		c0.173,0.249,0.516,0.31,0.764,0.137l2.159-1.504v6.822c0,0.304,0.246,0.549,0.55,0.549c0.303,0,0.549-0.245,0.549-0.549v-7.875
		C40.682,73.521,40.568,73.334,40.387,73.239z"/>
	<path fill="#010101" d="M57.793,74.002h-2.564c-0.908,0-1.648,0.739-1.648,1.648v5.128c0,0.908,0.74,1.647,1.648,1.647h2.564
		c0.909,0,1.647-0.739,1.647-1.647V75.65C59.441,74.741,58.703,74.002,57.793,74.002z M58.342,80.778
		c0,0.303-0.246,0.549-0.549,0.549h-2.564c-0.302,0-0.55-0.246-0.55-0.549V75.65c0-0.303,0.248-0.549,0.55-0.549h2.564
		c0.303,0,0.549,0.246,0.549,0.549V80.778z"/>
	<path fill="#010101" d="M64.844,75.055v6.822c0,0.304,0.246,0.549,0.55,0.549c0.303,0,0.549-0.245,0.549-0.549v-7.875
		c0-0.205-0.114-0.393-0.295-0.487c-0.183-0.096-0.401-0.081-0.568,0.036l-3.022,2.105c-0.249,0.174-0.31,0.517-0.136,0.766
		c0.173,0.249,0.516,0.31,0.764,0.137L64.844,75.055z"/>
	<path fill="#010101" d="M57.475,84.852h-2.563c-0.909,0-1.647,0.739-1.647,1.648v5.128c0,0.908,0.738,1.647,1.647,1.647h2.563
		c0.909,0,1.648-0.739,1.648-1.647V86.5C59.123,85.591,58.384,84.852,57.475,84.852z M58.024,91.628c0,0.303-0.247,0.549-0.55,0.549
		h-2.563c-0.303,0-0.549-0.246-0.549-0.549V86.5c0-0.303,0.246-0.549,0.549-0.549h2.563c0.303,0,0.55,0.246,0.55,0.549V91.628z"/>
	<path fill="#010101" d="M49.122,84.364c-0.183-0.096-0.401-0.081-0.568,0.036l-3.022,2.105c-0.249,0.174-0.31,0.517-0.136,0.766
		c0.173,0.249,0.516,0.31,0.764,0.137l2.159-1.504v6.822c0,0.304,0.246,0.549,0.55,0.549c0.303,0,0.549-0.245,0.549-0.549v-7.875
		C49.417,84.646,49.303,84.459,49.122,84.364z"/>
	<path fill="#010101" d="M66.528,85.127h-2.564c-0.908,0-1.648,0.739-1.648,1.648v5.128c0,0.908,0.74,1.647,1.648,1.647h2.564
		c0.909,0,1.647-0.739,1.647-1.647v-5.128C68.176,85.866,67.438,85.127,66.528,85.127z M67.077,91.903
		c0,0.303-0.246,0.549-0.549,0.549h-2.564c-0.302,0-0.55-0.246-0.55-0.549v-5.128c0-0.303,0.248-0.549,0.55-0.549h2.564
		c0.303,0,0.549,0.246,0.549,0.549V91.903z"/>
	<path fill="#010101" d="M88.642,63.081h-1.347c-0.478,0-0.865,0.388-0.865,0.865v2.694c0,0.477,0.388,0.865,0.865,0.865h1.347
		c0.478,0,0.866-0.389,0.866-0.865v-2.694C89.508,63.469,89.12,63.081,88.642,63.081z M88.931,66.641
		c0,0.159-0.129,0.288-0.289,0.288h-1.347c-0.159,0-0.288-0.129-0.288-0.288v-2.694c0-0.158,0.129-0.288,0.288-0.288h1.347
		c0.159,0,0.289,0.13,0.289,0.288V66.641z"/>
	<path fill="#010101" d="M84.254,62.825c-0.096-0.051-0.211-0.043-0.298,0.019l-1.588,1.106c-0.131,0.091-0.163,0.271-0.071,0.401
		c0.091,0.131,0.271,0.163,0.401,0.072l1.134-0.79v3.584c0,0.159,0.13,0.288,0.289,0.288s0.289-0.129,0.289-0.288v-4.137
		C84.409,62.973,84.349,62.874,84.254,62.825z"/>
	<path fill="#010101" d="M94.264,64.091c0-0.478-0.388-0.865-0.865-0.865h-1.347c-0.477,0-0.866,0.388-0.866,0.865v2.694
		c0,0.477,0.389,0.865,0.866,0.865h1.347c0.477,0,0.865-0.389,0.865-0.865V64.091z M93.687,66.785c0,0.159-0.129,0.288-0.288,0.288
		h-1.347c-0.159,0-0.289-0.129-0.289-0.288v-2.694c0-0.159,0.13-0.288,0.289-0.288h1.347c0.159,0,0.288,0.129,0.288,0.288V66.785z"
		/>
	<path fill="#010101" d="M97.524,62.97c-0.096-0.051-0.211-0.043-0.299,0.019l-1.587,1.106c-0.131,0.091-0.163,0.271-0.072,0.402
		c0.091,0.13,0.271,0.162,0.402,0.071l1.134-0.79v3.584c0,0.159,0.129,0.288,0.289,0.288s0.289-0.129,0.289-0.288v-4.137
		C97.679,63.117,97.619,63.019,97.524,62.97z"/>
	<path fill="#010101" d="M86.624,73.692h1.347c0.477,0,0.865-0.389,0.865-0.866v-2.693c0-0.478-0.388-0.866-0.865-0.866h-1.347
		c-0.477,0-0.866,0.389-0.866,0.866v2.693C85.758,73.304,86.147,73.692,86.624,73.692z M86.335,70.133
		c0-0.159,0.13-0.288,0.289-0.288h1.347c0.159,0,0.288,0.129,0.288,0.288v2.693c0,0.159-0.129,0.289-0.288,0.289h-1.347
		c-0.159,0-0.289-0.13-0.289-0.289V70.133z"/>
	<path fill="#010101" d="M97.351,72.826v-2.693c0-0.478-0.389-0.866-0.866-0.866h-1.347c-0.478,0-0.865,0.389-0.865,0.866v2.693
		c0,0.478,0.388,0.866,0.865,0.866h1.347C96.962,73.692,97.351,73.304,97.351,72.826z M96.774,72.826
		c0,0.159-0.13,0.289-0.289,0.289h-1.347c-0.159,0-0.288-0.13-0.288-0.289v-2.693c0-0.159,0.129-0.288,0.288-0.288h1.347
		c0.159,0,0.289,0.129,0.289,0.288V72.826z"/>
	<path fill="#010101" d="M92.097,69.011c-0.096-0.051-0.211-0.043-0.299,0.019l-1.587,1.106c-0.131,0.091-0.163,0.271-0.071,0.402
		c0.09,0.131,0.271,0.162,0.401,0.071l1.134-0.79v3.584c0,0.16,0.129,0.289,0.289,0.289c0.159,0,0.288-0.129,0.288-0.289v-4.137
		C92.252,69.159,92.192,69.061,92.097,69.011z"/>
	<path fill="#010101" d="M85.591,78.526c0,0.477,0.388,0.865,0.865,0.865h1.347c0.478,0,0.866-0.389,0.866-0.865v-2.694
		c0-0.478-0.388-0.866-0.866-0.866h-1.347c-0.478,0-0.865,0.389-0.865,0.866V78.526z M86.168,75.832
		c0-0.159,0.129-0.288,0.288-0.288h1.347c0.159,0,0.289,0.129,0.289,0.288v2.694c0,0.159-0.13,0.288-0.289,0.288h-1.347
		c-0.159,0-0.288-0.129-0.288-0.288V75.832z"/>
	<path fill="#010101" d="M90.347,75.977v2.694c0,0.477,0.389,0.865,0.866,0.865h1.347c0.478,0,0.865-0.389,0.865-0.865v-2.694
		c0-0.478-0.388-0.866-0.865-0.866h-1.347C90.735,75.11,90.347,75.499,90.347,75.977z M92.848,75.977v2.694
		c0,0.158-0.129,0.288-0.289,0.288h-1.347c-0.159,0-0.289-0.13-0.289-0.288v-2.694c0-0.159,0.13-0.288,0.289-0.288h1.347
		C92.719,75.688,92.848,75.817,92.848,75.977z"/>
	<path fill="#010101" d="M96.552,79.536c0.159,0,0.289-0.129,0.289-0.288V75.11c0-0.107-0.06-0.205-0.155-0.256
		c-0.096-0.05-0.21-0.042-0.298,0.02L94.8,75.979c-0.131,0.092-0.163,0.271-0.072,0.402c0.091,0.131,0.271,0.163,0.401,0.072
		l1.134-0.79v3.584C96.264,79.407,96.393,79.536,96.552,79.536z"/>
	<path fill="#010101" d="M88.384,81.439h-1.347c-0.478,0-0.865,0.388-0.865,0.865v2.694c0,0.477,0.388,0.865,0.865,0.865h1.347
		c0.478,0,0.866-0.389,0.866-0.865v-2.694C89.25,81.827,88.861,81.439,88.384,81.439z M88.672,84.999
		c0,0.159-0.129,0.288-0.289,0.288h-1.347c-0.159,0-0.288-0.129-0.288-0.288v-2.694c0-0.158,0.129-0.288,0.288-0.288h1.347
		c0.159,0,0.289,0.13,0.289,0.288V84.999z"/>
	<path fill="#010101" d="M93.14,81.584h-1.347c-0.477,0-0.866,0.388-0.866,0.865v2.694c0,0.477,0.389,0.865,0.866,0.865h1.347
		c0.477,0,0.865-0.389,0.865-0.865v-2.694C94.005,81.972,93.617,81.584,93.14,81.584z M93.428,85.144
		c0,0.159-0.129,0.288-0.288,0.288h-1.347c-0.159,0-0.289-0.129-0.289-0.288v-2.694c0-0.159,0.13-0.288,0.289-0.288h1.347
		c0.159,0,0.288,0.129,0.288,0.288V85.144z"/>
	<path fill="#010101" d="M97.266,81.328c-0.096-0.051-0.211-0.043-0.299,0.019l-1.587,1.106c-0.131,0.091-0.163,0.271-0.072,0.402
		c0.091,0.13,0.271,0.162,0.402,0.071l1.134-0.79v3.584c0,0.159,0.129,0.288,0.289,0.288s0.289-0.129,0.289-0.288v-4.137
		C97.421,81.476,97.361,81.377,97.266,81.328z"/>
	<path fill="#010101" d="M87.713,87.625h-1.347c-0.477,0-0.866,0.389-0.866,0.866v2.693c0,0.478,0.389,0.866,0.866,0.866h1.347
		c0.477,0,0.865-0.389,0.865-0.866v-2.693C88.578,88.014,88.19,87.625,87.713,87.625z M88.001,91.185
		c0,0.159-0.129,0.289-0.288,0.289h-1.347c-0.159,0-0.289-0.13-0.289-0.289v-2.693c0-0.159,0.13-0.288,0.289-0.288h1.347
		c0.159,0,0.288,0.129,0.288,0.288V91.185z"/>
	<path fill="#010101" d="M96.227,87.625H94.88c-0.478,0-0.865,0.389-0.865,0.866v2.693c0,0.478,0.388,0.866,0.865,0.866h1.347
		c0.478,0,0.866-0.389,0.866-0.866v-2.693C97.093,88.014,96.704,87.625,96.227,87.625z M96.516,91.185
		c0,0.159-0.13,0.289-0.289,0.289H94.88c-0.159,0-0.288-0.13-0.288-0.289v-2.693c0-0.159,0.129-0.288,0.288-0.288h1.347
		c0.159,0,0.289,0.129,0.289,0.288V91.185z"/>
	<path fill="#010101" d="M91.417,88.178v3.584c0,0.16,0.129,0.289,0.289,0.289c0.159,0,0.288-0.129,0.288-0.289v-4.137
		c0-0.107-0.06-0.206-0.155-0.256c-0.096-0.051-0.211-0.043-0.299,0.019l-1.587,1.106c-0.131,0.091-0.163,0.271-0.071,0.402
		c0.09,0.131,0.271,0.162,0.401,0.071L91.417,88.178z"/>
	<path fill="#010101" d="M87.545,93.324h-1.347c-0.478,0-0.865,0.389-0.865,0.866v2.694c0,0.477,0.388,0.865,0.865,0.865h1.347
		c0.478,0,0.866-0.389,0.866-0.865V94.19C88.411,93.713,88.023,93.324,87.545,93.324z M87.834,96.885
		c0,0.159-0.13,0.288-0.289,0.288h-1.347c-0.159,0-0.288-0.129-0.288-0.288V94.19c0-0.159,0.129-0.288,0.288-0.288h1.347
		c0.159,0,0.289,0.129,0.289,0.288V96.885z"/>
	<path fill="#010101" d="M83.157,93.068c-0.096-0.05-0.211-0.043-0.299,0.02l-1.587,1.105c-0.131,0.092-0.163,0.271-0.071,0.402
		c0.09,0.131,0.271,0.162,0.401,0.072l1.134-0.79v3.584c0,0.159,0.129,0.288,0.289,0.288c0.159,0,0.288-0.129,0.288-0.288v-4.138
		C83.312,93.217,83.252,93.118,83.157,93.068z"/>
	<path fill="#010101" d="M92.301,93.469h-1.347c-0.477,0-0.866,0.389-0.866,0.866v2.694c0,0.477,0.389,0.865,0.866,0.865h1.347
		c0.478,0,0.865-0.389,0.865-0.865v-2.694C93.167,93.857,92.779,93.469,92.301,93.469z M92.59,97.029
		c0,0.158-0.129,0.288-0.289,0.288h-1.347c-0.159,0-0.289-0.13-0.289-0.288v-2.694c0-0.159,0.13-0.288,0.289-0.288h1.347
		c0.159,0,0.289,0.129,0.289,0.288V97.029z"/>
	<path fill="#010101" d="M96.427,93.213c-0.096-0.05-0.21-0.042-0.298,0.02l-1.587,1.105c-0.131,0.092-0.163,0.271-0.072,0.402
		c0.091,0.131,0.271,0.163,0.401,0.072l1.134-0.79v3.584c0,0.159,0.129,0.288,0.289,0.288c0.159,0,0.289-0.129,0.289-0.288v-4.138
		C96.583,93.361,96.522,93.264,96.427,93.213z"/>
	<path fill="#010101" d="M17.979,63.946c0-0.478-0.388-0.865-0.866-0.865h-1.347c-0.477,0-0.866,0.388-0.866,0.865v2.694
		c0,0.477,0.389,0.865,0.866,0.865h1.347c0.478,0,0.866-0.389,0.866-0.865V63.946z M17.402,66.641c0,0.159-0.13,0.288-0.289,0.288
		h-1.347c-0.159,0-0.289-0.129-0.289-0.288v-2.694c0-0.158,0.13-0.288,0.289-0.288h1.347c0.159,0,0.289,0.13,0.289,0.288V66.641z"/>
	<path fill="#010101" d="M25.627,63.081H24.28c-0.478,0-0.865,0.388-0.865,0.865v2.694c0,0.477,0.388,0.865,0.865,0.865h1.347
		c0.478,0,0.866-0.389,0.866-0.865v-2.694C26.493,63.469,26.105,63.081,25.627,63.081z M25.916,66.641
		c0,0.159-0.129,0.288-0.289,0.288H24.28c-0.159,0-0.288-0.129-0.288-0.288v-2.694c0-0.158,0.129-0.288,0.288-0.288h1.347
		c0.159,0,0.289,0.13,0.289,0.288V66.641z"/>
	<path fill="#010101" d="M21.239,62.825c-0.096-0.051-0.211-0.043-0.298,0.019l-1.588,1.106c-0.131,0.091-0.163,0.271-0.071,0.401
		c0.091,0.131,0.271,0.163,0.401,0.072l1.134-0.79v3.584c0,0.159,0.13,0.288,0.289,0.288s0.289-0.129,0.289-0.288v-4.137
		C21.395,62.973,21.334,62.874,21.239,62.825z"/>
	<path fill="#010101" d="M18.854,73.547H20.2c0.478,0,0.866-0.388,0.866-0.865v-2.693c0-0.479-0.388-0.866-0.866-0.866h-1.347
		c-0.478,0-0.866,0.388-0.866,0.866v2.693C17.988,73.159,18.375,73.547,18.854,73.547z M18.565,69.988
		c0-0.159,0.129-0.289,0.289-0.289H20.2c0.159,0,0.289,0.13,0.289,0.289v2.693c0,0.159-0.129,0.288-0.289,0.288h-1.347
		c-0.159,0-0.289-0.129-0.289-0.288V69.988z"/>
	<path fill="#010101" d="M23.609,73.692h1.347c0.477,0,0.865-0.389,0.865-0.866v-2.693c0-0.478-0.388-0.866-0.865-0.866h-1.347
		c-0.477,0-0.866,0.389-0.866,0.866v2.693C22.743,73.304,23.132,73.692,23.609,73.692z M23.32,70.133
		c0-0.159,0.13-0.288,0.289-0.288h1.347c0.159,0,0.288,0.129,0.288,0.288v2.693c0,0.159-0.129,0.289-0.288,0.289h-1.347
		c-0.159,0-0.289-0.13-0.289-0.289V70.133z"/>
	<path fill="#010101" d="M14.928,79.392h1.347c0.478,0,0.865-0.389,0.865-0.865v-2.694c0-0.478-0.388-0.866-0.865-0.866h-1.347
		c-0.477,0-0.866,0.389-0.866,0.866v2.694C14.062,79.003,14.451,79.392,14.928,79.392z M14.639,75.832
		c0-0.159,0.13-0.288,0.289-0.288h1.347c0.159,0,0.288,0.129,0.288,0.288v2.694c0,0.159-0.129,0.288-0.288,0.288h-1.347
		c-0.159,0-0.289-0.129-0.289-0.288V75.832z"/>
	<path fill="#010101" d="M23.442,79.392h1.347c0.478,0,0.866-0.389,0.866-0.865v-2.694c0-0.478-0.388-0.866-0.866-0.866h-1.347
		c-0.478,0-0.865,0.389-0.865,0.866v2.694C22.577,79.003,22.964,79.392,23.442,79.392z M23.154,75.832
		c0-0.159,0.129-0.288,0.288-0.288h1.347c0.159,0,0.289,0.129,0.289,0.288v2.694c0,0.159-0.13,0.288-0.289,0.288h-1.347
		c-0.159,0-0.288-0.129-0.288-0.288V75.832z"/>
	<path fill="#010101" d="M20.268,79.392c0.159,0,0.288-0.129,0.288-0.288v-4.138c0-0.107-0.06-0.206-0.155-0.256
		c-0.096-0.05-0.211-0.043-0.299,0.02l-1.587,1.105c-0.131,0.092-0.163,0.271-0.071,0.402c0.09,0.131,0.271,0.162,0.401,0.072
		l1.134-0.79v3.584C19.979,79.263,20.108,79.392,20.268,79.392z"/>
	<path fill="#010101" d="M16.855,81.439h-1.347c-0.477,0-0.866,0.388-0.866,0.865v2.694c0,0.477,0.389,0.865,0.866,0.865h1.347
		c0.478,0,0.866-0.389,0.866-0.865v-2.694C17.721,81.827,17.333,81.439,16.855,81.439z M17.144,84.999
		c0,0.159-0.13,0.288-0.289,0.288h-1.347c-0.159,0-0.289-0.129-0.289-0.288v-2.694c0-0.158,0.13-0.288,0.289-0.288h1.347
		c0.159,0,0.289,0.13,0.289,0.288V84.999z"/>
	<path fill="#010101" d="M25.369,81.439h-1.347c-0.478,0-0.865,0.388-0.865,0.865v2.694c0,0.477,0.388,0.865,0.865,0.865h1.347
		c0.478,0,0.866-0.389,0.866-0.865v-2.694C26.235,81.827,25.847,81.439,25.369,81.439z M25.658,84.999
		c0,0.159-0.129,0.288-0.289,0.288h-1.347c-0.159,0-0.288-0.129-0.288-0.288v-2.694c0-0.158,0.129-0.288,0.288-0.288h1.347
		c0.159,0,0.289,0.13,0.289,0.288V84.999z"/>
	<path fill="#010101" d="M20.981,81.184c-0.096-0.051-0.211-0.043-0.298,0.019l-1.588,1.106c-0.131,0.091-0.163,0.271-0.071,0.401
		c0.091,0.131,0.271,0.163,0.401,0.072l1.134-0.79v3.584c0,0.159,0.13,0.288,0.289,0.288s0.289-0.129,0.289-0.288v-4.137
		C21.136,81.331,21.076,81.232,20.981,81.184z"/>
	<path fill="#010101" d="M19.942,87.48h-1.347c-0.478,0-0.866,0.388-0.866,0.866v2.693c0,0.478,0.388,0.865,0.866,0.865h1.347
		c0.478,0,0.866-0.388,0.866-0.865v-2.693C20.808,87.868,20.419,87.48,19.942,87.48z M20.23,91.04c0,0.159-0.129,0.288-0.289,0.288
		h-1.347c-0.159,0-0.289-0.129-0.289-0.288v-2.693c0-0.159,0.129-0.289,0.289-0.289h1.347c0.159,0,0.289,0.13,0.289,0.289V91.04z"/>
	<path fill="#010101" d="M24.698,87.625h-1.347c-0.477,0-0.866,0.389-0.866,0.866v2.693c0,0.478,0.389,0.866,0.866,0.866h1.347
		c0.477,0,0.865-0.389,0.865-0.866v-2.693C25.563,88.014,25.175,87.625,24.698,87.625z M24.986,91.185
		c0,0.159-0.129,0.289-0.288,0.289h-1.347c-0.159,0-0.289-0.13-0.289-0.289v-2.693c0-0.159,0.13-0.288,0.289-0.288h1.347
		c0.159,0,0.288,0.129,0.288,0.288V91.185z"/>
	<path fill="#010101" d="M28.402,88.178v3.584c0,0.16,0.129,0.289,0.289,0.289c0.159,0,0.288-0.129,0.288-0.289v-4.137
		c0-0.107-0.06-0.206-0.155-0.256c-0.096-0.051-0.211-0.043-0.299,0.019l-1.587,1.106c-0.131,0.091-0.163,0.271-0.071,0.402
		c0.09,0.131,0.271,0.162,0.401,0.071L28.402,88.178z"/>
	<path fill="#010101" d="M16.017,93.324h-1.347c-0.477,0-0.866,0.389-0.866,0.866v2.694c0,0.477,0.389,0.865,0.866,0.865h1.347
		c0.478,0,0.865-0.389,0.865-0.865V94.19C16.882,93.713,16.494,93.324,16.017,93.324z M16.305,96.885
		c0,0.159-0.129,0.288-0.288,0.288h-1.347c-0.159,0-0.289-0.129-0.289-0.288V94.19c0-0.159,0.13-0.288,0.289-0.288h1.347
		c0.159,0,0.288,0.129,0.288,0.288V96.885z"/>
	<path fill="#010101" d="M24.53,93.324h-1.347c-0.478,0-0.865,0.389-0.865,0.866v2.694c0,0.477,0.388,0.865,0.865,0.865h1.347
		c0.478,0,0.866-0.389,0.866-0.865V94.19C25.396,93.713,25.008,93.324,24.53,93.324z M24.819,96.885c0,0.159-0.13,0.288-0.289,0.288
		h-1.347c-0.159,0-0.288-0.129-0.288-0.288V94.19c0-0.159,0.129-0.288,0.288-0.288h1.347c0.159,0,0.289,0.129,0.289,0.288V96.885z"
		/>
	<path fill="#010101" d="M20.143,93.068c-0.096-0.05-0.211-0.043-0.299,0.02l-1.587,1.105c-0.131,0.092-0.163,0.271-0.071,0.402
		c0.09,0.131,0.271,0.162,0.401,0.072l1.134-0.79v3.584c0,0.159,0.129,0.288,0.289,0.288c0.159,0,0.288-0.129,0.288-0.288v-4.138
		C20.297,93.217,20.237,93.118,20.143,93.068z"/>
	<path fill="#010101" d="M29.287,93.469h-1.347c-0.477,0-0.866,0.389-0.866,0.866v2.694c0,0.477,0.389,0.865,0.866,0.865h1.347
		c0.478,0,0.865-0.389,0.865-0.865v-2.694C30.152,93.857,29.764,93.469,29.287,93.469z M29.575,97.029
		c0,0.158-0.129,0.288-0.289,0.288h-1.347c-0.159,0-0.289-0.13-0.289-0.288v-2.694c0-0.159,0.13-0.288,0.289-0.288h1.347
		c0.159,0,0.289,0.129,0.289,0.288V97.029z"/>
</g>
</svg>
