<?xml version="1.0" encoding="utf-8"?>
<!-- Generator: Adobe Illustrator 16.0.0, SVG Export Plug-In . SVG Version: 6.00 Build 0)  -->
<!DOCTYPE svg PUBLIC "-//W3C//DTD SVG 1.1//EN" "http://www.w3.org/Graphics/SVG/1.1/DTD/svg11.dtd">
<svg version="1.1" id="Layer_1" xmlns="http://www.w3.org/2000/svg" xmlns:xlink="http://www.w3.org/1999/xlink" x="0px" y="0px"
	 width="126px" height="126px" viewBox="0 0 126 126" enable-background="new 0 0 126 126" xml:space="preserve">
<g>
	<path d="M26.166,45.026V18.971c0-1.104-0.895-2-2-2c-1.104,0-2,0.896-2,2v26.056c-3.078,0.255-5.5,2.83-5.5,5.975v18.667
		c0,3.145,2.422,5.72,5.5,5.975v31.387c0,1.104,0.896,2,2,2c1.105,0,2-0.896,2-2V75.643c3.08-0.255,5.5-2.83,5.5-5.975V51.001
		C31.666,47.856,29.246,45.281,26.166,45.026z"/>
	<path d="M66.166,31.026V18.971c0-1.104-0.895-2-2-2c-1.104,0-2,0.896-2,2v12.056c-3.078,0.255-5.5,2.83-5.5,5.975v18.667
		c0,3.145,2.422,5.72,5.5,5.975v45.387c0,1.104,0.896,2,2,2c1.105,0,2-0.896,2-2V61.643c3.08-0.255,5.5-2.83,5.5-5.975V37.001
		C71.666,33.856,69.246,31.281,66.166,31.026z"/>
	<path d="M103.834,50.693V18.971c0-1.104-0.896-2-2-2c-1.105,0-2,0.896-2,2v31.723c-3.08,0.255-5.5,2.83-5.5,5.975v18.667
		c0,3.145,2.42,5.72,5.5,5.975v25.72c0,1.104,0.895,2,2,2c1.104,0,2-0.896,2-2V81.31c3.078-0.255,5.5-2.83,5.5-5.975V56.668
		C109.334,53.523,106.912,50.948,103.834,50.693z"/>
</g>
</svg>
