<?xml version="1.0" encoding="utf-8"?>
<!-- Generator: Adobe Illustrator 16.0.4, SVG Export Plug-In . SVG Version: 6.00 Build 0)  -->
<!DOCTYPE svg PUBLIC "-//W3C//DTD SVG 1.1//EN" "http://www.w3.org/Graphics/SVG/1.1/DTD/svg11.dtd">
<svg version="1.1" id="Layer_2" xmlns="http://www.w3.org/2000/svg" xmlns:xlink="http://www.w3.org/1999/xlink" x="0px" y="0px"
	 width="126px" height="126px" viewBox="0 0 126 126" enable-background="new 0 0 126 126" xml:space="preserve">
<path d="M61.088,19.325l5.39,1.806l-1.807,5.389l-5.389-1.806L61.088,19.325z M64.247,9.901l-5.389-1.807l-1.807,5.39l5.389,1.807
	L64.247,9.901z M78.561,17.694l-5.391-1.808l-1.808,5.39l5.392,1.808L78.561,17.694z M91.109,33.893l1.808-5.389l-5.388-1.808
	l-1.723,5.136l-5.389-1.807l1.723-5.134l-5.39-1.808l-1.808,5.39l5.39,1.806l-1.722,5.135L84,37.222l1.721-5.136L91.109,33.893z
	 M74.887,28.641l-5.39-1.807l-1.808,5.389l5.391,1.807l-1.665,4.967l5.39,1.807l1.807-5.39l-5.389-1.807L74.887,28.641z
	 M101.354,76.3c-1.347-0.292-2.682,0.56-2.977,1.908l-2.375,10.867H48.329L31.374,34.336c-0.324-1.047-1.292-1.761-2.388-1.761
	h-10.5c-1.381,0-2.5,1.119-2.5,2.5c0,1.381,1.119,2.5,2.5,2.5h8.657l16.955,54.739c0.324,1.047,1.292,1.761,2.388,1.761h51.528
	c1.176,0,2.191-0.818,2.442-1.966l2.806-12.834C103.557,77.928,102.702,76.596,101.354,76.3z M109.438,44.979
	c-0.475-0.572-1.18-0.903-1.924-0.903H87.695l1.693-5.047L84,37.222l-1.807,5.39l4.367,1.464h-4.858l0.34-1.014l-5.39-1.808
	l-0.945,2.821H48.486c-1.381,0-2.5,1.119-2.5,2.5c0,1.381,1.119,2.5,2.5,2.5h56.016l-3.562,19H63.486c-1.381,0-2.5,1.118-2.5,2.5
	c0,1.381,1.119,2.5,2.5,2.5h39.528c1.203,0,2.235-0.856,2.457-2.039l4.5-24C110.107,46.306,109.913,45.551,109.438,44.979z
	 M60.486,108.742c0,5.054-4.112,9.166-9.167,9.166c-5.055,0-9.167-4.112-9.167-9.166c0-5.055,4.113-9.167,9.167-9.167
	C56.374,99.575,60.486,103.688,60.486,108.742z M55.486,108.742c0-2.299-1.869-4.167-4.167-4.167c-2.298,0-4.167,1.868-4.167,4.167
	c0,2.297,1.87,4.166,4.167,4.166C53.617,112.908,55.486,111.039,55.486,108.742z M98.348,108.742c0,5.054-4.111,9.166-9.166,9.166
	c-5.056,0-9.168-4.112-9.168-9.166c0-5.055,4.113-9.167,9.168-9.167C94.234,99.575,98.348,103.688,98.348,108.742z M93.348,108.742
	c0-2.299-1.869-4.167-4.166-4.167c-2.299,0-4.168,1.868-4.168,4.167c0,2.297,1.87,4.166,4.168,4.166
	C91.479,112.908,93.348,111.039,93.348,108.742z"/>
</svg>
