<?xml version="1.0" encoding="utf-8"?>
<!-- Generator: Adobe Illustrator 16.0.0, SVG Export Plug-In . SVG Version: 6.00 Build 0)  -->
<!DOCTYPE svg PUBLIC "-//W3C//DTD SVG 1.1//EN" "http://www.w3.org/Graphics/SVG/1.1/DTD/svg11.dtd">
<svg version="1.1" id="Layer_1" xmlns="http://www.w3.org/2000/svg" xmlns:xlink="http://www.w3.org/1999/xlink" x="0px" y="0px"
	 width="126px" height="126px" viewBox="0 0 126 126" enable-background="new 0 0 126 126" xml:space="preserve">
<g>
	<path fill="#010101" d="M64.381,32.779c4.702,0,8.527-3.825,8.527-8.526s-3.825-8.527-8.527-8.527
		c-4.701,0-8.526,3.825-8.526,8.527S59.68,32.779,64.381,32.779z"/>
	<path fill="#010101" d="M25.723,70.449c4.701,0,8.526-3.825,8.526-8.527s-3.825-8.526-8.526-8.526s-8.526,3.825-8.526,8.526
		S21.021,70.449,25.723,70.449z M25.723,55.854c3.346,0,6.067,2.722,6.067,6.067s-2.722,6.067-6.067,6.067s-6.067-2.722-6.067-6.067
		S22.377,55.854,25.723,55.854z"/>
	<path fill="#010101" d="M64.381,53.396c-4.701,0-8.526,3.825-8.526,8.526s3.825,8.527,8.526,8.527c4.702,0,8.527-3.825,8.527-8.527
		S69.083,53.396,64.381,53.396z M64.381,67.989c-3.346,0-6.067-2.722-6.067-6.067s2.722-6.067,6.067-6.067s6.067,2.722,6.067,6.067
		S67.727,67.989,64.381,67.989z"/>
	<path fill="#010101" d="M92.339,61.922c0,4.702,3.825,8.527,8.527,8.527c4.701,0,8.526-3.825,8.526-8.527s-3.825-8.526-8.526-8.526
		C96.164,53.396,92.339,57.22,92.339,61.922z M100.866,67.989c-3.346,0-6.067-2.722-6.067-6.067s2.722-6.067,6.067-6.067
		s6.067,2.722,6.067,6.067S104.212,67.989,100.866,67.989z"/>
	<path fill="#010101" d="M16.009,93.221c-4.701,0-8.526,3.825-8.526,8.526s3.825,8.527,8.526,8.527s8.526-3.825,8.526-8.527
		S20.71,93.221,16.009,93.221z M16.009,107.815c-3.346,0-6.067-2.722-6.067-6.067c0-3.345,2.722-6.067,6.067-6.067
		s6.067,2.722,6.067,6.067C22.076,105.093,19.354,107.815,16.009,107.815z"/>
	<path fill="#010101" d="M34.258,93.221c-4.701,0-8.526,3.825-8.526,8.526s3.825,8.527,8.526,8.527c4.702,0,8.527-3.825,8.527-8.527
		S38.96,93.221,34.258,93.221z M34.258,107.815c-3.345,0-6.066-2.722-6.066-6.067c0-3.345,2.722-6.067,6.066-6.067
		c3.346,0,6.067,2.722,6.067,6.067C40.325,105.093,37.604,107.815,34.258,107.815z"/>
	<path fill="#010101" d="M55.257,93.221c-4.701,0-8.526,3.825-8.526,8.526s3.825,8.527,8.526,8.527s8.526-3.825,8.526-8.527
		S59.958,93.221,55.257,93.221z M55.257,107.815c-3.346,0-6.067-2.722-6.067-6.067c0-3.345,2.722-6.067,6.067-6.067
		s6.067,2.722,6.067,6.067C61.324,105.093,58.603,107.815,55.257,107.815z"/>
	<path fill="#010101" d="M73.507,93.221c-4.702,0-8.527,3.825-8.527,8.526s3.825,8.527,8.527,8.527c4.701,0,8.526-3.825,8.526-8.527
		S78.208,93.221,73.507,93.221z M73.507,107.815c-3.346,0-6.067-2.722-6.067-6.067c0-3.345,2.722-6.067,6.067-6.067
		s6.067,2.722,6.067,6.067C79.574,105.093,76.853,107.815,73.507,107.815z"/>
	<path fill="#010101" d="M91.742,93.221c-4.702,0-8.527,3.825-8.527,8.526s3.825,8.527,8.527,8.527c4.701,0,8.526-3.825,8.526-8.527
		S96.443,93.221,91.742,93.221z M91.742,107.815c-3.346,0-6.067-2.722-6.067-6.067c0-3.345,2.722-6.067,6.067-6.067
		c3.345,0,6.066,2.722,6.066,6.067C97.809,105.093,95.087,107.815,91.742,107.815z"/>
	<path fill="#010101" d="M109.991,93.221c-4.701,0-8.526,3.825-8.526,8.526s3.825,8.527,8.526,8.527s8.526-3.825,8.526-8.527
		S114.692,93.221,109.991,93.221z M109.991,107.815c-3.346,0-6.067-2.722-6.067-6.067c0-3.345,2.722-6.067,6.067-6.067
		s6.067,2.722,6.067,6.067C116.059,105.093,113.337,107.815,109.991,107.815z"/>
	<polygon fill="#010101" points="23.724,42.451 63.399,42.451 63.399,50.998 65.354,50.998 65.354,42.451 103.378,42.451 
		103.378,50.998 105.333,50.998 105.333,40.474 65.385,40.474 65.385,36.046 63.43,36.046 63.43,40.474 21.769,40.474 
		21.769,50.998 23.724,50.998 	"/>
	<polygon fill="#010101" points="33.005,90.356 33.005,79.832 26.557,79.832 26.557,75.404 24.602,75.404 24.602,79.832 
		18.44,79.832 18.44,90.356 20.396,90.356 20.396,81.809 31.05,81.809 31.05,90.356 	"/>
	<polygon fill="#010101" points="108.148,90.356 108.148,79.832 101.7,79.832 101.7,75.404 99.745,75.404 99.745,79.832 
		93.584,79.832 93.584,90.356 95.539,90.356 95.539,81.809 106.193,81.809 106.193,90.356 	"/>
	<polygon fill="#010101" points="71.664,90.356 71.664,79.832 65.216,79.832 65.216,75.404 63.261,75.404 63.261,79.832 
		57.1,79.832 57.1,90.356 59.055,90.356 59.055,81.809 69.709,81.809 69.709,90.356 	"/>
</g>
</svg>
