<?xml version="1.0" encoding="utf-8"?>
<!-- Generator: Adobe Illustrator 16.0.0, SVG Export Plug-In . SVG Version: 6.00 Build 0)  -->
<!DOCTYPE svg PUBLIC "-//W3C//DTD SVG 1.1//EN" "http://www.w3.org/Graphics/SVG/1.1/DTD/svg11.dtd">
<svg version="1.1" id="Layer_1" xmlns="http://www.w3.org/2000/svg" xmlns:xlink="http://www.w3.org/1999/xlink" x="0px" y="0px"
	 width="126px" height="126px" viewBox="0 0 126 126" enable-background="new 0 0 126 126" xml:space="preserve">
<g>
	<path fill="#010101" d="M47.184,51.052h32c0.828,0,1.5-0.671,1.5-1.5V32.219c0-0.828-0.672-1.5-1.5-1.5H68.441l-2.107-5.533
		c-0.221-0.582-0.779-0.966-1.402-0.966H47.215c-0.826,0-1.498,0.67-1.5,1.498L45.684,49.55c-0.002,0.398,0.156,0.78,0.438,1.063
		C46.402,50.894,46.785,51.052,47.184,51.052z"/>
	<path fill="#010101" d="M31.404,76.815c-0.201-0.178-0.459-0.276-0.729-0.276H16.795c-0.605,0-1.096,0.49-1.096,1.096v23.014
		c0,0.605,0.49,1.096,1.096,1.096h17.17c0.605,0,1.096-0.49,1.096-1.096V80.557c0-0.313-0.135-0.611-0.369-0.819L31.404,76.815z
		 M32.869,99.553H17.891V78.73H30.26l2.609,2.318V99.553z"/>
	<path fill="#010101" d="M68.986,76.853c-0.201-0.179-0.461-0.277-0.729-0.277H54.377c-0.605,0-1.096,0.49-1.096,1.096v23.014
		c0,0.605,0.49,1.096,1.096,1.096h17.168c0.605,0,1.096-0.49,1.096-1.096V80.594c0-0.313-0.135-0.611-0.367-0.819L68.986,76.853z
		 M70.449,99.589H55.473V78.767H67.84l2.609,2.319V99.589z"/>
	<path fill="#010101" d="M109.932,79.774l-3.287-2.923c-0.201-0.178-0.459-0.276-0.729-0.276H92.035
		c-0.605,0-1.096,0.49-1.096,1.096v23.014c0,0.605,0.49,1.096,1.096,1.096h17.17c0.605,0,1.096-0.49,1.096-1.096V80.594
		C110.301,80.28,110.166,79.982,109.932,79.774z M108.109,99.589H93.131V78.767H105.5l2.609,2.319V99.589z"/>
	<polygon fill="#010101" points="23.173,61.929 62.849,61.929 62.849,70.476 64.804,70.476 64.804,61.929 102.827,61.929 
		102.827,70.476 104.782,70.476 104.782,59.951 64.834,59.951 64.834,55.524 62.879,55.524 62.879,59.951 21.218,59.951 
		21.218,70.476 23.173,70.476 	"/>
</g>
</svg>
