<?xml version="1.0" encoding="utf-8"?>
<!-- Generator: Adobe Illustrator 16.0.0, SVG Export Plug-In . SVG Version: 6.00 Build 0)  -->
<!DOCTYPE svg PUBLIC "-//W3C//DTD SVG 1.1//EN" "http://www.w3.org/Graphics/SVG/1.1/DTD/svg11.dtd">
<svg version="1.1" id="Layer_2" xmlns="http://www.w3.org/2000/svg" xmlns:xlink="http://www.w3.org/1999/xlink" x="0px" y="0px"
	 width="126px" height="126px" viewBox="0 0 126 126" enable-background="new 0 0 126 126" xml:space="preserve">
<g>
	<path fill="#010101" d="M38.629,54.506L22.285,43.581c-0.203-0.135-0.465-0.148-0.68-0.033c-0.216,0.115-0.35,0.34-0.35,0.584
		v19.859c0,0.221,0.11,0.428,0.294,0.55l16.345,10.926c0.111,0.073,0.239,0.111,0.368,0.111c0.107,0,0.214-0.025,0.312-0.078
		c0.215-0.115,0.35-0.339,0.35-0.583v-19.86C38.923,54.835,38.813,54.629,38.629,54.506z"/>
	<path fill="#010101" d="M38.629,79.668L22.285,68.743c-0.203-0.136-0.465-0.149-0.68-0.034c-0.216,0.115-0.35,0.34-0.35,0.584
		v19.859c0,0.221,0.11,0.428,0.294,0.551l16.345,10.926c0.111,0.074,0.239,0.111,0.368,0.111c0.107,0,0.214-0.026,0.312-0.078
		c0.215-0.115,0.35-0.339,0.35-0.583v-19.86C38.923,79.998,38.813,79.791,38.629,79.668z"/>
	<path fill="#010101" d="M58.25,66.079l-16.344-9.932c-0.205-0.125-0.46-0.128-0.669-0.011c-0.209,0.117-0.337,0.337-0.337,0.577
		v19.859c0,0.221,0.11,0.427,0.294,0.551l16.344,10.925c0.111,0.074,0.239,0.111,0.368,0.111c0.107,0,0.214-0.026,0.312-0.078
		c0.215-0.115,0.35-0.339,0.35-0.584V66.645C58.567,66.413,58.447,66.199,58.25,66.079z"/>
	<path fill="#010101" d="M58.273,92.249L41.929,81.324c-0.203-0.136-0.464-0.149-0.68-0.034s-0.35,0.34-0.35,0.584v19.86
		c0,0.221,0.11,0.427,0.294,0.55l16.344,10.926c0.111,0.074,0.239,0.111,0.368,0.111c0.107,0,0.214-0.026,0.312-0.078
		c0.215-0.115,0.35-0.339,0.35-0.584v-19.86C58.567,92.579,58.457,92.372,58.273,92.249z"/>
	<path fill="#010101" d="M97.499,43.551c-0.211-0.116-0.47-0.109-0.673,0.021L80.084,54.166c-0.196,0.124-0.313,0.341-0.308,0.572
		l0.396,20.19c0.005,0.243,0.142,0.463,0.356,0.574c0.096,0.051,0.201,0.075,0.306,0.075c0.129,0,0.257-0.038,0.368-0.111
		l16.345-10.926c0.184-0.123,0.294-0.329,0.294-0.55V44.131C97.841,43.89,97.71,43.667,97.499,43.551z"/>
	<path fill="#010101" d="M97.491,68.709c-0.215-0.115-0.477-0.102-0.68,0.034L80.467,79.668c-0.185,0.123-0.295,0.33-0.295,0.55
		v19.86c0,0.244,0.135,0.468,0.351,0.583c0.097,0.052,0.205,0.078,0.312,0.078c0.129,0,0.257-0.038,0.368-0.111l16.345-10.926
		c0.184-0.123,0.294-0.33,0.294-0.551V69.293C97.841,69.049,97.707,68.824,97.491,68.709z"/>
	<path fill="#010101" d="M77.86,56.135c-0.208-0.117-0.463-0.113-0.669,0.011l-16.344,9.932c-0.198,0.12-0.319,0.334-0.319,0.566
		v20.853c0,0.245,0.135,0.469,0.351,0.584c0.098,0.052,0.205,0.078,0.312,0.078c0.129,0,0.257-0.037,0.368-0.111l16.345-10.925
		c0.184-0.124,0.294-0.33,0.294-0.551V56.712C78.198,56.473,78.069,56.252,77.86,56.135z"/>
	<path fill="#010101" d="M57.108,42.475c0.005-0.239-0.118-0.463-0.324-0.585l-15.337-9.11c-0.193-0.115-0.431-0.123-0.633-0.023
		l-17.108,8.498c-0.214,0.106-0.354,0.319-0.366,0.558c-0.013,0.238,0.104,0.465,0.305,0.593l15.285,9.724
		c0.108,0.068,0.232,0.103,0.355,0.103c0.107,0,0.214-0.025,0.311-0.077l17.161-9.111C56.968,42.932,57.103,42.715,57.108,42.475z"
		/>
	<path fill="#010101" d="M43.73,32.646l14.987,8.73c0.103,0.061,0.218,0.09,0.333,0.09c0.109,0,0.217-0.027,0.316-0.08l16.167-8.779
		c0.217-0.118,0.351-0.347,0.346-0.594c-0.004-0.247-0.146-0.471-0.367-0.581l-15.006-7.455c-0.18-0.09-0.391-0.092-0.573-0.008
		l-16.148,7.504c-0.224,0.104-0.372,0.323-0.383,0.569C43.391,32.29,43.517,32.521,43.73,32.646z"/>
	<path fill="#010101" d="M75.879,53.744c-0.003-0.24-0.138-0.46-0.35-0.574l-16.153-8.614c-0.195-0.104-0.431-0.104-0.626,0.002
		l-15.995,8.664c-0.213,0.115-0.346,0.336-0.347,0.578c-0.001,0.241,0.129,0.465,0.339,0.583l16.244,9.061
		c0.1,0.056,0.211,0.084,0.323,0.084c0.113,0,0.227-0.029,0.33-0.088l15.903-9.111C75.756,54.209,75.883,53.985,75.879,53.744z"/>
	<path fill="#010101" d="M104.624,12.959c-0.138-0.197-0.369-0.301-0.612-0.277l-18.2,1.968c-0.221,0.024-0.416,0.157-0.517,0.354
		l-8.348,16.162c-0.11,0.215-0.096,0.473,0.039,0.673c0.123,0.184,0.33,0.293,0.549,0.293c0.02,0,0.039-0.001,0.059-0.003
		l18.527-1.649c0.231-0.021,0.435-0.161,0.537-0.37l8.021-16.481C104.784,13.414,104.763,13.157,104.624,12.959z"/>
	<path fill="#010101" d="M77.848,81.29c-0.215-0.115-0.477-0.102-0.68,0.034L60.823,92.249c-0.185,0.123-0.295,0.33-0.295,0.55
		v19.86c0,0.245,0.135,0.469,0.351,0.584c0.098,0.052,0.205,0.078,0.312,0.078c0.129,0,0.257-0.038,0.368-0.111l16.345-10.926
		c0.184-0.123,0.294-0.33,0.294-0.55v-19.86C78.198,81.63,78.063,81.405,77.848,81.29z"/>
</g>
</svg>
