<?xml version="1.0" encoding="utf-8"?>
<!-- Generator: Adobe Illustrator 16.0.0, SVG Export Plug-In . SVG Version: 6.00 Build 0)  -->
<!DOCTYPE svg PUBLIC "-//W3C//DTD SVG 1.1//EN" "http://www.w3.org/Graphics/SVG/1.1/DTD/svg11.dtd">
<svg version="1.1" id="Layer_1" xmlns="http://www.w3.org/2000/svg" xmlns:xlink="http://www.w3.org/1999/xlink" x="0px" y="0px"
	 width="126px" height="126px" viewBox="0 0 126 126" enable-background="new 0 0 126 126" xml:space="preserve">
<path d="M79.51,56.21c-1.401,0-2.745,0.099-4.021,0.271v-36.31c0-4.577-7.394-8.163-16.833-8.163s-16.833,3.586-16.833,8.163v23.407
	c-5.843,0.935-9.959,3.586-9.959,6.8v56.449c0,4.018,6.424,7.165,14.625,7.165c8.202,0,14.626-3.147,14.626-7.165V93.853
	c1.272-0.091,2.532-0.252,3.77-0.486v9.958c0,4.018,6.424,7.164,14.625,7.164c8.202,0,14.626-3.146,14.626-7.164v-39.95
	C94.136,59.357,87.712,56.21,79.51,56.21z M91.539,104.671L66.945,74.123l-0.061,0.049v-5.693L92.048,98.29l-0.014,5.034
	C92.034,103.77,91.861,104.225,91.539,104.671z M66.885,77.236l23.169,28.78c-1.036,0.679-2.452,1.277-4.162,1.716L66.958,83.222
	l-0.073,0.057V77.236z M66.885,67.061v-0.034c0.006,0.005,0.015,0.01,0.021,0.016L66.885,67.061z M69.688,68.698
	c2.125,0.941,4.813,1.583,7.844,1.776L92.074,89.04l-0.018,6.159L69.688,68.698z M80.106,70.519
	c1.654-0.032,3.225-0.189,4.681-0.458l7.154,9.132l0.162-0.126l-0.019,6.742L80.106,70.519z M92.11,76.167l-5.167-6.597
	c2.152-0.613,3.939-1.488,5.193-2.542L92.11,76.167z M79.51,58.21c7.441,0,12.626,2.722,12.626,5.164s-5.185,5.164-12.626,5.164
	c-0.331,0-0.651-0.012-0.973-0.022l-0.039-0.049l-0.06,0.047c-6.859-0.247-11.554-2.817-11.554-5.14
	C66.885,60.932,72.069,58.21,79.51,58.21z M58.656,14.008c8.741,0,14.833,3.248,14.833,6.163s-6.092,6.162-14.833,6.162
	s-14.833-3.247-14.833-6.162S49.915,14.008,58.656,14.008z M46.489,55.542c-7.44,0-12.625-2.722-12.625-5.164
	s5.185-5.164,12.625-5.164c7.441,0,12.626,2.722,12.626,5.164S53.931,55.542,46.489,55.542z M64.885,78.166v2.041v11.117
	c-1.234,0.251-2.494,0.429-3.77,0.525V79.696v-2.003V50.378c0-4.018-6.424-7.164-14.626-7.164c-0.914,0-1.803,0.045-2.666,0.12
	V24.089c2.816,2.548,8.341,4.244,14.833,4.244s12.017-1.696,14.833-4.244v32.74c-5.113,1.104-8.604,3.586-8.604,6.545V78.166z
	 M66.885,103.324v-5.339v-2.12l9.628,12.464C70.717,107.722,66.885,105.422,66.885,103.324z M79.157,108.48L66.885,92.593v-6.194
	l16.821,21.775c-1.29,0.198-2.691,0.313-4.196,0.313C79.39,108.488,79.276,108.481,79.157,108.48z"/>
</svg>
