<?xml version="1.0" encoding="utf-8"?>
<!-- Generator: Adobe Illustrator 16.0.0, SVG Export Plug-In . SVG Version: 6.00 Build 0)  -->
<!DOCTYPE svg PUBLIC "-//W3C//DTD SVG 1.1//EN" "http://www.w3.org/Graphics/SVG/1.1/DTD/svg11.dtd">
<svg version="1.1" id="Layer_1" xmlns="http://www.w3.org/2000/svg" xmlns:xlink="http://www.w3.org/1999/xlink" x="0px" y="0px"
	 width="126px" height="126px" viewBox="0 0 126 126" enable-background="new 0 0 126 126" xml:space="preserve">
<g>
	<polygon points="93.011,47.426 93.011,56.816 73.153,30.996 59.265,47.275 31.54,19.313 27.989,22.832 59.542,54.656 
		72.952,38.936 88.837,59.592 81.474,56.797 79.698,61.471 98.011,68.424 98.011,47.426 	"/>
	<path d="M78.835,67.021h-6.513c-1.104,0-2,0.895-2,2v35.666c0,1.104,0.896,2,2,2h6.513c1.105,0,2-0.896,2-2V69.021
		C80.835,67.916,79.94,67.021,78.835,67.021z"/>
	<path d="M57.504,77.021h-6.513c-1.104,0-2,0.895-2,2v25.666c0,1.104,0.896,2,2,2h6.513c1.105,0,2-0.896,2-2V79.021
		C59.504,77.916,58.609,77.021,57.504,77.021z"/>
	<path d="M36.502,47.354h-6.513c-1.104,0-2,0.896-2,2v55.334c0,1.104,0.896,2,2,2h6.513c1.105,0,2-0.896,2-2V49.354
		C38.502,48.25,37.607,47.354,36.502,47.354z"/>
</g>
</svg>
