<?xml version="1.0" encoding="utf-8"?>
<!-- Generator: Adobe Illustrator 16.0.0, SVG Export Plug-In . SVG Version: 6.00 Build 0)  -->
<!DOCTYPE svg PUBLIC "-//W3C//DTD SVG 1.1//EN" "http://www.w3.org/Graphics/SVG/1.1/DTD/svg11.dtd">
<svg version="1.1" id="Layer_2" xmlns="http://www.w3.org/2000/svg" xmlns:xlink="http://www.w3.org/1999/xlink" x="0px" y="0px"
	 width="126px" height="126px" viewBox="0 0 126 126" enable-background="new 0 0 126 126" xml:space="preserve">
<g>
	<path d="M101.411,56c-3.525,0-6.435,2.609-6.921,6H76.305c-0.248-3.007-1.482-5.803-3.541-8.024l0.072,0.072L86.79,40.094
		l-0.75-0.75L72.089,53.295c-2.231-2.094-5.053-3.35-8.089-3.601V31.324h-0.021C67.38,30.847,70,27.933,70,24.4c0-3.866-3.134-7-7-7
		c-3.865,0-7,3.134-7,7c0,3.533,2.621,6.447,6.022,6.924H62v18.357c-3.283,0.207-6.34,1.566-8.68,3.907
		c-2.277,2.277-3.631,5.231-3.893,8.412H31.211v1v1h18.203c0.197,3.138,1.459,6.061,3.613,8.356L39.257,86.127
		c-0.994-0.849-2.23-1.333-3.552-1.333c-1.469,0-2.85,0.572-3.889,1.611c-2.144,2.145-2.144,5.634,0,7.778
		c1.039,1.039,2.42,1.61,3.889,1.61c1.47,0,2.851-0.572,3.89-1.611c1.039-1.039,1.611-2.42,1.611-3.889
		c0-1.257-0.44-2.435-1.213-3.404L53.784,73.1c2.274,2.077,5.142,3.293,8.216,3.486v18.09h0.022C58.621,95.153,56,98.067,56,101.6
		c0,3.866,3.135,7,7,7c3.866,0,7-3.134,7-7c0-3.533-2.62-6.447-6.021-6.924H64V76.573c2.954-0.244,5.702-1.44,7.904-3.433
		l13.784,13.784l0.75-0.75L72.665,72.4c2.18-2.303,3.454-5.243,3.652-8.4H94.49c0.486,3.391,3.396,6,6.921,6c3.866,0,7-3.134,7-7
		S105.277,56,101.411,56z M75.156,65.387c-0.088,0.489-0.21,0.968-0.355,1.438C74.947,66.352,75.068,65.872,75.156,65.387z
		 M38.888,93.476c-0.85,0.85-1.98,1.318-3.183,1.318s-2.332-0.468-3.182-1.317c-1.754-1.754-1.754-4.61,0-6.364
		c0.85-0.85,1.979-1.318,3.182-1.318s2.333,0.468,3.183,1.318c0.851,0.85,1.318,1.98,1.318,3.182S39.738,92.626,38.888,93.476z
		 M62.467,71.62c2.139,0.099,4.242-0.608,5.872-1.982C66.71,71.012,64.62,71.722,62.467,71.62z M68.17,68.437
		c-1.415,1.414-3.298,2.193-5.304,2.193s-3.89-0.779-5.303-2.193c-1.414-1.414-2.193-3.297-2.193-5.303
		c0-2.005,0.778-3.889,2.192-5.303c1.414-1.414,3.298-2.192,5.304-2.192s3.89,0.779,5.304,2.192
		C71.094,60.754,71.094,65.512,68.17,68.437z M75.29,62L75.29,62c-0.175-1.925-0.774-3.818-1.836-5.51
		C74.496,58.145,75.113,60.025,75.29,62z M74.224,68.349c-0.22,0.479-0.469,0.944-0.749,1.392
		C73.756,69.29,74.006,68.825,74.224,68.349z M74.785,66.891c-0.151,0.48-0.334,0.95-0.542,1.408
		C74.452,67.838,74.635,67.368,74.785,66.891z"/>
	<circle cx="24.211" cy="63" r="7"/>
	<path d="M90.295,41.205c1.469,0,2.85-0.572,3.889-1.61c2.145-2.145,2.145-5.634,0-7.778c-1.039-1.039-2.42-1.611-3.89-1.611
		c-1.469,0-2.85,0.572-3.889,1.611c-1.039,1.039-1.611,2.42-1.611,3.889c0,1.468,0.572,2.849,1.611,3.889
		C87.444,40.633,88.825,41.205,90.295,41.205z M87.112,32.523c0.85-0.85,1.979-1.318,3.182-1.318s2.333,0.468,3.183,1.318
		c1.754,1.754,1.754,4.609,0,6.364c-0.85,0.85-1.979,1.317-3.182,1.317s-2.333-0.468-3.183-1.317
		c-0.85-0.851-1.318-1.981-1.318-3.182C85.794,34.504,86.262,33.374,87.112,32.523z"/>
	<path d="M90.295,84.795c-1.47,0-2.852,0.572-3.89,1.61c-1.039,1.039-1.611,2.42-1.611,3.889c0,1.469,0.572,2.851,1.611,3.89
		c1.038,1.039,2.42,1.61,3.89,1.61s2.851-0.572,3.889-1.61c2.144-2.144,2.145-5.633,0-7.778
		C93.146,85.367,91.765,84.795,90.295,84.795z M93.477,93.477c-0.85,0.85-1.979,1.317-3.182,1.317c-1.203,0-2.333-0.468-3.183-1.317
		c-0.851-0.85-1.318-1.98-1.318-3.183c0-1.202,0.468-2.332,1.318-3.182c0.85-0.85,1.979-1.317,3.183-1.317
		c1.202,0,2.332,0.468,3.182,1.317C95.23,88.867,95.23,91.722,93.477,93.477z"/>
	<path d="M35.705,41.205c1.173,0,2.281-0.378,3.212-1.053l13.896,13.896l0.75-0.75L39.714,39.449
		c0.956-1.022,1.492-2.339,1.492-3.743c0-1.469-0.572-2.851-1.611-3.89c-1.038-1.039-2.419-1.61-3.889-1.61s-2.852,0.572-3.89,1.61
		c-1.037,1.037-1.608,2.418-1.608,3.889s0.571,2.852,1.608,3.889C32.854,40.633,34.235,41.205,35.705,41.205z M32.523,32.523
		c0.85-0.85,1.979-1.317,3.183-1.317c1.202,0,2.332,0.468,3.182,1.317c0.851,0.85,1.318,1.98,1.318,3.183
		c0,1.201-0.469,2.331-1.318,3.182c-0.85,0.85-1.979,1.317-3.183,1.317c-1.202,0-2.332-0.468-3.182-1.317
		c-0.849-0.848-1.315-1.979-1.315-3.182S31.675,33.372,32.523,32.523z"/>
</g>
</svg>
