<?xml version="1.0" encoding="utf-8"?>
<!-- Generator: Adobe Illustrator 16.0.0, SVG Export Plug-In . SVG Version: 6.00 Build 0)  -->
<!DOCTYPE svg PUBLIC "-//W3C//DTD SVG 1.1//EN" "http://www.w3.org/Graphics/SVG/1.1/DTD/svg11.dtd">
<svg version="1.1" id="Layer_2" xmlns="http://www.w3.org/2000/svg" xmlns:xlink="http://www.w3.org/1999/xlink" x="0px" y="0px"
	 width="126px" height="126px" viewBox="0 0 126 126" enable-background="new 0 0 126 126" xml:space="preserve">
<g>
	<path fill="#010101" d="M38.26,37.378c1.858,0,3.369-1.511,3.369-3.369c0-1.857-1.511-3.369-3.369-3.369
		c-1.857,0-3.368,1.511-3.368,3.369C34.892,35.867,36.402,37.378,38.26,37.378z"/>
	<path fill="#010101" d="M47.661,37.378c1.857,0,3.369-1.511,3.369-3.369c0-1.857-1.512-3.369-3.369-3.369s-3.369,1.511-3.369,3.369
		C44.292,35.867,45.803,37.378,47.661,37.378z"/>
	<path fill="#010101" d="M28.989,37.378c1.858,0,3.369-1.511,3.369-3.369c0-1.857-1.511-3.369-3.369-3.369
		c-1.857,0-3.369,1.511-3.369,3.369C25.621,35.867,27.132,37.378,28.989,37.378z"/>
	<path fill="#010101" d="M43.404,55.099l8.481,6.264H23.848l37.582,19.453l39.602-19.453H63.729
		c0.367-0.998,0.455-2.101,0.195-3.177l-3.092-12.85v-21.97c0-5.508-4.481-9.99-9.99-9.99H24.89c-5.509,0-9.99,4.481-9.99,9.99
		v21.744c0,5.508,4.481,9.99,9.99,9.99H43.404z M19.419,45.109V23.365c0-3.027,2.463-5.49,5.49-5.49h25.953
		c3.027,0,5.49,2.462,5.49,5.49v22.503l3.217,13.369c0.098,0.408-0.069,0.833-0.419,1.066c-0.167,0.11-0.359,0.166-0.552,0.166
		c-0.208,0-0.417-0.065-0.592-0.195l-13.1-9.676H24.909C21.882,50.599,19.419,48.136,19.419,45.109z"/>
	<path fill="#010101" d="M23.848,63.549v49.406c0,1.104,0.896,2,2,2h72.667c1.104,0,2-0.896,2-2V64.688L62.148,86.612L23.848,63.549
		z"/>
</g>
</svg>
