<?xml version="1.0" encoding="utf-8"?>
<!-- Generator: Adobe Illustrator 16.0.0, SVG Export Plug-In . SVG Version: 6.00 Build 0)  -->
<!DOCTYPE svg PUBLIC "-//W3C//DTD SVG 1.1//EN" "http://www.w3.org/Graphics/SVG/1.1/DTD/svg11.dtd">
<svg version="1.1" id="Layer_1" xmlns="http://www.w3.org/2000/svg" xmlns:xlink="http://www.w3.org/1999/xlink" x="0px" y="0px"
	 width="126px" height="126px" viewBox="0 0 126 126" enable-background="new 0 0 126 126" xml:space="preserve">
<g>
	<path d="M112.932,82.628L93.149,62.845c6.242-8.051,5.686-19.706-1.703-27.095c-8.01-8.01-21.044-8.01-29.054,0
		c-8.01,8.011-8.01,21.044,0,29.055c7.389,7.389,19.043,7.944,27.095,1.703L109.27,86.29c1.012,1.012,2.651,1.012,3.662,0.001
		C113.943,85.279,113.943,83.64,112.932,82.628z M87.783,61.142c-5.99,5.991-15.738,5.992-21.729,0
		c-5.991-5.99-5.991-15.738,0-21.729c5.99-5.99,15.739-5.992,21.729,0C93.774,45.403,93.774,55.151,87.783,61.142z"/>
	<path d="M17.31,78.381V24.713h89v48.086l5,5V24.213c0-2.48-2.019-4.5-4.5-4.5h-90c-2.481,0-4.5,2.02-4.5,4.5v54.668
		c0,2.48,2.019,4.5,4.5,4.5h36.012v14.254c0,1.721,1.398,3.119,3.117,3.119h9.741c1.719,0,3.117-1.398,3.117-3.119V83.381h35.113
		l-5-5H17.31z M55.939,97.635V83.381h9.741l0.002,14.256L55.939,97.635z"/>
	<path d="M76.8,94.387v3c-0.213,0-0.387-0.174-0.387-0.387v6.287H45.206V97c0,0.213-0.174,0.387-0.387,0.387v-3
		c-1.441,0-2.613,1.172-2.613,2.613v6.674c0,1.441,1.172,2.613,2.613,2.613H76.8c1.441,0,2.613-1.172,2.613-2.613V97
		C79.413,95.559,78.241,94.387,76.8,94.387z"/>
	<path d="M50.589,73.11h7.656c0.312,0,0.564-0.253,0.564-0.564v-9.4c-1.578-2.266-2.687-4.754-3.337-7.341l-5.448,5.67v11.071
		C50.024,72.857,50.277,73.11,50.589,73.11z"/>
	<path d="M71.924,73.11c0.312,0,0.565-0.253,0.565-0.564v-0.264c-3.191-0.686-6.173-2.064-8.785-4.048v4.312
		c0,0.312,0.253,0.564,0.564,0.564H71.924z"/>
	<path d="M71.924,60.059h-3.712c1.26,1.172,2.707,2.076,4.277,2.68v-2.114C72.489,60.312,72.236,60.059,71.924,60.059z"/>
	<path d="M84.851,73.11c0.313,0,0.565-0.253,0.565-0.564v-1.269c-2.583,0.996-5.349,1.525-8.142,1.525
		c-0.2,0-0.395-0.023-0.593-0.029c0.088,0.198,0.284,0.337,0.514,0.337H84.851z"/>
	<path d="M84.371,48.392c-0.481,0-0.949-0.17-1.318-0.478l-1.391-1.163L76.63,52.24v11.363c0.222,0.011,0.442,0.032,0.667,0.032
		c2.98,0,5.8-0.978,8.119-2.758V48.101c-0.031,0.019-0.06,0.04-0.092,0.058C85.031,48.311,84.701,48.392,84.371,48.392z"/>
	<path d="M70.008,57.125l11.611-12.667l2.717,2.271c0.132,0.11,0.319,0.131,0.472,0.051c0.153-0.08,0.243-0.244,0.228-0.417
		l-0.589-6.585c-0.021-0.235-0.229-0.409-0.463-0.388l-6.585,0.589c-0.172,0.016-0.318,0.133-0.37,0.298
		c-0.017,0.055-0.022,0.11-0.018,0.166c0.01,0.11,0.063,0.216,0.152,0.289l2.722,2.275L68.854,55.04l-4.544-1.672
		c0.226,0.96,0.557,1.888,0.987,2.77l3.487,1.283C69.216,57.579,69.698,57.463,70.008,57.125z"/>
	<path d="M54.796,50.956l-7.456,7.76c-0.433,0.45-0.418,1.165,0.032,1.597c0.219,0.211,0.501,0.315,0.782,0.315
		c0.297,0,0.593-0.116,0.814-0.347l6.112-6.36C54.92,52.938,54.826,51.948,54.796,50.956z"/>
</g>
</svg>
