<?xml version="1.0" encoding="utf-8"?>
<!-- Generator: Adobe Illustrator 16.0.4, SVG Export Plug-In . SVG Version: 6.00 Build 0)  -->
<!DOCTYPE svg PUBLIC "-//W3C//DTD SVG 1.1//EN" "http://www.w3.org/Graphics/SVG/1.1/DTD/svg11.dtd">
<svg version="1.1" id="Layer_1" xmlns="http://www.w3.org/2000/svg" xmlns:xlink="http://www.w3.org/1999/xlink" x="0px" y="0px"
	 width="126px" height="126px" viewBox="0 0 126 126" enable-background="new 0 0 126 126" xml:space="preserve">
<path d="M63.062,51.062c10.917,0,19.795-8.88,19.795-19.796c0-10.915-8.879-19.795-19.795-19.795
	c-10.916,0-19.796,8.88-19.796,19.795C43.266,42.182,52.146,51.062,63.062,51.062z M63.062,15.182
	c8.87,0,16.084,7.216,16.084,16.084c0,8.869-7.215,16.085-16.084,16.085c-8.869,0-16.085-7.216-16.085-16.085
	S54.192,15.182,63.062,15.182z M98.816,74.938c-10.916,0-19.795,8.881-19.795,19.797c0,10.914,8.879,19.795,19.795,19.795
	s19.797-8.881,19.797-19.795C118.613,83.818,109.732,74.938,98.816,74.938z M98.816,110.818c-8.869,0-16.084-7.217-16.084-16.084
	c0-8.869,7.216-16.086,16.084-16.086c8.869,0,16.086,7.217,16.086,16.086S107.688,110.818,98.816,110.818z M27.182,74.938
	c-10.915,0-19.795,8.881-19.795,19.797c0,10.914,8.88,19.795,19.795,19.795s19.795-8.881,19.795-19.795
	C46.977,83.818,38.097,74.938,27.182,74.938z M27.182,110.818c-8.868,0-16.084-7.217-16.084-16.084
	c0-8.869,7.216-16.086,16.084-16.086c8.868,0,16.084,7.217,16.084,16.086S36.05,110.818,27.182,110.818z M77.004,49.94l12.668,22
	l-3.217,1.853l-12.668-22L77.004,49.94z M47.057,49.937l3.217,1.852L37.609,73.791l-3.217-1.853L47.057,49.937z M51.066,92.879
	h24.333v3.711H51.066V92.879z M60.447,34.104h5.438l1.938,5.705h3.961L65.125,20.29H61.31l-6.63,19.519h3.884L60.447,34.104z
	 M62.867,26.547c0.098-0.303,0.191-0.613,0.286-0.938c0.097,0.318,0.199,0.645,0.313,0.979l1.466,4.307h-3.534L62.867,26.547z
	 M32.02,93.833c1.351-0.931,2.146-2.345,2.146-3.929c0-1.59-0.617-2.889-1.762-3.738c-1.257-1.02-2.926-1.473-5.413-1.473
	c-1.573,0-3.267,0.148-4.42,0.393L22.022,85.2v19.001l0.595,0.083c0.598,0.084,1.876,0.224,3.729,0.224
	c3.15,0,5.354-0.613,6.749-1.891c1.157-1.122,1.745-2.51,1.745-4.129C34.841,96.164,33.517,94.645,32.02,93.833z M25.745,87.939
	c0.383-0.043,0.844-0.063,1.381-0.063c3.291,0,3.291,1.649,3.291,2.271c0,1.429-1.271,2.352-3.237,2.352h-1.435V87.939z
	 M27.018,101.297c-0.515,0-0.936-0.011-1.272-0.035v-5.607h1.246c1.489,0,3.992,0.363,3.992,2.809
	C30.983,100.805,28.828,101.297,27.018,101.297z M93.027,94.827c0,4.134,2.346,6.603,6.279,6.603c1.303,0,2.652-0.262,3.521-0.685
	l0.758-0.369l0.837,3.218l-0.502,0.248c-0.906,0.453-2.719,0.934-5.1,0.934c-5.86,0-9.65-3.871-9.65-9.865
	c0-6.016,4.182-10.217,10.164-10.217c2.723,0,4.229,0.678,4.626,0.886l0.502,0.265l-0.957,3.236l-0.733-0.357
	c-0.525-0.254-1.658-0.684-3.355-0.684C95.416,88.039,93.027,90.577,93.027,94.827z"/>
</svg>
