<?xml version="1.0" encoding="utf-8"?>
<!-- Generator: Adobe Illustrator 16.0.0, SVG Export Plug-In . SVG Version: 6.00 Build 0)  -->
<!DOCTYPE svg PUBLIC "-//W3C//DTD SVG 1.1//EN" "http://www.w3.org/Graphics/SVG/1.1/DTD/svg11.dtd">
<svg version="1.1" id="Layer_2" xmlns="http://www.w3.org/2000/svg" xmlns:xlink="http://www.w3.org/1999/xlink" x="0px" y="0px"
	 width="126px" height="126px" viewBox="0 0 126 126" enable-background="new 0 0 126 126" xml:space="preserve">
<g>
	<polygon points="20.75,16.236 20.75,78.583 25.75,78.583 25.75,21.236 100.25,21.236 100.25,78.583 105.25,78.583 105.25,16.236 	
		"/>
	<path d="M49.123,53.708c0.372,0.684,1.076,1.071,1.803,1.071c0.331,0,0.666-0.08,0.977-0.249c0.994-0.54,1.363-1.784,0.822-2.779
		l-4.863-8.955c-0.289-0.532-0.799-0.909-1.392-1.03c-0.595-0.121-1.21,0.028-1.684,0.404l-8.253,6.558
		c-0.886,0.704-1.034,1.993-0.33,2.879s1.994,1.033,2.879,0.329l3.75-2.979l-4.066,24.401c-0.187,1.117,0.568,2.172,1.684,2.358
		c0.114,0.02,0.228,0.028,0.339,0.028c0.984,0,1.852-0.71,2.019-1.712l4.075-24.449L49.123,53.708z"/>
	<path d="M93.459,51.566l-8.252-6.558c-0.474-0.376-1.089-0.524-1.684-0.404c-0.593,0.121-1.103,0.498-1.392,1.03l-4.863,8.955
		c-0.541,0.995-0.172,2.239,0.822,2.779c0.311,0.169,0.646,0.249,0.977,0.249c0.727,0,1.431-0.388,1.803-1.071l2.24-4.125
		l4.075,24.449c0.167,1.002,1.035,1.713,2.019,1.713c0.112,0,0.225-0.009,0.339-0.028c1.116-0.186,1.871-1.242,1.685-2.358
		L87.16,51.796l3.75,2.979c0.885,0.704,2.175,0.557,2.879-0.33C94.494,53.56,94.346,52.271,93.459,51.566z"/>
	<path d="M57.888,68.552c-0.289-0.532-0.799-0.909-1.392-1.03c-0.595-0.121-1.21,0.028-1.684,0.404l-8.252,6.558
		c-0.886,0.705-1.034,1.994-0.33,2.879c0.704,0.887,1.994,1.034,2.879,0.33l3.75-2.979l-4.067,24.401
		c-0.186,1.117,0.568,2.172,1.685,2.358c0.114,0.019,0.227,0.028,0.339,0.028c0.984,0,1.852-0.71,2.019-1.713l4.075-24.449
		l2.24,4.125c0.371,0.684,1.075,1.071,1.803,1.071c0.33,0,0.665-0.08,0.976-0.249c0.994-0.54,1.363-1.784,0.823-2.779L57.888,68.552
		z"/>
	<path d="M84.852,82.747l-8.253-6.558c-0.474-0.376-1.088-0.524-1.684-0.404c-0.593,0.121-1.103,0.498-1.392,1.03l-4.863,8.955
		c-0.541,0.995-0.172,2.239,0.822,2.779c0.311,0.169,0.646,0.249,0.976,0.249c0.728,0,1.432-0.388,1.803-1.072l2.24-4.124
		l4.075,24.449c0.167,1.002,1.035,1.713,2.019,1.713c0.112,0,0.225-0.009,0.339-0.028c1.116-0.186,1.87-1.242,1.684-2.358
		l-4.066-24.401l3.75,2.979c0.885,0.704,2.175,0.557,2.879-0.33C85.886,84.74,85.738,83.452,84.852,82.747z"/>
	<path d="M69.47,67.452c1.116-0.186,1.87-1.242,1.684-2.358l-4.066-24.401l3.75,2.979c0.885,0.704,2.175,0.557,2.879-0.33
		c0.705-0.886,0.557-2.175-0.329-2.879l-8.253-6.558c-0.474-0.376-1.088-0.524-1.684-0.404c-0.593,0.121-1.103,0.498-1.392,1.03
		l-4.863,8.955c-0.541,0.995-0.172,2.239,0.822,2.779c0.311,0.169,0.646,0.249,0.976,0.249c0.728,0,1.432-0.388,1.803-1.072
		l2.24-4.124l4.075,24.449c0.167,1.002,1.035,1.713,2.019,1.713C69.243,67.48,69.356,67.471,69.47,67.452z"/>
</g>
</svg>
