<?xml version="1.0" encoding="utf-8"?>
<!-- Generator: Adobe Illustrator 16.0.0, SVG Export Plug-In . SVG Version: 6.00 Build 0)  -->
<!DOCTYPE svg PUBLIC "-//W3C//DTD SVG 1.1//EN" "http://www.w3.org/Graphics/SVG/1.1/DTD/svg11.dtd">
<svg version="1.1" id="Layer_1" xmlns="http://www.w3.org/2000/svg" xmlns:xlink="http://www.w3.org/1999/xlink" x="0px" y="0px"
	 width="126px" height="126px" viewBox="0 0 126 126" enable-background="new 0 0 126 126" xml:space="preserve">
<path d="M107.117,89.153c-1.373,0-2.748,0.11-4.053,0.32L86.27,75.818c1.934-1.257,3.133-2.853,3.133-4.769
	c0-2.171-1.535-3.931-3.941-5.253l15.229-9.449c1.936,0.556,4.186,0.839,6.428,0.839c5.936,0,11.943-1.98,11.943-5.765
	c0-3.785-6.008-5.765-11.943-5.765c-5.934,0-11.941,1.979-11.941,5.765c0,1.46,0.898,2.648,2.338,3.561l-15.248,9.463
	c-3.117-1.018-6.895-1.543-10.576-1.543c-1.4,0-2.816,0.077-4.203,0.228l-9.076-8.157c4.141-1.096,7.271-3.136,7.271-6.03
	c0-2.364-2.092-4.158-5.113-5.334l7.547-9.6c3.996-0.155,7.826-1.637,7.826-4.337c0-2.858-4.289-4.354-8.527-4.354
	c-4.236,0-8.525,1.496-8.525,4.354c0,2.231,2.617,3.628,5.781,4.135l-6.85,8.709l0.461,0.362c-2.303-0.596-4.904-0.903-7.455-0.903
	c-1.963,0-3.961,0.184-5.826,0.539l0.094-0.087l-6.438-6.92c1.223-0.713,2.008-1.681,2.008-2.899c0-2.857-4.289-4.354-8.527-4.354
	c-4.236,0-8.525,1.496-8.525,4.354c0,2.858,4.289,4.354,8.525,4.354c1.248,0,2.496-0.133,3.641-0.389l6.236,6.704
	c-3.514,1.156-6.041,3.066-6.041,5.666c0,0.647,0.162,1.251,0.451,1.813L22.283,52.92c-1.211-1.728-4.4-2.533-7.416-2.533
	c-3.818,0-7.928,1.285-7.928,4.105c0,2.821,4.109,4.106,7.928,4.106c3.189,0,6.572-0.9,7.604-2.84l16.471-2.522
	c2.887,1.754,7.471,2.674,11.885,2.674c1.367,0,2.75-0.089,4.096-0.263l8.963,8.056c-5.537,1.189-9.91,3.685-9.91,7.347
	c0,1.452,0.691,2.719,1.865,3.796L32.254,89.49c-1.338-0.222-2.75-0.337-4.16-0.337c-5.934,0-11.943,1.979-11.943,5.765
	c0,3.784,6.01,5.765,11.943,5.765s11.941-1.98,11.941-5.765c0-1.972-1.637-3.448-4.039-4.416L58.43,76.573
	c3.451,1.726,8.439,2.625,13.26,2.625c4.18,0,8.484-0.678,11.807-1.983l16.139,13.123c-2.631,0.96-4.459,2.494-4.459,4.58
	c0,3.784,6.008,5.765,11.941,5.765c5.936,0,11.943-1.98,11.943-5.765C119.061,91.133,113.053,89.153,107.117,89.153z
	 M107.117,48.491c5.65,0,9.109,1.897,9.109,2.931s-3.459,2.931-9.109,2.931s-9.107-1.897-9.107-2.931S101.467,48.491,107.117,48.491
	z M61.738,29.672c0.268-0.472,2.193-1.52,5.676-1.52c3.484,0,5.41,1.048,5.678,1.52c-0.268,0.47-2.195,1.519-5.678,1.519
	S62.006,30.142,61.738,29.672z M26.459,32.607c0.27-0.471,2.195-1.52,5.678-1.52s5.408,1.049,5.678,1.52
	c-0.27,0.471-2.195,1.52-5.678,1.52S26.729,33.078,26.459,32.607z M14.867,55.765c-2.92,0-4.674-0.844-5.049-1.272
	c0.375-0.428,2.129-1.271,5.049-1.271s4.672,0.844,5.047,1.271C19.539,54.921,17.787,55.765,14.867,55.765z M38.807,48.942
	c0-1.686,4.684-4.133,12.02-4.133c7.34,0,12.021,2.447,12.021,4.133s-4.682,4.133-12.021,4.133
	C43.49,53.075,38.807,50.628,38.807,48.942z M37.201,94.918c0,1.033-3.457,2.93-9.107,2.93s-9.107-1.896-9.107-2.93
	s3.457-2.931,9.107-2.931S37.201,93.885,37.201,94.918z M56.809,71.05c0-2.219,5.662-5.313,14.881-5.313s14.879,3.095,14.879,5.313
	c0,2.22-5.66,5.314-14.879,5.314S56.809,73.27,56.809,71.05z M107.117,97.848c-5.65,0-9.107-1.896-9.107-2.93
	s3.457-2.931,9.107-2.931s9.109,1.897,9.109,2.931S112.768,97.848,107.117,97.848z"/>
</svg>
