<?xml version="1.0" encoding="utf-8"?>
<!-- Generator: Adobe Illustrator 16.0.0, SVG Export Plug-In . SVG Version: 6.00 Build 0)  -->
<!DOCTYPE svg PUBLIC "-//W3C//DTD SVG 1.1//EN" "http://www.w3.org/Graphics/SVG/1.1/DTD/svg11.dtd">
<svg version="1.1" id="Layer_1" xmlns="http://www.w3.org/2000/svg" xmlns:xlink="http://www.w3.org/1999/xlink" x="0px" y="0px"
	 width="126px" height="126px" viewBox="0 0 126 126" enable-background="new 0 0 126 126" xml:space="preserve">
<g>
	<path d="M40.805,76.98H28.358c-0.688,0-1.245,0.557-1.245,1.245v38.998c0,0.688,0.557,1.245,1.245,1.245h12.446
		c0.687,0,1.245-0.557,1.245-1.245V78.225C42.049,77.537,41.492,76.98,40.805,76.98z M39.56,115.978h-9.957V79.469h9.957V115.978z"
		/>
	<path d="M59.889,62.875H47.442c-0.688,0-1.245,0.557-1.245,1.245v53.104c0,0.688,0.557,1.245,1.245,1.245h12.446
		c0.688,0,1.245-0.557,1.245-1.245V64.119C61.133,63.432,60.576,62.875,59.889,62.875z M58.644,115.978h-9.957V65.364h9.957V115.978
		z"/>
	<path d="M80.355,50.705H67.909c-0.687,0-1.245,0.557-1.245,1.245v65.273c0,0.688,0.558,1.245,1.245,1.245h12.446
		c0.688,0,1.245-0.557,1.245-1.245V51.95C81.6,51.262,81.043,50.705,80.355,50.705z M79.111,115.978h-9.957V53.194h9.957V115.978z"
		/>
	<path d="M101.929,34.663H89.482c-0.687,0-1.245,0.557-1.245,1.245v81.315c0,0.688,0.558,1.245,1.245,1.245h12.446
		c0.688,0,1.245-0.557,1.245-1.245V35.908C103.173,35.22,102.617,34.663,101.929,34.663z M100.684,115.978h-9.957V37.152h9.957
		V115.978z"/>
	<path d="M94.17,12.19l4.905,10.352c0.213,0.449,0.66,0.712,1.125,0.712c0.179,0,0.36-0.039,0.532-0.121
		c0.621-0.294,0.886-1.036,0.592-1.657L95.053,8.239c-0.007-0.016-0.019-0.028-0.026-0.044c-0.007-0.013-0.011-0.028-0.019-0.042
		c-0.012-0.021-0.029-0.038-0.042-0.059c-0.025-0.039-0.051-0.077-0.08-0.112c-0.023-0.029-0.049-0.055-0.074-0.081
		c-0.032-0.032-0.063-0.063-0.098-0.09c-0.029-0.024-0.059-0.044-0.089-0.065c-0.036-0.024-0.071-0.047-0.109-0.067
		c-0.033-0.018-0.066-0.032-0.1-0.046c-0.04-0.017-0.08-0.033-0.121-0.046c-0.034-0.011-0.068-0.019-0.103-0.026
		c-0.043-0.009-0.087-0.018-0.131-0.022c-0.035-0.004-0.069-0.005-0.104-0.006c-0.045-0.001-0.09,0-0.136,0.003
		c-0.036,0.003-0.071,0.009-0.106,0.016c-0.043,0.008-0.086,0.016-0.13,0.029c-0.039,0.011-0.075,0.025-0.113,0.04
		c-0.025,0.01-0.051,0.015-0.076,0.027c-0.015,0.007-0.027,0.018-0.042,0.025s-0.03,0.012-0.045,0.02l-14.056,8.051
		c-0.596,0.342-0.803,1.103-0.461,1.699c0.23,0.402,0.649,0.626,1.082,0.626c0.209,0,0.422-0.053,0.617-0.165l11.311-6.479
		c-7.396,22.819-44.716,46.778-68.078,53.573c-0.66,0.192-1.04,0.883-0.848,1.543c0.158,0.544,0.655,0.897,1.195,0.897
		c0.115,0,0.232-0.016,0.348-0.05C44.891,61.433,85.987,37.496,94.17,12.19z"/>
</g>
</svg>
