<?xml version="1.0" encoding="utf-8"?>
<!-- Generator: Adobe Illustrator 16.0.0, SVG Export Plug-In . SVG Version: 6.00 Build 0)  -->
<!DOCTYPE svg PUBLIC "-//W3C//DTD SVG 1.1//EN" "http://www.w3.org/Graphics/SVG/1.1/DTD/svg11.dtd">
<svg version="1.1" id="Layer_1" xmlns="http://www.w3.org/2000/svg" xmlns:xlink="http://www.w3.org/1999/xlink" x="0px" y="0px"
	 width="126px" height="126px" viewBox="0 0 126 126" enable-background="new 0 0 126 126" xml:space="preserve">
<g>
	<path fill="#010101" d="M111.894,107.5h-7.121v-4.834c0-0.275-0.224-0.5-0.5-0.5s-0.5,0.225-0.5,0.5v4.834h-9v-4.834
		c0-0.275-0.224-0.5-0.5-0.5s-0.5,0.225-0.5,0.5v4.834h-9v-4.834c0-0.275-0.224-0.5-0.5-0.5s-0.5,0.225-0.5,0.5v4.834h-9v-4.834
		c0-0.275-0.224-0.5-0.5-0.5s-0.5,0.225-0.5,0.5v4.834h-9v-4.834c0-0.275-0.224-0.5-0.5-0.5s-0.5,0.225-0.5,0.5v4.834h-9v-4.834
		c0-0.275-0.224-0.5-0.5-0.5s-0.5,0.225-0.5,0.5v4.834h-9v-4.834c0-0.275-0.224-0.5-0.5-0.5s-0.5,0.225-0.5,0.5v4.834h-9v-4.834
		c0-0.275-0.224-0.5-0.5-0.5s-0.5,0.225-0.5,0.5v4.834H15.606V96.167h4.016c0.276,0,0.5-0.224,0.5-0.5s-0.224-0.5-0.5-0.5h-4.016v-9
		h4.016c0.276,0,0.5-0.224,0.5-0.5s-0.224-0.5-0.5-0.5h-4.016v-9h4.016c0.276,0,0.5-0.224,0.5-0.5s-0.224-0.5-0.5-0.5h-4.016v-9
		h4.016c0.276,0,0.5-0.224,0.5-0.5s-0.224-0.5-0.5-0.5h-4.016v-9h4.016c0.276,0,0.5-0.224,0.5-0.5s-0.224-0.5-0.5-0.5h-4.016v-9
		h4.016c0.276,0,0.5-0.224,0.5-0.5s-0.224-0.5-0.5-0.5h-4.016v-9h4.016c0.276,0,0.5-0.224,0.5-0.5s-0.224-0.5-0.5-0.5h-4.016v-9
		h4.016c0.276,0,0.5-0.224,0.5-0.5s-0.224-0.5-0.5-0.5h-4.016V17c0-0.829-0.672-1.5-1.5-1.5s-1.5,0.671-1.5,1.5v92
		c0,0.828,0.672,1.5,1.5,1.5h97.787c0.828,0,1.5-0.672,1.5-1.5S112.722,107.5,111.894,107.5z"/>
	<rect x="28.25" y="29.103" fill="#010101" width="10.25" height="67.795"/>
	<rect x="50" y="55.397" fill="#010101" width="10.25" height="41.5"/>
	<rect x="71.5" y="41.147" fill="#010101" width="10.25" height="55.75"/>
	<rect x="94" y="47.897" fill="#010101" width="10.25" height="49"/>
</g>
</svg>
