<?xml version="1.0" encoding="utf-8"?>
<!-- Generator: Adobe Illustrator 16.0.0, SVG Export Plug-In . SVG Version: 6.00 Build 0)  -->
<!DOCTYPE svg PUBLIC "-//W3C//DTD SVG 1.1//EN" "http://www.w3.org/Graphics/SVG/1.1/DTD/svg11.dtd">
<svg version="1.1" id="Layer_2" xmlns="http://www.w3.org/2000/svg" xmlns:xlink="http://www.w3.org/1999/xlink" x="0px" y="0px"
	 width="126px" height="126px" viewBox="0 0 126 126" enable-background="new 0 0 126 126" xml:space="preserve">
<g>
	<rect x="29.188" y="35.78" width="2.965" height="1.694"/>
	<rect x="33.106" y="35.78" width="35.794" height="1.694"/>
	<rect x="29.188" y="43.947" width="2.965" height="1.694"/>
	<rect x="33.106" y="43.947" width="35.794" height="1.694"/>
	<rect x="33.106" y="52.56" width="35.794" height="1.694"/>
	<rect x="29.188" y="52.56" width="2.965" height="1.694"/>
	<rect x="29.188" y="62.076" width="2.965" height="1.694"/>
	<path d="M90.925,52.38h-5.234l0.002-31.352c0-1.635-1.332-2.966-2.967-2.966H24.271c-1.635,0-2.965,1.331-2.965,2.966v73.705
		c0,1.635,1.33,2.965,2.965,2.965h52.463v1.282c0,4.939,4.019,8.958,8.958,8.958c4.94,0,8.958-4.019,8.958-8.958V79.404
		c5.787-1.629,10.042-6.955,10.042-13.256C104.693,58.556,98.517,52.38,90.925,52.38z M79.742,21.494
		c1.068,0,1.934,0.866,1.934,1.935s-0.865,1.935-1.934,1.935s-1.934-0.866-1.934-1.935S78.674,21.494,79.742,21.494z M71.221,21.494
		c1.066,0,1.934,0.866,1.934,1.935s-0.867,1.935-1.934,1.935c-1.07,0-1.936-0.866-1.936-1.935S70.15,21.494,71.221,21.494z
		 M62.748,21.494c1.068,0,1.934,0.866,1.934,1.935s-0.865,1.935-1.934,1.935s-1.934-0.866-1.934-1.935S61.68,21.494,62.748,21.494z
		 M76.735,95.157H24.271c-0.234,0-0.424-0.19-0.424-0.424V29.076h58.879c0.148,0,0.289-0.024,0.424-0.06v0.047l-0.004,0.012V52.38
		h-2.685c-6.175,0-11.412,4.086-13.153,9.696H33.106v1.694h33.807c-0.136,0.774-0.22,1.565-0.22,2.378
		c0,6.301,4.254,11.626,10.042,13.256V95.157z M91.205,74.178h-1.848v25.584c0,1.989-1.612,3.602-3.602,3.602
		s-3.603-1.613-3.603-3.602v-3.601l2.474-2.148l-2.474-2.744v-1.768c1.316-0.785,2.981-2.383,0-4.498v-3.489h2.474v-2.409h-2.474
		v-4.928h-1.847c-4.756,0-8.611-3.855-8.611-8.612c0-4.756,3.854-8.611,8.611-8.611h10.899c4.756,0,8.611,3.855,8.611,8.611
		C99.815,70.322,95.96,74.178,91.205,74.178z"/>
	<path d="M88.186,60.574h-4.86c-2.753,0-4.994,2.239-4.994,4.992s2.24,4.992,4.994,4.992h4.86c2.753,0,4.992-2.239,4.992-4.992
		S90.938,60.574,88.186,60.574z M88.186,68.558h-4.86c-1.651,0-2.994-1.342-2.994-2.992s1.343-2.992,2.994-2.992h4.86
		c1.65,0,2.992,1.342,2.992,2.992S89.835,68.558,88.186,68.558z"/>
</g>
</svg>
