<?xml version="1.0" encoding="utf-8"?>
<!-- Generator: Adobe Illustrator 16.0.0, SVG Export Plug-In . SVG Version: 6.00 Build 0)  -->
<!DOCTYPE svg PUBLIC "-//W3C//DTD SVG 1.1//EN" "http://www.w3.org/Graphics/SVG/1.1/DTD/svg11.dtd">
<svg version="1.1" id="Layer_1" xmlns="http://www.w3.org/2000/svg" xmlns:xlink="http://www.w3.org/1999/xlink" x="0px" y="0px"
	 width="126px" height="126px" viewBox="0 0 126 126" enable-background="new 0 0 126 126" xml:space="preserve">
<g>
	<path fill="#010101" d="M16.25,51h30.5c0.829,0,1.5-0.672,1.5-1.5V19c0-0.828-0.671-1.5-1.5-1.5h-30.5c-0.829,0-1.5,0.672-1.5,1.5
		v30.5C14.75,50.328,15.421,51,16.25,51z M42,20.25c1.036,0,1.875,0.84,1.875,1.875S43.036,24,42,24s-1.875-0.84-1.875-1.875
		S40.964,20.25,42,20.25z M34.875,20.25c1.036,0,1.875,0.84,1.875,1.875S35.911,24,34.875,24S33,23.16,33,22.125
		S33.839,20.25,34.875,20.25z M17.75,26.75h27.5V48h-27.5V26.75z"/>
	<path fill="#010101" d="M26.702,32.416l-7.08,3.647c-0.211,0.109-0.345,0.327-0.345,0.565v0.823c0,0.238,0.133,0.456,0.345,0.565
		l7.08,3.647c0.092,0.047,0.192,0.07,0.292,0.07c0.115,0,0.23-0.03,0.331-0.093c0.189-0.115,0.305-0.321,0.305-0.543v-1.053
		c0-0.24-0.136-0.461-0.351-0.568l-4.862-2.438l4.862-2.438c0.215-0.107,0.351-0.328,0.351-0.568v-1.053
		c0-0.222-0.116-0.428-0.305-0.543C27.136,32.322,26.9,32.315,26.702,32.416z"/>
	<path fill="#010101" d="M34.286,30.011h-1.038c-0.263,0-0.499,0.162-0.594,0.407l-4.257,11.063
		c-0.075,0.195-0.049,0.416,0.069,0.589s0.315,0.275,0.524,0.275h1.022c0.263,0,0.499-0.161,0.593-0.406l4.273-11.063
		c0.076-0.196,0.05-0.416-0.069-0.589C34.692,30.113,34.496,30.011,34.286,30.011z"/>
	<path fill="#010101" d="M43.62,36.046l-7.08-3.631c-0.199-0.102-0.433-0.092-0.622,0.023c-0.189,0.115-0.305,0.321-0.305,0.543
		v1.053c0,0.241,0.137,0.462,0.353,0.569l4.897,2.438l-4.897,2.437c-0.216,0.107-0.353,0.328-0.353,0.569V41.1
		c0,0.222,0.115,0.428,0.305,0.543c0.102,0.062,0.216,0.093,0.332,0.093c0.1,0,0.199-0.022,0.291-0.069l7.08-3.632
		c0.212-0.109,0.346-0.328,0.346-0.566v-0.855C43.966,36.374,43.832,36.155,43.62,36.046z"/>
	<path fill="#010101" d="M77.403,51h30.5c0.829,0,1.5-0.672,1.5-1.5V19c0-0.828-0.671-1.5-1.5-1.5h-30.5c-0.829,0-1.5,0.672-1.5,1.5
		v30.5C75.903,50.328,76.575,51,77.403,51z M103.153,20.25c1.036,0,1.875,0.84,1.875,1.875S104.189,24,103.153,24
		s-1.875-0.84-1.875-1.875S102.118,20.25,103.153,20.25z M96.028,20.25c1.036,0,1.875,0.84,1.875,1.875S97.064,24,96.028,24
		s-1.875-0.84-1.875-1.875S94.993,20.25,96.028,20.25z M78.903,26.75h27.5V48h-27.5V26.75z"/>
	<path fill="#010101" d="M98.787,36.232l-7.813-6.205c-0.472-0.372-1.117-0.447-1.659-0.184c-0.542,0.261-0.888,0.811-0.888,1.414
		v12.409c0,0.604,0.345,1.153,0.888,1.414c0.216,0.106,0.45,0.156,0.682,0.156c0.349,0,0.694-0.114,0.978-0.339l7.813-6.206
		c0.375-0.298,0.594-0.751,0.594-1.229C99.38,36.983,99.162,36.531,98.787,36.232z"/>
	<path fill="#010101" d="M48.06,92.694l-1.922-0.71c0.151-1.4,0.102-2.829-0.162-4.25l1.856-0.855
		c1.159-0.533,1.667-1.91,1.133-3.07l-1.083-2.352c-0.534-1.159-1.911-1.668-3.069-1.135l-1.857,0.856
		c-0.908-1.125-1.962-2.091-3.125-2.887l0.709-1.921c0.441-1.196-0.173-2.531-1.369-2.973l-2.431-0.897
		c-1.16-0.428-2.544,0.21-2.972,1.369l-0.709,1.922c-1.401-0.152-2.831-0.103-4.25,0.161l-0.855-1.855
		c-0.534-1.16-1.911-1.668-3.07-1.135l-2.353,1.084c-1.159,0.534-1.667,1.911-1.134,3.07l0.855,1.856
		c-1.124,0.908-2.09,1.963-2.886,3.126l-1.919-0.709c-1.158-0.43-2.546,0.208-2.974,1.368l-0.897,2.431
		c-0.214,0.581-0.189,1.209,0.069,1.771c0.26,0.561,0.722,0.989,1.3,1.201l1.921,0.71c-0.151,1.4-0.102,2.83,0.162,4.251
		l-1.856,0.854c-1.159,0.534-1.667,1.912-1.134,3.069L15.12,99.4c0.534,1.158,1.911,1.666,3.07,1.133l1.857-0.855
		c0.908,1.125,1.962,2.091,3.126,2.887l-0.709,1.92c-0.215,0.58-0.191,1.207,0.068,1.77c0.258,0.562,0.72,0.989,1.3,1.203
		l2.43,0.897c0.579,0.214,1.208,0.19,1.77-0.068c0.562-0.259,0.989-0.722,1.202-1.3l0.71-1.922c1.4,0.151,2.83,0.103,4.251-0.162
		l0.854,1.856c0.534,1.159,1.912,1.668,3.07,1.135l2.354-1.085c1.159-0.534,1.667-1.911,1.134-3.07l-0.855-1.856
		c1.124-0.909,2.09-1.962,2.885-3.125l1.922,0.71c0.58,0.215,1.209,0.189,1.77-0.07c0.562-0.257,0.988-0.721,1.203-1.299
		l0.897-2.431C49.869,94.47,49.255,93.137,48.06,92.694z M34.831,97.657c-3.993,1.839-8.72,0.094-10.56-3.898
		c-1.839-3.993-0.094-8.721,3.899-10.561c3.993-1.838,8.721-0.094,10.56,3.899C40.569,91.091,38.824,95.818,34.831,97.657z"/>
	<path fill="#010101" d="M31.5,85.765c-2.575,0-4.669,2.095-4.669,4.669s2.095,4.669,4.669,4.669c2.574,0,4.669-2.095,4.669-4.669
		S34.075,85.765,31.5,85.765z M31.5,93.514c-1.698,0-3.08-1.383-3.08-3.08s1.382-3.08,3.08-3.08s3.08,1.383,3.08,3.08
		S33.199,93.514,31.5,93.514z"/>
	<path fill="#010101" d="M105.236,85.558v7.297c0,0.87-0.558,1.602-1.333,1.878V72.642h-20v22.091
		c-0.775-0.276-1.333-1.008-1.333-1.878v-7.297h-7.334v22.668h37.334V85.558H105.236z M101.903,94.854h-16V74.642h16V94.854z"/>
	<polygon fill="#010101" points="89.805,85.827 93.313,90.087 95.492,83.005 97.893,84.377 101.017,79.021 99.29,78.013 
		97.164,81.656 94.315,80.028 92.494,85.946 89.002,81.706 86.449,89.842 88.357,90.441 	"/>
	<rect x="91.153" y="53.663" fill="#010101" width="3" height="16.333"/>
	<rect x="30.138" y="53.663" fill="#010101" width="3" height="16.333"/>
	<rect x="50.987" y="34.678" fill="#010101" width="22.5" height="3"/>
</g>
</svg>
