<?xml version="1.0" encoding="utf-8"?>
<!-- Generator: Adobe Illustrator 16.0.0, SVG Export Plug-In . SVG Version: 6.00 Build 0)  -->
<!DOCTYPE svg PUBLIC "-//W3C//DTD SVG 1.1//EN" "http://www.w3.org/Graphics/SVG/1.1/DTD/svg11.dtd">
<svg version="1.1" id="Layer_1" xmlns="http://www.w3.org/2000/svg" xmlns:xlink="http://www.w3.org/1999/xlink" x="0px" y="0px"
	 width="126px" height="126px" viewBox="0 0 126 126" enable-background="new 0 0 126 126" xml:space="preserve">
<g>
	<path d="M82.359,16.667H29.166v92.666h67.668v-75.72L82.359,16.667z M81.668,20.477L92.793,33.5H81.668V20.477z M93.834,106.333
		H32.166V19.667h46.502V36.5h15.166V106.333z"/>
	<path d="M63.671,58.852c-0.955-0.165-1.915-0.249-2.852-0.249c-9.163,0-16.618,7.455-16.618,16.618s7.455,16.618,16.618,16.618
		s16.617-7.455,16.617-16.618c0-0.577-0.033-1.18-0.098-1.791l-0.095-0.895H64.5v-13.54L63.671,58.852z"/>
	<path d="M67.646,55.113l-1.171-0.203v15.886h14.959l-0.119-1.107C80.528,62.364,74.907,56.37,67.646,55.113z M68.476,68.797v-11.46
		c5.453,1.417,9.654,5.918,10.688,11.46H68.476z"/>
	<polygon points="74.834,37.167 74.834,34.833 49.667,34.833 36.334,34.833 36.334,37.167 49.667,37.167 	"/>
	<polygon points="74.834,43.667 74.834,41.333 49.667,41.333 36.334,41.333 36.334,43.667 49.667,43.667 	"/>
	<polygon points="74.834,50.167 74.834,47.833 49.667,47.833 36.334,47.833 36.334,50.167 49.667,50.167 	"/>
	<rect x="37.083" y="98" width="49.584" height="2.333"/>
</g>
</svg>
