<?xml version="1.0" encoding="utf-8"?>
<!-- Generator: Adobe Illustrator 16.0.0, SVG Export Plug-In . SVG Version: 6.00 Build 0)  -->
<!DOCTYPE svg PUBLIC "-//W3C//DTD SVG 1.1//EN" "http://www.w3.org/Graphics/SVG/1.1/DTD/svg11.dtd">
<svg version="1.1" id="Layer_1" xmlns="http://www.w3.org/2000/svg" xmlns:xlink="http://www.w3.org/1999/xlink" x="0px" y="0px"
	 width="126px" height="126px" viewBox="0 0 126 126" enable-background="new 0 0 126 126" xml:space="preserve">
<g>
	<path d="M108.669,30.516c0-6.065-4.935-11-11-11c-2.634,0-5.054,0.933-6.95,2.482C83.027,16.101,73.42,12.581,63,12.581
		c-9.781,0-18.842,3.105-26.28,8.362c-1.886-1.519-4.278-2.433-6.883-2.433c-6.065,0-11,4.935-11,11
		c0,3.167,1.353,6.017,3.501,8.026c-3.186,6.224-5.008,13.255-5.008,20.714c0,21.392,14.79,39.378,34.677,44.313
		c0.078,5.999,4.976,10.856,10.993,10.856c6.015,0,10.912-4.855,10.993-10.851c19.888-4.935,34.677-22.926,34.677-44.318
		c0-6.817-1.525-13.277-4.216-19.092C107.016,37.142,108.669,34.021,108.669,30.516z M105.669,30.516c0,4.411-3.589,8-8,8
		s-8-3.589-8-8s3.589-8,8-8S105.669,26.105,105.669,30.516z M88.668,24.212c-1.255,1.787-1.999,3.958-1.999,6.304
		c0,1.925,0.5,3.734,1.373,5.309L70.501,50.227C68.534,48.387,65.9,47.25,63,47.25c-2.931,0-5.591,1.159-7.564,3.034L38.448,36.336
		c1.491-1.877,2.39-4.247,2.39-6.826c0-2.37-0.761-4.562-2.041-6.359c6.883-4.764,15.218-7.57,24.204-7.57
		C72.634,15.581,81.52,18.805,88.668,24.212z M63,66.25c-4.411,0-8-3.589-8-8s3.589-8,8-8s8,3.589,8,8S67.411,66.25,63,66.25z
		 M21.837,29.51c0-4.411,3.589-8,8-8s8,3.589,8,8s-3.589,8-8,8S21.837,33.921,21.837,29.51z M20.331,58.25
		c0-6.814,1.619-13.252,4.473-18.97c1.51,0.781,3.219,1.23,5.034,1.23c2.399,0,4.614-0.781,6.423-2.089l17.302,14.206
		C52.577,54.275,52,56.194,52,58.25c0,5.555,4.144,10.15,9.5,10.885v22.399c-4.407,0.605-7.983,3.824-9.114,8.043
		C33.977,94.847,20.331,78.114,20.331,58.25z M63,110.419c-4.411,0-8-3.589-8-8s3.589-8,8-8s8,3.589,8,8S67.411,110.419,63,110.419z
		 M105.669,58.25c0,19.864-13.646,36.597-32.055,41.328c-1.131-4.219-4.707-7.438-9.114-8.043V69.135
		C69.856,68.4,74,63.805,74,58.25c0-2.086-0.594-4.031-1.607-5.695L89.84,38.23c1.996,2.026,4.768,3.286,7.83,3.286
		c1.482,0,2.895-0.298,4.187-0.833C104.292,46.046,105.669,51.987,105.669,58.25z"/>
</g>
</svg>
