<?xml version="1.0" encoding="utf-8"?>
<!-- Generator: Adobe Illustrator 16.0.0, SVG Export Plug-In . SVG Version: 6.00 Build 0)  -->
<!DOCTYPE svg PUBLIC "-//W3C//DTD SVG 1.1//EN" "http://www.w3.org/Graphics/SVG/1.1/DTD/svg11.dtd">
<svg version="1.1" id="Layer_2" xmlns="http://www.w3.org/2000/svg" xmlns:xlink="http://www.w3.org/1999/xlink" x="0px" y="0px"
	 width="126px" height="126px" viewBox="0 0 126 126" enable-background="new 0 0 126 126" xml:space="preserve">
<g>
	<path fill="#010101" d="M63,39.771c12.741,0,27.619-2.649,27.619-10.115S75.741,19.54,63,19.54s-27.62,2.649-27.62,10.115
		S50.259,39.771,63,39.771z M63,22.317c13.93,0,24.842,3.223,24.842,7.338S76.93,36.993,63,36.993
		c-13.931,0-24.843-3.223-24.843-7.338S49.069,22.317,63,22.317z"/>
	<path fill="#010101" d="M91.333,67.206l-0.001-31.145l-3.108,2.068C84.795,40.411,75.666,42.713,63,42.713
		c-12.668,0-21.797-2.302-25.224-4.583l-3.108-2.07l-0.002,54.084c0,0.544,0,2.382,0,2.793c0,7.787,14.688,11.334,28.334,11.334
		c3.583,0,7.232-0.251,10.673-0.754l-0.111,0.133c3.76,3.156,8.532,4.894,13.437,4.894c11.532,0,20.913-9.375,20.913-20.898
		C107.911,77.677,100.912,69.215,91.333,67.206z M86.998,105.517c-3.845,0-7.585-1.261-10.66-3.548
		c-3.468-3.365-5.63-8.067-5.63-13.281c0-10.229,8.293-18.522,18.522-18.522c0.641,0,1.27,0.044,1.893,0.109
		c7.975,1.874,13.763,8.994,13.763,17.371C104.886,97.499,96.861,105.517,86.998,105.517z"/>
	<path fill="#010101" d="M101.274,89.476c-0.073-0.325-0.165-0.729-0.295-1.017c-0.147-0.419-0.322-0.74-0.474-1.003
		c-0.129-0.254-0.266-0.444-0.397-0.627c-0.055-0.076-0.11-0.153-0.187-0.264l-0.121-0.155l0.003-0.014
		c0.355-1.273-0.003-2.645-0.936-3.577l-5.078-5.078c-0.656-0.656-1.532-1.035-2.466-1.066l-0.039-0.002l0.012-0.038
		c0.262-0.866,0.033-1.795-0.597-2.425c-0.948-0.948-2.491-0.948-3.44,0l-2.12,2.123c-0.949,0.948-0.949,2.491,0,3.438
		c0.61,0.611,1.517,0.847,2.363,0.614l0.037-0.01l0.001,0.04c0.021,0.949,0.4,1.839,1.068,2.507l1.255,1.255L77.039,97.002
		c-1.143,1.141-1.288,2.151-0.437,3.004c0.853,0.853,1.863,0.706,3.004-0.436l12.827-12.826l0.819,0.82
		c0.79,0.79,2.53,1.744,3.925,1.391l0.021-0.004l0.08,0.103c0.076,0.096,0.152,0.192,0.242,0.318
		c0.115,0.146,0.238,0.326,0.381,0.535c0.072,0.093,0.132,0.197,0.202,0.32c0.046,0.079,0.093,0.158,0.136,0.22
		c0.045,0.066,0.069,0.12,0.108,0.206l0.074,0.147c0.07,0.12,0.106,0.184,0.118,0.246c0.017,0.074,0.046,0.144,0.086,0.207
		l-0.006,0.003c0.049,0.114,0.1,0.232,0.127,0.405l0.08,0.334l0.023,0.271c0.009,0.13,0.017,0.225,0.025,0.291l0.004,0.033
		c0.002,0.068-0.007,0.134-0.016,0.211l-0.008,0.082c-0.011,0.112-0.017,0.192-0.022,0.272l-0.009,0.14
		c-0.019,0.247,0.111,0.481,0.33,0.594c0.221,0.114,0.486,0.085,0.677-0.074l0.352-0.307c0.079-0.071,0.158-0.145,0.261-0.265
		c0.066-0.088,0.154-0.221,0.251-0.367l0.1-0.156c0.062-0.093,0.122-0.188,0.189-0.338l0.17-0.469
		c0.14-0.367,0.175-0.749,0.214-1.179C101.387,90.378,101.361,89.997,101.274,89.476z"/>
</g>
</svg>
