<?xml version="1.0" encoding="utf-8"?>
<!-- Generator: Adobe Illustrator 16.0.0, SVG Export Plug-In . SVG Version: 6.00 Build 0)  -->
<!DOCTYPE svg PUBLIC "-//W3C//DTD SVG 1.1//EN" "http://www.w3.org/Graphics/SVG/1.1/DTD/svg11.dtd">
<svg version="1.1" id="Layer_2" xmlns="http://www.w3.org/2000/svg" xmlns:xlink="http://www.w3.org/1999/xlink" x="0px" y="0px"
	 width="126px" height="126px" viewBox="0 0 126 126" enable-background="new 0 0 126 126" xml:space="preserve">
<path d="M114.03,73.338l-9.204-9.205c-1.067-1.067-2.485-1.655-3.994-1.655s-2.927,0.588-3.994,1.654
	c-1.066,1.066-1.654,2.485-1.654,3.994c0,1.178,0.357,2.3,1.021,3.243h-5.068V32.745c0-2.052-1.672-3.723-3.725-3.723H14.035
	c-2.052,0-3.722,1.671-3.722,3.723v60.511c0,2.052,1.67,3.722,3.722,3.722h59.968c-0.005-0.042-0.005-0.085-0.01-0.127h13.421
	c2.052,0,3.722-1.669,3.722-3.722V82.666h4.439c-0.587,0.834-0.936,1.815-1.008,2.858c-0.103,1.507,0.387,2.962,1.38,4.099
	c1.072,1.229,2.624,1.935,4.257,1.935c1.366,0,2.685-0.494,3.712-1.392l9.835-8.578c1.172-1.024,1.877-2.504,1.932-4.064
	C115.735,75.965,115.133,74.438,114.03,73.338z M83.665,33.33c1.342,0,2.428,1.088,2.428,2.429s-1.086,2.429-2.428,2.429
	c-1.341,0-2.427-1.088-2.427-2.429S82.324,33.33,83.665,33.33z M72.969,33.33c1.339,0,2.427,1.088,2.427,2.429
	s-1.088,2.429-2.427,2.429c-1.344,0-2.43-1.088-2.43-2.429S71.625,33.33,72.969,33.33z M62.333,33.33
	c1.342,0,2.428,1.088,2.428,2.429s-1.086,2.429-2.428,2.429c-1.341,0-2.427-1.088-2.427-2.429S60.992,33.33,62.333,33.33z
	 M87.946,93.129c0,0.293-0.238,0.532-0.532,0.532H27.656c-0.002,0.043-0.005,0.085-0.007,0.127H14.035
	c-0.294,0-0.532-0.239-0.532-0.532V42.848h73.908c0.187,0,0.363-0.03,0.532-0.074v0.06l-0.005,0.015v24.869h0.008v3.652H72.901
	c-3.115,0-5.648,2.533-5.648,5.648s2.533,5.648,5.648,5.648h15.045V93.129z M111.767,79.696l-9.834,8.577
	c-0.594,0.52-1.33,0.773-2.062,0.773c-0.875,0-1.745-0.363-2.366-1.074c-1.14-1.307-1.004-3.289,0.302-4.428l3.885-3.39H72.567
	c-1.732,0-3.138-1.404-3.138-3.138s1.405-3.139,3.138-3.139h29.246l-3.533-3.533c-1.227-1.226-1.227-3.213,0-4.438
	c1.226-1.226,3.211-1.226,4.438,0l9.204,9.205c0.616,0.615,0.948,1.457,0.919,2.325C112.81,78.307,112.421,79.125,111.767,79.696z"
	/>
</svg>
