<?xml version="1.0" encoding="utf-8"?>
<!-- Generator: Adobe Illustrator 16.0.0, SVG Export Plug-In . SVG Version: 6.00 Build 0)  -->
<!DOCTYPE svg PUBLIC "-//W3C//DTD SVG 1.1//EN" "http://www.w3.org/Graphics/SVG/1.1/DTD/svg11.dtd">
<svg version="1.1" id="Layer_2" xmlns="http://www.w3.org/2000/svg" xmlns:xlink="http://www.w3.org/1999/xlink" x="0px" y="0px"
	 width="126px" height="126px" viewBox="0 0 126 126" enable-background="new 0 0 126 126" xml:space="preserve">
<path d="M111,74.953h-6.333V16.287H111c1.657,0,3-1.344,3-3c0-1.657-1.343-3-3-3h-9.333H63V7.494c0-0.816-0.662-1.479-1.479-1.479
	s-1.479,0.662-1.479,1.479v2.793H24.333H15c-1.657,0-3,1.343-3,3c0,1.656,1.343,3,3,3h6.333v58.666H15c-1.657,0-3,1.343-3,3
	c0,1.656,1.343,3,3,3h9.333H63.77c-0.092,0.055-0.181,0.112-0.265,0.178c-0.05,0.04-0.099,0.078-0.146,0.121
	c-0.1,0.092-0.19,0.193-0.274,0.3c-0.023,0.029-0.053,0.051-0.075,0.082l-16.363,22.863c-0.803,1.123-0.544,2.685,0.578,3.488
	c1.123,0.802,2.685,0.545,3.488-0.578l11.83-16.53v26.607c0,1.381,1.119,2.5,2.5,2.5s2.5-1.119,2.5-2.5V90.877l11.83,16.53
	c0.488,0.682,1.256,1.045,2.035,1.045c0.504,0,1.012-0.151,1.453-0.467c1.123-0.804,1.381-2.365,0.578-3.488L67.076,81.634
	c-0.022-0.031-0.052-0.053-0.075-0.082c-0.084-0.107-0.174-0.208-0.274-0.3c-0.047-0.043-0.096-0.081-0.146-0.121
	c-0.083-0.066-0.173-0.123-0.265-0.178h35.351H111c1.657,0,3-1.344,3-3C114,76.296,112.657,74.953,111,74.953z M31.474,38.566v-7
	L48.562,46.76l9.579-7.91l12.498,8.455l23.063-6.835v9.037l-22.663,6.717l-13.079-5.757l-9.733,4.945L31.474,38.566z
	 M100.833,74.953h-1.739v-1.164h-3.361V37.96l-24.719,7.327l-13.003-8.796l-9.397,7.759L29.441,27.202v46.587h-2.535v1.164h-1.739
	V16.287h75.667V74.953z"/>
</svg>
