<?xml version="1.0" encoding="utf-8"?>
<!-- Generator: Adobe Illustrator 16.0.0, SVG Export Plug-In . SVG Version: 6.00 Build 0)  -->
<!DOCTYPE svg PUBLIC "-//W3C//DTD SVG 1.1//EN" "http://www.w3.org/Graphics/SVG/1.1/DTD/svg11.dtd">
<svg version="1.1" id="Layer_1" xmlns="http://www.w3.org/2000/svg" xmlns:xlink="http://www.w3.org/1999/xlink" x="0px" y="0px"
	 width="126px" height="126px" viewBox="0 0 126 126" enable-background="new 0 0 126 126" xml:space="preserve">
<path d="M110.462,58.327c-0.075-1.423-0.292-2.81-0.625-4.153c-2.784-19.155-22.739-34.059-46.883-34.059
	c-20.258,0-37.572,10.491-44.269,25.181c-0.554,1.195-1.03,2.429-1.43,3.692c-0.042,0.13-0.079,0.261-0.119,0.391
	c-0.116,0.384-0.227,0.771-0.328,1.16c-0.089,0.333-0.17,0.668-0.248,1.004c-0.022,0.1-0.044,0.199-0.065,0.299
	c-0.257,1.156-0.445,2.331-0.573,3.519c-0.333,0.953-0.568,1.951-0.668,2.992c-3.286,0.364-5.853,3.146-5.853,6.527
	c0,3.365,2.54,6.145,5.803,6.532c0.812,19.146,16.635,34.473,35.977,34.473c19.388,0,35.238-15.401,35.98-34.61
	c2.889-0.695,5.045-3.295,5.045-6.395c0-2.756-1.705-5.119-4.115-6.098c-0.259-2.427-1.239-4.647-2.715-6.481
	c-0.926-4.673-2.91-9-5.715-12.756c2.154-0.674,4.45-1.044,6.837-1.044c10.827,0,19.846,7.509,21.658,17.357
	c0.086,0.884,0.147,1.773,0.154,2.673c-2.802,0.756-4.873,3.313-4.873,6.35c0,3.63,2.953,6.583,6.583,6.583
	c3.629,0,6.582-2.953,6.582-6.583C116.601,61.4,113.884,58.557,110.462,58.327z M62.34,60.167c2.6,0,4.714,2.114,4.714,4.713
	s-2.114,4.713-4.714,4.713c-2.599,0-4.713-2.114-4.713-4.713S59.741,60.167,62.34,60.167z M64.116,51.218
	c-3.065-11.952-12.509-20.686-23.668-20.686c-2.051,0-4.043,0.301-5.95,0.856c4.841-2.572,10.434-4.051,16.393-4.051
	c10.293,0,19.508,4.389,25.605,11.264C70.845,41.095,66.375,45.631,64.116,51.218z M40.448,32.402
	c11.125,0,20.417,9.501,22.444,22.038c-0.622,1.205-1.05,2.514-1.25,3.896c-3.302,0.35-5.884,3.151-5.884,6.544
	c0,3.63,2.953,6.583,6.582,6.583c0.291,0,0.575-0.026,0.856-0.063c-0.66,5.926-5.694,10.551-11.794,10.551
	c-6.086,0-11.11-4.604-11.788-10.512c3.422-0.23,6.137-3.08,6.137-6.56c0-3.161-2.242-5.808-5.218-6.438
	c-0.583-6.515-6.027-11.639-12.642-11.639c-3.519,0-6.707,1.451-9.009,3.788C22.011,40.01,30.494,32.402,40.448,32.402z
	 M39.169,60.167c2.599,0,4.713,2.114,4.713,4.713s-2.114,4.713-4.713,4.713s-4.714-2.114-4.714-4.713S36.57,60.167,39.169,60.167z
	 M11.269,64.88c0-2.599,2.114-4.713,4.713-4.713c2.6,0,4.714,2.114,4.714,4.713s-2.114,4.713-4.714,4.713
	C13.383,69.593,11.269,67.479,11.269,64.88z M90.335,64.88c0,2.599-2.114,4.713-4.713,4.713c-2.6,0-4.714-2.114-4.714-4.713
	s2.114-4.713,4.714-4.713C88.221,60.167,90.335,62.281,90.335,64.88z M85.992,58.316c-0.123-0.007-0.245-0.019-0.37-0.019
	c-3.63,0-6.583,2.953-6.583,6.582c0,3.516,2.773,6.389,6.246,6.565c-0.826,18.1-15.807,32.57-34.106,32.57
	c-18.327,0-33.322-14.515-34.109-32.65c3.112-0.521,5.495-3.228,5.495-6.485c0-3.065-2.11-5.641-4.952-6.37
	c0.002-0.07,0.002-0.142,0.005-0.212h0.062c0-0.573,0.02-1.143,0.053-1.709c0.016-0.175,0.04-0.348,0.059-0.522
	c1.455-4.221,5.427-7.263,10.1-7.263c5.474,0,9.995,4.171,10.62,9.528c-3.322,0.332-5.924,3.142-5.924,6.549
	c0,3.132,2.201,5.756,5.137,6.417c0.62,7.008,6.514,12.523,13.68,12.523c7.318,0,13.302-5.755,13.702-12.975
	c2.251-1.048,3.818-3.324,3.818-5.966c0-2.618-1.541-4.878-3.76-5.938c-0.022-1.18-0.111-2.341-0.25-3.483
	c0.062-0.3,0.132-0.598,0.207-0.893c1.982-3.146,5.587-5.263,9.711-5.263c3.579,0,6.77,1.594,8.848,4.07
	c0.276,1.604,0.425,3.249,0.425,4.924h1.52h0.35c0-0.044-0.003-0.088-0.003-0.132C85.978,58.216,85.983,58.267,85.992,58.316z
	 M82.852,49.904c-2.235-1.625-5.008-2.601-8.021-2.601c-2.917,0-5.608,0.914-7.805,2.445c2.341-4.243,6.155-7.632,10.792-9.541
	C80.064,43.105,81.784,46.377,82.852,49.904z M86.497,36.5c-2.868,0-5.619,0.486-8.17,1.375
	c-6.433-7.553-16.337-12.406-27.436-12.406c-3.895,0-7.639,0.606-11.142,1.707c6.794-3.293,14.729-5.191,23.204-5.191
	c18.879,0,35.089,9.403,41.908,22.734C100.456,39.698,93.86,36.5,86.497,36.5z M110.019,69.593c-2.6,0-4.714-2.114-4.714-4.713
	s2.114-4.713,4.714-4.713c2.599,0,4.713,2.114,4.713,4.713S112.617,69.593,110.019,69.593z"/>
</svg>
