<?xml version="1.0" encoding="utf-8"?>
<!-- Generator: Adobe Illustrator 16.0.0, SVG Export Plug-In . SVG Version: 6.00 Build 0)  -->
<!DOCTYPE svg PUBLIC "-//W3C//DTD SVG 1.1//EN" "http://www.w3.org/Graphics/SVG/1.1/DTD/svg11.dtd">
<svg version="1.1" id="Layer_2" xmlns="http://www.w3.org/2000/svg" xmlns:xlink="http://www.w3.org/1999/xlink" x="0px" y="0px"
	 width="126px" height="126px" viewBox="0 0 126 126" enable-background="new 0 0 126 126" xml:space="preserve">
<g>
	<path fill="#010101" d="M63,42.145c13.646,0,28.333-2.95,28.333-9.426S76.646,23.293,63,23.293s-28.334,2.95-28.334,9.426
		S49.354,42.145,63,42.145z"/>
	<path fill="#010101" d="M91.334,91.707l-0.002-54.083l-3.108,2.068C84.795,41.974,75.666,44.276,63,44.276
		c-12.668,0-21.797-2.302-25.224-4.583l-3.108-2.07l-0.002,54.084c0,0.544,0,2.381,0,2.793c0,7.787,14.688,11.333,28.334,11.333
		s28.333-3.547,28.333-11.333C91.333,94.09,91.334,92.252,91.334,91.707z M63,48.276c9.914,0,18.786-1.361,24.334-3.647v43.679
		C82.038,84.809,72.281,83.167,63,83.167c-9.28,0-19.037,1.643-24.334,5.141V44.629C44.213,46.915,53.084,48.276,63,48.276z"/>
</g>
</svg>
