<?xml version="1.0" encoding="utf-8"?>
<!-- Generator: Adobe Illustrator 16.0.0, SVG Export Plug-In . SVG Version: 6.00 Build 0)  -->
<!DOCTYPE svg PUBLIC "-//W3C//DTD SVG 1.1//EN" "http://www.w3.org/Graphics/SVG/1.1/DTD/svg11.dtd">
<svg version="1.1" id="Layer_2" xmlns="http://www.w3.org/2000/svg" xmlns:xlink="http://www.w3.org/1999/xlink" x="0px" y="0px"
	 width="126px" height="126px" viewBox="0 0 126 126" enable-background="new 0 0 126 126" xml:space="preserve">
<g>
	<path d="M101.527,17.469c0-1.635-1.332-2.966-2.967-2.966H40.105c-1.635,0-2.965,1.331-2.965,2.966v14.393h-9.703
		c-1.635,0-2.965,1.331-2.965,2.966v73.705c0,1.635,1.33,2.965,2.965,2.965h47.773c-0.004-0.033-0.004-0.067-0.008-0.101h10.691
		c1.635,0,2.965-1.33,2.965-2.965V94.038h9.703c1.635,0,2.965-1.33,2.965-2.965V37.311c0,0-0.002,0-0.002,0.001L101.527,17.469z
		 M95.576,17.935c1.068,0,1.934,0.866,1.934,1.935s-0.865,1.935-1.934,1.935s-1.934-0.866-1.934-1.935S94.508,17.935,95.576,17.935z
		 M87.055,17.935c1.066,0,1.934,0.866,1.934,1.935s-0.867,1.935-1.934,1.935c-1.07,0-1.936-0.866-1.936-1.935
		S85.984,17.935,87.055,17.935z M78.582,17.935c1.068,0,1.934,0.866,1.934,1.935s-0.865,1.935-1.934,1.935s-1.934-0.866-1.934-1.935
		S77.514,17.935,78.582,17.935z M86.318,108.432c0,0.233-0.189,0.424-0.424,0.424H38.289c-0.002,0.034-0.004,0.067-0.006,0.101
		H27.438c-0.234,0-0.424-0.19-0.424-0.424V42.875h58.879c0.148,0,0.289-0.024,0.424-0.06v0.048l-0.004,0.012v19.812
		c0.002,0,0.004,0,0.006,0V108.432z M63.98,37.228c0-1.068,0.865-1.935,1.934-1.935s1.934,0.866,1.934,1.935
		s-0.865,1.935-1.934,1.935S63.98,38.296,63.98,37.228z M72.451,37.228c0-1.068,0.865-1.935,1.936-1.935
		c1.066,0,1.934,0.866,1.934,1.935s-0.867,1.935-1.934,1.935C73.316,39.162,72.451,38.296,72.451,37.228z M80.975,37.228
		c0-1.068,0.865-1.935,1.934-1.935s1.934,0.866,1.934,1.935s-0.865,1.935-1.934,1.935S80.975,38.296,80.975,37.228z M98.986,91.073
		c0,0.233-0.189,0.424-0.424,0.424h-9.703V54.67c0,0,0,0-0.002,0l0.002-19.843c0-1.635-1.332-2.966-2.967-2.966H39.682v-6.345
		h58.879c0.148,0,0.289-0.024,0.424-0.06v0.047l-0.004,0.013v19.811c0.002,0,0.004,0.001,0.006,0.001V91.073z"/>
	<polygon points="31.229,75.154 49.275,84.45 49.275,79.979 36.658,73.654 49.275,67.33 49.275,62.86 31.229,72.155 	"/>
	<polygon points="59.764,58.095 49.307,85.265 53.604,85.265 64.098,58.095 	"/>
	<polygon points="64.059,67.332 76.77,73.654 64.059,79.977 64.059,84.447 82.104,75.19 82.104,72.117 64.059,62.862 	"/>
</g>
</svg>
