<?xml version="1.0" encoding="utf-8"?>
<!-- Generator: Adobe Illustrator 16.0.0, SVG Export Plug-In . SVG Version: 6.00 Build 0)  -->
<!DOCTYPE svg PUBLIC "-//W3C//DTD SVG 1.1//EN" "http://www.w3.org/Graphics/SVG/1.1/DTD/svg11.dtd">
<svg version="1.1" id="Layer_1" xmlns="http://www.w3.org/2000/svg" xmlns:xlink="http://www.w3.org/1999/xlink" x="0px" y="0px"
	 width="126px" height="126px" viewBox="0 0 126 126" enable-background="new 0 0 126 126" xml:space="preserve">
<g>
	<g>
		<path fill="#010101" d="M68.447,65.607l-1.923-0.71c0.152-1.4,0.103-2.829-0.161-4.25l1.856-0.855
			c1.158-0.533,1.667-1.91,1.133-3.07L68.27,54.37c-0.534-1.159-1.911-1.668-3.069-1.135l-1.857,0.856
			c-0.908-1.125-1.962-2.091-3.125-2.887l0.709-1.921c0.441-1.196-0.173-2.531-1.369-2.973l-2.43-0.897
			c-1.16-0.428-2.545,0.21-2.973,1.369l-0.709,1.922c-1.401-0.152-2.831-0.103-4.251,0.161l-0.855-1.855
			c-0.534-1.16-1.911-1.668-3.07-1.135l-2.353,1.084c-1.158,0.534-1.668,1.911-1.135,3.07l0.855,1.856
			c-1.123,0.908-2.09,1.963-2.886,3.126l-1.919-0.709c-1.158-0.43-2.546,0.208-2.975,1.368l-0.896,2.431
			c-0.215,0.581-0.189,1.209,0.068,1.771c0.26,0.561,0.723,0.989,1.301,1.201l1.921,0.71c-0.151,1.4-0.103,2.83,0.162,4.251
			l-1.856,0.854c-1.159,0.534-1.668,1.912-1.134,3.069l1.084,2.354c0.534,1.158,1.911,1.666,3.069,1.133l1.857-0.855
			c0.908,1.125,1.962,2.091,3.126,2.887l-0.71,1.92c-0.215,0.58-0.19,1.207,0.068,1.77c0.258,0.562,0.721,0.989,1.301,1.203
			l2.43,0.897c0.58,0.214,1.209,0.19,1.77-0.068c0.563-0.259,0.989-0.722,1.203-1.3l0.709-1.922c1.4,0.151,2.83,0.103,4.252-0.162
			l0.854,1.856c0.535,1.159,1.912,1.668,3.07,1.135l2.354-1.085c1.159-0.534,1.668-1.911,1.134-3.07l-0.855-1.856
			c1.124-0.909,2.091-1.962,2.886-3.125l1.922,0.71c0.58,0.215,1.209,0.189,1.77-0.07c0.562-0.257,0.988-0.721,1.203-1.299
			l0.896-2.431C70.257,67.383,69.643,66.05,68.447,65.607z M55.219,70.57c-3.993,1.839-8.72,0.094-10.56-3.898
			c-1.839-3.993-0.094-8.721,3.898-10.561c3.994-1.838,8.721-0.094,10.561,3.899C60.957,64.004,59.212,68.731,55.219,70.57z"/>
		<path fill="#010101" d="M51.888,58.678c-2.574,0-4.669,2.095-4.669,4.669s2.095,4.669,4.669,4.669s4.67-2.095,4.67-4.669
			S54.462,58.678,51.888,58.678z M51.888,66.427c-1.697,0-3.08-1.383-3.08-3.08s1.383-3.08,3.08-3.08c1.699,0,3.08,1.383,3.08,3.08
			S53.587,66.427,51.888,66.427z"/>
	</g>
	<g>
		<circle fill="#010101" cx="81.329" cy="86.215" r="2.171"/>
		<path fill="#010101" d="M78.982,81.115c-2.813,1.297-4.043,4.629-2.748,7.443c1.297,2.813,4.628,4.043,7.442,2.747
			c2.813-1.296,4.044-4.628,2.748-7.442C85.128,81.05,81.797,79.82,78.982,81.115z M81.329,89.505c-1.814,0-3.29-1.476-3.29-3.29
			s1.476-3.291,3.29-3.291c1.813,0,3.291,1.477,3.291,3.291S83.143,89.505,81.329,89.505z"/>
		<path fill="#010101" d="M87.199,77.658c0.82,0.561,1.563,1.241,2.203,2.034l1.309-0.604c0.417-0.191,0.872-0.19,1.271-0.036
			l0.306-0.83c-0.586-0.4-1.118-0.888-1.576-1.455l-0.936,0.431c-0.584,0.27-1.278,0.014-1.548-0.57l-0.431-0.937
			c0.006,0.204-0.023,0.411-0.098,0.613L87.199,77.658z"/>
		<path fill="#010101" d="M108.75,71.83c0.096-0.188,0.182-0.382,0.256-0.582c0.478-1.295,0.424-2.699-0.153-3.951l-0.547-1.187
			c-0.672-1.459-1.984-2.506-3.511-2.867c-0.47-1.463-1.583-2.704-3.132-3.275l-1.215-0.448c-1.488-0.552-3.207-0.344-4.507,0.457
			c-1.364-0.709-3.09-0.773-4.537-0.108l-1.188,0.548c-1.501,0.692-2.513,2.02-2.864,3.518c-0.017,0.005-0.031,0.014-0.048,0.019
			v-37.93c0-1.75-1.421-3.171-3.172-3.171H19.647c-1.752,0-3.172,1.421-3.172,3.171v64.486c0,1.75,1.42,3.171,3.172,3.171h46.097
			l0.338,0.733c0.867,1.879,2.709,3.129,4.759,3.259c0.076,0.534,0.229,1.06,0.461,1.563c0.629,1.371,1.756,2.413,3.166,2.931
			l1.719,0.636c0.627,0.229,1.281,0.347,1.946,0.347c0.818,0,1.611-0.175,2.347-0.514c0.509-0.233,0.973-0.535,1.381-0.896
			c1.59,1.193,3.86,1.479,5.737,0.615l1.655-0.764c1.366-0.629,2.406-1.753,2.928-3.165c0.192-0.521,0.306-1.058,0.34-1.596
			c0.541-0.076,1.063-0.23,1.555-0.458c1.367-0.625,2.41-1.747,2.938-3.169l0.633-1.716c0.737-2.003,0.259-4.163-1.062-5.668
			c0.239-0.319,0.445-0.665,0.614-1.034c1.307,0.572,2.891,0.576,4.227-0.041l1.181-0.545c1.255-0.575,2.209-1.606,2.688-2.901
			c0.073-0.199,0.135-0.401,0.184-0.605c0.195-0.063,0.387-0.138,0.572-0.224c1.252-0.57,2.209-1.596,2.704-2.913l0.45-1.223
			C109.775,74.786,109.556,73.137,108.75,71.83z M74.089,28.666c2.189,0,3.965,1.775,3.965,3.964s-1.775,3.965-3.965,3.965
			c-2.188,0-3.964-1.776-3.964-3.965S71.901,28.666,74.089,28.666z M59.024,28.666c2.189,0,3.965,1.775,3.965,3.964
			s-1.775,3.965-3.965,3.965c-2.188,0-3.963-1.776-3.963-3.965S56.837,28.666,59.024,28.666z M65.505,79.622l-0.637,1.722
			c-0.516,1.407-0.456,2.933,0.177,4.31c0.231,0.5,0.53,0.955,0.884,1.357c-0.077,0.104-0.139,0.218-0.209,0.326H22.818V42.409
			H80.96V70.87c-0.098,0.074-0.201,0.144-0.294,0.225c-1.59-1.2-3.863-1.49-5.745-0.623l-1.664,0.766
			c-1.94,0.897-3.13,2.769-3.256,4.771C67.971,76.304,66.221,77.682,65.505,79.622z M105.523,74.746l-0.451,1.226
			c-0.109,0.291-0.324,0.525-0.607,0.654c-0.282,0.131-0.6,0.144-0.893,0.035l-0.968-0.358c-0.401,0.587-0.889,1.118-1.455,1.576
			l0.431,0.936c0.27,0.585,0.014,1.279-0.571,1.548l-1.187,0.547c-0.584,0.27-1.278,0.013-1.548-0.571l-0.431-0.937
			c-0.717,0.134-1.438,0.158-2.143,0.082l-0.357,0.969c-0.108,0.291-0.323,0.525-0.607,0.655c-0.282,0.131-0.599,0.143-0.892,0.035
			l-0.475-0.175l0.267,0.578c0.377,0.817,0.019,1.788-0.798,2.164l-1.308,0.603c0.186,1.001,0.221,2.008,0.113,2.995l1.355,0.5
			c0.842,0.313,1.274,1.252,0.964,2.096l-0.632,1.713c-0.151,0.407-0.452,0.734-0.848,0.915c-0.396,0.184-0.839,0.201-1.248,0.05
			l-1.354-0.501c-0.561,0.82-1.242,1.563-2.034,2.203l0.603,1.308c0.377,0.817,0.019,1.788-0.799,2.164l-1.658,0.765
			c-0.816,0.376-1.787,0.018-2.164-0.8l-0.602-1.309c-1.002,0.187-2.01,0.222-2.996,0.114l-0.5,1.354
			c-0.15,0.407-0.451,0.734-0.848,0.916c-0.396,0.183-0.838,0.199-1.247,0.049l-1.713-0.633c-0.409-0.15-0.735-0.452-0.917-0.848
			c-0.182-0.396-0.199-0.839-0.048-1.247l0.501-1.354c-0.82-0.561-1.563-1.241-2.203-2.034l-1.31,0.603
			c-0.815,0.376-1.786,0.019-2.163-0.798l-0.764-1.659c-0.377-0.815-0.018-1.787,0.799-2.163l1.309-0.603
			c-0.187-1.001-0.221-2.009-0.114-2.996l-1.354-0.5c-0.407-0.149-0.733-0.451-0.917-0.847c-0.182-0.396-0.199-0.838-0.049-1.248
			l0.633-1.713c0.302-0.817,1.279-1.267,2.096-0.964l1.353,0.5c0.562-0.82,1.242-1.563,2.034-2.203l-0.604-1.309
			c-0.375-0.817-0.016-1.787,0.8-2.164l1.658-0.764c0.817-0.376,1.787-0.018,2.163,0.8l0.604,1.308c1-0.186,2.008-0.221,2.996-0.113
			l0.5-1.354c0.301-0.817,1.277-1.267,2.094-0.965l1.713,0.632c0.377,0.14,0.665,0.407,0.849,0.732
			c0.005-0.436,0.247-0.854,0.669-1.048l0.937-0.431c-0.134-0.716-0.157-1.438-0.081-2.144l-0.969-0.357
			c-0.291-0.107-0.524-0.323-0.656-0.605c-0.13-0.283-0.143-0.6-0.035-0.894l0.453-1.225c0.216-0.585,0.915-0.906,1.499-0.69
			l0.968,0.358c0.401-0.587,0.889-1.118,1.455-1.576l-0.432-0.937c-0.269-0.584-0.012-1.278,0.572-1.548l1.186-0.546
			c0.585-0.27,1.279-0.013,1.548,0.572l0.432,0.936c0.716-0.133,1.437-0.158,2.144-0.082l0.357-0.969
			c0.215-0.584,0.914-0.906,1.498-0.689l1.225,0.451c0.604,0.223,0.913,0.896,0.691,1.5l-0.358,0.968
			c0.587,0.401,1.118,0.888,1.576,1.455l0.937-0.432c0.584-0.269,1.277-0.013,1.547,0.572l0.546,1.186
			c0.27,0.585,0.013,1.279-0.571,1.548l-0.936,0.431c0.133,0.717,0.158,1.437,0.082,2.143l0.969,0.358
			C105.437,73.471,105.746,74.143,105.523,74.746z"/>
		<circle fill="#010101" cx="96.485" cy="72.107" r="1.553"/>
		<path fill="#010101" d="M94.807,68.459c-2.013,0.928-2.893,3.312-1.966,5.325c0.928,2.012,3.311,2.892,5.324,1.965
			c2.013-0.927,2.893-3.311,1.966-5.324C99.203,68.412,96.82,67.533,94.807,68.459z M96.485,74.461
			c-1.298,0-2.354-1.056-2.354-2.354s1.056-2.354,2.354-2.354s2.354,1.057,2.354,2.354S97.783,74.461,96.485,74.461z"/>
		<path fill="#010101" d="M87.682,75.441l0.115,0.25c-0.009-0.266-0.086-0.521-0.214-0.75
			C87.581,75.109,87.606,75.279,87.682,75.441z"/>
	</g>
</g>
</svg>
