<?xml version="1.0" encoding="utf-8"?>
<!-- Generator: Adobe Illustrator 16.0.0, SVG Export Plug-In . SVG Version: 6.00 Build 0)  -->
<!DOCTYPE svg PUBLIC "-//W3C//DTD SVG 1.1//EN" "http://www.w3.org/Graphics/SVG/1.1/DTD/svg11.dtd">
<svg version="1.1" id="Layer_1" xmlns="http://www.w3.org/2000/svg" xmlns:xlink="http://www.w3.org/1999/xlink" x="0px" y="0px"
	 width="126px" height="126px" viewBox="0 0 126 126" enable-background="new 0 0 126 126" xml:space="preserve">
<path d="M44.04,46.5v27.312c-3.509-1.234-6.739-3.207-9.442-5.815c-4.999-4.824-7.819-11.306-7.942-18.251
	c-0.123-6.946,2.466-13.523,7.29-18.521c4.824-4.999,11.306-7.819,18.251-7.942c6.303-0.125,12.282,2.007,17.068,5.996H52.96v5H77.3
	v-23.5h-5v14.527c-12.35-10.13-30.669-9.245-41.954,2.447c-11.873,12.302-11.524,31.97,0.778,43.843
	c3.643,3.515,8.087,6.069,12.915,7.464V102H81.96V46.5H44.04z M76.96,97H49.04V51.5H76.96V97z"/>
</svg>
