<?xml version="1.0" encoding="utf-8"?>
<!-- Generator: Adobe Illustrator 16.0.0, SVG Export Plug-In . SVG Version: 6.00 Build 0)  -->
<!DOCTYPE svg PUBLIC "-//W3C//DTD SVG 1.1//EN" "http://www.w3.org/Graphics/SVG/1.1/DTD/svg11.dtd">
<svg version="1.1" id="Layer_2" xmlns="http://www.w3.org/2000/svg" xmlns:xlink="http://www.w3.org/1999/xlink" x="0px" y="0px"
	 width="126px" height="126px" viewBox="0 0 126 126" enable-background="new 0 0 126 126" xml:space="preserve">
<g>
	<path d="M103.01,58.927c-0.902-1.296-2.372-2.267-3.285-2.166l-9.643,1.063c-0.913,0.101-0.922,1.233-0.021,2.53
		c0.196,0.282,0.419,0.55,0.657,0.793c0.857,0.875,1.913,1.451,2.627,1.372l9.643-1.063
		C103.902,61.355,103.911,60.223,103.01,58.927z"/>
	<path d="M97.823,73.762c0.599,0.612,1.314,1.102,1.963,1.296l12.317,3.684c1.166,0.35,1.678-0.384,1.143-1.637
		c-0.533-1.251-1.912-2.551-3.078-2.9l-12.317-3.684c-1.166-0.35-1.678,0.384-1.144,1.637
		C96.944,72.713,97.346,73.275,97.823,73.762z"/>
	<path d="M115.294,90.297l-13.505-7.988c-1.279-0.756-2.231-0.512-2.128,0.547c0.07,0.709,0.597,1.604,1.322,2.346
		c0.355,0.363,0.76,0.689,1.181,0.938l13.505,7.988c1.278,0.757,2.231,0.511,2.127-0.546
		C117.694,92.523,116.575,91.053,115.294,90.297z"/>
	<path d="M114.486,103.097l-13.065-11.328c-1.236-1.073-2.515-1.346-2.855-0.61c-0.303,0.656,0.243,1.894,1.242,2.914
		c0.121,0.124,0.25,0.244,0.382,0.36l13.065,11.327c1.237,1.073,2.516,1.346,2.855,0.611
		C116.45,105.635,115.723,104.17,114.486,103.097z"/>
	<path d="M96.792,97.759c-1.046-1.262-2.496-2.018-3.239-1.693c-0.743,0.325-0.496,1.608,0.55,2.867l11.048,13.302
		c0.113,0.137,0.231,0.267,0.352,0.391c1,1.021,2.225,1.592,2.887,1.303c0.743-0.324,0.496-1.608-0.549-2.867L96.792,97.759z"/>
	<path d="M88.46,99.556c-0.729-1.296-2.176-2.444-3.23-2.572c-1.055-0.126-1.321,0.821-0.592,2.116l7.7,13.672
		c0.24,0.427,0.558,0.836,0.914,1.2c0.726,0.741,1.61,1.286,2.317,1.371c1.055,0.126,1.321-0.821,0.591-2.115L88.46,99.556z"/>
	<path d="M77.431,96.943c-0.325-1.174-1.594-2.58-2.835-3.14c-1.241-0.562-1.985-0.064-1.661,1.108l3.421,12.393
		c0.181,0.654,0.655,1.379,1.254,1.991c0.476,0.486,1.031,0.9,1.58,1.149c1.242,0.561,1.985,0.064,1.662-1.109L77.431,96.943z"/>
	<path d="M62.938,86.908c-1.277-0.929-2.41-0.943-2.53-0.032l-1.269,9.618c-0.094,0.713,0.46,1.78,1.317,2.655
		c0.238,0.244,0.5,0.474,0.777,0.675c1.278,0.928,2.41,0.942,2.531,0.031l1.269-9.617C65.153,89.327,64.214,87.838,62.938,86.908z"
		/>
	<path d="M48.565,75.96l-5.806,5.685c-0.549,0.537-0.056,1.934,1.104,3.117c1.159,1.184,2.544,1.707,3.094,1.17l5.806-5.685
		c0.55-0.538,0.056-1.935-1.103-3.118C50.501,75.945,49.115,75.422,48.565,75.96z"/>
	<path d="M42.122,65.646c-0.9-1.293-2.371-2.266-3.285-2.165l-9.643,1.063c-0.913,0.102-0.922,1.233-0.021,2.531
		c0.195,0.282,0.419,0.548,0.658,0.792c0.857,0.875,1.912,1.452,2.627,1.373l9.643-1.064C43.014,68.075,43.024,66.942,42.122,65.646
		z"/>
	<path d="M35.475,53.844c-0.534-1.253-1.913-2.552-3.079-2.901L20.08,47.259c-1.167-0.348-1.678,0.385-1.144,1.638
		c0.236,0.555,0.639,1.118,1.115,1.604c0.599,0.612,1.314,1.102,1.964,1.296l12.317,3.684C35.498,55.829,36.01,55.096,35.475,53.844
		z"/>
	<path d="M32.522,43.145c-0.103-1.057-1.224-2.528-2.503-3.284l-13.505-7.987c-1.279-0.757-2.231-0.512-2.127,0.546
		c0.069,0.71,0.596,1.605,1.321,2.347c0.356,0.363,0.76,0.689,1.181,0.938l13.505,7.987C31.673,44.448,32.626,44.203,32.522,43.145z
		"/>
	<path d="M17.697,22.903l13.064,11.329c1.237,1.072,2.516,1.346,2.855,0.61c0.34-0.735-0.386-2.201-1.624-3.274L18.927,20.24
		c-1.236-1.073-2.515-1.346-2.855-0.61c-0.303,0.656,0.242,1.894,1.242,2.914C17.435,22.668,17.563,22.787,17.697,22.903z"/>
	<path d="M35.39,28.242c0.114,0.136,0.231,0.267,0.352,0.39c1,1.021,2.225,1.593,2.888,1.304c0.743-0.324,0.497-1.608-0.55-2.867
		L27.031,13.766c-1.047-1.26-2.496-2.018-3.239-1.693c-0.742,0.324-0.497,1.607,0.549,2.867L35.39,28.242z"/>
	<path d="M43.723,26.444c0.24,0.427,0.557,0.838,0.913,1.201c0.726,0.741,1.609,1.287,2.317,1.372
		c1.056,0.125,1.321-0.822,0.592-2.117l-7.7-13.672c-0.729-1.295-2.176-2.445-3.231-2.571s-1.321,0.821-0.591,2.115L43.723,26.444z"
		/>
	<path d="M54.752,29.057c0.181,0.654,0.655,1.38,1.254,1.991c0.476,0.486,1.031,0.9,1.581,1.148
		c1.241,0.562,1.985,0.065,1.661-1.108l-3.421-12.393c-0.325-1.174-1.593-2.579-2.834-3.14c-1.241-0.562-1.985-0.065-1.662,1.108
		L54.752,29.057z"/>
	<path d="M69.245,39.092c1.278,0.929,2.41,0.943,2.53,0.033l1.269-9.618c0.12-0.911-0.819-2.402-2.095-3.331
		c-1.277-0.928-2.41-0.942-2.53-0.032l-1.269,9.618c-0.093,0.713,0.46,1.781,1.317,2.656C68.705,38.662,68.967,38.891,69.245,39.092
		z"/>
	<path d="M88.32,41.238c-1.159-1.184-2.544-1.707-3.094-1.169l-5.684,5.564l4.103-11.729c0.192,0.017,0.385,0.029,0.581,0.029
		c2.265,0,4.267-1.133,5.479-2.858l12.589,6.94c-0.168,0.586-0.263,1.203-0.263,1.842c0,3.693,3.004,6.697,6.697,6.697
		c3.693,0,6.697-3.004,6.697-6.697s-3.004-6.697-6.697-6.697c-1.977,0-3.751,0.866-4.978,2.232l-12.916-7.12
		c0.053-0.339,0.088-0.683,0.088-1.036c0-3.693-3.004-6.697-6.697-6.697c-3.692,0-6.697,3.004-6.697,6.697
		c0,2.437,1.312,4.567,3.263,5.738L72.33,57.168c-0.7-0.249-1.449-0.392-2.233-0.392c-1.264,0-2.443,0.358-3.453,0.97L54,47.472
		c0.292-0.751,0.458-1.564,0.458-2.417c0-3.693-3.004-6.697-6.697-6.697c-3.692,0-6.697,3.004-6.697,6.697s3.004,6.697,6.697,6.697
		c1.755,0,3.349-0.684,4.545-1.792l12.167,9.889c-0.677,1.046-1.074,2.289-1.074,3.625c0,3.693,3.004,6.697,6.697,6.697
		c3.693,0,6.697-3.004,6.697-6.697c0-1.797-0.715-3.428-1.871-4.632l4.293-12.273c0.079,0.658,0.545,1.523,1.308,2.303
		c1.159,1.185,2.545,1.707,3.095,1.169l5.806-5.684C89.973,43.818,89.479,42.422,88.32,41.238z M108.729,36.16
		c2.039,0,3.697,1.658,3.697,3.697s-1.659,3.697-3.697,3.697s-3.697-1.658-3.697-3.697S106.69,36.16,108.729,36.16z M84.226,23.539
		c2.039,0,3.697,1.658,3.697,3.697s-1.659,3.697-3.697,3.697s-3.697-1.658-3.697-3.697S82.188,23.539,84.226,23.539z M44.064,45.055
		c0-2.039,1.658-3.697,3.697-3.697s3.697,1.658,3.697,3.697s-1.659,3.697-3.697,3.697S44.064,47.094,44.064,45.055z M70.096,67.171
		c-2.039,0-3.697-1.658-3.697-3.697s1.658-3.697,3.697-3.697s3.697,1.658,3.697,3.697S72.135,67.171,70.096,67.171z"/>
</g>
</svg>
