<?xml version="1.0" encoding="utf-8"?>
<!-- Generator: Adobe Illustrator 16.0.0, SVG Export Plug-In . SVG Version: 6.00 Build 0)  -->
<!DOCTYPE svg PUBLIC "-//W3C//DTD SVG 1.1//EN" "http://www.w3.org/Graphics/SVG/1.1/DTD/svg11.dtd">
<svg version="1.1" id="Layer_2" xmlns="http://www.w3.org/2000/svg" xmlns:xlink="http://www.w3.org/1999/xlink" x="0px" y="0px"
	 width="126px" height="126px" viewBox="0 0 126 126" enable-background="new 0 0 126 126" xml:space="preserve">
<g>
	<path fill="#010101" d="M97.705,11.702H39.653c-1.624,0-2.944,1.321-2.944,2.945v13.515h-8.414c-1.623,0-2.944,1.321-2.944,2.944
		v73.195c0,1.624,1.321,2.945,2.944,2.945H85.24l4.94,5.42c0.945,1.036,2.292,1.631,3.695,1.631c1.249,0,2.444-0.464,3.368-1.306
		c2.036-1.857,2.183-5.025,0.326-7.063l-8.278-9.081v-6.062h8.413c1.623,0,2.944-1.32,2.944-2.944V14.647
		C100.649,13.023,99.328,11.702,97.705,11.702z M94.74,15.109c1.062,0,1.921,0.86,1.921,1.922c0,1.061-0.859,1.921-1.921,1.921
		s-1.921-0.86-1.921-1.921C92.819,15.97,93.679,15.109,94.74,15.109z M86.277,15.109c1.061,0,1.921,0.86,1.921,1.922
		c0,1.061-0.86,1.921-1.921,1.921c-1.062,0-1.921-0.86-1.921-1.921C84.356,15.97,85.216,15.109,86.277,15.109z M77.864,15.109
		c1.061,0,1.921,0.86,1.921,1.922c0,1.061-0.86,1.921-1.921,1.921c-1.062,0-1.922-0.86-1.922-1.921
		C75.942,15.97,76.803,15.109,77.864,15.109z M28.295,104.723c-0.231,0-0.42-0.188-0.42-0.421V39.1h58.472
		c0.146,0,0.286-0.025,0.421-0.06v35.507c-0.8-3.223-2.375-6.284-4.73-8.868c-3.896-4.275-9.459-6.727-15.26-6.727
		c-5.156,0-10.091,1.909-13.896,5.377c-0.071,0.065-0.131,0.138-0.201,0.203c-0.132-0.017-0.267-0.002-0.38,0.076l-3.021,2.106
		c-0.25,0.174-0.311,0.516-0.138,0.765c0.174,0.249,0.516,0.31,0.765,0.137l0.131-0.091c-5.58,7.748-5.188,18.627,1.495,25.958
		c3.891,4.268,9.443,6.715,15.234,6.715c3.454,0,6.803-0.847,9.8-2.466l6.372,6.99H28.295z M64.585,33.49
		c0-1.061,0.859-1.921,1.921-1.921c1.061,0,1.921,0.86,1.921,1.921c0,1.062-0.86,1.922-1.921,1.922
		C65.444,35.412,64.585,34.552,64.585,33.49z M72.998,33.49c0-1.061,0.859-1.921,1.921-1.921c1.061,0,1.921,0.86,1.921,1.921
		c0,1.062-0.86,1.922-1.921,1.922C73.857,35.412,72.998,34.552,72.998,33.49z M81.462,33.49c0-1.061,0.859-1.921,1.921-1.921
		c1.061,0,1.921,0.86,1.921,1.921c0,1.062-0.86,1.922-1.921,1.922C82.321,35.412,81.462,34.552,81.462,33.49z M95.752,107.515
		c0.93,1.02,0.856,2.601-0.163,3.531c-1.021,0.93-2.602,0.856-3.532-0.163l-15-16.456c-7.344,5.037-17.481,4.036-23.646-2.727
		c-6.736-7.391-6.205-18.886,1.186-25.623c7.392-6.737,18.886-6.205,25.623,1.186c6.164,6.763,6.227,16.95,0.532,23.796
		L95.752,107.515z M86.768,84.595v9.484l-2.812-3.084C85.277,89.007,86.21,86.838,86.768,84.595z M98.126,87.843
		c0,0.232-0.189,0.421-0.421,0.421h-8.413V31.106c0-1.623-1.321-2.944-2.945-2.944H39.232V22.64h58.473
		c0.146,0,0.286-0.024,0.421-0.06V87.843z"/>
	<path fill="#010101" d="M66.59,65.585c-3.532,0-6.912,1.309-9.519,3.684c-5.76,5.251-6.174,14.211-0.923,19.973
		c2.669,2.928,6.479,4.606,10.454,4.607h0.001c3.531,0,6.912-1.309,9.518-3.684c2.786-2.54,4.417-6.019,4.592-9.795
		c0.174-3.776-1.129-7.391-3.669-10.178C74.375,67.265,70.564,65.585,66.59,65.585z M57.849,73.643c0-0.456,0.373-0.828,0.827-0.828
		h3.867c0.456,0,0.827,0.372,0.827,0.828v7.73c0,0.457-0.371,0.828-0.827,0.828h-3.867c-0.454,0-0.827-0.371-0.827-0.828V73.643z
		 M74.773,88.687c-2.236,2.039-5.138,3.162-8.17,3.162h-0.001c-3.413-0.001-6.685-1.442-8.976-3.955
		c-3.703-4.063-4.118-9.973-1.412-14.454c-0.006,0.068-0.021,0.134-0.021,0.203v7.73c0,1.37,1.112,2.485,2.481,2.485h3.867
		c1.37,0,2.484-1.115,2.484-2.485v-7.73c0-1.37-1.114-2.484-2.484-2.484h-3.867c-0.285,0-0.556,0.059-0.811,0.147
		c0.182-0.188,0.357-0.38,0.554-0.559c2.236-2.039,5.139-3.162,8.171-3.162c3.413,0,6.685,1.441,8.976,3.955
		c2.181,2.392,3.299,5.495,3.149,8.737C78.564,83.521,77.165,86.507,74.773,88.687z"/>
	<path fill="#010101" d="M36.179,41.538h-2.564c-0.908,0-1.648,0.739-1.648,1.648v5.128c0,0.908,0.74,1.647,1.648,1.647h2.564
		c0.909,0,1.647-0.739,1.647-1.647v-5.128C37.826,42.277,37.088,41.538,36.179,41.538z M36.728,48.314
		c0,0.303-0.246,0.549-0.549,0.549h-2.564c-0.302,0-0.55-0.246-0.55-0.549v-5.128c0-0.303,0.248-0.549,0.55-0.549h2.564
		c0.303,0,0.549,0.246,0.549,0.549V48.314z"/>
	<path fill="#010101" d="M49.822,49.962h2.563c0.909,0,1.648-0.739,1.648-1.647v-5.128c0-0.909-0.739-1.648-1.648-1.648h-2.563
		c-0.909,0-1.647,0.739-1.647,1.648v5.128C48.175,49.223,48.913,49.962,49.822,49.962z M49.273,43.187
		c0-0.303,0.246-0.549,0.549-0.549h2.563c0.303,0,0.55,0.246,0.55,0.549v5.128c0,0.303-0.247,0.549-0.55,0.549h-2.563
		c-0.303,0-0.549-0.246-0.549-0.549V43.187z"/>
	<path fill="#010101" d="M40.85,55.639v5.128c0,0.909,0.738,1.648,1.646,1.648h2.564c0.909,0,1.648-0.739,1.648-1.648v-5.128
		c0-0.908-0.739-1.647-1.648-1.647h-2.564C41.588,53.991,40.85,54.73,40.85,55.639z M45.609,55.639v5.128
		c0,0.303-0.246,0.549-0.549,0.549h-2.564c-0.302,0-0.549-0.246-0.549-0.549v-5.128c0-0.303,0.247-0.549,0.549-0.549h2.564
		C45.363,55.09,45.609,55.336,45.609,55.639z"/>
	<path fill="#010101" d="M35.676,65.06h-2.564c-0.908,0-1.648,0.74-1.648,1.648v5.128c0,0.909,0.74,1.647,1.648,1.647h2.564
		c0.908,0,1.646-0.738,1.646-1.647v-5.128C37.322,65.8,36.584,65.06,35.676,65.06z M36.225,71.836c0,0.303-0.246,0.549-0.549,0.549
		h-2.564c-0.303,0-0.55-0.246-0.55-0.549v-5.128c0-0.303,0.247-0.549,0.55-0.549h2.564c0.303,0,0.549,0.246,0.549,0.549V71.836z"/>
	<path fill="#010101" d="M46.709,71.836v-5.128c0-0.908-0.739-1.648-1.648-1.648h-2.564c-0.908,0-1.646,0.74-1.646,1.648v5.128
		c0,0.909,0.738,1.647,1.646,1.647h2.564C45.97,73.483,46.709,72.745,46.709,71.836z M45.609,71.836
		c0,0.303-0.246,0.549-0.549,0.549h-2.564c-0.302,0-0.549-0.246-0.549-0.549v-5.128c0-0.303,0.247-0.549,0.549-0.549h2.564
		c0.303,0,0.549,0.246,0.549,0.549V71.836z"/>
	<path fill="#010101" d="M43.229,42.591v6.822c0,0.304,0.246,0.549,0.55,0.549c0.303,0,0.549-0.245,0.549-0.549v-7.875
		c0-0.205-0.114-0.393-0.295-0.487c-0.183-0.096-0.401-0.081-0.568,0.036l-3.022,2.105c-0.249,0.174-0.31,0.517-0.136,0.766
		c0.173,0.249,0.516,0.31,0.764,0.137L43.229,42.591z"/>
	<path fill="#010101" d="M35.904,62.69c0.304,0,0.55-0.246,0.55-0.55v-7.875c0-0.204-0.114-0.393-0.296-0.487s-0.4-0.08-0.568,0.037
		l-3.021,2.105c-0.249,0.173-0.31,0.517-0.137,0.765c0.174,0.248,0.516,0.31,0.765,0.137l2.159-1.504v6.822
		C35.355,62.444,35.6,62.69,35.904,62.69z"/>
	<path fill="#010101" d="M52.87,53.778c-0.182-0.095-0.401-0.08-0.569,0.037l-3.021,2.105c-0.25,0.173-0.311,0.517-0.138,0.765
		c0.174,0.248,0.516,0.31,0.765,0.137l2.158-1.504v6.822c0,0.304,0.246,0.55,0.55,0.55c0.303,0,0.549-0.246,0.549-0.55v-7.875
		C53.164,54.062,53.05,53.873,52.87,53.778z"/>
	<path fill="#010101" d="M74.315,70.838c-0.273-0.143-0.604-0.121-0.858,0.056l-4.553,3.174c-0.377,0.262-0.469,0.779-0.208,1.153
		c0.262,0.374,0.777,0.467,1.152,0.206l3.254-2.267v10.284c0,0.458,0.371,0.828,0.829,0.828c0.456,0,0.827-0.37,0.827-0.828V71.572
		C74.759,71.265,74.586,70.981,74.315,70.838z"/>
</g>
</svg>
