<?xml version="1.0" encoding="utf-8"?>
<!-- Generator: Adobe Illustrator 16.0.0, SVG Export Plug-In . SVG Version: 6.00 Build 0)  -->
<!DOCTYPE svg PUBLIC "-//W3C//DTD SVG 1.1//EN" "http://www.w3.org/Graphics/SVG/1.1/DTD/svg11.dtd">
<svg version="1.1" id="Layer_2" xmlns="http://www.w3.org/2000/svg" xmlns:xlink="http://www.w3.org/1999/xlink" x="0px" y="0px"
	 width="126px" height="126px" viewBox="0 0 126 126" enable-background="new 0 0 126 126" xml:space="preserve">
<g>
	<rect x="22.515" y="46.01" width="2.965" height="1.694"/>
	<rect x="26.433" y="46.01" width="35.794" height="1.694"/>
	<rect x="22.515" y="54.177" width="2.965" height="1.694"/>
	<rect x="26.433" y="54.177" width="35.794" height="1.694"/>
	<rect x="26.433" y="62.79" width="35.794" height="1.694"/>
	<rect x="22.515" y="62.79" width="2.965" height="1.694"/>
	<rect x="22.515" y="72.306" width="2.965" height="1.694"/>
	<rect x="26.433" y="72.306" width="35.794" height="1.694"/>
	<path d="M109.57,91.761c-0.422-0.547-8.055-10.289-19.115-15.149V14.684c0-1.635-1.33-2.965-2.965-2.965H29.035
		c-1.635,0-2.965,1.33-2.965,2.965v13.608h-8.473c-1.635,0-2.965,1.331-2.965,2.966v73.705c0,1.635,1.33,2.965,2.965,2.965h42
		c5.172,3.459,11.617,6.354,18.715,6.354c17.271,0,30.695-17.133,31.258-17.862l1.797-2.329L109.57,91.761z M84.506,15.149
		c1.068,0,1.934,0.866,1.934,1.935s-0.865,1.935-1.934,1.935s-1.936-0.866-1.936-1.935S83.438,15.149,84.506,15.149z M75.982,15.149
		c1.068,0,1.936,0.866,1.936,1.935s-0.867,1.935-1.936,1.935s-1.934-0.866-1.934-1.935S74.914,15.149,75.982,15.149z M67.512,15.149
		c1.068,0,1.934,0.866,1.934,1.935s-0.865,1.935-1.934,1.935c-1.07,0-1.936-0.866-1.936-1.935S66.441,15.149,67.512,15.149z
		 M28.611,22.732H87.49c0.148,0,0.289-0.025,0.424-0.061v52.941c-2.799-0.981-5.781-1.608-8.895-1.692V31.258
		c0-1.635-1.332-2.966-2.967-2.966H28.611V22.732z M75.002,33.658c0,1.068-0.865,1.935-1.934,1.935s-1.934-0.866-1.934-1.935
		s0.865-1.935,1.934-1.935S75.002,32.59,75.002,33.658z M66.48,33.658c0,1.068-0.867,1.935-1.934,1.935
		c-1.07,0-1.936-0.866-1.936-1.935s0.865-1.935,1.936-1.935C65.613,31.724,66.48,32.59,66.48,33.658z M58.008,33.658
		c0,1.068-0.865,1.935-1.934,1.935s-1.934-0.866-1.934-1.935s0.865-1.935,1.934-1.935S58.008,32.59,58.008,33.658z M17.598,105.387
		c-0.234,0-0.424-0.19-0.424-0.424V39.306h58.879c0.148,0,0.289-0.024,0.424-0.06v34.723C60.1,75.108,47.598,91.057,47.055,91.761
		l-1.797,2.329l1.797,2.329c0.275,0.358,3.658,4.67,9.068,8.968H17.598z M78.453,110.286c-15.596,0-28.238-16.379-28.238-16.379
		s12.643-16.379,28.238-16.379c15.598,0,28.24,16.379,28.24,16.379S94.051,110.286,78.453,110.286z"/>
	<path d="M78.453,85.373c-4.713,0-8.533,3.821-8.533,8.534s3.82,8.534,8.533,8.534c4.715,0,8.535-3.821,8.535-8.534
		S83.168,85.373,78.453,85.373z M78.453,93.334v-6.565c3.627,0,6.566,2.939,6.566,6.565H78.453z"/>
</g>
</svg>
