<?xml version="1.0" encoding="utf-8"?>
<!-- Generator: Adobe Illustrator 16.0.0, SVG Export Plug-In . SVG Version: 6.00 Build 0)  -->
<!DOCTYPE svg PUBLIC "-//W3C//DTD SVG 1.1//EN" "http://www.w3.org/Graphics/SVG/1.1/DTD/svg11.dtd">
<svg version="1.1" id="Layer_1" xmlns="http://www.w3.org/2000/svg" xmlns:xlink="http://www.w3.org/1999/xlink" x="0px" y="0px"
	 width="126px" height="126px" viewBox="0 0 126 126" enable-background="new 0 0 126 126" xml:space="preserve">
<g>
	<path d="M31.417,55.755h-9c-0.553,0-1,0.448-1,1V97.75c0,0.552,0.447,1,1,1h9c0.552,0,1-0.448,1-1V56.755
		C32.417,56.203,31.969,55.755,31.417,55.755z M30.417,96.75h-7V57.755h7V96.75z"/>
	<path d="M43.917,27.25h-9c-0.553,0-1,0.448-1,1v69.5c0,0.552,0.447,1,1,1h9c0.552,0,1-0.448,1-1v-69.5
		C44.917,27.698,44.469,27.25,43.917,27.25z"/>
	<path d="M60.75,73.255h-9c-0.552,0-1,0.448-1,1V97.75c0,0.552,0.448,1,1,1h9c0.553,0,1-0.448,1-1V74.255
		C61.75,73.703,61.303,73.255,60.75,73.255z M59.75,96.75h-7V75.255h7V96.75z"/>
	<path d="M73.25,54.75h-9c-0.552,0-1,0.448-1,1v42c0,0.552,0.448,1,1,1h9c0.553,0,1-0.448,1-1v-42
		C74.25,55.198,73.803,54.75,73.25,54.75z"/>
	<path d="M91.083,30.755h-9c-0.552,0-1,0.448-1,1V97.75c0,0.552,0.448,1,1,1h9c0.553,0,1-0.448,1-1V31.755
		C92.083,31.203,91.636,30.755,91.083,30.755z M90.083,96.75h-7V32.755h7V96.75z"/>
	<path d="M103.583,44.75h-9c-0.552,0-1,0.448-1,1v52c0,0.552,0.448,1,1,1h9c0.553,0,1-0.448,1-1v-52
		C104.583,45.198,104.136,44.75,103.583,44.75z"/>
</g>
</svg>
