<?xml version="1.0" encoding="utf-8"?>
<!-- Generator: Adobe Illustrator 16.0.0, SVG Export Plug-In . SVG Version: 6.00 Build 0)  -->
<!DOCTYPE svg PUBLIC "-//W3C//DTD SVG 1.1//EN" "http://www.w3.org/Graphics/SVG/1.1/DTD/svg11.dtd">
<svg version="1.1" id="Layer_2" xmlns="http://www.w3.org/2000/svg" xmlns:xlink="http://www.w3.org/1999/xlink" x="0px" y="0px"
	 width="126px" height="126px" viewBox="0 0 126 126" enable-background="new 0 0 126 126" xml:space="preserve">
<g>
	<path d="M111,74.953h-6.333V16.287H111c1.657,0,3-1.344,3-3c0-1.657-1.343-3-3-3h-9.333H63V7.494c0-0.816-0.662-1.479-1.479-1.479
		s-1.479,0.662-1.479,1.479v2.793H24.333H15c-1.657,0-3,1.343-3,3c0,1.656,1.343,3,3,3h6.333v58.666H15c-1.657,0-3,1.343-3,3
		c0,1.656,1.343,3,3,3h9.333H63.77c-0.092,0.055-0.181,0.112-0.265,0.178c-0.05,0.04-0.099,0.078-0.146,0.121
		c-0.1,0.092-0.19,0.193-0.274,0.3c-0.023,0.029-0.053,0.051-0.075,0.082l-16.363,22.863c-0.803,1.123-0.544,2.685,0.578,3.488
		c1.123,0.802,2.685,0.545,3.488-0.578l11.83-16.53v26.607c0,1.381,1.119,2.5,2.5,2.5s2.5-1.119,2.5-2.5V90.877l11.83,16.53
		c0.488,0.682,1.256,1.045,2.035,1.045c0.504,0,1.012-0.151,1.453-0.467c1.123-0.804,1.381-2.365,0.578-3.488L67.076,81.634
		c-0.022-0.031-0.052-0.053-0.075-0.082c-0.084-0.107-0.174-0.208-0.274-0.3c-0.047-0.043-0.096-0.081-0.146-0.121
		c-0.083-0.066-0.173-0.123-0.265-0.178h35.351H111c1.657,0,3-1.344,3-3C114,76.296,112.657,74.953,111,74.953z M100.833,74.953
		H25.167V16.287h75.667V74.953z"/>
	<path d="M32.001,45.713c1.149,0,2.136-0.676,2.606-1.648l11.243-0.896c0.513,0.825,1.42,1.38,2.46,1.38
		c0.388,0,0.757-0.079,1.095-0.218l8.932,8.112c-0.015,0.115-0.036,0.229-0.036,0.349c0,1.6,1.302,2.902,2.903,2.902
		c1.6,0,2.902-1.302,2.902-2.902c0-0.159-0.023-0.312-0.046-0.464l7.152-6.481c0.329,0.13,0.685,0.208,1.06,0.208
		c0.687,0,1.311-0.251,1.809-0.651l7.28,3.64c0.153,1.458,1.375,2.603,2.873,2.603c1.6,0,2.903-1.302,2.903-2.902
		c0-0.347-0.072-0.676-0.185-0.985l6.427-7.803c0.199,0.044,0.407,0.07,0.62,0.07c1.601,0,2.903-1.302,2.903-2.902
		s-1.302-2.902-2.903-2.902c-1.6,0-2.902,1.302-2.902,2.902c0,0.346,0.071,0.674,0.183,0.982l-6.426,7.805
		c-0.201-0.044-0.406-0.07-0.619-0.07c-0.672,0-1.284,0.24-1.776,0.624l-7.317-3.658c-0.174-1.437-1.386-2.558-2.868-2.558
		c-1.6,0-2.902,1.302-2.902,2.902c0,0.186,0.021,0.367,0.055,0.543l-7.09,6.425c-0.348-0.148-0.729-0.229-1.13-0.229
		c-0.435,0-0.845,0.103-1.216,0.276l-8.826-8.016c0.028-0.164,0.05-0.331,0.05-0.502c0-1.6-1.302-2.903-2.903-2.903
		c-1.141,0-2.123,0.669-2.596,1.631l-11.263,0.898c-0.514-0.815-1.417-1.364-2.451-1.364c-1.601,0-2.903,1.302-2.903,2.903
		C29.099,44.411,30.4,45.713,32.001,45.713z M93.999,35.619c0.832,0,1.505,0.673,1.505,1.504s-0.674,1.504-1.505,1.504
		c-0.831,0-1.504-0.673-1.504-1.504S93.168,35.619,93.999,35.619z M84.234,47.238c0.831,0,1.504,0.673,1.504,1.505
		c0,0.83-0.673,1.504-1.504,1.504s-1.505-0.674-1.505-1.504C82.729,47.911,83.403,47.238,84.234,47.238z M72.273,41.646
		c0.831,0,1.504,0.673,1.504,1.504c0,0.832-0.673,1.505-1.504,1.505c-0.831,0-1.504-0.673-1.504-1.505
		C70.769,42.319,71.442,41.646,72.273,41.646z M61.206,51.287c0.831,0,1.504,0.673,1.504,1.504s-0.673,1.504-1.504,1.504
		c-0.832,0-1.504-0.673-1.504-1.504S60.374,51.287,61.206,51.287z M48.311,40.141c0.831,0,1.505,0.674,1.505,1.505
		s-0.674,1.504-1.505,1.504c-0.831,0-1.504-0.673-1.504-1.504S47.48,40.141,48.311,40.141z M32.001,41.306
		c0.831,0,1.504,0.674,1.504,1.505c0,0.831-0.673,1.504-1.504,1.504c-0.832,0-1.505-0.674-1.505-1.504
		C30.496,41.98,31.17,41.306,32.001,41.306z"/>
</g>
</svg>
