<?xml version="1.0" encoding="utf-8"?>
<!-- Generator: Adobe Illustrator 16.0.0, SVG Export Plug-In . SVG Version: 6.00 Build 0)  -->
<!DOCTYPE svg PUBLIC "-//W3C//DTD SVG 1.1//EN" "http://www.w3.org/Graphics/SVG/1.1/DTD/svg11.dtd">
<svg version="1.1" id="Layer_2" xmlns="http://www.w3.org/2000/svg" xmlns:xlink="http://www.w3.org/1999/xlink" x="0px" y="0px"
	 width="126px" height="126px" viewBox="0 0 126 126" enable-background="new 0 0 126 126" xml:space="preserve">
<g>
	<path d="M75.656,75.063h0.017V60.95c2.303-0.19,4.445-1.124,6.162-2.677l10.744,10.745l0.585-0.585L82.428,57.696
		c1.698-1.795,2.692-4.086,2.847-6.547H99.44c0.379,2.643,2.646,4.677,5.395,4.677c3.014,0,5.457-2.442,5.457-5.457
		c0-3.014-2.443-5.456-5.457-5.456c-2.748,0-5.016,2.034-5.395,4.677H85.265c-0.193-2.344-1.156-4.523-2.76-6.255l0.056,0.057
		l10.878-10.878l-0.585-0.584L81.979,42.805c-1.739-1.633-3.938-2.612-6.306-2.807v-14.32h-0.017
		c2.651-0.372,4.694-2.644,4.694-5.397c0-3.014-2.443-5.457-5.457-5.457s-5.457,2.443-5.457,5.457c0,2.754,2.043,5.025,4.695,5.397
		h-0.018v14.31c-2.56,0.161-4.942,1.221-6.767,3.046c-1.774,1.774-2.83,4.077-3.034,6.557h-14.2v0.779v0.78h14.189
		c0.154,2.445,1.138,4.724,2.817,6.514L56.386,68.398c-0.775-0.662-1.739-1.04-2.77-1.04c-1.145,0-2.221,0.446-3.031,1.256
		c-1.671,1.672-1.671,4.392,0,6.063c0.811,0.809,1.887,1.255,3.031,1.255c1.146,0,2.223-0.446,3.032-1.256
		c0.811-0.81,1.257-1.886,1.257-3.031c0-0.979-0.344-1.897-0.946-2.653l10.751-10.75c1.772,1.619,4.008,2.567,6.404,2.718v14.103
		h0.018c-2.652,0.371-4.695,2.643-4.695,5.396c0,3.014,2.443,5.457,5.457,5.457s5.457-2.443,5.457-5.457
		C80.351,77.705,78.308,75.434,75.656,75.063z M84.474,49.59c-0.137-1.5-0.604-2.977-1.432-4.295
		C83.854,46.586,84.336,48.051,84.474,49.59z M57.125,71.646c0,0.937-0.364,1.818-1.027,2.48c-0.662,0.662-1.544,1.027-2.481,1.027
		c-0.937,0-1.817-0.364-2.479-1.026c-1.367-1.368-1.367-3.594,0-4.961c0.662-0.663,1.543-1.028,2.479-1.028
		c0.938,0,1.819,0.365,2.481,1.028C56.761,69.828,57.125,70.709,57.125,71.646z M70.655,54.607c-1.102-1.103-1.709-2.57-1.709-4.134
		s0.606-3.032,1.709-4.134c1.102-1.102,2.57-1.709,4.134-1.709s3.032,0.607,4.134,1.709c2.279,2.279,2.279,5.988,0,8.268
		c-1.103,1.103-2.57,1.71-4.134,1.71S71.757,55.71,70.655,54.607z M74.478,57.089c1.667,0.077,3.307-0.474,4.578-1.545
		C77.785,56.615,76.156,57.168,74.478,57.089z"/>
	<circle cx="44.657" cy="50.37" r="5.457"/>
	<path d="M96.17,33.38c1.146,0,2.222-0.445,3.031-1.255c1.672-1.672,1.672-4.393,0-6.063c-0.81-0.81-1.886-1.255-3.032-1.255
		c-1.145,0-2.221,0.445-3.031,1.255c-0.81,0.81-1.256,1.888-1.256,3.032c0,1.144,0.446,2.221,1.256,3.031
		C93.948,32.935,95.024,33.38,96.17,33.38z M93.689,26.613c0.662-0.663,1.543-1.027,2.479-1.027c0.938,0,1.819,0.364,2.481,1.027
		c1.367,1.367,1.367,3.593,0,4.961c-0.662,0.662-1.543,1.026-2.48,1.026c-0.937,0-1.818-0.364-2.48-1.026
		c-0.663-0.664-1.028-1.544-1.028-2.48C92.661,28.156,93.026,27.275,93.689,26.613z"/>
	<path d="M91.882,71.646c0,1.146,0.446,2.222,1.256,3.032c0.81,0.809,1.887,1.255,3.032,1.255s2.223-0.446,3.031-1.255
		c1.671-1.671,1.672-4.392,0-6.063c-0.809-0.81-1.886-1.255-3.031-1.255s-2.223,0.445-3.032,1.255S91.882,70.501,91.882,71.646z
		 M96.17,68.139c0.938,0,1.818,0.364,2.48,1.027c1.367,1.367,1.367,3.593,0,4.961c-0.662,0.662-1.543,1.026-2.48,1.026
		s-1.818-0.364-2.48-1.026c-0.663-0.663-1.028-1.544-1.028-2.481c0-0.937,0.365-1.817,1.028-2.479
		C94.352,68.503,95.232,68.139,96.17,68.139z"/>
	<path d="M50.585,26.062c-0.809,0.809-1.254,1.886-1.254,3.032s0.445,2.223,1.254,3.031c0.81,0.81,1.886,1.255,3.031,1.255
		c0.915,0,1.778-0.294,2.504-0.82l10.832,10.832l0.585-0.585L56.741,32.012c0.746-0.797,1.164-1.823,1.164-2.918
		c0-1.145-0.446-2.223-1.257-3.032c-0.809-0.81-1.886-1.255-3.031-1.255S51.395,25.252,50.585,26.062z M57.125,29.094
		c0,0.937-0.365,1.816-1.027,2.48c-0.662,0.662-1.543,1.026-2.481,1.026c-0.937,0-1.817-0.364-2.479-1.026
		c-0.662-0.661-1.025-1.543-1.025-2.48c0-0.938,0.363-1.819,1.025-2.48c0.662-0.663,1.543-1.027,2.48-1.027s1.818,0.364,2.48,1.027
		C56.761,27.275,57.125,28.156,57.125,29.094z"/>
	<path d="M99.918,58.927c-0.902-1.296-2.371-2.267-3.285-2.166l-9.643,1.063c-0.838,0.092-0.904,1.057-0.215,2.218l2.052,2.052
		c0.52,0.304,1.026,0.47,1.427,0.426l9.643-1.063C100.811,61.355,100.819,60.223,99.918,58.927z"/>
	<path d="M110.154,77.104c-0.533-1.251-1.912-2.551-3.078-2.9l-5.65-1.69c-0.199,1.259-0.773,2.469-1.736,3.439l9.322,2.788
		C110.178,79.091,110.689,78.357,110.154,77.104z"/>
	<path d="M112.203,90.297l-13.506-7.988c-1.279-0.756-2.23-0.512-2.129,0.547c0.07,0.709,0.598,1.604,1.322,2.346
		c0.355,0.363,0.76,0.689,1.182,0.938l13.506,7.988c1.277,0.757,2.23,0.511,2.127-0.546
		C114.602,92.523,113.482,91.053,112.203,90.297z"/>
	<path d="M111.395,103.097L98.329,91.769c-1.236-1.073-2.515-1.346-2.855-0.61c-0.304,0.656,0.243,1.894,1.241,2.914
		c0.121,0.124,0.25,0.244,0.383,0.36l13.064,11.327c1.238,1.073,2.516,1.346,2.855,0.611
		C113.358,105.635,112.631,104.17,111.395,103.097z"/>
	<path d="M93.7,97.759c-1.046-1.262-2.495-2.018-3.239-1.693c-0.742,0.325-0.496,1.608,0.551,2.867l11.048,13.302
		c0.112,0.137,0.231,0.267,0.352,0.391c0.999,1.021,2.226,1.592,2.888,1.303c0.742-0.324,0.496-1.608-0.55-2.867L93.7,97.759z"/>
	<path d="M85.368,99.556c-0.729-1.296-2.177-2.444-3.23-2.572c-1.056-0.126-1.321,0.821-0.592,2.116l7.7,13.672
		c0.239,0.427,0.557,0.836,0.913,1.2c0.726,0.741,1.61,1.286,2.317,1.371c1.055,0.126,1.32-0.821,0.592-2.115L85.368,99.556z"/>
	<path d="M74.34,96.943c-0.325-1.174-1.594-2.58-2.836-3.14c-1.24-0.562-1.984-0.064-1.66,1.108l3.422,12.393
		c0.18,0.654,0.654,1.379,1.254,1.991c0.476,0.486,1.03,0.9,1.58,1.149c1.241,0.561,1.984,0.064,1.661-1.109L74.34,96.943z"/>
	<path d="M59.846,86.908c-1.276-0.929-2.41-0.943-2.529-0.032l-1.27,9.618c-0.094,0.713,0.461,1.78,1.318,2.655
		c0.238,0.244,0.499,0.474,0.777,0.675c1.277,0.928,2.41,0.942,2.531,0.031l1.268-9.617C62.062,89.327,61.123,87.838,59.846,86.908z
		"/>
	<path d="M45.474,75.96l-5.806,5.685c-0.549,0.537-0.056,1.934,1.104,3.117c1.158,1.184,2.545,1.707,3.094,1.17l5.806-5.685
		c0.55-0.538,0.056-1.935-1.103-3.118C47.409,75.945,46.023,75.422,45.474,75.96z"/>
	<path d="M39.03,65.646c-0.899-1.293-2.37-2.266-3.284-2.165l-9.643,1.063c-0.914,0.102-0.923,1.233-0.021,2.531
		c0.195,0.282,0.418,0.548,0.657,0.792c0.856,0.875,1.912,1.452,2.628,1.373l9.643-1.064C39.922,68.075,39.932,66.942,39.03,65.646z
		"/>
	<path d="M32.383,53.844c-0.533-1.253-1.912-2.552-3.078-2.901l-12.316-3.684c-1.167-0.348-1.679,0.385-1.145,1.638
		c0.236,0.555,0.64,1.118,1.115,1.604c0.6,0.612,1.314,1.102,1.965,1.296L31.24,55.48C32.406,55.829,32.918,55.096,32.383,53.844z"
		/>
	<path d="M29.431,43.145c-0.103-1.057-1.224-2.528-2.503-3.284l-13.506-7.987c-1.279-0.757-2.23-0.512-2.127,0.546
		c0.068,0.71,0.596,1.605,1.32,2.347c0.356,0.363,0.761,0.689,1.182,0.938l13.506,7.987C28.581,44.448,29.534,44.203,29.431,43.145z
		"/>
	<path d="M14.605,22.903L27.67,34.232c1.236,1.072,2.516,1.346,2.855,0.61s-0.387-2.201-1.625-3.274L15.836,20.24
		c-1.236-1.073-2.516-1.346-2.855-0.61c-0.303,0.656,0.242,1.894,1.242,2.914C14.344,22.668,14.471,22.787,14.605,22.903z"/>
	<path d="M32.299,28.242c0.113,0.136,0.23,0.267,0.352,0.39c0.999,1.021,2.225,1.593,2.887,1.304
		c0.743-0.324,0.498-1.608-0.549-2.867L23.939,13.766c-1.047-1.26-2.496-2.018-3.238-1.693s-0.497,1.607,0.549,2.867L32.299,28.242z
		"/>
	<path d="M40.631,26.444c0.24,0.427,0.558,0.838,0.914,1.201c0.725,0.741,1.609,1.287,2.316,1.372
		c1.057,0.125,1.321-0.822,0.592-2.117l-7.699-13.672c-0.729-1.295-2.176-2.445-3.231-2.571s-1.321,0.821-0.591,2.115L40.631,26.444
		z"/>
	<path d="M50.06,23.261c0.811-0.371,1.695-0.572,2.613-0.572c0.406,0,0.806,0.04,1.196,0.114l-1.135-4.107
		c-0.324-1.174-1.594-2.579-2.834-3.14c-1.241-0.562-1.984-0.065-1.662,1.108L50.06,23.261z"/>
	<path d="M66.152,39.092c0.415,0.302,0.811,0.496,1.164,0.604c0.449-0.274,0.91-0.525,1.39-0.741l1.245-9.448
		c0.121-0.911-0.818-2.402-2.094-3.331c-1.277-0.928-2.41-0.942-2.531-0.032l-1.269,9.618c-0.093,0.713,0.46,1.781,1.317,2.656
		C65.613,38.662,65.875,38.891,66.152,39.092z"/>
</g>
</svg>
