<?xml version="1.0" encoding="utf-8"?>
<!-- Generator: Adobe Illustrator 16.0.0, SVG Export Plug-In . SVG Version: 6.00 Build 0)  -->
<!DOCTYPE svg PUBLIC "-//W3C//DTD SVG 1.1//EN" "http://www.w3.org/Graphics/SVG/1.1/DTD/svg11.dtd">
<svg version="1.1" id="Layer_1" xmlns="http://www.w3.org/2000/svg" xmlns:xlink="http://www.w3.org/1999/xlink" x="0px" y="0px"
	 width="126px" height="126px" viewBox="0 0 126 126" enable-background="new 0 0 126 126" xml:space="preserve">
<g>
	<path d="M63,25.603c-20.654,0-37.397,16.743-37.397,37.397S42.346,100.397,63,100.397S100.397,83.654,100.397,63
		c0-0.448-0.018-0.893-0.034-1.337H63V25.603z"/>
	<path d="M19.162,63c0-11.71,4.56-22.719,12.84-30.999c15.357-15.356,39.362-16.904,56.475-4.668h-3.143c-1.657,0-3,1.343-3,3
		s1.343,3,3,3h11.14c0.796,0,1.559-0.316,2.122-0.879c0.563-0.563,0.878-1.325,0.878-2.121l0-11.5c0-1.657-1.343-3-3-3
		c-1.657,0-3,1.344-3,3v3.482C73.574,7.391,45.141,8.962,27.052,27.052C17.45,36.653,12.162,49.421,12.162,63
		s5.288,26.346,14.89,35.947c7.557,7.558,17.106,12.471,27.615,14.208l1.142-6.906c-9.058-1.498-17.29-5.734-23.807-12.251
		C23.722,85.718,19.162,74.709,19.162,63z"/>
	<path d="M75.244,105.103c-4.628,1.341-9.425,1.905-14.256,1.689l-0.318,6.992c0.782,0.036,1.562,0.054,2.341,0.054
		c4.805,0,9.565-0.675,14.181-2.013c1.529-0.442,3.06-0.966,4.549-1.555l-2.574-6.51C77.882,104.269,76.563,104.721,75.244,105.103z
		"/>
	<path d="M88.205,98.877c-1.981,1.396-4.091,2.633-6.27,3.676l3.021,6.314c2.531-1.211,4.98-2.647,7.28-4.268
		c2.379-1.675,4.638-3.576,6.712-5.651l-4.95-4.949C92.207,95.79,90.258,97.432,88.205,98.877z"/>
	<path d="M100.222,86.18c-0.732,1.173-1.527,2.321-2.365,3.415c-0.457,0.598-0.931,1.185-1.422,1.763l5.334,4.533
		c0.569-0.67,1.123-1.356,1.647-2.041c0.972-1.27,1.896-2.604,2.745-3.965c0.961-1.54,1.849-3.15,2.638-4.785l-6.304-3.043
		C101.814,83.466,101.05,84.853,100.222,86.18z"/>
	<path d="M105.492,73.81c-0.501,1.978-1.146,3.936-1.917,5.82l6.479,2.65c0.894-2.187,1.642-4.458,2.223-6.752L105.492,73.81z"/>
</g>
</svg>
