<?xml version="1.0" encoding="utf-8"?>
<!-- Generator: Adobe Illustrator 16.0.0, SVG Export Plug-In . SVG Version: 6.00 Build 0)  -->
<!DOCTYPE svg PUBLIC "-//W3C//DTD SVG 1.1//EN" "http://www.w3.org/Graphics/SVG/1.1/DTD/svg11.dtd">
<svg version="1.1" id="Layer_2" xmlns="http://www.w3.org/2000/svg" xmlns:xlink="http://www.w3.org/1999/xlink" x="0px" y="0px"
	 width="126px" height="126px" viewBox="0 0 126 126" enable-background="new 0 0 126 126" xml:space="preserve">
<g>
	<rect x="36.026" y="38.48" width="3.289" height="1.88"/>
	<rect x="40.373" y="38.48" width="39.714" height="1.88"/>
	<rect x="36.026" y="47.541" width="3.289" height="1.88"/>
	<rect x="40.373" y="47.541" width="39.714" height="1.88"/>
	<rect x="40.373" y="57.097" width="39.714" height="1.88"/>
	<rect x="36.026" y="57.097" width="3.289" height="1.88"/>
	<rect x="36.026" y="67.655" width="3.289" height="1.88"/>
	<rect x="40.373" y="67.655" width="39.714" height="1.88"/>
	<path d="M95.427,18.822H30.57c-1.813,0-3.289,1.477-3.289,3.291v81.776c0,1.813,1.476,3.29,3.289,3.29h64.853
		c1.813,0,3.289-1.476,3.289-3.29v-8.644v-2.819v-24.37h0.007V22.112C98.719,20.299,97.241,18.822,95.427,18.822z M95.897,22.152
		l-0.005,0.014v81.723c0,0.259-0.21,0.47-0.47,0.47H30.57c-0.26,0-0.47-0.211-0.47-0.47V22.166h65.326
		c0.165,0,0.321-0.027,0.471-0.066V22.152z"/>
	<polygon points="93.197,35.291 93.197,25.786 83.692,25.786 	"/>
</g>
</svg>
