<?xml version="1.0" encoding="utf-8"?>
<!-- Generator: Adobe Illustrator 16.0.0, SVG Export Plug-In . SVG Version: 6.00 Build 0)  -->
<!DOCTYPE svg PUBLIC "-//W3C//DTD SVG 1.1//EN" "http://www.w3.org/Graphics/SVG/1.1/DTD/svg11.dtd">
<svg version="1.1" id="Layer_1" xmlns="http://www.w3.org/2000/svg" xmlns:xlink="http://www.w3.org/1999/xlink" x="0px" y="0px"
	 width="126px" height="126px" viewBox="0 0 126 126" enable-background="new 0 0 126 126" xml:space="preserve">
<g>
	<path d="M106.333,24.5H19.667c-3.584,0-6.5,2.916-6.5,6.5v64c0,3.584,2.916,6.5,6.5,6.5h86.666c3.584,0,6.5-2.916,6.5-6.5V31
		C112.833,27.416,109.917,24.5,106.333,24.5z M49,26.333h28c0.552,0,1,0.448,1,1s-0.448,1-1,1H49c-0.552,0-1-0.448-1-1
		S48.448,26.333,49,26.333z M105.833,94.5H20.167v-63h85.666V94.5z"/>
	<path d="M94.005,91.745c0.621,0.437,1.479,0.287,1.916-0.334s0.287-1.479-0.334-1.916L74.723,74.833
		c-0.621-0.437-1.479-0.287-1.916,0.334s-0.287,1.479,0.334,1.916L94.005,91.745z"/>
	<path d="M98.69,92.576c0.327,0.685,1.148,0.975,1.833,0.648s0.975-1.148,0.648-1.833L90.181,68.38
		c-0.327-0.685-1.148-0.975-1.833-0.648s-0.975,1.148-0.648,1.833L98.69,92.576z"/>
</g>
</svg>
