<?xml version="1.0" encoding="utf-8"?>
<!-- Generator: Adobe Illustrator 16.0.0, SVG Export Plug-In . SVG Version: 6.00 Build 0)  -->
<!DOCTYPE svg PUBLIC "-//W3C//DTD SVG 1.1//EN" "http://www.w3.org/Graphics/SVG/1.1/DTD/svg11.dtd">
<svg version="1.1" id="Layer_1" xmlns="http://www.w3.org/2000/svg" xmlns:xlink="http://www.w3.org/1999/xlink" x="0px" y="0px"
	 width="126px" height="126px" viewBox="0 0 126 126" enable-background="new 0 0 126 126" xml:space="preserve">
<g>
	<path d="M98.81,69.213c-1.479,0-2.88-0.714-3.75-1.91c-0.359-0.498-0.612-1.045-0.754-1.632c-0.289-1.205-0.083-2.487,0.563-3.528
		l2.998-4.895l-8.185-4.514c-0.005,0.052-0.016,0.103-0.016,0.156v45.334c0,0.828,0.672,1.5,1.5,1.5H111.5
		c0.829,0,1.5-0.672,1.5-1.5V65.938l-13.107,3.147C99.539,69.17,99.174,69.213,98.81,69.213z"/>
	<path d="M53.333,48.735v49.489c0,0.828,0.671,1.5,1.5,1.5h20.334c0.828,0,1.5-0.672,1.5-1.5V45.557l-11.499-6.342L53.333,48.735z"
		/>
	<path d="M32.152,60.78L19,53.926v44.299c0,0.828,0.671,1.5,1.5,1.5h20.334c0.828,0,1.5-0.672,1.5-1.5V57.583l-3.105,2.498
		C37.261,61.66,34.384,61.942,32.152,60.78z"/>
	<path d="M118.52,58.07l-4.1-17.074c-0.107-0.448-0.473-0.784-0.927-0.856c-0.454-0.071-0.905,0.138-1.146,0.528l-4.914,8.021
		L67.47,26.648c-1.067-0.588-2.381-0.472-3.329,0.289L36.333,49.307L11.836,36.539c-1.468-0.768-3.281-0.195-4.047,1.273
		c-0.766,1.47-0.196,3.281,1.273,4.047l26.236,13.674c1.057,0.55,2.338,0.423,3.267-0.322l27.769-22.337l37.962,20.936l-4.922,8.034
		c-0.162,0.261-0.206,0.57-0.137,0.857c0.035,0.143,0.097,0.279,0.186,0.402c0.27,0.371,0.737,0.543,1.184,0.436l17.074-4.1
		C118.291,59.293,118.667,58.68,118.52,58.07z"/>
</g>
</svg>
