<?xml version="1.0" encoding="utf-8"?>
<!-- Generator: Adobe Illustrator 16.0.0, SVG Export Plug-In . SVG Version: 6.00 Build 0)  -->
<!DOCTYPE svg PUBLIC "-//W3C//DTD SVG 1.1//EN" "http://www.w3.org/Graphics/SVG/1.1/DTD/svg11.dtd">
<svg version="1.1" id="Layer_1" xmlns="http://www.w3.org/2000/svg" xmlns:xlink="http://www.w3.org/1999/xlink" x="0px" y="0px"
	 width="126px" height="126px" viewBox="0 0 126 126" enable-background="new 0 0 126 126" xml:space="preserve">
<g>
	<path d="M22.574,95.563h9.344V32.506l8.158,7.321c-0.645,0.977-1.022,2.145-1.022,3.4c0,1.477,0.521,2.832,1.386,3.898v48.438
		h9.344V47.44c1.029-1.107,1.665-2.586,1.665-4.213c0-0.404-0.042-0.799-0.116-1.183l5.937-4.606
		c0.025,0.031,0.044,0.068,0.069,0.099v58.026h9.346V37.7c0.517-0.573,0.926-1.243,1.202-1.978l4.281,2.568
		c-0.124,0.487-0.196,0.994-0.196,1.52c0,1.651,0.653,3.151,1.711,4.263v51.49h9.346V43.645c0.293-0.37,0.526-0.783,0.73-1.214
		l6.194,5.891c-0.516,0.903-0.814,1.945-0.814,3.059c0,1.509,0.543,2.892,1.442,3.968v40.216h9.346V55.528
		c0.994-1.1,1.606-2.553,1.606-4.148c0-3.417-2.78-6.197-6.197-6.197c-1.582,0-3.022,0.601-4.119,1.58l-6.886-6.547
		c0.01-0.137,0.035-0.268,0.035-0.405c0-3.417-2.78-6.197-6.197-6.197c-2.175,0-4.089,1.129-5.195,2.829l-4.693-2.816
		c0-0.021,0.003-0.043,0.003-0.065c0-3.417-2.78-6.197-6.197-6.197s-6.197,2.78-6.197,6.197c0,0.746,0.136,1.461,0.379,2.124
		l-5.68,4.407c-1.079-1.829-3.063-3.062-5.336-3.062c-1.44,0-2.765,0.498-3.819,1.326l-8.807-7.903
		c0.409-0.825,0.656-1.744,0.656-2.726c0-3.417-2.78-6.197-6.197-6.197s-6.197,2.78-6.197,6.197c0,1.64,0.645,3.128,1.688,4.237
		V95.563z M95.211,47.213c2.314,0,4.197,1.883,4.197,4.197s-1.883,4.197-4.197,4.197s-4.197-1.883-4.197-4.197
		S92.896,47.213,95.211,47.213z M78.044,35.644c2.314,0,4.197,1.883,4.197,4.197s-1.883,4.197-4.197,4.197s-4.197-1.883-4.197-4.197
		S75.729,35.644,78.044,35.644z M61.961,29.394c2.314,0,4.197,1.883,4.197,4.197s-1.883,4.197-4.197,4.197s-4.197-1.883-4.197-4.197
		S59.646,29.394,61.961,29.394z M45.127,39.061c2.314,0,4.197,1.883,4.197,4.197s-1.883,4.197-4.197,4.197s-4.197-1.883-4.197-4.197
		S42.813,39.061,45.127,39.061z M26.96,23.561c2.314,0,4.197,1.883,4.197,4.197s-1.883,4.197-4.197,4.197s-4.197-1.883-4.197-4.197
		S24.646,23.561,26.96,23.561z"/>
	<rect x="15.666" y="97.536" width="94.668" height="6.934"/>
</g>
</svg>
