<?xml version="1.0" encoding="utf-8"?>
<!-- Generator: Adobe Illustrator 16.0.0, SVG Export Plug-In . SVG Version: 6.00 Build 0)  -->
<!DOCTYPE svg PUBLIC "-//W3C//DTD SVG 1.1//EN" "http://www.w3.org/Graphics/SVG/1.1/DTD/svg11.dtd">
<svg version="1.1" id="Layer_1" xmlns="http://www.w3.org/2000/svg" xmlns:xlink="http://www.w3.org/1999/xlink" x="0px" y="0px"
	 width="126px" height="126px" viewBox="0 0 126 126" enable-background="new 0 0 126 126" xml:space="preserve">
<g>
	<path d="M46.027,91.918c0.944-0.105,2.094-2.353,1.396-2.735l-5.323,0.59L46.027,91.918z"/>
	<path d="M47.892,84.911l-5.058,4.616l6.279-1.26C50.014,87.446,49.01,84.689,47.892,84.911z"/>
	<path d="M44.164,80.997l-0.798,7.756l5.412-5.914C48.918,81.46,45.13,79.947,44.164,80.997z"/>
	<path d="M43.058,78.589c-1.216-1.255-6.727,0.424-6.711,2.045l6.817,7.065L43.058,78.589z"/>
	<path d="M41.91,86.978l-9.119-7.487c-2.528-0.103-6.711,5.565-5.092,6.9L41.91,86.978z"/>
	<path d="M24.224,97.876l15.644-10.525l-17.065,0.845C20.02,90.068,21.189,98.021,24.224,97.876z"/>
	<path d="M20.818,103.172c-1.1,3.712,8.002,9.416,11.075,6.942l6.176-20.869L20.818,103.172z"/>
	<path d="M33.518,117.156c2.505,3.937,17.787,1.625,18.6-2.813L38.038,92.211L33.518,117.156z"/>
	<path d="M40.935,94.702L60.8,118.936c6.546,1.33,20.46-12.435,16.935-16.754L40.935,94.702z"/>
	<path d="M92.866,72.222L46.468,94.525l45.008,4.747C99.729,95.304,100.873,73.08,92.866,72.222z"/>
	<path d="M79.292,35.597L52.158,90.09l52.396-30.936C109.382,49.461,88.626,30.105,79.292,35.597z"/>
	<path d="M78.766,15.677c-4.465-11.796-45.595-11.798-50.063,0l25.104,66.317L78.766,15.677z"/>
</g>
</svg>
