<?xml version="1.0" encoding="utf-8"?>
<!-- Generator: Adobe Illustrator 16.0.0, SVG Export Plug-In . SVG Version: 6.00 Build 0)  -->
<!DOCTYPE svg PUBLIC "-//W3C//DTD SVG 1.1//EN" "http://www.w3.org/Graphics/SVG/1.1/DTD/svg11.dtd">
<svg version="1.1" id="Layer_1" xmlns="http://www.w3.org/2000/svg" xmlns:xlink="http://www.w3.org/1999/xlink" x="0px" y="0px"
	 width="126px" height="126px" viewBox="0 0 126 126" enable-background="new 0 0 126 126" xml:space="preserve">
<g>
	<path d="M104.99,107.5h-7.121v-4.834c0-0.275-0.224-0.5-0.5-0.5s-0.5,0.225-0.5,0.5v4.834h-9v-4.834c0-0.275-0.224-0.5-0.5-0.5
		s-0.5,0.225-0.5,0.5v4.834h-9v-4.834c0-0.275-0.224-0.5-0.5-0.5s-0.5,0.225-0.5,0.5v4.834h-9v-4.834c0-0.275-0.224-0.5-0.5-0.5
		s-0.5,0.225-0.5,0.5v4.834h-9v-4.834c0-0.275-0.224-0.5-0.5-0.5s-0.5,0.225-0.5,0.5v4.834h-9v-4.834c0-0.275-0.224-0.5-0.5-0.5
		s-0.5,0.225-0.5,0.5v4.834h-9v-4.834c0-0.275-0.224-0.5-0.5-0.5s-0.5,0.225-0.5,0.5v4.834h-9v-4.834c0-0.275-0.224-0.5-0.5-0.5
		s-0.5,0.225-0.5,0.5v4.834H8.703V96.167h4.016c0.276,0,0.5-0.224,0.5-0.5s-0.224-0.5-0.5-0.5H8.703v-9h4.016
		c0.276,0,0.5-0.224,0.5-0.5s-0.224-0.5-0.5-0.5H8.703v-9h4.016c0.276,0,0.5-0.224,0.5-0.5s-0.224-0.5-0.5-0.5H8.703v-9h4.016
		c0.276,0,0.5-0.224,0.5-0.5s-0.224-0.5-0.5-0.5H8.703v-9h4.016c0.276,0,0.5-0.224,0.5-0.5s-0.224-0.5-0.5-0.5H8.703v-9h4.016
		c0.276,0,0.5-0.224,0.5-0.5s-0.224-0.5-0.5-0.5H8.703v-9h4.016c0.276,0,0.5-0.224,0.5-0.5s-0.224-0.5-0.5-0.5H8.703v-9h4.016
		c0.276,0,0.5-0.224,0.5-0.5s-0.224-0.5-0.5-0.5H8.703V17c0-0.828-0.672-1.5-1.5-1.5s-1.5,0.672-1.5,1.5v92
		c0,0.828,0.672,1.5,1.5,1.5h97.787c0.828,0,1.5-0.672,1.5-1.5S105.818,107.5,104.99,107.5z"/>
	<rect x="21.347" y="29.103" width="10.25" height="67.795"/>
	<path d="M53.347,61.009c-1.342-1.754-2.43-3.641-3.262-5.611h-6.988v41.5h10.25V61.009z"/>
	<path d="M74.847,71.106c-0.332,0.013-0.663,0.035-0.996,0.035c-3.217,0-6.34-0.59-9.254-1.705v27.461h10.25V71.106z"/>
	<path d="M97.347,77.273l-9.863-10.007c-0.126,0.078-0.259,0.146-0.387,0.221v29.41h10.25V77.273z"/>
	<path d="M119.454,87.647L91.778,59.564c6.94-8.952,6.322-21.913-1.895-30.129c-8.907-8.907-23.4-8.907-32.309,0
		c-8.906,8.908-8.906,23.4,0,32.309c8.217,8.217,21.176,8.834,30.13,1.895l27.677,28.081c1.125,1.125,2.947,1.125,4.072,0.001
		C120.579,90.596,120.579,88.772,119.454,87.647z M85.812,57.671c-6.662,6.662-17.502,6.663-24.163,0
		c-6.662-6.661-6.661-17.501,0-24.162s17.501-6.663,24.163,0C92.474,40.17,92.474,51.01,85.812,57.671z"/>
	<path d="M74.562,43.146c-2.613-1.081-3.368-1.735-3.368-2.919c0-0.946,0.692-2.052,2.644-2.052c1.837,0,2.993,0.661,3.487,0.943
		c0.126,0.073,0.279,0.085,0.417,0.037c0.138-0.05,0.246-0.156,0.299-0.293l0.742-1.96c0.087-0.228-0.004-0.485-0.215-0.608
		c-1.063-0.619-2.247-0.974-3.608-1.077v-2.405c0-0.276-0.224-0.5-0.5-0.5h-1.838c-0.276,0-0.5,0.224-0.5,0.5v2.583
		c-2.735,0.604-4.478,2.603-4.478,5.188c0,3.119,2.504,4.533,5.204,5.595c2.159,0.873,3.039,1.762,3.039,3.064
		c0,1.439-1.218,2.406-3.028,2.406c-1.4,0-2.856-0.434-3.994-1.19c-0.127-0.086-0.287-0.106-0.434-0.059s-0.262,0.161-0.313,0.306
		l-0.712,1.985c-0.075,0.211-0.002,0.446,0.181,0.576c1.04,0.742,2.696,1.264,4.327,1.377v2.516c0,0.276,0.225,0.5,0.5,0.5h1.868
		c0.276,0,0.5-0.224,0.5-0.5v-2.671c2.82-0.631,4.686-2.778,4.686-5.454C79.467,46.307,77.999,44.546,74.562,43.146z"/>
</g>
</svg>
