<?xml version="1.0" encoding="utf-8"?>
<!-- Generator: Adobe Illustrator 16.0.0, SVG Export Plug-In . SVG Version: 6.00 Build 0)  -->
<!DOCTYPE svg PUBLIC "-//W3C//DTD SVG 1.1//EN" "http://www.w3.org/Graphics/SVG/1.1/DTD/svg11.dtd">
<svg version="1.1" id="Layer_1" xmlns="http://www.w3.org/2000/svg" xmlns:xlink="http://www.w3.org/1999/xlink" x="0px" y="0px"
	 width="126px" height="126px" viewBox="0 0 126 126" enable-background="new 0 0 126 126" xml:space="preserve">
<g>
	<polygon points="17.916,61.5 17.916,18.712 14.916,18.712 14.916,107.288 17.916,107.288 17.916,64.5 111.084,64.5 111.084,61.5 	
		"/>
	<rect x="20.083" y="23.096" width="5.667" height="2.475"/>
	<rect x="20.083" y="36.43" width="5.667" height="2.475"/>
	<rect x="20.083" y="49.824" width="5.667" height="2.475"/>
	<rect x="20.083" y="71.659" width="5.667" height="2.475"/>
	<rect x="20.083" y="84.993" width="5.667" height="2.475"/>
	<rect x="20.083" y="98.388" width="5.667" height="2.475"/>
	<polygon points="83.983,80.274 81.322,84.051 77.126,76.875 69.904,83.573 67.009,77.07 54.739,79.358 46.833,74.838 
		38.891,77.097 35.403,74.812 30.115,77.176 30.483,77.997 35.32,75.835 38.741,78.076 46.715,75.809 54.579,80.306 66.476,78.085 
		69.593,85.092 76.915,78.298 80.752,84.861 77.128,90.005 63.39,83.248 55.812,93.948 45.953,84.537 33.93,97.023 34.579,97.648 
		45.98,85.81 55.943,95.318 63.682,84.396 77.422,91.153 81.252,85.717 81.803,86.658 86.897,86.658 89.549,83.614 99.506,87.573 
		99.839,86.735 89.289,82.543 86.487,85.758 82.32,85.758 81.822,84.907 84.531,81.063 94.609,78.433 103.498,81.101 
		103.757,80.236 94.627,77.499 	"/>
	<polygon points="37.993,35.446 38.996,36.104 35.071,40.179 35.721,40.804 39.764,36.605 41.414,37.688 49.388,35.42 
		57.252,39.917 69.148,37.696 72.266,44.703 79.588,37.909 84.476,46.27 89.57,46.27 92.222,43.226 102.179,47.185 102.512,46.347 
		91.962,42.154 89.16,45.369 84.993,45.369 79.799,36.486 72.577,43.185 69.682,36.682 57.412,38.97 49.506,34.449 41.563,36.708 
		40.399,35.945 47.122,28.965 57.085,38.474 64.823,27.551 78.563,34.309 85.673,24.218 95.751,21.588 104.64,24.256 
		104.898,23.392 95.769,20.654 85.125,23.43 78.27,33.16 64.531,26.403 56.953,37.104 47.095,27.692 39.632,35.442 38.076,34.423 
		32.788,36.787 33.156,37.608 	"/>
</g>
</svg>
