<?xml version="1.0" encoding="utf-8"?>
<!-- Generator: Adobe Illustrator 16.0.0, SVG Export Plug-In . SVG Version: 6.00 Build 0)  -->
<!DOCTYPE svg PUBLIC "-//W3C//DTD SVG 1.1//EN" "http://www.w3.org/Graphics/SVG/1.1/DTD/svg11.dtd">
<svg version="1.1" id="Layer_1" xmlns="http://www.w3.org/2000/svg" xmlns:xlink="http://www.w3.org/1999/xlink" x="0px" y="0px"
	 width="126px" height="126px" viewBox="0 0 126 126" enable-background="new 0 0 126 126" xml:space="preserve">
<g>
	<polygon points="17.916,61.5 17.916,18.712 14.916,18.712 14.916,107.288 17.916,107.288 17.916,64.5 111.084,64.5 111.084,61.5 	
		"/>
	<rect x="20.083" y="23.096" width="5.667" height="2.475"/>
	<rect x="20.083" y="36.43" width="5.667" height="2.475"/>
	<rect x="20.083" y="49.824" width="5.667" height="2.475"/>
	<rect x="20.083" y="71.659" width="5.667" height="2.475"/>
	<rect x="20.083" y="84.993" width="5.667" height="2.475"/>
	<rect x="20.083" y="98.388" width="5.667" height="2.475"/>
	<rect x="64.25" y="36.667" width="4.667" height="21.334"/>
	<rect x="79.917" y="30.266" width="4.667" height="27.735"/>
	<rect x="96.25" y="22.001" width="4.667" height="36"/>
	<rect x="63.916" y="68.23" width="4.667" height="21.334"/>
	<rect x="48.249" y="68.23" width="4.667" height="27.735"/>
	<rect x="31.916" y="68.23" width="4.667" height="36"/>
</g>
</svg>
