<?xml version="1.0" encoding="utf-8"?>
<!-- Generator: Adobe Illustrator 16.0.0, SVG Export Plug-In . SVG Version: 6.00 Build 0)  -->
<!DOCTYPE svg PUBLIC "-//W3C//DTD SVG 1.1//EN" "http://www.w3.org/Graphics/SVG/1.1/DTD/svg11.dtd">
<svg version="1.1" id="Layer_1" xmlns="http://www.w3.org/2000/svg" xmlns:xlink="http://www.w3.org/1999/xlink" x="0px" y="0px"
	 width="126px" height="126px" viewBox="0 0 126 126" enable-background="new 0 0 126 126" xml:space="preserve">
<g>
	<rect x="53.128" y="26" width="18.745" height="18.745"/>
	<rect x="10.628" y="76.375" width="18.745" height="18.745"/>
	<rect x="52.628" y="76.375" width="18.745" height="18.745"/>
	<rect x="96.628" y="76.375" width="18.745" height="18.745"/>
	<path d="M108.716,65.272c0.743,0.65,1.063,1.731,0.98,3.305l1.998,0.105c0.117-2.227-0.427-3.835-1.661-4.915
		c-2.966-2.596-9.189-1.427-18.61,0.339c-7.848,1.472-17.52,3.252-28.497,3.471V49h-2v18.577
		c-10.978-0.219-20.648-1.999-28.496-3.471c-9.419-1.767-15.644-2.935-18.61-0.339c-1.234,1.08-1.778,2.688-1.661,4.915l1.998-0.105
		c-0.083-1.574,0.237-2.655,0.98-3.305c2.234-1.956,8.716-0.74,16.924,0.8c7.892,1.48,17.604,3.277,28.688,3.511v0.046
		c0.399,0,0.782-0.019,1.177-0.023c0.396,0.004,0.779,0.023,1.178,0.023v-0.046c11.084-0.234,20.797-2.031,28.688-3.511
		C99.999,64.532,106.482,63.316,108.716,65.272z"/>
</g>
</svg>
