<?xml version="1.0" encoding="utf-8"?>
<!-- Generator: Adobe Illustrator 16.0.0, SVG Export Plug-In . SVG Version: 6.00 Build 0)  -->
<!DOCTYPE svg PUBLIC "-//W3C//DTD SVG 1.1//EN" "http://www.w3.org/Graphics/SVG/1.1/DTD/svg11.dtd">
<svg version="1.1" id="Layer_1" xmlns="http://www.w3.org/2000/svg" xmlns:xlink="http://www.w3.org/1999/xlink" x="0px" y="0px"
	 width="126px" height="126px" viewBox="0 0 126 126" enable-background="new 0 0 126 126" xml:space="preserve">
<g>
	<path d="M23.455,79.987c-3.167,0-5.735,5.887-5.735,13.149c0,10.399,1.979,13.15,5.147,13.15c3.167,0,6.911-4.515,6.911-14.915
		C29.778,84.11,26.622,79.987,23.455,79.987z"/>
	<path d="M23.69,107.169h-0.324c-2.144,0-3.882,1.559-3.882,3.483v2.592c0,1.923,1.738,3.483,3.882,3.483h0.324
		c2.144,0,3.882-1.56,3.882-3.483v-2.592C27.572,108.728,25.834,107.169,23.69,107.169z"/>
	<path d="M41.395,65.827c-3.167,0-6.323,4.123-6.323,11.385c0,10.399,3.744,14.915,6.912,14.915c3.167,0,5.146-2.75,5.146-13.15
		C47.13,71.714,44.563,65.827,41.395,65.827z"/>
	<path d="M41.483,93.008H41.16c-2.144,0-3.882,1.559-3.882,3.482v2.593c0,1.923,1.738,3.483,3.882,3.483h0.323
		c2.144,0,3.882-1.56,3.882-3.483v-2.593C45.365,94.567,43.627,93.008,41.483,93.008z"/>
	<path d="M119.199,14.424c-0.75-3.077-5.503-5.166-12.559-3.445c-10.104,2.464-13.603,7.171-12.852,10.249
		c0.75,3.078,3.892,4.348,13.995,1.884C114.838,21.391,119.949,17.501,119.199,14.424z"/>
	<path d="M92.735,20.636c-0.508-2.083-2.434-3.401-4.303-2.946l-2.519,0.614c-1.869,0.456-2.972,2.514-2.464,4.597l0.077,0.314
		c0.508,2.083,2.435,3.402,4.304,2.946l2.519-0.614c1.869-0.456,2.972-2.514,2.463-4.597L92.735,20.636z"/>
	<path d="M56.147,32.26c3.14-0.417,4.74-3.404,3.37-13.713C58.561,11.348,55.24,5.85,52.1,6.267
		c-3.139,0.418-5.725,4.92-4.768,12.119C48.702,28.695,53.007,32.677,56.147,32.26z"/>
	<path d="M60.417,38.711l-0.342-2.57c-0.253-1.907-2.182-3.223-4.307-2.941l-0.321,0.043c-2.125,0.282-3.643,2.057-3.389,3.964
		l0.342,2.57c0.253,1.907,2.181,3.224,4.307,2.941l0.32-0.042C59.152,42.393,60.67,40.618,60.417,38.711z"/>
	<path d="M81.224,69.118c-0.578,0.192-1.196,0.338-1.837,0.434l0.294,1.979c0.756-0.112,1.488-0.286,2.176-0.515
		c3.489-1.163,5.74-2.898,6.692-5.157l-1.843-0.776C85.987,66.788,84.143,68.146,81.224,69.118z"/>
	<path d="M86.458,55.596c-1.369-2.269-3.233-4.758-6.042-8.072l-1.525,1.293c2.738,3.229,4.544,5.639,5.856,7.812L86.458,55.596z"/>
	<path d="M30.143,47.797c0,0-0.001,0-0.002,0c-2.132,0-3.772,0.88-4.873,2.616l1.688,1.071c0.73-1.151,1.743-1.687,3.185-1.687
		c0,0,0.001,0,0.002,0c1.217,0,2.71,0.378,4.563,1.156l0.774-1.844C33.377,48.226,31.631,47.797,30.143,47.797z"/>
	<path d="M60.233,66.104c3.337,1.818,6.439,3.208,9.222,4.13l0.629-1.898c-2.669-0.885-5.662-2.227-8.894-3.988L60.233,66.104z"/>
	<path d="M50.176,57.507c-1.266-0.759-2.527-1.538-3.774-2.307l-2.071-1.274l-1.043,1.706l2.064,1.27
		c1.253,0.773,2.523,1.557,3.755,2.294l0.352,0.234c0.68,0.454,1.421,0.948,2.214,1.469l1.099-1.672
		c-0.789-0.518-1.526-1.01-2.203-1.461L50.176,57.507z"/>
	<path d="M25.613,60.599l-1.998,0.089c0.068,1.524,0.215,3.228,0.438,5.062l1.985-0.241C25.822,63.724,25.679,62.072,25.613,60.599z
		"/>
	<path d="M75.798,36.521l-7.342-1.955l-1.954,7.342l1.933,0.515l1.189-4.469c0.169,0.233,0.359,0.496,0.563,0.779
		c1.146,1.587,2.716,3.761,3.592,4.79l1.522-1.297c-0.824-0.967-2.367-3.104-3.494-4.664c-0.011-0.015-0.02-0.027-0.03-0.042
		l3.505,0.933L75.798,36.521z"/>
</g>
</svg>
