<?xml version="1.0" encoding="utf-8"?>
<!-- Generator: Adobe Illustrator 16.0.0, SVG Export Plug-In . SVG Version: 6.00 Build 0)  -->
<!DOCTYPE svg PUBLIC "-//W3C//DTD SVG 1.1//EN" "http://www.w3.org/Graphics/SVG/1.1/DTD/svg11.dtd">
<svg version="1.1" id="Layer_2" xmlns="http://www.w3.org/2000/svg" xmlns:xlink="http://www.w3.org/1999/xlink" x="0px" y="0px"
	 width="143.667px" height="126px" viewBox="0 0 143.667 126" enable-background="new 0 0 143.667 126" xml:space="preserve">
<g>
	<rect x="34.197" y="46.07" fill="#010101" width="2.966" height="1.693"/>
	<rect x="38.116" y="46.07" fill="#010101" width="35.792" height="1.693"/>
	<rect x="34.197" y="54.236" fill="#010101" width="2.966" height="1.695"/>
	<rect x="38.116" y="54.236" fill="#010101" width="35.792" height="1.695"/>
	<rect x="38.116" y="62.852" fill="#010101" width="35.792" height="1.693"/>
	<rect x="34.197" y="62.852" fill="#010101" width="2.966" height="1.693"/>
	<rect x="34.197" y="72.365" fill="#010101" width="2.966" height="1.695"/>
	<path fill="#010101" d="M38.116,74.061h34.932c0.277-0.361,0.564-0.715,0.86-1.063v-0.633H38.116V74.061z"/>
	<path fill="#010101" d="M64.154,105.449H52.857H29.279c-0.234,0-0.424-0.191-0.424-0.424v-65.66h58.88
		c0.148,0,0.289-0.023,0.424-0.059v0.047l-0.004,0.012v24.83c0.835-0.203,1.684-0.369,2.547-0.494V31.318
		c0-1.635-1.332-2.967-2.967-2.967H40.293v-5.559h58.881c0.148,0,0.289-0.025,0.423-0.061v5.879v35.281
		c0.862,0.162,1.709,0.363,2.541,0.605V20.563v-5.818c0-1.635-1.329-2.965-2.964-2.965H40.717c-1.635,0-2.965,1.33-2.965,2.965
		v13.607h-8.473c-1.635,0-2.965,1.332-2.965,2.967v73.707c0,1.635,1.33,2.965,2.965,2.965H51.96h13.091h8.726
		c-0.678-0.809-1.308-1.658-1.889-2.541H64.154z M84.751,31.783c1.068,0,1.934,0.867,1.934,1.936s-0.865,1.934-1.934,1.934
		s-1.934-0.865-1.934-1.934S83.683,31.783,84.751,31.783z M76.229,31.783c1.066,0,1.935,0.867,1.935,1.936s-0.868,1.934-1.935,1.934
		c-1.07,0-1.936-0.865-1.936-1.934S75.158,31.783,76.229,31.783z M67.756,31.783c1.069,0,1.935,0.867,1.935,1.936
		s-0.865,1.934-1.935,1.934c-1.067,0-1.933-0.865-1.933-1.934S66.688,31.783,67.756,31.783z M96.188,15.209
		c1.069,0,1.935,0.867,1.935,1.936s-0.865,1.934-1.935,1.934c-1.067,0-1.934-0.865-1.934-1.934S95.12,15.209,96.188,15.209z
		 M87.665,15.209c1.067,0,1.936,0.867,1.936,1.936s-0.868,1.934-1.936,1.934c-1.068,0-1.934-0.865-1.934-1.934
		S86.597,15.209,87.665,15.209z M79.194,15.209c1.068,0,1.934,0.867,1.934,1.936s-0.865,1.934-1.934,1.934
		c-1.07,0-1.936-0.865-1.936-1.934S78.124,15.209,79.194,15.209z"/>
	<path fill="#010101" d="M93.7,66.92c-13.042,0-23.651,10.609-23.651,23.65s10.609,23.65,23.651,23.65
		c13.041,0,23.652-10.609,23.652-23.65S106.741,66.92,93.7,66.92z M110.238,86.461c3.505,1.186,5.526,2.686,5.526,4.109
		s-2.021,2.924-5.526,4.111c0.168-1.336,0.26-2.709,0.26-4.111S110.406,87.797,110.238,86.461z M109.974,84.699
		c-0.35-1.914-0.864-3.734-1.52-5.43c3.282,2.039,5.67,4.748,6.718,7.811C113.885,86.145,112.097,85.348,109.974,84.699z
		 M93.7,96.943c-2.154,0-4.195-0.096-6.111-0.264c-0.167-1.912-0.262-3.955-0.262-6.109s0.095-4.197,0.262-6.109
		c1.916-0.17,3.957-0.264,6.111-0.264c2.153,0,4.195,0.094,6.112,0.264c0.166,1.912,0.261,3.955,0.261,6.109
		s-0.095,4.197-0.261,6.109C97.896,96.848,95.854,96.943,93.7,96.943z M99.651,98.277c-0.309,2.715-0.771,5.129-1.334,7.168
		c-1.49,0.221-3.033,0.338-4.617,0.338s-3.128-0.117-4.617-0.338c-0.563-2.039-1.025-4.453-1.334-7.168
		c1.96,0.166,3.967,0.252,5.951,0.252S97.69,98.443,99.651,98.277z M85.995,84.617c-0.168,1.963-0.253,3.969-0.253,5.953
		s0.085,3.99,0.253,5.953c-2.718-0.311-5.132-0.773-7.17-1.336c-0.218-1.49-0.338-3.033-0.338-4.617s0.12-3.127,0.338-4.617
		C80.863,85.391,83.277,84.928,85.995,84.617z M79.133,84.229c0.46-2.227,1.157-4.307,2.047-6.176
		c1.874-0.893,3.953-1.592,6.178-2.049c-0.536,2.133-0.939,4.52-1.21,7.01C83.653,83.287,81.267,83.691,79.133,84.229z
		 M86.147,98.125c0.271,2.492,0.674,4.879,1.21,7.014c-2.225-0.459-4.304-1.158-6.178-2.051c-0.89-1.871-1.587-3.951-2.047-6.176
		C81.267,97.449,83.653,97.854,86.147,98.125z M87.749,82.863c0.309-2.717,0.771-5.131,1.334-7.168
		c1.489-0.221,3.033-0.338,4.617-0.338s3.127,0.117,4.617,0.338c0.563,2.037,1.025,4.451,1.334,7.168
		c-1.961-0.166-3.967-0.25-5.951-0.25S89.709,82.697,87.749,82.863z M100.043,76.004c2.225,0.457,4.305,1.156,6.177,2.049
		c0.89,1.869,1.588,3.949,2.049,6.176c-2.136-0.537-4.521-0.941-7.015-1.215C100.982,80.523,100.579,78.137,100.043,76.004z
		 M101.254,98.125c2.493-0.271,4.879-0.676,7.015-1.213c-0.461,2.225-1.159,4.305-2.049,6.176c-1.872,0.893-3.952,1.592-6.177,2.051
		C100.579,103.004,100.982,100.617,101.254,98.125z M101.407,96.523c0.165-1.963,0.25-3.969,0.25-5.953s-0.085-3.99-0.25-5.953
		c2.716,0.311,5.129,0.773,7.167,1.336c0.22,1.49,0.338,3.033,0.338,4.617s-0.118,3.127-0.338,4.617
		C106.536,95.75,104.123,96.213,101.407,96.523z M114.034,82.006c-1.692-2.02-3.962-3.766-6.647-5.121
		c-1.358-2.684-3.104-4.957-5.122-6.65C107.555,72.473,111.799,76.717,114.034,82.006z M105.002,75.818
		c-1.696-0.658-3.518-1.174-5.433-1.521c-0.646-2.125-1.442-3.912-2.379-5.199C100.253,70.146,102.961,72.533,105.002,75.818z
		 M93.7,68.506c1.423,0,2.924,2.023,4.111,5.523c-1.336-0.166-2.711-0.258-4.111-0.258s-2.774,0.092-4.11,0.258
		C90.776,70.529,92.276,68.506,93.7,68.506z M87.83,74.297c-1.914,0.348-3.735,0.863-5.432,1.521
		c2.04-3.285,4.749-5.672,7.812-6.721C89.274,70.385,88.477,72.172,87.83,74.297z M85.136,70.234
		c-2.019,1.693-3.764,3.967-5.121,6.65c-2.688,1.355-4.955,3.102-6.649,5.121C75.601,76.717,79.847,72.473,85.136,70.234z
		 M78.947,79.27c-0.657,1.695-1.172,3.516-1.521,5.43c-2.122,0.648-3.91,1.445-5.198,2.381
		C73.276,84.018,75.664,81.309,78.947,79.27z M77.162,86.461c-0.169,1.336-0.261,2.707-0.261,4.109s0.092,2.775,0.261,4.111
		c-3.505-1.188-5.526-2.688-5.526-4.111S73.657,87.646,77.162,86.461z M77.426,96.441c0.35,1.912,0.864,3.734,1.521,5.43
		c-3.283-2.039-5.671-4.748-6.72-7.809C73.516,94.998,75.304,95.793,77.426,96.441z M73.365,99.135
		c1.694,2.02,3.962,3.766,6.649,5.123c1.357,2.686,3.103,4.955,5.121,6.648C79.845,108.666,75.601,104.424,73.365,99.135z
		 M82.398,105.322c1.696,0.658,3.518,1.174,5.432,1.521c0.646,2.123,1.444,3.914,2.38,5.199
		C87.147,110.994,84.438,108.605,82.398,105.322z M93.7,112.635c-1.424,0-2.924-2.023-4.11-5.523c1.336,0.166,2.71,0.258,4.11,0.258
		s2.775-0.092,4.111-0.258C96.624,110.611,95.123,112.635,93.7,112.635z M99.569,106.844c1.915-0.348,3.736-0.863,5.433-1.521
		c-2.041,3.283-4.749,5.672-7.812,6.721C98.127,110.758,98.923,108.967,99.569,106.844z M102.265,110.906
		c2.019-1.693,3.764-3.963,5.122-6.648c2.686-1.357,4.955-3.104,6.647-5.123C111.799,104.424,107.556,108.666,102.265,110.906z
		 M108.454,101.871c0.655-1.695,1.17-3.518,1.52-5.43c2.123-0.648,3.911-1.443,5.198-2.379
		C114.124,97.123,111.736,99.832,108.454,101.871z"/>
</g>
</svg>
