<?xml version="1.0" encoding="utf-8"?>
<!-- Generator: Adobe Illustrator 16.0.0, SVG Export Plug-In . SVG Version: 6.00 Build 0)  -->
<!DOCTYPE svg PUBLIC "-//W3C//DTD SVG 1.1//EN" "http://www.w3.org/Graphics/SVG/1.1/DTD/svg11.dtd">
<svg version="1.1" id="Layer_2" xmlns="http://www.w3.org/2000/svg" xmlns:xlink="http://www.w3.org/1999/xlink" x="0px" y="0px"
	 width="126px" height="126px" viewBox="0 0 126 126" enable-background="new 0 0 126 126" xml:space="preserve">
<g>
	<path d="M95.752,63.904c-1.149-0.25-2.29,0.477-2.541,1.629l-2.029,9.28H50.471L35.992,28.067c-0.277-0.894-1.104-1.503-2.04-1.503
		h-8.967c-1.179,0-2.135,0.956-2.135,2.135c0,1.18,0.956,2.135,2.135,2.135h7.393l14.479,46.747
		c0.277,0.894,1.104,1.503,2.039,1.503h44.004c1.003,0,1.872-0.699,2.086-1.68l2.396-10.96
		C97.634,65.293,96.904,64.156,95.752,63.904z"/>
	<path d="M102.657,37.156c-0.406-0.489-1.008-0.771-1.643-0.771H50.605c-1.179,0-2.135,0.956-2.135,2.135
		c0,1.18,0.956,2.136,2.135,2.136H61.5c3.059-2.558,6.992-4.102,11.281-4.102s8.223,1.544,11.281,4.102h14.379l-3.042,16.226h-8.23
		c-0.232,1.491-0.635,2.926-1.218,4.27h11.22c1.027,0,1.909-0.732,2.098-1.741l3.843-20.495
		C103.229,38.29,103.062,37.645,102.657,37.156z"/>
	<path d="M53.025,83.78c-4.316,0-7.828,3.511-7.828,7.828c0,4.316,3.512,7.827,7.828,7.827c4.316,0,7.828-3.511,7.828-7.827
		C60.853,87.291,57.341,83.78,53.025,83.78z M53.025,95.166c-1.962,0-3.558-1.597-3.558-3.558c0-1.962,1.596-3.558,3.558-3.558
		s3.558,1.596,3.558,3.558C56.583,93.569,54.987,95.166,53.025,95.166z"/>
	<path d="M85.357,83.78c-4.316,0-7.828,3.511-7.828,7.828c0,4.316,3.512,7.827,7.828,7.827c4.316,0,7.828-3.511,7.828-7.827
		C93.185,87.291,89.673,83.78,85.357,83.78z M85.357,95.166c-1.962,0-3.558-1.597-3.558-3.558c0-1.962,1.596-3.558,3.558-3.558
		s3.558,1.596,3.558,3.558C88.916,93.569,87.319,95.166,85.357,95.166z"/>
	<path d="M86.302,52.337c0-7.51-6.109-13.618-13.619-13.618s-13.619,6.108-13.619,13.618s6.109,13.618,13.619,13.618
		S86.302,59.847,86.302,52.337z M68.246,48.909c-0.095,1.13-0.145,2.285-0.145,3.428s0.049,2.298,0.145,3.428
		c-1.564-0.179-2.954-0.445-4.127-0.769c-0.126-0.858-0.194-1.747-0.194-2.659s0.068-1.801,0.194-2.659
		C65.292,49.354,66.682,49.088,68.246,48.909z M64.294,48.686c0.266-1.282,0.667-2.479,1.181-3.557
		c1.077-0.515,2.275-0.916,3.556-1.181c-0.308,1.229-0.542,2.604-0.698,4.038C66.898,48.143,65.524,48.376,64.294,48.686z
		 M68.333,56.688c0.156,1.435,0.39,2.809,0.698,4.038c-1.281-0.265-2.479-0.666-3.556-1.181c-0.513-1.077-0.915-2.274-1.181-3.557
		C65.524,56.298,66.898,56.531,68.333,56.688z M69.014,52.337c0-1.24,0.054-2.417,0.15-3.519c1.103-0.097,2.279-0.151,3.519-0.151
		s2.417,0.055,3.519,0.151c0.096,1.102,0.15,2.278,0.15,3.519s-0.054,2.417-0.15,3.519c-1.103,0.097-2.279,0.151-3.519,0.151
		s-2.417-0.055-3.519-0.151C69.068,54.754,69.014,53.577,69.014,52.337z M69.257,47.899c0.178-1.564,0.444-2.955,0.768-4.128
		c0.858-0.127,1.747-0.195,2.659-0.195s1.801,0.068,2.659,0.195c0.324,1.173,0.59,2.563,0.768,4.128
		c-1.129-0.096-2.284-0.145-3.427-0.145S70.386,47.804,69.257,47.899z M77.122,55.765c0.095-1.13,0.145-2.285,0.145-3.428
		s-0.049-2.298-0.145-3.428c1.564,0.179,2.954,0.445,4.127,0.769c0.126,0.858,0.194,1.747,0.194,2.659s-0.068,1.801-0.194,2.659
		C80.075,55.319,78.686,55.586,77.122,55.765z M81.073,55.988c-0.266,1.282-0.667,2.479-1.181,3.557
		c-1.077,0.515-2.275,0.916-3.556,1.181c0.308-1.229,0.542-2.604,0.698-4.038C78.469,56.531,79.843,56.298,81.073,55.988z
		 M77.034,47.986c-0.156-1.435-0.39-2.809-0.698-4.038c1.281,0.265,2.479,0.666,3.556,1.181c0.513,1.077,0.915,2.274,1.181,3.557
		C79.843,48.376,78.469,48.143,77.034,47.986z M72.684,56.92c1.143,0,2.298-0.05,3.427-0.146c-0.178,1.564-0.444,2.954-0.768,4.128
		c-0.858,0.127-1.747,0.194-2.659,0.194s-1.801-0.067-2.659-0.194c-0.324-1.174-0.59-2.563-0.768-4.128
		C70.386,56.87,71.541,56.92,72.684,56.92z M76.063,61.707c1.103-0.199,2.151-0.496,3.128-0.875
		c-1.175,1.89-2.735,3.266-4.498,3.869C75.233,63.961,75.691,62.931,76.063,61.707z M77.616,64.047
		c1.162-0.975,2.167-2.282,2.949-3.829c1.546-0.781,2.854-1.786,3.828-2.949C83.105,60.314,80.662,62.758,77.616,64.047z
		 M81.179,58.844c0.378-0.976,0.675-2.024,0.876-3.126c1.222-0.374,2.252-0.832,2.993-1.37C84.444,56.11,83.069,57.67,81.179,58.844
		z M82.207,54.704c0.097-0.77,0.149-1.56,0.149-2.367s-0.053-1.598-0.149-2.367c2.017,0.684,3.182,1.548,3.182,2.367
		S84.224,54.021,82.207,54.704z M82.055,48.956c-0.201-1.102-0.498-2.15-0.876-3.126c1.891,1.174,3.266,2.733,3.869,4.497
		C84.307,49.788,83.276,49.33,82.055,48.956z M84.393,47.405c-0.974-1.163-2.282-2.168-3.828-2.949
		c-0.783-1.546-1.788-2.854-2.95-3.829C80.661,41.916,83.105,44.359,84.393,47.405z M79.191,43.842
		c-0.977-0.379-2.025-0.676-3.128-0.876c-0.373-1.223-0.831-2.253-1.37-2.993C76.457,40.576,78.017,41.951,79.191,43.842z
		 M72.684,39.632c0.819,0,1.683,1.165,2.367,3.181c-0.77-0.096-1.56-0.148-2.367-0.148s-1.597,0.053-2.367,0.148
		C71,40.797,71.864,39.632,72.684,39.632z M69.304,42.966c-1.103,0.2-2.151,0.497-3.128,0.876c1.175-1.891,2.734-3.266,4.498-3.869
		C70.134,40.713,69.676,41.743,69.304,42.966z M67.752,40.627c-1.162,0.975-2.167,2.283-2.95,3.829
		c-1.546,0.781-2.854,1.786-3.828,2.949C62.262,44.359,64.706,41.916,67.752,40.627z M64.188,45.83
		c-0.378,0.976-0.675,2.024-0.876,3.126c-1.222,0.374-2.252,0.832-2.993,1.371C60.923,48.563,62.298,47.004,64.188,45.83z
		 M63.16,49.97c-0.097,0.77-0.149,1.56-0.149,2.367s0.053,1.598,0.149,2.367c-2.017-0.684-3.182-1.548-3.182-2.367
		S61.143,50.653,63.16,49.97z M63.313,55.718c0.201,1.102,0.498,2.15,0.876,3.126c-1.891-1.174-3.266-2.733-3.869-4.496
		C61.06,54.886,62.091,55.344,63.313,55.718z M60.975,57.269c0.974,1.163,2.282,2.168,3.828,2.949
		c0.783,1.547,1.788,2.854,2.949,3.829C64.706,62.758,62.262,60.314,60.975,57.269z M66.176,60.832
		c0.977,0.379,2.025,0.676,3.128,0.875c0.373,1.224,0.831,2.254,1.37,2.994C68.911,64.098,67.351,62.722,66.176,60.832z
		 M70.317,61.861c0.77,0.096,1.56,0.148,2.367,0.148s1.597-0.053,2.367-0.148c-0.684,2.016-1.547,3.181-2.367,3.181
		S71,63.877,70.317,61.861z"/>
</g>
</svg>
