<?xml version="1.0" encoding="utf-8"?>
<!-- Generator: Adobe Illustrator 16.0.0, SVG Export Plug-In . SVG Version: 6.00 Build 0)  -->
<!DOCTYPE svg PUBLIC "-//W3C//DTD SVG 1.1//EN" "http://www.w3.org/Graphics/SVG/1.1/DTD/svg11.dtd">
<svg version="1.1" id="Layer_2" xmlns="http://www.w3.org/2000/svg" xmlns:xlink="http://www.w3.org/1999/xlink" x="0px" y="0px"
	 width="126px" height="126px" viewBox="0 0 126 126" enable-background="new 0 0 126 126" xml:space="preserve">
<g>
	<path fill="#1E1E1C" d="M99.452,31.616l-9.181,3.078l1.054,3.144c-0.401-0.54-0.814-1.07-1.244-1.587l-1.727-5.15l4.583-1.535
		l-3.08-9.183l-9.181,3.078l2.013,6.003c-4.972-3.456-10.87-5.73-17.421-6.32c-0.078-0.007-0.146,0.003-0.221,0.002
		c-0.005,0-0.01-0.002-0.016-0.002c-21.993-0.762-45.111,12.02-43.113,36.752c0.008,0.1,0.033,0.189,0.051,0.282
		c-0.029,0.256-0.029,0.524,0.033,0.815c1.206,5.644-0.645,10.605-5.278,14.065c-0.212,0.159-0.375,0.34-0.517,0.528
		c-0.468,0.309-0.838,0.781-1.037,1.352c-0.869,2.494-0.209,5.033,1.784,6.768c0.329,0.287,0.709,0.48,1.105,0.586
		c1.287,0.711,2.632,1.183,4.029,1.513c-0.287,1.549-0.146,3.116,0.6,4.59c-1.393,2.715-0.468,5.71,2.282,7.345
		c0.155,0.092,0.31,0.162,0.462,0.217c0.467,0.555,0.512,1.447,0.34,2.306c-0.053,0.263-0.06,0.524-0.04,0.78
		c-0.012,0.233-0.005,0.47,0.04,0.707c0.725,3.804,3.973,5.903,7.69,5.971c0.2,0.004,0.385-0.016,0.559-0.051
		c0.172,0.006,0.352-0.004,0.538-0.033c5.969-0.967,12.765-0.428,15.007,6.129c0.448,1.311,1.646,1.754,2.719,1.581
		c0.362,0.271,0.838,0.426,1.438,0.384c10.816-0.756,21.537-2.327,32.276-3.77c0.38-0.051,0.709-0.174,0.993-0.347
		c1.302-0.405,2.354-1.864,1.513-3.434c-7.176-13.38,7.371-27.974,10.132-40.827c0.061-0.277,0.061-0.535,0.037-0.78
		c1.131-8.181-0.38-16.244-3.907-23.172l7.765-2.602L99.452,31.616z M88.606,22.771l1.808,5.39l-5.39,1.806l-1.807-5.389
		L88.606,22.771z M87.875,53.676l-5.389,1.807l-1.807-5.39L75.29,51.9l-1.722-5.136l-5.389,1.807l-1.807-5.389l5.389-1.808
		l1.722,5.136l5.389-1.807l-1.722-5.135l5.389-1.808l-1.807-5.389l5.39-1.809l1.808,5.39l-5.391,1.808l1.808,5.39l-5.389,1.807
		l1.722,5.135l5.389-1.807l-1.665-4.967l5.39-1.807l1.807,5.389l-5.39,1.808L87.875,53.676z M94.619,41.2l-1.807-5.389l5.389-1.807
		l1.808,5.39L94.619,41.2z"/>
	<path fill="#1E1E1C" d="M92.499,23.46l3.079,9.183l9.182-3.078l-3.079-9.183L92.499,23.46z M96.847,29.967l-1.807-5.39l5.389-1.807
		l1.807,5.39L96.847,29.967z"/>
	<path fill="#1E1E1C" d="M95.165,18.331l-3.079-9.183l-9.182,3.078l3.079,9.183L95.165,18.331z M90.834,11.537l1.807,5.39
		l-5.389,1.807l-1.807-5.39L90.834,11.537z"/>
	<path fill="#1E1E1C" d="M111.956,16.497l-3.079-9.182l-9.182,3.078l3.079,9.182L111.956,16.497z M107.625,9.704l1.807,5.389
		l-5.389,1.807l-1.807-5.389L107.625,9.704z"/>
</g>
</svg>
