<?xml version="1.0" encoding="utf-8"?>
<!-- Generator: Adobe Illustrator 16.0.0, SVG Export Plug-In . SVG Version: 6.00 Build 0)  -->
<!DOCTYPE svg PUBLIC "-//W3C//DTD SVG 1.1//EN" "http://www.w3.org/Graphics/SVG/1.1/DTD/svg11.dtd">
<svg version="1.1" id="Layer_1" xmlns="http://www.w3.org/2000/svg" xmlns:xlink="http://www.w3.org/1999/xlink" x="0px" y="0px"
	 width="126px" height="126px" viewBox="0 0 126 126" enable-background="new 0 0 126 126" xml:space="preserve">
<g>
	<path d="M103.426,31.965c1.043-1.109,1.688-2.598,1.688-4.237c0-3.417-2.78-6.197-6.197-6.197s-6.197,2.78-6.197,6.197
		c0,0.981,0.247,1.9,0.656,2.726l-8.807,7.903c-1.055-0.828-2.379-1.326-3.819-1.326c-2.272,0-4.257,1.232-5.336,3.062l-5.68-4.407
		c0.243-0.663,0.379-1.378,0.379-2.124c0-3.417-2.78-6.197-6.197-6.197s-6.197,2.78-6.197,6.197c0,0.022,0.003,0.044,0.003,0.065
		l-4.693,2.816c-1.106-1.7-3.021-2.829-5.195-2.829c-3.417,0-6.197,2.78-6.197,6.197c0,0.138,0.025,0.269,0.035,0.405l-6.886,6.547
		c-1.097-0.979-2.537-1.58-4.119-1.58c-3.417,0-6.197,2.78-6.197,6.197c0,1.596,0.612,3.049,1.606,4.148v40.035h9.346V55.348
		c0.899-1.076,1.442-2.459,1.442-3.968c0-1.113-0.299-2.155-0.814-3.059l6.194-5.891c0.204,0.431,0.438,0.844,0.73,1.214v51.919
		h9.346v-51.49c1.058-1.111,1.711-2.611,1.711-4.263c0-0.525-0.072-1.032-0.196-1.52l4.281-2.568
		c0.276,0.734,0.686,1.404,1.202,1.978v57.863h9.346V37.537c0.025-0.03,0.044-0.067,0.069-0.099l5.937,4.606
		c-0.074,0.384-0.116,0.778-0.116,1.183c0,1.627,0.636,3.105,1.665,4.213v48.123h9.344V47.126c0.865-1.066,1.386-2.422,1.386-3.898
		c0-1.256-0.378-2.424-1.022-3.4l8.158-7.321v63.058h9.344V31.965z M34.986,51.41c0,2.314-1.883,4.197-4.197,4.197
		s-4.197-1.883-4.197-4.197s1.883-4.197,4.197-4.197S34.986,49.096,34.986,51.41z M52.153,39.841c0,2.314-1.883,4.197-4.197,4.197
		s-4.197-1.883-4.197-4.197s1.883-4.197,4.197-4.197S52.153,37.526,52.153,39.841z M68.236,33.591c0,2.314-1.883,4.197-4.197,4.197
		s-4.197-1.883-4.197-4.197s1.883-4.197,4.197-4.197S68.236,31.276,68.236,33.591z M85.07,43.258c0,2.314-1.883,4.197-4.197,4.197
		s-4.197-1.883-4.197-4.197s1.883-4.197,4.197-4.197S85.07,40.943,85.07,43.258z M103.237,27.758c0,2.314-1.883,4.197-4.197,4.197
		s-4.197-1.883-4.197-4.197s1.883-4.197,4.197-4.197S103.237,25.443,103.237,27.758z"/>
	<rect x="15.666" y="97.536" width="94.668" height="6.934"/>
</g>
</svg>
