<?xml version="1.0" encoding="utf-8"?>
<!-- Generator: Adobe Illustrator 16.0.0, SVG Export Plug-In . SVG Version: 6.00 Build 0)  -->
<!DOCTYPE svg PUBLIC "-//W3C//DTD SVG 1.1//EN" "http://www.w3.org/Graphics/SVG/1.1/DTD/svg11.dtd">
<svg version="1.1" id="Layer_1" xmlns="http://www.w3.org/2000/svg" xmlns:xlink="http://www.w3.org/1999/xlink" x="0px" y="0px"
	 width="126px" height="126px" viewBox="0 0 126 126" enable-background="new 0 0 126 126" xml:space="preserve">
<g>
	<path d="M110,16.016c0-0.828-0.671-1.5-1.5-1.5H88.166c-0.828,0-1.5,0.672-1.5,1.5V30.65v21.541L110,24.836V16.016z"/>
	<path d="M86.666,95.35v14.635c0,0.828,0.672,1.5,1.5,1.5H108.5c0.829,0,1.5-0.672,1.5-1.5V82.303v-4.605V40.245L86.666,67.602
		V95.35z"/>
	<path d="M50.333,90.046v9.458v10.48c0,0.828,0.671,1.5,1.5,1.5h20.334c0.828,0,1.5-0.672,1.5-1.5v-7.301V73.266l-10.061-2.94
		L50.333,90.046z"/>
	<path d="M62.903,59.701l10.764,3.146V46.816v-7.301c0-0.828-0.672-1.5-1.5-1.5H51.833c-0.829,0-1.5,0.672-1.5,1.5v10.48v22.141
		l7.019-10.429C58.568,59.9,60.813,59.09,62.903,59.701z"/>
	<path d="M31.138,71.15l8.196,7.904v-9.711V57.016c0-0.828-0.672-1.5-1.5-1.5H17.5c-0.829,0-1.5,0.672-1.5,1.5v15.67v5.18
		l8.493-6.979C26.453,69.274,29.311,69.389,31.138,71.15z"/>
	<path d="M16,90.809v3.506v15.67c0,0.828,0.671,1.5,1.5,1.5h20.334c0.828,0,1.5-0.672,1.5-1.5V92.947L27.401,81.439L16,90.809z"/>
	<path d="M118.873,22.836c-1.049-0.895-2.628-0.771-3.524,0.28l-37.45,43.904l-15.446-4.516c-1.046-0.309-2.168,0.1-2.775,1.004
		L43.84,87.036L29.652,73.354c-0.913-0.881-2.341-0.938-3.323-0.132L7.163,88.973c-1.066,0.877-1.221,2.452-0.344,3.519
		c0.495,0.602,1.211,0.913,1.933,0.913c0.559,0,1.121-0.187,1.586-0.568l17.447-14.337l14.73,14.205
		c0.532,0.513,1.259,0.76,1.999,0.687c0.735-0.078,1.397-0.478,1.81-1.091l16.479-24.483l15.245,4.457
		c0.944,0.272,1.964-0.027,2.604-0.777l38.5-45.136C120.048,25.311,119.923,23.732,118.873,22.836z"/>
</g>
</svg>
