<?xml version="1.0" encoding="utf-8"?>
<!-- Generator: Adobe Illustrator 16.0.0, SVG Export Plug-In . SVG Version: 6.00 Build 0)  -->
<!DOCTYPE svg PUBLIC "-//W3C//DTD SVG 1.1//EN" "http://www.w3.org/Graphics/SVG/1.1/DTD/svg11.dtd">
<svg version="1.1" id="Layer_1" xmlns="http://www.w3.org/2000/svg" xmlns:xlink="http://www.w3.org/1999/xlink" x="0px" y="0px"
	 width="126px" height="126px" viewBox="0 0 126 126" enable-background="new 0 0 126 126" xml:space="preserve">
<g>
	<path d="M98.08,24.812h9.346v74.183H98.08V24.812z M79.469,27.497l-1.293,0.402c-1.62,0.512-3.524-0.201-4.179-1.558
		c-0.315-0.657-0.329-1.383-0.041-2.047c0.334-0.768,1.044-1.369,1.946-1.65l14.59-4.545l1.777,13.001
		c0.099,0.662-0.087,1.338-0.526,1.898c-0.537,0.688-1.4,1.134-2.368,1.226c-0.116,0.012-0.246,0.018-0.371,0.018
		c-1.651,0-3.053-1.052-3.261-2.444l-0.224-1.967C68.656,53.18,29.824,78.205,28.139,79.282c-0.572,0.367-1.256,0.561-1.98,0.561
		c-0.976,0-1.894-0.36-2.517-0.991c-0.573-0.577-0.841-1.313-0.758-2.07c0.087-0.785,0.558-1.506,1.294-1.974
		C24.573,74.555,63.034,49.692,79.469,27.497z M90.527,41.289v57.705h-9.345V41.289H90.527z M74.184,58.436v40.559h-9.346V58.436
		H74.184z M57.284,76.25v22.744h-9.345V76.25H57.284z M39.417,85.159v13.835h-9.344V85.159H39.417z M110.333,107.9H15.667v-6.934
		h94.667V107.9z"/>
</g>
</svg>
