<?xml version="1.0" encoding="utf-8"?>
<!-- Generator: Adobe Illustrator 16.0.0, SVG Export Plug-In . SVG Version: 6.00 Build 0)  -->
<!DOCTYPE svg PUBLIC "-//W3C//DTD SVG 1.1//EN" "http://www.w3.org/Graphics/SVG/1.1/DTD/svg11.dtd">
<svg version="1.1" id="Layer_2" xmlns="http://www.w3.org/2000/svg" xmlns:xlink="http://www.w3.org/1999/xlink" x="0px" y="0px"
	 width="126px" height="126px" viewBox="0 0 126 126" enable-background="new 0 0 126 126" xml:space="preserve">
<g>
	<path d="M20.333,83.181h85.334c2.206,0,4-1.795,4-4V29.712c0-2.207-1.794-4-4-4H20.333c-2.206,0-4,1.793-4,4v49.469
		C16.333,81.386,18.127,83.181,20.333,83.181z M20.333,29.712h85.334l0.003,49.469H20.333V29.712z"/>
	<path d="M114.016,95.22c-0.122,0.053-0.256,0.084-0.397,0.084c-0.007-0.001-0.013-0.001-0.02,0H12.402
		c-0.135,0-0.262-0.036-0.382-0.086h0c-0.395,0-0.752,0.23-0.918,0.588c-0.184,0.4-0.151,0.844,0.089,1.219
		c0.422,0.658,1.128,1.762,17.189,2.563c9.076,0.453,21.174,0.701,34.063,0.701c11.573,0,49.538-0.227,52.212-3.148
		c0.261-0.285,0.387-0.639,0.355-1C114.966,95.622,114.535,95.225,114.016,95.22z M70.15,98.353H55.85c-0.331,0-0.6-0.269-0.6-0.6
		s0.269-0.6,0.6-0.6H70.15c0.331,0,0.6,0.269,0.6,0.6S70.481,98.353,70.15,98.353z"/>
	<path d="M12.021,94.218h101.985c0.003,0,0.006,0.002,0.01,0.002c0.354-0.153,0.603-0.505,0.603-0.916
		c0-0.286-0.121-0.545-0.313-0.727l-6.151-8.366c-0.188-0.256-0.488-0.407-0.806-0.407H18.932c-0.311,0-0.604,0.145-0.793,0.391
		l-6.529,8.5c-0.232,0.302-0.272,0.71-0.104,1.052C11.614,93.966,11.801,94.126,12.021,94.218z M19.424,85.804h87.418l4.779,6.5
		h-97.19L19.424,85.804z"/>
	<path d="M73.41,49.445c0.179-0.825,0.278-1.679,0.278-2.556c0-6.646-5.407-12.054-12.054-12.054s-12.054,5.407-12.054,12.054
		c0,0.868,0.098,1.714,0.272,2.53c-5.247,1.304-9.153,6.042-9.153,11.687c0,6.646,5.407,12.054,12.054,12.054
		c3.489,0,6.627-1.499,8.83-3.876c2.203,2.377,5.341,3.876,8.83,3.876c6.646,0,12.054-5.407,12.054-12.054
		C82.467,55.496,78.609,50.782,73.41,49.445z M61.634,35.835c6.096,0,11.054,4.958,11.054,11.054c0,0.806-0.092,1.589-0.256,2.346
		c-0.658-0.111-1.329-0.183-2.019-0.183c-3.489,0-6.627,1.499-8.83,3.877c-2.203-2.378-5.341-3.877-8.83-3.877
		c-0.655,0-1.293,0.067-1.92,0.168c-0.162-0.752-0.253-1.531-0.253-2.331C50.581,40.793,55.54,35.835,61.634,35.835z M61.583,54.485
		c0.746,0.993,1.338,2.107,1.719,3.318c-0.546,0.083-1.1,0.14-1.668,0.14c-0.602,0-1.188-0.062-1.764-0.154
		C60.25,56.583,60.84,55.473,61.583,54.485z M58.888,57.583c-3.702-0.952-6.665-3.767-7.803-7.392c0.546-0.083,1.1-0.14,1.668-0.14
		c3.241,0,6.152,1.411,8.176,3.641C60.029,54.843,59.326,56.154,58.888,57.583z M62.238,53.693c2.023-2.229,4.935-3.641,8.176-3.641
		c0.602,0,1.188,0.062,1.765,0.154c-1.151,3.649-4.151,6.476-7.893,7.401C63.848,56.169,63.144,54.849,62.238,53.693z M52.753,72.16
		c-6.096,0-11.054-4.958-11.054-11.054c0-5.18,3.586-9.526,8.402-10.719c1.217,4.002,4.465,7.116,8.537,8.163
		c-0.18,0.825-0.279,1.679-0.279,2.556c0,2.796,0.966,5.366,2.569,7.413C58.906,70.749,55.995,72.16,52.753,72.16z M59.36,61.106
		c0-0.806,0.092-1.589,0.257-2.347c0.657,0.112,1.329,0.184,2.018,0.184c0.655,0,1.293-0.067,1.92-0.168
		c0.162,0.752,0.253,1.531,0.253,2.331c0,2.485-0.834,4.773-2.224,6.621C60.194,65.879,59.36,63.591,59.36,61.106z M70.414,72.16
		c-3.241,0-6.152-1.411-8.176-3.641c1.604-2.047,2.569-4.617,2.569-7.413c0-0.868-0.098-1.714-0.272-2.531
		c4.108-1.021,7.394-4.142,8.626-8.163c4.768,1.227,8.307,5.549,8.307,10.694C81.467,67.202,76.509,72.16,70.414,72.16z"/>
	<polygon points="38.125,48.563 29.188,48.563 42.563,53 	"/>
	<rect x="22.875" y="41.313" width="13.813" height="0.938"/>
	<rect x="22.875" y="43.188" width="1.313" height="0.938"/>
	<rect x="24.938" y="43.188" width="1.313" height="0.938"/>
	<rect x="27.125" y="43.188" width="1.313" height="0.938"/>
	<rect x="29.188" y="43.188" width="1.313" height="0.938"/>
	<rect x="22.875" y="45.031" width="1.684" height="0.938"/>
	<rect x="25.521" y="45.031" width="1.684" height="0.938"/>
	<rect x="28.327" y="45.031" width="1.684" height="0.938"/>
	<rect x="30.973" y="45.031" width="1.684" height="0.938"/>
	<path d="M80.424,44.625h8.381c0.23,1.07,1.182,1.875,2.32,1.875c1.31,0,2.375-1.065,2.375-2.375s-1.065-2.375-2.375-2.375
		c-1.138,0-2.089,0.805-2.32,1.875H80.01l-4.584,4.584l0.707,0.707L80.424,44.625z M91.125,42.75c0.758,0,1.375,0.617,1.375,1.375
		S91.883,45.5,91.125,45.5s-1.375-0.617-1.375-1.375S90.367,42.75,91.125,42.75z"/>
	<path d="M97.706,53c-0.959,0-1.762,0.679-1.957,1.582H88.33l-3.867,3.867l0.596,0.597l3.62-3.62h7.069
		c0.195,0.902,0.998,1.582,1.957,1.582c1.105,0,2.003-0.898,2.003-2.003C99.709,53.899,98.811,53,97.706,53z M97.706,56.163
		c-0.64,0-1.16-0.52-1.16-1.16s0.52-1.16,1.16-1.16s1.16,0.52,1.16,1.16S98.345,56.163,97.706,56.163z"/>
	<rect x="89.581" y="70.875" width="1.625" height="6.125"/>
	<rect x="92.979" y="68.75" width="1.625" height="8.25"/>
	<rect x="96.392" y="66.25" width="1.625" height="10.75"/>
	<rect x="99.79" y="63.438" width="1.625" height="13.563"/>
</g>
</svg>
