<?xml version="1.0" encoding="utf-8"?>
<!-- Generator: Adobe Illustrator 16.0.0, SVG Export Plug-In . SVG Version: 6.00 Build 0)  -->
<!DOCTYPE svg PUBLIC "-//W3C//DTD SVG 1.1//EN" "http://www.w3.org/Graphics/SVG/1.1/DTD/svg11.dtd">
<svg version="1.1" id="Layer_2" xmlns="http://www.w3.org/2000/svg" xmlns:xlink="http://www.w3.org/1999/xlink" x="0px" y="0px"
	 width="126px" height="126px" viewBox="0 0 126 126" enable-background="new 0 0 126 126" xml:space="preserve">
<g>
	<path fill="#1E1E1C" d="M20.333,83.181h85.334c2.206,0,4-1.795,4-4V29.712c0-2.207-1.794-4-4-4H20.333c-2.206,0-4,1.793-4,4v49.469
		C16.333,81.386,18.127,83.181,20.333,83.181z M70.734,48.508l2.381-0.589l-0.59-2.38l2.382-0.592l0.59,2.381l-2.381,0.591
		l0.59,2.381l-2.381,0.59l0.562,2.268l2.381-0.589l-0.543-2.194l2.381-0.59l0.59,2.381l-2.381,0.591l0.544,2.194l-2.382,0.59
		l-0.59-2.383l-2.38,0.591l-0.563-2.269l-2.38,0.591l-0.59-2.382l2.38-0.59l0.563,2.269l2.381-0.59L70.734,48.508z M73.866,42.271
		l2.38-0.59l0.59,2.382l-2.381,0.589L73.866,42.271z M20.333,29.712h85.334l0.003,49.469H73.256
		c0.088-0.223,0.098-0.483-0.024-0.765c-2.622-6.005,4.144-11.776,5.778-17.209c0.036-0.117,0.045-0.229,0.043-0.334
		c0.771-3.479,0.401-7-0.874-10.104l3.43-0.85l-1.006-4.056l-4.056,1.005l0.344,1.389c-0.154-0.247-0.313-0.489-0.479-0.726
		l-0.564-2.276l2.025-0.501l-1.005-4.058l-4.056,1.006l0.656,2.651c-2.018-1.659-4.476-2.843-7.273-3.325
		c-0.034-0.005-0.063-0.003-0.095-0.007c-0.002-0.001-0.004-0.001-0.007-0.001C56.659,39.93,46.27,44.622,46.27,55.33
		c0,0.045,0.008,0.084,0.012,0.124c-0.021,0.11-0.031,0.224-0.014,0.352c0.323,2.47-0.647,4.54-2.76,5.867
		c-0.097,0.061-0.173,0.133-0.241,0.21c-0.212,0.116-0.387,0.306-0.493,0.544c-0.461,1.044-0.265,2.157,0.533,2.974
		c0.131,0.135,0.287,0.231,0.455,0.29c0.528,0.352,1.091,0.601,1.68,0.791c-0.177,0.655-0.171,1.336,0.099,1.995
		c-0.694,1.119-0.401,2.44,0.726,3.238c0.063,0.045,0.127,0.081,0.191,0.109c0.182,0.255,0.17,0.641,0.066,1.005
		c-0.032,0.11-0.044,0.222-0.044,0.333c-0.014,0.1-0.018,0.203-0.007,0.307c0.18,1.659,1.503,2.677,3.101,2.835
		c0.085,0.009,0.165,0.007,0.242-0.003c0.073,0.009,0.151,0.011,0.232,0.006c2.511-0.202,5.3,0.234,6.152,2.874H20.333V29.712z
		 M77.602,47.438l2.381-0.59l0.59,2.381l-2.381,0.59L77.602,47.438z"/>
	<path fill="#1E1E1C" d="M114.016,95.22c-0.122,0.053-0.256,0.084-0.397,0.084c-0.007-0.001-0.013-0.001-0.02,0H12.402
		c-0.135,0-0.262-0.036-0.382-0.086h0c-0.395,0-0.752,0.23-0.918,0.588c-0.184,0.4-0.151,0.844,0.089,1.219
		c0.422,0.658,1.128,1.762,17.189,2.563c9.076,0.453,21.174,0.701,34.063,0.701c11.573,0,49.538-0.227,52.212-3.148
		c0.261-0.285,0.387-0.639,0.355-1C114.966,95.622,114.535,95.225,114.016,95.22z M70.15,98.353H55.85c-0.331,0-0.6-0.269-0.6-0.6
		s0.269-0.6,0.6-0.6H70.15c0.331,0,0.6,0.269,0.6,0.6S70.481,98.353,70.15,98.353z"/>
	<path fill="#1E1E1C" d="M12.021,94.218h101.985c0.003,0,0.006,0.002,0.01,0.002c0.354-0.153,0.603-0.505,0.603-0.916
		c0-0.286-0.121-0.545-0.313-0.727l-6.151-8.366c-0.188-0.256-0.488-0.407-0.806-0.407H18.932c-0.311,0-0.604,0.145-0.793,0.391
		l-6.529,8.5c-0.232,0.302-0.272,0.71-0.104,1.052C11.614,93.966,11.801,94.126,12.021,94.218z M19.424,85.804h87.418l4.779,6.5
		h-97.19L19.424,85.804z"/>
	<path fill="#1E1E1C" d="M77.897,42.113l1.005,4.057l4.057-1.005l-1.006-4.057L77.897,42.113z M79.541,45.063l-0.59-2.38
		l2.381-0.591l0.59,2.382L79.541,45.063z"/>
	<path fill="#1E1E1C" d="M79.222,40l-1.005-4.058l-4.057,1.005l1.005,4.058L79.222,40z M77.595,36.928l0.59,2.381l-2.381,0.59
		l-0.589-2.382L77.595,36.928z"/>
	<path fill="#1E1E1C" d="M86.508,39.795l-1.005-4.057l-4.057,1.005l1.005,4.056L86.508,39.795z M84.882,36.723l0.589,2.381
		l-2.38,0.59l-0.59-2.381L84.882,36.723z"/>
</g>
</svg>
