<?xml version="1.0" encoding="utf-8"?>
<!-- Generator: Adobe Illustrator 16.0.0, SVG Export Plug-In . SVG Version: 6.00 Build 0)  -->
<!DOCTYPE svg PUBLIC "-//W3C//DTD SVG 1.1//EN" "http://www.w3.org/Graphics/SVG/1.1/DTD/svg11.dtd">
<svg version="1.1" id="Layer_2" xmlns="http://www.w3.org/2000/svg" xmlns:xlink="http://www.w3.org/1999/xlink" x="0px" y="0px"
	 width="126px" height="126px" viewBox="0 0 126 126" enable-background="new 0 0 126 126" xml:space="preserve">
<g>
	<path d="M20.234,83.181h85.334c2.206,0,4-1.795,4-4V29.712c0-2.207-1.794-4-4-4H20.234c-2.206,0-4,1.793-4,4v49.469
		C16.234,81.386,18.028,83.181,20.234,83.181z M20.234,29.712h85.334l0.003,49.469H20.234V29.712z"/>
	<path d="M113.916,95.22c-0.122,0.053-0.256,0.084-0.397,0.084c-0.007-0.001-0.013-0.001-0.02,0H12.303
		c-0.135,0-0.262-0.036-0.382-0.086h0c-0.395,0-0.752,0.23-0.918,0.588c-0.184,0.4-0.151,0.844,0.089,1.219
		c0.422,0.658,1.128,1.762,17.189,2.563c9.076,0.453,21.174,0.701,34.063,0.701c11.573,0,49.538-0.227,52.212-3.148
		c0.261-0.285,0.387-0.639,0.355-1C114.866,95.622,114.436,95.225,113.916,95.22z M70.051,98.353H55.75c-0.331,0-0.6-0.269-0.6-0.6
		s0.269-0.6,0.6-0.6h14.301c0.331,0,0.6,0.269,0.6,0.6S70.382,98.353,70.051,98.353z"/>
	<path d="M11.921,94.218h101.985c0.003,0,0.006,0.002,0.01,0.002c0.354-0.153,0.603-0.505,0.603-0.916
		c0-0.286-0.121-0.545-0.313-0.727l-6.151-8.366c-0.188-0.256-0.488-0.407-0.806-0.407H18.832c-0.311,0-0.604,0.145-0.793,0.391
		l-6.529,8.5c-0.232,0.302-0.272,0.71-0.104,1.052C11.515,93.966,11.702,94.126,11.921,94.218z M19.325,85.804h87.418l4.779,6.5
		h-97.19L19.325,85.804z"/>
	<path d="M39.933,54.713c0,2.139,0.853,4.076,2.233,5.499V49.221C40.786,50.641,39.933,52.575,39.933,54.713z"/>
	<path d="M56.695,47.479c0.48-1.191,1.173-2.272,2.029-3.201c-0.835-0.797-1.848-1.407-2.969-1.779v5.261
		C56.063,47.653,56.375,47.557,56.695,47.479z"/>
	<path d="M47.417,44.733v17.863c0.14,0.008,0.278,0.021,0.42,0.021h2.081c-0.784-1.472-1.231-3.151-1.231-4.935
		c0-2.19,0.672-4.22,1.819-5.901v-9.164C49.309,43.069,48.255,43.798,47.417,44.733z"/>
	<path d="M54.755,48.171v-5.936c-0.479-0.091-0.971-0.141-1.477-0.141c-0.613,0-1.201,0.091-1.773,0.224v8.209
		C52.42,49.546,53.524,48.747,54.755,48.171z"/>
	<path d="M45.951,47.046c-1.021,0.25-1.962,0.703-2.785,1.306V61.08c0.946,0.695,2.049,1.185,3.25,1.403V46.1
		C46.243,46.405,46.083,46.718,45.951,47.046z"/>
	<path d="M68.815,42.095c-0.026,0-0.051,0.003-0.077,0.003v27.308h3.25v-26.82C70.987,42.268,69.922,42.095,68.815,42.095z"/>
	<path d="M64.649,42.961v26.444h3.089V42.156C66.65,42.267,65.613,42.543,64.649,42.961z"/>
	<path d="M51.505,55.867v6.06c0.59,1.956,1.734,3.668,3.25,4.961V50.899C53.237,52.193,52.094,53.908,51.505,55.867z"/>
	<path d="M60.399,46.325v23.011c0.386,0.043,0.776,0.069,1.174,0.069h2.076V43.457C62.376,44.178,61.271,45.158,60.399,46.325z"/>
	<path d="M59.063,48.684c-1.197,0.293-2.311,0.795-3.308,1.458v17.506c1.089,0.725,2.32,1.252,3.644,1.53V47.939
		C59.278,48.183,59.166,48.43,59.063,48.684z"/>
	<path d="M81.578,50.42v16.929c1.282-0.945,2.344-2.169,3.089-3.59v-9.75C83.921,52.591,82.86,51.364,81.578,50.42z"/>
	<path d="M78.648,48.905c-0.331-0.877-0.781-1.694-1.321-2.441v22.75c1.164-0.222,2.256-0.637,3.25-1.208v-18.23
		C79.969,49.426,79.326,49.128,78.648,48.905z"/>
	<path d="M72.988,42.964v26.441h2.361c0.33,0,0.656-0.02,0.978-0.049V45.273C75.381,44.302,74.25,43.513,72.988,42.964z"/>
	<path d="M42.167,49.221c0.308-0.317,0.643-0.607,1-0.869"/>
	<path d="M46.417,46.1c0.281-0.495,0.623-0.946,1-1.367"/>
	<path d="M50.505,42.618c0.324-0.122,0.657-0.22,1-0.299"/>
	<path d="M54.755,42.236c0.342,0.065,0.675,0.156,1,0.263"/>
	<path d="M59.399,47.939c0.284-0.571,0.622-1.108,1-1.615"/>
	<path d="M63.649,43.457c0.323-0.183,0.657-0.347,1-0.496"/>
	<path d="M67.738,42.156c0.33-0.034,0.662-0.056,1-0.059"/>
	<path d="M71.988,42.585c0.342,0.108,0.674,0.238,1,0.379"/>
	<path d="M76.328,45.273c0.362,0.371,0.696,0.769,1,1.19"/>
	<path d="M80.578,49.775c0.345,0.198,0.681,0.41,1,0.645"/>
	<path d="M84.667,54.009c0.466,0.886,0.803,1.85,1,2.863"/>
</g>
</svg>
