<?xml version="1.0" encoding="utf-8"?>
<!-- Generator: Adobe Illustrator 16.0.0, SVG Export Plug-In . SVG Version: 6.00 Build 0)  -->
<!DOCTYPE svg PUBLIC "-//W3C//DTD SVG 1.1//EN" "http://www.w3.org/Graphics/SVG/1.1/DTD/svg11.dtd">
<svg version="1.1" id="Layer_1" xmlns="http://www.w3.org/2000/svg" xmlns:xlink="http://www.w3.org/1999/xlink" x="0px" y="0px"
	 width="126px" height="126px" viewBox="0 0 126 126" enable-background="new 0 0 126 126" xml:space="preserve">
<g>
	<path d="M20.333,87.994h85.334c2.206,0,4-1.795,4-4V34.525c0-2.207-1.794-4-4-4H20.333c-2.206,0-4,1.793-4,4v49.469
		C16.333,86.199,18.127,87.994,20.333,87.994z M28.211,52.921v-6.287l18.856,13.647l10.571-7.104l13.789,7.595l25.451-6.141v8.117
		l-25.008,6.034l-14.434-5.171l-10.739,4.441L28.211,52.921z M20.333,34.525h85.334l0.003,49.469h-6.549V52.377l-27.277,6.582
		l-14.35-7.902l-10.369,6.971L25.967,42.713v41.281h-5.634V34.525z"/>
	<path d="M114.005,90.404H12.02c-0.395,0-0.752,0.23-0.918,0.588c-0.184,0.4-0.151,0.844,0.089,1.219
		c0.422,0.658,1.128,1.762,17.189,2.563c9.076,0.453,21.174,0.701,34.063,0.701c11.573,0,49.538-0.227,52.212-3.148
		c0.261-0.285,0.387-0.639,0.355-1C114.965,90.805,114.529,90.404,114.005,90.404z"/>
</g>
</svg>
