<?xml version="1.0" encoding="utf-8"?>
<!-- Generator: Adobe Illustrator 16.0.0, SVG Export Plug-In . SVG Version: 6.00 Build 0)  -->
<!DOCTYPE svg PUBLIC "-//W3C//DTD SVG 1.1//EN" "http://www.w3.org/Graphics/SVG/1.1/DTD/svg11.dtd">
<svg version="1.1" id="Layer_2" xmlns="http://www.w3.org/2000/svg" xmlns:xlink="http://www.w3.org/1999/xlink" x="0px" y="0px"
	 width="126px" height="126px" viewBox="0 0 126 126" enable-background="new 0 0 126 126" xml:space="preserve">
<g>
	<path d="M107.746,91.427c-0.108,0.046-0.226,0.074-0.351,0.074c-0.006,0-0.012,0-0.018,0H18.095c-0.119,0-0.231-0.032-0.337-0.076
		h0c-0.348,0-0.663,0.204-0.81,0.519c-0.162,0.354-0.134,0.745,0.078,1.075c0.373,0.581,0.995,1.555,15.166,2.261
		c8.008,0.4,18.681,0.619,30.053,0.619c10.211,0,43.706-0.2,46.065-2.778c0.23-0.251,0.341-0.563,0.314-0.882
		C108.584,91.782,108.204,91.431,107.746,91.427z M69.044,94.19H56.427c-0.292,0-0.529-0.237-0.529-0.529s0.237-0.529,0.529-0.529
		h12.617c0.292,0,0.529,0.237,0.529,0.529S69.336,94.19,69.044,94.19z"/>
	<path d="M17.758,90.542h89.979c0.003,0,0.006,0.002,0.009,0.002c0.312-0.135,0.532-0.446,0.532-0.808
		c0-0.252-0.106-0.481-0.277-0.641l-5.427-7.381c-0.167-0.226-0.43-0.359-0.711-0.359H23.855c-0.274,0-0.533,0.127-0.7,0.345
		l-5.76,7.499c-0.205,0.267-0.241,0.626-0.092,0.928C17.399,90.32,17.564,90.461,17.758,90.542z M24.29,83.119h77.126l4.217,5.735
		H19.885L24.29,83.119z"/>
	<path d="M57.261,49.306c0.424-1.051,1.035-2.005,1.791-2.824c-1.25-1.193-2.94-1.926-4.804-1.926c-2.929,0-5.433,1.809-6.465,4.369
		c-3.047,0.747-5.31,3.488-5.31,6.765c0,3.851,3.122,6.973,6.973,6.973h1.836c-0.692-1.299-1.086-2.78-1.086-4.354
		C50.195,53.948,53.207,50.3,57.261,49.306z"/>
	<path d="M76.63,50.564c-1.324-3.508-4.704-6.009-8.675-6.009c-3.898,0-7.23,2.407-8.604,5.813
		c-4.054,0.994-7.065,4.641-7.065,9.002c0,5.125,4.154,9.28,9.28,9.28h12.154c5.125,0,9.28-4.155,9.28-9.28
		C82.999,55.265,80.328,51.786,76.63,50.564z"/>
	<path d="M109.694,40.368c0.238,1.788,1.757,3.177,3.609,3.177c2.018,0,3.659-1.642,3.659-3.659s-1.641-3.659-3.659-3.659
		c-1.852,0-3.371,1.389-3.609,3.177h-5.785v-5.774c0-1.947-1.583-3.529-3.529-3.529H25.092c-1.946,0-3.529,1.582-3.529,3.529v7.313
		H11.207c-0.219-1.638-1.61-2.91-3.307-2.91c-1.848,0-3.351,1.503-3.351,3.351s1.503,3.351,3.351,3.351
		c1.697,0,3.088-1.272,3.307-2.91h10.356v6.221h-6.622c-0.179-1.34-1.317-2.38-2.705-2.38c-1.511,0-2.741,1.23-2.741,2.741
		s1.23,2.741,2.741,2.741c1.388,0,2.526-1.041,2.705-2.38h6.622v28.508c0,1.945,1.583,3.529,3.529,3.529h75.288
		c1.946,0,3.529-1.583,3.529-3.529v-28.53h4.83c0.184,1.375,1.352,2.444,2.777,2.444c1.551,0,2.814-1.262,2.814-2.814
		c0-1.551-1.263-2.814-2.814-2.814c-1.425,0-2.593,1.068-2.777,2.443h-4.83v-7.637H109.694z M113.304,37.191
		c1.486,0,2.695,1.209,2.695,2.695c0,1.486-1.209,2.695-2.695,2.695c-1.486,0-2.695-1.209-2.695-2.695
		C110.608,38.4,111.818,37.191,113.304,37.191z M7.9,43.853c-1.361,0-2.469-1.107-2.469-2.469s1.107-2.469,2.469-2.469
		s2.469,1.107,2.469,2.469S9.262,43.853,7.9,43.853z M12.237,50.426c-1.114,0-2.02-0.906-2.02-2.02s0.906-2.02,2.02-2.02
		s2.019,0.906,2.019,2.02S13.351,50.426,12.237,50.426z M111.516,46.302c1.143,0,2.073,0.93,2.073,2.073s-0.93,2.073-2.073,2.073
		c-1.143,0-2.073-0.93-2.073-2.073S110.373,46.302,111.516,46.302z M100.381,48.005h-5.879l-12.973,4.912l0.263,0.692l12.777-4.863
		h5.811l0.002,28.53H25.092V48.768h3.651l12.447,4.737l0.256-0.675L28.81,48.046h-3.718v-6.221h2.989l15.217,5.792l0.313-0.825
		l-15.449-5.849h-3.07v-7.313h75.288v5.774h-9.196l-16.866,6.386l0.342,0.9l16.612-6.323h9.108L100.381,48.005z"/>
</g>
</svg>
