<?xml version="1.0" encoding="utf-8"?>
<!-- Generator: Adobe Illustrator 16.0.0, SVG Export Plug-In . SVG Version: 6.00 Build 0)  -->
<!DOCTYPE svg PUBLIC "-//W3C//DTD SVG 1.1//EN" "http://www.w3.org/Graphics/SVG/1.1/DTD/svg11.dtd">
<svg version="1.1" id="Layer_1" xmlns="http://www.w3.org/2000/svg" xmlns:xlink="http://www.w3.org/1999/xlink" x="0px" y="0px"
	 width="126px" height="126px" viewBox="0 0 126 126" enable-background="new 0 0 126 126" xml:space="preserve">
<g>
	<path d="M20.333,83.681h85.334c2.206,0,4-1.795,4-4V30.212c0-2.207-1.794-4-4-4H20.333c-2.206,0-4,1.793-4,4v49.469
		C16.333,81.886,18.127,83.681,20.333,83.681z M20.333,30.212h85.334l0.003,49.469H20.333V30.212z"/>
	<path d="M114.016,95.72c-0.122,0.053-0.256,0.084-0.397,0.084c-0.007-0.001-0.013-0.001-0.02,0H12.402
		c-0.135,0-0.262-0.036-0.382-0.086h0c-0.395,0-0.752,0.23-0.918,0.588c-0.184,0.4-0.151,0.844,0.089,1.219
		c0.422,0.658,1.128,1.762,17.189,2.563c9.076,0.453,21.174,0.701,34.063,0.701c11.573,0,49.538-0.227,52.212-3.148
		c0.261-0.285,0.387-0.639,0.355-1C114.966,96.122,114.535,95.725,114.016,95.72z M70.15,98.853H55.85c-0.331,0-0.6-0.269-0.6-0.6
		s0.269-0.6,0.6-0.6H70.15c0.331,0,0.6,0.269,0.6,0.6S70.481,98.853,70.15,98.853z"/>
	<path d="M12.021,94.718h101.985c0.003,0,0.006,0.002,0.01,0.002c0.354-0.153,0.603-0.505,0.603-0.916
		c0-0.286-0.121-0.545-0.313-0.727l-6.151-8.366c-0.188-0.256-0.488-0.407-0.806-0.407H18.932c-0.311,0-0.604,0.145-0.793,0.391
		l-6.529,8.5c-0.232,0.302-0.272,0.71-0.104,1.052C11.614,94.466,11.801,94.626,12.021,94.718z M19.424,86.304h87.418l4.779,6.5
		h-97.19L19.424,86.304z"/>
	<path d="M78.628,59.849L78.628,59.849c0.003-0.019-0.001-0.035-0.002-0.053c0-0.021,0.002-0.043-0.003-0.063
		c-0.004-0.018-0.015-0.032-0.022-0.049c-0.008-0.018-0.013-0.037-0.025-0.053c-0.011-0.016-0.027-0.025-0.041-0.038
		c-0.014-0.013-0.025-0.028-0.042-0.039c-0.016-0.009-0.035-0.013-0.052-0.019c-0.019-0.008-0.035-0.018-0.055-0.021
		c0,0-0.001,0-0.001,0h0l-5.313-0.819c-0.019-0.003-0.037,0.002-0.055,0.003c-0.02,0-0.04-0.002-0.059,0.002
		c-0.021,0.006-0.038,0.018-0.057,0.026c-0.015,0.007-0.031,0.011-0.044,0.021c-0.019,0.013-0.032,0.032-0.047,0.05
		c-0.009,0.011-0.021,0.02-0.029,0.031c-0.011,0.019-0.016,0.041-0.023,0.062c-0.005,0.016-0.015,0.029-0.017,0.046
		c-0.356,2.147-1.37,4.094-2.93,5.626c-1.931,1.896-4.482,2.94-7.186,2.94c-5.656,0-10.258-4.602-10.258-10.257
		s4.602-10.257,10.258-10.257c1.187,0,2.354,0.202,3.466,0.602c0,0,0,0,0,0h0c0.032,0.012,0.065,0.017,0.098,0.017
		c0.003,0,0.006-0.001,0.009-0.001c0.009,0,0.017-0.003,0.026-0.004c0.025-0.003,0.05-0.01,0.074-0.019
		c0.01-0.005,0.02-0.01,0.03-0.015c0.021-0.012,0.041-0.026,0.058-0.043c0.008-0.007,0.016-0.014,0.023-0.021
		c0.022-0.025,0.041-0.055,0.053-0.088c0-0.001,0.001-0.002,0.002-0.003l0-0.001l1.794-5.066c0.007-0.021,0.006-0.041,0.009-0.062
		c0.002-0.018,0.008-0.035,0.007-0.053c-0.001-0.022-0.01-0.043-0.017-0.064c-0.004-0.015-0.005-0.03-0.011-0.044
		c-0.011-0.021-0.028-0.04-0.043-0.059c-0.008-0.011-0.013-0.022-0.023-0.031c-0.018-0.017-0.041-0.026-0.063-0.038
		c-0.013-0.007-0.022-0.017-0.037-0.022c0,0,0,0-0.001,0c-1.752-0.626-3.588-0.943-5.456-0.943c-8.942,0-16.216,7.274-16.216,16.216
		s7.274,16.216,16.216,16.216c4.293,0,8.341-1.663,11.396-4.683C76.484,66.343,78.078,63.256,78.628,59.849L78.628,59.849z
		 M73.811,68.155l-3.39-3.391c1.464-1.517,2.438-3.389,2.836-5.449l4.742,0.73C77.443,63.118,76.002,65.911,73.811,68.155z"/>
	<path d="M69.633,44.211c0.008,0.018,0.022,0.031,0.034,0.046c0.011,0.016,0.019,0.031,0.032,0.044
		c0.016,0.015,0.037,0.023,0.056,0.034c0.015,0.009,0.027,0.021,0.043,0.025c4.062,1.459,6.792,5.339,6.792,9.656
		c0,0.557-0.047,1.125-0.141,1.69v0.001c0,0.001,0,0.001,0,0.001c-0.003,0.021,0.001,0.04,0.003,0.06
		c0.001,0.019-0.002,0.038,0.002,0.056c0.005,0.019,0.016,0.035,0.024,0.052c0.008,0.017,0.013,0.035,0.023,0.05
		c0.012,0.017,0.028,0.027,0.043,0.04c0.013,0.013,0.023,0.026,0.039,0.036c0.017,0.011,0.039,0.016,0.058,0.022
		c0.017,0.006,0.031,0.016,0.049,0.019c0,0,0.001,0,0.002,0c0,0,0,0,0.001,0l5.31,0.819h0h0.002c0.015,0.002,0.03,0.004,0.045,0.004
		c0.035,0,0.069-0.007,0.101-0.02c0.013-0.004,0.022-0.013,0.034-0.02c0.018-0.009,0.037-0.018,0.053-0.031
		c0.011-0.009,0.019-0.022,0.029-0.034c0.012-0.015,0.026-0.027,0.036-0.043c0.007-0.013,0.009-0.028,0.014-0.042
		c0.007-0.019,0.017-0.036,0.021-0.057c0,0,0-0.001,0-0.002c0.14-0.865,0.21-1.741,0.21-2.602c0-6.835-4.324-12.973-10.759-15.271
		c0-0.001,0-0.001,0-0.001c-0.071-0.024-0.145-0.019-0.209,0.008c-0.004,0.002-0.01,0.002-0.014,0.004
		c-0.02,0.01-0.036,0.025-0.053,0.039c-0.013,0.01-0.027,0.016-0.037,0.027c-0.014,0.016-0.022,0.036-0.033,0.055
		c-0.009,0.015-0.021,0.027-0.027,0.044v0.001l-1.794,5.066c-0.006,0.019-0.005,0.037-0.008,0.056
		c-0.003,0.02-0.009,0.04-0.008,0.059c0.001,0.018,0.009,0.033,0.013,0.051C69.623,44.173,69.625,44.193,69.633,44.211z"/>
	<polygon points="78.24,65.454 77.33,66.363 80.682,69.716 85.076,69.716 85.076,68.429 81.215,68.429 	"/>
	<polygon points="39.085,66.847 33.47,66.847 33.47,68.134 39.436,68.134 45.675,64.466 45.023,63.356 	"/>
	<polygon points="92.551,39.691 85.401,39.691 80.976,44.116 81.885,45.026 85.934,40.979 92.551,40.979 	"/>
	<rect x="99.833" y="52.833" width="5" height="0.667"/>
	<rect x="94" y="54.279" width="10.833" height="0.667"/>
	<rect x="97.188" y="55.866" width="7.646" height="0.667"/>
	<rect x="98.218" y="57.51" width="6.615" height="0.667"/>
	<rect x="90.5" y="58.956" width="14.333" height="0.667"/>
	<rect x="94.717" y="60.543" width="10.116" height="0.667"/>
	<path d="M97,64.141c-1.328,0-2.552,0.438-3.547,1.172l-1.606-1.606h-5.534v0.301h5.409l1.488,1.487
		C91.862,66.596,91,68.269,91,70.141c0,3.309,2.691,6,6,6s6-2.691,6-6S100.309,64.141,97,64.141z M97,75.641
		c-3.033,0-5.5-2.468-5.5-5.5c0-1.733,0.809-3.28,2.066-4.289l1.344,1.344c-0.923,0.656-1.53,1.729-1.53,2.945
		c0,1.996,1.624,3.619,3.62,3.619s3.62-1.623,3.62-3.619s-1.624-3.619-3.62-3.619c-0.668,0-1.288,0.194-1.826,0.512l-1.365-1.364
		c0.901-0.645,2-1.028,3.19-1.028c3.033,0,5.5,2.468,5.5,5.5S100.033,75.641,97,75.641z M97,66.822c1.83,0,3.318,1.489,3.318,3.318
		S98.83,73.459,97,73.459s-3.318-1.489-3.318-3.318S95.17,66.822,97,66.822z"/>
	<rect x="22" y="33.667" width="8.667" height="1.334"/>
	<rect x="31.667" y="33.667" width="8.667" height="1.334"/>
	<rect x="22" y="46.418" width="9.333" height="0.333"/>
	<rect x="22" y="44.501" width="14.999" height="0.333"/>
	<rect x="22" y="42.46" width="6.77" height="0.333"/>
	<rect x="22" y="40.543" width="10.88" height="0.333"/>
	<rect x="22" y="38.251" width="13.249" height="0.333"/>
	<rect x="22" y="36.334" width="10.88" height="0.333"/>
</g>
</svg>
