<?xml version="1.0" encoding="utf-8"?>
<!-- Generator: Adobe Illustrator 16.0.0, SVG Export Plug-In . SVG Version: 6.00 Build 0)  -->
<!DOCTYPE svg PUBLIC "-//W3C//DTD SVG 1.1//EN" "http://www.w3.org/Graphics/SVG/1.1/DTD/svg11.dtd">
<svg version="1.1" id="Layer_1" xmlns="http://www.w3.org/2000/svg" xmlns:xlink="http://www.w3.org/1999/xlink" x="0px" y="0px"
	 width="126px" height="126px" viewBox="0 0 126 126" enable-background="new 0 0 126 126" xml:space="preserve">
<g>
	<path d="M109,110.394h-8.167v-4.016c0-0.276-0.224-0.5-0.5-0.5s-0.5,0.224-0.5,0.5v4.016h-9v-4.016c0-0.276-0.224-0.5-0.5-0.5
		s-0.5,0.224-0.5,0.5v4.016h-9v-4.016c0-0.276-0.224-0.5-0.5-0.5s-0.5,0.224-0.5,0.5v4.016h-9v-4.016c0-0.276-0.224-0.5-0.5-0.5
		s-0.5,0.224-0.5,0.5v4.016h-9v-4.016c0-0.276-0.224-0.5-0.5-0.5s-0.5,0.224-0.5,0.5v4.016h-9v-4.016c0-0.276-0.224-0.5-0.5-0.5
		s-0.5,0.224-0.5,0.5v4.016h-9v-4.016c0-0.276-0.224-0.5-0.5-0.5s-0.5,0.224-0.5,0.5v4.016h-9v-4.016c0-0.276-0.224-0.5-0.5-0.5
		s-0.5,0.224-0.5,0.5v4.016H18.5V92.228h4.834c0.275,0,0.5-0.224,0.5-0.5s-0.225-0.5-0.5-0.5H18.5v-9h4.834
		c0.275,0,0.5-0.224,0.5-0.5s-0.225-0.5-0.5-0.5H18.5v-9h4.834c0.275,0,0.5-0.224,0.5-0.5s-0.225-0.5-0.5-0.5H18.5v-9h4.834
		c0.275,0,0.5-0.224,0.5-0.5s-0.225-0.5-0.5-0.5H18.5v-9h4.834c0.275,0,0.5-0.224,0.5-0.5s-0.225-0.5-0.5-0.5H18.5v-9h4.834
		c0.275,0,0.5-0.224,0.5-0.5s-0.225-0.5-0.5-0.5H18.5v-9h4.834c0.275,0,0.5-0.224,0.5-0.5s-0.225-0.5-0.5-0.5H18.5v-9h4.834
		c0.275,0,0.5-0.224,0.5-0.5s-0.225-0.5-0.5-0.5H18.5v-7.121c0-0.828-0.672-1.5-1.5-1.5s-1.5,0.672-1.5,1.5v97.787
		c0,0.828,0.672,1.5,1.5,1.5h92c0.828,0,1.5-0.672,1.5-1.5S109.828,110.394,109,110.394z"/>
	<path d="M39,68.75c1.698,0,3.221-0.744,4.274-1.918l12.131,7.154c-0.437,0.81-0.686,1.736-0.686,2.719c0,3.17,2.58,5.75,5.75,5.75
		s5.75-2.58,5.75-5.75c0-1.844-0.876-3.483-2.23-4.537l8.301-21.994c0.457,0.117,0.933,0.186,1.426,0.186
		c1.812,0,3.429-0.845,4.483-2.159l12.997,11.397c-0.703,0.954-1.124,2.128-1.124,3.401c0,3.17,2.58,5.75,5.75,5.75
		s5.75-2.58,5.75-5.75s-2.58-5.75-5.75-5.75c-1.538,0-2.934,0.61-3.966,1.598L78.762,47.365c0.449-0.818,0.705-1.757,0.705-2.754
		c0-3.17-2.58-5.75-5.75-5.75s-5.75,2.58-5.75,5.75c0,2.325,1.39,4.328,3.38,5.233L63.13,71.613
		c-0.796-0.418-1.701-0.658-2.661-0.658c-1.829,0-3.457,0.861-4.511,2.196l-12.08-7.124c0.549-0.881,0.871-1.916,0.871-3.028
		c0-3.17-2.58-5.75-5.75-5.75s-5.75,2.58-5.75,5.75S35.83,68.75,39,68.75z M95.823,60.25c1.517,0,2.75,1.233,2.75,2.75
		s-1.233,2.75-2.75,2.75s-2.75-1.233-2.75-2.75S94.306,60.25,95.823,60.25z M73.717,41.861c1.517,0,2.75,1.233,2.75,2.75
		s-1.233,2.75-2.75,2.75s-2.75-1.233-2.75-2.75S72.2,41.861,73.717,41.861z M60.47,73.956c1.517,0,2.75,1.233,2.75,2.75
		s-1.233,2.75-2.75,2.75s-2.75-1.233-2.75-2.75S58.953,73.956,60.47,73.956z M39,60.25c1.517,0,2.75,1.233,2.75,2.75
		s-1.233,2.75-2.75,2.75s-2.75-1.233-2.75-2.75S37.483,60.25,39,60.25z"/>
</g>
</svg>
