<?xml version="1.0" encoding="utf-8"?>
<!-- Generator: Adobe Illustrator 16.0.0, SVG Export Plug-In . SVG Version: 6.00 Build 0)  -->
<!DOCTYPE svg PUBLIC "-//W3C//DTD SVG 1.1//EN" "http://www.w3.org/Graphics/SVG/1.1/DTD/svg11.dtd">
<svg version="1.1" id="Layer_2" xmlns="http://www.w3.org/2000/svg" xmlns:xlink="http://www.w3.org/1999/xlink" x="0px" y="0px"
	 width="126px" height="126px" viewBox="0 0 126 126" enable-background="new 0 0 126 126" xml:space="preserve">
<path fill="#010101" d="M103.406,94.444V81.048H89.748v-5.989H82.09V68h-7.658v-8.299h-8.164v-5.322
	c0-3.564-2.078-6.636-5.084-8.093v-15.42c0-7.151-5.818-12.97-12.969-12.97H32.988c-7.152,0-12.971,5.818-12.971,12.97v15.42
	c-3.006,1.457-5.082,4.528-5.082,8.093v30.432c0,4.971,4.029,9,9,9h29.18v2.805h13.658v-7.298h1.658v7.298h7.658v7.659h13.658
	v-9.568h7.658v13.397h13.658V94.444H103.406z M63.242,62.548H70.9v7.658h-7.658V62.548z M42.947,78.616v5.382
	c0,1.296-1.051,2.347-2.346,2.347c-1.297,0-2.348-1.051-2.348-2.347v-5.382c-1.813-0.875-3.064-2.725-3.064-4.871
	c0-2.989,2.422-5.412,5.412-5.412c2.988,0,5.412,2.423,5.412,5.412C46.014,75.892,44.76,77.741,42.947,78.616z M55.545,45.379
	H25.656V30.866c0-4.042,3.289-7.33,7.332-7.33h15.227c4.041,0,7.33,3.288,7.33,7.33V45.379z M86.219,85.563h-7.66v-7.058H70.9v7.298
	h7.658v7.658h7.66v7.659h-7.66v-7.659H70.9v-7.298h-7.658v7.298h-7.658v-7.658h7.658v-7.298h-7.658v-7.659h7.658v7.659H70.9v-7.659
	h7.658v7.059h7.66V85.563z M92.518,91.553v-7.658h7.658v7.658H92.518z M107.834,104.95h-7.658v-7.659h7.658V104.95z"/>
</svg>
