<?xml version="1.0" encoding="utf-8"?>
<!-- Generator: Adobe Illustrator 16.0.0, SVG Export Plug-In . SVG Version: 6.00 Build 0)  -->
<!DOCTYPE svg PUBLIC "-//W3C//DTD SVG 1.1//EN" "http://www.w3.org/Graphics/SVG/1.1/DTD/svg11.dtd">
<svg version="1.1" id="Layer_2" xmlns="http://www.w3.org/2000/svg" xmlns:xlink="http://www.w3.org/1999/xlink" x="0px" y="0px"
	 width="126px" height="126px" viewBox="0 0 126 126" enable-background="new 0 0 126 126" xml:space="preserve">
<path fill="#010101" d="M91,38.315c0-15.439-12.561-28-28-28s-28,12.561-28,28c0,14.081,10.449,25.763,24,27.71v6.866
	c-1.958,1.298-3.25,3.52-3.25,6.044v29.5c0,4.004,3.246,7.25,7.25,7.25s7.25-3.246,7.25-7.25v-29.5c0-2.525-1.292-4.746-3.25-6.044
	v-6.866C80.551,64.078,91,52.396,91,38.315z M43,38.315c0-11.028,8.972-20,20-20s20,8.972,20,20s-8.972,20-20,20
	S43,49.343,43,38.315z"/>
</svg>
