<?xml version="1.0" encoding="utf-8"?>
<!-- Generator: Adobe Illustrator 16.0.0, SVG Export Plug-In . SVG Version: 6.00 Build 0)  -->
<!DOCTYPE svg PUBLIC "-//W3C//DTD SVG 1.1//EN" "http://www.w3.org/Graphics/SVG/1.1/DTD/svg11.dtd">
<svg version="1.1" id="Layer_2" xmlns="http://www.w3.org/2000/svg" xmlns:xlink="http://www.w3.org/1999/xlink" x="0px" y="0px"
	 width="126px" height="126px" viewBox="0 0 126 126" enable-background="new 0 0 126 126" xml:space="preserve">
<g>
	<path d="M89.554,52.057c-0.991,0-2.058,0.299-2.676,0.748l0.449,1.179c0.468-0.356,1.215-0.58,1.889-0.58
		c1.178,0.019,1.776,0.654,1.776,1.608c0,0.841-0.468,1.57-1.308,2.562c-0.937,1.122-1.273,2.226-1.16,3.235l0.038,0.486h1.458
		l-0.02-0.486c-0.057-0.954,0.244-1.776,1.066-2.749c0.897-1.066,1.609-1.981,1.609-3.254
		C92.677,53.384,91.703,52.057,89.554,52.057z"/>
	<path d="M89.271,62.734c-0.653,0-1.122,0.486-1.122,1.177c0,0.655,0.449,1.16,1.104,1.16c0.691,0,1.123-0.505,1.123-1.16
		C90.376,63.22,89.927,62.734,89.271,62.734z"/>
	<path d="M116.323,33.416c0.023-0.549-0.172-1.105-0.597-1.518c-0.604-0.587-1.485-0.712-2.21-0.388h-12.287c-1.104,0-2,0.896-2,2
		s0.896,2,2,2h8.2L97.507,47.786c-2.264-1.637-5.035-2.614-8.036-2.614c-7.587,0-13.759,6.172-13.759,13.759
		c0,3.145,1.072,6.037,2.854,8.357l-3.869,3.984l-9.961-6.297c-0.469-0.297-1.038-0.384-1.576-0.244
		c-0.536,0.141-0.99,0.498-1.253,0.986L49.787,88.224L40.81,69.147c-0.442-0.937-1.522-1.383-2.497-1.027l-27.333,10
		c-1.037,0.38-1.57,1.528-1.19,2.565c0.379,1.038,1.526,1.57,2.565,1.191l25.615-9.372l9.888,21.012
		c0.321,0.684,1.001,1.127,1.756,1.147c0.018,0,0.036,0.001,0.054,0.001c0.734,0,1.411-0.403,1.761-1.052l12.983-24.112l9.521,6.019
		c0.799,0.505,1.843,0.381,2.503-0.297l5-5.148c2.264,1.637,5.035,2.614,8.036,2.614c7.587,0,13.759-6.172,13.759-13.759
		c0-3.145-1.072-6.037-2.854-8.357l11.958-12.312v8.352c0,1.104,0.896,2,2,2s2-0.896,2-2V33.51
		C116.333,33.478,116.325,33.447,116.323,33.416z M89.334,68.75c-5.386,0-9.751-4.366-9.751-9.751s4.365-9.751,9.751-9.751
		s9.751,4.366,9.751,9.751S94.72,68.75,89.334,68.75z"/>
</g>
</svg>
