<?xml version="1.0" encoding="utf-8"?>
<!-- Generator: Adobe Illustrator 16.0.0, SVG Export Plug-In . SVG Version: 6.00 Build 0)  -->
<!DOCTYPE svg PUBLIC "-//W3C//DTD SVG 1.1//EN" "http://www.w3.org/Graphics/SVG/1.1/DTD/svg11.dtd">
<svg version="1.1" id="Layer_2" xmlns="http://www.w3.org/2000/svg" xmlns:xlink="http://www.w3.org/1999/xlink" x="0px" y="0px"
	 width="126px" height="126px" viewBox="0 0 126 126" enable-background="new 0 0 126 126" xml:space="preserve">
<g>
	<path fill="#010101" d="M77.142,100.776H24.563V16.869h52.576v7.558c1.664-0.351,3.385-0.534,5.141-0.579v-6.979
		c0-2.835-2.305-5.141-5.141-5.141H24.563c-2.836,0-5.141,2.306-5.141,5.141v92.262c0,2.836,2.305,5.141,5.141,5.141h52.576
		c2.836,0,5.141-2.305,5.141-5.141V80.492c-1.756-0.045-3.476-0.229-5.138-0.579V100.776z M54.238,110.64h-6.775v-4.467l3.414-3.531
		l3.361,3.534V110.64z"/>
	<polygon fill="#010101" points="48.467,106.579 48.467,109.637 53.231,109.637 53.231,106.577 50.874,104.091 	"/>
	<path fill="#010101" d="M82.926,28.229c-13.042,0-23.651,10.608-23.651,23.649c0,13.042,10.609,23.65,23.651,23.65
		c13.041,0,23.652-10.608,23.652-23.65C106.578,38.837,95.967,28.229,82.926,28.229z M99.464,47.769
		c3.505,1.186,5.526,2.687,5.526,4.109c0,1.424-2.021,2.924-5.526,4.111c0.168-1.336,0.26-2.709,0.26-4.111
		C99.724,50.477,99.632,49.104,99.464,47.769z M99.199,46.007c-0.35-1.913-0.864-3.734-1.52-5.429
		c3.282,2.039,5.67,4.747,6.718,7.81C103.11,47.452,101.322,46.656,99.199,46.007z M82.926,58.251c-2.154,0-4.195-0.095-6.111-0.263
		c-0.167-1.913-0.262-3.956-0.262-6.11c0-2.153,0.095-4.196,0.262-6.109c1.916-0.169,3.957-0.264,6.111-0.264
		c2.153,0,4.195,0.095,6.112,0.264c0.166,1.913,0.261,3.956,0.261,6.109c0,2.154-0.095,4.197-0.261,6.11
		C87.121,58.156,85.079,58.251,82.926,58.251z M88.877,59.585c-0.309,2.716-0.771,5.13-1.334,7.168
		c-1.49,0.221-3.033,0.338-4.617,0.338s-3.128-0.117-4.617-0.338c-0.563-2.038-1.025-4.452-1.334-7.168
		c1.96,0.166,3.967,0.252,5.951,0.252S86.916,59.751,88.877,59.585z M75.221,45.926c-0.168,1.962-0.253,3.968-0.253,5.952
		s0.085,3.991,0.253,5.953c-2.718-0.311-5.132-0.773-7.17-1.335c-0.218-1.49-0.338-3.033-0.338-4.618
		c0-1.583,0.12-3.127,0.338-4.617C70.089,46.698,72.503,46.235,75.221,45.926z M68.358,45.537c0.46-2.227,1.157-4.307,2.047-6.176
		c1.874-0.894,3.953-1.592,6.178-2.05c-0.536,2.134-0.939,4.52-1.21,7.011C72.879,44.595,70.492,44.999,68.358,45.537z
		 M75.373,59.434c0.271,2.491,0.674,4.878,1.21,7.013c-2.225-0.459-4.304-1.157-6.178-2.051c-0.89-1.87-1.587-3.95-2.047-6.176
		C70.492,58.757,72.879,59.162,75.373,59.434z M76.975,44.172c0.309-2.717,0.771-5.132,1.334-7.168
		c1.489-0.221,3.033-0.339,4.617-0.339s3.127,0.118,4.617,0.339c0.563,2.036,1.025,4.451,1.334,7.168
		c-1.961-0.166-3.967-0.251-5.951-0.251S78.935,44.006,76.975,44.172z M89.269,37.312c2.225,0.458,4.305,1.156,6.177,2.05
		c0.89,1.869,1.588,3.949,2.049,6.176c-2.136-0.538-4.521-0.942-7.015-1.215C90.208,41.831,89.805,39.445,89.269,37.312z
		 M90.479,59.434c2.493-0.271,4.879-0.677,7.015-1.214c-0.461,2.226-1.159,4.306-2.049,6.176c-1.872,0.894-3.952,1.592-6.177,2.051
		C89.805,64.312,90.208,61.925,90.479,59.434z M90.633,57.831c0.165-1.962,0.25-3.969,0.25-5.953s-0.085-3.99-0.25-5.952
		c2.716,0.31,5.129,0.772,7.167,1.335c0.22,1.49,0.338,3.034,0.338,4.617c0,1.585-0.118,3.128-0.338,4.618
		C95.762,57.058,93.349,57.521,90.633,57.831z M103.26,43.313c-1.692-2.02-3.962-3.765-6.647-5.121
		c-1.358-2.684-3.104-4.957-5.122-6.649C96.78,33.781,101.024,38.024,103.26,43.313z M94.228,37.126
		c-1.696-0.658-3.518-1.174-5.433-1.521c-0.646-2.124-1.442-3.912-2.379-5.198C89.479,31.454,92.187,33.842,94.228,37.126z
		 M82.926,29.814c1.423,0,2.924,2.022,4.111,5.522c-1.336-0.165-2.711-0.257-4.111-0.257s-2.774,0.092-4.11,0.257
		C80.002,31.837,81.502,29.814,82.926,29.814z M77.056,35.604c-1.914,0.348-3.735,0.863-5.432,1.521
		c2.04-3.284,4.749-5.672,7.812-6.72C78.5,31.692,77.702,33.48,77.056,35.604z M74.361,31.543c-2.019,1.692-3.764,3.966-5.121,6.649
		c-2.688,1.356-4.955,3.102-6.649,5.121C64.826,38.024,69.072,33.781,74.361,31.543z M68.173,40.578
		c-0.657,1.694-1.172,3.516-1.521,5.429c-2.122,0.649-3.91,1.445-5.198,2.381C62.502,45.325,64.89,42.617,68.173,40.578z
		 M66.388,47.769c-0.169,1.336-0.261,2.708-0.261,4.109c0,1.402,0.092,2.775,0.261,4.111c-3.505-1.188-5.526-2.688-5.526-4.111
		C60.861,50.455,62.883,48.954,66.388,47.769z M66.651,57.749c0.35,1.913,0.864,3.734,1.521,5.43
		c-3.283-2.039-5.671-4.747-6.72-7.808C62.741,56.306,64.529,57.101,66.651,57.749z M62.591,60.443
		c1.694,2.02,3.962,3.765,6.649,5.122c1.357,2.686,3.103,4.956,5.121,6.648C69.07,69.975,64.826,65.731,62.591,60.443z
		 M71.624,66.631c1.696,0.658,3.518,1.173,5.432,1.521c0.646,2.124,1.444,3.914,2.38,5.199
		C76.373,72.302,73.664,69.913,71.624,66.631z M82.926,73.942c-1.424,0-2.924-2.022-4.11-5.523c1.336,0.166,2.71,0.258,4.11,0.258
		s2.775-0.092,4.111-0.258C85.85,71.92,84.349,73.942,82.926,73.942z M88.795,68.151c1.915-0.348,3.736-0.862,5.433-1.521
		c-2.041,3.282-4.749,5.671-7.812,6.72C87.353,72.065,88.148,70.275,88.795,68.151z M91.49,72.214
		c2.019-1.692,3.764-3.963,5.122-6.648c2.686-1.357,4.955-3.103,6.647-5.122C101.024,65.731,96.781,69.975,91.49,72.214z
		 M97.68,63.179c0.655-1.695,1.17-3.517,1.52-5.43c2.123-0.648,3.911-1.443,5.198-2.378C103.35,58.432,100.962,61.14,97.68,63.179z"
		/>
	<rect x="26.646" y="70.126" fill="#010101" width="15.406" height="1.185"/>
	<rect x="26.646" y="66.808" fill="#010101" width="7.348" height="1.185"/>
	<rect x="26.646" y="73.445" fill="#010101" width="29.156" height="1.185"/>
	<rect x="29.003" y="25.334" fill="#010101" width="15.406" height="1.185"/>
	<rect x="29.003" y="22.016" fill="#010101" width="7.348" height="1.185"/>
	<rect x="29.003" y="28.653" fill="#010101" width="29.156" height="1.185"/>
	<path fill="#010101" d="M55.438,90.807c-0.407-0.408-0.672-0.926-0.76-1.492l-0.712,0.112c0.114,0.719,0.447,1.371,0.964,1.888
		c0.667,0.667,1.545,1,2.421,1c0.877,0,1.755-0.333,2.421-1c0.647-0.647,1.004-1.508,1.004-2.422c0-0.917-0.356-1.776-1.004-2.422
		l-0.507,0.506c0.511,0.513,0.793,1.192,0.793,1.916c0,0.722-0.282,1.402-0.793,1.914C58.209,91.861,56.492,91.861,55.438,90.807z"
		/>
	<path fill="#010101" d="M72.353,85.509c0.158,0.585,0.688,1.017,1.322,1.017c0.759,0,1.378-0.615,1.378-1.375
		s-0.619-1.376-1.378-1.376c-0.634,0-1.164,0.432-1.322,1.017h-6.703l-1.358,1.686c-1.126-2.715-3.803-4.629-6.922-4.629
		c-1.431,0-2.764,0.41-3.901,1.108l-2.571-3.192h-6.931c-0.158-0.585-0.688-1.019-1.321-1.019c-0.759,0-1.379,0.618-1.379,1.378
		c0,0.758,0.62,1.375,1.379,1.375c0.633,0,1.163-0.434,1.321-1.017h6.587l2.319,2.88c-1.814,1.368-2.995,3.537-2.995,5.979
		c0,4.132,3.361,7.493,7.492,7.493c1.646,0,3.209-0.525,4.52-1.516l-0.434-0.573c-1.185,0.897-2.598,1.369-4.086,1.369
		c-3.734,0-6.775-3.038-6.775-6.773c0-2.218,1.075-4.183,2.729-5.421l0.869,1.081c-0.226,0.163-0.441,0.343-0.642,0.544
		c-0.837,0.834-1.361,1.891-1.522,3.056l0.711,0.098c0.139-1.009,0.595-1.924,1.318-2.647c0.182-0.181,0.379-0.343,0.586-0.49
		l1.49,1.85l0.559-0.449l-1.431-1.777c0.64-0.32,1.349-0.495,2.086-0.495c1.241,0,2.409,0.484,3.289,1.362
		c0.875,0.876,1.358,2.039,1.361,3.276l-2.142,2.661l0.558,0.451l1.37-1.7c-0.223,0.706-0.61,1.354-1.147,1.892
		c-1.813,1.813-4.767,1.813-6.579,0c-0.701-0.701-1.151-1.587-1.306-2.563l-0.71,0.112c0.178,1.127,0.699,2.148,1.509,2.959
		c1.046,1.045,2.421,1.57,3.797,1.57c1.374,0,2.75-0.525,3.796-1.57c0.954-0.953,1.498-2.205,1.561-3.543l1.303-1.62
		c0.091,0.441,0.139,0.897,0.139,1.365c0,1.44-0.447,2.818-1.294,3.983l0.582,0.422c0.935-1.288,1.431-2.813,1.431-4.405
		c0-0.715-0.108-1.405-0.296-2.063l1.425-1.77H72.353z M73.675,84.492c0.363,0,0.658,0.295,0.658,0.658s-0.295,0.658-0.658,0.658
		c-0.362,0-0.659-0.295-0.659-0.658S73.313,84.492,73.675,84.492z M42.645,80.781c-0.364,0-0.659-0.296-0.659-0.658
		c0-0.364,0.295-0.66,0.659-0.66c0.363,0,0.658,0.296,0.658,0.66C43.303,80.485,43.008,80.781,42.645,80.781z M62.646,88.521
		c-0.171-1.122-0.686-2.16-1.504-2.976c-1.014-1.015-2.362-1.574-3.796-1.574c-0.904,0-1.773,0.222-2.547,0.641l-0.878-1.091
		c1.011-0.604,2.188-0.954,3.447-0.954c2.961,0,5.478,1.912,6.396,4.563L62.646,88.521z"/>
</g>
</svg>
