<?xml version="1.0" encoding="utf-8"?>
<!-- Generator: Adobe Illustrator 16.0.0, SVG Export Plug-In . SVG Version: 6.00 Build 0)  -->
<!DOCTYPE svg PUBLIC "-//W3C//DTD SVG 1.1//EN" "http://www.w3.org/Graphics/SVG/1.1/DTD/svg11.dtd">
<svg version="1.1" id="Layer_2" xmlns="http://www.w3.org/2000/svg" xmlns:xlink="http://www.w3.org/1999/xlink" x="0px" y="0px"
	 width="126px" height="126px" viewBox="0 0 126 126" enable-background="new 0 0 126 126" xml:space="preserve">
<g>
	<polygon fill="#010101" points="63.079,62.12 77.559,55.007 49.339,55.007 	"/>
	<path fill="#010101" d="M49.339,55.807v18.064c0,0.403,0.328,0.73,0.73,0.73h26.569c0.404,0,0.73-0.328,0.73-0.73V56.224
		l-14.027,8.015L49.339,55.807z"/>
	<path fill="#010101" d="M82.985,26.699H43.912c-2.107,0-3.821,1.714-3.821,3.821v68.568c0,2.107,1.714,3.821,3.821,3.821h39.073
		c2.107,0,3.821-1.713,3.821-3.821V30.52C86.807,28.414,85.093,26.699,82.985,26.699z M65.966,100.209h-5.034V96.89l2.537-2.625
		l2.497,2.627V100.209z M43.912,92.879V30.52h39.073l0.002,62.359H43.912z"/>
	<polygon fill="#010101" points="61.678,97.191 61.678,99.464 65.219,99.464 65.219,97.19 63.466,95.343 	"/>
	<path fill="#010101" d="M32.879,36.872V25.119c0-1.119-0.909-2.028-2.027-2.028H7.421c-1.118,0-2.028,0.909-2.028,2.028v16.419
		c0,1.119,0.91,2.028,2.028,2.028h19.188l9.421,6.162c0.159,0.104,0.342,0.156,0.523,0.156c0.213,0,0.427-0.072,0.602-0.213
		c0.322-0.262,0.439-0.702,0.288-1.089L32.879,36.872z M27.896,42.125c-0.002-0.004-0.004-0.007-0.006-0.011
		c-0.174-0.285-0.482-0.459-0.816-0.459H7.421c-0.064,0-0.118-0.053-0.118-0.118V25.119c0-0.065,0.054-0.118,0.118-0.118h23.431
		c0.064,0,0.117,0.052,0.117,0.118v11.934c0,0.119,0.022,0.236,0.065,0.347l3.545,9.097L27.896,42.125z"/>
	<path fill="#010101" d="M118.579,52.917H95.148c-1.118,0-2.027,0.911-2.027,2.029V66.7l-4.563,11.708
		c-0.151,0.387-0.034,0.828,0.288,1.089c0.175,0.142,0.389,0.213,0.602,0.213c0.183,0,0.364-0.051,0.523-0.156l9.421-6.161h19.188
		c1.119,0,2.028-0.911,2.028-2.029V54.946C120.607,53.828,119.698,52.917,118.579,52.917z M118.697,71.364
		c0,0.065-0.054,0.119-0.118,0.119H98.926c-0.334,0-0.643,0.173-0.816,0.459c-0.002,0.003-0.004,0.007-0.006,0.011l-6.683,4.37
		l3.545-9.097c0.043-0.11,0.065-0.229,0.065-0.347V54.946c0-0.065,0.053-0.119,0.117-0.119h23.431c0.064,0,0.118,0.053,0.118,0.119
		V71.364z"/>
</g>
</svg>
