<?xml version="1.0" encoding="utf-8"?>
<!-- Generator: Adobe Illustrator 16.0.0, SVG Export Plug-In . SVG Version: 6.00 Build 0)  -->
<!DOCTYPE svg PUBLIC "-//W3C//DTD SVG 1.1//EN" "http://www.w3.org/Graphics/SVG/1.1/DTD/svg11.dtd">
<svg version="1.1" id="Layer_1" xmlns="http://www.w3.org/2000/svg" xmlns:xlink="http://www.w3.org/1999/xlink" x="0px" y="0px"
	 width="126px" height="126px" viewBox="0 0 126 126" enable-background="new 0 0 126 126" xml:space="preserve">
<g>
	<path d="M115.764,58.899l-0.122-0.118V23.579c0-2.436-1.982-4.419-4.419-4.419h-4.208l-0.104-0.271
		c-0.324-0.954-0.966-1.773-1.808-2.308c-1.085-0.69-2.455-0.873-3.686-0.49l-6.919,2.155c-1.572,0.489-2.838,1.605-3.474,3.064
		c-0.593,1.361-0.58,2.921,0.036,4.279l0.11,0.244l-0.184,0.195c-1.355,1.449-2.957,3.01-4.761,4.642l-0.114,0.104H12.504
		c-1.994,0-3.615,1.622-3.615,3.615V79.91c0,1.994,1.621,3.615,3.615,3.615h10.064L22.66,83.8c1.188,3.523,3.469,7.13,5.174,9.534
		c3.056,5.227,9.707,11.625,10.455,12.338l0.328,0.296l-0.308,4.105l23.601,0.032l1.641-5.279c3.875-7.733,3.11-17.796,2.918-19.734
		c0.019-0.427,0.021-0.791,0.003-1.145l-0.021-0.422h22.113c1.993,0,3.615-1.621,3.615-3.615V69.192h20.513
		c2.437,0,4.419-1.982,4.419-4.419v-2.701C117.111,60.867,116.633,59.741,115.764,58.899z M11.835,64.748
		c0,0.369-0.301,0.67-0.67,0.67s-0.67-0.301-0.67-0.67V49.552c0-0.368,0.301-0.669,0.67-0.669s0.67,0.301,0.67,0.669V64.748z
		 M106.9,23.01h4.724v37.495H106.9V23.01z M97.493,24.367L96.84,24.57c-0.818,0.259-1.781-0.102-2.112-0.787
		c-0.159-0.332-0.166-0.699-0.021-1.035c0.169-0.388,0.527-0.691,0.983-0.834l7.374-2.297l0.898,6.571
		c0.05,0.335-0.044,0.677-0.266,0.96c-0.271,0.347-0.708,0.572-1.197,0.619c-0.059,0.006-0.124,0.009-0.188,0.009
		c-0.835,0-1.543-0.531-1.648-1.235l-0.113-0.994c-8.522,11.801-28.15,24.45-29.002,24.995c-0.289,0.186-0.635,0.283-1.001,0.283
		c-0.493,0-0.957-0.183-1.272-0.501c-0.289-0.292-0.425-0.664-0.383-1.047c0.044-0.396,0.282-0.761,0.654-0.997
		C69.747,48.152,89.187,35.586,97.493,24.367z M103.083,31.338v29.167h-4.724V31.338H103.083z M94.822,40.005v20.5h-4.724v-20.5
		H94.822z M86.28,49.009v11.496h-4.724V49.009H86.28z M77.25,53.512v6.993h-4.724v-6.993H77.25z M59.865,103.235l-0.894,2.853
		l-16.314-0.023l0.032-0.432c0.005-0.059,0.008-0.119,0.008-0.184c-0.005-0.866-0.544-1.765-1.602-2.67
		c-0.307-0.29-7.085-6.767-9.837-11.582c-1.815-2.547-6.244-9.654-5.222-12.355c0.126-0.33,0.387-0.789,1.205-0.976
		c0.379-0.138,0.709-0.197,1.032-0.197c1.994,0,3.715,2.276,4.971,3.938c0.922,1.22,1.527,2.021,2.185,2.021
		c0.213,0,0.401-0.082,0.561-0.241c0.454-0.456,0.753-1.641,0.735-5.94c0.049-0.521,0.464-5.146,0.464-19.4
		c0.3-3.217,1.289-3.56,1.701-3.56c0.988,0,2.166,1.439,2.354,2.31c0.012,0.052,0.03,0.099,0.058,0.14l0.052,0.118
		c0.06,0.233,0.126,0.688,0.21,1.429l0.018,0.16c0.178,1.614,0.386,4.12,0.569,6.33l0.02,0.232c0.753,9.138,0.875,9.761,1.377,9.91
		c0.119,0.036,0.269,0.01,0.372-0.07c0.166-0.121,1.574-1.119,3.088-1.119c1.408,0,2.51,0.866,3.276,2.573
		c0.048,0.107,0.14,0.189,0.252,0.226c0.116,0.038,0.237,0.024,0.338-0.033c0.011-0.007,1.136-0.641,2.42-0.641
		c1.612,0,2.769,0.985,3.438,2.927c0.053,0.156,0.194,0.266,0.361,0.281c0.025,0.002,2.813,0.264,4.359,2.128
		c0.804,0.964,1.141,2.208,1.003,3.696c-0.003,0.03-0.003,0.063,0,0.094C62.469,85.275,63.72,95.885,59.865,103.235z M85.752,79.509
		h-20.71l-0.12-0.171c-0.132-0.188-0.266-0.363-0.397-0.521c-1.467-1.768-3.405-2.652-4.773-3.083l-0.143-0.045l-0.079-0.127
		c-1.973-3.188-5.031-3.532-6.255-3.532c-0.317,0-0.641,0.019-0.959,0.057l-0.191,0.021l-0.138-0.135
		c-1.9-1.868-4.092-2.069-4.946-2.069l-0.455,0.006l-0.033-0.371c-0.132-1.452-0.266-3.078-0.383-4.497l-0.033-0.402
		c-0.18-2.161-0.383-4.609-0.563-6.287l-0.039-0.354c-0.11-0.964-0.195-1.508-0.307-1.94l-0.179-0.702l-0.149-0.246
		c-0.894-2.308-3.25-4.644-6.027-4.644c-1.179,0-5.075,0.517-5.697,7.164l-0.021,0.431c0,8.708-0.157,13.787-0.288,16.512
		l-0.034,0.697l-0.586-0.38c-1.946-1.261-4.114-1.57-6.173-0.879c-1.792,0.496-3.174,1.735-3.812,3.407
		c-0.192,0.51-0.313,1.088-0.359,1.718l-0.026,0.373h-5.97V34.792h65.518l-0.891,0.714c-5.119,4.114-10.283,7.72-13.148,9.557
		c-1.4,0.896-2.306,2.332-2.483,3.94c-0.176,1.591,0.378,3.163,1.52,4.313c0.518,0.524,1.137,0.938,1.843,1.234l0.246,0.103v3
		h-2.861c-2.437,0-4.419,1.982-4.419,4.419v2.701c0,2.437,1.982,4.419,4.419,4.419h20.104V79.509z M113.094,65.007H65.245v-3.505
		h47.849V65.007z"/>
	<path d="M39.01,45.464c-5.04,0-9.141,4.101-9.141,9.141h1.014c0-4.481,3.646-8.127,8.127-8.127c4.481,0,8.127,3.646,8.127,8.127
		h1.014C48.151,49.564,44.05,45.464,39.01,45.464z"/>
</g>
</svg>
