<?xml version="1.0" encoding="utf-8"?>
<!-- Generator: Adobe Illustrator 16.0.0, SVG Export Plug-In . SVG Version: 6.00 Build 0)  -->
<!DOCTYPE svg PUBLIC "-//W3C//DTD SVG 1.1//EN" "http://www.w3.org/Graphics/SVG/1.1/DTD/svg11.dtd">
<svg version="1.1" id="Layer_2" xmlns="http://www.w3.org/2000/svg" xmlns:xlink="http://www.w3.org/1999/xlink" x="0px" y="0px"
	 width="126px" height="126px" viewBox="0 0 126 126" enable-background="new 0 0 126 126" xml:space="preserve">
<g>
	<path fill="#010101" d="M82.92,58.369c-0.389-0.861-0.422-1.82-0.088-2.703l5.643-14.963c0.264-0.703,0.764-1.273,1.378-1.67
		V26.156c0-3.488-2.503-6.344-5.635-6.51L14.96,11.84l-0.438-0.023c-3.266,0-5.922,2.926-5.922,6.518v67.438
		c0,3.594,2.656,6.52,5.922,6.52h0.273l23.677-3.336v14.65c0,8.395,11.737,12.528,12.159,12.612
		c0.126,0.023,0.252,0.037,0.379,0.037c0.159,0,0.317-0.02,0.473-0.059l20.05-7.499c0.936-0.234,1.562-1.117,1.476-2.076
		c-0.088-0.963-0.863-1.715-1.827-1.775c-7.027-0.438-6.895-7.424-6.854-8.32V85.314l19.961-2.813
		c3.101-0.205,5.564-3.045,5.564-6.506V62.088l-4.96-1.869C84.01,59.887,83.309,59.23,82.92,58.369z M64.488,106.416L51,112.288
		c-1.505-0.395-8.615-4.179-8.615-8.683V88.404l18.032-2.541l0.002,10.551C60.266,99.17,61.109,103.674,64.488,106.416z
		 M82.031,74.92l-65.609,9.242V19.877l65.609,7.393V74.92z"/>
	<path fill="#010101" d="M116.377,49.012l-23.643-8.914c-0.814-0.307-1.726,0.105-2.033,0.922L85.06,55.979
		c-0.307,0.816,0.106,1.729,0.921,2.037l23.642,8.914c0.816,0.305,1.728-0.107,2.033-0.922l5.643-14.959
		C117.604,50.232,117.192,49.32,116.377,49.012z M114.567,50.018l-13.513,5.518l-7.801-13.553L114.567,50.018z M110.181,65.453
		l-23.645-8.916l5.214-13.828c0.005,0.008,0.005,0.014,0.008,0.02L99.974,57c0.1,0.172,0.251,0.297,0.427,0.365
		c0.191,0.07,0.408,0.07,0.612-0.01l14.224-5.811c0.096-0.037,0.176-0.098,0.248-0.162L110.181,65.453z"/>
	<path fill="#010101" d="M41.275,54.193l11.53,11.078c0.627,0.602,1.629,0.582,2.232-0.045l17.507-18.223
		c0.602-0.627,0.58-1.627-0.046-2.23l-11.53-11.078c-0.628-0.602-1.628-0.582-2.232,0.045L41.23,51.961
		C40.627,52.59,40.647,53.59,41.275,54.193z M60.121,51.717c0.14-0.148,0.228-0.348,0.231-0.568l0.263-15.361
		c0.001-0.104-0.021-0.201-0.054-0.291L71.406,45.91L53.9,64.133L43.243,53.895c0.008-0.002,0.015,0,0.021,0l16.354-1.932
		C59.816,51.939,59.988,51.85,60.121,51.717z M58.946,35.801l-0.25,14.592l-15.529,1.832L58.946,35.801z"/>
	<path fill="#010101" d="M27.487,48.217l11.681,3.746c0.635,0.203,1.318-0.15,1.523-0.787l5.918-18.457
		c0.203-0.637-0.147-1.318-0.782-1.521l-11.682-3.746c-0.637-0.205-1.318,0.145-1.524,0.781l-5.918,18.461
		C26.5,47.33,26.852,48.014,27.487,48.217z M45.456,32.35L39.54,50.809l-10.798-3.461c0.005-0.002,0.009-0.006,0.016-0.008
		l10.616-6.846c0.129-0.082,0.219-0.203,0.265-0.34c0.045-0.148,0.04-0.316-0.031-0.469l-5-10.676
		c-0.036-0.07-0.082-0.131-0.135-0.186L45.456,32.35z M33.462,29.582l4.749,10.141l-10.083,6.5L33.462,29.582z"/>
</g>
</svg>
