<?xml version="1.0" encoding="utf-8"?>
<!-- Generator: Adobe Illustrator 16.0.0, SVG Export Plug-In . SVG Version: 6.00 Build 0)  -->
<!DOCTYPE svg PUBLIC "-//W3C//DTD SVG 1.1//EN" "http://www.w3.org/Graphics/SVG/1.1/DTD/svg11.dtd">
<svg version="1.1" id="Layer_1" xmlns="http://www.w3.org/2000/svg" xmlns:xlink="http://www.w3.org/1999/xlink" x="0px" y="0px"
	 width="126px" height="126px" viewBox="0 0 126 126" enable-background="new 0 0 126 126" xml:space="preserve">
<path d="M113.543,108.969c-0.029-13.444-0.057-26.888-0.084-40.332c-0.002-1.078-0.758-2.158-1.836-2.41
	c-7.486-1.748-10.018,6.039-11.182,11.723c-0.188,0.912-1.508,9.039-3.08,7.814c-3.072-2.391-3.588-8.984-4.209-12.484
	c-0.912-5.146-1.375-10.375-1.902-15.57c-0.297-2.928-1.518-8.809-5.035-9.748c-5.729-1.531-8.15,7.221-9.299,13.166
	c-5.035-5.467-6.436-14.449-8-21.34c-1.701-7.5-2.98-16.184-7.1-22.826c-3.346-5.398-9.053-2.551-11.855,1.695
	c-4.311,6.529-5.414,15.5-6.854,23.018c-1.203,6.287-2.375,14.773-6.883,19.607c-1.889,2.025-5.24-4.551-6.049-5.881
	c-3.619-5.959-10.75-18.699-18.125-9.055c-0.266,0.332-0.516,0.676-0.752,1.029c-0.121,0.174-0.213,0.348-0.283,0.52
	c-0.338,0.391-0.557,0.91-0.557,1.576c0,19.832,0,39.666,0,59.498H9.375H6.291v3.029h3.084h103.834h6.5v-3.029H113.543z"/>
</svg>
