<?xml version="1.0" encoding="utf-8"?>
<!-- Generator: Adobe Illustrator 16.0.0, SVG Export Plug-In . SVG Version: 6.00 Build 0)  -->
<!DOCTYPE svg PUBLIC "-//W3C//DTD SVG 1.1//EN" "http://www.w3.org/Graphics/SVG/1.1/DTD/svg11.dtd">
<svg version="1.1" id="Layer_1" xmlns="http://www.w3.org/2000/svg" xmlns:xlink="http://www.w3.org/1999/xlink" x="0px" y="0px"
	 width="126px" height="126px" viewBox="0 0 126 126" enable-background="new 0 0 126 126" xml:space="preserve">
<g>
	<path d="M113.394,107.5H14.106V17c0-0.828-0.672-1.5-1.5-1.5s-1.5,0.672-1.5,1.5v92c0,0.828,0.672,1.5,1.5,1.5h100.787
		c0.828,0,1.5-0.672,1.5-1.5S114.222,107.5,113.394,107.5z"/>
	<path d="M112.106,29.742L84.529,57.319L71.013,44.769L52.309,58.998L16.753,47.146v57.958h95.354V29.742z M109.183,48.125
		l-24.097,27.25l-14-8l-18.813,9.313L19.677,65.822V51.204L52.85,62.262l17.976-13.677L84.604,61.38l24.579-24.577V48.125z"/>
</g>
</svg>
