<?xml version="1.0" encoding="utf-8"?>
<!-- Generator: Adobe Illustrator 16.0.0, SVG Export Plug-In . SVG Version: 6.00 Build 0)  -->
<!DOCTYPE svg PUBLIC "-//W3C//DTD SVG 1.1//EN" "http://www.w3.org/Graphics/SVG/1.1/DTD/svg11.dtd">
<svg version="1.1" id="Layer_1" xmlns="http://www.w3.org/2000/svg" xmlns:xlink="http://www.w3.org/1999/xlink" x="0px" y="0px"
	 width="126px" height="126px" viewBox="0 0 126 126" enable-background="new 0 0 126 126" xml:space="preserve">
<g>
	<path fill="#010101" d="M109,110.394h-8.167v-4.016c0-0.276-0.224-0.5-0.5-0.5s-0.5,0.224-0.5,0.5v4.016h-9v-4.016
		c0-0.276-0.224-0.5-0.5-0.5s-0.5,0.224-0.5,0.5v4.016h-9v-4.016c0-0.276-0.224-0.5-0.5-0.5s-0.5,0.224-0.5,0.5v4.016h-9v-4.016
		c0-0.276-0.224-0.5-0.5-0.5s-0.5,0.224-0.5,0.5v4.016h-9v-4.016c0-0.276-0.224-0.5-0.5-0.5s-0.5,0.224-0.5,0.5v4.016h-9v-4.016
		c0-0.276-0.224-0.5-0.5-0.5s-0.5,0.224-0.5,0.5v4.016h-9v-4.016c0-0.276-0.224-0.5-0.5-0.5s-0.5,0.224-0.5,0.5v4.016h-9v-4.016
		c0-0.276-0.224-0.5-0.5-0.5s-0.5,0.224-0.5,0.5v4.016H18.5V92.228h4.834c0.275,0,0.5-0.224,0.5-0.5s-0.225-0.5-0.5-0.5H18.5v-9
		h4.834c0.275,0,0.5-0.224,0.5-0.5s-0.225-0.5-0.5-0.5H18.5v-9h4.834c0.275,0,0.5-0.224,0.5-0.5s-0.225-0.5-0.5-0.5H18.5v-9h4.834
		c0.275,0,0.5-0.224,0.5-0.5s-0.225-0.5-0.5-0.5H18.5v-9h4.834c0.275,0,0.5-0.224,0.5-0.5s-0.225-0.5-0.5-0.5H18.5v-9h4.834
		c0.275,0,0.5-0.224,0.5-0.5s-0.225-0.5-0.5-0.5H18.5v-9h4.834c0.275,0,0.5-0.224,0.5-0.5s-0.225-0.5-0.5-0.5H18.5v-9h4.834
		c0.275,0,0.5-0.224,0.5-0.5s-0.225-0.5-0.5-0.5H18.5v-7.121c0-0.828-0.672-1.5-1.5-1.5s-1.5,0.672-1.5,1.5v97.787
		c0,0.828,0.672,1.5,1.5,1.5h92c0.829,0,1.5-0.672,1.5-1.5S109.829,110.394,109,110.394z"/>
	<g>
		<path d="M87.897,98.75H28.103V86.5h59.795V98.75z M30.103,96.75h15.795V88.5H30.103V96.75z"/>
	</g>
	<g>
		<path d="M71.603,77h-43.5V64.75h43.5V77z M30.103,75h32.5v-8.25h-32.5V75z"/>
	</g>
	<g>
		<path d="M85.853,55.5h-57.75V43.25h57.75V55.5z M30.103,53.5h23.75v-8.25h-23.75V53.5z"/>
	</g>
	<g>
		<path d="M79.103,33h-51V20.75h51V33z M30.103,31h37v-8.25h-37V31z"/>
	</g>
</g>
</svg>
