<?xml version="1.0" encoding="utf-8"?>
<!-- Generator: Adobe Illustrator 16.0.0, SVG Export Plug-In . SVG Version: 6.00 Build 0)  -->
<!DOCTYPE svg PUBLIC "-//W3C//DTD SVG 1.1//EN" "http://www.w3.org/Graphics/SVG/1.1/DTD/svg11.dtd">
<svg version="1.1" id="Layer_1" xmlns="http://www.w3.org/2000/svg" xmlns:xlink="http://www.w3.org/1999/xlink" x="0px" y="0px"
	 width="126px" height="126px" viewBox="0 0 126 126" enable-background="new 0 0 126 126" xml:space="preserve">
<g>
	<path d="M109,110.394h-8.167v-4.016c0-0.276-0.224-0.5-0.5-0.5s-0.5,0.224-0.5,0.5v4.016h-9v-4.016c0-0.276-0.224-0.5-0.5-0.5
		s-0.5,0.224-0.5,0.5v4.016h-9v-4.016c0-0.276-0.224-0.5-0.5-0.5s-0.5,0.224-0.5,0.5v4.016h-9v-4.016c0-0.276-0.224-0.5-0.5-0.5
		s-0.5,0.224-0.5,0.5v4.016h-9v-4.016c0-0.276-0.224-0.5-0.5-0.5s-0.5,0.224-0.5,0.5v4.016h-9v-4.016c0-0.276-0.224-0.5-0.5-0.5
		s-0.5,0.224-0.5,0.5v4.016h-9v-4.016c0-0.276-0.224-0.5-0.5-0.5s-0.5,0.224-0.5,0.5v4.016h-9v-4.016c0-0.276-0.224-0.5-0.5-0.5
		s-0.5,0.224-0.5,0.5v4.016H18.5V92.228h4.834c0.275,0,0.5-0.224,0.5-0.5s-0.225-0.5-0.5-0.5H18.5v-9h4.834
		c0.275,0,0.5-0.224,0.5-0.5s-0.225-0.5-0.5-0.5H18.5v-9h4.834c0.275,0,0.5-0.224,0.5-0.5s-0.225-0.5-0.5-0.5H18.5v-9h4.834
		c0.275,0,0.5-0.224,0.5-0.5s-0.225-0.5-0.5-0.5H18.5v-9h4.834c0.275,0,0.5-0.224,0.5-0.5s-0.225-0.5-0.5-0.5H18.5v-9h4.834
		c0.275,0,0.5-0.224,0.5-0.5s-0.225-0.5-0.5-0.5H18.5v-9h4.834c0.275,0,0.5-0.224,0.5-0.5s-0.225-0.5-0.5-0.5H18.5v-9h4.834
		c0.275,0,0.5-0.224,0.5-0.5s-0.225-0.5-0.5-0.5H18.5v-7.121c0-0.828-0.672-1.5-1.5-1.5s-1.5,0.672-1.5,1.5v97.787
		c0,0.828,0.672,1.5,1.5,1.5h92c0.828,0,1.5-0.672,1.5-1.5S109.828,110.394,109,110.394z"/>
	<polygon points="53.423,66.254 55.939,67.99 56.518,67.174 53.243,64.917 51.256,67.272 51.98,67.964 	"/>
	<polygon points="35.893,64.975 36.996,66.564 37.704,65.829 36.107,63.529 27.689,70.193 28.311,70.978 	"/>
	<polygon points="78.581,57.053 81.247,61.261 81.87,60.376 78.751,55.451 71.525,62.831 72.469,63.295 	"/>
	<polygon points="103.455,63.373 103.877,62.465 94.259,58 85.12,65.506 83.029,62.206 82.405,63.091 84.88,66.998 94.407,59.171 	
		"/>
	<polygon points="50.688,69.496 49.963,68.804 44.371,75.431 38.867,67.504 38.16,68.239 44.294,77.073 	"/>
	<polygon points="70.053,64.334 62.938,71.602 58.164,68.31 57.586,69.125 63.063,72.902 70.997,64.799 	"/>
	<polygon points="30.908,74.928 43.563,61.787 54.621,72.342 63.21,60.218 78.461,67.718 86.352,56.519 97.538,53.6 107.404,56.56 
		107.691,55.602 97.558,52.562 85.744,55.644 78.135,66.444 62.886,58.944 54.475,70.82 43.533,60.375 30.188,74.234 	"/>
	<polygon points="30.752,76.617 30.344,77.53 36.213,80.153 40.084,77.617 48.899,80.124 57.675,75.106 71.293,77.647 
		74.507,70.428 82.522,77.864 88.288,68.004 92.913,68.004 96.022,71.573 107.732,66.918 107.363,65.988 96.312,70.382 
		93.368,67.004 87.714,67.004 82.288,76.283 74.161,68.743 70.701,76.519 57.497,74.056 48.769,79.047 39.918,76.53 36.121,79.018 	
		"/>
</g>
</svg>
