<?xml version="1.0" encoding="utf-8"?>
<!-- Generator: Adobe Illustrator 16.0.0, SVG Export Plug-In . SVG Version: 6.00 Build 0)  -->
<!DOCTYPE svg PUBLIC "-//W3C//DTD SVG 1.1//EN" "http://www.w3.org/Graphics/SVG/1.1/DTD/svg11.dtd">
<svg version="1.1" id="Layer_1" xmlns="http://www.w3.org/2000/svg" xmlns:xlink="http://www.w3.org/1999/xlink" x="0px" y="0px"
	 width="126px" height="126px" viewBox="0 0 126 126" enable-background="new 0 0 126 126" xml:space="preserve">
<g>
	<path d="M109,110.394h-8.167v-4.016c0-0.276-0.224-0.5-0.5-0.5s-0.5,0.224-0.5,0.5v4.016h-9v-4.016c0-0.276-0.224-0.5-0.5-0.5
		s-0.5,0.224-0.5,0.5v4.016h-9v-4.016c0-0.276-0.224-0.5-0.5-0.5s-0.5,0.224-0.5,0.5v4.016h-9v-4.016c0-0.276-0.224-0.5-0.5-0.5
		s-0.5,0.224-0.5,0.5v4.016h-9v-4.016c0-0.276-0.224-0.5-0.5-0.5s-0.5,0.224-0.5,0.5v4.016h-9v-4.016c0-0.276-0.224-0.5-0.5-0.5
		s-0.5,0.224-0.5,0.5v4.016h-9v-4.016c0-0.276-0.224-0.5-0.5-0.5s-0.5,0.224-0.5,0.5v4.016h-9v-4.016c0-0.276-0.224-0.5-0.5-0.5
		s-0.5,0.224-0.5,0.5v4.016H18.5V92.228h4.834c0.275,0,0.5-0.224,0.5-0.5s-0.225-0.5-0.5-0.5H18.5v-9h4.834
		c0.275,0,0.5-0.224,0.5-0.5s-0.225-0.5-0.5-0.5H18.5v-9h4.834c0.275,0,0.5-0.224,0.5-0.5s-0.225-0.5-0.5-0.5H18.5v-9h4.834
		c0.275,0,0.5-0.224,0.5-0.5s-0.225-0.5-0.5-0.5H18.5v-9h4.834c0.275,0,0.5-0.224,0.5-0.5s-0.225-0.5-0.5-0.5H18.5v-9h4.834
		c0.275,0,0.5-0.224,0.5-0.5s-0.225-0.5-0.5-0.5H18.5v-9h4.834c0.275,0,0.5-0.224,0.5-0.5s-0.225-0.5-0.5-0.5H18.5v-9h4.834
		c0.275,0,0.5-0.224,0.5-0.5s-0.225-0.5-0.5-0.5H18.5v-7.121c0-0.828-0.672-1.5-1.5-1.5s-1.5,0.672-1.5,1.5v97.787
		c0,0.828,0.672,1.5,1.5,1.5h92c0.828,0,1.5-0.672,1.5-1.5S109.828,110.394,109,110.394z"/>
	<polygon points="57.829,46.272 79.07,56.597 106.872,38.598 106.385,48.335 108.383,48.435 109.042,35.256 94.851,34.561 
		94.753,36.559 105.526,37.086 78.93,54.305 57.171,43.728 43.239,63.595 27.497,54.583 26.503,56.319 43.829,66.238 	"/>
	<polygon points="106.723,69.445 110.355,56.76 96.691,52.864 96.143,54.787 106.268,57.674 79.688,69.532 63.06,54.144 
		40.069,71.843 27.661,69.729 27.325,71.7 40.597,73.961 62.94,56.759 79.298,71.896 107.549,59.292 104.801,68.895 	"/>
</g>
</svg>
