<?xml version="1.0" encoding="utf-8"?>
<!-- Generator: Adobe Illustrator 16.0.0, SVG Export Plug-In . SVG Version: 6.00 Build 0)  -->
<!DOCTYPE svg PUBLIC "-//W3C//DTD SVG 1.1//EN" "http://www.w3.org/Graphics/SVG/1.1/DTD/svg11.dtd">
<svg version="1.1" id="Layer_1" xmlns="http://www.w3.org/2000/svg" xmlns:xlink="http://www.w3.org/1999/xlink" x="0px" y="0px"
	 width="126px" height="126px" viewBox="0 0 126 126" enable-background="new 0 0 126 126" xml:space="preserve">
<g>
	<path fill="#010101" d="M111.894,107.5h-7.121v-4.834c0-0.275-0.224-0.5-0.5-0.5s-0.5,0.225-0.5,0.5v4.834h-9v-4.834
		c0-0.275-0.224-0.5-0.5-0.5s-0.5,0.225-0.5,0.5v4.834h-9v-4.834c0-0.275-0.224-0.5-0.5-0.5s-0.5,0.225-0.5,0.5v4.834h-9v-4.834
		c0-0.275-0.224-0.5-0.5-0.5s-0.5,0.225-0.5,0.5v4.834h-9v-4.834c0-0.275-0.224-0.5-0.5-0.5s-0.5,0.225-0.5,0.5v4.834h-9v-4.834
		c0-0.275-0.224-0.5-0.5-0.5s-0.5,0.225-0.5,0.5v4.834h-9v-4.834c0-0.275-0.224-0.5-0.5-0.5s-0.5,0.225-0.5,0.5v4.834h-9v-4.834
		c0-0.275-0.224-0.5-0.5-0.5s-0.5,0.225-0.5,0.5v4.834H15.606V96.167h4.016c0.276,0,0.5-0.224,0.5-0.5s-0.224-0.5-0.5-0.5h-4.016v-9
		h4.016c0.276,0,0.5-0.224,0.5-0.5s-0.224-0.5-0.5-0.5h-4.016v-9h4.016c0.276,0,0.5-0.224,0.5-0.5s-0.224-0.5-0.5-0.5h-4.016v-9
		h4.016c0.276,0,0.5-0.224,0.5-0.5s-0.224-0.5-0.5-0.5h-4.016v-9h4.016c0.276,0,0.5-0.224,0.5-0.5s-0.224-0.5-0.5-0.5h-4.016v-9
		h4.016c0.276,0,0.5-0.224,0.5-0.5s-0.224-0.5-0.5-0.5h-4.016v-9h4.016c0.276,0,0.5-0.224,0.5-0.5s-0.224-0.5-0.5-0.5h-4.016v-9
		h4.016c0.276,0,0.5-0.224,0.5-0.5s-0.224-0.5-0.5-0.5h-4.016V17c0-0.829-0.672-1.5-1.5-1.5s-1.5,0.671-1.5,1.5v92
		c0,0.828,0.672,1.5,1.5,1.5h97.787c0.828,0,1.5-0.672,1.5-1.5S112.722,107.5,111.894,107.5z"/>
	<g>
		<path d="M39.5,97.897H27.25V28.103H39.5V97.897z M29.25,95.897h8.25V50.103h-8.25V95.897z"/>
	</g>
	<g>
		<path d="M61.25,97.897H49v-43.5h12.25V97.897z M51,95.897h8.25v-19.5H51V95.897z"/>
	</g>
	<g>
		<path d="M82.75,97.897H70.5v-57.75h12.25V97.897z M72.5,95.897h8.25v-34.75H72.5V95.897z"/>
	</g>
	<g>
		<path d="M105.25,97.897H93v-51h12.25V97.897z M95,95.897h8.25v-7H95V95.897z"/>
	</g>
</g>
</svg>
