<?xml version="1.0" encoding="utf-8"?>
<!-- Generator: Adobe Illustrator 16.0.0, SVG Export Plug-In . SVG Version: 6.00 Build 0)  -->
<!DOCTYPE svg PUBLIC "-//W3C//DTD SVG 1.1//EN" "http://www.w3.org/Graphics/SVG/1.1/DTD/svg11.dtd">
<svg version="1.1" id="Layer_2" xmlns="http://www.w3.org/2000/svg" xmlns:xlink="http://www.w3.org/1999/xlink" x="0px" y="0px"
	 width="126px" height="126px" viewBox="0 0 126 126" enable-background="new 0 0 126 126" xml:space="preserve">
<g>
	<path fill="#010101" d="M96.041,88.163c-0.127-0.997-0.404-1.992-0.843-2.955c-2.346-5.138-8.408-7.404-13.547-5.061
		c-2.222,1.014-3.904,2.725-4.911,4.754c-0.012,0.025-0.028,0.048-0.04,0.073c-0.101,0.208-0.186,0.421-0.272,0.634
		c-0.037,0.093-0.082,0.183-0.117,0.276c-0.055,0.148-0.096,0.301-0.145,0.452c-0.052,0.164-0.111,0.326-0.155,0.492
		c-0.022,0.085-0.036,0.173-0.056,0.259c-0.056,0.235-0.112,0.471-0.151,0.709c-0.003,0.022-0.004,0.045-0.008,0.067
		c-0.303,1.925-0.063,3.957,0.813,5.859c2.364,5.129,8.435,7.371,13.565,5.009c1.602-0.738,2.922-1.838,3.909-3.158
		c0.014-0.019,0.025-0.038,0.038-0.057c0.181-0.246,0.353-0.497,0.511-0.757c0.035-0.058,0.063-0.119,0.097-0.178
		c0.13-0.223,0.257-0.448,0.369-0.681c0.048-0.099,0.085-0.202,0.13-0.303c0.088-0.197,0.178-0.393,0.253-0.595
		c0.052-0.139,0.091-0.283,0.136-0.425c0.054-0.168,0.114-0.334,0.16-0.505c0.047-0.18,0.081-0.363,0.119-0.545
		c0.029-0.137,0.065-0.272,0.087-0.411c0.037-0.223,0.058-0.448,0.08-0.672c0.01-0.102,0.028-0.201,0.035-0.303
		c0.018-0.267,0.02-0.535,0.017-0.803c0-0.061,0.005-0.122,0.003-0.184c-0.009-0.309-0.034-0.618-0.071-0.928
		C96.043,88.206,96.043,88.184,96.041,88.163z"/>
	<path fill="#010101" d="M108.379,88.746l-0.033-0.012l0.05-1.023c3.199-1.51,4.596-5.334,3.113-8.56l-1.392-3.021
		c-1.055-2.287-3.364-3.765-5.884-3.765c-0.938,0-1.848,0.199-2.703,0.594l-0.073,0.034c-0.207-0.2-0.418-0.395-0.633-0.586
		l0.027-0.072c0.899-2.412,0.213-5.234-1.709-7.025c-0.094-0.087-0.195-0.171-0.301-0.253c-0.212-0.178-0.431-0.345-0.621-0.462
		c-0.406-0.262-0.83-0.475-1.26-0.634l-3.123-1.153c-0.698-0.257-1.433-0.388-2.185-0.388c-0.079,0-0.155,0.015-0.234,0.018V16.962
		c0-1.813-1.478-3.291-3.292-3.291H23.271c-1.813,0-3.289,1.477-3.289,3.291v81.776c0,1.813,1.476,3.29,3.289,3.29h38.355
		c0.187,0.409,0.419,0.802,0.64,1.096c1.211,1.719,3.191,2.746,5.296,2.746c0.936,0,1.844-0.199,2.698-0.592l0.067-0.031
		c0.209,0.201,0.421,0.398,0.637,0.591l-0.029,0.079c-0.603,1.618-0.541,3.375,0.175,4.947c0.716,1.571,2.003,2.771,3.626,3.378
		l3.108,1.16c0.408,0.154,0.844,0.267,1.213,0.324c0.38,0.068,0.768,0.103,1.152,0.103c0.938,0,1.845-0.199,2.691-0.59
		c1.569-0.722,2.764-2.012,3.367-3.639l0.026-0.069c0.288-0.004,0.575-0.015,0.863-0.031l0.034,0.074
		c1.42,3.111,5.151,4.7,8.535,3.219l3.063-1.397c0.395-0.179,0.775-0.402,1.133-0.664c2.541-1.804,3.438-5.151,2.134-7.981
		l-0.032-0.069c0.199-0.206,0.394-0.416,0.584-0.629l0.066,0.024c1.601,0.604,3.378,0.548,4.962-0.17
		c1.495-0.684,2.651-1.881,3.286-3.401l1.253-3.336l0.121-0.366C113.354,93.525,111.641,89.952,108.379,88.746z M60.069,94.044
		c-0.583,1.562-0.547,3.25,0.118,4.821l0.156,0.344H23.271c-0.26,0-0.47-0.211-0.47-0.47V17.016h65.326
		c0.165,0,0.321-0.027,0.471-0.066v0.052l-0.005,0.014v46.167c-1.379,0.724-2.49,1.916-3.054,3.414l-1.021-0.092
		c-1.083-2.202-3.344-3.615-5.812-3.615c-0.93,0-1.833,0.196-2.684,0.584l-3.027,1.381c-0.074,0.034-0.135,0.084-0.208,0.121v-1.87
		H33.073v1.88H72.77c-1.455,0.736-2.576,1.957-3.15,3.494c-0.6,1.604-0.545,3.342,0.15,4.898l-0.631,0.802l-0.038-0.014
		c-0.726-0.271-1.485-0.407-2.257-0.407c-2.617,0-4.998,1.603-5.971,3.96l-1.275,3.399l-0.104,0.326
		c-0.042,0.139-0.078,0.284-0.115,0.444l-0.08,0.342c-0.25,1.326-0.086,2.672,0.48,3.906c0.729,1.572,2.023,2.765,3.633,3.354
		l0.077,0.029c0.001,0.151,0.005,0.305,0.011,0.461l0.015,0.224c0.003,0.061,0.006,0.121,0.009,0.181l-0.079,0.036
		C61.874,91.136,60.674,92.423,60.069,94.044z M108.925,96.174l-0.008,0.022c-0.008,0.023-0.009,0.048-0.018,0.071l-0.585,1.564
		l-0.541,1.465c-0.009,0.024-0.023,0.044-0.033,0.068l-0.007,0.02c-0.278,0.746-0.829,1.336-1.551,1.666
		c-0.723,0.328-1.533,0.357-2.273,0.078l-2.465-0.919c-1.013,1.469-2.24,2.801-3.664,3.95l1.098,2.383
		c0.611,1.326,0.155,2.869-1.002,3.676c-0.164,0.122-0.341,0.229-0.535,0.317l-2.613,1.192l-0.33,0.153
		c-0.005,0.002-0.009,0.002-0.014,0.005l-0.072,0.033c-1.491,0.679-3.257,0.019-3.937-1.472l-1.09-2.39
		c-1.803,0.329-3.614,0.386-5.391,0.193l-0.909,2.465c-0.275,0.743-0.823,1.337-1.546,1.67c-0.559,0.258-1.169,0.328-1.763,0.222
		c-0.202-0.031-0.402-0.08-0.598-0.154l-3.118-1.164c-0.744-0.278-1.336-0.828-1.665-1.55c-0.33-0.724-0.357-1.532-0.081-2.274
		L75.137,105c-1.472-1.014-2.807-2.245-3.958-3.672l-2.382,1.097c-1.321,0.608-2.859,0.159-3.669-0.991
		c-0.122-0.164-0.23-0.342-0.318-0.536l-1.16-2.544l-0.188-0.408c-0.002-0.005-0.004-0.012-0.006-0.017l-0.027-0.06
		c-0.681-1.491-0.021-3.258,1.471-3.938l2.389-1.089c-0.071-0.392-0.124-0.785-0.169-1.177c-0.005-0.046-0.014-0.092-0.02-0.137
		c-0.042-0.389-0.067-0.777-0.086-1.165c-0.003-0.069-0.012-0.139-0.015-0.207c-0.014-0.384-0.01-0.767-0.001-1.148
		c0.002-0.073-0.002-0.145,0.001-0.217c0.012-0.334,0.042-0.667,0.071-0.999c0.011-0.115,0.013-0.231,0.025-0.347l-2.467-0.912
		c-0.743-0.272-1.337-0.823-1.671-1.543c-0.26-0.566-0.329-1.185-0.216-1.786c0.007-0.046,0.026-0.09,0.035-0.135
		c0.028-0.118,0.05-0.237,0.093-0.354l0.004-0.009c0.008-0.023,0.01-0.047,0.019-0.07l0.536-1.434l0.594-1.609
		c0.009-0.024,0.024-0.043,0.033-0.067l0.003-0.008c0.575-1.536,2.29-2.318,3.824-1.746l2.466,0.92
		c0.217-0.314,0.444-0.623,0.682-0.925c0.001,0,0.003,0.001,0.005,0.002c0.882-1.126,1.893-2.162,3.034-3.078l-1.089-2.389
		c-0.681-1.49-0.021-3.256,1.472-3.938l3.025-1.38c1.493-0.68,3.259-0.021,3.939,1.469l1.09,2.392
		c1.694-0.31,3.394-0.371,5.067-0.219c0-0.002,0-0.004,0-0.007c0.109,0.01,0.218,0.012,0.327,0.023l0.911-2.469
		c0.549-1.489,2.329-2.309,3.819-1.759l3.121,1.153c0.208,0.077,0.398,0.177,0.577,0.292c0.115,0.071,0.217,0.159,0.319,0.245
		c0.037,0.032,0.08,0.058,0.115,0.091c0.862,0.803,1.238,2.105,0.814,3.24l-0.921,2.46c1.472,1.015,2.806,2.24,3.958,3.667
		l2.387-1.101c1.488-0.686,3.256-0.031,3.943,1.458l1.391,3.021c0.686,1.491,0.033,3.259-1.456,3.944l-2.384,1.1
		c0.268,1.443,0.357,2.892,0.289,4.325c0,0,0.001,0,0.001,0c-0.007,0.17-0.026,0.337-0.038,0.507
		c-0.016,0.208-0.023,0.418-0.045,0.626l2.47,0.912C108.703,92.924,109.492,94.636,108.925,96.174z"/>
	<rect x="28.727" y="33.33" fill="#010101" width="3.289" height="1.88"/>
	<rect x="33.073" y="33.33" fill="#010101" width="39.714" height="1.88"/>
	<rect x="28.727" y="42.991" fill="#010101" width="3.289" height="1.88"/>
	<rect x="33.073" y="42.991" fill="#010101" width="39.714" height="1.88"/>
	<rect x="33.073" y="52.547" fill="#010101" width="39.714" height="1.88"/>
	<rect x="28.727" y="52.547" fill="#010101" width="3.289" height="1.88"/>
	<rect x="28.727" y="63.105" fill="#010101" width="3.289" height="1.88"/>
	<polygon fill="#010101" points="85.897,20.636 76.393,20.636 85.897,30.141 	"/>
</g>
</svg>
