<?xml version="1.0" encoding="utf-8"?>
<!-- Generator: Adobe Illustrator 16.0.0, SVG Export Plug-In . SVG Version: 6.00 Build 0)  -->
<!DOCTYPE svg PUBLIC "-//W3C//DTD SVG 1.1//EN" "http://www.w3.org/Graphics/SVG/1.1/DTD/svg11.dtd">
<svg version="1.1" id="Layer_1" xmlns="http://www.w3.org/2000/svg" xmlns:xlink="http://www.w3.org/1999/xlink" x="0px" y="0px"
	 width="126px" height="126px" viewBox="0 0 126 126" enable-background="new 0 0 126 126" xml:space="preserve">
<g>
	<circle cx="35.029" cy="39.4" r="7.236"/>
	<path d="M42.266,75.43V59.154c6.472-0.21,12.735-1.745,18.597-4.765c3.89-2.004,0.457-7.858-3.424-5.857
		c-5.029,2.591-10.369,3.739-15.893,3.854c-0.936-1.632-2.691-2.734-4.707-2.734h-3.618c-2.998,0-5.428,2.43-5.428,5.427V75.43
		c0,1.391,0.527,2.655,1.387,3.615c0.783,9.158,0.456,18.273-4.616,26.331c-2.339,3.714,3.534,7.115,5.857,3.424
		c5.371-8.532,6.291-18.197,5.672-27.943h0.208c2.17,6.853,3.106,13.862,3.176,21.105c0.043,4.373,6.826,4.376,6.784,0
		c-0.082-8.596-1.273-17.042-4.181-25.147C42.196,76.372,42.266,75.909,42.266,75.43z"/>
	<polygon points="10.869,15.61 10.869,66.61 25.744,66.61 25.744,62.61 14.869,62.61 14.869,19.61 111.131,19.61 111.131,62.61 
		44.217,62.61 44.217,66.61 115.131,66.61 115.131,15.61 	"/>
	<rect x="44.217" y="69.277" width="70.914" height="4"/>
	<rect x="10.869" y="69.277" width="14.875" height="4"/>
	<path d="M83.51,58.566c2.016,0,3.936-0.629,5.574-1.809c1.639,1.18,3.559,1.809,5.574,1.809c5.284,0,9.583-4.299,9.583-9.583
		c0-5.284-4.299-9.583-9.583-9.583c-2.016,0-3.936,0.629-5.574,1.809c-1.639-1.18-3.559-1.809-5.574-1.809
		c-5.284,0-9.583,4.299-9.583,9.583C73.927,54.267,78.226,58.566,83.51,58.566z M94.658,40.137c4.877,0,8.846,3.969,8.846,8.846
		c0,4.877-3.969,8.846-8.846,8.846c-1.785,0-3.493-0.53-4.966-1.538c2.167-1.828,3.4-4.465,3.4-7.309c0-2.843-1.233-5.48-3.4-7.309
		C91.165,40.667,92.873,40.137,94.658,40.137z M92.355,48.983c0,2.678-1.193,5.149-3.271,6.84c-2.077-1.691-3.271-4.163-3.271-6.84
		c0-2.677,1.194-5.148,3.271-6.84C91.162,43.834,92.355,46.306,92.355,48.983z M83.51,40.137c1.785,0,3.494,0.53,4.966,1.537
		c-2.167,1.829-3.4,4.465-3.4,7.309c0,2.844,1.233,5.48,3.4,7.309c-1.472,1.007-3.181,1.538-4.966,1.538
		c-4.877,0-8.846-3.969-8.846-8.846C74.664,44.106,78.633,40.137,83.51,40.137z"/>
	<path d="M73.5,26.483c-0.553,0-1,0.448-1,1v6.984c-7.14-4.221-16.118-4.234-24.076-4.234c-0.553,0-1,0.448-1,1s0.447,1,1,1
		c7.684,0,16.352,0.012,23.021,3.935l-6.287,2.293c-0.519,0.189-0.786,0.763-0.597,1.282c0.148,0.406,0.531,0.658,0.939,0.658
		c0.114,0,0.229-0.02,0.343-0.061l7.999-2.917c0.395-0.144,0.657-0.519,0.657-0.939v-1.5v-7.5
		C74.5,26.931,74.053,26.483,73.5,26.483z"/>
</g>
</svg>
