<?xml version="1.0" encoding="utf-8"?>
<!-- Generator: Adobe Illustrator 16.0.0, SVG Export Plug-In . SVG Version: 6.00 Build 0)  -->
<!DOCTYPE svg PUBLIC "-//W3C//DTD SVG 1.1//EN" "http://www.w3.org/Graphics/SVG/1.1/DTD/svg11.dtd">
<svg version="1.1" id="Layer_1" xmlns="http://www.w3.org/2000/svg" xmlns:xlink="http://www.w3.org/1999/xlink" x="0px" y="0px"
	 width="126px" height="126px" viewBox="0 0 126 126" enable-background="new 0 0 126 126" xml:space="preserve">
<g>
	<circle cx="35.029" cy="39.4" r="7.236"/>
	<path d="M42.266,75.43V59.154c6.472-0.21,12.735-1.745,18.597-4.765c3.89-2.004,0.457-7.858-3.424-5.857
		c-5.029,2.591-10.369,3.739-15.893,3.854c-0.936-1.632-2.691-2.734-4.707-2.734h-3.618c-2.998,0-5.428,2.43-5.428,5.427V75.43
		c0,1.391,0.527,2.655,1.387,3.615c0.783,9.158,0.456,18.273-4.616,26.331c-2.339,3.714,3.534,7.115,5.857,3.424
		c5.371-8.532,6.291-18.197,5.672-27.943h0.208c2.17,6.853,3.106,13.862,3.176,21.105c0.043,4.373,6.826,4.376,6.784,0
		c-0.082-8.596-1.273-17.042-4.181-25.147C42.196,76.372,42.266,75.909,42.266,75.43z"/>
	<polygon points="10.869,15.61 10.869,66.61 25.744,66.61 25.744,62.61 14.869,62.61 14.869,19.61 111.131,19.61 111.131,62.61 
		44.217,62.61 44.217,66.61 115.131,66.61 115.131,15.61 	"/>
	<rect x="44.217" y="69.277" width="70.914" height="4"/>
	<rect x="10.869" y="69.277" width="14.875" height="4"/>
	<path d="M70.065,39.324c4.792,6.485,9.748,13.19,18.849,13.967l0.17-1.993c-8.2-0.7-12.882-7.036-17.41-13.163
		c-6.365-8.614-12.948-17.522-28.875-9.483l0.9,1.785C58.119,23.161,63.655,30.65,70.065,39.324z"/>
	<polygon points="93.415,57.838 97.5,53.753 101.585,57.838 103.043,56.38 98.958,52.295 103.043,48.21 101.585,46.752 97.5,50.837 
		93.415,46.752 91.957,48.21 96.042,52.295 91.957,56.38 	"/>
</g>
</svg>
