<?xml version="1.0" encoding="utf-8"?>
<!-- Generator: Adobe Illustrator 16.0.0, SVG Export Plug-In . SVG Version: 6.00 Build 0)  -->
<!DOCTYPE svg PUBLIC "-//W3C//DTD SVG 1.1//EN" "http://www.w3.org/Graphics/SVG/1.1/DTD/svg11.dtd">
<svg version="1.1" id="Layer_2" xmlns="http://www.w3.org/2000/svg" xmlns:xlink="http://www.w3.org/1999/xlink" x="0px" y="0px"
	 width="126px" height="126px" viewBox="0 0 126 126" enable-background="new 0 0 126 126" xml:space="preserve">
<g>
	<path d="M115.539,75.88h-5.043V29.153h5.043c1.32,0,2.39-1.07,2.39-2.389c0-1.32-1.07-2.391-2.39-2.391h-7.434H77.309v-2.225
		c0-0.649-0.527-1.177-1.178-1.177s-1.177,0.527-1.177,1.177v2.225H46.511h-7.434c-1.32,0-2.39,1.07-2.39,2.391
		c0,1.318,1.07,2.389,2.39,2.389h5.045v3.06c0.53-0.129,1.069-0.196,1.612-0.196c0.491,0,0.97,0.072,1.44,0.177v-3.04h60.267V75.88
		H47.175V46.019c-1.004,0.461-2.024,0.88-3.053,1.271v28.59h-5.045c-1.32,0-2.39,1.069-2.39,2.39c0,1.318,1.07,2.389,2.39,2.389
		h7.434h31.411c-0.074,0.044-0.145,0.09-0.211,0.143c-0.039,0.031-0.079,0.062-0.116,0.096c-0.08,0.073-0.152,0.153-0.219,0.239
		c-0.019,0.023-0.042,0.041-0.06,0.065l-13.033,18.21c-0.639,0.895-0.433,2.138,0.461,2.778c0.894,0.639,2.138,0.434,2.778-0.46
		l9.422-13.166v21.191c0,1.101,0.891,1.991,1.991,1.991s1.991-0.891,1.991-1.991V88.563l9.422,13.166
		c0.389,0.543,1,0.832,1.621,0.832c0.402,0,0.807-0.121,1.158-0.372c0.894-0.641,1.1-1.884,0.46-2.778l-13.033-18.21
		c-0.018-0.024-0.041-0.042-0.06-0.065c-0.067-0.086-0.139-0.166-0.219-0.239c-0.037-0.034-0.077-0.064-0.116-0.096
		c-0.066-0.053-0.138-0.099-0.211-0.143h28.156h7.434c1.32,0,2.39-1.07,2.39-2.389C117.929,76.949,116.859,75.88,115.539,75.88z"/>
	<path d="M65.609,47.039c-0.909,0-1.691,0.533-2.067,1.299l-8.971,0.716c-0.409-0.649-1.129-1.086-1.952-1.086
		c-1.275,0-2.312,1.037-2.312,2.312s1.036,2.312,2.312,2.312c0.915,0,1.701-0.539,2.076-1.313l8.955-0.714
		c0.409,0.657,1.131,1.099,1.959,1.099c0.309,0,0.603-0.063,0.872-0.173l7.115,6.461c-0.013,0.092-0.029,0.183-0.029,0.277
		c0,1.274,1.037,2.313,2.312,2.313c1.274,0,2.312-1.038,2.312-2.313c0-0.126-0.018-0.248-0.037-0.369l5.696-5.162
		c0.262,0.104,0.546,0.165,0.844,0.165c0.547,0,1.044-0.199,1.44-0.519l5.798,2.899c0.122,1.161,1.095,2.073,2.288,2.073
		c1.274,0,2.313-1.037,2.313-2.312c0-0.276-0.058-0.538-0.147-0.785l5.119-6.214c0.158,0.034,0.324,0.056,0.494,0.056
		c1.275,0,2.312-1.037,2.312-2.312s-1.037-2.313-2.312-2.313c-1.274,0-2.312,1.038-2.312,2.313c0,0.275,0.057,0.537,0.145,0.781
		l-5.118,6.218c-0.16-0.035-0.324-0.057-0.493-0.057c-0.535,0-1.023,0.191-1.415,0.497l-5.828-2.913
		c-0.139-1.146-1.104-2.038-2.285-2.038c-1.274,0-2.312,1.038-2.312,2.313c0,0.147,0.017,0.291,0.043,0.432L76.779,56.1
		c-0.277-0.118-0.581-0.184-0.9-0.184c-0.347,0-0.673,0.082-0.968,0.22l-7.029-6.384c0.022-0.131,0.04-0.264,0.04-0.4
		C67.921,48.077,66.884,47.039,65.609,47.039z M52.619,51.478c-0.662,0-1.199-0.537-1.199-1.198c0-0.662,0.537-1.199,1.199-1.199
		s1.198,0.537,1.198,1.199C53.817,50.94,53.281,51.478,52.619,51.478z M65.609,50.55c-0.662,0-1.198-0.536-1.198-1.198
		s0.537-1.199,1.198-1.199c0.662,0,1.199,0.537,1.199,1.199S66.271,50.55,65.609,50.55z M101.999,44.551
		c0.663,0,1.199,0.536,1.199,1.198s-0.537,1.198-1.199,1.198c-0.661,0-1.198-0.536-1.198-1.198S101.337,44.551,101.999,44.551z
		 M94.221,53.805c0.662,0,1.198,0.537,1.198,1.199c0,0.661-0.536,1.198-1.198,1.198c-0.662,0-1.199-0.537-1.199-1.198
		C93.022,54.342,93.56,53.805,94.221,53.805z M84.694,49.352c0.662,0,1.198,0.536,1.198,1.198s-0.536,1.198-1.198,1.198
		c-0.662,0-1.199-0.536-1.199-1.198S84.033,49.352,84.694,49.352z M75.879,57.03c0.661,0,1.198,0.536,1.198,1.197
		c0,0.662-0.537,1.199-1.198,1.199c-0.662,0-1.198-0.537-1.198-1.199C74.681,57.566,75.217,57.03,75.879,57.03z"/>
	<circle cx="21.095" cy="22.817" r="8.563"/>
	<path d="M29.658,65.454V46.193c7.659-0.249,15.071-2.064,22.007-5.639c4.603-2.373,0.541-9.3-4.052-6.932
		c-5.951,3.066-12.271,4.425-18.808,4.56c-1.106-1.931-3.184-3.235-5.57-3.235h-4.281c-3.548,0-6.423,2.876-6.423,6.423v24.084
		c0,1.646,0.624,3.142,1.642,4.278C15.1,80.57,14.712,91.356,8.71,100.892c-2.768,4.395,4.183,8.42,6.932,4.052
		c6.356-10.097,7.445-21.534,6.712-33.067H22.6c2.568,8.109,3.676,16.403,3.758,24.976c0.051,5.175,8.078,5.18,8.028,0
		c-0.097-10.172-1.507-20.167-4.948-29.759C29.577,66.568,29.658,66.021,29.658,65.454z"/>
</g>
</svg>
