<?xml version="1.0" encoding="utf-8"?>
<!-- Generator: Adobe Illustrator 16.0.0, SVG Export Plug-In . SVG Version: 6.00 Build 0)  -->
<!DOCTYPE svg PUBLIC "-//W3C//DTD SVG 1.1//EN" "http://www.w3.org/Graphics/SVG/1.1/DTD/svg11.dtd">
<svg version="1.1" id="Layer_1" xmlns="http://www.w3.org/2000/svg" xmlns:xlink="http://www.w3.org/1999/xlink" x="0px" y="0px"
	 width="126px" height="126px" viewBox="0 0 126 126" enable-background="new 0 0 126 126" xml:space="preserve">
<path d="M117.833,63c0-30.235-24.598-54.833-54.833-54.833c-8.766,0-17.43,2.139-25.178,6.15l-0.023-0.042l-1.313,0.727
	l-1.311,0.726l0.021,0.039c-6.445,3.806-12.108,8.949-16.523,15.006l-0.036-0.025l-0.849,1.235l-0.85,1.237l0.023,0.016
	C11.207,42.112,8.167,52.367,8.167,63c0,1.12,0.053,2.277,0.13,3.466l-0.03,0.003L8.4,67.962l0.135,1.496l0.045-0.004
	c1.968,16.72,11.567,31.635,26.008,40.407l-0.021,0.04l1.274,0.728l1.331,0.761l0.012-0.022c7.918,4.233,16.809,6.467,25.815,6.467
	c13.516,0,26.398-4.939,36.461-13.917l0.024,0.025l1.087-1.024l1.097-1.033l-0.026-0.027C112.087,91.49,117.833,77.757,117.833,63z
	 M63,11.167c5.597,0,10.984,0.903,16.038,2.551l-1.603,4.904c-4.549-1.483-9.398-2.295-14.435-2.295
	c-7.387,0-14.699,1.764-21.244,5.113L39.26,16.92C46.565,13.152,54.74,11.167,63,11.167z M11.272,66.196
	c-0.071-1.103-0.106-2.159-0.106-3.196c0-10.024,2.852-19.697,8.261-28.071l4.257,2.92C18.866,45.362,16.327,54.025,16.327,63
	c0,0.89,0.028,1.792,0.085,2.729L11.272,66.196z M19.514,66.955c-0.126-1.399-0.187-2.693-0.187-3.955
	c0-8.868,2.649-17.41,7.661-24.703c3.833-5.577,8.984-10.255,14.896-13.527c6.432-3.561,13.734-5.443,21.116-5.443
	c4.712,0,9.248,0.759,13.503,2.146L63,62.796l37.543-22.075c3.888,6.527,6.13,14.145,6.13,22.278
	c0,12.167-4.892,23.467-13.773,31.817c-8.132,7.646-18.751,11.856-29.9,11.856c-7.638,0-15.167-2.013-21.772-5.82
	C28.899,93.746,20.781,81.073,19.514,66.955z M63,114.833c-8.507,0-16.906-2.105-24.386-6.101l2.461-4.535
	c6.729,3.586,14.275,5.475,21.925,5.475c11.417,0,22.314-4.131,30.851-11.665l3.554,3.742C87.902,110.199,75.745,114.833,63,114.833
	z M99.589,99.695l-2.991-3.15l-0.561-0.591c8.805-8.809,13.636-20.453,13.636-32.954c0-8.688-2.394-16.825-6.545-23.798l4.446-2.614
	c4.604,7.741,7.259,16.771,7.259,26.413C114.833,76.927,109.432,89.899,99.589,99.695z"/>
</svg>
