<?xml version="1.0" encoding="utf-8"?>
<!-- Generator: Adobe Illustrator 16.0.0, SVG Export Plug-In . SVG Version: 6.00 Build 0)  -->
<!DOCTYPE svg PUBLIC "-//W3C//DTD SVG 1.1//EN" "http://www.w3.org/Graphics/SVG/1.1/DTD/svg11.dtd">
<svg version="1.1" id="Layer_1" xmlns="http://www.w3.org/2000/svg" xmlns:xlink="http://www.w3.org/1999/xlink" x="0px" y="0px"
	 width="126px" height="126px" viewBox="0 0 126 126" enable-background="new 0 0 126 126" xml:space="preserve">
<g>
	<path d="M106.954,58.339l0.015,1.359h10.223l-0.013-1.387c-0.251-27.184-22.57-49.503-49.754-49.753l-1.387-0.013v10.222
		l1.359,0.015C88.974,19.018,106.719,36.763,106.954,58.339z"/>
	<path d="M99.044,67.661c-0.12,10.982-4.598,21.177-12.607,28.707c-7.45,7.004-17.179,10.862-27.393,10.862
		c-6.998,0-13.896-1.844-19.946-5.332c-11.295-6.512-18.732-18.121-19.894-31.056v-0.002c-0.115-1.277-0.172-2.462-0.172-3.622
		c0-8.125,2.428-15.95,7.019-22.632c3.513-5.109,8.231-9.395,13.647-12.394c5.744-3.18,12.281-4.898,18.903-4.972l1.358-0.015
		V16.984l-1.387,0.014c-7.877,0.072-15.652,2.025-22.596,5.619l-0.021-0.038l-1.203,0.666l-1.201,0.665l0.02,0.035
		c-5.906,3.487-11.095,8.199-15.139,13.748l-0.033-0.022l-0.777,1.131l-0.779,1.134l0.021,0.015
		c-5.271,8.132-8.056,17.527-8.056,27.269c0,1.027,0.048,2.088,0.119,3.176L8.9,70.397l0.122,1.365c0,0.001,0,0.002,0,0.002
		l0.124,1.37l0.041-0.004c1.802,15.317,10.597,28.982,23.827,37.02l-0.02,0.035l1.168,0.668l1.219,0.696l0.022-0.04
		c7.254,3.878,15.389,5.944,23.64,5.944c12.383,0,24.186-4.524,33.404-12.75l0.021,0.023l0.996-0.938l1.005-0.946l-0.023-0.024
		c9.438-9.371,14.697-21.785,14.82-35.129l0.014-1.387H99.059L99.044,67.661z M57.212,19.779v4.73
		c-6.147,0.264-12.19,1.852-17.631,4.633l-2.286-4.14C43.433,21.839,50.265,20.047,57.212,19.779z M34.89,26.334l2.287,4.14
		c-4.896,2.923-9.21,6.841-12.595,11.438l-3.899-2.675C24.484,34.037,29.355,29.613,34.89,26.334z M11.902,72.884l4.709-0.428
		c1.572,12.832,8.93,24.308,19.963,31.136l-1.835,3.381l-0.423,0.779C21.891,100.157,13.619,87.291,11.902,72.884z M92.565,100.836
		l-3.255-3.427c7.617-7.623,11.996-17.6,12.445-28.358h4.731C106.034,81.116,101.132,92.309,92.565,100.836z"/>
</g>
</svg>
