<?xml version="1.0" encoding="utf-8"?>
<!-- Generator: Adobe Illustrator 16.0.0, SVG Export Plug-In . SVG Version: 6.00 Build 0)  -->
<!DOCTYPE svg PUBLIC "-//W3C//DTD SVG 1.1//EN" "http://www.w3.org/Graphics/SVG/1.1/DTD/svg11.dtd">
<svg version="1.1" id="Layer_1" xmlns="http://www.w3.org/2000/svg" xmlns:xlink="http://www.w3.org/1999/xlink" x="0px" y="0px"
	 width="126px" height="126px" viewBox="0 0 126 126" enable-background="new 0 0 126 126" xml:space="preserve">
<g>
	<path d="M111.718,43.034c0-16.441-13.375-29.816-29.816-29.816c-8.775,0-17.021,3.827-22.704,10.504
		c-4.566-2.687-9.772-4.114-15.099-4.114c-16.441,0-29.816,13.375-29.816,29.815c0,14.834,10.96,27.419,25.579,29.5
		c-0.182,1.335-0.288,2.69-0.288,4.044c0,16.44,13.375,29.815,29.815,29.815c16.441,0,29.816-13.375,29.816-29.815
		c0-4.739-1.148-9.436-3.305-13.625C105.666,64.139,111.718,54.113,111.718,43.034z M109.423,34.72l-1.682-0.721l0.778-1.817
		C108.858,33.01,109.161,33.855,109.423,34.72z M59.437,25.115c1.917,1.211,3.647,2.625,5.191,4.19l-6.633-2.216
		C58.446,26.413,58.927,25.754,59.437,25.115z M94.329,68.942c-2.942,1.417-6.043,2.313-9.259,2.667l6.76-6.584
		c0.957,1.195,1.828,2.469,2.592,3.82L94.329,68.942z M83.503,71.74c-0.531,0.029-1.065,0.045-1.602,0.045
		c-1.987,0-3.955-0.213-5.878-0.616l11.311-10.633c1.393,1.113,2.682,2.358,3.853,3.72L83.503,71.74z M74.855,70.895
		c-1.785-0.453-3.521-1.079-5.19-1.867l12.409-11.832c1.566,0.771,3.058,1.682,4.457,2.722L74.855,70.895z M68.711,68.557
		c-0.412-0.214-0.824-0.427-1.227-0.66c2.263-2.861,3.967-6.103,5.051-9.554l3.253-3.38c1.838,0.42,3.619,1.012,5.32,1.772
		L68.711,68.557z M41.309,76.863c0.641-2.948,1.738-5.751,3.233-8.319l1.631,9.548c-0.688,0.049-1.378,0.083-2.074,0.083
		c-0.833,0-1.683-0.056-2.55-0.138L41.309,76.863z M47.175,78.01l-1.839-10.754c1.339-2.045,2.939-3.914,4.759-5.566l2.329,15.247
		C50.721,77.452,48.967,77.818,47.175,78.01z M50.988,60.913c1.389-1.161,2.893-2.196,4.5-3.088l2.669,16.667
		c-1.521,0.855-3.115,1.576-4.769,2.141L50.988,60.913z M68.546,64.552l-2.732-2.293l2.493-2.092l1.813,1.474
		C69.649,62.639,69.128,63.611,68.546,64.552z M60.021,61.674l1.893-1.383l2.345,1.968l-2.047,1.718
		C61.438,63.25,60.708,62.48,60.021,61.674z M72.167,55.622l-0.933,0.783l-1.896-1.541l0.858-0.627
		c0.731,0.021,1.467,0.063,2.227,0.145C72.352,54.799,72.258,55.21,72.167,55.622z M70.454,57.06l-2.158,1.811l-2.101-1.708
		l2.31-1.688L70.454,57.06z M67.081,54.316l0.622,0.506l-2.31,1.688l-2.034-1.654C64.581,54.594,65.822,54.416,67.081,54.316z
		 M62.135,55.148l2.424,1.971l-2.603,1.902l-3.263-2.737C59.82,55.83,60.969,55.453,62.135,55.148z M57.664,56.726l3.461,2.903
		l-1.734,1.268c-0.948-1.193-1.813-2.455-2.564-3.791C57.104,56.971,57.385,56.852,57.664,56.726z M62.744,59.684l2.616-1.912
		l2.156,1.753l-2.48,2.082L62.744,59.684z M70.541,60.695l-1.455-1.183l2.158-1.811l0.291,0.236l-0.019,0.02
		c-0.01,0.085-0.027,0.168-0.045,0.252C71.201,59.053,70.888,59.881,70.541,60.695z M72.57,53.338
		c-1.086-0.117-2.137-0.188-3.182-0.188c-2.35,0-4.647,0.274-6.883,0.807l-8.149-2.723c-0.572-1.918-0.939-3.897-1.103-5.898
		l19.379,7.412C72.609,52.944,72.597,53.143,72.57,53.338z M60.768,54.432c-1.511,0.46-2.99,1.036-4.432,1.74
		c-0.623-1.21-1.146-2.468-1.592-3.753L60.768,54.432z M59.082,73.953L56.67,58.881c1.609,2.559,3.596,4.851,5.885,6.808l1,4.886
		C62.168,71.852,60.67,72.98,59.082,73.953z M64.406,69.749l-0.628-3.073c0.683,0.524,1.379,1.029,2.106,1.494
		C65.412,68.72,64.914,69.24,64.406,69.749z M62.965,64.649l2.071-1.738l2.958,2.482c-0.449,0.672-0.917,1.332-1.424,1.967
		C65.293,66.554,64.094,65.64,62.965,64.649z M73.099,56.313c0.141-0.592,0.265-1.189,0.368-1.791
		c0.391,0.056,0.777,0.129,1.163,0.2L73.099,56.313z M53.186,44.239c-0.017-0.401-0.036-0.803-0.036-1.205
		c0-1.387,0.123-2.763,0.322-4.124l19.212,7.506c0.102,0.992,0.167,1.993,0.167,3.007c0,0.766-0.045,1.532-0.109,2.297
		L53.186,44.239z M53.628,37.898c0.319-1.74,0.808-3.44,1.437-5.089l15.699,5.815v-0.001c0.856,2.12,1.454,4.356,1.784,6.665
		L53.628,37.898z M55.436,31.881c0.572-1.354,1.252-2.66,2.025-3.915l8.537,2.853l0.006-0.02c1.703,1.99,3.117,4.192,4.208,6.556
		L55.436,31.881z M15.393,50.65l1.6,1.6l-1.339,1.339C15.512,52.624,15.436,51.641,15.393,50.65z M32.435,75.701l0.034-0.034
		l0.089,0.089C32.517,75.737,32.476,75.72,32.435,75.701z M34.744,76.607l0.086-0.087l-1.607-1.607l1.607-1.607l-0.754-0.754
		l-1.607,1.607l-1.607-1.607l-0.754,0.754l1.607,1.607l-0.307,0.308c-8.182-4.032-14.098-11.824-15.651-20.991l0.382,0.382
		l1.607-1.607l1.607,1.607l0.754-0.754L18.5,52.25l1.607-1.607l-0.754-0.754l-1.607,1.607l-1.607-1.607l-0.747,0.747
		c-0.017-0.404-0.045-0.806-0.045-1.213c0-4.397,0.995-8.565,2.769-12.296l1.238,1.238l0.754-0.754l-1.487-1.487
		c0.089-0.169,0.175-0.34,0.267-0.507l1.221-1.221l-0.311-0.311c5.102-8.053,14.084-13.414,24.302-13.414
		c5.078,0,10.048,1.336,14.413,3.869c-4.149,5.244-6.427,11.786-6.427,18.493c0,0.142,0.011,0.283,0.013,0.425l-1.57-1.57
		l-0.754,0.754l1.607,1.607l-1.607,1.607l0.754,0.754l1.607-1.607l0.023,0.023c0.271,4.049,1.364,8.022,3.213,11.621l-0.005,0.002
		l0.003,0.004c-8.111,4.332-13.809,12.2-15.363,21.222C38.188,77.617,36.43,77.187,34.744,76.607z M69.559,111.713l0.195-0.677
		l2.004,0.576C71.031,111.672,70.3,111.709,69.559,111.713z M98.141,82.967c0,6.253-2.013,12.041-5.416,16.765l0.378-1.316
		l-1.024-0.294l-0.628,2.185l-2.185-0.628l-0.294,1.025l2.185,0.627l-0.167,0.581c-2.895,3.296-6.525,5.927-10.638,7.63
		l-0.212-0.062l0.627-2.185l-1.024-0.294l-0.628,2.185l-2.185-0.628l-0.294,1.025l2.042,0.586c-2.139,0.732-4.389,1.221-6.72,1.428
		l0.275-0.957l-2.186-0.628l0.628-2.185l-1.024-0.295l-0.628,2.186l-2.185-0.628l-0.295,1.024l2.186,0.628l-0.273,0.952
		c-3.55-0.114-6.938-0.87-10.053-2.162l0.385-1.341l2.185,0.628l0.295-1.025l-2.185-0.627l0.627-2.185l-1.024-0.295l-0.628,2.185
		l-2.185-0.627l-0.295,1.024l2.186,0.628l-0.345,1.2c-9.893-4.55-16.781-14.548-16.781-26.131c0-1.306,0.089-2.617,0.264-3.906
		c0.247,0.027,0.485,0.04,0.729,0.061c0.048,0.007,0.097,0.016,0.145,0.022l-0.002-0.011c0.786,0.063,1.562,0.106,2.326,0.106
		c2.913,0,5.765-0.431,8.487-1.239l0.001,0.007c0.327-0.063,0.654-0.136,0.98-0.206l-0.017-0.11
		c1.445-0.483,2.854-1.065,4.206-1.763L58.007,76l-0.627,2.185l1.024,0.294l0.628-2.185l2.185,0.628l0.294-1.025l-2.185-0.627
		l0.071-0.247c2.759-1.651,5.264-3.758,7.404-6.271l0.003,0.002l0.002-0.002c4.562,2.682,9.771,4.098,15.095,4.098
		c4.581,0,8.974-1.015,13.067-3.018C97.045,73.869,98.141,78.399,98.141,82.967z M101.927,61.695l-0.895,2.09l0.529,0.227
		c-1.822,1.701-3.878,3.188-6.148,4.398c-4.537-8.094-12.607-13.637-21.766-14.947l0.001-0.005l-0.006-0.001
		c0.182-1.334,0.272-2.689,0.272-4.034c0-3.131-0.483-6.173-1.392-9.05l1.989,0.852l0.42-0.979l-2.09-0.896l0.895-2.089l-0.979-0.42
		l-0.81,1.888c-2.243-5.874-6.322-10.946-11.832-14.458c5.477-6.355,13.382-9.988,21.785-9.988c0.977,0,1.942,0.05,2.895,0.146
		l-0.805,1.88l-2.09-0.895l-0.42,0.979l2.09,0.896l-0.895,2.089l0.979,0.42l0.896-2.089l2.09,0.895l0.419-0.98l-2.089-0.895
		l0.895-2.09l-0.251-0.107c10.251,1.329,18.827,8.07,22.748,17.263l-0.706-0.303l-0.896,2.089l-2.09-0.895l-0.42,0.98l2.09,0.895
		l-0.896,2.09l0.98,0.42l0.896-2.09l2.089,0.895l0.204-0.477c0.672,2.434,1.038,4.992,1.038,7.637c0,6.874-2.423,13.322-6.651,18.39
		l-0.675-0.288l0.895-2.09l-0.979-0.42l-0.896,2.09l-2.089-0.896l-0.42,0.98L101.927,61.695z M102.907,62.115l0.366,0.157
		c-0.254,0.281-0.521,0.552-0.786,0.823L102.907,62.115z"/>
	<polygon points="34.076,25.393 32.469,27 30.861,25.393 30.107,26.146 31.715,27.754 30.107,29.361 30.861,30.115 32.469,28.508 
		34.076,30.115 34.83,29.361 33.223,27.754 34.83,26.146 	"/>
	<polygon points="44.076,25.393 42.469,27 40.861,25.393 40.107,26.146 41.715,27.754 40.107,29.361 40.861,30.115 42.469,28.508 
		44.076,30.115 44.83,29.361 43.223,27.754 44.83,26.146 	"/>
	<polygon points="50.861,30.115 52.469,28.508 54.076,30.115 54.83,29.361 53.223,27.754 54.83,26.146 54.076,25.393 52.469,27 
		50.861,25.393 50.107,26.146 51.715,27.754 50.107,29.361 	"/>
	<polygon points="26.139,38.365 27.746,36.758 29.354,38.365 30.107,37.611 28.5,36.004 30.107,34.396 29.354,33.643 27.746,35.25 
		26.139,33.643 25.385,34.396 26.992,36.004 25.385,37.611 	"/>
	<polygon points="36.139,38.365 37.746,36.758 39.354,38.365 40.107,37.611 38.5,36.004 40.107,34.396 39.354,33.643 37.746,35.25 
		36.139,33.643 35.385,34.396 36.992,36.004 35.385,37.611 	"/>
	<polygon points="46.139,38.365 47.746,36.758 49.354,38.365 50.107,37.611 48.5,36.004 50.107,34.396 49.354,33.643 47.746,35.25 
		46.139,33.643 45.385,34.396 46.992,36.004 45.385,37.611 	"/>
	<polygon points="24.076,41.889 22.469,43.496 20.861,41.889 20.107,42.643 21.715,44.25 20.107,45.857 20.861,46.611 
		22.469,45.004 24.076,46.611 24.83,45.857 23.223,44.25 24.83,42.643 	"/>
	<polygon points="34.076,41.889 32.469,43.496 30.861,41.889 30.107,42.643 31.715,44.25 30.107,45.857 30.861,46.611 
		32.469,45.004 34.076,46.611 34.83,45.857 33.223,44.25 34.83,42.643 	"/>
	<polygon points="34.076,58.51 32.469,60.117 30.861,58.51 30.107,59.264 31.715,60.871 30.107,62.479 30.861,63.232 32.469,61.625 
		34.076,63.232 34.83,62.479 33.223,60.871 34.83,59.264 	"/>
	<polygon points="44.076,41.889 42.469,43.496 40.861,41.889 40.107,42.643 41.715,44.25 40.107,45.857 40.861,46.611 
		42.469,45.004 44.076,46.611 44.83,45.857 43.223,44.25 44.83,42.643 	"/>
	<polygon points="28.5,52.25 30.107,50.643 29.354,49.889 27.746,51.496 26.139,49.889 25.385,50.643 26.992,52.25 25.385,53.857 
		26.139,54.611 27.746,53.004 29.354,54.611 30.107,53.857 	"/>
	<polygon points="38.5,52.25 40.107,50.643 39.354,49.889 37.746,51.496 36.139,49.889 35.385,50.643 36.992,52.25 35.385,53.857 
		36.139,54.611 37.746,53.004 39.354,54.611 40.107,53.857 	"/>
	<polygon points="50.107,53.857 48.5,52.25 50.107,50.643 49.354,49.889 47.746,51.496 46.139,49.889 45.385,50.643 46.992,52.25 
		45.385,53.857 46.139,54.611 47.746,53.004 49.354,54.611 	"/>
	<polygon points="29.076,65.698 27.469,67.306 25.861,65.698 25.107,66.452 26.715,68.06 25.107,69.667 25.861,70.421 
		27.469,68.813 29.076,70.421 29.83,69.667 28.223,68.06 29.83,66.452 	"/>
	<polygon points="39.076,65.698 37.469,67.306 35.861,65.698 35.107,66.452 36.715,68.06 35.107,69.667 35.861,70.421 
		37.469,68.813 39.076,70.421 39.83,69.667 38.223,68.06 39.83,66.452 	"/>
	<polygon points="24.076,58.51 22.469,60.117 20.861,58.51 20.107,59.264 21.715,60.871 20.107,62.479 20.861,63.232 22.469,61.625 
		24.076,63.232 24.83,62.479 23.223,60.871 24.83,59.264 	"/>
	<polygon points="44.076,58.51 42.469,60.117 40.861,58.51 40.107,59.264 41.715,60.871 40.107,62.479 40.861,63.232 42.469,61.625 
		44.076,63.232 44.83,62.479 43.223,60.871 44.83,59.264 	"/>
	<polygon points="55.049,98.28 54.024,97.985 53.396,100.17 51.212,99.543 50.918,100.567 53.103,101.195 52.475,103.38 
		53.5,103.675 54.127,101.489 56.313,102.117 56.606,101.093 54.422,100.465 	"/>
	<polygon points="51.763,92.344 49.577,91.717 50.205,89.531 49.181,89.237 48.553,91.422 46.368,90.795 46.073,91.819 
		48.258,92.447 47.631,94.632 48.655,94.926 49.283,92.741 51.468,93.369 	"/>
	<polygon points="46.918,83.596 44.733,82.969 45.36,80.783 44.336,80.489 43.708,82.674 41.523,82.047 41.229,83.071 
		43.414,83.699 42.786,85.884 43.812,86.178 44.438,83.993 46.624,84.62 	"/>
	<polygon points="64.555,98.415 63.529,98.121 62.902,100.306 60.717,99.678 60.423,100.703 62.607,101.33 61.98,103.516 
		63.005,103.81 63.633,101.625 65.817,102.252 66.111,101.228 63.927,100.6 	"/>
	<polygon points="61.268,92.479 59.083,91.852 59.71,89.667 58.686,89.372 58.058,91.557 55.873,90.93 55.578,91.954 57.764,92.582 
		57.136,94.767 58.161,95.062 58.788,92.876 60.973,93.504 	"/>
	<polygon points="52.292,86.019 53.316,86.313 53.944,84.128 56.129,84.756 56.423,83.73 54.238,83.104 54.866,80.918 
		53.841,80.624 53.214,82.809 51.028,82.182 50.734,83.206 52.919,83.834 	"/>
	<polygon points="74.325,99.037 73.3,98.743 72.673,100.928 70.487,100.3 70.193,101.325 72.378,101.952 71.751,104.138 
		72.775,104.432 73.403,102.247 75.588,102.874 75.882,101.85 73.697,101.222 	"/>
	<polygon points="71.038,93.102 68.853,92.474 69.48,90.289 68.456,89.994 67.828,92.18 65.644,91.552 65.349,92.576 67.534,93.204 
		66.906,95.389 67.931,95.684 68.559,93.498 70.743,94.126 	"/>
	<polygon points="79.89,84.525 82.074,85.152 81.447,87.338 82.472,87.632 83.1,85.447 85.284,86.074 85.578,85.05 83.394,84.422 
		84.021,82.237 82.996,81.942 82.369,84.128 80.184,83.5 	"/>
	<polygon points="62.063,86.641 63.087,86.936 63.714,84.75 65.899,85.378 66.193,84.354 64.009,83.726 64.636,81.541 
		63.611,81.246 62.983,83.432 60.799,82.804 60.505,83.828 62.689,84.456 	"/>
	<polygon points="83.611,99.293 82.586,98.999 81.959,101.184 79.774,100.557 79.479,101.581 81.664,102.209 81.037,104.394 
		82.062,104.688 82.689,102.503 84.874,103.131 85.169,102.105 82.983,101.479 	"/>
	<polygon points="80.324,93.357 78.14,92.729 78.767,90.545 77.742,90.251 77.114,92.436 74.93,91.808 74.636,92.833 76.82,93.46 
		76.192,95.645 77.218,95.939 77.845,93.755 80.03,94.382 	"/>
	<polygon points="69.791,84.084 71.976,84.712 71.349,86.896 72.373,87.191 73.001,85.006 75.186,85.634 75.479,84.609 
		73.295,83.981 73.923,81.797 72.897,81.502 72.271,83.688 70.086,83.06 	"/>
	<polygon points="66.504,78.148 67.529,78.443 68.156,76.258 70.342,76.886 70.636,75.861 68.451,75.233 69.078,73.049 
		68.054,72.754 67.426,74.938 65.241,74.312 64.947,75.336 67.132,75.964 	"/>
	<polygon points="92.731,83.129 91.706,82.835 91.079,85.02 88.894,84.393 88.6,85.417 90.784,86.045 90.157,88.229 91.182,88.524 
		91.81,86.339 93.994,86.967 94.288,85.941 92.104,85.314 	"/>
	<polygon points="85.313,79.481 86.338,79.775 86.965,77.591 89.149,78.219 89.444,77.193 87.26,76.566 87.887,74.381 
		86.862,74.087 86.234,76.271 84.05,75.645 83.755,76.669 85.94,77.297 	"/>
	<polygon points="88.865,90.985 87.841,90.691 87.213,92.876 85.028,92.248 84.733,93.273 86.919,93.9 86.291,96.086 87.316,96.38 
		87.943,94.195 90.128,94.822 90.423,93.798 88.237,93.17 	"/>
	<polygon points="76.603,78.589 77.628,78.884 78.255,76.698 80.439,77.326 80.734,76.301 78.549,75.674 79.177,73.488 
		78.152,73.194 77.524,75.379 75.34,74.752 75.046,75.776 77.23,76.404 	"/>
	<polygon points="94.922,74.087 94.294,76.271 92.109,75.645 91.815,76.669 94,77.297 93.372,79.481 94.397,79.776 95.024,77.591 
		97.209,78.219 97.504,77.193 95.318,76.566 95.946,74.381 	"/>
	<polygon points="73.392,23.093 74.372,23.513 75.268,21.423 77.356,22.318 77.776,21.338 75.688,20.443 76.582,18.354 
		75.603,17.934 74.707,20.023 72.617,19.128 72.197,20.108 74.287,21.003 	"/>
	<polygon points="67.298,22.069 66.318,21.649 65.423,23.739 63.333,22.844 62.913,23.824 65.003,24.719 64.108,26.809 
		65.088,27.229 65.983,25.139 68.073,26.034 68.493,25.054 66.403,24.159 	"/>
	<polygon points="90.126,25.282 91.106,25.702 92.001,23.612 94.091,24.507 94.511,23.527 92.421,22.632 93.316,20.542 
		92.336,20.122 91.441,22.212 89.352,21.317 88.932,22.297 91.021,23.192 	"/>
	<polygon points="80.842,28.997 81.822,29.417 82.718,27.328 84.807,28.223 85.227,27.243 83.137,26.348 84.032,24.258 
		83.052,23.838 82.157,25.928 80.067,25.033 79.647,26.013 81.737,26.908 	"/>
	<polygon points="74.748,27.974 73.769,27.554 72.873,29.644 70.783,28.748 70.363,29.729 72.453,30.624 71.558,32.713 
		72.538,33.133 73.433,31.044 75.522,31.938 75.942,30.958 73.853,30.063 	"/>
	<polygon points="98.09,30.977 99.069,31.396 99.965,29.307 102.055,30.202 102.475,29.222 100.385,28.327 101.279,26.237 
		100.3,25.817 99.404,27.907 97.315,27.012 96.896,27.992 98.984,28.887 	"/>
	<polygon points="88.806,34.692 89.786,35.112 90.681,33.022 92.771,33.918 93.19,32.938 91.101,32.043 91.995,29.953 
		91.016,29.533 90.12,31.623 88.031,30.728 87.611,31.708 89.7,32.603 	"/>
	<polygon points="98.172,45.384 97.191,44.964 96.296,47.054 94.207,46.159 93.787,47.139 95.876,48.034 94.981,50.124 
		95.962,50.543 96.856,48.454 98.946,49.349 99.366,48.369 97.276,47.474 	"/>
	<polygon points="82.712,33.669 81.731,33.249 80.837,35.339 78.747,34.443 78.327,35.424 80.417,36.318 79.521,38.408 
		80.502,38.828 81.396,36.738 83.486,37.634 83.906,36.653 81.816,35.758 	"/>
	<polygon points="98.458,37.715 99.353,35.625 98.373,35.206 97.478,37.295 95.388,36.4 94.968,37.38 97.058,38.275 96.163,40.365 
		97.143,40.784 98.038,38.695 100.128,39.59 100.548,38.61 	"/>
	<polygon points="90.068,39.341 89.089,38.921 88.193,41.011 86.104,40.116 85.685,41.096 87.773,41.991 86.879,44.08 87.858,44.5 
		88.754,42.411 90.844,43.306 91.264,42.325 89.174,41.431 	"/>
	<polygon points="80.784,43.057 79.805,42.637 78.909,44.727 76.819,43.831 76.4,44.812 78.489,45.707 77.595,47.796 78.575,48.216 
		79.47,46.126 81.56,47.021 81.979,46.041 79.89,45.146 	"/>
	<polygon points="105.484,50.2 104.505,49.78 103.609,51.87 101.52,50.975 101.101,51.955 103.189,52.85 102.295,54.939 
		103.274,55.359 104.17,53.27 106.259,54.165 106.679,53.185 104.59,52.29 	"/>
	<polygon points="96.2,53.916 95.221,53.496 94.325,55.586 92.235,54.69 91.815,55.671 93.905,56.565 93.011,58.655 93.99,59.075 
		94.886,56.985 96.976,57.881 97.396,56.9 95.306,56.005 	"/>
	<polygon points="104.266,46.408 105.245,46.827 106.141,44.738 108.23,45.633 108.65,44.653 106.561,43.758 107.456,41.668 
		106.476,41.249 105.58,43.338 103.491,42.443 103.071,43.423 105.161,44.318 	"/>
	<polygon points="88.888,49.1 87.907,48.68 87.013,50.77 84.923,49.874 84.503,50.854 86.593,51.75 85.697,53.839 86.678,54.259 
		87.572,52.169 89.662,53.064 90.082,52.084 87.992,51.189 	"/>
</g>
</svg>
