<?xml version="1.0" encoding="utf-8"?>
<!-- Generator: Adobe Illustrator 16.0.0, SVG Export Plug-In . SVG Version: 6.00 Build 0)  -->
<!DOCTYPE svg PUBLIC "-//W3C//DTD SVG 1.1//EN" "http://www.w3.org/Graphics/SVG/1.1/DTD/svg11.dtd">
<svg version="1.1" id="Layer_1" xmlns="http://www.w3.org/2000/svg" xmlns:xlink="http://www.w3.org/1999/xlink" x="0px" y="0px"
	 width="126px" height="126px" viewBox="0 0 126 126" enable-background="new 0 0 126 126" xml:space="preserve">
<g>
	<path d="M106.973,74.308c-0.013-0.054-0.046-0.099-0.069-0.149c-0.025-0.056-0.042-0.116-0.078-0.166
		c-0.034-0.046-0.083-0.078-0.125-0.118c-0.043-0.041-0.078-0.088-0.129-0.12c-0.049-0.03-0.108-0.04-0.163-0.061
		c-0.058-0.021-0.109-0.054-0.172-0.064c-0.001,0-0.002,0-0.003,0c-0.001,0-0.002-0.001-0.002-0.001l-16.514-2.546
		c-0.059-0.009-0.114,0.005-0.171,0.008c-0.062,0.002-0.125-0.006-0.184,0.009c-0.064,0.016-0.118,0.052-0.176,0.08
		c-0.046,0.023-0.097,0.035-0.139,0.065c-0.058,0.042-0.1,0.101-0.147,0.156c-0.029,0.034-0.066,0.06-0.091,0.098
		c-0.036,0.057-0.05,0.126-0.073,0.192c-0.017,0.048-0.045,0.089-0.054,0.141c-1.108,6.677-4.258,12.726-9.109,17.491
		c-6.001,5.895-13.935,9.142-22.34,9.142c-17.583,0-31.887-14.305-31.887-31.887s14.305-31.887,31.887-31.887
		c3.691,0,7.316,0.629,10.774,1.871c0,0,0.001,0,0.002,0c0,0,0,0.001,0.001,0.001c0.1,0.036,0.203,0.052,0.303,0.052
		c0.01,0,0.02-0.004,0.029-0.004c0.028-0.001,0.054-0.009,0.082-0.013c0.08-0.01,0.156-0.028,0.229-0.058
		c0.032-0.014,0.062-0.028,0.092-0.045c0.066-0.036,0.125-0.081,0.181-0.133c0.024-0.022,0.049-0.042,0.071-0.067
		c0.068-0.079,0.126-0.168,0.165-0.271c0.001-0.004,0.004-0.006,0.006-0.01c0,0,0-0.001,0-0.001c0-0.001,0.001-0.001,0.001-0.002
		l5.578-15.75c0.023-0.063,0.02-0.128,0.027-0.192c0.007-0.055,0.026-0.11,0.023-0.164c-0.004-0.07-0.032-0.134-0.052-0.2
		c-0.013-0.046-0.015-0.095-0.035-0.137c-0.033-0.068-0.086-0.124-0.134-0.183c-0.026-0.032-0.042-0.07-0.072-0.098
		c-0.054-0.05-0.126-0.08-0.193-0.117c-0.04-0.021-0.071-0.054-0.115-0.069c0,0-0.001,0-0.002,0c0,0,0,0,0,0h0
		c-5.448-1.946-11.154-2.934-16.961-2.934c-27.797,0-50.411,22.614-50.411,50.411c0,27.797,22.614,50.411,50.411,50.411
		c13.347,0,25.929-5.17,35.429-14.558c7.663-7.573,12.617-17.172,14.327-27.759c0-0.001,0-0.002,0-0.003
		c0-0.001,0.001-0.002,0.001-0.003c0.008-0.055-0.006-0.106-0.008-0.16C106.981,74.438,106.989,74.371,106.973,74.308z
		 M92.015,100.491l-10.539-10.54c4.551-4.714,7.58-10.533,8.817-16.941l14.739,2.272C103.307,84.834,98.825,93.513,92.015,100.491z"
		/>
	<path d="M85.731,9.062C85.731,9.062,85.73,9.062,85.731,9.062c-0.001,0-0.002-0.001-0.002-0.001
		c-0.221-0.078-0.449-0.058-0.65,0.025c-0.013,0.005-0.029,0.005-0.042,0.011c-0.062,0.029-0.111,0.079-0.166,0.122
		c-0.038,0.03-0.083,0.049-0.115,0.085c-0.044,0.047-0.069,0.111-0.102,0.169c-0.027,0.047-0.065,0.085-0.084,0.139c0,0,0,0,0,0.001
		c0,0,0,0.001,0,0.001l-5.578,15.75c-0.021,0.058-0.017,0.116-0.025,0.174c-0.008,0.061-0.029,0.122-0.026,0.181
		c0.004,0.055,0.027,0.104,0.04,0.156c0.015,0.061,0.02,0.125,0.046,0.182c0.026,0.053,0.07,0.095,0.106,0.143
		c0.034,0.046,0.058,0.098,0.101,0.137c0.049,0.045,0.114,0.071,0.174,0.105c0.045,0.026,0.083,0.063,0.133,0.081
		c12.628,4.534,21.113,16.596,21.113,30.016c0,1.731-0.148,3.5-0.438,5.254c0,0.002,0,0.003,0,0.005
		c0,0.002-0.001,0.003-0.001,0.005c-0.01,0.063,0.005,0.121,0.008,0.182c0.003,0.058-0.005,0.118,0.008,0.173
		c0.015,0.059,0.049,0.109,0.075,0.163c0.024,0.051,0.039,0.107,0.072,0.152c0.036,0.05,0.088,0.084,0.133,0.126
		c0.041,0.037,0.073,0.082,0.121,0.111c0.054,0.034,0.12,0.047,0.182,0.069c0.051,0.018,0.095,0.048,0.151,0.057
		c0.002,0,0.004,0,0.007,0c0.001,0,0.002,0.001,0.003,0.001l16.507,2.545c0,0,0,0,0,0l0.006,0.001
		c0.047,0.007,0.094,0.011,0.14,0.011c0.11,0,0.216-0.02,0.315-0.058c0.038-0.014,0.069-0.042,0.105-0.061
		c0.057-0.03,0.116-0.056,0.166-0.097c0.036-0.03,0.059-0.072,0.09-0.108c0.039-0.044,0.083-0.083,0.112-0.135
		c0.022-0.039,0.029-0.087,0.045-0.129c0.023-0.058,0.052-0.112,0.063-0.176c0-0.002,0-0.004,0.001-0.006
		c0.434-2.691,0.654-5.413,0.654-8.088C119.177,35.29,105.736,16.211,85.731,9.062z"/>
</g>
</svg>
