<?xml version="1.0" encoding="utf-8"?>
<!-- Generator: Adobe Illustrator 16.0.0, SVG Export Plug-In . SVG Version: 6.00 Build 0)  -->
<!DOCTYPE svg PUBLIC "-//W3C//DTD SVG 1.1//EN" "http://www.w3.org/Graphics/SVG/1.1/DTD/svg11.dtd">
<svg version="1.1" id="Layer_1" xmlns="http://www.w3.org/2000/svg" xmlns:xlink="http://www.w3.org/1999/xlink" x="0px" y="0px"
	 width="126px" height="126px" viewBox="0 0 126 126" enable-background="new 0 0 126 126" xml:space="preserve">
<g>
	<path d="M32.239,52.89c2.243-0.896,3.339-3.449,2.445-5.691c-0.895-2.242-3.448-3.339-5.691-2.445
		c-2.242,0.895-3.339,3.447-2.445,5.688C27.443,52.687,29.995,53.784,32.239,52.89z M28.766,49.558
		c-0.405-1.018,0.094-2.18,1.112-2.586c1.021-0.406,2.181,0.092,2.587,1.111s-0.091,2.182-1.111,2.588
		C30.334,51.077,29.174,50.579,28.766,49.558z"/>
	<path d="M41.191,39.714L30.017,65.712c-0.013,0.031-0.008,0.063-0.02,0.094c0.568,0.333,1.152,0.632,1.759,0.883
		c0.042-0.057,0.093-0.107,0.123-0.175L43.09,40.422C42.473,40.146,41.841,39.901,41.191,39.714z"/>
	<path d="M47.159,54.475c-0.895-2.244-3.447-3.342-5.691-2.447c-2.243,0.896-3.339,3.449-2.445,5.691
		c0.894,2.241,3.448,3.339,5.691,2.446C46.956,59.27,48.052,56.717,47.159,54.475z M43.829,57.945
		c-1.021,0.406-2.181-0.092-2.588-1.112c-0.407-1.019,0.092-2.179,1.111-2.588c1.021-0.404,2.181,0.092,2.587,1.112
		C45.346,56.379,44.847,57.539,43.829,57.945z"/>
	<path d="M63,14.762c-26.641,0-48.238,21.598-48.238,48.238S36.359,111.238,63,111.238S111.238,89.641,111.238,63
		S89.641,14.762,63,14.762z M63,18c23.386,0,42.6,17.841,44.787,40.653l-43.91,2.788L43.473,22.446C49.379,19.598,56.003,18,63,18z
		 M18,63c0-16.786,9.198-31.415,22.822-39.149l20.146,38.5L22.222,82.033C19.519,76.251,18,69.805,18,63z M23.58,84.707
		l37.125-18.859l-10.539,40.285C38.748,102.739,29.229,94.944,23.58,84.707z M63,108c-3.414,0-6.734-0.393-9.931-1.113
		l11.107-42.458l43.789-2.78C107.979,62.099,108,62.547,108,63C108,87.853,87.853,108,63,108z"/>
	<path d="M74.063,50.186v2.516c0,0.276,0.225,0.5,0.5,0.5h1.868c0.276,0,0.5-0.224,0.5-0.5V50.03
		c2.82-0.631,4.686-2.778,4.686-5.454c0-2.728-1.468-4.488-4.905-5.888c-2.613-1.081-3.368-1.735-3.368-2.919
		c0-0.946,0.692-2.052,2.644-2.052c1.837,0,2.993,0.661,3.487,0.943c0.126,0.073,0.279,0.085,0.417,0.037
		c0.138-0.05,0.246-0.156,0.299-0.293l0.742-1.96c0.087-0.228-0.004-0.485-0.215-0.608c-1.063-0.619-2.247-0.974-3.608-1.077v-2.405
		c0-0.276-0.224-0.5-0.5-0.5h-1.838c-0.276,0-0.5,0.224-0.5,0.5v2.583c-2.735,0.604-4.478,2.603-4.478,5.188
		c0,3.119,2.504,4.533,5.204,5.595c2.159,0.873,3.039,1.762,3.039,3.064c0,1.439-1.218,2.406-3.028,2.406
		c-1.4,0-2.856-0.434-3.994-1.19c-0.127-0.086-0.287-0.106-0.434-0.059s-0.262,0.161-0.313,0.306l-0.712,1.985
		c-0.075,0.211-0.002,0.446,0.181,0.576C70.775,49.551,72.432,50.072,74.063,50.186z"/>
</g>
</svg>
