<?xml version="1.0" encoding="utf-8"?>
<!-- Generator: Adobe Illustrator 16.0.0, SVG Export Plug-In . SVG Version: 6.00 Build 0)  -->
<!DOCTYPE svg PUBLIC "-//W3C//DTD SVG 1.1//EN" "http://www.w3.org/Graphics/SVG/1.1/DTD/svg11.dtd">
<svg version="1.1" id="Layer_1" xmlns="http://www.w3.org/2000/svg" xmlns:xlink="http://www.w3.org/1999/xlink" x="0px" y="0px"
	 width="126px" height="126px" viewBox="0 0 126 126" enable-background="new 0 0 126 126" xml:space="preserve">
<g>
	<path d="M65.443,42.168c-1.063,0.426-1.583,1.637-1.159,2.699c0.425,1.064,1.635,1.584,2.699,1.16
		c1.063-0.424,1.582-1.635,1.158-2.699S66.508,41.746,65.443,42.168z"/>
	<circle cx="51.297" cy="35.981" r="2.077"/>
	<path d="M43.091,25.043c-8.542,8.934-8.224,23.15,0.708,31.691s23.148,8.227,31.691-0.707c8.541-8.932,8.223-23.148-0.709-31.689
		C65.85,15.795,51.633,16.111,43.091,25.043z M47.054,37.672c-0.932-2.338,0.212-5,2.551-5.934c2.34-0.932,5.002,0.211,5.936,2.551
		c0.933,2.338-0.211,5.002-2.551,5.936S47.987,40.014,47.054,37.672z M52.591,57.635c-0.036,0.082-0.1,0.145-0.15,0.215
		c-0.746-0.309-1.464-0.676-2.163-1.086c0.014-0.037,0.009-0.076,0.024-0.115l13.74-31.969c0.8,0.23,1.576,0.531,2.336,0.871
		L52.591,57.635z M67.906,48.342c-2.34,0.932-5.003-0.213-5.936-2.551s0.211-5.002,2.55-5.936c2.341-0.934,5.003,0.211,5.937,2.551
		C71.389,44.746,70.245,47.408,67.906,48.342z"/>
	<path d="M116.968,85.553L105.02,74.127c0.177-1.699,0.286-3.414,0.286-5.162c0-7.373-1.628-14.363-4.524-20.648l-9.736,4.949
		c0.605-1.65,1.072-3.334,1.412-5.035l6.58-3.344c-1.799-3.217-3.95-6.209-6.396-8.93c-1.175-7.004-4.54-13.68-10.019-18.92
		c-6.34-6.064-14.674-9.404-23.467-9.404c-9.371,0-18.091,3.723-24.551,10.477c-2.911,3.045-5.138,6.496-6.695,10.164
		C21.824,32.473,16.725,38,13.031,44.439l13.673,7.129c0.577,1.883,1.321,3.725,2.23,5.504l-17.692-9.225
		C8.209,54.25,6.506,61.408,6.506,68.965c0,27.285,22.117,49.402,49.4,49.402c9.271,0,17.939-2.561,25.353-7.002L57.868,75.498
		c0.422,0.014,0.844,0.029,1.268,0.029c1.085,0,2.161-0.07,3.234-0.174l22.106,33.9c6.381-4.533,11.635-10.545,15.271-17.531
		l5.911,5.652c1.53,1.465,3.537,2.27,5.654,2.27c2.223,0,4.379-0.922,5.911-2.527c1.511-1.578,2.316-3.648,2.268-5.836
		C119.444,89.096,118.547,87.063,116.968,85.553z M113.888,92.746c-1.285,1.344-3.417,1.393-4.762,0.105L77.887,62.977
		c-11.229,9.318-27.949,8.947-38.743-1.373c-11.616-11.109-12.03-29.598-0.922-41.215c11.11-11.619,29.6-12.029,41.216-0.922
		c10.792,10.322,11.908,27.01,3.104,38.643l31.239,29.873C115.127,89.27,115.174,91.402,113.888,92.746z"/>
</g>
</svg>
