<?xml version="1.0" encoding="utf-8"?>
<!-- Generator: Adobe Illustrator 16.0.0, SVG Export Plug-In . SVG Version: 6.00 Build 0)  -->
<!DOCTYPE svg PUBLIC "-//W3C//DTD SVG 1.1//EN" "http://www.w3.org/Graphics/SVG/1.1/DTD/svg11.dtd">
<svg version="1.1" id="Layer_1" xmlns="http://www.w3.org/2000/svg" xmlns:xlink="http://www.w3.org/1999/xlink" x="0px" y="0px"
	 width="126px" height="126px" viewBox="0 0 126 126" enable-background="new 0 0 126 126" xml:space="preserve">
<path d="M63,16.898L14.527,52.117l18.515,56.984h59.916l18.515-56.984L63,16.898z M63.551,21.168l43.457,31.572l-11.082,2.488
	c-0.353-0.85-1.189-1.451-2.167-1.451c-0.203,0-0.396,0.035-0.583,0.082L65.276,30.354c0.042-0.176,0.07-0.357,0.07-0.545
	c0-1.105-0.767-2.025-1.795-2.273V21.168z M79.42,92.25l-37.175,4.783c-0.079-0.162-0.177-0.313-0.29-0.451l6.233-9.592
	c0.235,0.078,0.483,0.131,0.745,0.131c1.296,0,2.347-1.051,2.347-2.346c0-0.002,0-0.004,0-0.004l19.602-4.85
	c0.408,0.691,1.153,1.16,2.013,1.16c0.338,0,0.657-0.074,0.947-0.203l6.266,9.641c-0.429,0.426-0.694,1.014-0.694,1.664
	C79.413,92.207,79.419,92.229,79.42,92.25z M48.881,59.344c-0.049-0.232-0.14-0.447-0.251-0.648l12.857-9.34
	c0.275,0.232,0.6,0.406,0.962,0.494v12.531L48.881,59.344z M62.172,63.447L49.739,82.58c-0.139-0.051-0.283-0.088-0.433-0.113
	l-1.927-20.438c0.708-0.256,1.252-0.838,1.458-1.568L62.172,63.447z M60.654,47.574c0,0.318,0.064,0.619,0.179,0.895l-12.947,9.408
	c-0.372-0.248-0.818-0.395-1.298-0.395c-0.761,0-1.431,0.367-1.859,0.93l-10.725-2.4c-0.025-0.109-0.059-0.215-0.099-0.316
	l28.167-23.732c0.121,0.051,0.248,0.088,0.377,0.121v13.217C61.421,45.549,60.654,46.469,60.654,47.574z M33.979,57.135l10.3,2.307
	c-0.021,0.127-0.039,0.254-0.039,0.387c0,1.191,0.892,2.166,2.042,2.316l1.924,20.41c-0.938,0.307-1.621,1.18-1.621,2.221
	c0,0.635,0.255,1.209,0.665,1.631l-6.172,9.498c-0.123-0.053-0.253-0.094-0.386-0.125l-7.472-37.453
	C33.586,58.02,33.854,57.607,33.979,57.135z M72.294,76.475l-8.4-12.926l13.302-2.986c0.163,0.494,0.478,0.922,0.901,1.209
	l-4.764,14.662c-0.142-0.027-0.288-0.045-0.438-0.045C72.685,76.389,72.487,76.424,72.294,76.475z M74.714,80.199
	c0.324-0.402,0.526-0.908,0.526-1.465c0-0.748-0.356-1.406-0.901-1.836l4.793-14.75c0.093,0.012,0.185,0.027,0.281,0.027
	c1.295,0,2.346-1.051,2.346-2.346c0-0.098-0.017-0.191-0.029-0.287l10.007-2.246c0.196,0.338,0.47,0.619,0.803,0.824L82.219,89.885
	c-0.149-0.029-0.302-0.047-0.46-0.047c-0.247,0-0.48,0.049-0.704,0.119L74.714,80.199z M63.551,32.084
	c0.13-0.033,0.257-0.07,0.378-0.121L91.581,55.26c-0.106,0.268-0.169,0.559-0.169,0.865c0,0.039,0.01,0.076,0.012,0.113
	l-10.079,2.264c-0.422-0.613-1.13-1.018-1.932-1.018c-0.48,0-0.926,0.145-1.298,0.393l-12.948-9.408
	c0.114-0.275,0.179-0.576,0.179-0.895c0-1.105-0.767-2.025-1.795-2.273V32.084z M63.551,49.85c0.362-0.088,0.687-0.262,0.962-0.494
	l12.857,9.342c-0.129,0.232-0.221,0.484-0.266,0.758l-13.554,3.043V49.85z M71.323,77.004c-0.473,0.43-0.775,1.043-0.775,1.73
	c0,0.045,0.011,0.088,0.013,0.131l-19.552,4.838c-0.096-0.186-0.213-0.357-0.354-0.512L63,64.197L71.323,77.004z M62.449,21.168
	v6.367c-1.028,0.248-1.795,1.168-1.795,2.273c0,0.188,0.028,0.369,0.07,0.545L32.327,54.279c-0.194-0.053-0.395-0.09-0.606-0.09
	c-0.747,0-1.405,0.355-1.834,0.9l-10.798-2.418L62.449,21.168z M18.307,53.627l11.109,2.486c-0.025,0.137-0.042,0.277-0.042,0.422
	c0,1.109,0.771,2.033,1.805,2.277l7.47,37.441c-0.518,0.43-0.855,1.07-0.855,1.797c0,0.688,0.3,1.299,0.77,1.729l-3.507,5.395
	L18.307,53.627z M35.853,105.973l3.68-5.664c0.194,0.053,0.396,0.09,0.607,0.09c0.894,0,1.662-0.506,2.058-1.242l38.407-4.941
	c0.342,0.195,0.733,0.316,1.155,0.316c0.299,0,0.583-0.061,0.847-0.164l7.541,11.605H35.853z M90.944,105.174l-7.435-11.439
	c0.367-0.416,0.596-0.953,0.596-1.551c0-0.291-0.06-0.568-0.157-0.826l10.75-33.086c0.769-0.336,1.313-1.076,1.387-1.951l11.577-2.6
	L90.944,105.174z"/>
</svg>
