<?xml version="1.0" encoding="utf-8"?>
<!-- Generator: Adobe Illustrator 16.0.0, SVG Export Plug-In . SVG Version: 6.00 Build 0)  -->
<!DOCTYPE svg PUBLIC "-//W3C//DTD SVG 1.1//EN" "http://www.w3.org/Graphics/SVG/1.1/DTD/svg11.dtd">
<svg version="1.1" id="Layer_2" xmlns="http://www.w3.org/2000/svg" xmlns:xlink="http://www.w3.org/1999/xlink" x="0px" y="0px"
	 width="126px" height="126px" viewBox="0 0 126 126" enable-background="new 0 0 126 126" xml:space="preserve">
<g>
	<path d="M105.926,18.574H20.683c-0.188-0.077-0.393-0.121-0.609-0.121c-0.895,0-1.621,0.726-1.621,1.621V25.5h-1.916
		c-1.93,0-3.5,1.57-3.5,3.5v12.437c0,1.93,1.57,3.5,3.5,3.5h1.916v36.127h-1.916c-1.93,0-3.5,1.57-3.5,3.5V97
		c0,1.93,1.57,3.5,3.5,3.5h1.916v1.5c0,0.216,0.044,0.421,0.121,0.609v3.317c0,0.829,0.671,1.5,1.5,1.5h85.853
		c0.829,0,1.5-0.671,1.5-1.5V20.074C107.426,19.245,106.755,18.574,105.926,18.574z M16.537,41.937c-0.276,0-0.5-0.224-0.5-0.5V29
		c0-0.276,0.224-0.5,0.5-0.5h1.916v13.437H16.537z M16.537,97.5c-0.276,0-0.5-0.224-0.5-0.5V84.563c0-0.276,0.224-0.5,0.5-0.5h1.916
		V97.5H16.537z M104.426,104.426H21.574v-1.817c0.077-0.188,0.121-0.393,0.121-0.609V21.574h82.732V104.426z"/>
	<path d="M49.261,51.244c-2.672,3.146-4.294,7.211-4.294,11.653s1.622,8.507,4.294,11.653l-5.88,5.88
		c-0.632,0.633-0.632,1.659,0,2.292c0.316,0.316,0.731,0.475,1.146,0.475s0.83-0.158,1.146-0.475l5.893-5.893
		C54.68,79.39,58.663,80.93,63,80.93c4.284,0,8.219-1.508,11.316-4.012l6.01,6.01c0.316,0.316,0.731,0.475,1.146,0.475
		s0.83-0.158,1.146-0.475c0.632-0.633,0.632-1.659,0-2.292l-5.978-5.978c2.729-3.161,4.393-7.267,4.393-11.761
		c0-4.389-1.58-8.414-4.196-11.545l5.782-5.782c0.632-0.633,0.632-1.659,0-2.292c-0.633-0.633-1.659-0.633-2.292,0l-5.782,5.782
		c-3.131-2.616-7.156-4.196-11.545-4.196c-4.337,0-8.32,1.54-11.434,4.101l-5.892-5.892c-0.633-0.633-1.659-0.633-2.292,0
		c-0.632,0.633-0.632,1.659,0,2.292L49.261,51.244z M63,77.688c-3.442,0-6.606-1.192-9.122-3.171l5.045-5.044
		c1.186,0.738,2.58,1.172,4.077,1.172c1.443,0,2.791-0.404,3.949-1.094l5.055,5.055C69.506,76.53,66.389,77.688,63,77.688z
		 M58.493,62.897c0-0.704,0.176-1.362,0.465-1.956l1.956,1.956l-1.956,1.956C58.669,64.259,58.493,63.601,58.493,62.897z
		 M63.103,60.501l-1.781-1.78c0.52-0.209,1.083-0.331,1.677-0.331c0.649,0,1.264,0.144,1.822,0.393L63.103,60.501z M64.52,67.121
		c-0.477,0.172-0.984,0.282-1.52,0.282c-0.593,0-1.157-0.122-1.677-0.331l1.574-1.574L64.52,67.121z M65.085,63.103l2.028-2.028
		c0.249,0.559,0.393,1.173,0.393,1.822c0,0.758-0.206,1.462-0.538,2.089L65.085,63.103z M77.792,62.897
		c0,3.601-1.296,6.902-3.442,9.47l-5.019-5.019c0.89-1.261,1.417-2.794,1.417-4.451c0-1.551-0.462-2.993-1.25-4.206l5.035-5.035
		C76.566,56.191,77.792,59.402,77.792,62.897z M63,48.105c3.495,0,6.706,1.225,9.24,3.26l-5.035,5.035
		c-1.212-0.788-2.655-1.25-4.206-1.25c-1.497,0-2.891,0.434-4.077,1.172l-5.045-5.045C56.394,49.297,59.557,48.105,63,48.105z
		 M56.581,58.563c-0.838,1.238-1.329,2.729-1.329,4.333s0.49,3.096,1.329,4.333l-5.024,5.025c-2.09-2.552-3.348-5.811-3.348-9.358
		s1.258-6.807,3.348-9.358L56.581,58.563z"/>
	<rect x="24.667" y="109" width="18.24" height="2.746"/>
	<rect x="84.667" y="109" width="18.24" height="2.746"/>
</g>
</svg>
