<?xml version="1.0" encoding="utf-8"?>
<!-- Generator: Adobe Illustrator 16.0.0, SVG Export Plug-In . SVG Version: 6.00 Build 0)  -->
<!DOCTYPE svg PUBLIC "-//W3C//DTD SVG 1.1//EN" "http://www.w3.org/Graphics/SVG/1.1/DTD/svg11.dtd">
<svg version="1.1" id="Layer_1" xmlns="http://www.w3.org/2000/svg" xmlns:xlink="http://www.w3.org/1999/xlink" x="0px" y="0px"
	 width="126px" height="126px" viewBox="0 0 126 126" enable-background="new 0 0 126 126" xml:space="preserve">
<g>
	<path d="M68.126,48.918C68.277,48.974,68.432,49,68.584,49c0.549,0,1.063-0.339,1.262-0.884l11.729-32.227
		c0.254-0.697-0.105-1.466-0.802-1.72c-0.692-0.252-1.466,0.105-1.72,0.802L67.324,47.198C67.069,47.895,67.43,48.665,68.126,48.918
		z"/>
	<path d="M72.633,51.521c0.252,0.211,0.558,0.314,0.861,0.314c0.385,0,0.764-0.163,1.029-0.479l22.045-26.272
		c0.476-0.568,0.401-1.415-0.166-1.891c-0.57-0.477-1.414-0.402-1.891,0.165L72.467,49.63
		C71.991,50.198,72.065,51.044,72.633,51.521z"/>
	<path d="M75.979,55.508c0.248,0.431,0.699,0.671,1.163,0.671c0.228,0,0.458-0.058,0.67-0.18l29.7-17.148
		c0.643-0.371,0.861-1.191,0.491-1.833c-0.37-0.643-1.192-0.862-1.833-0.491l-29.7,17.148
		C75.827,54.045,75.608,54.866,75.979,55.508z"/>
	<path d="M77.758,60.399c0.115,0.651,0.682,1.109,1.32,1.109c0.078,0,0.156-0.007,0.235-0.021l33.773-5.956
		c0.729-0.128,1.217-0.825,1.089-1.555c-0.13-0.729-0.832-1.215-1.556-1.088l-33.773,5.956
		C78.117,58.973,77.63,59.669,77.758,60.399z"/>
	<path d="M113.087,70.468l-33.773-5.954c-0.733-0.127-1.426,0.358-1.556,1.089c-0.128,0.729,0.359,1.426,1.089,1.554l33.773,5.954
		c0.079,0.014,0.157,0.021,0.235,0.021c0.639,0,1.205-0.458,1.32-1.11C114.304,71.293,113.816,70.597,113.087,70.468z"/>
	<path d="M107.512,87.149l-29.7-17.146c-0.641-0.371-1.462-0.151-1.833,0.491c-0.37,0.642-0.151,1.462,0.491,1.833l29.7,17.146
		c0.211,0.123,0.441,0.181,0.67,0.181c0.463,0,0.914-0.241,1.163-0.671C108.373,88.34,108.154,87.52,107.512,87.149z"/>
	<path d="M74.523,74.646c-0.476-0.567-1.323-0.642-1.891-0.165c-0.567,0.476-0.642,1.323-0.166,1.891l22.045,26.27
		c0.266,0.316,0.646,0.479,1.029,0.479c0.305,0,0.611-0.103,0.861-0.314c0.568-0.476,0.643-1.323,0.166-1.891L74.523,74.646z"/>
	<path d="M69.846,77.885c-0.254-0.697-1.026-1.055-1.72-0.802c-0.697,0.254-1.057,1.024-0.802,1.72l11.729,32.226
		c0.198,0.545,0.713,0.883,1.261,0.883c0.153,0,0.308-0.026,0.459-0.081c0.697-0.254,1.057-1.024,0.802-1.72L69.846,77.885z"/>
	<path d="M63,77.986c-0.741,0-1.342,0.601-1.342,1.342v34.294c0,0.741,0.602,1.342,1.343,1.342s1.342-0.601,1.342-1.342
		l-0.001-34.294C64.342,78.587,63.74,77.986,63,77.986z"/>
	<path d="M57.874,77.083c-0.692-0.253-1.466,0.105-1.72,0.802L44.426,110.11c-0.254,0.697,0.106,1.467,0.803,1.721
		c0.15,0.055,0.306,0.081,0.459,0.081c0.547,0,1.063-0.338,1.26-0.883l11.729-32.226C58.93,78.106,58.57,77.336,57.874,77.083z"/>
	<path d="M53.367,74.48c-0.569-0.477-1.416-0.401-1.891,0.165l-22.043,26.271c-0.477,0.568-0.402,1.414,0.166,1.891
		c0.251,0.211,0.557,0.314,0.861,0.314c0.383,0,0.764-0.163,1.029-0.479l22.043-26.271C54.009,75.803,53.935,74.957,53.367,74.48z"
		/>
	<path d="M50.021,70.493c-0.371-0.643-1.193-0.861-1.833-0.491L18.489,87.149c-0.642,0.371-0.861,1.191-0.491,1.833
		c0.248,0.431,0.7,0.672,1.163,0.672c0.228,0,0.458-0.058,0.67-0.181L49.53,72.326C50.172,71.956,50.392,71.135,50.021,70.493z"/>
	<path d="M48.242,65.603c-0.13-0.731-0.83-1.214-1.556-1.089L12.913,70.47c-0.729,0.128-1.217,0.825-1.089,1.554
		c0.115,0.651,0.682,1.11,1.32,1.11c0.078,0,0.156-0.007,0.235-0.021l33.773-5.956C47.883,67.029,48.37,66.333,48.242,65.603z"/>
	<path d="M12.913,55.532l33.773,5.955c0.079,0.014,0.157,0.021,0.235,0.021c0.639,0,1.205-0.458,1.32-1.109
		c0.128-0.729-0.359-1.426-1.089-1.554L13.38,52.889c-0.73-0.129-1.426,0.358-1.556,1.088
		C11.696,54.707,12.184,55.403,12.913,55.532z"/>
	<path d="M18.488,38.852l29.7,17.147c0.212,0.122,0.442,0.18,0.67,0.18c0.463,0,0.915-0.241,1.163-0.671
		c0.37-0.642,0.15-1.462-0.491-1.833l-29.7-17.147c-0.641-0.37-1.463-0.151-1.833,0.491C17.627,37.66,17.846,38.481,18.488,38.852z"
		/>
	<path d="M29.432,25.084l22.045,26.271c0.266,0.316,0.645,0.479,1.029,0.479c0.304,0,0.61-0.103,0.861-0.314
		c0.567-0.477,0.642-1.323,0.166-1.891L31.488,23.358c-0.476-0.566-1.323-0.643-1.891-0.165c-0.283,0.238-0.444,0.569-0.475,0.911
		C29.094,24.447,29.194,24.8,29.432,25.084z"/>
	<path d="M44.426,15.89l11.729,32.226C56.354,48.661,56.867,49,57.416,49c0.151,0,0.307-0.026,0.458-0.082
		c0.696-0.254,1.056-1.023,0.802-1.72L46.947,14.972c-0.254-0.696-1.024-1.057-1.72-0.802c-0.522,0.19-0.855,0.671-0.882,1.193
		C44.337,15.537,44.361,15.716,44.426,15.89z"/>
	<path d="M63,48.015c0.74,0,1.342-0.601,1.342-1.342V12.378v0c0-0.741-0.602-1.342-1.342-1.342c-0.741,0-1.342,0.601-1.342,1.342v0
		v34.295C61.658,47.414,62.259,48.015,63,48.015z"/>
	<path d="M63,52.489c-5.796,0-10.512,4.715-10.512,10.511S57.204,73.512,63,73.512S73.512,68.796,73.512,63S68.796,52.489,63,52.489
		z M63,70.828c-4.316,0-7.827-3.511-7.827-7.828c0-4.316,3.511-7.827,7.827-7.827s7.827,3.511,7.827,7.827
		C70.827,67.316,67.316,70.828,63,70.828z"/>
</g>
</svg>
