<?xml version="1.0" encoding="utf-8"?>
<!-- Generator: Adobe Illustrator 16.0.0, SVG Export Plug-In . SVG Version: 6.00 Build 0)  -->
<!DOCTYPE svg PUBLIC "-//W3C//DTD SVG 1.1//EN" "http://www.w3.org/Graphics/SVG/1.1/DTD/svg11.dtd">
<svg version="1.1" id="Layer_2" xmlns="http://www.w3.org/2000/svg" xmlns:xlink="http://www.w3.org/1999/xlink" x="0px" y="0px"
	 width="126px" height="126px" viewBox="0 0 126 126" enable-background="new 0 0 126 126" xml:space="preserve">
<g>
	<path fill="#010101" d="M93.279,29.278c-10.917-10.917-28.681-10.917-39.598,0c-9.957,9.957-10.828,25.605-2.624,36.564
		l-4.854,4.854c-2.303-0.466-4.787,0.191-6.572,1.977L18.771,93.533c-2.831,2.831-2.831,7.422,0,10.253s7.422,2.831,10.253,0
		l20.859-20.859c1.786-1.785,2.442-4.27,1.977-6.572l4.854-4.854c10.959,8.205,26.607,7.333,36.564-2.624
		C104.196,57.959,104.196,40.195,93.279,29.278z M59.338,63.22c-7.798-7.799-7.798-20.486,0-28.284s20.486-7.799,28.285,0
		c7.798,7.798,7.797,20.486-0.001,28.284S67.137,71.018,59.338,63.22z"/>
	<path fill="#010101" d="M19.312,18.166h20.877v-4H19.312c-3.928,0-7.123,3.195-7.123,7.124v20.877h4V21.29
		C16.188,19.567,17.59,18.166,19.312,18.166z"/>
	<path fill="#010101" d="M109.812,83.833v20.877c0,1.723-1.401,3.124-3.123,3.124H85.812v4h20.877c3.928,0,7.123-3.195,7.123-7.124
		V83.833H109.812z"/>
</g>
</svg>
