<?xml version="1.0" encoding="utf-8"?>
<!-- Generator: Adobe Illustrator 16.0.0, SVG Export Plug-In . SVG Version: 6.00 Build 0)  -->
<!DOCTYPE svg PUBLIC "-//W3C//DTD SVG 1.1//EN" "http://www.w3.org/Graphics/SVG/1.1/DTD/svg11.dtd">
<svg version="1.1" id="Layer_2" xmlns="http://www.w3.org/2000/svg" xmlns:xlink="http://www.w3.org/1999/xlink" x="0px" y="0px"
	 width="126px" height="126px" viewBox="0 0 126 126" enable-background="new 0 0 126 126" xml:space="preserve">
<g>
	<path fill="#010101" d="M105.524,68.806l-4.938-1.822c0.391-3.597,0.263-7.266-0.415-10.914l4.768-2.197
		c2.975-1.369,4.28-4.904,2.909-7.884l-2.431-5.279c-2.431,2.347-5.73,3.799-9.367,3.799H80.485
		c2.292,2.167,4.221,4.794,5.622,7.834c1.537,3.338,2.283,6.836,2.33,10.288l-1.249-0.461c-0.307-0.113-0.63-0.17-0.961-0.17
		c-1.205,0-2.33,0.771-2.738,1.874l-0.314,0.852c-0.728-0.035-1.459-0.007-2.182,0.083l-0.379-0.823
		c-0.47-1.017-1.497-1.674-2.618-1.674c-0.417,0-0.821,0.088-1.202,0.264l-1.911,0.88c-1.44,0.665-2.074,2.378-1.411,3.82
		l0.379,0.823c-0.538,0.492-1.033,1.028-1.481,1.605l-0.849-0.314c-0.307-0.114-0.632-0.172-0.964-0.172
		c-1.204,0-2.329,0.771-2.738,1.875l-0.727,1.973c-0.267,0.718-0.237,1.5,0.086,2.208c0.325,0.699,0.9,1.229,1.616,1.491
		l0.853,0.315c-0.034,0.73-0.007,1.46,0.083,2.184l-0.822,0.378c-0.699,0.322-1.231,0.897-1.498,1.621
		c-0.266,0.722-0.234,1.503,0.087,2.197l0.88,1.913c0.469,1.017,1.496,1.674,2.617,1.674c0.13,0,0.256-0.024,0.383-0.042
		c-12.233,4.281-25.944-1.362-31.479-13.373c-5.878-12.762-0.301-27.87,12.459-33.751c7.524-3.462,15.86-2.943,22.643,0.677
		c-0.022-0.182-0.056-0.36-0.056-0.548c0-2.481,2.019-4.5,4.5-4.5h9.506c-1.432-1.35-2.95-2.587-4.559-3.688l1.821-4.933
		c1.134-3.072-0.444-6.5-3.517-7.634l-6.239-2.305c-2.979-1.098-6.535,0.539-7.634,3.517l-1.82,4.935
		c-3.599-0.391-7.271-0.263-10.916,0.414l-2.196-4.765c-1.372-2.979-4.908-4.283-7.886-2.914l-6.041,2.783
		c-2.974,1.372-4.282,4.908-2.914,7.885l2.197,4.768c-2.884,2.332-5.366,5.04-7.41,8.027l-4.928-1.821
		c-2.975-1.103-6.538,0.534-7.639,3.514l-2.302,6.242c-0.553,1.491-0.487,3.104,0.175,4.546c0.667,1.439,1.855,2.541,3.34,3.085
		l4.934,1.823c-0.39,3.596-0.265,7.268,0.417,10.916l-4.768,2.194c-2.978,1.372-4.284,4.91-2.912,7.882l2.392,5.196
		c0.962-0.218,1.958-0.343,2.984-0.343h6.185c-0.437-1.321-0.258-2.826,0.613-4.04c0.844-1.176,2.21-1.877,3.656-1.877
		c0.944,0,1.851,0.291,2.619,0.841l8.254,5.919c1.139,0.818,1.82,2.088,1.873,3.484c0.058,1.385-0.521,2.704-1.589,3.608
		l-4.381,3.699l-0.967,2.614c-0.552,1.49-0.489,3.1,0.176,4.544c0.661,1.442,1.851,2.541,3.34,3.09l6.239,2.305
		c1.49,0.55,3.105,0.489,4.544-0.176c1.444-0.664,2.541-1.854,3.091-3.337l1.819-4.936c3.597,0.388,7.268,0.263,10.919-0.417
		l2.191,4.768c1.375,2.977,4.91,4.283,7.885,2.914l6.043-2.786c2.979-1.372,4.284-4.908,2.912-7.885l-1.925-4.177
		c0.457,0.031,0.922-0.031,1.354-0.23l1.91-0.881c0.698-0.322,1.23-0.896,1.497-1.619c0.266-0.722,0.235-1.503-0.086-2.201
		l-0.151-0.329c0.555-0.641,1.087-1.298,1.595-1.973l0.511,0.189c0.717,0.265,1.517,0.231,2.198-0.085
		c0.306-0.139,0.573-0.335,0.808-0.564l2.439,0.901c1.489,0.552,3.104,0.486,4.544-0.181c1.442-0.659,2.537-1.851,3.09-3.335
		l2.302-6.242C110.171,73.365,108.594,69.941,105.524,68.806z M79.617,82.247c-0.852-0.552-1.553-1.338-1.992-2.293
		c-1.261-2.736-0.061-5.989,2.676-7.25c0.725-0.333,1.492-0.502,2.282-0.502c1.329,0,2.589,0.487,3.564,1.324
		C84.646,76.826,82.439,79.815,79.617,82.247z M86.927,71.62c-1.247-0.894-2.754-1.418-4.344-1.418c-1.081,0-2.13,0.23-3.119,0.686
		c-3.737,1.723-5.378,6.166-3.655,9.903c0.506,1.099,1.273,2.023,2.195,2.743c-0.97,0.707-2.001,1.352-3.09,1.927
		c-0.295-0.291-0.589-0.585-0.85-0.909l-0.488-0.605l-2.219,1.019c-0.428,0.202-0.97-0.006-1.165-0.43l-0.881-1.914
		c-0.097-0.211-0.106-0.448-0.025-0.668c0.082-0.222,0.244-0.398,0.457-0.496l2.216-1.02l-0.143-0.767
		c-0.195-1.04-0.235-2.103-0.121-3.161l0.084-0.775l-2.295-0.848c-0.218-0.08-0.394-0.243-0.49-0.451
		c-0.101-0.219-0.109-0.453-0.026-0.677l0.727-1.973c0.152-0.41,0.704-0.681,1.132-0.52l2.29,0.847l0.44-0.644
		c0.601-0.877,1.322-1.66,2.146-2.326l0.604-0.489l-1.02-2.214c-0.202-0.441-0.009-0.965,0.432-1.168l1.91-0.879
		c0.432-0.198,0.972,0.005,1.168,0.431l1.019,2.213l0.766-0.142c1.039-0.193,2.109-0.234,3.162-0.12l0.775,0.084l0.847-2.292
		c0.151-0.411,0.717-0.673,1.13-0.52l1.886,0.697C88.217,67.101,87.723,69.415,86.927,71.62z M89.911,89.567
		c-0.081,0.221-0.243,0.396-0.457,0.495l-0.175,0.081c0.219-0.212,0.43-0.432,0.644-0.649C89.916,89.518,89.92,89.543,89.911,89.567
		z"/>
	<path fill="#010101" d="M44.135,89.065c-0.012-0.308-0.166-0.593-0.416-0.773l-8.25-5.917c-0.451-0.323-1.074-0.218-1.396,0.229
		c-0.322,0.449-0.219,1.074,0.229,1.396l5.723,4.104H24.432c-5.514,0-10,4.486-10,10v16.607c0,0.552,0.447,1,1,1s1-0.448,1-1V98.104
		c0-4.411,3.589-8,8-8h15.97l-5.411,4.569c-0.422,0.356-0.475,0.987-0.118,1.409c0.197,0.234,0.479,0.355,0.765,0.355
		c0.228,0,0.456-0.078,0.645-0.236l7.5-6.333C44.017,89.669,44.147,89.373,44.135,89.065z"/>
	<path fill="#010101" d="M112.682,19.743l-5.916-8.25c-0.18-0.25-0.465-0.404-0.773-0.416c-0.308-0.013-0.604,0.118-0.803,0.354
		l-6.334,7.5c-0.158,0.188-0.236,0.417-0.236,0.645c0,0.285,0.121,0.567,0.355,0.765c0.422,0.356,1.053,0.304,1.409-0.118
		l4.569-5.411v15.97c0,4.411-3.589,8-8,8H80.346c-0.553,0-1,0.447-1,1s0.447,1,1,1h16.607c5.514,0,10-4.486,10-10V15.186
		l4.104,5.723c0.322,0.448,0.947,0.552,1.396,0.229C112.9,20.817,113.005,20.194,112.682,19.743z"/>
</g>
</svg>
