<?xml version="1.0" encoding="utf-8"?>
<!-- Generator: Adobe Illustrator 16.0.0, SVG Export Plug-In . SVG Version: 6.00 Build 0)  -->
<!DOCTYPE svg PUBLIC "-//W3C//DTD SVG 1.1//EN" "http://www.w3.org/Graphics/SVG/1.1/DTD/svg11.dtd">
<svg version="1.1" id="Layer_1" xmlns="http://www.w3.org/2000/svg" xmlns:xlink="http://www.w3.org/1999/xlink" x="0px" y="0px"
	 width="126px" height="126px" viewBox="0 0 126 126" enable-background="new 0 0 126 126" xml:space="preserve">
<g>
	<path fill="#010101" d="M111.894,107.5h-7.121v-4.833c0-0.276-0.224-0.5-0.5-0.5s-0.5,0.224-0.5,0.5v4.833h-9v-4.833
		c0-0.276-0.224-0.5-0.5-0.5s-0.5,0.224-0.5,0.5v4.833h-9v-4.833c0-0.276-0.224-0.5-0.5-0.5s-0.5,0.224-0.5,0.5v4.833h-9v-4.833
		c0-0.276-0.224-0.5-0.5-0.5s-0.5,0.224-0.5,0.5v4.833h-9v-4.833c0-0.276-0.224-0.5-0.5-0.5s-0.5,0.224-0.5,0.5v4.833h-9v-4.833
		c0-0.276-0.224-0.5-0.5-0.5s-0.5,0.224-0.5,0.5v4.833h-9v-4.833c0-0.276-0.224-0.5-0.5-0.5s-0.5,0.224-0.5,0.5v4.833h-9v-4.833
		c0-0.276-0.224-0.5-0.5-0.5s-0.5,0.224-0.5,0.5v4.833H15.606V96.167h4.016c0.276,0,0.5-0.224,0.5-0.5s-0.224-0.5-0.5-0.5h-4.016v-9
		h4.016c0.276,0,0.5-0.224,0.5-0.5s-0.224-0.5-0.5-0.5h-4.016v-9h4.016c0.276,0,0.5-0.224,0.5-0.5s-0.224-0.5-0.5-0.5h-4.016v-9
		h4.016c0.276,0,0.5-0.224,0.5-0.5s-0.224-0.5-0.5-0.5h-4.016v-9h4.016c0.276,0,0.5-0.224,0.5-0.5s-0.224-0.5-0.5-0.5h-4.016v-9
		h4.016c0.276,0,0.5-0.224,0.5-0.5s-0.224-0.5-0.5-0.5h-4.016v-9h4.016c0.276,0,0.5-0.224,0.5-0.5s-0.224-0.5-0.5-0.5h-4.016v-9
		h4.016c0.276,0,0.5-0.224,0.5-0.5s-0.224-0.5-0.5-0.5h-4.016V17c0-0.829-0.672-1.5-1.5-1.5s-1.5,0.671-1.5,1.5v92
		c0,0.829,0.672,1.5,1.5,1.5h97.787c0.828,0,1.5-0.671,1.5-1.5S112.722,107.5,111.894,107.5z"/>
	<polygon fill="#010101" points="55.143,59.522 63.038,86.099 72.358,52.112 80.071,69.708 98.698,33.247 96.917,32.336 
		80.21,65.042 71.923,46.138 62.962,78.817 55.805,54.728 36.628,85.091 38.319,86.159 	"/>
</g>
</svg>
