<?xml version="1.0" encoding="utf-8"?>
<!-- Generator: Adobe Illustrator 16.0.0, SVG Export Plug-In . SVG Version: 6.00 Build 0)  -->
<!DOCTYPE svg PUBLIC "-//W3C//DTD SVG 1.1//EN" "http://www.w3.org/Graphics/SVG/1.1/DTD/svg11.dtd">
<svg version="1.1" id="Layer_1" xmlns="http://www.w3.org/2000/svg" xmlns:xlink="http://www.w3.org/1999/xlink" x="0px" y="0px"
	 width="126px" height="126px" viewBox="0 0 126 126" enable-background="new 0 0 126 126" xml:space="preserve">
<path d="M8.637,16.625v92.75h108.727v-92.75H8.637z M101.901,32.625v-13h12.462v38.083c-0.959-3.135-2.52-7.012-4.849-9.583h4.708
	v-0.5h-5.191c-1.417-1.389-3.097-2.292-5.079-2.292c-0.729,0-1.41,0.129-2.051,0.35V33.125h12.321v-0.5H101.901z M101.901,48.125
	h4.587c3.955,2.538,6.298,10.543,7.06,14.5h-11.646V48.125z M102.414,47.625c0.486-0.189,0.999-0.292,1.538-0.292
	c0.542,0,1.061,0.103,1.558,0.292H102.414z M86.901,19.625h14.5v13h-14.5V19.625z M86.901,33.125h14.5v12.757
	c-0.903,0.399-1.716,0.999-2.446,1.743H86.901V33.125z M86.901,48.125h11.591c-3.873,4.472-5.236,12.898-5.465,14.5h-6.126V48.125z
	 M92.955,63.125c-0.516,3.7-2.394,11.589-6.054,14.465V63.125H92.955z M71.901,61.05c0.136,0.572,0.25,1.103,0.341,1.575h-0.341
	V61.05z M71.901,63.125h0.433c0.004,0.018,0.008,0.039,0.011,0.057l0.005-0.001c0.119,0.688,1.733,9.622,5.88,14.444h-6.328V63.125z
	 M74.371,63.125h12.03v14.5h-5.283C77.299,74.786,75.059,66.868,74.371,63.125z M86.085,78.125
	c-0.642,0.346-1.331,0.542-2.072,0.542c-0.743,0-1.444-0.196-2.103-0.542H86.085z M71.901,19.625h14.5v13h-14.5V19.625z
	 M71.901,33.125h14.5v14.5h-14.5V33.125z M86.401,48.125v14.5H74.275c-0.17-0.925-0.888-4.521-2.374-8.203v-6.297H86.401z
	 M71.401,53.254c-0.847-1.88-1.9-3.704-3.192-5.129h3.192V53.254z M56.901,19.625h14.5v13h-14.5V19.625z M56.901,33.125h14.5v14.5
	h-3.675c-1.417-1.388-3.097-2.292-5.08-2.292c-1.988,0-3.635,0.903-4.997,2.292h-0.748V33.125z M64.204,47.625h-3.098
	c0.487-0.189,1-0.292,1.54-0.292C63.188,47.333,63.707,47.436,64.204,47.625z M57.187,48.125c-0.097,0.111-0.192,0.222-0.285,0.338
	v-0.338H57.187z M41.901,19.625h14.5v13h-14.5V19.625z M41.901,33.125h14.5v14.5h-14.5V33.125z M41.901,48.125h14.5v1
	c-3.276,4.627-4.468,12.01-4.681,13.5h-9.819V48.125z M41.901,63.125h9.747c-0.515,3.716-2.404,11.655-6.099,14.5h-3.648V63.125z
	 M44.781,78.125c-0.643,0.346-1.332,0.542-2.074,0.542c-0.275,0-0.542-0.034-0.806-0.085v-0.457H44.781z M32.971,62.625
	c-0.275-1.497-1.988-10-6.066-14.5h14.497v14.5H32.971z M30.937,62.625h-4.035V51.468C29.053,54.956,30.396,59.812,30.937,62.625z
	 M26.901,63.125h4.128c0.003,0.018,0.007,0.039,0.01,0.057l0.005-0.001c0.118,0.688,1.733,9.622,5.88,14.444H26.901V63.125z
	 M33.065,63.125h8.336v14.5h-1.59C35.992,74.786,33.752,66.868,33.065,63.125z M41.401,78.125v0.331
	c-0.272-0.086-0.539-0.195-0.798-0.331H41.401z M26.901,19.625h14.5v13h-14.5V19.625z M26.901,33.125h14.5v14.5h-14.5V33.125z
	 M26.401,19.625v13H11.777v0.5h14.624v14.48c-1.413-1.377-3.087-2.272-5.061-2.272c-1.988,0-3.634,0.903-4.997,2.292h-4.566v0.5
	h4.104c-2.048,2.365-3.396,5.835-4.244,8.822V19.625H26.401z M22.898,47.625h-3.096c0.486-0.189,0.999-0.292,1.538-0.292
	C21.883,47.333,22.401,47.436,22.898,47.625z M26.401,77.625H11.777v0.5h14.624v14.5H11.777v0.5h14.624v13.25H11.637V63.048
	l0.141,0.018v0.06h0.464l0.122,0.016c0.001-0.005,0.002-0.011,0.002-0.016h14.036V77.625z M12.436,62.625
	c0.583-3.932,2.576-11.958,6.413-14.5h5.028c0.931,0.597,1.771,1.497,2.524,2.576v11.924H12.436z M41.401,106.375h-14.5v-13.25h14.5
	V106.375z M26.901,92.625v-14.5h10.472c1.153,1.203,2.49,2.075,4.028,2.398v12.102H26.901z M56.401,106.375h-14.5v-13.25h14.5
	V106.375z M56.401,92.625h-14.5v-12.01c0.263,0.033,0.531,0.052,0.806,0.052c2.107,0,3.833-1.01,5.24-2.542h8.454V92.625z
	 M56.401,77.625h-8.023c3.96-4.832,5.197-13.793,5.287-14.485l0.004,0.001c0.001-0.005,0.001-0.011,0.002-0.016h2.73V77.625z
	 M53.74,62.625c0.349-2.357,1.205-6.184,2.661-9.422v9.422H53.74z M71.401,106.375h-14.5v-13.25h14.5V106.375z M71.401,92.625h-14.5
	v-14.5h14.5V92.625z M71.401,77.625h-14.5v-14.5h14.5V77.625z M56.901,62.625V52.164c0.888-1.722,1.965-3.188,3.251-4.039h5.03
	c2.989,1.919,5.058,6.961,6.219,11.02v3.48H56.901z M86.401,106.375h-14.5v-13.25h14.5V106.375z M71.901,92.625v-14.5h6.778
	c1.469,1.532,3.231,2.542,5.333,2.542c0.858,0,1.651-0.174,2.389-0.476v12.434H71.901z M101.401,106.375h-14.5v-13.25h14.5V106.375z
	 M101.401,92.625h-14.5V79.967c0.868-0.443,1.649-1.078,2.352-1.842h12.148V92.625z M101.401,77.625H89.684
	c3.959-4.831,5.197-13.79,5.288-14.484h0.004c0.001-0.005,0.001-0.011,0.002-0.016h6.424V77.625z M95.048,62.625
	c0.58-3.911,2.556-11.872,6.354-14.458v14.458H95.048z M101.901,106.375v-13.25h12.321v-0.5h-12.321v-14.5h12.321v-0.5h-12.321
	v-14.5h11.739c0.003,0.018,0.007,0.039,0.01,0.057l0.331-0.057h0.241v-0.041l0.141-0.024v43.315H101.901z"/>
</svg>
