<?xml version="1.0" encoding="utf-8"?>
<!-- Generator: Adobe Illustrator 16.0.0, SVG Export Plug-In . SVG Version: 6.00 Build 0)  -->
<!DOCTYPE svg PUBLIC "-//W3C//DTD SVG 1.1//EN" "http://www.w3.org/Graphics/SVG/1.1/DTD/svg11.dtd">
<svg version="1.1" id="Layer_2" xmlns="http://www.w3.org/2000/svg" xmlns:xlink="http://www.w3.org/1999/xlink" x="0px" y="0px"
	 width="126px" height="126px" viewBox="0 0 126 126" enable-background="new 0 0 126 126" xml:space="preserve">
<g>
	<path d="M111.444,103.799L105,77.013V31.924c0-6.065-4.935-11-11-11H41.999c-6.065,0-11,4.935-11,11V75.49c0,6.065,4.935,11,11,11
		h40.065l26.248,19.386c0.352,0.26,0.77,0.391,1.188,0.391c0.384,0,0.77-0.111,1.105-0.333
		C111.306,105.47,111.641,104.617,111.444,103.799z M83.911,82.881c-0.344-0.254-0.76-0.391-1.188-0.391H41.999c-3.86,0-7-3.14-7-7
		V31.924c0-3.86,3.14-7,7-7H94c3.86,0,7,3.14,7,7V77.25c0,0.158,0.019,0.314,0.056,0.468l5.215,21.678L83.911,82.881z"/>
	<path d="M50.174,46.5c-3.722,0-6.75,3.028-6.75,6.75S46.452,60,50.174,60s6.75-3.028,6.75-6.75S53.896,46.5,50.174,46.5z"/>
	<path d="M68.75,46.5c-3.722,0-6.75,3.028-6.75,6.75S65.028,60,68.75,60s6.75-3.028,6.75-6.75S72.472,46.5,68.75,46.5z"/>
	<path d="M87.585,46.5c-3.722,0-6.75,3.028-6.75,6.75S83.863,60,87.585,60s6.75-3.028,6.75-6.75S91.307,46.5,87.585,46.5z"/>
</g>
</svg>
