<?xml version="1.0" encoding="utf-8"?>
<!-- Generator: Adobe Illustrator 16.0.0, SVG Export Plug-In . SVG Version: 6.00 Build 0)  -->
<!DOCTYPE svg PUBLIC "-//W3C//DTD SVG 1.1//EN" "http://www.w3.org/Graphics/SVG/1.1/DTD/svg11.dtd">
<svg version="1.1" id="Layer_1" xmlns="http://www.w3.org/2000/svg" xmlns:xlink="http://www.w3.org/1999/xlink" x="0px" y="0px"
	 width="126px" height="126px" viewBox="0 0 126 126" enable-background="new 0 0 126 126" xml:space="preserve">
<g>
	<path fill="#010101" d="M111.894,107.5h-7.121v-4.833c0-0.276-0.224-0.5-0.5-0.5s-0.5,0.224-0.5,0.5v4.833h-9v-4.833
		c0-0.276-0.224-0.5-0.5-0.5s-0.5,0.224-0.5,0.5v4.833h-9v-4.833c0-0.276-0.224-0.5-0.5-0.5s-0.5,0.224-0.5,0.5v4.833h-9v-4.833
		c0-0.276-0.224-0.5-0.5-0.5s-0.5,0.224-0.5,0.5v4.833h-9v-4.833c0-0.276-0.224-0.5-0.5-0.5s-0.5,0.224-0.5,0.5v4.833h-9v-4.833
		c0-0.276-0.224-0.5-0.5-0.5s-0.5,0.224-0.5,0.5v4.833h-9v-4.833c0-0.276-0.224-0.5-0.5-0.5s-0.5,0.224-0.5,0.5v4.833h-9v-4.833
		c0-0.276-0.224-0.5-0.5-0.5s-0.5,0.224-0.5,0.5v4.833H15.606V96.167h4.016c0.276,0,0.5-0.224,0.5-0.5s-0.224-0.5-0.5-0.5h-4.016v-9
		h4.016c0.276,0,0.5-0.224,0.5-0.5s-0.224-0.5-0.5-0.5h-4.016v-9h4.016c0.276,0,0.5-0.224,0.5-0.5s-0.224-0.5-0.5-0.5h-4.016v-9
		h4.016c0.276,0,0.5-0.224,0.5-0.5s-0.224-0.5-0.5-0.5h-4.016v-9h4.016c0.276,0,0.5-0.224,0.5-0.5s-0.224-0.5-0.5-0.5h-4.016v-9
		h4.016c0.276,0,0.5-0.224,0.5-0.5s-0.224-0.5-0.5-0.5h-4.016v-9h4.016c0.276,0,0.5-0.224,0.5-0.5s-0.224-0.5-0.5-0.5h-4.016v-9
		h4.016c0.276,0,0.5-0.224,0.5-0.5s-0.224-0.5-0.5-0.5h-4.016V17c0-0.829-0.672-1.5-1.5-1.5s-1.5,0.671-1.5,1.5v92
		c0,0.829,0.672,1.5,1.5,1.5h97.787c0.828,0,1.5-0.671,1.5-1.5S112.722,107.5,111.894,107.5z"/>
	<polygon fill="#010101" points="63.772,68.667 65.772,68.667 65.772,64.667 69.772,64.667 69.772,62.667 65.772,62.667 
		65.772,58.667 63.772,58.667 63.772,62.667 59.772,62.667 59.772,64.667 63.772,64.667 	"/>
	<polygon fill="#010101" points="68.772,53.417 70.772,53.417 70.772,49.417 74.772,49.417 74.772,47.417 70.772,47.417 
		70.772,43.417 68.772,43.417 68.772,47.417 64.772,47.417 64.772,49.417 68.772,49.417 	"/>
	<polygon fill="#010101" points="83.272,61.167 85.272,61.167 85.272,57.167 89.272,57.167 89.272,55.167 85.272,55.167 
		85.272,51.167 83.272,51.167 83.272,55.167 79.272,55.167 79.272,57.167 83.272,57.167 	"/>
	<polygon fill="#010101" points="89.772,40.667 91.772,40.667 91.772,36.667 95.772,36.667 95.772,34.667 91.772,34.667 
		91.772,30.667 89.772,30.667 89.772,34.667 85.772,34.667 85.772,36.667 89.772,36.667 	"/>
	<polygon fill="#010101" points="101.272,55.167 103.272,55.167 103.272,51.167 107.272,51.167 107.272,49.167 103.272,49.167 
		103.272,45.167 101.272,45.167 101.272,49.167 97.272,49.167 97.272,51.167 101.272,51.167 	"/>
	<polygon fill="#010101" points="46.272,80.167 48.272,80.167 48.272,76.167 52.272,76.167 52.272,74.167 48.272,74.167 
		48.272,70.167 46.272,70.167 46.272,74.167 42.272,74.167 42.272,76.167 46.272,76.167 	"/>
	<polygon fill="#010101" points="79.772,85.167 81.772,85.167 81.772,81.167 85.772,81.167 85.772,79.167 81.772,79.167 
		81.772,75.167 79.772,75.167 79.772,79.167 75.772,79.167 75.772,81.167 79.772,81.167 	"/>
</g>
</svg>
