<?xml version="1.0" encoding="utf-8"?>
<!-- Generator: Adobe Illustrator 16.0.0, SVG Export Plug-In . SVG Version: 6.00 Build 0)  -->
<!DOCTYPE svg PUBLIC "-//W3C//DTD SVG 1.1//EN" "http://www.w3.org/Graphics/SVG/1.1/DTD/svg11.dtd">
<svg version="1.1" id="Layer_1" xmlns="http://www.w3.org/2000/svg" xmlns:xlink="http://www.w3.org/1999/xlink" x="0px" y="0px"
	 width="126px" height="126px" viewBox="0 0 126 126" enable-background="new 0 0 126 126" xml:space="preserve">
<g>
	<path fill="#010101" d="M93.107,76.424l-14.637-12.67c-1.937-1.678-4.868-1.467-6.543,0.471l-1.989,2.297
		c-1.675,1.939-1.466,4.867,0.473,6.543l14.637,12.67c1.937,1.678,4.868,1.467,6.544-0.469l1.986-2.297
		C95.255,81.029,95.045,78.1,93.107,76.424z"/>
	<path fill="#010101" d="M54.127,71.988c1.624-1.982,1.332-4.906-0.651-6.527l-2.351-1.924c-1.983-1.621-4.905-1.33-6.526,0.654
		l-12.26,14.98c-1.623,1.984-1.331,4.908,0.651,6.531l2.351,1.924c1.982,1.619,4.905,1.326,6.527-0.654L54.127,71.988z"/>
	<path fill="#010101" d="M82.345,90.652l-4.963-3.85c-0.243-0.188-0.528-0.277-0.813-0.287c-0.547-0.188-1.175-0.027-1.551,0.455
		c-1.608,2.07-3.475,3.146-5.708,3.301c-5.613,0.379-11.479-5.291-11.537-5.348c-0.309-0.307-0.745-0.445-1.173-0.383
		s-0.805,0.32-1.017,0.697c-2.125,3.814-4.612,4.613-5.484,4.777c-0.635-0.408-0.785-0.727-0.837-0.943
		c-0.13-0.516,0.036-1.613,1.559-3.904c3.505-5.277,7.19-5.248,10.152-5.221c0.78,0.004,1.517,0.01,2.186-0.086
		c3.632-0.527,5.034-3.982,5.09-4.127c0.283-0.715-0.068-1.523-0.783-1.805c-0.713-0.279-1.522,0.07-1.805,0.781
		c-0.009,0.023-0.882,2.104-2.903,2.396c-0.458,0.066-1.063,0.061-1.762,0.055c-3.051-0.023-8.155-0.064-12.492,6.467
		c-1.745,2.625-2.344,4.514-1.943,6.119c0.298,1.197,1.14,2.154,2.572,2.928c0.143,0.078,0.299,0.129,0.459,0.152
		c0.073,0.012,0.145,0.016,0.219,0.016c0.176-0.002,4.03-0.102,7.297-4.793c2.274,1.871,7.234,5.346,12.38,5
		c2.668-0.178,5.001-1.342,6.952-3.455l4.17,3.234c2.947,2.414,3.385,6.773,0.973,9.721l-5.871,7.174
		c-1.17,1.428-2.825,2.314-4.661,2.5c-1.835,0.182-3.631-0.361-5.061-1.531l-4.015-3.285c-0.09-0.076-0.191-0.131-0.292-0.18
		L45.429,93.924c-0.285-0.23-0.654-0.346-1.019-0.309c-0.368,0.037-0.706,0.219-0.939,0.504l-3.285,4.018
		c-1.64,2-2.403,4.525-2.146,7.1c0.258,2.576,1.503,4.896,3.507,6.537l7.171,5.871c1.357,1.111,2.99,1.834,4.717,2.088
		c3.355,0.496,6.775-0.826,8.921-3.451l2.466-3.012c1.241,0.871,2.638,1.451,4.116,1.668c0.784,0.117,1.585,0.137,2.393,0.055
		c2.573-0.256,4.896-1.502,6.536-3.506l5.871-7.172c1.64-2.004,2.402-4.523,2.144-7.1S84.377,92.318,82.345,90.652z M60.2,114.521
		c-1.555,1.896-3.932,2.816-6.362,2.459c-1.229-0.182-2.391-0.695-3.36-1.49l-7.17-5.871c-1.428-1.166-2.316-2.822-2.5-4.66
		c-0.182-1.836,0.359-3.631,1.528-5.059l2.405-2.939l17.865,14.621L60.2,114.521z"/>
	<path fill="#010101" d="M55.97,43.836l5.624,15.168c0.218,0.588,0.779,0.979,1.406,0.979s1.188-0.391,1.406-0.979l5.624-15.168
		c7.483-2.893,12.461-10.109,12.461-18.18c0-10.748-8.744-19.492-19.492-19.492s-19.492,8.744-19.492,19.492
		C43.508,33.727,48.486,40.943,55.97,43.836z M63,9.164c9.094,0,16.492,7.398,16.492,16.492c0,7.033-4.467,13.299-11.116,15.59
		c-0.425,0.146-0.762,0.477-0.917,0.896L63,54.168l-4.458-12.025c-0.156-0.42-0.493-0.75-0.917-0.896
		c-6.648-2.291-11.116-8.557-11.116-15.59C46.508,16.563,53.906,9.164,63,9.164z"/>
</g>
</svg>
