<?xml version="1.0" encoding="utf-8"?>
<!-- Generator: Adobe Illustrator 16.0.0, SVG Export Plug-In . SVG Version: 6.00 Build 0)  -->
<!DOCTYPE svg PUBLIC "-//W3C//DTD SVG 1.1//EN" "http://www.w3.org/Graphics/SVG/1.1/DTD/svg11.dtd">
<svg version="1.1" id="Layer_1" xmlns="http://www.w3.org/2000/svg" xmlns:xlink="http://www.w3.org/1999/xlink" x="0px" y="0px"
	 width="126px" height="126px" viewBox="0 0 126 126" enable-background="new 0 0 126 126" xml:space="preserve">
<g>
	<path d="M20.333,87.994h85.334c2.206,0,4-1.795,4-4V34.525c0-2.207-1.794-4-4-4H20.333c-2.206,0-4,1.793-4,4v49.469
		C16.333,86.199,18.127,87.994,20.333,87.994z M20.333,34.525h85.334l0.003,49.469H20.333V34.525z"/>
	<path d="M114.005,90.404H12.02c-0.395,0-0.752,0.23-0.918,0.588c-0.184,0.4-0.151,0.844,0.089,1.219
		c0.422,0.658,1.128,1.762,17.189,2.563c9.076,0.453,21.174,0.701,34.063,0.701c11.573,0,49.538-0.227,52.212-3.148
		c0.261-0.285,0.387-0.639,0.355-1C114.965,90.805,114.529,90.404,114.005,90.404z"/>
	<path d="M96.26,47.027c-1.717,0-3.114,1.397-3.114,3.114c0,0.371,0.076,0.724,0.196,1.054l-6.896,8.374
		c-0.215-0.047-0.436-0.075-0.664-0.075c-0.721,0-1.377,0.257-1.905,0.67l-7.851-3.926c-0.187-1.541-1.487-2.744-3.077-2.744
		c-1.717,0-3.114,1.397-3.114,3.114c0,0.199,0.022,0.393,0.059,0.582l-7.606,6.894c-0.373-0.158-0.783-0.246-1.213-0.246
		c-0.467,0-0.906,0.11-1.305,0.296l-9.47-8.601c0.031-0.176,0.055-0.354,0.055-0.539c0-1.717-1.397-3.114-3.114-3.114
		c-1.225,0-2.277,0.718-2.785,1.75L32.37,54.593c-0.552-0.875-1.521-1.463-2.63-1.463c-1.717,0-3.114,1.397-3.114,3.114
		s1.397,3.114,3.114,3.114c1.233,0,2.293-0.727,2.797-1.77l12.063-0.962c0.55,0.886,1.523,1.481,2.64,1.481
		c0.416,0,0.812-0.085,1.175-0.234l9.583,8.704c-0.016,0.124-0.038,0.246-0.038,0.374c0,1.717,1.397,3.114,3.114,3.114
		s3.114-1.397,3.114-3.114c0-0.17-0.024-0.334-0.05-0.498l7.674-6.953c0.354,0.139,0.734,0.222,1.137,0.222
		c0.737,0,1.406-0.269,1.94-0.698L82.7,62.93c0.164,1.564,1.476,2.793,3.082,2.793c1.717,0,3.114-1.397,3.114-3.114
		c0-0.372-0.076-0.725-0.197-1.057l6.895-8.371c0.215,0.047,0.438,0.075,0.666,0.075c1.717,0,3.114-1.397,3.114-3.114
		S97.977,47.027,96.26,47.027z M29.74,57.858c-0.892,0-1.614-0.723-1.614-1.614s0.723-1.614,1.614-1.614s1.614,0.723,1.614,1.614
		S30.632,57.858,29.74,57.858z M47.24,56.608c-0.892,0-1.614-0.723-1.614-1.614s0.723-1.614,1.614-1.614s1.614,0.723,1.614,1.614
		S48.132,56.608,47.24,56.608z M61.074,68.566c-0.892,0-1.614-0.723-1.614-1.614s0.723-1.614,1.614-1.614s1.614,0.723,1.614,1.614
		S61.966,68.566,61.074,68.566z M72.949,58.223c-0.892,0-1.614-0.723-1.614-1.614s0.723-1.614,1.614-1.614s1.614,0.723,1.614,1.614
		S73.841,58.223,72.949,58.223z M85.782,64.223c-0.892,0-1.614-0.723-1.614-1.614s0.723-1.614,1.614-1.614s1.614,0.723,1.614,1.614
		S86.674,64.223,85.782,64.223z M96.26,51.756c-0.892,0-1.614-0.723-1.614-1.614s0.723-1.614,1.614-1.614s1.614,0.723,1.614,1.614
		S97.151,51.756,96.26,51.756z"/>
</g>
</svg>
