<?xml version="1.0" encoding="utf-8"?>
<!-- Generator: Adobe Illustrator 16.0.0, SVG Export Plug-In . SVG Version: 6.00 Build 0)  -->
<!DOCTYPE svg PUBLIC "-//W3C//DTD SVG 1.1//EN" "http://www.w3.org/Graphics/SVG/1.1/DTD/svg11.dtd">
<svg version="1.1" id="Layer_2" xmlns="http://www.w3.org/2000/svg" xmlns:xlink="http://www.w3.org/1999/xlink" x="0px" y="0px"
	 width="126px" height="126px" viewBox="0 0 126 126" enable-background="new 0 0 126 126" xml:space="preserve">
<g>
	<path d="M112.415,101.793L91.556,80.934c-1.786-1.785-4.27-2.442-6.572-1.977l-4.854-4.854c8.204-10.959,7.333-26.607-2.624-36.564
		c-10.917-10.917-28.681-10.917-39.598,0s-10.917,28.681,0,39.598c9.957,9.957,25.605,10.829,36.564,2.624l4.854,4.854
		c-0.467,2.303,0.19,4.787,1.977,6.572l20.859,20.859c2.831,2.831,7.422,2.831,10.253,0S115.246,104.624,112.415,101.793z
		 M71.848,71.479c-7.798,7.798-20.486,7.798-28.283,0c-7.799-7.798-7.799-20.486,0-28.284c7.798-7.799,20.486-7.798,28.284,0
		S79.646,63.681,71.848,71.479z"/>
	<path d="M27.232,63.544L11.899,78.933c-0.585,0.587-0.583,1.536,0.004,2.121c0.293,0.292,0.676,0.438,1.059,0.438
		c0.385,0,0.77-0.147,1.063-0.441l14.38-14.433c-0.418-1.023-0.773-2.073-1.076-3.141C27.298,63.503,27.261,63.515,27.232,63.544z"
		/>
	<path d="M75.316,20.353l12.064-4.467l-8.729,19.529c0.75,0.852,1.466,1.726,2.104,2.644l9.218-20.623l4.511,11.396
		c0.233,0.589,0.798,0.948,1.395,0.948c0.185,0,0.371-0.034,0.552-0.106c0.771-0.305,1.147-1.176,0.843-1.946l-5.917-14.949
		c-0.3-0.758-1.153-1.137-1.915-0.854l-15.166,5.615c-0.777,0.288-1.174,1.151-0.886,1.928
		C73.677,20.243,74.544,20.639,75.316,20.353z"/>
	<path d="M58.716,45.624c-0.352-0.369-0.865-0.533-1.365-0.44c-0.501,0.095-0.919,0.438-1.111,0.909l-9.864,24.243
		c0.847,0.551,1.736,1.025,2.659,1.424l9.108-22.385l10.399,10.938c0.344,0.362,0.844,0.527,1.341,0.444
		c0.493-0.085,0.911-0.409,1.115-0.866l3.028-6.774c-0.189-1.622-0.585-3.197-1.192-4.686l-3.661,8.191L58.716,45.624z"/>
</g>
</svg>
