<?xml version="1.0" encoding="utf-8"?>
<!-- Generator: Adobe Illustrator 16.0.0, SVG Export Plug-In . SVG Version: 6.00 Build 0)  -->
<!DOCTYPE svg PUBLIC "-//W3C//DTD SVG 1.1//EN" "http://www.w3.org/Graphics/SVG/1.1/DTD/svg11.dtd">
<svg version="1.1" id="Layer_2" xmlns="http://www.w3.org/2000/svg" xmlns:xlink="http://www.w3.org/1999/xlink" x="0px" y="0px"
	 width="126px" height="126px" viewBox="0 0 126 126" enable-background="new 0 0 126 126" xml:space="preserve">
<g>
	<polygon fill="#010101" points="80.785,89.189 81.943,91.678 83.104,89.189 	"/>
	<polygon fill="#010101" points="44.197,89.189 45.356,91.678 46.518,89.189 	"/>
	<polygon fill="#010101" points="25.25,95.131 26.409,97.619 27.57,95.131 	"/>
	<polygon fill="#010101" points="61.84,95.131 62.999,97.619 64.16,95.131 	"/>
	<polygon fill="#010101" points="98.427,95.131 99.586,97.619 100.747,95.131 	"/>
	<path fill="#010101" d="M120.47,105.084l-1.293-5.574c-0.145-0.623-0.457-1.195-0.904-1.652c-0.65-0.666-1.421-1.234-2.313-1.699
		c-2.624-1.344-5.274-2.447-7.654-3.379l-0.051-0.164c-0.083-0.275-0.25-0.836-0.639-1.432c-0.002-0.119-0.003-0.232,0.001-0.32
		c0.249-0.338,0.387-0.646,0.452-0.805c0.293-0.654,0.475-1.285,0.621-1.795c0.101-0.35,0.239-0.83,0.334-0.967l-0.002-0.002
		c0.337-0.498,0.562-1.119,0.623-1.701l0.031-0.301c0.073-0.697,0.146-1.389,0.211-2.17c0.047-0.758-0.146-1.502-0.515-2.141
		l-0.002-2.365c0-2.469-1.132-4.004-2.081-4.859c-0.233-0.209-0.468-0.418-0.704-0.623c0.018-0.746-0.194-1.506-0.646-2.152
		c-0.645-1-1.838-1.605-3.026-1.605c-0.391-0.016-0.77-0.01-1.163,0.051l-0.391,0.063c-0.779,0.121-1.586,0.248-2.434,0.445
		c-0.816,0.193-1.692,0.436-2.579,0.773V58.604v-3.199V29.383L80.135,48.391v15.904c-1.558,0.441-3.234,1.111-4.761,2.371
		c-0.678,0.559-2.739,2.258-2.964,5.262c-0.043,0.594-0.049,1.193-0.052,1.791l-0.003,1.023c-0.136,0.211-0.248,0.443-0.344,0.688
		c-0.273-0.506-0.59-0.926-0.908-1.271v-1.395V52.324l-6.989-2.043l-9.223,13.703v6.57v0.248c-0.384-1.404-1.151-2.375-1.831-2.986
		c-0.229-0.205-0.458-0.408-0.69-0.611c0.015-0.535-0.096-1.076-0.327-1.58c0.02-0.027,0.045-0.049,0.063-0.076l11.449-17.01
		l10.592,3.096c0.656,0.189,1.364-0.018,1.81-0.539l26.748-31.359c0.622-0.729,0.536-1.826-0.193-2.449
		c-0.729-0.621-1.827-0.535-2.45,0.195L74.044,47.986L63.312,44.85c-0.727-0.215-1.507,0.068-1.929,0.697L50.381,61.893
		l-9.857-9.506c-0.634-0.611-1.627-0.65-2.309-0.092L24.897,63.238c-0.74,0.609-0.848,1.703-0.238,2.443
		c0.343,0.418,0.841,0.635,1.344,0.635c0.388,0,0.777-0.129,1.102-0.395l12.121-9.961l7.874,7.594l-0.057,0.008
		c-0.628,0.1-1.28,0.209-1.954,0.352l-6.129-5.91l-7.922,6.51v2.436v2.67c-0.415-0.158-0.858-0.242-1.302-0.242
		c-0.391-0.018-0.769-0.01-1.164,0.051l-0.388,0.063c-0.78,0.121-1.587,0.248-2.436,0.445c-1.852,0.438-4.002,1.098-5.909,2.672
		c-0.678,0.559-2.738,2.258-2.966,5.271c-0.041,0.588-0.047,1.18-0.05,1.77l-0.004,1.041c-0.498,0.783-0.748,1.795-0.552,3.012
		c-0.013-0.07-0.022-0.141-0.024-0.15c0.007,0.219,0.019,0.586,0.119,1.041c0.144,0.641,0.321,1.398,0.542,2.15
		c0.091,0.314,0.211,0.623,0.338,0.93c0.023,0.057,0.049,0.113,0.07,0.172c0.187,1.107,0.561,2.121,1.11,3.021
		c-0.359,0.457-0.672,1.043-0.896,1.797c-0.018,0.059-0.035,0.113-0.052,0.168c-0.13,0.053-0.26,0.105-0.39,0.16
		c-0.371,0.152-0.743,0.305-1.112,0.459l-0.685,0.287c-0.764,0.316-1.526,0.633-2.288,0.994c-0.812,0.389-1.605,0.816-2.399,1.244
		l-0.529,0.285c-0.913,0.486-1.625,0.982-2.237,1.559c-0.502,0.471-0.853,1.08-1.01,1.75l-1.293,5.508
		c-0.244,1.041,0,2.135,0.664,2.973s1.674,1.326,2.743,1.326c2.442,0,4.313,0.934,6.684,2.115c2.501,1.248,5.336,2.662,9.155,2.99
		c0.101,0.008,0.201,0.012,0.301,0.012c0.006,0,0.013,0,0.019,0c0.519,0,1.011-0.111,1.453-0.314
		c0.57,0.217,1.201,0.287,1.827,0.184c2.569-0.43,5.575-1.609,8.482-2.75c2.54-0.996,5.7-2.236,7.023-2.236
		c0.28,0,0.556-0.037,0.822-0.102c0.268,0.064,0.543,0.102,0.823,0.102c2.442,0,4.313,0.934,6.684,2.115
		c2.501,1.248,5.336,2.662,9.155,2.99c0.101,0.008,0.201,0.012,0.301,0.012c0.006,0,0.013,0,0.019,0
		c0.519,0,1.011-0.111,1.453-0.314c0.571,0.217,1.2,0.287,1.827,0.184c2.569-0.43,5.575-1.609,8.482-2.75
		c2.54-0.996,5.7-2.236,7.023-2.236c0.28,0,0.555-0.037,0.821-0.102c0.267,0.064,0.541,0.102,0.821,0.102
		c2.442,0,4.313,0.934,6.684,2.115c2.501,1.248,5.337,2.662,9.157,2.99c0.1,0.008,0.2,0.012,0.3,0.012c0.006,0,0.012,0,0.019,0
		c0.519,0,1.011-0.111,1.453-0.314c0.569,0.217,1.199,0.287,1.826,0.184c2.569-0.43,5.575-1.609,8.482-2.75
		c2.54-0.996,5.7-2.236,7.023-2.236c1.067,0,2.076-0.486,2.74-1.322S120.711,106.125,120.47,105.084z M27.802,111.109l2.352-3.25
		l-3.744-10.24l-3.745,10.24l2.414,3.334c-6.553-0.563-9.841-5.117-16.139-5.117l1.293-5.508c0.426-0.4,0.938-0.727,1.484-1.018
		c0.929-0.498,1.851-1.01,2.799-1.465c0.921-0.436,1.873-0.813,2.815-1.209c0.886-0.373,1.782-0.727,2.66-1.107
		c0.152-0.07,0.307-0.227,0.367-0.381c0.197-0.492,0.363-1,0.518-1.508c0.118-0.387,0.194-0.768,0.689-0.867
		c0.124-0.029,0.274-0.246,0.295-0.389c0.102-0.74,0.177-1.484,0.229-2.227c0.012-0.16-0.069-0.363-0.176-0.484
		c-0.654-0.732-1.016-1.572-1.163-2.539c-0.077-0.484-0.347-0.934-0.485-1.41c-0.188-0.639-0.342-1.291-0.487-1.939
		c-0.052-0.234-0.021-0.486-0.063-0.727c-0.057-0.352-0.045-0.619,0.374-0.756c0.12-0.037,0.213-0.316,0.219-0.484
		c0.022-1.037,0.006-0.783,0.013-1.824c0.006-0.637,0-1.277,0.044-1.914c0.092-1.215,0.807-2.074,1.7-2.811
		c1.308-1.08,2.874-1.586,4.487-1.967c0.844-0.197,1.707-0.32,2.568-0.457c0.228-0.035,0.465-0.006,0.699-0.006
		c0.039,0.061,0.078,0.119,0.119,0.178c-0.182,0.131-0.379,0.242-0.536,0.396c-0.353,0.35-0.317,0.594,0.056,0.91
		c0.778,0.656,1.556,1.314,2.313,1.996c0.664,0.598,0.922,1.377,0.922,2.258c0.003,1.512,0.003,1.732,0.003,3.244
		c-0.003,0.309-0.022,0.617,0.36,0.752c0.083,0.029,0.166,0.199,0.16,0.295c-0.067,0.775-0.149,1.545-0.23,2.32
		c-0.004,0.029-0.008,0.064-0.025,0.086c-0.697,1.016-0.782,2.264-1.282,3.352c-0.019,0.041-0.031,0.088-0.059,0.123
		c-0.925,1.086-0.636,2.393-0.657,3.637c0,0.129,0.092,0.324,0.194,0.369c0.375,0.168,0.467,0.49,0.569,0.834
		c0.167,0.535,0.327,1.078,0.559,1.59c0.088,0.184,0.341,0.348,0.552,0.426c2.835,1.09,5.64,2.24,8.348,3.629
		c0.542,0.281,1.009,0.621,1.405,1.027l1.293,5.574C40.189,106.076,32.573,110.313,27.802,111.109z M45.356,91.678l-2.324,6.355
		c-0.337-0.25-0.697-0.48-1.084-0.68c-2.838-1.455-5.692-2.615-8.164-3.57c-0.079-0.225-0.147-0.453-0.218-0.68l-0.055-0.174
		c-0.05-0.166-0.128-0.41-0.256-0.68c0.07-0.033,0.137-0.07,0.208-0.104c0.92-0.438,1.873-0.814,2.814-1.211
		c0.886-0.373,1.782-0.727,2.661-1.107c0.151-0.068,0.306-0.227,0.367-0.381c0.196-0.492,0.362-1,0.517-1.508
		c0.119-0.387,0.194-0.766,0.689-0.867c0.124-0.029,0.274-0.246,0.295-0.389c0.102-0.74,0.178-1.484,0.229-2.227
		c0.012-0.16-0.069-0.363-0.176-0.484c-0.653-0.732-1.016-1.572-1.163-2.539c-0.077-0.484-0.347-0.934-0.485-1.41
		c-0.188-0.639-0.342-1.289-0.486-1.939c-0.053-0.234-0.021-0.486-0.063-0.727c-0.058-0.35-0.044-0.619,0.375-0.756
		c0.118-0.037,0.211-0.316,0.217-0.482c0.022-1.039,0.008-0.785,0.013-1.826c0.006-0.637,0-1.277,0.046-1.912
		c0.09-1.217,0.805-2.076,1.698-2.813c1.308-1.08,2.874-1.586,4.487-1.967c0.844-0.197,1.708-0.318,2.568-0.457
		c0.228-0.035,0.465-0.006,0.7-0.006c0.038,0.061,0.077,0.119,0.118,0.178c-0.182,0.131-0.379,0.242-0.536,0.396
		c-0.353,0.35-0.317,0.594,0.056,0.91c0.778,0.658,1.556,1.314,2.313,1.996c0.664,0.598,0.922,1.377,0.922,2.258
		c0.003,1.512,0.003,1.732,0.003,3.244c-0.003,0.309-0.022,0.617,0.36,0.752c0.083,0.029,0.167,0.201,0.16,0.297
		c-0.066,0.773-0.149,1.543-0.23,2.318c-0.004,0.029-0.008,0.064-0.025,0.086c-0.697,1.016-0.782,2.264-1.281,3.352
		c-0.02,0.041-0.031,0.088-0.06,0.123c-0.925,1.086-0.635,2.393-0.657,3.637c0,0.129,0.092,0.324,0.194,0.371
		c0.375,0.166,0.467,0.488,0.569,0.832c0.168,0.535,0.327,1.078,0.559,1.592c0.088,0.184,0.341,0.346,0.552,0.426
		c1.427,0.547,2.845,1.109,4.247,1.713c-0.418,0.502-0.602,1.064-0.692,1.365c-0.084,0.277-0.171,0.555-0.269,0.832
		c-0.337,0.141-0.676,0.279-1.015,0.42l-1.777,0.736c-0.746,0.311-1.491,0.619-2.229,0.969c-0.785,0.377-1.553,0.789-2.32,1.203
		l-0.313,0.17L45.356,91.678z M64.392,111.109l2.352-3.25l-3.744-10.24l-3.745,10.24l2.414,3.334
		c-6.553-0.563-9.841-5.117-16.139-5.117l1.293-5.508c0.427-0.4,0.938-0.727,1.484-1.018c0.93-0.498,1.852-1.01,2.799-1.465
		c0.921-0.436,1.873-0.813,2.815-1.209c0.886-0.373,1.782-0.727,2.662-1.107c0.15-0.07,0.305-0.227,0.365-0.381
		c0.197-0.492,0.363-1,0.518-1.508c0.118-0.387,0.194-0.768,0.689-0.867c0.124-0.029,0.273-0.246,0.295-0.389
		c0.102-0.74,0.177-1.484,0.229-2.227c0.013-0.16-0.069-0.363-0.176-0.484c-0.653-0.732-1.016-1.572-1.163-2.539
		c-0.077-0.484-0.347-0.934-0.484-1.41c-0.188-0.639-0.343-1.291-0.488-1.939c-0.052-0.234-0.021-0.486-0.063-0.727
		c-0.057-0.352-0.044-0.619,0.376-0.756c0.118-0.037,0.211-0.316,0.217-0.484c0.022-1.037,0.008-0.783,0.013-1.824
		c0.006-0.637,0-1.277,0.046-1.914c0.09-1.215,0.805-2.074,1.698-2.811c1.308-1.08,2.873-1.586,4.487-1.967
		c0.843-0.197,1.708-0.32,2.568-0.457c0.228-0.035,0.465-0.006,0.7-0.006c0.038,0.061,0.078,0.119,0.118,0.178
		c-0.183,0.131-0.379,0.242-0.535,0.396c-0.353,0.35-0.318,0.594,0.055,0.91c0.778,0.656,1.556,1.314,2.313,1.996
		c0.664,0.598,0.922,1.377,0.922,2.258c0.003,1.512,0.003,1.732,0.003,3.244c-0.003,0.309-0.022,0.617,0.36,0.752
		c0.083,0.029,0.168,0.199,0.159,0.295c-0.066,0.775-0.148,1.545-0.229,2.32c-0.004,0.029-0.008,0.064-0.025,0.086
		c-0.697,1.016-0.782,2.264-1.281,3.352c-0.02,0.041-0.032,0.088-0.06,0.123c-0.925,1.086-0.635,2.393-0.656,3.637
		c0,0.129,0.091,0.324,0.193,0.369c0.376,0.168,0.467,0.49,0.569,0.834c0.167,0.535,0.328,1.078,0.559,1.59
		c0.088,0.184,0.341,0.348,0.552,0.426c2.835,1.09,5.64,2.24,8.35,3.629c0.54,0.281,1.007,0.621,1.403,1.027l1.293,5.574
		C76.779,106.076,69.163,110.313,64.392,111.109z M81.943,91.678l-2.324,6.354c-0.334-0.25-0.693-0.479-1.08-0.678
		c-2.84-1.455-5.693-2.615-8.165-3.57c-0.08-0.23-0.151-0.465-0.224-0.697l-0.051-0.16c-0.049-0.164-0.126-0.408-0.254-0.676
		c0.069-0.033,0.136-0.07,0.205-0.104c0.92-0.438,1.873-0.814,2.814-1.211c0.887-0.373,1.783-0.727,2.661-1.107
		c0.151-0.068,0.306-0.227,0.367-0.381c0.196-0.492,0.363-1,0.518-1.508c0.118-0.387,0.194-0.766,0.688-0.867
		c0.124-0.029,0.274-0.246,0.296-0.389c0.101-0.74,0.177-1.484,0.229-2.227c0.012-0.16-0.069-0.363-0.176-0.484
		c-0.653-0.732-1.015-1.572-1.163-2.539c-0.076-0.484-0.347-0.934-0.485-1.41c-0.188-0.639-0.342-1.289-0.486-1.939
		c-0.052-0.234-0.021-0.486-0.063-0.727c-0.058-0.35-0.044-0.619,0.375-0.756c0.118-0.037,0.212-0.316,0.217-0.482
		c0.022-1.039,0.008-0.785,0.013-1.826c0.006-0.637,0-1.277,0.046-1.912c0.091-1.217,0.805-2.076,1.698-2.813
		c1.309-1.08,2.874-1.586,4.487-1.967c0.844-0.197,1.708-0.318,2.569-0.457c0.228-0.035,0.464-0.006,0.699-0.006
		c0.039,0.061,0.077,0.119,0.118,0.178c-0.182,0.131-0.379,0.242-0.536,0.396c-0.352,0.35-0.317,0.594,0.057,0.91
		c0.777,0.658,1.555,1.314,2.313,1.996c0.664,0.598,0.923,1.377,0.923,2.258c0.002,1.512,0.002,1.732,0.002,3.244
		c-0.002,0.309-0.022,0.617,0.36,0.752c0.083,0.029,0.167,0.201,0.16,0.297c-0.066,0.773-0.149,1.543-0.23,2.318
		c-0.004,0.029-0.008,0.064-0.025,0.086c-0.696,1.016-0.782,2.264-1.28,3.352c-0.021,0.041-0.032,0.088-0.061,0.123
		c-0.925,1.086-0.634,2.393-0.657,3.637c0,0.129,0.092,0.324,0.194,0.371c0.375,0.166,0.467,0.488,0.569,0.832
		c0.168,0.535,0.327,1.078,0.559,1.592c0.088,0.184,0.341,0.346,0.553,0.426c1.426,0.547,2.844,1.109,4.247,1.713
		c-0.42,0.502-0.604,1.064-0.692,1.365c-0.084,0.277-0.172,0.555-0.27,0.83c-0.34,0.145-0.684,0.285-1.025,0.426l-1.767,0.732
		c-0.746,0.311-1.491,0.619-2.227,0.969c-0.794,0.381-1.57,0.797-2.347,1.217l-0.289,0.156L81.943,91.678z M100.979,111.109
		l2.352-3.25l-3.744-10.24l-3.745,10.24l2.415,3.334c-6.554-0.563-9.842-5.117-16.14-5.117l1.293-5.508
		c0.427-0.4,0.938-0.727,1.485-1.018c0.928-0.498,1.85-1.01,2.799-1.465c0.92-0.436,1.873-0.813,2.814-1.209
		c0.886-0.373,1.783-0.727,2.66-1.107c0.152-0.07,0.307-0.227,0.367-0.381c0.197-0.492,0.363-1,0.518-1.508
		c0.119-0.387,0.194-0.768,0.689-0.867c0.124-0.029,0.274-0.246,0.295-0.389c0.102-0.74,0.178-1.484,0.229-2.227
		c0.012-0.16-0.069-0.363-0.176-0.484c-0.653-0.732-1.015-1.572-1.163-2.539c-0.077-0.484-0.347-0.934-0.485-1.41
		c-0.188-0.639-0.342-1.291-0.487-1.939c-0.052-0.234-0.021-0.486-0.063-0.727c-0.057-0.352-0.043-0.619,0.376-0.756
		c0.118-0.037,0.211-0.316,0.217-0.484c0.022-1.037,0.008-0.783,0.013-1.824c0.006-0.637,0-1.277,0.046-1.914
		c0.09-1.215,0.805-2.074,1.698-2.811c1.308-1.08,2.874-1.586,4.487-1.967c0.844-0.197,1.708-0.32,2.569-0.457
		c0.227-0.035,0.464-0.006,0.699-0.006c0.039,0.061,0.077,0.119,0.118,0.178c-0.182,0.131-0.379,0.242-0.536,0.396
		c-0.353,0.35-0.317,0.594,0.057,0.91c0.777,0.656,1.555,1.314,2.313,1.996c0.664,0.598,0.922,1.377,0.922,2.258
		c0.003,1.512,0.003,1.732,0.003,3.244c-0.003,0.309-0.022,0.617,0.36,0.752c0.083,0.029,0.166,0.199,0.16,0.295
		c-0.066,0.775-0.149,1.545-0.23,2.32c-0.004,0.029-0.008,0.064-0.025,0.086c-0.697,1.016-0.782,2.264-1.281,3.352
		c-0.02,0.041-0.031,0.088-0.06,0.123c-0.925,1.086-0.635,2.393-0.657,3.637c0,0.129,0.092,0.324,0.194,0.369
		c0.375,0.168,0.467,0.49,0.569,0.834c0.168,0.535,0.327,1.078,0.559,1.59c0.088,0.184,0.341,0.348,0.553,0.426
		c2.834,1.09,5.639,2.24,8.349,3.629c0.54,0.281,1.007,0.621,1.403,1.027l1.293,5.574
		C113.366,106.076,105.75,110.313,100.979,111.109z"/>
	<path fill="#010101" d="M96.347,12.549c0-0.574-0.466-1.041-1.042-1.041H81.177c-0.575,0-1.042,0.467-1.042,1.041v10.168v14.967
		l16.212-19.006V12.549z"/>
	<path fill="#010101" d="M63.624,42.9l7.479,2.188V33.949v-5.072c0-0.576-0.467-1.043-1.042-1.043H55.934
		c-0.575,0-1.042,0.467-1.042,1.043v7.281v15.383l4.877-7.246C60.613,43.039,62.173,42.477,63.624,42.9z"/>
	<path fill="#010101" d="M41.556,50.855l5.694,5.492V49.6v-8.564c0-0.576-0.467-1.043-1.042-1.043H32.08
		c-0.576,0-1.042,0.467-1.042,1.043v10.887v3.6l5.9-4.85C38.301,49.553,40.286,49.631,41.556,50.855z"/>
</g>
</svg>
