<?xml version="1.0" encoding="utf-8"?>
<!-- Generator: Adobe Illustrator 16.0.0, SVG Export Plug-In . SVG Version: 6.00 Build 0)  -->
<!DOCTYPE svg PUBLIC "-//W3C//DTD SVG 1.1//EN" "http://www.w3.org/Graphics/SVG/1.1/DTD/svg11.dtd">
<svg version="1.1" id="Layer_1" xmlns="http://www.w3.org/2000/svg" xmlns:xlink="http://www.w3.org/1999/xlink" x="0px" y="0px"
	 width="126px" height="126px" viewBox="0 0 126 126" enable-background="new 0 0 126 126" xml:space="preserve">
<g>
	<path d="M25.219,77.387l0.448-0.292c-7.416-11.384-2.679-15.931,3.978-21.12l-0.299,6.587l2.146,0.097l0.464-10.269l-10.269-0.466
		l-0.098,2.145l6.849,0.311c-6.821,5.318-12.613,10.729-4.881,23.116c-4.556,0.694-8.062,4.627-8.062,9.374
		c0,5.234,4.259,9.493,9.494,9.493s9.494-4.259,9.494-9.493C34.483,81.712,30.348,77.511,25.219,77.387z"/>
	<path d="M68.264,89.581l0.307-0.277c-5.012-5.54-15.442-17.067-12.124-27.355c1.298-4.022,5.081-6.732,8.739-9.354
		c4.911-3.518,9.961-7.153,8.69-13.883l5.061,4.146l1.361-1.662l-7.953-6.513l-6.514,7.951l1.661,1.361l4.343-5.303
		c1.286,5.75-2.949,8.79-7.814,12.275c-3.922,2.81-7.977,5.715-9.477,10.365c-3.441,10.669,5.954,21.967,11.483,28.135
		c-4.936,0.333-8.852,4.443-8.852,9.461c0,5.235,4.259,9.494,9.494,9.494s9.494-4.259,9.494-9.494
		C76.163,94.239,72.741,90.343,68.264,89.581z"/>
	<path d="M101.666,77.711c6.41-10.9-2.548-21.654-9.835-30.396c-1.043-1.251-2.043-2.451-2.955-3.601l6.018,2.092l0.706-2.029
		l-9.709-3.374l-3.376,9.709l2.028,0.706l2.263-6.509c1.062,1.367,2.242,2.789,3.49,4.287c7.497,8.993,15.962,19.161,8.895,29.262
		c-4.366,0.853-7.672,4.702-7.672,9.313c0,5.235,4.259,9.494,9.494,9.494s9.494-4.259,9.494-9.494
		C110.504,82.157,106.595,78.05,101.666,77.711z"/>
	<polygon points="85.663,58.098 81.578,62.183 77.493,58.098 76.035,59.556 80.12,63.641 76.035,67.726 77.493,69.184 
		81.578,65.099 85.663,69.184 87.121,67.726 83.036,63.641 87.121,59.556 	"/>
	<polygon points="45.408,34.002 41.323,38.087 37.238,34.002 35.78,35.46 39.865,39.545 35.78,43.63 37.238,45.088 41.323,41.003 
		45.408,45.088 46.866,43.63 42.781,39.545 46.866,35.46 	"/>
	<polygon points="68.997,28.662 73.082,24.577 77.167,28.662 78.625,27.204 74.54,23.119 78.625,19.034 77.167,17.576 
		73.082,21.661 68.997,17.576 67.539,19.034 71.624,23.119 67.539,27.204 	"/>
</g>
</svg>
