<?xml version="1.0" encoding="utf-8"?>
<!-- Generator: Adobe Illustrator 16.0.0, SVG Export Plug-In . SVG Version: 6.00 Build 0)  -->
<!DOCTYPE svg PUBLIC "-//W3C//DTD SVG 1.1//EN" "http://www.w3.org/Graphics/SVG/1.1/DTD/svg11.dtd">
<svg version="1.1" id="Layer_1" xmlns="http://www.w3.org/2000/svg" xmlns:xlink="http://www.w3.org/1999/xlink" x="0px" y="0px"
	 width="126px" height="126px" viewBox="0 0 126 126" enable-background="new 0 0 126 126" xml:space="preserve">
<path d="M119.125,62.596c0-0.552-0.448-1-1-1h-0.071c0.063-0.195,0.087-0.399,0.025-0.6l-8.25-26.25
	c-0.135-0.428-0.561-0.734-0.985-0.7c-0.448,0.014-0.832,0.324-0.94,0.759l-6.035,24.371l-6.487-7.533
	c-0.201-0.234-0.504-0.357-0.807-0.347c-0.308,0.015-0.592,0.171-0.769,0.423l-0.46,0.655l-2.409-7.665
	c-0.094-0.299-0.358-0.494-0.689-0.49c-0.314,0.01-0.583,0.227-0.658,0.531l-3.087,12.469l-9.082-12.189
	c-0.204-0.274-0.528-0.424-0.877-0.399c-0.342,0.026-0.646,0.225-0.807,0.528l-5.211,9.803l-2.274-3.052
	c-0.144-0.192-0.369-0.29-0.615-0.28c-0.239,0.019-0.452,0.158-0.565,0.37l-1.589,2.99l-15.345-24.23
	c-0.366-0.579-1.323-0.579-1.689,0l-5.379,8.493l-8.511-17.292c-0.168-0.342-0.516-0.559-0.897-0.559c-0.002,0-0.003,0-0.005,0
	c-0.383,0.002-0.731,0.223-0.896,0.568L21.463,45.56l-2.271-4.698c-0.17-0.353-0.537-0.578-0.921-0.565
	c-0.391,0.008-0.742,0.244-0.897,0.603l-8.667,20c-0.097,0.224-0.105,0.471-0.034,0.697H7.875c-0.552,0-1,0.448-1,1
	c0,0.145,0,0.663,0,0.808c0,0.552,0.448,1,1,1h0.071c-0.063,0.195-0.087,0.399-0.025,0.6l8.25,26.25
	c0.135,0.428,0.561,0.734,0.985,0.7c0.448-0.014,0.832-0.324,0.94-0.759l6.035-24.371l6.487,7.533
	c0.201,0.234,0.504,0.357,0.807,0.347c0.308-0.015,0.592-0.171,0.769-0.423l0.46-0.655l2.409,7.665
	c0.094,0.299,0.358,0.494,0.689,0.49c0.314-0.01,0.583-0.227,0.658-0.531l3.087-12.469l9.082,12.189
	c0.204,0.274,0.528,0.424,0.877,0.399c0.342-0.026,0.646-0.225,0.807-0.528l5.211-9.803l2.274,3.052
	c0.144,0.192,0.369,0.29,0.615,0.28c0.239-0.019,0.452-0.158,0.565-0.37l1.589-2.99l15.345,24.23c0.366,0.579,1.323,0.579,1.689,0
	l5.379-8.493l8.511,17.292c0.168,0.342,0.516,0.559,0.897,0.559c0.002,0,0.003,0,0.005,0c0.383-0.002,0.731-0.223,0.896-0.568
	l11.295-23.588l2.271,4.698c0.17,0.353,0.537,0.578,0.921,0.565c0.391-0.008,0.742-0.244,0.897-0.603l8.667-20
	c0.097-0.224,0.105-0.471,0.034-0.697h0.799c0.552,0,1-0.448,1-1C119.125,63.259,119.125,62.741,119.125,62.596z M87.585,58.675
	L90.35,47.51l1.982,6.307l2.445,7.779h-7.915L87.585,58.675z M80.35,58.133l2.981,3.463h-5.418L80.35,58.133z M66.344,56.352
	l1.445-2.718l2.01,2.697l3.923,5.265H63.556L66.344,56.352z M26.893,50.976l1.558,3.224c0.117,0.242,0.362,0.396,0.63,0.396h0.001
	c0.269,0,0.514-0.155,0.63-0.398l7.913-16.524l5.873,11.932c0.112,0.227,0.337,0.376,0.59,0.39c0.255,0.012,0.494-0.111,0.629-0.325
	l3.842-6.066l11.395,17.992H22.291L26.893,50.976z M38.415,67.325L35.65,78.49l-1.982-6.307l-2.445-7.779h7.915L38.415,67.325z
	 M45.65,67.867l-2.981-3.463h5.418L45.65,67.867z M59.656,69.648l-1.445,2.718l-2.01-2.697l-3.923-5.265h10.165L59.656,69.648z
	 M99.107,75.024L97.549,71.8c-0.117-0.242-0.362-0.396-0.63-0.396c0,0-0.001,0-0.001,0c-0.269,0-0.514,0.155-0.63,0.398
	l-7.913,16.524l-5.873-11.932c-0.112-0.227-0.337-0.376-0.59-0.39c-0.255-0.012-0.494,0.111-0.629,0.325l-3.842,6.066L66.045,64.404
	h37.664L99.107,75.024z"/>
</svg>
