<?xml version="1.0" encoding="utf-8"?>
<!-- Generator: Adobe Illustrator 16.0.0, SVG Export Plug-In . SVG Version: 6.00 Build 0)  -->
<!DOCTYPE svg PUBLIC "-//W3C//DTD SVG 1.1//EN" "http://www.w3.org/Graphics/SVG/1.1/DTD/svg11.dtd">
<svg version="1.1" id="Layer_1" xmlns="http://www.w3.org/2000/svg" xmlns:xlink="http://www.w3.org/1999/xlink" x="0px" y="0px"
	 width="126px" height="126px" viewBox="0 0 126 126" enable-background="new 0 0 126 126" xml:space="preserve">
<g>
	<path fill="#010101" d="M77.889,66.422c-1.697,0-3.08,1.383-3.08,3.08s1.383,3.08,3.08,3.08c1.699,0,3.08-1.383,3.08-3.08
		S79.588,66.422,77.889,66.422z"/>
	<path fill="#010101" d="M74.559,62.268c-3.992,1.84-5.736,6.566-3.898,10.561c1.84,3.992,6.566,5.736,10.561,3.898
		c3.992-1.84,5.738-6.566,3.898-10.561C83.279,62.174,78.553,60.43,74.559,62.268z M77.889,74.172c-2.574,0-4.668-2.096-4.668-4.67
		s2.094-4.668,4.668-4.668s4.67,2.094,4.67,4.668S80.463,74.172,77.889,74.172z"/>
	<path fill="#010101" d="M97.91,40.539c-2.391,1.102-3.436,3.932-2.334,6.322s3.932,3.436,6.322,2.334
		c2.391-1.1,3.436-3.932,2.334-6.322S100.301,39.438,97.91,40.539z M99.904,47.666c-1.543,0-2.797-1.254-2.797-2.795
		s1.254-2.797,2.797-2.797c1.541,0,2.795,1.256,2.795,2.797S101.445,47.666,99.904,47.666z"/>
	<circle fill="#010101" cx="99.904" cy="44.871" r="1.844"/>
	<path fill="#010101" d="M113.879,44.303c0.191-0.309,0.352-0.637,0.48-0.986c0.498-1.348,0.441-2.811-0.158-4.117l-0.65-1.412
		c-0.764-1.652-2.314-2.797-4.082-3.068c-0.084-0.354-0.203-0.699-0.357-1.037c-0.604-1.307-1.68-2.301-3.021-2.795l-1.461-0.539
		c-1.688-0.623-3.648-0.299-5.049,0.725c-1.482-0.926-3.457-1.088-5.105-0.328l-1.416,0.65c-1.703,0.787-2.803,2.361-3.066,4.094
		c-1.738,0.41-3.201,1.662-3.834,3.371l-0.422,1.145V18.521c0-2.756-2.242-5-5-5H16.07c-2.756,0-5,2.244-5,5v88.957
		c0,2.756,2.244,5,5,5h64.666c2.758,0,5-2.244,5-5V90.82c0.221-0.074,0.438-0.158,0.652-0.258l2.352-1.084
		c1.531-0.705,2.697-1.967,3.281-3.549c0.396-1.076,0.494-2.215,0.293-3.314c0.211,0.021,0.426,0.033,0.641,0.033
		c0.918,0,1.811-0.197,2.631-0.578c1.533-0.701,2.701-1.959,3.293-3.553l0.896-2.43c1.016-2.754-0.02-5.775-2.328-7.377
		c0.867-0.705,1.535-1.633,1.932-2.711c0.586-1.582,0.518-3.297-0.188-4.828l-0.742-1.615c0.43-0.08,0.85-0.207,1.256-0.395
		c0.338-0.156,0.654-0.342,0.945-0.557c1.48,0.92,3.453,1.078,5.096,0.32l1.412-0.65c1.703-0.785,2.801-2.352,3.066-4.08
		c0.354-0.082,0.697-0.199,1.027-0.354c1.305-0.598,2.301-1.668,2.809-3.029l0.537-1.459
		C115.244,47.598,114.912,45.713,113.879,44.303z M85.736,44.295c0.021,0.051,0.029,0.102,0.053,0.15
		c0.152,0.33,0.336,0.641,0.547,0.928c-0.191,0.309-0.352,0.639-0.48,0.986c-0.055,0.146-0.08,0.299-0.119,0.449V44.295z
		 M40.113,16.146h13.25v0.75h-13.25V16.146z M50.07,110.432c-1.473,0-2.668-1.193-2.668-2.666s1.195-2.668,2.668-2.668
		s2.666,1.195,2.666,2.668S51.543,110.432,50.07,110.432z M79.736,102.479H17.07V19.521h62.666v28.555
		c-0.953,0.473-1.783,1.17-2.395,2.043c-1.182-1.449-2.979-2.332-4.9-2.332c-0.916,0-1.803,0.195-2.639,0.58l-2.354,1.084
		c-2.67,1.23-4.074,4.102-3.57,6.871c-0.197-0.02-0.398-0.029-0.6-0.029c-2.658,0-5.057,1.654-5.967,4.119l-0.896,2.428
		c-0.584,1.58-0.518,3.293,0.191,4.838c0.482,1.041,1.219,1.91,2.133,2.543c-0.867,0.705-1.533,1.631-1.93,2.707
		c-0.586,1.584-0.52,3.301,0.186,4.828l1.086,2.355c1.027,2.23,3.279,3.67,5.738,3.67c0.379,0,0.754-0.033,1.123-0.1
		c-0.115,1.111,0.068,2.238,0.547,3.277c0.705,1.535,1.967,2.703,3.551,3.287l2.432,0.898c0.705,0.26,1.441,0.391,2.188,0.391
		c0.918,0,1.807-0.195,2.637-0.578c1.045-0.48,1.918-1.219,2.555-2.143c0.266,0.324,0.564,0.615,0.885,0.879V102.479z
		 M95.816,74.736l-0.896,2.43c-0.215,0.578-0.641,1.043-1.203,1.299c-0.561,0.26-1.189,0.285-1.77,0.07l-1.922-0.709
		c-0.795,1.162-1.762,2.215-2.885,3.125l0.855,1.855c0.533,1.16,0.025,2.537-1.135,3.07l-2.354,1.086
		c-1.158,0.533-2.535,0.023-3.07-1.135l-0.854-1.857c-1.422,0.266-2.852,0.314-4.252,0.162l-0.709,1.922
		c-0.213,0.578-0.641,1.041-1.203,1.301c-0.561,0.258-1.189,0.281-1.77,0.068l-2.43-0.898c-0.58-0.213-1.043-0.641-1.301-1.203
		s-0.283-1.189-0.068-1.77l0.711-1.92c-1.164-0.795-2.219-1.762-3.127-2.887l-1.857,0.855c-1.158,0.533-2.535,0.025-3.068-1.133
		l-1.084-2.354c-0.535-1.158-0.025-2.535,1.133-3.07l1.857-0.854c-0.266-1.422-0.314-2.852-0.162-4.252l-1.922-0.709
		c-0.578-0.213-1.041-0.641-1.301-1.201c-0.258-0.563-0.283-1.189-0.068-1.771l0.896-2.43c0.43-1.16,1.816-1.799,2.975-1.369
		l1.92,0.709c0.795-1.162,1.762-2.217,2.885-3.125l-0.855-1.857c-0.533-1.158-0.023-2.535,1.135-3.07l2.354-1.084
		c1.158-0.533,2.535-0.025,3.07,1.135l0.855,1.855c1.42-0.264,2.85-0.313,4.25-0.16l0.709-1.922c0.428-1.16,1.813-1.797,2.973-1.369
		l2.43,0.896c1.197,0.441,1.811,1.777,1.369,2.973l-0.709,1.922c1.164,0.795,2.217,1.762,3.125,2.887l1.857-0.857
		c1.158-0.533,2.535-0.023,3.07,1.135l1.082,2.352c0.535,1.16,0.025,2.537-1.133,3.07l-1.855,0.855
		c0.264,1.422,0.313,2.85,0.16,4.25l1.924,0.711C95.645,72.205,96.258,73.539,95.816,74.736z M110.639,48.004l-0.537,1.457
		c-0.129,0.346-0.383,0.623-0.721,0.777c-0.336,0.154-0.711,0.17-1.059,0.041l-1.15-0.424c-0.477,0.695-1.055,1.326-1.729,1.871
		l0.512,1.111c0.32,0.693,0.016,1.518-0.678,1.838l-1.41,0.65c-0.693,0.318-1.518,0.014-1.838-0.68l-0.512-1.111
		c-0.852,0.158-1.707,0.188-2.547,0.096l-0.424,1.152c-0.127,0.346-0.383,0.623-0.721,0.777c-0.336,0.154-0.711,0.17-1.059,0.041
		l-1.455-0.537c-0.348-0.129-0.625-0.385-0.779-0.721s-0.17-0.713-0.041-1.059l0.426-1.15c-0.697-0.477-1.328-1.055-1.873-1.729
		l-1.111,0.512c-0.693,0.32-1.518,0.016-1.838-0.678l-0.648-1.41c-0.32-0.693-0.016-1.518,0.678-1.838l1.111-0.512
		c-0.158-0.852-0.188-1.707-0.096-2.545l-1.15-0.426c-0.348-0.127-0.623-0.383-0.779-0.719c-0.154-0.336-0.17-0.713-0.041-1.061
		l0.537-1.455c0.256-0.695,1.088-1.076,1.781-0.82l1.148,0.426c0.477-0.697,1.057-1.328,1.729-1.873l-0.512-1.111
		c-0.32-0.693-0.016-1.518,0.678-1.838l1.41-0.648c0.693-0.32,1.518-0.016,1.838,0.678l0.512,1.111
		c0.852-0.156,1.707-0.188,2.547-0.096l0.424-1.15c0.256-0.695,1.086-1.076,1.779-0.82l1.455,0.537
		c0.717,0.264,1.084,1.064,0.82,1.779l-0.424,1.15c0.695,0.477,1.326,1.057,1.871,1.729l1.111-0.512
		c0.693-0.32,1.518-0.016,1.838,0.68l0.648,1.408c0.32,0.693,0.016,1.52-0.678,1.838l-1.111,0.512
		c0.158,0.852,0.188,1.707,0.096,2.545l1.152,0.426C110.535,46.49,110.902,47.287,110.639,48.004z"/>
	<path fill="#010101" d="M27.094,28.119h-3.643c-1.291,0-2.342,1.051-2.342,2.342v7.284c0,1.291,1.051,2.341,2.342,2.341h3.643
		c1.291,0,2.34-1.05,2.34-2.341v-7.284C29.434,29.17,28.385,28.119,27.094,28.119z M27.873,37.745c0,0.431-0.35,0.78-0.779,0.78
		h-3.643c-0.43,0-0.781-0.35-0.781-0.78v-7.284c0-0.431,0.352-0.78,0.781-0.78h3.643c0.43,0,0.779,0.35,0.779,0.78V37.745z"/>
	<path fill="#010101" d="M50.117,28.119h-3.643c-1.291,0-2.34,1.051-2.34,2.342v7.284c0,1.291,1.049,2.341,2.34,2.341h3.643
		c1.291,0,2.342-1.05,2.342-2.341v-7.284C52.459,29.17,51.408,28.119,50.117,28.119z M50.898,37.745c0,0.431-0.352,0.78-0.781,0.78
		h-3.643c-0.43,0-0.779-0.35-0.779-0.78v-7.284c0-0.431,0.35-0.78,0.779-0.78h3.643c0.43,0,0.781,0.35,0.781,0.78V37.745z"/>
	<path fill="#010101" d="M39.711,45.81h-3.643c-1.291,0-2.34,1.05-2.34,2.341v7.284c0,1.291,1.049,2.342,2.34,2.342h3.643
		c1.291,0,2.342-1.051,2.342-2.342V48.15C42.053,46.859,41.002,45.81,39.711,45.81z M40.49,55.435c0,0.431-0.35,0.78-0.779,0.78
		h-3.643c-0.43,0-0.779-0.35-0.779-0.78V48.15c0-0.43,0.35-0.78,0.779-0.78h3.643c0.43,0,0.779,0.351,0.779,0.78V55.435z"/>
	<path fill="#010101" d="M26.379,61.533h-3.643c-1.291,0-2.342,1.051-2.342,2.342v7.284c0,1.291,1.051,2.341,2.342,2.341h3.643
		c1.291,0,2.34-1.05,2.34-2.341v-7.284C28.719,62.584,27.67,61.533,26.379,61.533z M27.158,71.159c0,0.431-0.35,0.78-0.779,0.78
		h-3.643c-0.43,0-0.781-0.35-0.781-0.78v-7.284c0-0.431,0.352-0.78,0.781-0.78h3.643c0.43,0,0.779,0.35,0.779,0.78V71.159z"/>
	<path fill="#010101" d="M39.711,61.533h-3.643c-1.291,0-2.34,1.051-2.34,2.342v7.284c0,1.291,1.049,2.341,2.34,2.341h3.643
		c1.291,0,2.342-1.05,2.342-2.341v-7.284C42.053,62.584,41.002,61.533,39.711,61.533z M40.49,71.159c0,0.431-0.35,0.78-0.779,0.78
		h-3.643c-0.43,0-0.779-0.35-0.779-0.78v-7.284c0-0.431,0.35-0.78,0.779-0.78h3.643c0.43,0,0.779,0.35,0.779,0.78V71.159z"/>
	<path fill="#010101" d="M37.109,29.614v9.691c0,0.432,0.35,0.78,0.781,0.78c0.43,0,0.779-0.349,0.779-0.78V28.119
		c0-0.291-0.162-0.558-0.418-0.692c-0.26-0.136-0.57-0.114-0.809,0.052L33.15,30.47c-0.354,0.247-0.439,0.733-0.193,1.087
		s0.732,0.44,1.086,0.194L37.109,29.614z"/>
	<path fill="#010101" d="M26.703,58.167c0.432,0,0.781-0.349,0.781-0.78V46.199c0-0.29-0.162-0.557-0.42-0.691
		s-0.568-0.114-0.807,0.052l-4.293,2.991c-0.354,0.246-0.439,0.733-0.193,1.086c0.246,0.354,0.732,0.44,1.086,0.194l3.066-2.136
		v9.691C25.924,57.818,26.271,58.167,26.703,58.167z"/>
	<path fill="#010101" d="M50.805,45.508c-0.258-0.135-0.57-0.114-0.809,0.052l-4.291,2.991c-0.355,0.246-0.441,0.733-0.195,1.086
		c0.246,0.354,0.732,0.44,1.086,0.194l3.066-2.136v9.691c0,0.432,0.35,0.78,0.781,0.78c0.43,0,0.779-0.349,0.779-0.78V46.199
		C51.223,45.909,51.061,45.643,50.805,45.508z"/>
	<path fill="#010101" d="M50.805,60.841c-0.258-0.136-0.57-0.114-0.809,0.052l-4.291,2.991c-0.355,0.247-0.441,0.733-0.195,1.087
		s0.732,0.44,1.086,0.194l3.066-2.137v9.691c0,0.432,0.35,0.78,0.781,0.78c0.43,0,0.779-0.349,0.779-0.78V61.533
		C51.223,61.242,51.061,60.976,50.805,60.841z"/>
</g>
</svg>
