<?xml version="1.0" encoding="utf-8"?>
<!-- Generator: Adobe Illustrator 16.0.0, SVG Export Plug-In . SVG Version: 6.00 Build 0)  -->
<!DOCTYPE svg PUBLIC "-//W3C//DTD SVG 1.1//EN" "http://www.w3.org/Graphics/SVG/1.1/DTD/svg11.dtd">
<svg version="1.1" id="Layer_2" xmlns="http://www.w3.org/2000/svg" xmlns:xlink="http://www.w3.org/1999/xlink" x="0px" y="0px"
	 width="126px" height="126px" viewBox="0 0 126 126" enable-background="new 0 0 126 126" xml:space="preserve">
<g>
	<path d="M59.805,53.083H34.567c-0.642,0-1.258-0.196-1.782-0.567l-0.184-0.149l-3.703-3.455c-1.731,1.441-4.297,1.369-5.92-0.254
		c-1.551-1.551-1.69-3.964-0.445-5.687l-8.392-7.831c-0.204,0.285-0.294,0.637-0.234,0.988l0.915,26.461
		c0.046,0.269,0.175,0.518,0.368,0.711l47.666,47.666c3.607,3.607,9.478,3.607,13.084,0l14.331-14.331
		c3.607-3.607,3.607-9.477,0-13.084L59.805,53.083z"/>
	<path d="M102.858,12.329H35.449c-0.273,0-0.54,0.085-0.763,0.242L15.329,30.635c-0.351,0.248-0.559,0.65-0.559,1.08
		s0.208,0.832,0.559,1.08l19.357,18.063c0.223,0.158,0.49,0.243,0.763,0.243h67.409c5.102,0,9.252-4.151,9.252-9.252V21.582
		C112.11,16.48,107.959,12.329,102.858,12.329z M30.602,35.24c-2.433,0-4.405-1.973-4.406-4.406c0-2.433,1.973-4.406,4.406-4.406
		c2.434,0,4.406,1.973,4.406,4.406C35.008,33.267,33.035,35.24,30.602,35.24z M55.001,41.772l-0.27-2.354h-0.115
		c-1.042,1.466-3.048,2.778-5.709,2.778c-3.781,0-5.709-2.662-5.709-5.362c0-4.513,4.012-6.982,11.226-6.944v-0.385
		c0-1.543-0.425-4.321-4.244-4.321c-1.736,0-3.549,0.54-4.861,1.389l-0.771-2.237c1.543-1.003,3.78-1.659,6.133-1.659
		c5.709,0,7.098,3.896,7.098,7.638v6.982c0,1.62,0.077,3.202,0.309,4.475H55.001z M72.552,42.197c-2.7,0-4.86-1.042-6.249-3.51
		h-0.116l-0.154,3.086h-2.931c0.077-1.273,0.154-3.164,0.154-4.822V14.383h3.356V26.11h0.077c1.196-2.083,3.356-3.433,6.365-3.433
		c4.629,0,7.908,3.857,7.87,9.528C80.923,38.879,76.718,42.197,72.552,42.197z M93.766,39.458c1.929,0,3.202-0.501,4.166-0.926
		l0.579,2.546c-0.887,0.462-2.855,1.08-5.362,1.08c-5.632,0-9.297-3.819-9.297-9.528c0-5.748,3.935-9.914,10.03-9.914
		c2.006,0,3.78,0.501,4.706,0.964l-0.771,2.623c-0.81-0.463-2.083-0.887-3.935-0.887c-4.282,0-6.597,3.164-6.597,7.06
		C87.285,36.796,90.063,39.458,93.766,39.458z"/>
	<path d="M46.592,36.449c0,2.199,1.466,3.241,3.202,3.241c2.43,0,3.973-1.543,4.513-3.125c0.116-0.347,0.193-0.733,0.193-1.081
		v-3.24C50.797,32.167,46.592,32.823,46.592,36.449z"/>
	<path d="M71.974,25.377c-2.315,0-4.475,1.582-5.169,4.166c-0.078,0.386-0.193,0.849-0.193,1.389v3.356
		c0,0.424,0.077,0.849,0.154,1.234c0.656,2.353,2.623,3.974,5.092,3.974c3.549,0,5.671-2.894,5.671-7.175
		C77.528,28.58,75.599,25.377,71.974,25.377z"/>
</g>
</svg>
