<?xml version="1.0" encoding="utf-8"?>
<!-- Generator: Adobe Illustrator 16.0.0, SVG Export Plug-In . SVG Version: 6.00 Build 0)  -->
<!DOCTYPE svg PUBLIC "-//W3C//DTD SVG 1.1//EN" "http://www.w3.org/Graphics/SVG/1.1/DTD/svg11.dtd">
<svg version="1.1" id="Layer_2" xmlns="http://www.w3.org/2000/svg" xmlns:xlink="http://www.w3.org/1999/xlink" x="0px" y="0px"
	 width="126px" height="126px" viewBox="0 0 126 126" enable-background="new 0 0 126 126" xml:space="preserve">
<g>
	<path fill="#010101" d="M120,61.5h-6.538C112.679,34.847,91.153,13.321,64.5,12.538V6h-3v6.538
		C34.847,13.321,13.321,34.847,12.538,61.5H6v3h6.538c0.783,26.653,22.309,48.179,48.962,48.962V120h3v-6.538
		c26.653-0.783,48.179-22.309,48.962-48.962H120V61.5z M63,110.5c-26.191,0-47.5-21.309-47.5-47.5S36.809,15.5,63,15.5
		s47.5,21.309,47.5,47.5S89.191,110.5,63,110.5z"/>
	<polygon fill="#010101" points="64.5,51.76 61.5,51.76 61.5,61.5 51.761,61.5 51.761,64.5 61.5,64.5 61.5,74.24 64.5,74.24 
		64.5,64.5 74.239,64.5 74.239,61.5 64.5,61.5 	"/>
	<rect x="85.666" y="62" fill="#010101" width="20" height="2"/>
	<rect x="20.999" y="62" fill="#010101" width="20" height="2"/>
	<rect x="62" y="85.333" fill="#010101" width="2" height="20"/>
	<rect x="62" y="20.667" fill="#010101" width="2" height="20"/>
</g>
</svg>
