<?xml version="1.0" encoding="utf-8"?>
<!-- Generator: Adobe Illustrator 16.0.0, SVG Export Plug-In . SVG Version: 6.00 Build 0)  -->
<!DOCTYPE svg PUBLIC "-//W3C//DTD SVG 1.1//EN" "http://www.w3.org/Graphics/SVG/1.1/DTD/svg11.dtd">
<svg version="1.1" id="Layer_2" xmlns="http://www.w3.org/2000/svg" xmlns:xlink="http://www.w3.org/1999/xlink" x="0px" y="0px"
	 width="126px" height="126px" viewBox="0 0 126 126" enable-background="new 0 0 126 126" xml:space="preserve">
<g>
	<path fill="#010101" d="M31.702,34.413c-1.857,0-3.369-1.511-3.369-3.369c0-1.857,1.511-3.369,3.369-3.369
		c1.858,0,3.369,1.511,3.369,3.369C35.071,32.902,33.56,34.413,31.702,34.413z M40.973,34.413c-1.857,0-3.368-1.511-3.368-3.369
		c0-1.857,1.511-3.369,3.368-3.369c1.858,0,3.369,1.511,3.369,3.369C44.342,32.902,42.831,34.413,40.973,34.413z M50.374,34.413
		c-1.857,0-3.369-1.511-3.369-3.369c0-1.857,1.512-3.369,3.369-3.369s3.369,1.511,3.369,3.369
		C53.743,32.902,52.231,34.413,50.374,34.413z"/>
	<path fill="#010101" d="M104.624,83.212l-3.854-1.424c0.306-2.807,0.206-5.671-0.323-8.52l3.721-1.715
		c2.322-1.069,3.342-3.829,2.271-6.155l-2.171-4.714c-1.072-2.324-3.832-3.345-6.154-2.275l-3.724,1.717
		c-1.821-2.256-3.933-4.192-6.265-5.788l1.422-3.851c0.885-2.398-0.347-5.075-2.746-5.959l-4.871-1.799
		c-2.326-0.857-5.102,0.421-5.96,2.745l-1.421,3.853c-2.81-0.305-5.676-0.206-8.522,0.323l-1.715-3.72
		c-0.238-0.516-0.563-0.963-0.943-1.342l-0.518-2.154V20.378c0-5.115-4.161-9.276-9.276-9.276H27.623
		c-5.115,0-9.276,4.161-9.276,9.276v21.744c0,5.115,4.162,9.276,9.276,9.276h18.75l6.198,4.578c-2.115,1.76-3.954,3.775-5.474,5.995
		l-3.847-1.421c-2.322-0.862-5.104,0.417-5.964,2.743l-1.797,4.873c-0.431,1.166-0.38,2.424,0.137,3.55
		c0.521,1.124,1.448,1.983,2.608,2.408l3.851,1.423c-0.303,2.808-0.206,5.674,0.325,8.522l-3.722,1.713
		c-2.324,1.071-3.344,3.833-2.273,6.154l2.173,4.72c1.071,2.322,3.832,3.34,6.154,2.271l3.723-1.715
		c1.821,2.256,3.934,4.191,6.267,5.787l-1.423,3.85c-0.43,1.163-0.382,2.419,0.137,3.547c0.517,1.126,1.445,1.983,2.607,2.412
		l4.871,1.8c1.164,0.429,2.424,0.382,3.548-0.137c1.127-0.519,1.983-1.447,2.412-2.606l1.421-3.853
		c2.808,0.304,5.674,0.206,8.524-0.325l1.71,3.722c1.073,2.324,3.834,3.344,6.155,2.275l4.719-2.175
		c2.324-1.07,3.343-3.832,2.273-6.155l-1.715-3.722c2.253-1.823,4.191-3.933,5.785-6.265l3.853,1.423
		c1.164,0.431,2.424,0.38,3.548-0.141c1.126-0.515,1.981-1.445,2.412-2.604l1.797-4.873
		C108.252,86.771,107.021,84.099,104.624,83.212z M47.618,47.634H27.622c-3.027,0-5.49-2.462-5.49-5.49V20.4
		c0-3.027,2.463-5.49,5.49-5.49h25.953c3.027,0,5.49,2.462,5.49,5.49v22.503l3.217,13.369c0.098,0.408-0.069,0.833-0.419,1.066
		c-0.167,0.11-0.359,0.166-0.552,0.166c-0.208,0-0.417-0.065-0.592-0.195L47.618,47.634z M78.104,93.162
		c-8.006,3.687-17.481,0.188-21.169-7.816c-3.687-8.006-0.188-17.483,7.815-21.172c8.007-3.685,17.483-0.188,21.172,7.818
		C89.607,79.997,86.11,89.475,78.104,93.162z"/>
</g>
</svg>
