<?xml version="1.0" encoding="utf-8"?>
<!-- Generator: Adobe Illustrator 16.0.0, SVG Export Plug-In . SVG Version: 6.00 Build 0)  -->
<!DOCTYPE svg PUBLIC "-//W3C//DTD SVG 1.1//EN" "http://www.w3.org/Graphics/SVG/1.1/DTD/svg11.dtd">
<svg version="1.1" id="Layer_1" xmlns="http://www.w3.org/2000/svg" xmlns:xlink="http://www.w3.org/1999/xlink" x="0px" y="0px"
	 width="126px" height="126px" viewBox="0 0 126 126" enable-background="new 0 0 126 126" xml:space="preserve">
<g>
	<polygon points="63,21.305 38.75,55 87.25,55 	"/>
	<path d="M107.4,87H18.6L3.755,107.627h118.489L107.4,87z M12.924,100.023h100.152l0.686,0.953H12.238L12.924,100.023z
		 M109.821,95.5H16.179l0.72-1h92.202L109.821,95.5z M110.541,96.5l1.782,2.477H13.677l1.823-2.533V96.5H110.541z M20.137,90h85.726
		l2.519,3.5H17.618L20.137,90z M9.611,104.627l1.889-2.625v0.021h103.016l1.874,2.604H9.611z"/>
	<path d="M87.969,58H38.031L19.32,84h87.36L87.969,58z M91.428,67.942L82.875,81h-0.634l8.761-13.649L91.428,67.942z M92.04,68.793
		l4.56,6.336L92.447,81h-8.403L92.04,68.793z M97.203,75.968l0.425,0.591L94.257,81h-0.613L97.203,75.968z M98.226,77.389
		L100.825,81h-5.34L98.226,77.389z M90.388,66.497L81.08,81h-7.672l12.964-20h0.06L90.388,66.497z M44.045,61h6.837L38.059,81
		h-6.837L44.045,61z M30.06,81h-0.833l12.825-20h0.833L30.06,81z M52.044,61h0.833L40.054,81H39.22L52.044,61z M54.039,61h8.538
		L49.754,81h-8.539L54.039,61z M63.738,61h0.832L51.748,81h-0.833L63.738,61z M65.732,61h6.839L59.788,80.937L59.887,81h-6.978
		L65.732,61z M73.732,61h0.833L61.816,80.883L61.999,81h-1.091L73.732,61z M75.726,61h7.487L70.25,81h-7.347L75.726,61z M84.377,61
		h0.83L72.243,81h-0.829L84.377,61z M39.568,61h1.322L28.065,81h-2.89L39.568,61z"/>
</g>
</svg>
