<?xml version="1.0" encoding="utf-8"?>
<!-- Generator: Adobe Illustrator 16.0.0, SVG Export Plug-In . SVG Version: 6.00 Build 0)  -->
<!DOCTYPE svg PUBLIC "-//W3C//DTD SVG 1.1//EN" "http://www.w3.org/Graphics/SVG/1.1/DTD/svg11.dtd">
<svg version="1.1" id="Layer_1" xmlns="http://www.w3.org/2000/svg" xmlns:xlink="http://www.w3.org/1999/xlink" x="0px" y="0px"
	 width="126px" height="126px" viewBox="0 0 126 126" enable-background="new 0 0 126 126" xml:space="preserve">
<g>
	<path fill="#010101" d="M111.012,91.262l-0.35-0.129c-0.002-0.5-0.021-0.996-0.059-1.494l0.336-0.154
		c1.436-0.66,2.527-1.84,3.074-3.324c0.547-1.482,0.484-3.086-0.176-4.52l-1.363-2.961c-0.963-2.088-3.072-3.438-5.373-3.438
		c-0.857,0-1.689,0.182-2.469,0.541l-0.34,0.156c-0.354-0.35-0.719-0.688-1.098-1.014l0.131-0.352
		c1.127-3.059-0.443-6.465-3.498-7.592l-3.061-1.131c-0.635-0.234-1.305-0.354-1.99-0.354c-2.498,0-4.75,1.547-5.602,3.852
		l-0.129,0.352c-0.498,0.002-0.996,0.02-1.492,0.057l-0.156-0.338c-0.963-2.088-3.072-3.438-5.375-3.438
		c-0.857,0-1.688,0.182-2.469,0.541l-2.961,1.363c-2.959,1.363-4.26,4.883-2.896,7.844l0.156,0.338
		c-0.352,0.355-0.689,0.721-1.014,1.1l-0.342-0.127c-0.639-0.238-1.313-0.357-2.002-0.357c-0.439,0-0.867,0.063-1.285,0.154
		c-0.602-0.234-1.201-0.475-1.805-0.707c-0.521-0.197-1.145-0.598-1.361-1.053c-0.57-1.264-0.965-2.602-1.379-3.92
		c-0.252-0.85-0.479-1.643-1.402-2.053c-0.254-0.111-0.479-0.598-0.479-0.912c0.055-3.068-0.66-6.291,1.619-8.969
		c0.068-0.082,0.098-0.201,0.148-0.299c1.229-2.688,1.439-5.764,3.158-8.266c0.043-0.055,0.053-0.137,0.063-0.209
		c0.199-1.916,0.402-3.814,0.566-5.725c0.018-0.232-0.189-0.654-0.393-0.727c-0.945-0.332-0.896-1.096-0.889-1.854
		c0-3.729,0-4.271-0.008-8c0-2.168-0.637-4.092-2.271-5.568c-1.871-1.676-3.785-3.299-5.705-4.916
		c-0.922-0.785-1.006-1.389-0.137-2.248c0.387-0.379,0.871-0.654,1.322-0.973c-0.104-0.148-0.197-0.293-0.293-0.439
		c-0.58,0-1.164-0.076-1.725,0.01c-2.123,0.34-4.254,0.643-6.334,1.131c-3.979,0.938-7.838,2.182-11.063,4.844
		c-2.203,1.818-3.965,3.936-4.188,6.934c-0.111,1.57-0.1,3.152-0.111,4.721c-0.014,2.564,0.021,1.941-0.033,4.496
		c-0.014,0.416-0.242,1.102-0.535,1.193c-1.033,0.338-1.066,1-0.924,1.863c0.102,0.594,0.025,1.213,0.154,1.793
		c0.357,1.602,0.736,3.205,1.199,4.779c0.342,1.174,1.008,2.283,1.197,3.477c0.363,2.385,1.256,4.457,2.867,6.262
		c0.262,0.297,0.463,0.797,0.432,1.193c-0.127,1.83-0.314,3.666-0.563,5.49c-0.053,0.354-0.424,0.885-0.729,0.955
		c-1.221,0.248-1.408,1.186-1.699,2.141c-0.381,1.254-0.791,2.502-1.275,3.717c-0.152,0.379-0.531,0.77-0.906,0.941
		c-2.164,0.938-4.375,1.811-6.559,2.725c-2.322,0.977-4.67,1.912-6.939,2.988c-2.34,1.121-4.611,2.377-6.902,3.607
		c-1.348,0.721-2.607,1.521-3.66,2.512l-3.188,13.578c15.527,0,23.635,11.227,39.791,12.611l-5.953-8.217l9.232-25.25l-2.857-6.133
		h5.721l-2.863,6.133l9.232,25.25l-5.799,8.016c5.602-0.936,12.793-3.795,19.775-6.533c0.107,0.098,0.209,0.201,0.318,0.295
		l-0.127,0.342c-0.551,1.482-0.49,3.09,0.172,4.523c0.658,1.436,1.838,2.529,3.322,3.078l3.057,1.127
		c0.66,0.246,1.352,0.369,2.051,0.369c0.855,0,1.688-0.182,2.471-0.543c1.434-0.66,2.525-1.84,3.072-3.32l0.129-0.352
		c0.498-0.002,0.996-0.021,1.494-0.059l0.156,0.34c0.963,2.088,3.072,3.438,5.375,3.438c0.857,0,1.688-0.184,2.469-0.543
		l2.959-1.363c2.961-1.363,4.26-4.883,2.896-7.844l-0.156-0.338c0.352-0.354,0.689-0.721,1.014-1.098l0.352,0.131
		c1.471,0.545,3.104,0.477,4.52-0.178c1.434-0.658,2.525-1.838,3.074-3.32l1.127-3.059C115.639,95.801,114.07,92.395,111.012,91.262
		z M112.053,97.785l-1.129,3.059c-0.27,0.729-0.807,1.311-1.512,1.635c-0.707,0.326-1.498,0.357-2.229,0.088l-2.418-0.893
		c-1,1.463-2.217,2.787-3.631,3.932l1.076,2.336c0.672,1.459,0.033,3.191-1.426,3.863l-2.961,1.363
		c-1.457,0.672-3.191,0.031-3.863-1.426l-1.074-2.336c-1.789,0.332-3.588,0.395-5.35,0.203l-0.893,2.418
		c-0.27,0.729-0.807,1.311-1.514,1.637c-0.707,0.324-1.498,0.355-2.227,0.086l-3.059-1.129c-0.729-0.27-1.311-0.809-1.635-1.516
		c-0.326-0.707-0.357-1.496-0.086-2.227l0.893-2.416c-1.465-1-2.791-2.217-3.934-3.631l-2.336,1.076
		c-1.459,0.672-3.191,0.031-3.863-1.426l-1.363-2.963c-0.672-1.457-0.033-3.189,1.426-3.861l2.336-1.076
		c-0.332-1.787-0.395-3.586-0.203-5.348l-2.418-0.895c-0.727-0.268-1.309-0.805-1.637-1.512c-0.324-0.705-0.355-1.496-0.086-2.227
		l1.129-3.059c0.539-1.461,2.285-2.264,3.742-1.721l2.414,0.891c1.002-1.463,2.219-2.789,3.633-3.934l-1.076-2.336
		c-0.672-1.457-0.031-3.191,1.426-3.863l2.961-1.363c1.459-0.672,3.191-0.031,3.863,1.428l1.076,2.334
		c1.787-0.33,3.586-0.393,5.348-0.203l0.893-2.418c0.539-1.457,2.281-2.26,3.74-1.723l3.059,1.131
		c1.506,0.555,2.277,2.234,1.723,3.74l-0.893,2.416c1.463,1.002,2.789,2.217,3.932,3.633l2.338-1.078
		c1.457-0.672,3.189-0.031,3.861,1.428l1.363,2.959c0.672,1.459,0.033,3.193-1.426,3.863l-2.336,1.076
		c0.332,1.789,0.395,3.586,0.205,5.35l2.418,0.893C111.836,94.602,112.609,96.279,112.053,97.785z"/>
	<path fill="#010101" d="M89.49,79.676c-1.668,0-3.287,0.355-4.813,1.058c-5.766,2.656-8.297,9.51-5.641,15.277
		c1.875,4.069,5.982,6.7,10.465,6.7c1.668,0,3.287-0.356,4.813-1.06c5.766-2.656,8.297-9.509,5.641-15.277
		C98.08,82.305,93.973,79.676,89.49,79.676z M93.059,98.927c-1.129,0.521-2.326,0.784-3.557,0.784c-3.314,0-6.354-1.945-7.74-4.956
		c-1.963-4.265-0.092-9.332,4.172-11.297c1.129-0.52,2.324-0.782,3.557-0.782c3.316,0,6.354,1.944,7.74,4.953
		C99.193,91.895,97.322,96.963,93.059,98.927z"/>
	<path fill="#010101" d="M70.857,38.078l13.445,3.247c3.627,3.879,8.707,6.094,14.021,6.094c10.582,0,19.191-8.608,19.191-19.19
		S108.906,9.037,98.324,9.037s-19.191,8.609-19.191,19.191c0,0.419,0.016,0.841,0.045,1.274l-8.809,5.725
		c-0.527,0.343-0.801,0.967-0.693,1.586C69.781,37.434,70.246,37.931,70.857,38.078z M81.691,31.625
		c0.502-0.326,0.775-0.908,0.707-1.502c-0.078-0.67-0.117-1.289-0.117-1.895c0-8.846,7.197-16.043,16.043-16.043
		s16.043,7.197,16.043,16.043s-7.197,16.042-16.043,16.042c-4.582,0-8.957-1.971-12.004-5.407c-0.213-0.24-0.496-0.41-0.809-0.485
		L75.15,35.876L81.691,31.625z"/>
	<path fill="#010101" d="M89.83,37.231h2.664c0.186,0,0.334-0.149,0.334-0.333v-8.883c0-0.184-0.148-0.333-0.334-0.333H89.83
		c-0.184,0-0.334,0.149-0.334,0.333v8.883C89.496,37.082,89.646,37.231,89.83,37.231z"/>
	<path fill="#010101" d="M96.742,37.231h2.664c0.184,0,0.334-0.149,0.334-0.333V24.352c0-0.184-0.15-0.333-0.334-0.333h-2.664
		c-0.186,0-0.334,0.149-0.334,0.333v12.547C96.408,37.082,96.557,37.231,96.742,37.231z"/>
	<path fill="#010101" d="M103.348,37.231h2.666c0.184,0,0.332-0.149,0.332-0.333V17.231c0-0.185-0.148-0.333-0.332-0.333h-2.666
		c-0.184,0-0.332,0.148-0.332,0.333v19.667C103.016,37.082,103.164,37.231,103.348,37.231z"/>
</g>
</svg>
