<?xml version="1.0" encoding="utf-8"?>
<!-- Generator: Adobe Illustrator 16.0.0, SVG Export Plug-In . SVG Version: 6.00 Build 0)  -->
<!DOCTYPE svg PUBLIC "-//W3C//DTD SVG 1.1//EN" "http://www.w3.org/Graphics/SVG/1.1/DTD/svg11.dtd">
<svg version="1.1" id="Layer_2" xmlns="http://www.w3.org/2000/svg" xmlns:xlink="http://www.w3.org/1999/xlink" x="0px" y="0px"
	 width="126px" height="126px" viewBox="0 0 126 126" enable-background="new 0 0 126 126" xml:space="preserve">
<g>
	<path fill="#010101" d="M105.291,84.884c-1.036-1.064-2.257-1.955-3.672-2.681c-7.08-3.631-14.41-6.643-21.822-9.487
		c-0.552-0.208-1.211-0.633-1.44-1.116c-0.606-1.339-1.024-2.758-1.46-4.156c-0.271-0.9-0.509-1.742-1.49-2.177
		c-0.266-0.118-0.509-0.633-0.509-0.966c0.058-3.256-0.698-6.67,1.718-9.511c0.075-0.087,0.105-0.212,0.155-0.316
		c1.307-2.848,1.528-6.11,3.353-8.763c0.045-0.059,0.055-0.146,0.063-0.223c0.215-2.03,0.429-4.045,0.604-6.069
		c0.016-0.246-0.202-0.695-0.419-0.771c-0.999-0.352-0.948-1.162-0.94-1.965c0-3.954,0-4.528-0.008-8.481
		c0-2.298-0.675-4.339-2.409-5.904c-1.983-1.777-4.014-3.499-6.048-5.213c-0.977-0.832-1.066-1.47-0.146-2.382
		c0.409-0.404,0.924-0.696,1.4-1.033c-0.105-0.156-0.206-0.31-0.312-0.466c-0.612,0-1.231-0.08-1.825,0.011
		c-2.256,0.362-4.513,0.681-6.717,1.2c-4.217,0.995-8.31,2.313-11.729,5.135c-2.336,1.928-4.203,4.174-4.442,7.352
		c-0.115,1.666-0.101,3.343-0.115,5.005c-0.018,2.719,0.024,2.058-0.034,4.767c-0.016,0.442-0.258,1.168-0.57,1.266
		c-1.096,0.358-1.128,1.061-0.978,1.976c0.106,0.628,0.027,1.286,0.162,1.902c0.381,1.696,0.782,3.397,1.273,5.066
		c0.363,1.244,1.068,2.42,1.271,3.686c0.385,2.528,1.327,4.726,3.039,6.639c0.276,0.316,0.49,0.845,0.458,1.267
		c-0.137,1.939-0.335,3.886-0.599,5.82c-0.055,0.376-0.447,0.94-0.771,1.012c-1.295,0.264-1.492,1.258-1.803,2.271
		c-0.404,1.328-0.839,2.653-1.352,3.94c-0.162,0.403-0.565,0.817-0.96,0.998c-2.296,0.994-4.638,1.919-6.955,2.889
		c-2.463,1.037-4.952,2.027-7.357,3.168c-2.479,1.189-4.889,2.521-7.318,3.825c-1.429,0.765-2.768,1.614-3.879,2.664l-3.381,14.397
		c12.153,0,20.022,6.483,30.199,10.47c3.482,4.78,9.107,7.9,15.474,7.9c6.796,0,12.751-3.551,16.149-8.888
		c10.804-3.978,22.712-9.482,29.523-9.482L105.291,84.884z M63.167,115.733c-8.087,0-14.666-6.58-14.666-14.667
		S55.08,86.4,63.167,86.4s14.666,6.58,14.666,14.667S71.254,115.733,63.167,115.733z"/>
	<path fill="#010101" d="M64.837,92.485l-0.336,12.149h-2.668l-0.336-12.149H64.837z M63.167,109.647
		c-1.075,0-1.888-0.839-1.888-1.951c0-1.113,0.813-1.952,1.888-1.952c1.094,0,1.888,0.821,1.888,1.952
		C65.055,108.827,64.261,109.647,63.167,109.647z"/>
</g>
</svg>
