<?xml version="1.0" encoding="utf-8"?>
<!-- Generator: Adobe Illustrator 16.0.0, SVG Export Plug-In . SVG Version: 6.00 Build 0)  -->
<!DOCTYPE svg PUBLIC "-//W3C//DTD SVG 1.1//EN" "http://www.w3.org/Graphics/SVG/1.1/DTD/svg11.dtd">
<svg version="1.1" id="Layer_2" xmlns="http://www.w3.org/2000/svg" xmlns:xlink="http://www.w3.org/1999/xlink" x="0px" y="0px"
	 width="126px" height="126px" viewBox="0 0 126 126" enable-background="new 0 0 126 126" xml:space="preserve">
<g>
	<path fill="#010101" d="M72.993,54.717c0.007,0.215,0.014,0.43,0.019,0.644c0.746,0.663,1.001,1.513,1.154,2.026l0.096,0.306
		c0.189,0.609,0.37,1.191,0.587,1.729c1.296,0.5,2.66,1.037,4.063,1.607l5.597-8.266l-9.601-1.498l-1.931,2.852
		C72.98,54.307,72.986,54.505,72.993,54.717z"/>
	<path fill="#010101" d="M84.726,63.537l2.886,1.043l11.328-7.213l-8.061-2.915l-10.97,6.984
		C81.478,62.086,83.093,62.784,84.726,63.537z"/>
	<path fill="#010101" d="M89.882,66.198c0.097,0.068,0.194,0.135,0.288,0.205l3.686,2.622l15.605-5.049l-5.645-4.017l-15.605,5.05
		L89.882,66.198z"/>
	<polygon fill="#010101" points="96.743,74.206 114.925,71.865 112.313,67.188 94.13,69.525 	"/>
	<polygon fill="#010101" points="96.663,74.72 95.959,79.553 114.737,80.182 115.44,75.351 	"/>
	<polygon fill="#010101" points="91.59,84.484 108.917,88.015 112.86,83.558 95.533,80.025 	"/>
	<polygon fill="#010101" points="84.11,88.467 98.099,94.512 104.853,90.912 90.865,84.868 	"/>
	<polygon fill="#010101" points="74.337,91.064 83.462,98.965 92.291,96.616 83.165,88.715 	"/>
	<polygon fill="#010101" points="63.333,91.993 66.602,100.889 76.542,100.046 73.274,91.152 	"/>
	<polygon fill="#010101" points="49.354,100.074 59.324,100.83 62.27,91.91 52.3,91.152 	"/>
	<polygon fill="#010101" points="42.437,88.635 33.6,96.608 42.512,98.883 51.35,90.908 	"/>
	<polygon fill="#010101" points="34.821,84.712 21.054,90.871 27.938,94.414 41.705,88.255 	"/>
	<polygon fill="#010101" points="30.28,79.813 13.085,83.487 17.189,87.91 34.386,84.238 	"/>
	<polygon fill="#010101" points="29.312,74.473 10.56,75.26 11.439,80.085 30.19,79.3 	"/>
	<polygon fill="#010101" points="32.019,69.272 13.754,67.088 11.313,71.787 29.576,73.972 	"/>
	<polygon fill="#010101" points="38.107,64.778 22.319,59.859 16.823,63.921 32.609,68.84 	"/>
	<polygon fill="#010101" points="46.913,61.48 35.324,54.362 27.37,57.344 38.959,64.461 	"/>
	<path fill="#010101" d="M48.044,61.104c0.584-0.245,1.171-0.486,1.757-0.727c0.743-0.305,1.484-0.608,2.219-0.923
		c0.211-0.557,0.418-1.178,0.657-1.966l0.042-0.137c0.155-0.517,0.476-1.56,1.47-2.2l-2.839-3.957l-9.544,1.578l6.039,8.414
		L48.044,61.104z"/>
	<path fill="#010101" d="M65.597,87.049c7.77-1.3,20.17-8.195,26.184-8.195l-2.104-9.075c-0.646-0.663-1.405-1.218-2.288-1.672
		c-4.409-2.262-8.975-4.138-13.59-5.909c-0.345-0.13-0.756-0.394-0.899-0.693c-0.377-0.836-0.637-1.72-0.909-2.59
		c-0.168-0.56-0.316-1.083-0.928-1.356c-0.166-0.073-0.316-0.394-0.316-0.602c0.035-2.027-0.436-4.154,1.07-5.922
		c0.045-0.057,0.064-0.135,0.096-0.199c0.814-1.771,0.953-3.804,2.088-5.458c0.027-0.034,0.034-0.091,0.041-0.139
		c0.132-1.265,0.266-2.517,0.375-3.777c0.01-0.156-0.126-0.434-0.26-0.481c-0.625-0.221-0.592-0.723-0.588-1.226
		c0-2.46,0-2.819-0.004-5.28c0-1.434-0.42-2.703-1.501-3.678c-1.235-1.109-2.499-2.179-3.767-3.249
		c-0.608-0.516-0.665-0.914-0.091-1.481c0.255-0.251,0.576-0.434,0.872-0.646c-0.066-0.095-0.129-0.19-0.194-0.29
		c-0.382,0-0.767-0.048-1.138,0.009c-1.402,0.226-2.809,0.425-4.182,0.745c-2.627,0.619-5.177,1.442-7.306,3.201
		c-1.456,1.199-2.618,2.6-2.769,4.578c-0.071,1.036-0.063,2.08-0.071,3.115c-0.011,1.693,0.016,1.282-0.021,2.972
		c-0.009,0.272-0.16,0.728-0.354,0.788c-0.683,0.221-0.702,0.658-0.609,1.23c0.067,0.39,0.018,0.801,0.102,1.183
		c0.236,1.057,0.488,2.118,0.793,3.157c0.226,0.775,0.665,1.508,0.791,2.297c0.24,1.572,0.827,2.941,1.893,4.132
		c0.174,0.199,0.306,0.528,0.286,0.788c-0.085,1.209-0.208,2.422-0.372,3.626c-0.035,0.234-0.28,0.585-0.481,0.633
		c-0.806,0.165-0.929,0.784-1.122,1.412c-0.251,0.827-0.521,1.655-0.842,2.456c-0.1,0.252-0.352,0.507-0.599,0.619
		c-1.429,0.62-2.89,1.196-4.331,1.803c-1.534,0.646-3.085,1.26-4.584,1.971c-1.544,0.74-3.045,1.572-4.557,2.383
		c-0.891,0.477-1.725,1.005-2.417,1.658l-2.105,8.968c10.253,0,15.607,7.416,26.276,8.33l-3.931-5.428l6.097-16.674l-1.887-4.05
		h3.777l-1.891,4.05l6.098,16.674L65.597,87.049z"/>
</g>
</svg>
