<?xml version="1.0" encoding="utf-8"?>
<!-- Generator: Adobe Illustrator 16.0.0, SVG Export Plug-In . SVG Version: 6.00 Build 0)  -->
<!DOCTYPE svg PUBLIC "-//W3C//DTD SVG 1.1//EN" "http://www.w3.org/Graphics/SVG/1.1/DTD/svg11.dtd">
<svg version="1.1" id="Layer_1" xmlns="http://www.w3.org/2000/svg" xmlns:xlink="http://www.w3.org/1999/xlink" x="0px" y="0px"
	 width="126px" height="126px" viewBox="0 0 126 126" enable-background="new 0 0 126 126" xml:space="preserve">
<g>
	<path fill="#010101" d="M102.868,93.252l-2.95-12.72c-0.905-0.93-1.97-1.707-3.202-2.342c-6.184-3.168-12.582-5.798-19.051-8.28
		c-0.483-0.183-1.06-0.552-1.26-0.974c-0.333-0.737-0.596-1.503-0.844-2.273c-0.414,0.466-0.918,0.849-1.5,1.117l-2.96,1.365
		c-0.605,0.278-1.248,0.421-1.912,0.421c-1.785,0-3.42-1.047-4.166-2.666l-0.551-1.195c-1.071,0.127-2.148,0.173-3.228,0.123
		l-0.458,1.238c-0.423,1.148-1.269,2.063-2.381,2.574c-0.605,0.279-1.25,0.421-1.914,0.421c-0.542,0-1.077-0.096-1.589-0.285
		l-3.058-1.129c-0.818-0.302-1.508-0.825-2.027-1.498c-0.196,0.577-0.404,1.149-0.629,1.715c-0.141,0.352-0.492,0.712-0.838,0.87
		c-2.003,0.868-4.049,1.675-6.071,2.522c-2.149,0.905-4.322,1.769-6.422,2.766c-2.165,1.038-4.269,2.2-6.387,3.34
		c-1.248,0.667-2.414,1.407-3.388,2.324l-2.95,12.565c14.37,0,21.874,10.392,36.826,11.673l-5.509-7.604l8.544-23.369l-2.643-5.677
		h5.293l-2.65,5.677l8.545,23.369l-5.366,7.419C77.06,102.918,94.438,93.252,102.868,93.252z"/>
	<path fill="#010101" d="M40.775,40.948l2.418,0.894c-0.19,1.762-0.128,3.561,0.204,5.349l-2.336,1.075
		c-1.458,0.672-2.098,2.405-1.426,3.862l1.364,2.962c0.671,1.458,2.404,2.098,3.862,1.426l2.336-1.076
		c1.143,1.415,2.469,2.631,3.934,3.632l-0.893,2.416c-0.271,0.729-0.24,1.52,0.086,2.227c0.324,0.706,0.906,1.245,1.636,1.515
		l3.058,1.129c0.729,0.27,1.52,0.239,2.227-0.086s1.244-0.908,1.512-1.636l0.893-2.418c1.763,0.19,3.562,0.128,5.349-0.204
		l1.076,2.336c0.672,1.458,2.405,2.099,3.862,1.427l2.961-1.364c1.458-0.672,2.098-2.404,1.426-3.863l-1.076-2.336
		c1.414-1.144,2.63-2.469,3.631-3.932l2.418,0.893c0.73,0.27,1.521,0.238,2.228-0.088c0.706-0.324,1.243-0.906,1.513-1.635
		l1.129-3.059c0.556-1.506-0.217-3.183-1.722-3.74l-2.418-0.893c0.19-1.763,0.128-3.561-0.204-5.349l2.336-1.076
		c1.458-0.671,2.098-2.404,1.426-3.863l-1.363-2.96c-0.672-1.458-2.405-2.099-3.862-1.427l-2.337,1.077
		c-1.143-1.415-2.469-2.631-3.933-3.632l0.893-2.417c0.556-1.506-0.217-3.185-1.722-3.74l-3.058-1.13
		c-1.46-0.538-3.202,0.265-3.74,1.723l-0.893,2.418c-1.763-0.19-3.561-0.128-5.349,0.203l-1.076-2.335
		c-0.671-1.459-2.405-2.099-3.863-1.427l-2.96,1.363c-1.458,0.672-2.098,2.405-1.427,3.863l1.077,2.336
		c-1.414,1.144-2.63,2.47-3.632,3.934l-2.415-0.892c-1.457-0.542-3.203,0.261-3.742,1.721l-1.129,3.059
		c-0.269,0.73-0.238,1.521,0.087,2.228C39.466,40.143,40.048,40.681,40.775,40.948z M57.419,34.704
		c5.024-2.313,10.973-0.118,13.287,4.906c2.314,5.024,0.118,10.973-4.906,13.287c-5.024,2.313-10.973,0.118-13.287-4.906
		C50.199,42.967,52.395,37.019,57.419,34.704z"/>
</g>
</svg>
