<?xml version="1.0" encoding="utf-8"?>
<!-- Generator: Adobe Illustrator 16.0.0, SVG Export Plug-In . SVG Version: 6.00 Build 0)  -->
<!DOCTYPE svg PUBLIC "-//W3C//DTD SVG 1.1//EN" "http://www.w3.org/Graphics/SVG/1.1/DTD/svg11.dtd">
<svg version="1.1" id="Layer_2" xmlns="http://www.w3.org/2000/svg" xmlns:xlink="http://www.w3.org/1999/xlink" x="0px" y="0px"
	 width="126px" height="126px" viewBox="0 0 126 126" enable-background="new 0 0 126 126" xml:space="preserve">
<path fill="#010101" d="M115.738,77.066l-1.328-5.726c-0.408-0.418-0.887-0.768-1.443-1.055c-2.783-1.427-5.664-2.61-8.576-3.728
	c-0.217-0.083-0.477-0.249-0.566-0.438c-0.236-0.528-0.402-1.085-0.574-1.634c-0.105-0.353-0.199-0.684-0.584-0.856
	c-0.105-0.046-0.197-0.249-0.197-0.38c0.02-1.279-0.277-2.621,0.672-3.736c0.029-0.035,0.041-0.084,0.061-0.126
	c0.514-1.118,0.602-2.399,1.318-3.443c0.018-0.022,0.021-0.058,0.025-0.088c0.082-0.798,0.168-1.588,0.236-2.383
	c0.008-0.098-0.08-0.273-0.164-0.303c-0.395-0.14-0.373-0.457-0.371-0.773c0-1.553,0-1.78-0.002-3.332
	c0-0.904-0.266-1.706-0.947-2.32c-0.779-0.7-1.576-1.375-2.377-2.05c-0.385-0.325-0.418-0.577-0.057-0.935
	c0.162-0.159,0.363-0.273,0.551-0.407c-0.041-0.06-0.082-0.12-0.121-0.183c-0.244,0-0.486-0.03-0.721,0.005
	c-0.883,0.143-1.771,0.268-2.639,0.47c-1.658,0.391-3.266,0.91-4.609,2.02c-0.918,0.757-1.652,1.64-1.744,2.889
	c-0.047,0.653-0.041,1.312-0.047,1.965c-0.006,1.069,0.01,0.809-0.014,1.875c-0.006,0.172-0.102,0.459-0.223,0.498
	c-0.432,0.139-0.445,0.416-0.387,0.776c0.043,0.246,0.012,0.506,0.064,0.746c0.15,0.667,0.309,1.337,0.502,1.993
	c0.141,0.489,0.42,0.951,0.498,1.448c0.152,0.992,0.523,1.856,1.195,2.607c0.107,0.126,0.193,0.333,0.18,0.498
	c-0.055,0.762-0.131,1.527-0.236,2.287c-0.021,0.147-0.176,0.369-0.303,0.399c-0.508,0.104-0.586,0.495-0.707,0.891
	c-0.158,0.521-0.33,1.044-0.531,1.549c-0.064,0.158-0.223,0.32-0.377,0.391c-0.904,0.391-1.824,0.755-2.734,1.137
	c-0.967,0.408-1.945,0.795-2.893,1.244c-0.973,0.468-1.92,0.993-2.875,1.503c-0.561,0.3-1.086,0.634-1.525,1.047l-0.607,2.591
	c-1.057-1.09-3.281-1.81-5.986-1.81c-0.061,0-0.117,0.004-0.176,0.004L54.525,45.457c1.537-0.459,2.537-1.294,2.537-2.3
	c0-0.297-0.109-0.574-0.271-0.837l17.781-6.071c0.736,0.291,1.645,0.448,2.559,0.448c2.035,0,4.096-0.737,4.096-2.146
	c0-2.075-4.436-2.617-6.777-1.636l-0.543-2.337c-0.203-0.21-0.445-0.387-0.725-0.531c-1.402-0.719-2.854-1.314-4.318-1.876
	c-0.109-0.042-0.24-0.126-0.285-0.221c-0.119-0.266-0.203-0.546-0.291-0.823c-0.053-0.178-0.098-0.344-0.293-0.431
	c-0.053-0.023-0.1-0.125-0.1-0.191c0.01-0.644-0.139-1.319,0.34-1.881c0.014-0.018,0.02-0.042,0.031-0.063
	c0.256-0.563,0.301-1.208,0.662-1.734c0.008-0.01,0.01-0.029,0.012-0.043c0.043-0.402,0.086-0.8,0.121-1.2
	c0.004-0.05-0.041-0.138-0.084-0.153c-0.199-0.07-0.188-0.229-0.186-0.389c0-0.782,0-0.896-0.002-1.677
	c0-0.455-0.135-0.858-0.477-1.168c-0.393-0.353-0.795-0.692-1.197-1.032c-0.193-0.164-0.209-0.291-0.027-0.471
	c0.08-0.08,0.182-0.138,0.275-0.206c-0.02-0.03-0.041-0.06-0.061-0.092c-0.123,0-0.244-0.015-0.361,0.003
	c-0.445,0.072-0.893,0.134-1.328,0.237c-0.836,0.196-1.646,0.458-2.322,1.017c-0.461,0.381-0.832,0.826-0.879,1.455
	c-0.023,0.329-0.02,0.661-0.023,0.99c-0.002,0.537,0.006,0.407-0.006,0.943c-0.002,0.087-0.053,0.231-0.113,0.25
	c-0.215,0.07-0.225,0.209-0.193,0.391c0.021,0.124,0.006,0.255,0.033,0.375c0.074,0.336,0.154,0.673,0.252,1.003
	c0.07,0.246,0.211,0.479,0.25,0.729c0.076,0.5,0.264,0.935,0.602,1.313c0.055,0.063,0.098,0.167,0.092,0.25
	c-0.027,0.384-0.066,0.769-0.119,1.151c-0.012,0.075-0.09,0.186-0.152,0.201c-0.256,0.052-0.295,0.25-0.357,0.449
	c-0.08,0.263-0.164,0.525-0.268,0.78c-0.031,0.079-0.111,0.161-0.188,0.196c-0.457,0.197-0.92,0.38-1.379,0.572
	c-0.486,0.206-0.979,0.401-1.455,0.626c-0.49,0.236-0.967,0.5-1.447,0.757c-0.283,0.151-0.547,0.319-0.768,0.527l-0.67,2.849
	c3.258,0,4.957,2.356,8.348,2.646l-1.25-1.724l1.938-5.297l-0.598-1.287h1.199l-0.602,1.287l1.938,5.297l-1.217,1.682
	c2.027-0.34,5.033-1.862,7.105-2.4c-0.205,0.256-0.328,0.55-0.328,0.886c0,0.328,0.121,0.616,0.318,0.871L55.814,41.41
	c-0.957-0.575-2.385-0.936-4.059-0.936c-2.203,0-3.998,0.616-4.818,1.54l-0.795-3.43c-0.275-0.282-0.602-0.519-0.977-0.713
	c-1.881-0.965-3.83-1.765-5.799-2.52c-0.146-0.056-0.322-0.169-0.385-0.296c-0.158-0.356-0.271-0.733-0.389-1.105
	c-0.07-0.238-0.133-0.462-0.395-0.579c-0.07-0.032-0.133-0.168-0.133-0.257c0.014-0.865-0.188-1.772,0.455-2.526
	c0.02-0.023,0.027-0.057,0.041-0.085c0.346-0.756,0.406-1.623,0.891-2.329c0.012-0.014,0.014-0.038,0.018-0.059
	c0.055-0.54,0.113-1.074,0.16-1.612c0.006-0.066-0.055-0.185-0.111-0.205c-0.268-0.095-0.254-0.309-0.25-0.523
	c0-1.05,0-1.203-0.004-2.253c0-0.611-0.178-1.153-0.639-1.569c-0.527-0.473-1.066-0.93-1.607-1.386
	c-0.26-0.22-0.283-0.39-0.037-0.632c0.107-0.107,0.244-0.185,0.371-0.275c-0.027-0.041-0.055-0.081-0.082-0.125
	c-0.164,0-0.328-0.02-0.486,0.004c-0.598,0.096-1.199,0.181-1.785,0.317c-1.121,0.265-2.209,0.615-3.117,1.366
	c-0.621,0.512-1.117,1.109-1.18,1.954c-0.031,0.442-0.027,0.887-0.031,1.329c-0.004,0.722,0.008,0.547-0.01,1.268
	c-0.002,0.117-0.068,0.311-0.15,0.336c-0.291,0.094-0.301,0.281-0.26,0.525c0.027,0.167,0.006,0.342,0.043,0.504
	c0.102,0.452,0.209,0.904,0.34,1.348c0.094,0.331,0.281,0.643,0.334,0.98c0.104,0.67,0.355,1.255,0.809,1.763
	c0.074,0.085,0.133,0.226,0.123,0.336c-0.037,0.516-0.088,1.033-0.16,1.547c-0.014,0.1-0.119,0.25-0.203,0.27
	c-0.344,0.07-0.396,0.334-0.48,0.603c-0.107,0.353-0.221,0.706-0.357,1.048c-0.043,0.107-0.15,0.216-0.254,0.264
	c-0.613,0.264-1.234,0.51-1.852,0.769c-0.652,0.275-1.314,0.538-1.955,0.84c-0.658,0.317-1.299,0.672-1.945,1.017
	c-0.379,0.204-0.734,0.429-1.029,0.708l-0.898,3.826c4.373,0,6.658,3.164,11.211,3.554l-1.678-2.316L34.9,36.58l-0.805-1.728h1.611
	L34.9,36.58l2.602,7.115l-1.633,2.258c3.146-0.526,8.07-3.2,10.756-3.47c-0.102,0.215-0.174,0.437-0.174,0.673
	c0,1.529,2.281,2.683,5.305,2.683c0.531,0,1.027-0.047,1.504-0.114l19.734,26.553c-2.979,0.332-5.072,1.592-5.072,3.192
	c0,1.505,1.854,2.711,4.553,3.125l-13.898,21.872c-0.801-0.139-1.65-0.233-2.541-0.271l-1.596-6.884
	c-0.52-0.534-1.135-0.981-1.844-1.349c-3.557-1.823-7.238-3.335-10.959-4.764c-0.277-0.105-0.609-0.318-0.725-0.559
	c-0.303-0.674-0.514-1.386-0.734-2.088c-0.135-0.451-0.252-0.874-0.746-1.093c-0.135-0.06-0.254-0.318-0.254-0.486
	c0.027-1.634-0.354-3.35,0.861-4.774c0.037-0.045,0.051-0.108,0.078-0.161c0.654-1.428,0.766-3.066,1.682-4.4
	c0.021-0.028,0.027-0.074,0.033-0.112c0.105-1.02,0.215-2.029,0.303-3.045c0.01-0.126-0.102-0.35-0.211-0.388
	c-0.502-0.178-0.477-0.583-0.473-0.988c0-1.984,0-2.273-0.004-4.257c0-1.156-0.338-2.18-1.209-2.965
	c-0.996-0.895-2.016-1.757-3.037-2.62c-0.492-0.416-0.535-0.737-0.072-1.195c0.205-0.203,0.463-0.35,0.703-0.521
	c-0.055-0.076-0.105-0.153-0.156-0.233c-0.309,0-0.621-0.039-0.92,0.007c-1.129,0.182-2.264,0.342-3.371,0.6
	c-2.119,0.5-4.174,1.163-5.891,2.582c-1.174,0.967-2.111,2.095-2.23,3.691c-0.059,0.835-0.053,1.677-0.059,2.512
	c-0.008,1.365,0.012,1.033-0.018,2.396c-0.008,0.22-0.131,0.587-0.285,0.636c-0.551,0.178-0.568,0.531-0.492,0.992
	c0.055,0.314,0.014,0.646,0.082,0.953c0.191,0.853,0.393,1.708,0.641,2.546c0.18,0.625,0.535,1.216,0.637,1.852
	c0.193,1.267,0.668,2.372,1.525,3.332c0.141,0.161,0.248,0.427,0.23,0.636c-0.068,0.975-0.168,1.953-0.301,2.923
	c-0.027,0.188-0.225,0.471-0.387,0.51c-0.65,0.132-0.75,0.632-0.904,1.138c-0.203,0.667-0.422,1.334-0.68,1.98
	c-0.08,0.202-0.283,0.409-0.48,0.5c-1.154,0.5-2.332,0.964-3.494,1.453c-1.236,0.521-2.486,1.016-3.695,1.589
	c-1.244,0.598-2.455,1.268-3.676,1.921c-0.717,0.384-1.389,0.811-1.949,1.338l-1.697,7.23c8.268,0,12.584,5.979,21.188,6.717
	l-3.17-4.377l4.916-13.444l-1.52-3.266h3.045l-1.525,3.266l4.918,13.444l-3.088,4.269c2.971-0.497,6.783-2.01,10.488-3.463
	c-0.176,0.359-0.279,0.731-0.279,1.119c0,2.646,4.344,4.717,9.889,4.717s9.889-2.072,9.889-4.717c0-1.832-2.084-3.387-5.205-4.172
	l13.979-21.993c0.258,0.014,0.52,0.022,0.789,0.022c2.58,0,4.727-0.654,5.836-1.66c6.098,0.267,9.48,4.671,16.01,5.231l-2.48-3.425
	l3.848-10.52l-1.189-2.556h2.381l-1.191,2.556l3.846,10.52l-2.414,3.34C104.119,81.417,111.943,77.066,115.738,77.066z
	 M77.131,33.581c1.896,0,2.92,0.688,2.92,0.969s-1.023,0.969-2.92,0.969s-2.92-0.688-2.92-0.969S75.234,33.581,77.131,33.581z
	 M47.629,43.156c0-0.614,1.607-1.506,4.127-1.506c2.521,0,4.129,0.892,4.129,1.506s-1.607,1.506-4.129,1.506
	C49.236,44.662,47.629,43.771,47.629,43.156z M63.836,104.894c0,1.675-3.58,3.541-8.713,3.541c-5.135,0-8.713-1.866-8.713-3.541
	c0-0.835,0.893-1.719,2.422-2.394c0.463-0.172,0.918-0.336,1.365-0.493c1.365-0.401,3.039-0.655,4.926-0.655
	C60.256,101.353,63.836,103.219,63.836,104.894z M74.574,77.575c-3.135,0-5.477-1.111-5.477-2.104c0-0.993,2.342-2.104,5.477-2.104
	s5.477,1.111,5.477,2.104C80.051,76.464,77.709,77.575,74.574,77.575z"/>
</svg>
