<?xml version="1.0" encoding="utf-8"?>
<!-- Generator: Adobe Illustrator 16.0.0, SVG Export Plug-In . SVG Version: 6.00 Build 0)  -->
<!DOCTYPE svg PUBLIC "-//W3C//DTD SVG 1.1//EN" "http://www.w3.org/Graphics/SVG/1.1/DTD/svg11.dtd">
<svg version="1.1" id="Layer_2" xmlns="http://www.w3.org/2000/svg" xmlns:xlink="http://www.w3.org/1999/xlink" x="0px" y="0px"
	 width="126px" height="126px" viewBox="0 0 126 126" enable-background="new 0 0 126 126" xml:space="preserve">
<g>
	<circle fill="#010101" cx="38.551" cy="31.111" r="2.84"/>
	<circle fill="#010101" cx="30.734" cy="31.111" r="2.84"/>
	<circle fill="#010101" cx="46.477" cy="31.111" r="2.84"/>
	<path fill="#010101" d="M106.552,100.944l-2.86-12.335c-0.877-0.9-1.91-1.654-3.105-2.27c-5.995-3.073-12.2-5.622-18.472-8.029
		c-0.469-0.177-1.027-0.536-1.222-0.945c-0.51-1.133-0.865-2.334-1.236-3.517c-0.227-0.763-0.427-1.475-1.26-1.843
		c-0.227-0.1-0.427-0.535-0.427-0.818c0.047-2.755-0.595-5.645,1.451-8.05c0.062-0.073,0.088-0.18,0.132-0.268
		c1.104-2.411,1.293-5.172,2.835-7.417c0.038-0.05,0.047-0.124,0.056-0.188c0.18-1.719,0.362-3.423,0.51-5.136
		c0.018-0.209-0.171-0.588-0.354-0.654c-0.848-0.297-0.804-0.982-0.798-1.663c0-3.347,0-3.833-0.006-7.179
		c0-1.946-0.571-3.673-2.04-4.998c-1.678-1.504-3.396-2.961-5.118-4.412c-0.827-0.704-0.9-1.245-0.12-2.017
		c0.344-0.341,0.779-0.588,1.183-0.874c-0.088-0.132-0.177-0.262-0.262-0.395c-0.521,0-1.045-0.067-1.548,0.009
		c-1.904,0.307-3.818,0.577-5.684,1.016c-3.57,0.842-7.035,1.957-9.928,4.348c-0.245,0.202-0.483,0.408-0.714,0.619V22.567
		c0-4.868-3.96-8.828-8.828-8.828H28.276c-4.867,0-8.828,3.96-8.828,8.828v17.142c0,4.868,3.961,8.828,8.828,8.828H42.56
		l9.128,6.742c0.759,0.563,1.638,0.892,2.565,0.994c0.017,0.057,0.03,0.114,0.047,0.171c0.303,1.054,0.9,2.049,1.071,3.12
		c0.326,2.14,1.127,4,2.572,5.619c0.235,0.268,0.418,0.715,0.389,1.071c-0.115,1.643-0.283,3.291-0.507,4.927
		c-0.047,0.318-0.379,0.795-0.653,0.856c-1.095,0.224-1.263,1.065-1.524,1.922c-0.342,1.125-0.709,2.246-1.145,3.334
		c-0.136,0.342-0.478,0.692-0.81,0.845c-1.945,0.842-3.93,1.625-5.89,2.446c-2.084,0.877-4.191,1.716-6.229,2.681
		c-2.096,1.006-4.135,2.134-6.192,3.238c-1.21,0.647-2.34,1.366-3.285,2.254l-2.86,12.186c13.934,0,21.209,10.075,35.708,11.317
		l-5.342-7.373l8.285-22.66l-2.563-5.504h5.133l-2.569,5.504l8.285,22.66l-5.203,7.193
		C81.528,110.315,98.379,100.944,106.552,100.944z M56.163,53.282c-0.142,0.093-0.303,0.139-0.465,0.139
		c-0.176,0-0.352-0.054-0.499-0.164l-11.046-8.158H27.294c-2.553,0-4.629-2.077-4.629-4.629V22.137c0-2.553,2.076-4.629,4.629-4.629
		h21.882c2.553,0,4.629,2.076,4.629,4.629V41.11l2.712,11.272C56.6,52.727,56.458,53.085,56.163,53.282z"/>
</g>
</svg>
