<?xml version="1.0" encoding="utf-8"?>
<!-- Generator: Adobe Illustrator 16.0.0, SVG Export Plug-In . SVG Version: 6.00 Build 0)  -->
<!DOCTYPE svg PUBLIC "-//W3C//DTD SVG 1.1//EN" "http://www.w3.org/Graphics/SVG/1.1/DTD/svg11.dtd">
<svg version="1.1" id="Layer_1" xmlns="http://www.w3.org/2000/svg" xmlns:xlink="http://www.w3.org/1999/xlink" x="0px" y="0px"
	 width="126px" height="126px" viewBox="0 0 126 126" enable-background="new 0 0 126 126" xml:space="preserve">
<g>
	<g>
		<path fill="#010101" d="M112.332,85.795l-0.351-0.129c-0.002-0.5-0.021-0.996-0.058-1.494l0.336-0.154
			c1.435-0.66,2.526-1.84,3.073-3.324c0.547-1.482,0.484-3.086-0.176-4.52l-1.363-2.961c-0.963-2.088-3.071-3.438-5.373-3.438
			c-0.857,0-1.688,0.182-2.469,0.541l-0.339,0.156c-0.354-0.35-0.72-0.688-1.098-1.014l0.131-0.352
			c1.126-3.059-0.443-6.465-3.498-7.592l-3.061-1.131c-0.636-0.234-1.306-0.354-1.991-0.354c-2.498,0-4.749,1.547-5.602,3.852
			l-0.129,0.352c-0.497,0.002-0.995,0.02-1.492,0.057l-0.156-0.338c-0.962-2.088-3.071-3.438-5.374-3.438
			c-0.857,0-1.688,0.182-2.469,0.541l-2.962,1.363c-2.959,1.363-4.259,4.883-2.896,7.844l0.156,0.338
			c-0.352,0.355-0.689,0.721-1.015,1.1l-0.341-0.127c-0.639-0.238-1.313-0.357-2.003-0.357c-0.439,0-0.866,0.063-1.284,0.154
			c-0.603-0.234-1.202-0.475-1.806-0.707c-0.521-0.197-1.145-0.598-1.361-1.053c-0.57-1.264-0.964-2.602-1.378-3.92
			c-0.252-0.85-0.479-1.643-1.403-2.053c-0.253-0.111-0.479-0.598-0.479-0.912c0.056-3.068-0.659-6.291,1.62-8.969
			c0.068-0.082,0.098-0.201,0.147-0.299c1.229-2.688,1.439-5.764,3.158-8.266c0.043-0.055,0.053-0.137,0.063-0.209
			c0.2-1.916,0.403-3.814,0.567-5.725c0.017-0.232-0.19-0.654-0.394-0.727c-0.944-0.332-0.896-1.096-0.889-1.854
			c0-3.729,0-4.271-0.007-8c0-2.168-0.637-4.092-2.272-5.568c-1.87-1.676-3.785-3.299-5.704-4.916
			c-0.922-0.785-1.007-1.389-0.138-2.248c0.388-0.379,0.872-0.654,1.322-0.973c-0.103-0.148-0.197-0.293-0.292-0.439
			c-0.581,0-1.164-0.076-1.726,0.01c-2.122,0.34-4.254,0.643-6.333,1.131c-3.979,0.938-7.839,2.182-11.063,4.844
			c-2.204,1.818-3.965,3.936-4.188,6.934c-0.111,1.57-0.099,3.152-0.111,4.721c-0.013,2.564,0.022,1.941-0.032,4.496
			c-0.014,0.416-0.243,1.102-0.535,1.193c-1.033,0.338-1.066,1-0.925,1.863c0.102,0.594,0.026,1.213,0.154,1.793
			c0.357,1.602,0.737,3.205,1.2,4.779c0.341,1.174,1.007,2.283,1.197,3.477c0.363,2.385,1.256,4.457,2.866,6.262
			c0.263,0.297,0.463,0.797,0.433,1.193c-0.127,1.83-0.314,3.666-0.563,5.49c-0.053,0.354-0.423,0.885-0.729,0.955
			c-1.22,0.248-1.407,1.186-1.698,2.141c-0.381,1.254-0.791,2.502-1.276,3.717c-0.151,0.379-0.531,0.77-0.905,0.941
			c-2.164,0.938-4.375,1.811-6.56,2.725c-2.321,0.977-4.67,1.912-6.939,2.988c-2.339,1.121-4.611,2.377-6.901,3.607
			c-1.348,0.721-2.607,1.521-3.66,2.512L9.805,95.885c15.526,0,23.634,11.227,39.79,12.611l-5.953-8.217l9.232-25.25l-2.856-6.133
			h5.72l-2.863,6.133l9.233,25.25l-5.799,8.016c5.602-0.936,12.793-3.795,19.774-6.533c0.107,0.098,0.209,0.201,0.318,0.295
			l-0.126,0.342c-0.552,1.482-0.49,3.09,0.171,4.523c0.659,1.436,1.839,2.529,3.322,3.078l3.057,1.127
			c0.661,0.246,1.352,0.369,2.052,0.369c0.855,0,1.687-0.182,2.47-0.543c1.435-0.66,2.526-1.84,3.073-3.32l0.129-0.352
			c0.498-0.002,0.996-0.021,1.494-0.059l0.155,0.34c0.963,2.088,3.072,3.438,5.375,3.438c0.857,0,1.688-0.184,2.469-0.543
			l2.96-1.363c2.961-1.363,4.26-4.883,2.896-7.844l-0.155-0.338c0.351-0.354,0.688-0.721,1.014-1.098l0.352,0.131
			c1.471,0.545,3.103,0.477,4.52-0.178c1.434-0.658,2.524-1.838,3.073-3.32l1.128-3.059
			C116.958,90.334,115.391,86.928,112.332,85.795z M113.373,92.318l-1.129,3.059c-0.27,0.729-0.807,1.311-1.512,1.635
			c-0.707,0.326-1.498,0.357-2.229,0.088l-2.418-0.893c-1,1.463-2.217,2.787-3.631,3.932l1.076,2.336
			c0.672,1.459,0.033,3.191-1.426,3.863l-2.961,1.363c-1.457,0.672-3.191,0.031-3.863-1.426l-1.075-2.336
			c-1.788,0.332-3.587,0.395-5.349,0.203l-0.894,2.418c-0.269,0.729-0.806,1.311-1.513,1.637c-0.707,0.324-1.498,0.355-2.227,0.086
			l-3.059-1.129c-0.729-0.27-1.311-0.809-1.635-1.516c-0.326-0.707-0.357-1.496-0.086-2.227l0.893-2.416
			c-1.465-1-2.791-2.217-3.934-3.631l-2.337,1.076c-1.458,0.672-3.19,0.031-3.862-1.426l-1.364-2.963
			c-0.671-1.457-0.032-3.189,1.427-3.861l2.336-1.076c-0.332-1.787-0.395-3.586-0.203-5.348l-2.418-0.895
			c-0.728-0.268-1.309-0.805-1.637-1.512c-0.324-0.705-0.355-1.496-0.086-2.227l1.129-3.059c0.539-1.461,2.285-2.264,3.742-1.721
			l2.414,0.891c1.002-1.463,2.219-2.789,3.633-3.934l-1.077-2.336c-0.671-1.457-0.031-3.191,1.427-3.863l2.961-1.363
			c1.458-0.672,3.191-0.031,3.863,1.428l1.076,2.334c1.787-0.33,3.586-0.393,5.348-0.203l0.893-2.418
			c0.539-1.457,2.281-2.26,3.74-1.723l3.059,1.131c1.505,0.555,2.277,2.234,1.723,3.74l-0.893,2.416
			c1.463,1.002,2.789,2.217,3.932,3.633l2.338-1.078c1.457-0.672,3.189-0.031,3.861,1.428l1.363,2.959
			c0.672,1.459,0.033,3.193-1.426,3.863l-2.336,1.076c0.332,1.789,0.395,3.586,0.204,5.35l2.418,0.893
			C113.156,89.135,113.93,90.813,113.373,92.318z"/>
	</g>
	<g>
		<path fill="#010101" d="M90.821,97.244c-4.482,0-8.59-2.631-10.464-6.7c-2.656-5.768-0.126-12.621,5.641-15.277
			c1.525-0.702,3.145-1.058,4.812-1.058c4.482,0,8.591,2.629,10.466,6.698c2.655,5.769,0.125,12.621-5.641,15.277
			C94.108,96.888,92.489,97.244,90.821,97.244z M90.81,77.209c-1.231,0-2.428,0.263-3.557,0.782
			c-4.264,1.965-6.135,7.032-4.171,11.297c1.387,3.011,4.425,4.956,7.739,4.956c1.231,0,2.429-0.264,3.558-0.784
			c4.264-1.964,6.135-7.032,4.172-11.298C97.164,79.153,94.126,77.209,90.81,77.209z"/>
	</g>
</g>
</svg>
