<?xml version="1.0" encoding="utf-8"?>
<!-- Generator: Adobe Illustrator 16.0.0, SVG Export Plug-In . SVG Version: 6.00 Build 0)  -->
<!DOCTYPE svg PUBLIC "-//W3C//DTD SVG 1.1//EN" "http://www.w3.org/Graphics/SVG/1.1/DTD/svg11.dtd">
<svg version="1.1" id="Layer_2" xmlns="http://www.w3.org/2000/svg" xmlns:xlink="http://www.w3.org/1999/xlink" x="0px" y="0px"
	 width="126px" height="126px" viewBox="0 0 126 126" enable-background="new 0 0 126 126" xml:space="preserve">
<path d="M108.396,97.376l-2.869-12.371c-1.043-1.07-2.27-1.965-3.69-2.696c-7.122-3.65-14.493-6.678-21.945-9.539
	c-0.556-0.21-1.22-0.637-1.45-1.123c-0.609-1.346-1.029-2.772-1.469-4.178c-0.27-0.906-0.511-1.752-1.497-2.189
	c-0.269-0.119-0.51-0.636-0.51-0.972c0.06-3.272-0.703-6.706,1.728-9.563c0.072-0.087,0.104-0.213,0.157-0.318
	c1.311-2.864,1.534-6.144,3.367-8.812c0.045-0.059,0.057-0.146,0.065-0.223c0.214-2.043,0.431-4.067,0.605-6.102
	c0.018-0.249-0.203-0.7-0.419-0.776c-1.007-0.354-0.955-1.168-0.948-1.976c0-3.976,0-4.554-0.007-8.529
	c0-2.312-0.679-4.364-2.423-5.938c-1.994-1.787-4.035-3.518-6.081-5.242c-0.982-0.835-1.073-1.479-0.147-2.395
	c0.413-0.405,0.931-0.699,1.409-1.039c-0.108-0.157-0.208-0.312-0.31-0.469c-0.621,0-1.242-0.08-1.841,0.011
	c-2.262,0.363-4.534,0.686-6.752,1.206c-4.241,1-8.356,2.326-11.794,5.165c-2.35,1.937-4.228,4.196-4.466,7.392
	c-0.118,1.675-0.104,3.36-0.118,5.032c-0.014,2.734,0.024,2.07-0.035,4.794c-0.014,0.444-0.26,1.175-0.57,1.272
	c-1.103,0.36-1.137,1.066-0.986,1.987c0.108,0.632,0.028,1.293,0.165,1.912c0.381,1.707,0.787,3.416,1.28,5.095
	c0.363,1.251,1.073,2.434,1.275,3.706c0.389,2.542,1.34,4.753,3.057,6.675c0.278,0.319,0.493,0.85,0.461,1.273
	c-0.137,1.951-0.336,3.909-0.602,5.854c-0.055,0.378-0.451,0.945-0.775,1.018c-1.302,0.266-1.501,1.266-1.811,2.283
	c-0.406,1.336-0.844,2.668-1.361,3.962c-0.161,0.406-0.566,0.822-0.965,1.004c-2.308,1-4.665,1.93-6.993,2.905
	c-2.476,1.042-4.98,2.039-7.399,3.186c-2.493,1.196-4.916,2.535-7.357,3.846c-1.437,0.769-2.779,1.623-3.902,2.678l-0.513,2.186
	h-2.209c-3.859,0-7,3.14-7,7s3.141,7,7,7h9.935c4.244,1.358,8.107,3.348,12.07,5.317c0.264,1.353,0.923,2.597,1.919,3.592
	c1.322,1.322,3.08,2.051,4.949,2.051c1.348,0,2.635-0.384,3.745-1.091c2.803,0.904,5.804,1.582,9.127,1.867l7.158-0.213
	c0.106-0.018,0.218-0.042,0.325-0.061l7.447,7.447c1.322,1.322,3.08,2.051,4.949,2.051c1.868,0,3.626-0.728,4.949-2.05
	c1.322-1.322,2.051-3.081,2.051-4.95c0-1.435-0.429-2.804-1.226-3.96h23.099c3.859,0,7-3.14,7-7
	C115.249,100.559,112.188,97.456,108.396,97.376z M60.035,94.621c-0.016,0.076-0.044,0.146-0.065,0.219
	c-0.024,0.083-0.044,0.167-0.077,0.248c-0.035,0.087-0.085,0.166-0.13,0.248c-0.034,0.061-0.06,0.124-0.099,0.182
	c-0.093,0.138-0.197,0.268-0.315,0.384l-10.957,10.958c-0.488,0.488-1.128,0.732-1.768,0.732s-1.279-0.244-1.768-0.732
	c-0.977-0.976-0.977-2.559,0-3.535l6.692-6.692H17.751c-1.381,0-2.5-1.119-2.5-2.5s1.119-2.5,2.5-2.5h33.798l-6.692-6.692
	c-0.977-0.976-0.977-2.559,0-3.535c0.977-0.977,2.559-0.977,3.535,0l10.957,10.958c0.118,0.117,0.223,0.246,0.315,0.384
	c0.038,0.058,0.064,0.121,0.098,0.181c0.046,0.082,0.095,0.162,0.131,0.249c0.033,0.081,0.053,0.164,0.077,0.247
	c0.021,0.073,0.05,0.143,0.065,0.219C60.099,93.965,60.099,94.298,60.035,94.621z M108.249,106.632H74.451l6.692,6.692
	c0.977,0.976,0.977,2.559,0,3.535c-0.977,0.977-2.559,0.977-3.535,0l-10.957-10.958c-0.118-0.117-0.223-0.246-0.315-0.384
	c-0.038-0.058-0.064-0.121-0.098-0.181c-0.046-0.082-0.095-0.162-0.131-0.249c-0.033-0.081-0.053-0.164-0.077-0.247
	c-0.021-0.073-0.05-0.143-0.065-0.219c-0.063-0.323-0.063-0.656,0-0.979c0.016-0.076,0.044-0.146,0.065-0.219
	c0.024-0.083,0.044-0.167,0.077-0.248c0.035-0.087,0.085-0.166,0.13-0.248c0.034-0.061,0.06-0.124,0.099-0.182
	c0.093-0.138,0.197-0.268,0.315-0.384l10.957-10.958c0.488-0.488,1.128-0.732,1.768-0.732s1.279,0.244,1.768,0.732
	c0.977,0.976,0.977,2.559,0,3.535l-6.692,6.692h33.798c1.381,0,2.5,1.119,2.5,2.5S109.63,106.632,108.249,106.632z"/>
</svg>
