<?xml version="1.0" encoding="utf-8"?>
<!-- Generator: Adobe Illustrator 16.0.0, SVG Export Plug-In . SVG Version: 6.00 Build 0)  -->
<!DOCTYPE svg PUBLIC "-//W3C//DTD SVG 1.1//EN" "http://www.w3.org/Graphics/SVG/1.1/DTD/svg11.dtd">
<svg version="1.1" id="Layer_1" xmlns="http://www.w3.org/2000/svg" xmlns:xlink="http://www.w3.org/1999/xlink" x="0px" y="0px"
	 width="126px" height="126px" viewBox="0 0 126 126" enable-background="new 0 0 126 126" xml:space="preserve">
<g>
	<path fill="#010101" d="M109,110.394h-8.167v-4.016c0-0.276-0.224-0.5-0.5-0.5s-0.5,0.224-0.5,0.5v4.016h-9v-4.016
		c0-0.276-0.224-0.5-0.5-0.5s-0.5,0.224-0.5,0.5v4.016h-9v-4.016c0-0.276-0.224-0.5-0.5-0.5s-0.5,0.224-0.5,0.5v4.016h-9v-4.016
		c0-0.276-0.224-0.5-0.5-0.5s-0.5,0.224-0.5,0.5v4.016h-9v-4.016c0-0.276-0.224-0.5-0.5-0.5s-0.5,0.224-0.5,0.5v4.016h-9v-4.016
		c0-0.276-0.224-0.5-0.5-0.5s-0.5,0.224-0.5,0.5v4.016h-9v-4.016c0-0.276-0.224-0.5-0.5-0.5s-0.5,0.224-0.5,0.5v4.016h-9v-4.016
		c0-0.276-0.224-0.5-0.5-0.5s-0.5,0.224-0.5,0.5v4.016H18.5V92.228h4.834c0.275,0,0.5-0.224,0.5-0.5s-0.225-0.5-0.5-0.5H18.5v-9
		h4.834c0.275,0,0.5-0.224,0.5-0.5s-0.225-0.5-0.5-0.5H18.5v-9h4.834c0.275,0,0.5-0.224,0.5-0.5s-0.225-0.5-0.5-0.5H18.5v-9h4.834
		c0.275,0,0.5-0.224,0.5-0.5s-0.225-0.5-0.5-0.5H18.5v-9h4.834c0.275,0,0.5-0.224,0.5-0.5s-0.225-0.5-0.5-0.5H18.5v-9h4.834
		c0.275,0,0.5-0.224,0.5-0.5s-0.225-0.5-0.5-0.5H18.5v-9h4.834c0.275,0,0.5-0.224,0.5-0.5s-0.225-0.5-0.5-0.5H18.5v-9h4.834
		c0.275,0,0.5-0.224,0.5-0.5s-0.225-0.5-0.5-0.5H18.5v-7.121c0-0.828-0.672-1.5-1.5-1.5s-1.5,0.672-1.5,1.5v97.787
		c0,0.828,0.672,1.5,1.5,1.5h92c0.829,0,1.5-0.672,1.5-1.5S109.829,110.394,109,110.394z"/>
	<rect x="29.103" y="87.5" fill="#010101" width="67.795" height="10.25"/>
	<rect x="29.103" y="65.75" fill="#010101" width="41.5" height="10.25"/>
	<rect x="29.103" y="44.25" fill="#010101" width="55.75" height="10.25"/>
	<rect x="29.103" y="21.75" fill="#010101" width="49" height="10.25"/>
</g>
</svg>
