<?xml version="1.0" encoding="utf-8"?>
<!-- Generator: Adobe Illustrator 16.0.0, SVG Export Plug-In . SVG Version: 6.00 Build 0)  -->
<!DOCTYPE svg PUBLIC "-//W3C//DTD SVG 1.1//EN" "http://www.w3.org/Graphics/SVG/1.1/DTD/svg11.dtd">
<svg version="1.1" id="Layer_1" xmlns="http://www.w3.org/2000/svg" xmlns:xlink="http://www.w3.org/1999/xlink" x="0px" y="0px"
	 width="126px" height="126px" viewBox="0 0 126 126" enable-background="new 0 0 126 126" xml:space="preserve">
<g>
	<path d="M78.32,23.148c-3.914,0-7.694,0.576-11.27,1.633c-0.307,0.684-0.596,1.374-0.884,2.064l0.001-0.001
		c-0.388,0.934-0.761,1.872-1.117,2.816c2.679-2.085,5.637-3.544,8.769-4.273c-1.926,1.99-3.639,5.23-5.034,9.42
		c-2.044,0.367-4.03,0.844-5.938,1.432c-0.19,0.649-0.365,1.304-0.542,1.957c1.892-0.629,3.868-1.148,5.91-1.552
		c-1.149,3.925-2.038,8.548-2.597,13.659c-2.056,0.225-4.039,0.5-5.924,0.827c-0.081,0.583-0.158,1.167-0.229,1.752
		c1.879-0.338,3.88-0.625,5.98-0.859c-0.154,1.652-0.271,3.354-0.355,5.092c0.138-0.016,0.275-0.03,0.416-0.03h1.285
		c0.087-1.804,0.211-3.553,0.372-5.237c3.468-0.33,7.194-0.519,11.156-0.519c3.959,0,7.688,0.186,11.156,0.516
		c0.33,3.468,0.515,7.195,0.515,11.155s-0.185,7.688-0.515,11.156c-3.468,0.329-7.196,0.515-11.156,0.515
		c-3.961,0-7.688-0.187-11.156-0.517c-0.2-2.105-0.339-4.318-0.424-6.61l-1.529,3.426c0.067,1.016,0.144,2.021,0.235,3.007
		c-0.506-0.058-1.001-0.119-1.495-0.182l-0.719,1.609c0.785,0.104,1.578,0.204,2.387,0.293c0.559,5.112,1.448,9.736,2.598,13.663
		c-3.276-0.647-6.377-1.599-9.24-2.811c0.101,0.659,0.212,1.316,0.338,1.969c2.951,1.171,6.13,2.071,9.47,2.672
		c1.397,4.2,3.116,7.446,5.048,9.436c-5.29-1.224-10.073-4.565-13.879-9.391c0.383,1.378,0.839,2.721,1.356,4.035
		c1.49,1.483,3.086,2.777,4.769,3.857c-1.293-0.44-2.557-0.948-3.785-1.519c0.344,0.776,0.697,1.549,1.061,2.316
		c4.624,1.881,9.672,2.926,14.963,2.926c21.974,0,39.852-17.877,39.852-39.852S100.294,23.148,78.32,23.148z M106.816,55.351
		c6.146,2.174,9.654,4.956,9.654,7.649s-3.508,5.476-9.654,7.649c0.353-2.477,0.543-5.033,0.543-7.649
		S107.169,57.827,106.816,55.351z M106.513,53.466c-0.721-4.015-1.883-7.793-3.417-11.229c6.673,4.094,11.355,9.805,12.853,16.278
		C113.959,56.583,110.713,54.864,106.513,53.466z M91.194,52.022c5.342,0.599,10.001,1.552,13.813,2.729
		c0.422,2.658,0.651,5.416,0.651,8.248s-0.229,5.59-0.651,8.248c-3.812,1.178-8.471,2.131-13.813,2.73
		c0.323-3.478,0.499-7.154,0.499-10.979S91.517,55.499,91.194,52.022z M114.443,50.756c-2.867-4.473-7.249-8.327-12.667-11.212
		c-2.884-5.417-6.738-9.8-11.21-12.667C101.765,30.685,110.636,39.556,114.443,50.756z M99.083,38.225
		c-3.436-1.535-7.214-2.696-11.229-3.417c-1.398-4.2-3.117-7.447-5.05-9.437C89.279,26.87,94.989,31.552,99.083,38.225z
		 M78.32,24.85c2.693,0,5.476,3.508,7.649,9.654c-2.477-0.353-5.033-0.543-7.649-0.543c-2.617,0-5.173,0.19-7.649,0.543
		C72.844,28.357,75.627,24.85,78.32,24.85z M78.32,49.628c-3.826,0-7.501,0.179-10.979,0.503c0.599-5.346,1.553-10.006,2.731-13.82
		c2.656-0.423,5.415-0.648,8.247-0.648s5.59,0.229,8.248,0.65c1.179,3.813,2.132,8.471,2.73,13.814
		C85.821,49.805,82.144,49.628,78.32,49.628z M88.423,36.643c4.403,0.868,8.489,2.287,12.104,4.15
		c1.862,3.615,3.282,7.7,4.149,12.104c-3.925-1.148-8.547-2.037-13.657-2.597C90.461,45.189,89.573,40.567,88.423,36.643z
		 M91.02,75.7c5.11-0.56,9.732-1.448,13.657-2.597c-0.868,4.403-2.288,8.488-4.149,12.104c-3.616,1.862-7.701,3.281-12.104,4.149
		C89.573,85.433,90.461,80.811,91.02,75.7z M67.342,75.872c3.476,0.323,7.153,0.5,10.978,0.5c3.824,0,7.501-0.177,10.978-0.499
		c-0.599,5.344-1.552,10.002-2.73,13.814c-2.658,0.421-5.416,0.65-8.248,0.65c-2.834,0-5.591-0.233-8.25-0.656
		C68.893,85.869,67.94,81.213,67.342,75.872z M78.32,101.15c-2.693,0-5.476-3.506-7.648-9.65c2.476,0.352,5.033,0.539,7.648,0.539
		c2.616,0,5.172-0.19,7.649-0.543C83.796,97.643,81.014,101.15,78.32,101.15z M87.854,91.192c4.015-0.721,7.793-1.882,11.229-3.417
		c-4.094,6.674-9.804,11.354-16.279,12.854C84.737,98.64,86.456,95.394,87.854,91.192z M90.565,99.123
		c4.472-2.867,8.326-7.249,11.21-12.667c5.418-2.885,9.8-6.739,12.667-11.211C110.636,86.444,101.765,95.316,90.565,99.123z
		 M103.096,83.763c1.534-3.436,2.696-7.214,3.417-11.229c4.2-1.398,7.446-3.117,9.435-5.05
		C114.451,73.958,109.769,79.669,103.096,83.763z"/>
	<path d="M58.499,75.713l5.845-13.1h15.341c0.939,0,1.701-0.762,1.701-1.701s-0.762-1.701-1.701-1.701H63.239
		c-0.672,0-1.28,0.395-1.554,1.008l-6.386,14.313c-0.064-0.003-0.127-0.01-0.192-0.01c-0.17,0-0.338,0.01-0.505,0.025L44.465,46.15
		c1.282-0.999,2.112-2.553,2.112-4.301c0-3.007-2.446-5.453-5.453-5.453c-3.007,0-5.454,2.446-5.454,5.453
		c0,1.424,0.553,2.718,1.45,3.69l-6.636,11.909H18.457c-0.719-2.172-2.766-3.745-5.176-3.745c-3.007,0-5.453,2.446-5.453,5.453
		s2.446,5.453,5.453,5.453c2.416,0,4.466-1.579,5.181-3.759h13.022c0.617,0,1.186-0.334,1.486-0.873l7.119-12.776
		c0.335,0.064,0.681,0.101,1.035,0.101c0.046,0,0.092-0.006,0.138-0.006l10.216,28.62c-1.116,0.999-1.824,2.446-1.824,4.059
		c0,3.007,2.446,5.453,5.453,5.453s5.453-2.446,5.453-5.453C60.561,78.25,59.753,76.713,58.499,75.713z M13.281,63.76
		c-2.538,0-4.603-2.064-4.603-4.603c0-2.537,2.064-4.603,4.603-4.603c1.935,0,3.591,1.201,4.271,2.895h-4.271
		c-0.939,0-1.701,0.762-1.701,1.701s0.762,1.701,1.701,1.701h4.275C16.88,62.553,15.221,63.76,13.281,63.76z M36.521,41.85
		c0-2.537,2.065-4.603,4.603-4.603s4.603,2.065,4.603,4.603c0,1.373-0.608,2.605-1.565,3.449l-1.436-4.021
		c-0.225-0.629-0.796-1.068-1.462-1.123c-0.662-0.056-1.302,0.284-1.626,0.867l-2.08,3.733C36.91,43.962,36.521,42.95,36.521,41.85z
		 M40.53,46.409l0.253-0.453l0.174,0.488C40.813,46.439,40.671,46.428,40.53,46.409z M54.92,75.383l-0.011,0.023l-0.008-0.022
		C54.907,75.383,54.914,75.383,54.92,75.383z M55.107,84.578c-2.538,0-4.603-2.065-4.603-4.603c0-1.235,0.491-2.355,1.286-3.184
		l1.34,3.756c0.234,0.654,0.842,1.101,1.537,1.127c0.022,0.002,0.044,0.002,0.066,0.002c0.669,0,1.279-0.394,1.553-1.008
		l1.851-4.148c0.961,0.844,1.572,2.078,1.572,3.455C59.71,82.513,57.646,84.578,55.107,84.578z"/>
</g>
</svg>
