<?xml version="1.0" encoding="utf-8"?>
<!-- Generator: Adobe Illustrator 16.0.0, SVG Export Plug-In . SVG Version: 6.00 Build 0)  -->
<!DOCTYPE svg PUBLIC "-//W3C//DTD SVG 1.1//EN" "http://www.w3.org/Graphics/SVG/1.1/DTD/svg11.dtd">
<svg version="1.1" id="Layer_2" xmlns="http://www.w3.org/2000/svg" xmlns:xlink="http://www.w3.org/1999/xlink" x="0px" y="0px"
	 width="126px" height="126px" viewBox="0 0 126 126" enable-background="new 0 0 126 126" xml:space="preserve">
<g>
	<path fill="#010101" d="M101.445,60.251V27.445c0-2.757-2.243-5-5-5h-77.5c-2.757,0-5,2.243-5,5v60.5c0,2.757,2.243,5,5,5h49.806
		c4.23,6.387,11.477,10.609,19.694,10.609c13.019,0,23.609-10.592,23.609-23.609C112.055,71.728,107.832,64.48,101.445,60.251z
		 M87.222,27.669h7.667v2.666h-7.667V27.669z M73.722,27.669h7.667v2.666h-7.667V27.669z M59.889,27.669h7.667v2.666h-7.667V27.669z
		 M66.064,87.445H19.896v-53h75.5v22.936c-2.198-0.679-4.532-1.045-6.95-1.045c-13.019,0-23.609,10.591-23.609,23.609
		C64.836,82.567,65.271,85.087,66.064,87.445z M88.445,97.555c-9.71,0-17.609-7.899-17.609-17.609s7.899-17.609,17.609-17.609
		s17.609,7.899,17.609,17.609S98.155,97.555,88.445,97.555z"/>
	<path fill="#010101" d="M101.722,80.002H89.555v-13.5c0-0.828-0.672-1.5-1.5-1.5s-1.5,0.672-1.5,1.5v15c0,0.829,0.672,1.5,1.5,1.5
		h13.667c0.828,0,1.5-0.671,1.5-1.5C103.222,80.674,102.55,80.002,101.722,80.002z"/>
</g>
</svg>
