<?xml version="1.0" encoding="utf-8"?>
<!-- Generator: Adobe Illustrator 16.0.0, SVG Export Plug-In . SVG Version: 6.00 Build 0)  -->
<!DOCTYPE svg PUBLIC "-//W3C//DTD SVG 1.1//EN" "http://www.w3.org/Graphics/SVG/1.1/DTD/svg11.dtd">
<svg version="1.1" id="Layer_1" xmlns="http://www.w3.org/2000/svg" xmlns:xlink="http://www.w3.org/1999/xlink" x="0px" y="0px"
	 width="50px" height="50px" viewBox="0 0 50 50" enable-background="new 0 0 50 50" xml:space="preserve">
<path fill-rule="evenodd" clip-rule="evenodd" d="M34.137,28.776c0,5.239-4.264,9.503-9.502,9.503c-5.238,0-9.502-4.264-9.502-9.503
	c0-5.238,4.264-9.502,9.502-9.502c2.072,0,3.899,0.609,5.483,1.706l0.73-0.853l-0.122-1.34l2.071-2.437l0.244,1.828h1.827
	l-2.071,2.437h-1.34l-4.63,5.36l-0.853,0.975l-1.828,2.07l0.731,0.123l1.461-1.706c0.244,0.366,0.366,0.731,0.366,1.218
	c0,1.219-0.975,2.193-2.193,2.193c-1.218,0-2.193-0.975-2.193-2.193c0-1.218,0.975-2.192,2.193-2.192c0.244,0,0.366,0,0.609,0.122
	l0.975-1.097c-0.487-0.244-0.975-0.366-1.462-0.366c-1.949,0-3.533,1.583-3.533,3.533s1.584,3.533,3.533,3.533
	c1.95,0,3.534-1.462,3.534-3.411c0-0.853-0.366-1.706-0.854-2.314l1.34-1.584c0.976,0.975,1.584,2.315,1.584,3.776
	c0,3.047-2.437,5.482-5.482,5.482c-3.046,0-5.482-2.436-5.482-5.482c0-3.045,2.437-5.482,5.482-5.482
	c1.096,0,2.071,0.244,2.924,0.853l1.218-1.462c-1.218-0.731-2.559-1.218-4.142-1.218c-4.142,0-7.432,3.289-7.432,7.431
	c0,4.142,3.29,7.432,7.432,7.432s7.431-3.29,7.431-7.432c0-2.071-0.853-3.898-2.192-5.238l1.34-1.584
	C33.041,23.66,34.137,26.096,34.137,28.776 M38.34,9.528h-3.046v1.218c0,0.366-0.243,0.609-0.608,0.609H15.193
	c-0.365,0-0.609-0.244-0.609-0.609V9.528h-3.046v35.939h9.502H38.34v-5.969v-1.219v-1.828V9.528z M41.995,7.701v39.471
	c0,0.975-0.853,1.828-1.827,1.828h-0.975H24.452H9.833c-0.975,0-1.828-0.854-1.828-1.828V7.579c0-0.975,0.853-1.827,1.828-1.827
	h4.873V5.021c0-0.366,0.244-0.609,0.609-0.609h6.091C21.406,2.583,23.112,1,25.061,1c1.949,0,3.533,1.583,3.533,3.411h6.092
	c0.243,0,0.608,0.366,0.608,0.609v0.853h4.874C41.143,5.873,41.995,6.604,41.995,7.701z"/>
</svg>
