<?xml version="1.0" encoding="utf-8"?>
<!-- Generator: Adobe Illustrator 16.0.0, SVG Export Plug-In . SVG Version: 6.00 Build 0)  -->
<!DOCTYPE svg PUBLIC "-//W3C//DTD SVG 1.1//EN" "http://www.w3.org/Graphics/SVG/1.1/DTD/svg11.dtd">
<svg version="1.1" id="Layer_1" xmlns="http://www.w3.org/2000/svg" xmlns:xlink="http://www.w3.org/1999/xlink" x="0px" y="0px"
	 width="50px" height="50px" viewBox="0 0 50 50" enable-background="new 0 0 50 50" xml:space="preserve">
<path d="M39.103,32.791c0,1.941-1.379,4.055-3.08,4.055s-3.08-2.113-3.08-4.055s1.379-2.969,3.08-2.969S39.103,30.85,39.103,32.791z
	 M10.899,32.791c0,1.941,1.379,4.055,3.08,4.055s3.08-2.113,3.08-4.055s-1.379-2.969-3.08-2.969S10.899,30.85,10.899,32.791z
	 M21.922,32.791c0,1.941,1.378,4.055,3.079,4.055s3.079-2.113,3.079-4.055s-1.378-2.969-3.079-2.969S21.922,30.85,21.922,32.791z
	 M40.744,38.168c-0.255-0.256-0.601-0.4-0.961-0.4h-2.921h-1.685h-2.917c-0.746,0-1.354,0.605-1.354,1.355l-0.002,3.621h10.188
	l0.043-3.609C41.14,38.773,40.999,38.426,40.744,38.168z M17.741,37.768h-2.922h-1.685h-2.916c-0.747,0-1.354,0.605-1.354,1.355
	v3.621h10.187l0.043-3.609c0.003-0.359-0.138-0.707-0.393-0.965C18.448,37.912,18.103,37.768,17.741,37.768z M28.763,37.768h-2.921
	h-1.685h-2.916c-0.747,0-1.354,0.605-1.354,1.355l-0.002,3.621h10.186l0.043-3.609c0.004-0.359-0.137-0.707-0.391-0.965
	C29.469,37.912,29.123,37.768,28.763,37.768z M39.979,10.706v13.578c0,1.904-1.543,3.447-3.447,3.447H20.751v-9.296l1.991,2.7
	c0.325,0.443,0.938,0.566,1.409,0.283l2.377-1.426c0.507-0.306,0.671-0.962,0.367-1.468c-0.305-0.508-0.961-0.672-1.467-0.366
	l-1.543,0.926l-1.918-2.604c-0.201-0.272-0.521-0.436-0.861-0.436h-2.305l-0.402,0.537l0.74,4.191l-1.002,0.944l-1.003-0.944
	l0.74-4.191l-0.403-0.537h-2.306c-0.59,0-1.069,0.479-1.069,1.068v6.951c0,0.59,0.479,1.067,1.069,1.067
	c0.126,0,0.245-0.024,0.356-0.063v2.662H13.47c-1.904,0-3.447-1.543-3.447-3.447V10.704c0-1.904,1.543-3.447,3.447-3.447h23.062
	C38.437,7.258,39.979,8.801,39.979,10.706z M20.569,12.114c0-1.533-1.09-2.346-2.434-2.346c-1.343,0-2.432,0.813-2.432,2.346
	s1.089,3.205,2.432,3.205C19.479,15.319,20.569,13.647,20.569,12.114z"/>
</svg>
