<?xml version="1.0" encoding="utf-8"?>
<!-- Generator: Adobe Illustrator 16.0.0, SVG Export Plug-In . SVG Version: 6.00 Build 0)  -->
<!DOCTYPE svg PUBLIC "-//W3C//DTD SVG 1.1//EN" "http://www.w3.org/Graphics/SVG/1.1/DTD/svg11.dtd">
<svg version="1.1" id="Layer_1" xmlns="http://www.w3.org/2000/svg" xmlns:xlink="http://www.w3.org/1999/xlink" x="0px" y="0px"
	 width="50px" height="50px" viewBox="0 0 50 50" enable-background="new 0 0 50 50" xml:space="preserve">
<path d="M29.755,12.169h-1.001V9.275h-7.51v2.894h-1c-2.487,0-4.505,1.555-4.505,3.473v21.609c0,1.916,2.018,3.473,4.505,3.473
	h9.512c2.487,0,4.505-1.555,4.505-3.473V15.643C34.26,13.725,32.242,12.169,29.755,12.169z M20.75,35.945l2.642-8.675h-4.284
	l7.068-9.888l-2.142,7.425h4.926L20.75,35.945z M32.522,37.252c0,0.58-0.575,1.201-1.484,1.52c0.146-0.212,0.23-0.436,0.23-0.652
	v-23.91c0.776,0.337,1.254,0.903,1.254,1.433V37.252z"/>
</svg>
