<?xml version="1.0" encoding="utf-8"?>
<!-- Generator: Adobe Illustrator 16.0.0, SVG Export Plug-In . SVG Version: 6.00 Build 0)  -->
<!DOCTYPE svg PUBLIC "-//W3C//DTD SVG 1.1//EN" "http://www.w3.org/Graphics/SVG/1.1/DTD/svg11.dtd">
<svg version="1.1" id="Layer_1" xmlns="http://www.w3.org/2000/svg" xmlns:xlink="http://www.w3.org/1999/xlink" x="0px" y="0px"
	 width="50px" height="50px" viewBox="0 0 50 50" enable-background="new 0 0 50 50" xml:space="preserve">
<path d="M27.725,21.578h2.355l-3.93,5.328l1.266-4.15h-2.049l3.381-4.73L27.725,21.578z M31.785,27.53V17.193
	c0-0.253-0.23-0.524-0.602-0.686v11.439c0,0.104-0.041,0.21-0.109,0.312C31.51,28.104,31.785,27.809,31.785,27.53z M25.988,40.046
	v-3.637h-4.335c-4.69,0-5.016-7.445-5.016-7.445s-3.244,0.366-3.347-0.96c-0.237-3.078,2.308-6.139,2.308-6.139
	c-0.063-2.325-0.092-5.372-0.063-7.116c0.047-3.116,4.153-4.657,5.505-4.713c4.411-0.184,15.603,0,15.603,0l0.082,30.01H25.988z
	 M30.459,29.191c1.189,0,2.156-0.744,2.156-1.661V17.193c0-0.917-0.967-1.662-2.156-1.662H29.98v-1.384h-3.592v1.384H25.91
	c-1.189,0-2.156,0.744-2.156,1.662V27.53c0,0.917,0.967,1.661,2.156,1.661H30.459z"/>
</svg>
