<?xml version="1.0" encoding="utf-8"?>
<!-- Generator: Adobe Illustrator 16.0.0, SVG Export Plug-In . SVG Version: 6.00 Build 0)  -->
<!DOCTYPE svg PUBLIC "-//W3C//DTD SVG 1.1//EN" "http://www.w3.org/Graphics/SVG/1.1/DTD/svg11.dtd">
<svg version="1.1" id="Layer_1" xmlns="http://www.w3.org/2000/svg" xmlns:xlink="http://www.w3.org/1999/xlink" x="0px" y="0px"
	 width="50px" height="50px" viewBox="0 0 50 50" enable-background="new 0 0 50 50" xml:space="preserve">
<path d="M42.334,29.583c0,4.144-3.357,7.5-7.5,7.5H15.166c-4.143,0-7.5-3.356-7.5-7.5c0-3.219,2.032-5.956,4.88-7.02
	c-0.022-0.213-0.034-0.429-0.034-0.646c0-3.399,2.756-6.155,6.155-6.155c1.245,0,2.401,0.373,3.371,1.009
	c1.798-2.339,4.614-3.854,7.794-3.854c5.432,0,9.834,4.402,9.834,9.833c0,0.354-0.021,0.704-0.059,1.049
	C41.273,25.175,42.334,27.255,42.334,29.583z M38.334,25.341l-0.829-0.686l0.115-1.07c0.028-0.274,0.046-0.553,0.046-0.835
	c0-4.319-3.516-7.833-7.834-7.833c-2.443,0-4.707,1.12-6.208,3.072l-0.006,0.008c1.354-1.054,3.017-1.643,4.776-1.643
	c4.318,0,7.834,3.514,7.834,7.833c0,0.282-0.018,0.561-0.047,0.835l-0.115,1.07l0.83,0.686c1.271,1.051,2,2.598,2,4.242
	c0,1.15-0.355,2.219-0.963,3.102c1.447-0.991,2.399-2.655,2.399-4.538C40.334,27.938,39.605,26.391,38.334,25.341z"/>
</svg>
