<?xml version="1.0" encoding="utf-8"?>
<!-- Generator: Adobe Illustrator 16.0.0, SVG Export Plug-In . SVG Version: 6.00 Build 0)  -->
<!DOCTYPE svg PUBLIC "-//W3C//DTD SVG 1.1//EN" "http://www.w3.org/Graphics/SVG/1.1/DTD/svg11.dtd">
<svg version="1.1" id="Layer_1" xmlns="http://www.w3.org/2000/svg" xmlns:xlink="http://www.w3.org/1999/xlink" x="0px" y="0px"
	 width="50px" height="50px" viewBox="0 0 50 50" enable-background="new 0 0 50 50" xml:space="preserve">
<path d="M43.695,14.973v1.908H33.464v-1.91c0-0.709,0.61-1.582,1.356-1.937l1.662-0.789l1.153,2.401l0.591-1.6
	c0.116,0.021,0.231,0.053,0.354,0.053c0.121,0,0.236-0.031,0.354-0.053l0.561,1.521l1.13-2.353l1.716,0.816
	C43.086,13.389,43.695,14.262,43.695,14.973z M38.58,12.218c1.461,0,2.644-1.815,2.644-3.481c0-1.668-1.183-2.553-2.644-2.553
	s-2.645,0.885-2.645,2.553C35.938,10.4,37.119,12.218,38.58,12.218z M43.695,28.438v1.91H33.464v-1.91
	c0-0.709,0.61-1.58,1.356-1.938l1.662-0.789l1.153,2.404l0.591-1.602c0.116,0.022,0.231,0.051,0.354,0.051
	c0.121,0,0.236-0.027,0.354-0.051l0.561,1.521l1.13-2.352l1.716,0.814C43.086,26.857,43.695,27.729,43.695,28.438z M38.58,25.688
	c1.461,0,2.644-1.818,2.644-3.483c0-1.667-1.183-2.552-2.644-2.552s-2.645,0.885-2.645,2.552
	C35.938,23.868,37.119,25.688,38.58,25.688z M43.695,41.907v1.909H33.464v-1.912c0-0.707,0.61-1.58,1.356-1.936l1.662-0.789
	l1.153,2.402l0.591-1.6c0.116,0.021,0.231,0.052,0.354,0.052c0.121,0,0.236-0.03,0.354-0.052l0.561,1.521l1.13-2.354l1.716,0.816
	C43.086,40.324,43.695,41.197,43.695,41.907z M38.58,39.152c1.461,0,2.644-1.815,2.644-3.48c0-1.668-1.183-2.553-2.644-2.553
	s-2.645,0.885-2.645,2.553C35.938,37.337,37.119,39.152,38.58,39.152z M17.374,13.506l6.046-1.292v5.442l-2.17-0.465
	c0,0.263-0.076,0.525-0.239,0.754l-2.926,4.084c-0.224,0.31-0.571,0.506-0.951,0.535c-0.381,0.031-0.755-0.111-1.022-0.383
	l-1.756-1.787v17.778c0,0.952-0.771,1.726-1.725,1.726c-0.602,0-1.129-0.31-1.438-0.774c-0.31,0.466-0.838,0.774-1.438,0.774
	c-0.953,0-1.726-0.772-1.726-1.726v-9.563c-0.135,0.048-0.278,0.078-0.431,0.078c-0.715,0-1.294-0.578-1.294-1.293v-8.406
	c0-0.715,0.579-1.295,1.294-1.295h2.788l0.488,0.65l-0.896,5.07l1.213,1.143l1.211-1.143l-0.896-5.07l0.488-0.65h2.788
	c0.348,0,0.68,0.141,0.923,0.389l1.169,1.189l1.872-2.614l-1.376-0.293v0.575H16.42v-4.01h0.951v0.576H17.374z M24.056,14.855v0.539
	h1.542v-0.539H24.056z M25.568,12.697l-0.396-0.385l-1.091,1.054l0.396,0.382L25.568,12.697z M24.083,16.886l1.091,1.052
	l0.396-0.381l-1.09-1.054L24.083,16.886z M11.193,16.814c1.625,0,2.941-2.021,2.941-3.875c0-1.855-1.316-2.838-2.941-2.838
	s-2.941,0.981-2.941,2.838C8.251,14.794,9.568,16.814,11.193,16.814z M31.839,38.5h-3V26.083h2.417c0.553,0,1-0.447,1-1
	c0-0.554-0.447-1-1-1h-2.417V11.5h3c0.554,0,1-0.447,1-1s-0.446-1-1-1h-5v14.583h-4.833c-0.553,0-1,0.446-1,1c0,0.553,0.447,1,1,1
	h4.833V40.5h5c0.554,0,1-0.447,1-1S32.393,38.5,31.839,38.5z"/>
</svg>
