<?xml version="1.0" encoding="utf-8"?>
<!-- Generator: Adobe Illustrator 16.0.0, SVG Export Plug-In . SVG Version: 6.00 Build 0)  -->
<!DOCTYPE svg PUBLIC "-//W3C//DTD SVG 1.1//EN" "http://www.w3.org/Graphics/SVG/1.1/DTD/svg11.dtd">
<svg version="1.1" id="Layer_1" xmlns="http://www.w3.org/2000/svg" xmlns:xlink="http://www.w3.org/1999/xlink" x="0px" y="0px"
	 width="50px" height="50px" viewBox="0 0 50 50" enable-background="new 0 0 50 50" xml:space="preserve">
<path d="M38.669,39.379v5.124H11.203v-5.126c0-1.902,1.64-4.245,3.645-5.195l4.461-2.121l3.096,6.451l1.584-4.296
	c0.312,0.06,0.623,0.138,0.947,0.138c0.325,0,0.635-0.078,0.948-0.138l1.503,4.087l3.034-6.313l4.602,2.189
	C37.028,35.132,38.669,37.475,38.669,39.379z M24.937,31.99c3.919,0,7.096-4.877,7.096-9.347c0-4.474-3.176-6.847-7.096-6.847
	c-3.919,0-7.094,2.373-7.094,6.847C17.841,27.113,21.018,31.99,24.937,31.99z M35.538,20.68l-1.53-0.527
	c0.161-0.467,0.301-0.809,0.421-1.029c0.121-0.221,0.306-0.396,0.555-0.525c0.25-0.133,0.607-0.214,1.073-0.248
	c0.217-0.006,0.404-0.012,0.562-0.017c0.155-0.007,0.295-0.021,0.416-0.044s0.227-0.066,0.314-0.126
	c0.231-0.147,0.414-0.418,0.548-0.81c0.173-0.5,0.206-0.857,0.101-1.071c-0.055-0.15-0.166-0.274-0.337-0.37
	c-0.172-0.096-0.433-0.204-0.784-0.324c-0.398-0.124-0.696-0.197-0.894-0.224c-0.194-0.027-0.358-0.001-0.489,0.082
	c-0.14,0.104-0.28,0.319-0.426,0.649c0.002,0.045-0.011,0.108-0.039,0.188l-0.125,0.36l-1.529-0.525
	c0.243-0.706,0.488-1.223,0.736-1.551c0.25-0.327,0.529-0.526,0.84-0.6c0.357-0.086,0.726-0.091,1.102-0.015
	s0.829,0.205,1.356,0.386c1.178,0.406,1.885,0.896,2.122,1.475c0.212,0.509,0.166,1.201-0.137,2.082
	c-0.211,0.61-0.439,1.031-0.688,1.261c-0.249,0.228-0.557,0.378-0.924,0.448c-0.117,0.024-0.313,0.045-0.589,0.058
	c-0.273,0.013-0.479,0.024-0.615,0.039c-0.137,0.013-0.275,0.052-0.417,0.11c-0.177,0.053-0.294,0.135-0.354,0.244
	C35.741,20.143,35.65,20.35,35.538,20.68z M33.588,21.371l1.53,0.526l-0.568,1.651l-1.53-0.526L33.588,21.371z M14.889,20.36
	l-1.295,0.568c-0.174-0.396-0.287-0.699-0.341-0.912c-0.052-0.213-0.038-0.437,0.044-0.668s0.264-0.496,0.542-0.795
	c0.136-0.134,0.253-0.248,0.351-0.344c0.096-0.097,0.178-0.188,0.242-0.275c0.063-0.088,0.105-0.178,0.127-0.268
	c0.061-0.232,0.018-0.516-0.127-0.845c-0.187-0.425-0.377-0.675-0.573-0.749c-0.123-0.065-0.269-0.077-0.436-0.037
	c-0.167,0.039-0.398,0.125-0.696,0.256c-0.329,0.157-0.564,0.287-0.706,0.387s-0.231,0.213-0.267,0.344
	c-0.027,0.148,0.01,0.373,0.113,0.67c0.029,0.027,0.058,0.076,0.088,0.145l0.134,0.307l-1.295,0.569
	c-0.262-0.598-0.411-1.075-0.445-1.435c-0.035-0.358,0.026-0.652,0.182-0.885c0.18-0.267,0.413-0.487,0.701-0.662
	c0.287-0.174,0.654-0.358,1.101-0.557c0.997-0.438,1.743-0.542,2.239-0.312c0.437,0.2,0.819,0.674,1.146,1.419
	c0.228,0.519,0.33,0.924,0.305,1.219c-0.025,0.294-0.133,0.572-0.327,0.836c-0.062,0.087-0.176,0.217-0.345,0.387
	s-0.292,0.301-0.373,0.391c-0.08,0.09-0.146,0.197-0.202,0.32c-0.082,0.137-0.109,0.258-0.083,0.364
	C14.702,19.895,14.766,20.081,14.889,20.36z M14.045,21.961l1.296-0.57l0.615,1.399l-1.296,0.567L14.045,21.961z M23.587,12.262
	l-1.457-0.713c0.217-0.445,0.399-0.77,0.546-0.975c0.146-0.203,0.354-0.355,0.617-0.455c0.264-0.102,0.63-0.139,1.098-0.114
	c0.218,0.021,0.405,0.038,0.561,0.054c0.156,0.013,0.297,0.016,0.421,0.006c0.124-0.008,0.233-0.039,0.329-0.084
	c0.249-0.121,0.465-0.366,0.646-0.738c0.233-0.477,0.312-0.829,0.231-1.057c-0.034-0.155-0.132-0.293-0.29-0.41
	c-0.158-0.115-0.405-0.256-0.74-0.42c-0.381-0.172-0.669-0.279-0.861-0.332c-0.191-0.049-0.357-0.045-0.498,0.021
	c-0.151,0.087-0.318,0.285-0.503,0.598c-0.002,0.045-0.023,0.104-0.061,0.183l-0.169,0.344l-1.458-0.712
	c0.329-0.673,0.638-1.157,0.924-1.451c0.29-0.297,0.592-0.461,0.91-0.494c0.367-0.041,0.734,0,1.099,0.12
	c0.365,0.123,0.799,0.308,1.303,0.552c1.122,0.551,1.766,1.127,1.933,1.73c0.146,0.529,0.017,1.215-0.394,2.057
	c-0.285,0.58-0.564,0.971-0.841,1.168c-0.275,0.196-0.6,0.309-0.975,0.334c-0.122,0.01-0.319,0.006-0.595-0.017
	c-0.275-0.022-0.48-0.034-0.617-0.038c-0.138-0.005-0.281,0.02-0.43,0.063c-0.18,0.026-0.308,0.095-0.382,0.197
	C23.857,11.752,23.743,11.948,23.587,12.262z M21.562,12.71l1.459,0.712l-0.77,1.574l-1.459-0.714L21.562,12.71z"/>
</svg>
