<?xml version="1.0" encoding="utf-8"?>
<!-- Generator: Adobe Illustrator 16.0.0, SVG Export Plug-In . SVG Version: 6.00 Build 0)  -->
<!DOCTYPE svg PUBLIC "-//W3C//DTD SVG 1.1//EN" "http://www.w3.org/Graphics/SVG/1.1/DTD/svg11.dtd">
<svg version="1.1" id="Layer_1" xmlns="http://www.w3.org/2000/svg" xmlns:xlink="http://www.w3.org/1999/xlink" x="0px" y="0px"
	 width="50px" height="50px" viewBox="0 0 50 50" enable-background="new 0 0 50 50" xml:space="preserve">
<path d="M31.267,11.639c0-2.056,1.459-3.144,3.26-3.144c1.802,0,3.261,1.088,3.261,3.144c0,2.054-1.459,4.292-3.261,4.292
	C32.726,15.931,31.267,13.692,31.267,11.639z M39.524,17.331c-0.271-0.272-0.635-0.425-1.019-0.425h-3.09l-0.541,0.721l0.992,5.617
	l-1.345,1.266l-1.342-1.266l0.99-5.617l-0.539-0.721h-3.088c-0.791,0-1.434,0.642-1.434,1.433v9.052
	c0,0.791,0.641,1.434,1.432,1.434c0.17,0,0.328-0.034,0.477-0.088v10.859c0,1.055,0.857,1.909,1.912,1.909
	c0.666,0,1.25-0.341,1.592-0.858c0.342,0.518,0.927,0.858,1.592,0.858c1.058,0,1.912-0.854,1.912-1.909V28.643
	c0.121,0.035,0.25,0.063,0.384,0.063c0.813,0.032,1.438-0.628,1.446-1.42l0.082-8.932C39.942,17.969,39.794,17.602,39.524,17.331z
	 M26.466,18.211h-6.883v22.625h6.883V18.211z M16.944,25.564h-6.883v15.271h6.883V25.564z"/>
</svg>
