<?xml version="1.0" encoding="utf-8"?>
<!-- Generator: Adobe Illustrator 16.0.0, SVG Export Plug-In . SVG Version: 6.00 Build 0)  -->
<!DOCTYPE svg PUBLIC "-//W3C//DTD SVG 1.1//EN" "http://www.w3.org/Graphics/SVG/1.1/DTD/svg11.dtd">
<svg version="1.1" id="Layer_1" xmlns="http://www.w3.org/2000/svg" xmlns:xlink="http://www.w3.org/1999/xlink" x="0px" y="0px"
	 width="50px" height="50px" viewBox="0 0 50 50" enable-background="new 0 0 50 50" xml:space="preserve">
<path d="M13.781,9.252c0-2.422,1.72-3.706,3.843-3.706c2.121,0,3.842,1.283,3.842,3.706c0,2.421-1.721,5.06-3.842,5.06
	C15.5,14.312,13.781,11.673,13.781,9.252z M23.514,15.961c-0.317-0.32-0.75-0.5-1.199-0.5H18.67l-0.637,0.849l1.169,6.62
	l-1.583,1.492l-1.582-1.492l1.168-6.62l-0.637-0.849H12.93c-0.932,0-1.688,0.756-1.688,1.689v10.668
	c0,0.934,0.757,1.689,1.688,1.689c0.199,0,0.387-0.041,0.563-0.104v12.798c0,1.243,1.01,2.252,2.252,2.252
	c0.785,0,1.475-0.402,1.877-1.011c0.403,0.608,1.094,1.011,1.877,1.011c1.244,0,2.252-1.009,2.252-2.252V29.294
	c0.146,0.042,0.295,0.072,0.453,0.074c0.959,0.038,1.695-0.741,1.705-1.673l0.096-10.528C24.006,16.715,23.833,16.281,23.514,15.961
	z M30.191,32.857c-0.101,0.01-0.202,0.027-0.304,0.055c-0.103,0.025-0.198,0.063-0.291,0.111c-0.236,0.115-0.354,0.451-0.354,1.008
	c0,0.335,0.091,0.594,0.272,0.775c0.117,0.112,0.291,0.187,0.521,0.221c0.228,0.037,0.522,0.062,0.886,0.078V32.82
	c-0.078,0.002-0.192,0.008-0.348,0.014C30.419,32.839,30.292,32.847,30.191,32.857z M28.13,28.473h6.531
	c0.391,0,0.709-0.318,0.709-0.71s-0.318-0.709-0.709-0.709H28.13c-0.392,0-0.709,0.318-0.709,0.709
	C27.421,28.154,27.738,28.473,28.13,28.473z M28.327,26.695h6.139c0.201-0.226,0.338-0.603,0.377-0.918
	c0.088-0.703,0.634-2.517,0-2.837c-0.571-0.29-1.43,1.564-2.066,1.516c-0.486-0.037-0.893-1.378-1.379-1.378
	c-0.512,0-0.938,1.417-1.447,1.447c-0.636,0.037-1.425-1.863-1.999-1.584c-0.639,0.309-0.087,2.134,0,2.838
	C27.99,26.093,28.126,26.47,28.327,26.695z M32.901,36.554c-0.225-0.05-0.58-0.079-1.063-0.088v2.392
	c0.653,0,1.101-0.067,1.336-0.203c0.109-0.084,0.203-0.188,0.281-0.311c0.077-0.124,0.117-0.34,0.117-0.65
	c0-0.371-0.055-0.642-0.165-0.812C33.296,36.712,33.13,36.604,32.901,36.554z M38.503,41.898c-0.367,0.392-0.99,0.403-1.393,0.028
	c-0.037-0.034-0.066-0.073-0.098-0.11h-11.24c-0.018,0.021-0.031,0.045-0.051,0.066c-0.375,0.402-0.997,0.432-1.387,0.064
	c-0.392-0.366-0.404-0.988-0.029-1.391c0.086-0.092,0.186-0.162,0.289-0.214v-8.375c0-0.606,0.422-1.364,0.938-1.685l2.357-1.467
	c0.068,0.008,0.137,0.017,0.207,0.017h6.596c0.072,0,0.141-0.008,0.209-0.017l2.357,1.467c0.515,0.32,0.937,1.078,0.937,1.685v8.382
	c0.085,0.041,0.167,0.094,0.24,0.161C38.839,40.885,38.868,41.506,38.503,41.898z M35.14,37.643c0-0.893-0.188-1.524-0.561-1.896
	c-0.26-0.23-0.598-0.387-1.015-0.467c-0.414-0.082-0.991-0.139-1.728-0.172V32.82c0.066,0.008,0.2,0.013,0.403,0.016
	c0.203,0.002,0.368,0.014,0.497,0.033c0.128,0.02,0.25,0.064,0.365,0.132c0.111,0.067,0.191,0.179,0.236,0.329
	c0.049,0.15,0.073,0.376,0.073,0.677h1.429c0-0.554-0.06-0.996-0.176-1.323c-0.115-0.33-0.293-0.578-0.531-0.744
	c-0.237-0.166-0.53-0.279-0.881-0.34s-0.822-0.101-1.418-0.119v-0.819h-0.916v0.819c-0.685,0-1.248,0.043-1.692,0.131
	s-0.806,0.3-1.083,0.637c-0.297,0.365-0.445,0.96-0.445,1.783c0,0.63,0.105,1.105,0.316,1.429c0.137,0.202,0.305,0.364,0.503,0.483
	c0.198,0.121,0.421,0.211,0.663,0.272c0.244,0.062,0.525,0.11,0.843,0.146c0.315,0.037,0.614,0.07,0.896,0.103v2.392
	c-0.305,0-0.617-0.015-0.937-0.045c-0.218-0.023-0.39-0.074-0.513-0.152c-0.125-0.077-0.225-0.206-0.301-0.387
	c-0.062-0.151-0.092-0.463-0.092-0.937h-1.43c0,0.589,0.041,1.05,0.121,1.381c0.083,0.331,0.266,0.62,0.555,0.868
	c0.28,0.238,0.637,0.398,1.063,0.482c0.429,0.084,0.938,0.125,1.531,0.125v0.892h0.916v-0.89c0.99,0,1.756-0.133,2.297-0.401
	C34.784,39.475,35.118,38.76,35.14,37.643z"/>
</svg>
