<?xml version="1.0" encoding="utf-8"?>
<!-- Generator: Adobe Illustrator 16.0.0, SVG Export Plug-In . SVG Version: 6.00 Build 0)  -->
<!DOCTYPE svg PUBLIC "-//W3C//DTD SVG 1.1//EN" "http://www.w3.org/Graphics/SVG/1.1/DTD/svg11.dtd">
<svg version="1.1" id="Layer_1" xmlns="http://www.w3.org/2000/svg" xmlns:xlink="http://www.w3.org/1999/xlink" x="0px" y="0px"
	 width="50px" height="50px" viewBox="0 0 50 50" enable-background="new 0 0 50 50" xml:space="preserve">
<path d="M29.548,16.567v12.194c0,1.002-0.813,1.814-1.813,1.814c-0.214,0-0.414-0.044-0.604-0.111v13.011
	c0,1.336-1.083,2.419-2.419,2.419c-0.842,0-1.583-0.432-2.016-1.085c-0.434,0.653-1.173,1.085-2.017,1.085
	c-1.336,0-2.419-1.083-2.419-2.419V30.061c-0.189,0.067-0.391,0.111-0.604,0.111c-1.002,0-1.814-0.813-1.814-1.813V16.567
	c0-1.001,0.813-1.813,1.814-1.813h3.91l0.685,0.911l-1.255,7.111l1.7,1.603l1.7-1.603l-1.256-7.111l0.686-0.911h3.91
	c0.48,0,0.941,0.191,1.282,0.531C29.36,15.625,29.548,16.087,29.548,16.567z M22.695,13.52c2.278,0,4.126-2.835,4.126-5.436
	c0-2.602-1.848-3.979-4.126-3.979c-2.279,0-4.126,1.378-4.126,3.979S20.416,13.52,22.695,13.52z M32.61,35.012v-1.813h-2.321v1.813
	h-1.548v10.683h5.417V35.012H32.61z"/>
</svg>
