<?xml version="1.0" encoding="utf-8"?>
<!-- Generator: Adobe Illustrator 16.0.0, SVG Export Plug-In . SVG Version: 6.00 Build 0)  -->
<!DOCTYPE svg PUBLIC "-//W3C//DTD SVG 1.1//EN" "http://www.w3.org/Graphics/SVG/1.1/DTD/svg11.dtd">
<svg version="1.1" id="Layer_1" xmlns="http://www.w3.org/2000/svg" xmlns:xlink="http://www.w3.org/1999/xlink" x="0px" y="0px"
	 width="50px" height="50px" viewBox="0 0 50 50" enable-background="new 0 0 50 50" xml:space="preserve">
<path d="M40.563,11.563H9.438c-1.1,0-2,0.9-2,2v22.875c0,1.029,0.79,1.873,1.792,1.979v0.021h0.208h3.041v-2.813
	c-0.157,0.057-0.323,0.092-0.5,0.092c-0.829,0-1.5-0.672-1.5-1.5l0.001-9.475c0-0.829,0.672-1.5,1.5-1.5h3.232l0.565,0.754
	l-1.038,5.879l1.406,1.326l1.406-1.326l-1.038-5.879l0.565-0.754h2.984l4.512-1.555c0.783-0.271,1.637,0.146,1.907,0.929
	c0.27,0.783-0.146,1.637-0.93,1.907l-4.749,1.638c-0.157,0.053-0.322,0.082-0.489,0.082h-0.51c0.001,0.027,0.008,0.055,0.008,0.084
	v12.111h0.791h10.46h9.5c1.1,0,2-0.9,2-2V13.563C42.563,12.462,41.664,11.563,40.563,11.563z M16.146,22.222
	c-1.885,0-3.412-2.344-3.412-4.494c0-2.151,1.527-3.291,3.412-3.291c1.885,0,3.412,1.14,3.412,3.291
	C19.558,19.877,18.03,22.222,16.146,22.222z M40.896,35.433H22.313v-0.581v-0.133v-6.572h0.713v6.572h1.994v-6.995h2.87v6.995h1.98
	V24.376h2.871v10.342h1.98V21.233h-2.237l3.671-3.671l3.672,3.671H37.59v13.485h3.306L40.896,35.433L40.896,35.433z"/>
</svg>
