<?xml version="1.0" encoding="utf-8"?>
<!-- Generator: Adobe Illustrator 16.0.0, SVG Export Plug-In . SVG Version: 6.00 Build 0)  -->
<!DOCTYPE svg PUBLIC "-//W3C//DTD SVG 1.1//EN" "http://www.w3.org/Graphics/SVG/1.1/DTD/svg11.dtd">
<svg version="1.1" id="Layer_1" xmlns="http://www.w3.org/2000/svg" xmlns:xlink="http://www.w3.org/1999/xlink" x="0px" y="0px"
	 width="50px" height="50px" viewBox="0 0 50 50" enable-background="new 0 0 50 50" xml:space="preserve">
<path d="M27.623,23.938c0,2.104,0.834,4.348,2.199,5.926l-2.936,1.395V15.881h4.666v2.295C29.133,19,27.623,21.108,27.623,23.938z
	 M24.222,31.712v-11.5h-4.668v11.5H24.222z M16.888,31.712V24.88h-4.666v6.832H16.888z M8.721,12.629h26.333v5.242
	c1.166,0.16,2.184,0.571,3,1.197v-7.939c0-0.828-0.672-1.5-1.5-1.5H7.221c-0.828,0-1.5,0.672-1.5,1.5v25.334
	c0,0.828,0.672,1.5,1.5,1.5h15.411v-1.445c0-0.507,0.123-1.035,0.326-1.555H8.721V12.629z M33.957,30.965
	c2.945,0,5.332-3.666,5.332-7.026c0-3.363-2.387-5.146-5.332-5.146c-2.947,0-5.334,1.783-5.334,5.146
	C28.623,27.299,31.01,30.965,33.957,30.965z M41.539,32.611l-3.459-1.646l-2.281,4.745l-1.131-3.073
	c-0.234,0.046-0.467,0.104-0.711,0.104s-0.48-0.06-0.713-0.104l-1.191,3.23l-2.326-4.852l-3.355,1.596
	c-1.506,0.715-2.738,2.476-2.738,3.905v3.854h20.646v-3.854C44.279,35.087,43.047,33.326,41.539,32.611z"/>
</svg>
