<?xml version="1.0" encoding="utf-8"?>
<!-- Generator: Adobe Illustrator 16.0.0, SVG Export Plug-In . SVG Version: 6.00 Build 0)  -->
<!DOCTYPE svg PUBLIC "-//W3C//DTD SVG 1.1//EN" "http://www.w3.org/Graphics/SVG/1.1/DTD/svg11.dtd">
<svg version="1.1" id="Layer_1" xmlns="http://www.w3.org/2000/svg" xmlns:xlink="http://www.w3.org/1999/xlink" x="0px" y="0px"
	 width="50px" height="50px" viewBox="0 0 50 50" enable-background="new 0 0 50 50" xml:space="preserve">
<path d="M21.158,9.252c0-2.422,1.72-3.706,3.842-3.706c2.122,0,3.842,1.283,3.842,3.706c0,2.421-1.721,5.06-3.842,5.06
	C22.877,14.312,21.158,11.673,21.158,9.252z M15.499,13.507c1.885,0,3.412-2.344,3.412-4.494s-1.527-3.291-3.412-3.291
	s-3.412,1.141-3.412,3.291C12.085,11.163,13.614,13.507,15.499,13.507z M34.498,13.507c1.885,0,3.412-2.344,3.412-4.494
	s-1.527-3.291-3.412-3.291s-3.412,1.141-3.412,3.291S32.613,13.507,34.498,13.507z M39.732,14.971
	c-0.281-0.284-0.665-0.443-1.064-0.443h-3.236l-0.564,0.754l1.037,5.88l-1.406,1.325l-1.405-1.325l1.038-5.88l-0.565-0.754h-3.231
	c-0.019,0-0.035,0.004-0.053,0.005c0.496,0.112,0.959,0.359,1.32,0.725c0.501,0.504,0.785,1.203,0.779,1.917l-0.096,10.529
	c-0.011,1.057-0.597,1.942-1.453,2.377v8.199c0,1.104,0.896,2,2,2c0.696,0,1.309-0.357,1.666-0.898
	c0.358,0.541,0.971,0.898,1.668,0.898c1.104,0,2-0.896,2-2V26.813c0.129,0.037,0.262,0.064,0.402,0.065
	c0.852,0.034,1.506-0.658,1.514-1.486l0.086-9.351C40.17,15.64,40.015,15.256,39.732,14.971z M17.619,27.818l0.001-10.67
	c0-1.277,0.897-2.345,2.094-2.617c-0.016,0-0.031-0.004-0.046-0.004h-3.236l-0.565,0.754l1.038,5.88l-1.406,1.325l-1.406-1.325
	l1.038-5.88l-0.565-0.754h-3.232c-0.828,0-1.5,0.671-1.5,1.5l-0.001,9.476c0,0.828,0.671,1.5,1.5,1.5c0.176,0,0.343-0.036,0.5-0.092
	v11.367c0,1.104,0.896,2,2,2c0.697,0,1.309-0.357,1.667-0.898c0.358,0.541,0.97,0.898,1.667,0.898c1.104,0,2-0.896,2-2v-8.037
	C18.254,29.81,17.619,28.891,17.619,27.818z M30.892,15.961c-0.317-0.32-0.749-0.5-1.199-0.5h-3.644l-0.637,0.849l1.168,6.62
	l-1.583,1.492l-1.583-1.492l1.169-6.62l-0.637-0.849h-3.639c-0.933,0-1.689,0.756-1.689,1.688l-0.001,10.67
	c0,0.933,0.756,1.688,1.688,1.688c0.199,0,0.386-0.041,0.563-0.103v12.797c0,1.244,1.008,2.252,2.252,2.252
	c0.785,0,1.474-0.402,1.877-1.011c0.403,0.608,1.092,1.011,1.875,1.011c1.244,0,2.252-1.008,2.252-2.252V29.293
	c0.146,0.042,0.295,0.072,0.455,0.074c0.959,0.038,1.694-0.741,1.703-1.673l0.096-10.528C31.385,16.714,31.209,16.281,30.892,15.961
	z"/>
</svg>
