<?xml version="1.0" encoding="utf-8"?>
<!-- Generator: Adobe Illustrator 16.0.0, SVG Export Plug-In . SVG Version: 6.00 Build 0)  -->
<!DOCTYPE svg PUBLIC "-//W3C//DTD SVG 1.1//EN" "http://www.w3.org/Graphics/SVG/1.1/DTD/svg11.dtd">
<svg version="1.1" id="Layer_1" xmlns="http://www.w3.org/2000/svg" xmlns:xlink="http://www.w3.org/1999/xlink" x="0px" y="0px"
	 width="50px" height="50px" viewBox="0 0 50 50" enable-background="new 0 0 50 50" xml:space="preserve">
<path d="M27.045,36.725c0.517,0.436,1.408,0.651,2.678,0.651l0.342,0.007v1.191h1.213v-1.191l0.37-0.007
	c1.272,0,2.164-0.229,2.675-0.683c0.514-0.452,0.766-1.241,0.766-2.369c0-1.044-0.232-1.764-0.698-2.156
	c-0.472-0.393-1.374-0.627-2.714-0.7l-0.397-0.014V28.79h0.282c0.986,0,1.48,0.394,1.48,1.183l0.006,0.193h1.737v-0.243
	c0-1.049-0.245-1.763-0.743-2.149c-0.494-0.385-1.418-0.575-2.764-0.575v-1.036h-1.213v1.036c-1.414,0-2.378,0.2-2.898,0.604
	c-0.52,0.4-0.779,1.147-0.779,2.239c0,1.125,0.261,1.894,0.775,2.301c0.521,0.409,1.484,0.615,2.902,0.615v2.888l-0.266-0.009
	c-0.727,0-1.197-0.097-1.405-0.285c-0.209-0.19-0.312-0.612-0.312-1.269v-0.186h-1.8l-0.01,0.362
	C26.273,35.535,26.532,36.29,27.045,36.725z M31.277,33.023c0.813,0,1.348,0.086,1.605,0.259c0.256,0.173,0.385,0.528,0.385,1.073
	c0,0.99-0.578,1.488-1.73,1.488h-0.26V33.023z M29.799,31.38c-1.065,0-1.592-0.44-1.592-1.325c0-0.845,0.53-1.265,1.598-1.265
	l0.26-0.011v2.615C29.895,31.387,29.81,31.38,29.799,31.38z M30.556,44.809c6.86,0,12.44-5.58,12.44-12.439
	s-5.58-12.439-12.44-12.439c-6.861,0-12.441,5.58-12.441,12.439S23.694,44.809,30.556,44.809z M30.556,21.93
	c5.756,0,10.438,4.686,10.438,10.438s-4.684,10.438-10.438,10.438s-10.439-4.685-10.439-10.438S24.799,21.93,30.556,21.93z
	 M30.556,41.902c5.258,0,9.534-4.276,9.534-9.534c0-5.259-4.276-9.536-9.534-9.536c-5.259,0-9.539,4.277-9.539,9.536
	C21.017,37.626,25.297,41.902,30.556,41.902z M30.556,23.633c4.817,0,8.735,3.917,8.735,8.735c0,4.817-3.918,8.735-8.735,8.735
	c-4.818,0-8.737-3.918-8.737-8.735C21.818,27.55,25.737,23.633,30.556,23.633z M24.558,23.395c-0.666,0.654-1.738,0.646-2.396-0.021
	l-4.623-4.706v23.272c0,1.246-1.012,2.259-2.258,2.259c-0.787,0-1.478-0.403-1.881-1.015c-0.404,0.61-1.096,1.015-1.883,1.015
	c-1.246,0-2.257-1.013-2.257-2.259V29.419c-0.179,0.063-0.366,0.103-0.564,0.103c-0.935,0-1.692-0.758-1.692-1.691V16.825
	c0-0.935,0.759-1.693,1.692-1.693h3.649l0.639,0.853l-1.172,6.636l1.588,1.496l1.586-1.496l-1.172-6.636l0.639-0.853h3.65
	c0.453,0,0.889,0.183,1.207,0.507l5.268,5.363C25.235,21.667,25.225,22.739,24.558,23.395z M9.549,8.906
	c0-2.43,1.724-3.715,3.853-3.715c2.127,0,3.851,1.285,3.851,3.715c0,2.428-1.724,5.072-3.851,5.072
	C11.272,13.979,9.549,11.334,9.549,8.906z"/>
</svg>
