<?xml version="1.0" encoding="utf-8"?>
<!-- Generator: Adobe Illustrator 16.0.0, SVG Export Plug-In . SVG Version: 6.00 Build 0)  -->
<!DOCTYPE svg PUBLIC "-//W3C//DTD SVG 1.1//EN" "http://www.w3.org/Graphics/SVG/1.1/DTD/svg11.dtd">
<svg version="1.1" id="Layer_1" xmlns="http://www.w3.org/2000/svg" xmlns:xlink="http://www.w3.org/1999/xlink" x="0px" y="0px"
	 width="50px" height="50px" viewBox="0 0 50 50" enable-background="new 0 0 50 50" xml:space="preserve">
<g>
	<path d="M13.708,20.898l5.848-5.953c0.354-0.36,0.837-0.563,1.341-0.563h4.052l0.709,0.945l-1.302,7.368l1.763,1.661l1.762-1.661
		l-1.301-7.368l0.709-0.945h4.051c1.039,0,1.881,0.842,1.881,1.88V28.48c0,1.037-0.842,1.881-1.881,1.881
		c-0.221,0-0.43-0.045-0.625-0.115v13.902c0,1.383-1.123,2.506-2.506,2.506c-0.875,0-1.642-0.447-2.09-1.125
		c-0.447,0.678-1.216,1.125-2.088,1.125c-1.384,0-2.506-1.123-2.506-2.506V18.306l-5.134,5.227
		c-0.728,0.742-1.917,0.752-2.659,0.023C12.992,22.829,12.98,21.639,13.708,20.898z"/>
	<path d="M26.119,13.102c-2.362,0-4.276-2.937-4.276-5.632s1.914-4.124,4.276-4.124c2.362,0,4.276,1.429,4.276,4.124
		S28.481,13.102,26.119,13.102z"/>
	<polygon points="33.228,36.111 33.228,34.424 35.389,34.424 35.389,36.111 36.83,36.111 36.83,46.059 31.785,46.059 31.785,36.111 
			"/>
</g>
</svg>
