<?xml version="1.0" encoding="utf-8"?>
<!-- Generator: Adobe Illustrator 16.0.0, SVG Export Plug-In . SVG Version: 6.00 Build 0)  -->
<!DOCTYPE svg PUBLIC "-//W3C//DTD SVG 1.1//EN" "http://www.w3.org/Graphics/SVG/1.1/DTD/svg11.dtd">
<svg version="1.1" id="Layer_1" xmlns="http://www.w3.org/2000/svg" xmlns:xlink="http://www.w3.org/1999/xlink" x="0px" y="0px"
	 width="50px" height="50px" viewBox="0 0 50 50" enable-background="new 0 0 50 50" xml:space="preserve">
<path d="M10.421,9.252c0-2.422,1.72-3.706,3.842-3.706s3.842,1.283,3.842,3.706c0,2.421-1.72,5.06-3.842,5.06
	S10.421,11.673,10.421,9.252z M20.155,15.961c-0.317-0.32-0.75-0.5-1.199-0.5h-3.645l-0.637,0.849l1.169,6.62l-1.583,1.492
	l-1.582-1.492l1.168-6.62l-0.637-0.849H9.571c-0.933,0-1.688,0.756-1.688,1.689L7.882,27.818c0,0.934,0.756,1.689,1.688,1.689
	c0.199,0,0.387-0.041,0.563-0.103v12.797c0,1.243,1.009,2.252,2.252,2.252c0.785,0,1.476-0.402,1.877-1.011
	c0.403,0.608,1.093,1.011,1.877,1.011c1.244,0,2.252-1.008,2.252-2.252V29.293c0.146,0.042,0.295,0.072,0.453,0.074
	c0.959,0.038,1.694-0.741,1.705-1.674l0.096-10.527C20.647,16.714,20.472,16.281,20.155,15.961z M33.555,17.969h7.674
	c0.491,0,0.89-0.398,0.89-0.89V9.405c0-0.492-0.397-0.89-0.89-0.89h-7.674c-0.492,0-0.89,0.398-0.89,0.89v2.619h-7.569
	c-0.737,0-1.334,0.597-1.334,1.334v10.307h-2.383v2.669h2.383v10.307c0,0.737,0.597,1.336,1.334,1.336h7.569v2.618
	c0,0.492,0.396,0.89,0.89,0.89h7.674c0.491,0,0.89-0.397,0.89-0.89v-7.674c0-0.491-0.397-0.89-0.89-0.89h-7.674
	c-0.492,0-0.89,0.397-0.89,0.89v2.386h-6.234v-8.972h6.234v2.502c0,0.491,0.396,0.89,0.89,0.89h7.674c0.491,0,0.89-0.397,0.89-0.89
	v-7.675c0-0.491-0.397-0.89-0.89-0.89h-7.674c-0.492,0-0.89,0.398-0.89,0.89v2.502h-6.234v-8.972h6.234v2.386
	C32.665,17.57,33.063,17.969,33.555,17.969z"/>
</svg>
