<?xml version="1.0" encoding="utf-8"?>
<!-- Generator: Adobe Illustrator 16.0.0, SVG Export Plug-In . SVG Version: 6.00 Build 0)  -->
<!DOCTYPE svg PUBLIC "-//W3C//DTD SVG 1.1//EN" "http://www.w3.org/Graphics/SVG/1.1/DTD/svg11.dtd">
<svg version="1.1" id="Layer_1" xmlns="http://www.w3.org/2000/svg" xmlns:xlink="http://www.w3.org/1999/xlink" x="0px" y="0px"
	 width="50px" height="50px" viewBox="0 0 50 50" enable-background="new 0 0 50 50" xml:space="preserve">
<path d="M18.012,8.233c0-0.462,0.374-0.835,0.833-0.835h24.372c0.46,0,0.834,0.373,0.834,0.835c0,0.461-0.374,0.833-0.834,0.833
	H18.845C18.386,9.066,18.012,8.694,18.012,8.233z M36.656,30.854H25.407c-0.46,0-0.834,0.374-0.834,0.834
	c0,0.461,0.374,0.833,0.834,0.833h4.791v5.611h-2.061c-0.461,0-0.834,0.371-0.834,0.833s0.373,0.835,0.834,0.835h5.787
	c0.46,0,0.834-0.373,0.834-0.835s-0.374-0.833-0.834-0.833h-2.059v-5.611h4.79c0.46,0,0.834-0.372,0.834-0.833
	C37.49,31.229,37.116,30.854,36.656,30.854z M42.748,9.816H19.315c-0.691,0-1.25,0.561-1.25,1.25v6.165l1.882,2.556l1.383-0.83
	c0.388-0.232,0.833-0.356,1.285-0.356c0.874,0,1.695,0.466,2.145,1.215c0.344,0.572,0.444,1.244,0.282,1.894
	c-0.162,0.648-0.567,1.193-1.14,1.537l-3.333,2c-0.39,0.232-0.833,0.355-1.286,0.355c-0.434,0-0.85-0.123-1.22-0.33v3.736
	c0,0.689,0.561,1.25,1.25,1.25h23.434c0.69,0,1.25-0.561,1.25-1.25v-17.94C43.998,10.377,43.439,9.816,42.748,9.816z M23.903,20.33
	c-0.427-0.711-1.349-0.942-2.059-0.516l-2.164,1.299l-2.689-3.652c-0.283-0.385-0.731-0.61-1.208-0.61h-3.234l-0.564,0.754
	l1.037,5.88l-1.405,1.325l-1.406-1.325l1.038-5.88l-0.565-0.754H7.449c-0.829,0-1.5,0.672-1.5,1.5v9.75c0,0.828,0.671,1.5,1.5,1.5
	c0.176,0,0.343-0.036,0.5-0.092v11.093c0,1.104,0.896,2,2,2c0.696,0,1.309-0.357,1.667-0.896c0.357,0.539,0.97,0.896,1.667,0.896
	c1.104,0,2-0.896,2-2v-20.4l2.792,3.791c0.458,0.623,1.315,0.793,1.979,0.396l3.333-2C24.098,21.961,24.329,21.039,23.903,20.33z
	 M11.616,15.83c1.885,0,3.412-2.345,3.412-4.494c0-2.151-1.527-3.291-3.412-3.291s-3.412,1.14-3.412,3.291
	C8.204,13.485,9.732,15.83,11.616,15.83z"/>
</svg>
