<?xml version="1.0" encoding="utf-8"?>
<!-- Generator: Adobe Illustrator 16.0.0, SVG Export Plug-In . SVG Version: 6.00 Build 0)  -->
<!DOCTYPE svg PUBLIC "-//W3C//DTD SVG 1.1//EN" "http://www.w3.org/Graphics/SVG/1.1/DTD/svg11.dtd">
<svg version="1.1" id="Layer_1" xmlns="http://www.w3.org/2000/svg" xmlns:xlink="http://www.w3.org/1999/xlink" x="0px" y="0px"
	 width="50px" height="50px" viewBox="0 0 50 50" enable-background="new 0 0 50 50" xml:space="preserve">
<path d="M12.5,20.405h2.875v2.875H12.5V20.405z M17.562,23.28h2.875v-2.875h-2.875V23.28z M25.5,20.405h-2.875v2.875H25.5V20.405z
	 M30.563,20.405h-2.875v2.875h2.875V20.405z M12.5,28.029h2.875v-2.875H12.5V28.029z M17.562,28.029h2.875v-2.875h-2.875V28.029z
	 M12.5,32.779h2.875v-2.875H12.5V32.779z M17.562,32.779h2.875v-2.875h-2.875V32.779z M35.034,31.02
	c-0.073-0.08-0.179-0.137-0.317-0.17c-0.14-0.031-0.367-0.049-0.682-0.049c-0.305,0-0.523,0.014-0.658,0.037
	s-0.236,0.064-0.307,0.127c-0.088,0.066-0.149,0.168-0.186,0.303c-0.035,0.135-0.055,0.395-0.055,0.779v1.307
	c0,0.42,0.063,0.705,0.186,0.857c0.063,0.074,0.166,0.129,0.31,0.158c0.143,0.031,0.36,0.047,0.655,0.047
	c0.237,0,0.422-0.006,0.556-0.018c0.133-0.012,0.239-0.033,0.321-0.064c0.08-0.035,0.148-0.088,0.203-0.156
	c0.062-0.084,0.101-0.189,0.119-0.313c0.02-0.125,0.032-0.299,0.041-0.525v-1.389c0-0.301-0.015-0.514-0.043-0.639
	C35.148,31.189,35.102,31.092,35.034,31.02z M43.125,32.426c0,3.223-1.691,5.834-3.779,5.834H25.904c-0.68,0-1.317-0.281-1.869-0.77
	H8.375c-0.828,0-1.5-0.672-1.5-1.5v-21c0-0.828,0.672-1.5,1.5-1.5h3.723v-0.25c0-0.828,0.672-1.5,1.5-1.5c0.828,0,1.5,0.672,1.5,1.5
	v0.25h2.408v-0.25c0-0.828,0.672-1.5,1.5-1.5c0.828,0,1.5,0.672,1.5,1.5v0.25h2.406v-0.25c0-0.828,0.672-1.5,1.5-1.5
	s1.5,0.672,1.5,1.5v0.25h2.408v-0.25c0-0.828,0.672-1.5,1.5-1.5s1.5,0.672,1.5,1.5v0.25h3.723c0.828,0,1.5,0.672,1.5,1.5v11.603
	h2.803C41.434,26.594,43.125,29.203,43.125,32.426z M22.374,34.49c-0.158-0.643-0.249-1.336-0.249-2.064
	c0-1.756,0.505-3.326,1.301-4.396h-1.051v-2.875h2.875v1.533c0.213-0.059,0.432-0.094,0.654-0.094h1.533v-1.439h2.875v1.439h3.23
	V16.491H31.32c0,0.828-0.672,1.5-1.5,1.5s-1.5-0.672-1.5-1.5h-2.408c0,0.828-0.672,1.5-1.5,1.5s-1.5-0.672-1.5-1.5h-2.406
	c0,0.828-0.672,1.5-1.5,1.5c-0.828,0-1.5-0.672-1.5-1.5h-2.408c0,0.828-0.672,1.5-1.5,1.5c-0.828,0-1.5-0.672-1.5-1.5H9.875v18
	H22.374z M28.908,32.156c0-0.416-0.029-0.758-0.088-1.021c-0.059-0.266-0.16-0.48-0.303-0.643c-0.141-0.174-0.336-0.299-0.591-0.377
	C27.674,30.039,27.341,30,26.93,30c-0.396,0-0.729,0.018-1,0.053c-0.27,0.033-0.516,0.119-0.74,0.256
	c-0.145,0.109-0.254,0.252-0.329,0.426c-0.075,0.174-0.123,0.357-0.146,0.549c-0.023,0.189-0.038,0.424-0.044,0.695v1.123
	c0,0.258,0.008,0.484,0.025,0.678c0.018,0.195,0.062,0.389,0.134,0.58c0.072,0.191,0.179,0.354,0.32,0.48
	c0.161,0.145,0.377,0.244,0.65,0.297c0.273,0.053,0.636,0.08,1.087,0.08c0.408-0.01,0.741-0.045,1-0.105
	c0.26-0.061,0.467-0.178,0.622-0.354c0.164-0.176,0.271-0.398,0.322-0.67c0.05-0.27,0.076-0.578,0.076-0.932L28.908,32.156
	L28.908,32.156z M30.674,34.236h-0.869v0.939h0.869V34.236z M30.674,31.582h-0.869v0.943h0.869V31.582z M36.143,32.156
	c0-0.416-0.029-0.758-0.088-1.021c-0.06-0.266-0.16-0.48-0.303-0.643c-0.141-0.174-0.337-0.299-0.591-0.377
	C34.908,30.039,34.576,30,34.165,30c-0.397,0-0.729,0.018-1,0.053c-0.271,0.033-0.517,0.119-0.74,0.256
	c-0.146,0.109-0.254,0.252-0.329,0.426c-0.074,0.174-0.123,0.357-0.146,0.549c-0.023,0.189-0.038,0.424-0.044,0.695v1.123
	c0,0.258,0.009,0.484,0.025,0.678c0.019,0.195,0.063,0.389,0.135,0.58s0.179,0.354,0.32,0.48c0.159,0.145,0.377,0.244,0.649,0.297
	s0.636,0.08,1.088,0.08c0.408-0.01,0.741-0.045,1-0.105s0.466-0.178,0.622-0.354c0.164-0.176,0.271-0.398,0.322-0.67
	c0.051-0.27,0.076-0.578,0.076-0.932v-1H36.143z M40.796,33.408c-0.009-0.316-0.034-0.584-0.075-0.803
	c-0.043-0.219-0.129-0.406-0.261-0.559c-0.253-0.279-0.702-0.418-1.347-0.418c-0.646,0-1.051,0.143-1.221,0.43H37.88v-1.271h2.71
	v-0.744h-3.578v2.734h0.869c0.021-0.096,0.064-0.168,0.131-0.215c0.068-0.047,0.147-0.08,0.238-0.096
	c0.091-0.018,0.186-0.025,0.283-0.027c0.096,0,0.197-0.002,0.3-0.004c0.274,0.008,0.478,0.025,0.608,0.055
	c0.131,0.027,0.229,0.09,0.293,0.186c0.084,0.117,0.125,0.381,0.125,0.789c0,0.217-0.014,0.389-0.039,0.512
	c-0.024,0.125-0.073,0.217-0.147,0.275c-0.067,0.066-0.153,0.109-0.262,0.133c-0.106,0.02-0.267,0.035-0.478,0.047
	c-0.037-0.01-0.084-0.016-0.144-0.016c-0.233,0-0.401-0.01-0.508-0.027c-0.106-0.02-0.197-0.061-0.273-0.123
	c-0.124-0.096-0.186-0.283-0.186-0.563h-0.935c0.02,0.646,0.182,1.064,0.485,1.26c0.164,0.111,0.356,0.184,0.581,0.213
	c0.225,0.027,0.506,0.041,0.85,0.041c0.402,0,0.723-0.021,0.959-0.061c0.236-0.041,0.438-0.133,0.603-0.275
	C40.652,34.656,40.796,34.168,40.796,33.408z M27.799,31.02c-0.072-0.08-0.178-0.137-0.316-0.17
	c-0.14-0.031-0.366-0.049-0.683-0.049c-0.304,0-0.522,0.014-0.657,0.037c-0.136,0.023-0.238,0.064-0.309,0.127
	c-0.087,0.066-0.148,0.168-0.186,0.303c-0.035,0.135-0.055,0.395-0.055,0.779v1.307c0,0.42,0.063,0.705,0.186,0.857
	c0.063,0.074,0.166,0.129,0.31,0.158c0.144,0.031,0.362,0.047,0.656,0.047c0.237,0,0.422-0.006,0.556-0.018
	c0.133-0.012,0.24-0.033,0.32-0.064c0.081-0.035,0.148-0.088,0.205-0.156c0.061-0.084,0.1-0.189,0.119-0.313
	c0.019-0.125,0.031-0.299,0.041-0.525v-1.389c0-0.301-0.016-0.514-0.043-0.639C27.915,31.189,27.867,31.092,27.799,31.02z"/>
</svg>
