<?xml version="1.0" encoding="utf-8"?>
<!-- Generator: Adobe Illustrator 16.0.0, SVG Export Plug-In . SVG Version: 6.00 Build 0)  -->
<!DOCTYPE svg PUBLIC "-//W3C//DTD SVG 1.1//EN" "http://www.w3.org/Graphics/SVG/1.1/DTD/svg11.dtd">
<svg version="1.1" id="Layer_1" xmlns="http://www.w3.org/2000/svg" xmlns:xlink="http://www.w3.org/1999/xlink" x="0px" y="0px"
	 width="50px" height="50px" viewBox="0 0 50 50" enable-background="new 0 0 50 50" xml:space="preserve">
<path d="M18.108,20.724h2.464v10.625h-1.941v-8.91l-2.764,2.732l-1.162-1.23L18.108,20.724z M29.951,24.873
	c-0.522-0.576-1.453-0.864-2.787-0.864c-1.336,0-2.179,0.297-2.524,0.891h-0.027v-2.633h5.609v-1.543h-7.408v5.661h1.799
	c0.041-0.196,0.131-0.344,0.271-0.442c0.14-0.1,0.304-0.164,0.492-0.199c0.188-0.032,0.386-0.051,0.584-0.055
	c0.201-0.004,0.408-0.006,0.623-0.01c0.565,0.018,0.985,0.055,1.26,0.111c0.271,0.059,0.476,0.186,0.607,0.385
	c0.172,0.242,0.256,0.786,0.256,1.631c0,0.451-0.024,0.805-0.078,1.063c-0.051,0.258-0.151,0.446-0.305,0.569
	c-0.14,0.14-0.32,0.229-0.541,0.271c-0.226,0.043-0.554,0.076-0.988,0.101c-0.076-0.021-0.176-0.031-0.297-0.031
	c-0.481,0-0.832-0.02-1.054-0.059c-0.219-0.037-0.405-0.121-0.563-0.254c-0.256-0.199-0.385-0.587-0.385-1.164h-1.939
	c0.041,1.338,0.377,2.207,1.006,2.607c0.34,0.232,0.74,0.379,1.203,0.438c0.461,0.059,1.047,0.088,1.758,0.088
	c0.832,0,1.492-0.041,1.984-0.125c0.488-0.082,0.904-0.272,1.246-0.569c0.594-0.462,0.893-1.479,0.893-3.048
	c-0.02-0.654-0.069-1.209-0.158-1.66C30.401,25.576,30.224,25.19,29.951,24.873z M29.468,33.834H11.791v-18h2.224
	c0,0.828,0.672,1.5,1.5,1.5c0.827,0,1.5-0.672,1.5-1.5h2.407c0,0.828,0.673,1.5,1.5,1.5c0.828,0,1.5-0.672,1.5-1.5h2.406
	c0,0.828,0.672,1.5,1.5,1.5s1.5-0.672,1.5-1.5h2.407c0,0.828,0.673,1.5,1.5,1.5c0.828,0,1.5-0.672,1.5-1.5h2.224v11.358
	c0.166-0.012,0.331-0.024,0.5-0.024c0.886,0,1.729,0.179,2.5,0.5V14.334c0-0.828-0.672-1.5-1.5-1.5h-3.724v-0.25
	c0-0.828-0.672-1.5-1.5-1.5c-0.827,0-1.5,0.672-1.5,1.5v0.25h-2.407v-0.25c0-0.828-0.672-1.5-1.5-1.5s-1.5,0.672-1.5,1.5v0.25
	h-2.406v-0.25c0-0.828-0.672-1.5-1.5-1.5c-0.827,0-1.5,0.672-1.5,1.5v0.25h-2.407v-0.25c0-0.828-0.673-1.5-1.5-1.5
	c-0.828,0-1.5,0.672-1.5,1.5v0.25h-3.724c-0.828,0-1.5,0.672-1.5,1.5v21c0,0.828,0.672,1.5,1.5,1.5h19.994
	C29.786,35.942,29.495,34.922,29.468,33.834z M41.209,33.667c0,2.898-2.351,5.249-5.25,5.249s-5.25-2.351-5.25-5.249
	s2.351-5.249,5.25-5.249S41.209,30.769,41.209,33.667z M39.349,31.978c-0.293-0.291-0.766-0.291-1.059,0l-2.907,2.907l-1.586-1.586
	c-0.293-0.292-0.766-0.292-1.06,0c-0.291,0.292-0.291,0.767,0,1.058L35.383,37l3.966-3.965
	C39.642,32.742,39.642,32.271,39.349,31.978z"/>
</svg>
