<?xml version="1.0" encoding="utf-8"?>
<!-- Generator: Adobe Illustrator 16.0.0, SVG Export Plug-In . SVG Version: 6.00 Build 0)  -->
<!DOCTYPE svg PUBLIC "-//W3C//DTD SVG 1.1//EN" "http://www.w3.org/Graphics/SVG/1.1/DTD/svg11.dtd">
<svg version="1.1" id="Layer_1" xmlns="http://www.w3.org/2000/svg" xmlns:xlink="http://www.w3.org/1999/xlink" x="0px" y="0px"
	 width="50px" height="50px" viewBox="0 0 50 50" enable-background="new 0 0 50 50" xml:space="preserve">
<path d="M40.336,37.417v4.5H9.664v-4.501c0-2.125,1.832-4.741,4.07-5.803l4.98-2.367l3.457,7.204l1.77-4.798
	c0.349,0.066,0.695,0.154,1.059,0.154c0.364,0,0.709-0.088,1.059-0.154l1.68,4.563l3.388-7.048l5.14,2.445
	C38.504,32.674,40.336,35.29,40.336,37.417z M14.188,21.645v-3.25c0-0.551,0.287-1.034,0.72-1.312c0.581-5.058,4.883-9,10.094-9
	s9.513,3.942,10.095,9c0.432,0.278,0.719,0.761,0.719,1.312v3.25c0,0.863-0.699,1.563-1.563,1.563s-1.563-0.7-1.563-1.563v-0.683
	c-0.846,4.255-3.961,8.205-7.688,8.205s-6.842-3.95-7.688-8.205v0.683c0,0.7-0.465,1.286-1.1,1.485
	c0.622,2.117,2.002,3.946,3.908,5.147c0.352-0.117,0.796-0.094,1.227,0.129c0.692,0.361,1.045,1.06,0.783,1.56
	c-0.261,0.5-1.033,0.612-1.729,0.251c-0.508-0.265-0.83-0.71-0.864-1.126c-2.183-1.396-3.731-3.534-4.37-5.998
	C14.596,22.863,14.188,22.303,14.188,21.645z M15.973,16.718c0.047,0.003,0.092,0.004,0.137,0.021
	c0.113,0.042,0.195,0.123,0.252,0.218c0.339,0.144,0.609,0.407,0.775,0.733c0.461-4.321,3.801-6.607,7.863-6.607
	s7.402,2.286,7.863,6.607c0.229-0.449,0.664-0.77,1.185-0.837C33.372,12.46,29.578,9.082,25,9.082
	C20.469,9.083,16.705,12.392,15.973,16.718z"/>
</svg>
