<?xml version="1.0" encoding="utf-8"?>
<!-- Generator: Adobe Illustrator 16.0.0, SVG Export Plug-In . SVG Version: 6.00 Build 0)  -->
<!DOCTYPE svg PUBLIC "-//W3C//DTD SVG 1.1//EN" "http://www.w3.org/Graphics/SVG/1.1/DTD/svg11.dtd">
<svg version="1.1" id="Layer_1" xmlns="http://www.w3.org/2000/svg" xmlns:xlink="http://www.w3.org/1999/xlink" x="0px" y="0px"
	 width="50px" height="50px" viewBox="0 0 50 50" enable-background="new 0 0 50 50" xml:space="preserve">
<path d="M42.734,27.332c0,9.104-7.407,16.512-16.512,16.512c-9.078,0-16.466-7.365-16.509-16.434H7.266l3.67-5.505l3.668,5.505
	h-2.138c0.043,7.551,6.195,13.682,13.757,13.682c7.586,0,13.76-6.172,13.76-13.76c0-7.588-6.174-13.76-13.76-13.76
	c-0.761,0-1.377-0.616-1.377-1.376c0-0.76,0.616-1.376,1.377-1.376C35.327,10.819,42.734,18.228,42.734,27.332z M26.223,37.576
	c-5.647,0-10.244-4.596-10.244-10.244c0-0.254-0.205-0.459-0.459-0.459c-0.252,0-0.457,0.205-0.457,0.459
	c0,6.153,5.006,11.162,11.16,11.162s11.161-5.009,11.161-11.162c0-6.155-5.007-11.163-11.161-11.163
	c-0.254,0-0.459,0.206-0.459,0.459c0,0.254,0.205,0.459,0.459,0.459c5.648,0,10.244,4.596,10.244,10.245
	S31.871,37.576,26.223,37.576z M20.926,34.027c0.27,0.27,0.621,0.403,0.975,0.403c0.353,0,0.703-0.136,0.973-0.403l4.322-4.322
	c0.259-0.258,0.404-0.608,0.404-0.974v-7.784c0-0.76-0.617-1.376-1.377-1.376s-1.375,0.616-1.375,1.376v7.214l-3.922,3.92
	C20.389,32.619,20.389,33.49,20.926,34.027z M22.838,14.295c0.63,0.532,0.947,1.508,0.947,2.924c0,1.526-0.344,2.597-1.039,3.211
	c-0.688,0.614-1.898,0.925-3.625,0.925l-0.502,0.01v1.615h-1.643v-1.615l-0.465-0.01c-1.719,0-2.928-0.296-3.626-0.885
	c-0.696-0.589-1.049-1.611-1.049-3.068l0.013-0.492h2.438v0.253c0,0.887,0.141,1.46,0.421,1.719
	c0.284,0.255,0.924,0.385,1.906,0.385l0.361,0.012v-3.912c-1.922,0-3.231-0.28-3.938-0.835c-0.697-0.553-1.051-1.594-1.051-3.119
	c0-1.479,0.354-2.491,1.057-3.036c0.707-0.543,2.016-0.818,3.932-0.818V6.157h1.642V7.56c1.825,0,3.077,0.261,3.745,0.782
	c0.676,0.524,1.012,1.493,1.012,2.912v0.33h-2.357l-0.008-0.26c0-1.071-0.671-1.605-2.007-1.605h-0.385v3.612l0.542,0.018
	C20.975,13.446,22.201,13.763,22.838,14.295z M16.979,9.706l-0.354,0.011c-1.444,0-2.165,0.571-2.165,1.715
	c0,1.199,0.715,1.796,2.157,1.796c0.015,0,0.132,0.009,0.36,0.021V9.706H16.979z M21.316,17.262c0-0.738-0.172-1.222-0.521-1.456
	c-0.348-0.233-1.073-0.35-2.178-0.35v3.822h0.354C20.534,19.277,21.316,18.605,21.316,17.262z"/>
</svg>
