<?xml version="1.0" encoding="utf-8"?>
<!-- Generator: Adobe Illustrator 16.0.0, SVG Export Plug-In . SVG Version: 6.00 Build 0)  -->
<!DOCTYPE svg PUBLIC "-//W3C//DTD SVG 1.1//EN" "http://www.w3.org/Graphics/SVG/1.1/DTD/svg11.dtd">
<svg version="1.1" id="Layer_1" xmlns="http://www.w3.org/2000/svg" xmlns:xlink="http://www.w3.org/1999/xlink" x="0px" y="0px"
	 width="50px" height="50px" viewBox="0 0 50 50" enable-background="new 0 0 50 50" xml:space="preserve">
<path d="M37.001,33.189c-1.503,0-2.854,0.629-3.819,1.633l-2.231-2.23c2.253-1.77,3.708-4.512,3.708-7.591
	c0-2.729-1.143-5.189-2.967-6.947l2.234-2.233c0.869,0.618,1.926,0.991,3.074,0.991c2.934,0,5.313-2.377,5.313-5.311
	S39.934,6.19,37,6.19s-5.313,2.377-5.313,5.311c0,1.424,0.567,2.709,1.479,3.662l-2.233,2.234c-1.64-1.281-3.697-2.054-5.934-2.054
	c-2.286,0-4.385,0.802-6.041,2.133l-2.213-2.213c0.966-0.961,1.565-2.291,1.565-3.764c0-2.934-2.378-5.312-5.312-5.312
	S7.687,8.566,7.687,11.5s2.378,5.311,5.312,5.311c1.101,0,2.124-0.334,2.972-0.907l2.239,2.238
	c-1.769,1.751-2.868,4.179-2.868,6.858c0,3.032,1.408,5.739,3.602,7.51l-2.214,2.215c-0.959-0.949-2.275-1.535-3.73-1.535
	c-2.934,0-5.312,2.377-5.312,5.311s2.378,5.311,5.312,5.311s5.312-2.377,5.312-5.311c0-1.117-0.348-2.15-0.937-3.006l2.354-2.354
	l-0.17-0.17c1.551,1.063,3.424,1.686,5.441,1.686c1.881,0,3.632-0.549,5.117-1.482l2.436,2.438c-0.542,0.832-0.863,1.82-0.863,2.891
	c0,2.934,2.377,5.311,5.312,5.311s5.312-2.377,5.312-5.311S39.936,33.189,37.001,33.189z M37.001,8.221
	c0.957,0,1.731,0.578,1.731,1.67c0,1.093-0.774,2.283-1.731,2.283s-1.731-1.19-1.731-2.283C35.27,8.799,36.044,8.221,37.001,8.221z
	 M33.648,13.975c0-0.463,0.399-1.034,0.891-1.268l1.089-0.518l0.756,1.575l0.386-1.049c0.076,0.015,0.152,0.033,0.231,0.033
	s0.153-0.021,0.231-0.033l0.367,0.996l0.739-1.539l1.123,0.533c0.49,0.231,0.892,0.805,0.892,1.27v0.804h-6.705V13.975z
	 M13.001,8.221c0.957,0,1.731,0.578,1.731,1.67c0,1.093-0.774,2.283-1.731,2.283s-1.731-1.19-1.731-2.283
	C11.27,8.799,12.044,8.221,13.001,8.221z M16.354,14.78H9.649v-0.806c0-0.463,0.4-1.034,0.891-1.268l1.089-0.519l0.756,1.576
	l0.386-1.049c0.076,0.014,0.152,0.033,0.231,0.033s0.154-0.021,0.231-0.033l0.367,0.996l0.74-1.539l1.123,0.533
	c0.49,0.231,0.891,0.805,0.891,1.27V14.78z M13.001,35.221c0.957,0,1.731,0.578,1.731,1.67c0,1.094-0.774,2.283-1.731,2.283
	s-1.731-1.189-1.731-2.283C11.27,35.799,12.044,35.221,13.001,35.221z M16.354,41.779H9.649v-0.805c0-0.463,0.4-1.035,0.891-1.268
	l1.089-0.52l0.756,1.576l0.386-1.049c0.076,0.014,0.152,0.033,0.231,0.033s0.154-0.02,0.231-0.033l0.367,0.996l0.74-1.539
	l1.123,0.533c0.49,0.232,0.891,0.805,0.891,1.27V41.779z M23.393,16.79c-1.392,1.16-2.452,2.615-3.106,4.24h-2.65
	C18.807,18.866,20.904,17.276,23.393,16.79z M16.632,25c0-0.939,0.162-1.84,0.448-2.682h2.783c-0.219,0.848-0.335,1.729-0.335,2.627
	c0,0.824,0.102,1.632,0.286,2.416h-2.838C16.755,26.611,16.632,25.82,16.632,25z M17.48,28.648h2.727
	c0.669,1.773,1.812,3.357,3.342,4.586C20.872,32.764,18.636,31.02,17.48,28.648z M24.357,32.213
	c-1.211-0.973-2.145-2.193-2.748-3.563h2.748V32.213z M24.357,27.361h-3.211c-0.212-0.779-0.33-1.588-0.33-2.416
	c0-0.904,0.146-1.783,0.398-2.627h3.143V27.361z M24.357,21.03h-2.648c0.604-1.283,1.501-2.429,2.648-3.353V21.03z M33.37,25
	c0,0.82-0.123,1.611-0.345,2.361h-2.838c0.185-0.783,0.285-1.592,0.285-2.416c0-0.898-0.115-1.779-0.334-2.627h2.782
	C33.208,23.161,33.37,24.061,33.37,25z M32.366,21.03h-2.65c-0.653-1.625-1.715-3.08-3.106-4.24
	C29.098,17.276,31.195,18.866,32.366,21.03z M25.645,17.678c1.147,0.924,2.045,2.068,2.648,3.353h-2.648V17.678z M25.645,22.319
	h3.144c0.252,0.844,0.397,1.723,0.397,2.627c0,0.828-0.117,1.636-0.33,2.416h-3.211V22.319z M25.645,28.648h2.748
	c-0.604,1.371-1.537,2.592-2.748,3.564V28.648z M29.795,28.648h2.727c-1.154,2.371-3.392,4.115-6.067,4.586
	C27.982,32.006,29.126,30.422,29.795,28.648z M37.001,35.221c0.957,0,1.731,0.578,1.731,1.67c0,1.094-0.774,2.283-1.731,2.283
	s-1.731-1.189-1.731-2.283C35.27,35.799,36.044,35.221,37.001,35.221z M40.354,41.779h-6.705v-0.805c0-0.463,0.4-1.035,0.892-1.268
	l1.089-0.52l0.756,1.576l0.387-1.049c0.076,0.014,0.151,0.033,0.23,0.033s0.154-0.02,0.23-0.033l0.367,0.996l0.74-1.539l1.123,0.533
	c0.49,0.232,0.891,0.805,0.891,1.27V41.779z"/>
</svg>
