<?xml version="1.0" encoding="utf-8"?>
<!-- Generator: Adobe Illustrator 16.0.4, SVG Export Plug-In . SVG Version: 6.00 Build 0)  -->
<!DOCTYPE svg PUBLIC "-//W3C//DTD SVG 1.1//EN" "http://www.w3.org/Graphics/SVG/1.1/DTD/svg11.dtd">
<svg version="1.1" id="Layer_1" xmlns="http://www.w3.org/2000/svg" xmlns:xlink="http://www.w3.org/1999/xlink" x="0px" y="0px"
	 width="50px" height="50px" viewBox="0 0 50 50" enable-background="new 0 0 50 50" xml:space="preserve">
<path d="M35.667,24.974h0.87v3.989H35.63l-0.544-1.812v1.812H34.22v-3.989h0.866l0.581,1.795V24.974z M21.915,27.285h0.648v-0.757
	h-0.648v-0.757h0.691v-0.799h-1.729v3.986h1.797v-0.798h-0.76V27.285z M30.875,24.974H29.84v3.989h1.667v-0.8h-0.632V24.974z
	 M25.272,24.974l0.594,3.989h-1.06l-0.055-0.716h-0.373l-0.062,0.716h-1.072l0.528-3.989H25.272z M24.723,27.537
	c-0.05-0.451-0.106-1.009-0.16-1.671c-0.106,0.76-0.171,1.318-0.198,1.671H24.723z M28.913,25.623
	c0.021,0.128,0.033,0.385,0.033,0.761v1.396c0,0.359-0.017,0.596-0.046,0.719c-0.034,0.122-0.096,0.216-0.178,0.283
	c-0.082,0.07-0.184,0.114-0.312,0.143c-0.121,0.027-0.309,0.041-0.553,0.041h-1.312v-3.988h0.776c0.501,0,0.841,0.023,1.017,0.069
	c0.176,0.046,0.312,0.122,0.404,0.227C28.835,25.376,28.891,25.49,28.913,25.623z M27.909,26.152c0-0.18-0.007-0.298-0.017-0.346
	c-0.014-0.052-0.036-0.09-0.081-0.112c-0.041-0.024-0.116-0.036-0.231-0.036v2.625c0.148,0,0.243-0.03,0.274-0.093
	c0.034-0.057,0.051-0.22,0.051-0.489v-1.549H27.909z M19.954,25.623c0.022,0.128,0.035,0.385,0.035,0.761v1.396
	c0,0.359-0.021,0.596-0.053,0.719c-0.035,0.122-0.092,0.216-0.175,0.283c-0.085,0.07-0.186,0.114-0.312,0.143
	c-0.122,0.027-0.31,0.041-0.555,0.041h-1.308v-3.988h0.776c0.5,0,0.837,0.023,1.016,0.07c0.174,0.044,0.31,0.122,0.401,0.226
	C19.873,25.376,19.926,25.49,19.954,25.623z M18.948,26.152c0-0.18-0.003-0.298-0.016-0.346c-0.014-0.052-0.035-0.09-0.082-0.112
	c-0.04-0.024-0.116-0.036-0.231-0.036v2.625c0.151,0,0.244-0.03,0.276-0.093c0.035-0.057,0.052-0.22,0.052-0.489v-1.549H18.948z
	 M26.642,49.997v-6.043h-7.2c-7.794,0-8.333-12.368-8.333-12.368s-5.395,0.607-5.564-1.596C5.153,24.876,9.38,19.792,9.38,19.792
	c-0.106-3.863-0.151-8.926-0.106-11.824c0.079-5.178,6.9-7.738,9.146-7.831c7.328-0.304,25.929,0,25.929,0L44.481,50L26.642,49.997
	L26.642,49.997z M41.474,30.466v-6.998h-2.328c0.317-1.028,0.489-2.118,0.489-3.249c0-6.185-5.029-11.215-11.216-11.215
	c-6.185,0-11.214,5.03-11.214,11.215c0,1.131,0.173,2.22,0.489,3.249h-2.326v6.998H41.474z M38.491,27.285h0.648v-0.757h-0.648
	v-0.757h0.692v-0.799h-1.727v3.986h1.796v-0.798h-0.762V27.285L38.491,27.285z M37.791,20.222c0,1.143-0.213,2.238-0.592,3.249
	h-17.56c-0.38-1.011-0.592-2.106-0.592-3.249c0-5.169,4.204-9.372,9.371-9.372C33.586,10.85,37.791,15.053,37.791,20.222z
	 M27.815,13.777c1.059,0.035,2.054,0.304,2.94,0.763l1.117-1.938c-1.068-0.462-2.249-0.722-3.484-0.722
	c-0.194,0-0.385,0.017-0.573,0.03V13.777z M21.444,17.47l-1.003-0.581c-0.503,1.046-0.803,2.201-0.854,3.425h1.078
	C20.72,19.291,20.993,18.33,21.444,17.47z M23.835,14.868l-0.711-1.232c-0.983,0.734-1.81,1.664-2.417,2.736l1.034,0.597
	C22.278,16.125,22.995,15.407,23.835,14.868z M24.336,14.568c0.873-0.46,1.853-0.736,2.895-0.788v-1.819
	c-1.324,0.175-2.557,0.639-3.629,1.333L24.336,14.568z M32.893,17.597l-0.232-0.375l-4.978,2.95
	c-0.092-0.043-0.188-0.074-0.298-0.074c-0.372,0-0.671,0.301-0.671,0.672c0,0.372,0.302,0.672,0.671,0.672
	c0.366,0,0.662-0.292,0.669-0.653L32.893,17.597z M33.435,17l2.221-1.283c-0.825-1.206-1.945-2.189-3.255-2.861l-1.143,1.976
	C32.138,15.38,32.88,16.122,33.435,17z M37.192,20.492c-0.034-1.562-0.481-3.023-1.227-4.285L33.727,17.5
	c0.47,0.9,0.744,1.915,0.775,2.992H37.192z M32.259,28.963h1.038v-3.989h-1.038V28.963z"/>
</svg>
