<?xml version="1.0" encoding="utf-8"?>
<!-- Generator: Adobe Illustrator 16.0.0, SVG Export Plug-In . SVG Version: 6.00 Build 0)  -->
<!DOCTYPE svg PUBLIC "-//W3C//DTD SVG 1.1//EN" "http://www.w3.org/Graphics/SVG/1.1/DTD/svg11.dtd">
<svg version="1.1" id="Layer_1" xmlns="http://www.w3.org/2000/svg" xmlns:xlink="http://www.w3.org/1999/xlink" x="0px" y="0px"
	 width="50px" height="50px" viewBox="0 0 50 50" enable-background="new 0 0 50 50" xml:space="preserve">
<path d="M29.011,16.032V7.189h12.536l4.043,4.421l-4.043,4.421H29.011z M8.326,19.316l-4.042,4.421l4.042,4.421h12.55v-8.842H8.326z
	 M45.716,19.316H29.011h-1.592H27.4v-3.284h0.019V7.189H27.4V1h-4.927v6.189h-0.006h-0.177h-1.415H4.284l2.905,4.421l-2.905,4.421
	h16.592h1.415h0.177h0.006v3.284h-0.006v8.842h0.006V49H27.4V28.158h0.019h1.592H45.59l-2.779-4.421L45.716,19.316z"/>
</svg>
