<?xml version="1.0" encoding="utf-8"?>
<!-- Generator: Adobe Illustrator 16.0.0, SVG Export Plug-In . SVG Version: 6.00 Build 0)  -->
<!DOCTYPE svg PUBLIC "-//W3C//DTD SVG 1.1//EN" "http://www.w3.org/Graphics/SVG/1.1/DTD/svg11.dtd">
<svg version="1.1" id="Layer_1" xmlns="http://www.w3.org/2000/svg" xmlns:xlink="http://www.w3.org/1999/xlink" x="0px" y="0px"
	 width="50px" height="50px" viewBox="0 0 50 50" enable-background="new 0 0 50 50" xml:space="preserve">
<path d="M23.51,25.503c0.279-0.009,0.49-0.019,0.633-0.024v4.147c-0.658-0.031-1.195-0.078-1.608-0.142
	c-0.416-0.064-0.729-0.197-0.941-0.4c-0.331-0.331-0.495-0.8-0.495-1.408c0-1.01,0.213-1.618,0.643-1.828
	c0.168-0.089,0.344-0.155,0.527-0.202s0.366-0.081,0.551-0.1C22.998,25.527,23.229,25.514,23.51,25.503z M19.078,17.593h11.845
	c0.71,0,1.287-0.577,1.287-1.288c0-0.711-0.577-1.288-1.287-1.288H19.078c-0.711,0-1.288,0.577-1.288,1.288
	C17.79,17.017,18.367,17.593,19.078,17.593z M19.436,14.369H30.57c0.365-0.409,0.611-1.093,0.683-1.665
	c0.158-1.277,1.147-4.566,0-5.148c-1.037-0.525-2.591,2.839-3.75,2.75c-0.881-0.067-1.616-2.5-2.5-2.5
	c-0.928,0-1.698,2.572-2.625,2.625c-1.153,0.066-2.584-3.378-3.625-2.875c-1.159,0.56-0.159,3.871,0,5.148
	C18.822,13.275,19.068,13.959,19.436,14.369z M27.732,32.25c-0.408-0.089-1.053-0.143-1.931-0.159v4.339
	c1.188,0,1.996-0.124,2.425-0.37c0.198-0.153,0.369-0.341,0.512-0.563c0.141-0.224,0.213-0.617,0.213-1.181
	c0-0.672-0.102-1.162-0.301-1.471C28.447,32.539,28.145,32.34,27.732,32.25z M37.891,41.943c-0.664,0.71-1.795,0.731-2.523,0.052
	c-0.066-0.062-0.122-0.131-0.178-0.2H14.801c-0.031,0.04-0.057,0.083-0.092,0.12c-0.68,0.73-1.807,0.784-2.516,0.12
	c-0.711-0.664-0.732-1.794-0.053-2.524c0.154-0.166,0.334-0.292,0.524-0.388V23.932c0-1.1,0.765-2.475,1.698-3.056l4.275-2.659
	c0.125,0.013,0.25,0.027,0.379,0.027h11.961c0.131,0,0.254-0.015,0.379-0.027l4.276,2.659c0.935,0.581,1.698,1.956,1.698,3.056
	v15.203c0.154,0.077,0.304,0.17,0.438,0.293C38.5,40.107,38.555,41.233,37.891,41.943z M31.791,34.228
	c0-1.62-0.338-2.768-1.014-3.442c-0.473-0.418-1.084-0.701-1.84-0.848c-0.754-0.147-1.799-0.25-3.136-0.312v-4.147
	c0.121,0.013,0.365,0.021,0.734,0.027c0.366,0.005,0.668,0.025,0.899,0.062c0.232,0.036,0.453,0.116,0.662,0.24
	c0.203,0.125,0.348,0.323,0.432,0.597c0.089,0.271,0.132,0.683,0.132,1.228h2.592c0-1.004-0.106-1.805-0.315-2.4
	c-0.213-0.597-0.533-1.045-0.965-1.347c-0.433-0.302-0.966-0.507-1.601-0.617c-0.636-0.11-1.49-0.182-2.57-0.215v-1.488h-1.659
	v1.488c-1.242,0-2.267,0.079-3.072,0.238c-0.807,0.159-1.461,0.543-1.965,1.154c-0.539,0.665-0.81,1.743-0.81,3.233
	c0,1.145,0.19,2.008,0.576,2.592c0.246,0.367,0.551,0.661,0.91,0.878c0.36,0.217,0.764,0.382,1.204,0.493
	c0.443,0.11,0.951,0.199,1.527,0.266c0.574,0.065,1.117,0.127,1.627,0.185v4.338c-0.555,0-1.121-0.026-1.701-0.08
	c-0.395-0.045-0.705-0.137-0.928-0.277c-0.227-0.14-0.406-0.374-0.545-0.702c-0.111-0.274-0.168-0.84-0.168-1.699h-2.592
	c0,1.07,0.074,1.905,0.221,2.505c0.148,0.602,0.482,1.125,1.006,1.574c0.508,0.433,1.152,0.725,1.928,0.875
	c0.777,0.151,1.703,0.229,2.779,0.229v1.614h1.66v-1.614c1.795,0,3.184-0.243,4.166-0.729C31.146,37.55,31.752,36.251,31.791,34.228
	z"/>
</svg>
