<?xml version="1.0" encoding="utf-8"?>
<!-- Generator: Adobe Illustrator 16.0.0, SVG Export Plug-In . SVG Version: 6.00 Build 0)  -->
<!DOCTYPE svg PUBLIC "-//W3C//DTD SVG 1.1//EN" "http://www.w3.org/Graphics/SVG/1.1/DTD/svg11.dtd">
<svg version="1.1" id="Layer_1" xmlns="http://www.w3.org/2000/svg" xmlns:xlink="http://www.w3.org/1999/xlink" x="0px" y="0px"
	 width="50px" height="50px" viewBox="0 0 50 50" enable-background="new 0 0 50 50" xml:space="preserve">
<g>
	<g>
		<path d="M25,22.9l-4-2.6l-9.7,9.2c0.2,0.6,0.9,1,1.5,1h24.1c0.8,0,1.3-0.4,1.5-1L29,20.2L25,22.9z"/>
		<path d="M25,21.6l13.3-8.9l0.2-0.4c-0.2-0.5-0.9-0.9-1.5-0.9H12.9c-0.6,0-1.3,0.4-1.5,1l0.2,0.4L25,21.6z"/>
		<polygon points="11.3,13.8 11.3,28 20.1,19.6 		"/>
		<polygon points="38.7,28 38.7,13.8 29.9,19.6 		"/>
	</g>
	<path d="M18.7,9"/>
	<path d="M42.6,4.7H7.7C4,4.7,1,7.7,1,11.4v21.7c0,3.6,3,6.7,6.7,6.7h9.5v1.8h-3.5c-1,0-1.9,0.9-1.9,1.9s0.9,1.9,1.9,1.9h22.6
		c1,0,1.9-0.9,1.9-1.9s-0.9-1.9-1.9-1.9h-3.5v-1.8h9.5c3.6,0,6.7-3,6.7-6.7V11.4C49,7.7,46.1,4.7,42.6,4.7z M45.9,26.1v4.3
		c0,1.8-1.4,3.4-3.4,3.5h-4H27.5h-0.1h-4.8h-0.2H11.4l-3.9,0c-1.9,0-3.4-1.5-3.5-3.3V11.4c0-2,1.6-3.5,3.5-3.5h34.8
		c2,0,3.5,1.6,3.5,3.5V26.1z"/>
</g>
</svg>
