<?xml version="1.0" encoding="utf-8"?>
<!-- Generator: Adobe Illustrator 16.0.0, SVG Export Plug-In . SVG Version: 6.00 Build 0)  -->
<!DOCTYPE svg PUBLIC "-//W3C//DTD SVG 1.1//EN" "http://www.w3.org/Graphics/SVG/1.1/DTD/svg11.dtd">
<svg version="1.1" id="Layer_1" xmlns="http://www.w3.org/2000/svg" xmlns:xlink="http://www.w3.org/1999/xlink" x="0px" y="0px"
	 width="50px" height="50px" viewBox="0 0 50 50" enable-background="new 0 0 50 50" xml:space="preserve">
<path d="M36.02,25c0,0,2.634-6.938,8.98-8.628C43.938,16.137,42.881,16,41.854,16c-5.182,0-8.46,3.404-10.221,6.025
	c-2.111-1.476-4.891-3.194-7.844-4.42c0.856-0.517,1.801-0.953,2.858-1.233C25.584,16.136,24.528,16,23.5,16
	c-1.142,0-2.184,0.176-3.146,0.462C19.167,16.172,17.983,16,16.833,16C8.412,16,5,25,5,25s3.411,9,11.833,9
	c1.15,0,2.334-0.172,3.521-0.462C21.315,33.824,22.357,34,23.5,34c1.029,0,2.085-0.137,3.146-0.372
	c-1.057-0.28-2.002-0.718-2.858-1.233c2.954-1.226,5.732-2.944,7.844-4.42C33.394,30.596,36.672,34,41.854,34
	c1.029,0,2.085-0.137,3.146-0.372C38.653,31.938,36.02,25,36.02,25z M11.417,25.001c-1.059,0-1.917-0.858-1.917-1.917
	s0.858-1.917,1.917-1.917s1.917,0.858,1.917,1.917S12.476,25.001,11.417,25.001z"/>
</svg>
