<?xml version="1.0" encoding="utf-8"?>
<!-- Generator: Adobe Illustrator 16.0.0, SVG Export Plug-In . SVG Version: 6.00 Build 0)  -->
<!DOCTYPE svg PUBLIC "-//W3C//DTD SVG 1.1//EN" "http://www.w3.org/Graphics/SVG/1.1/DTD/svg11.dtd">
<svg version="1.1" id="Layer_1" xmlns="http://www.w3.org/2000/svg" xmlns:xlink="http://www.w3.org/1999/xlink" x="0px" y="0px"
	 width="50px" height="50px" viewBox="0 0 50 50" enable-background="new 0 0 50 50" xml:space="preserve">
<path d="M26.848,37.447c0,0,0.479-1.614,1.631-2.008c-0.193-0.056-0.386-0.088-0.571-0.088c-0.941,0-1.537,0.791-1.854,1.402
	c-0.385-0.343-0.889-0.744-1.425-1.027c0.154-0.121,0.326-0.224,0.519-0.287c-0.191-0.056-0.385-0.088-0.57-0.088
	c-0.208,0-0.396,0.041-0.57,0.108c-0.217-0.069-0.432-0.108-0.641-0.108c-1.527,0-2.146,2.096-2.146,2.096s0.619,2.093,2.146,2.093
	c0.209,0,0.424-0.04,0.641-0.106c0.174,0.065,0.362,0.106,0.57,0.106c0.186,0,0.379-0.03,0.57-0.087
	c-0.191-0.064-0.363-0.167-0.519-0.287c0.536-0.284,1.04-0.686,1.425-1.028c0.317,0.611,0.913,1.402,1.854,1.402
	c0.187,0,0.378-0.03,0.571-0.087C27.325,39.063,26.848,37.447,26.848,37.447z M22.381,37.447c-0.191,0-0.348-0.2-0.348-0.446
	s0.154-0.446,0.348-0.446s0.348,0.2,0.348,0.446S22.573,37.447,22.381,37.447z M18.672,31.225c0,0,0.479-1.615,1.631-2.009
	c-0.193-0.055-0.385-0.087-0.572-0.087c-0.939,0-1.535,0.792-1.854,1.403c-0.383-0.345-0.888-0.744-1.424-1.029
	c0.155-0.12,0.325-0.222,0.521-0.287c-0.193-0.055-0.386-0.087-0.572-0.087c-0.207,0-0.396,0.041-0.57,0.107
	c-0.216-0.067-0.432-0.107-0.641-0.107c-1.527,0-2.146,2.096-2.146,2.096s0.619,2.094,2.146,2.094c0.209,0,0.425-0.041,0.641-0.106
	c0.174,0.063,0.363,0.106,0.57,0.106c0.188,0,0.379-0.031,0.572-0.088c-0.193-0.064-0.365-0.166-0.521-0.287
	c0.536-0.284,1.041-0.686,1.424-1.028c0.319,0.61,0.915,1.403,1.854,1.403c0.188,0,0.379-0.031,0.572-0.088
	C19.148,32.838,18.672,31.225,18.672,31.225z M14.205,31.225c-0.191,0-0.348-0.199-0.348-0.445s0.156-0.447,0.348-0.447
	c0.193,0,0.35,0.201,0.35,0.447S14.398,31.225,14.205,31.225z M26.848,31.225c0,0,0.479-1.615,1.631-2.009
	c-0.193-0.055-0.386-0.087-0.571-0.087c-0.941,0-1.537,0.792-1.854,1.403c-0.385-0.345-0.889-0.744-1.425-1.029
	c0.154-0.12,0.326-0.222,0.519-0.287c-0.191-0.055-0.385-0.087-0.57-0.087c-0.208,0-0.396,0.041-0.57,0.107
	c-0.217-0.067-0.432-0.107-0.641-0.107c-1.527,0-2.146,2.096-2.146,2.096s0.619,2.094,2.146,2.094c0.209,0,0.424-0.041,0.641-0.106
	c0.174,0.063,0.362,0.106,0.57,0.106c0.186,0,0.379-0.031,0.57-0.088c-0.191-0.064-0.363-0.166-0.519-0.287
	c0.536-0.284,1.04-0.686,1.425-1.028c0.317,0.61,0.913,1.403,1.854,1.403c0.187,0,0.378-0.031,0.571-0.088
	C27.325,32.838,26.848,31.225,26.848,31.225z M22.381,31.225c-0.191,0-0.348-0.199-0.348-0.445s0.154-0.447,0.348-0.447
	s0.348,0.201,0.348,0.447S22.573,31.225,22.381,31.225z M35.021,31.225c0,0,0.479-1.615,1.631-2.009
	c-0.193-0.055-0.385-0.087-0.572-0.087c-0.939,0-1.535,0.792-1.854,1.403c-0.385-0.345-0.889-0.744-1.426-1.029
	c0.156-0.12,0.328-0.222,0.52-0.287c-0.191-0.055-0.385-0.087-0.57-0.087c-0.207,0-0.396,0.041-0.57,0.107
	c-0.216-0.067-0.431-0.107-0.64-0.107c-1.528,0-2.147,2.096-2.147,2.096s0.619,2.094,2.147,2.094c0.209,0,0.424-0.041,0.64-0.106
	c0.176,0.063,0.363,0.106,0.57,0.106c0.188,0,0.379-0.031,0.57-0.088c-0.19-0.064-0.362-0.166-0.52-0.287
	c0.537-0.284,1.041-0.686,1.426-1.028c0.318,0.61,0.914,1.403,1.854,1.403c0.188,0,0.379-0.031,0.572-0.088
	C35.5,32.838,35.021,31.225,35.021,31.225z M30.557,31.225c-0.192,0-0.348-0.199-0.348-0.445s0.154-0.447,0.348-0.447
	c0.192,0,0.348,0.201,0.348,0.447S30.749,31.225,30.557,31.225z M18.672,25.002c0,0,0.479-1.615,1.631-2.009
	c-0.193-0.056-0.385-0.087-0.572-0.087c-0.939,0-1.535,0.791-1.854,1.402c-0.383-0.344-0.888-0.744-1.424-1.029
	c0.155-0.119,0.325-0.223,0.521-0.286c-0.193-0.056-0.386-0.087-0.572-0.087c-0.207,0-0.396,0.041-0.57,0.106
	c-0.216-0.067-0.432-0.106-0.641-0.106c-1.527,0-2.146,2.096-2.146,2.096s0.619,2.092,2.146,2.092c0.209,0,0.425-0.04,0.641-0.105
	c0.174,0.064,0.363,0.105,0.57,0.105c0.188,0,0.379-0.029,0.572-0.087c-0.193-0.063-0.365-0.167-0.521-0.287
	c0.536-0.284,1.041-0.686,1.424-1.028c0.319,0.611,0.915,1.402,1.854,1.402c0.188,0,0.379-0.029,0.572-0.087
	C19.148,26.615,18.672,25.002,18.672,25.002z M14.205,25.002c-0.191,0-0.348-0.201-0.348-0.447s0.156-0.445,0.348-0.445
	c0.193,0,0.35,0.199,0.35,0.445S14.398,25.002,14.205,25.002z M10.477,25.002c0,0,0.479-1.615,1.631-2.009
	c-0.19-0.056-0.383-0.087-0.569-0.087c-0.94,0-1.537,0.791-1.854,1.402c-0.385-0.344-0.89-0.744-1.425-1.029
	c0.154-0.119,0.326-0.223,0.519-0.286c-0.191-0.056-0.383-0.087-0.571-0.087c-0.206,0-0.396,0.041-0.569,0.106
	c-0.217-0.067-0.432-0.106-0.641-0.106c-1.527,0-2.146,2.096-2.146,2.096s0.619,2.092,2.146,2.092c0.209,0,0.424-0.04,0.641-0.105
	C7.811,27.053,8,27.094,8.206,27.094c0.188,0,0.38-0.029,0.571-0.087c-0.191-0.063-0.363-0.167-0.519-0.287
	c0.535-0.284,1.04-0.686,1.425-1.028c0.317,0.611,0.914,1.402,1.854,1.402c0.187,0,0.379-0.029,0.569-0.087
	C10.955,26.615,10.477,25.002,10.477,25.002z M6.012,25.002c-0.193,0-0.348-0.201-0.348-0.447s0.154-0.445,0.348-0.445
	c0.192,0,0.348,0.199,0.348,0.445S6.204,25.002,6.012,25.002z M26.848,25.002c0,0,0.479-1.615,1.631-2.009
	c-0.193-0.056-0.386-0.087-0.571-0.087c-0.941,0-1.537,0.791-1.854,1.402c-0.385-0.344-0.889-0.744-1.425-1.029
	c0.154-0.119,0.326-0.223,0.519-0.286c-0.191-0.056-0.385-0.087-0.57-0.087c-0.208,0-0.396,0.041-0.57,0.106
	c-0.217-0.067-0.432-0.106-0.641-0.106c-1.527,0-2.146,2.096-2.146,2.096s0.619,2.092,2.146,2.092c0.209,0,0.424-0.04,0.641-0.105
	c0.174,0.064,0.362,0.105,0.57,0.105c0.186,0,0.379-0.029,0.57-0.087c-0.191-0.063-0.363-0.167-0.519-0.287
	c0.536-0.284,1.04-0.686,1.425-1.028c0.317,0.611,0.913,1.402,1.854,1.402c0.187,0,0.378-0.029,0.571-0.087
	C27.325,26.615,26.848,25.002,26.848,25.002z M22.381,25.002c-0.191,0-0.348-0.201-0.348-0.447s0.154-0.445,0.348-0.445
	s0.348,0.199,0.348,0.445S22.573,25.002,22.381,25.002z M35.021,25.002c0,0,0.479-1.615,1.631-2.009
	c-0.193-0.056-0.385-0.087-0.572-0.087c-0.939,0-1.535,0.791-1.854,1.402c-0.385-0.344-0.889-0.744-1.426-1.029
	c0.156-0.119,0.328-0.223,0.52-0.286c-0.191-0.056-0.385-0.087-0.57-0.087c-0.207,0-0.396,0.041-0.57,0.106
	c-0.216-0.067-0.431-0.106-0.64-0.106c-1.528,0-2.147,2.096-2.147,2.096s0.619,2.092,2.147,2.092c0.209,0,0.424-0.04,0.64-0.105
	c0.176,0.064,0.363,0.105,0.57,0.105c0.188,0,0.379-0.029,0.57-0.087c-0.19-0.063-0.362-0.167-0.52-0.287
	c0.537-0.284,1.041-0.686,1.426-1.028c0.318,0.611,0.914,1.402,1.854,1.402c0.188,0,0.379-0.029,0.572-0.087
	C35.5,26.615,35.021,25.002,35.021,25.002z M30.557,25.002c-0.192,0-0.348-0.201-0.348-0.447s0.154-0.445,0.348-0.445
	c0.192,0,0.348,0.199,0.348,0.445S30.749,25.002,30.557,25.002z M43.52,25.002c0,0,0.479-1.615,1.631-2.009
	c-0.192-0.056-0.385-0.087-0.571-0.087c-0.94,0-1.535,0.791-1.854,1.402c-0.384-0.344-0.888-0.744-1.425-1.029
	c0.156-0.119,0.327-0.223,0.521-0.286c-0.193-0.056-0.385-0.087-0.572-0.087c-0.207,0-0.396,0.041-0.568,0.106
	c-0.217-0.067-0.433-0.106-0.641-0.106c-1.529,0-2.148,2.096-2.148,2.096s0.619,2.092,2.148,2.092c0.208,0,0.424-0.04,0.641-0.105
	c0.174,0.064,0.361,0.105,0.568,0.105c0.188,0,0.379-0.029,0.572-0.087c-0.192-0.063-0.363-0.167-0.521-0.287
	c0.537-0.284,1.041-0.686,1.425-1.028c0.319,0.611,0.914,1.402,1.854,1.402c0.188,0,0.379-0.029,0.571-0.087
	C43.998,26.615,43.52,25.002,43.52,25.002z M39.055,25.002c-0.193,0-0.349-0.201-0.349-0.447s0.155-0.445,0.349-0.445
	c0.191,0,0.348,0.199,0.348,0.445S39.246,25.002,39.055,25.002z M18.672,18.777c0,0,0.479-1.614,1.631-2.008
	c-0.193-0.056-0.385-0.088-0.572-0.088c-0.939,0-1.535,0.793-1.854,1.403c-0.383-0.344-0.888-0.744-1.424-1.028
	c0.155-0.121,0.325-0.223,0.521-0.287c-0.193-0.056-0.386-0.088-0.572-0.088c-0.207,0-0.396,0.043-0.57,0.108
	c-0.216-0.067-0.432-0.108-0.641-0.108c-1.527,0-2.146,2.096-2.146,2.096s0.619,2.094,2.146,2.094c0.209,0,0.425-0.04,0.641-0.105
	c0.174,0.064,0.363,0.105,0.57,0.105c0.188,0,0.379-0.031,0.572-0.087c-0.193-0.065-0.365-0.167-0.521-0.287
	c0.536-0.285,1.041-0.687,1.424-1.029c0.319,0.611,0.915,1.403,1.854,1.403c0.188,0,0.379-0.031,0.572-0.087
	C19.148,20.393,18.672,18.777,18.672,18.777z M14.205,18.777c-0.191,0-0.348-0.199-0.348-0.445s0.156-0.446,0.348-0.446
	c0.193,0,0.35,0.2,0.35,0.446S14.398,18.777,14.205,18.777z M26.848,18.777c0,0,0.479-1.614,1.631-2.008
	c-0.193-0.056-0.386-0.088-0.571-0.088c-0.941,0-1.537,0.793-1.854,1.403c-0.385-0.344-0.889-0.744-1.425-1.028
	c0.154-0.121,0.326-0.223,0.519-0.287c-0.191-0.056-0.385-0.088-0.57-0.088c-0.208,0-0.396,0.043-0.57,0.108
	c-0.217-0.067-0.432-0.108-0.641-0.108c-1.527,0-2.146,2.096-2.146,2.096s0.619,2.094,2.146,2.094c0.209,0,0.424-0.04,0.641-0.105
	c0.174,0.064,0.362,0.105,0.57,0.105c0.186,0,0.379-0.031,0.57-0.087c-0.191-0.065-0.363-0.167-0.519-0.287
	c0.536-0.285,1.04-0.687,1.425-1.029c0.317,0.611,0.913,1.403,1.854,1.403c0.187,0,0.378-0.031,0.571-0.087
	C27.325,20.393,26.848,18.777,26.848,18.777z M22.381,18.777c-0.191,0-0.348-0.199-0.348-0.445s0.154-0.446,0.348-0.446
	s0.348,0.2,0.348,0.446S22.573,18.777,22.381,18.777z M35.021,18.777c0,0,0.479-1.614,1.631-2.008
	c-0.193-0.056-0.385-0.088-0.572-0.088c-0.939,0-1.535,0.793-1.854,1.403c-0.385-0.344-0.889-0.744-1.426-1.028
	c0.156-0.121,0.328-0.223,0.52-0.287c-0.191-0.056-0.385-0.088-0.57-0.088c-0.207,0-0.396,0.043-0.57,0.108
	c-0.216-0.067-0.431-0.108-0.64-0.108c-1.528,0-2.147,2.096-2.147,2.096s0.619,2.094,2.147,2.094c0.209,0,0.424-0.04,0.64-0.105
	c0.176,0.064,0.363,0.105,0.57,0.105c0.188,0,0.379-0.031,0.57-0.087c-0.19-0.065-0.362-0.167-0.52-0.287
	c0.537-0.285,1.041-0.687,1.426-1.029c0.318,0.611,0.914,1.403,1.854,1.403c0.188,0,0.379-0.031,0.572-0.087
	C35.5,20.393,35.021,18.777,35.021,18.777z M30.557,18.777c-0.192,0-0.348-0.199-0.348-0.445s0.154-0.446,0.348-0.446
	c0.192,0,0.348,0.2,0.348,0.446S30.749,18.777,30.557,18.777z M26.848,12.557c0,0,0.479-1.615,1.631-2.01
	c-0.193-0.055-0.386-0.087-0.571-0.087c-0.941,0-1.537,0.791-1.854,1.401c-0.385-0.342-0.889-0.743-1.425-1.027
	c0.154-0.12,0.326-0.223,0.519-0.287c-0.191-0.055-0.385-0.087-0.57-0.087c-0.208,0-0.396,0.041-0.57,0.106
	c-0.217-0.066-0.432-0.106-0.641-0.106c-1.527,0-2.146,2.097-2.146,2.097s0.619,2.092,2.146,2.092c0.209,0,0.424-0.039,0.641-0.105
	c0.174,0.064,0.362,0.105,0.57,0.105c0.186,0,0.379-0.03,0.57-0.088c-0.191-0.063-0.363-0.166-0.519-0.287
	c0.536-0.283,1.04-0.686,1.425-1.027c0.317,0.611,0.913,1.402,1.854,1.402c0.187,0,0.378-0.03,0.571-0.088
	C27.325,14.169,26.848,12.557,26.848,12.557z M22.381,12.557c-0.191,0-0.348-0.201-0.348-0.447s0.154-0.446,0.348-0.446
	s0.348,0.2,0.348,0.446S22.573,12.557,22.381,12.557z"/>
</svg>
