<?xml version="1.0" encoding="utf-8"?>
<!-- Generator: Adobe Illustrator 16.0.0, SVG Export Plug-In . SVG Version: 6.00 Build 0)  -->
<!DOCTYPE svg PUBLIC "-//W3C//DTD SVG 1.1//EN" "http://www.w3.org/Graphics/SVG/1.1/DTD/svg11.dtd">
<svg version="1.1" id="Layer_1" xmlns="http://www.w3.org/2000/svg" xmlns:xlink="http://www.w3.org/1999/xlink" x="0px" y="0px"
	 width="50px" height="50px" viewBox="0 0 50 50" enable-background="new 0 0 50 50" xml:space="preserve">
<path d="M40.35,37.675c0.008-0.024,0.021-0.048,0.022-0.073l2.583-21.75c0.018-0.142-0.027-0.284-0.122-0.391
	s-0.231-0.168-0.374-0.168H24.625v-2.834c0-0.276-0.225-0.5-0.5-0.5h-14c-0.256,0-0.471,0.194-0.497,0.449l-0.297,2.885H7.542
	c-0.276,0-0.5,0.224-0.5,0.5v21.75c0,0.031,0.013,0.06,0.019,0.088c0.004,0.028,0.006,0.058,0.017,0.084
	c0.016,0.041,0.04,0.076,0.065,0.111c0.01,0.017,0.016,0.036,0.028,0.052c0.003,0.003,0.007,0.004,0.011,0.007
	c0.034,0.037,0.077,0.064,0.123,0.091c0.014,0.008,0.023,0.02,0.038,0.024c0.062,0.026,0.128,0.043,0.199,0.043h32.334
	c0.065,0,0.129-0.015,0.187-0.038c0.021-0.009,0.039-0.023,0.059-0.035c0.033-0.02,0.068-0.037,0.097-0.064
	c0.021-0.019,0.032-0.039,0.048-0.062c0.022-0.026,0.045-0.055,0.061-0.088C40.336,37.729,40.342,37.702,40.35,37.675z
	 M10.576,12.958h13.049v2.834c0,0.276,0.225,0.5,0.5,0.5h17.772l-1.521,12.8V18.945c0-0.276-0.225-0.5-0.5-0.5H22.041v-2.652
	c0-0.276-0.225-0.5-0.5-0.5H10.334L10.576,12.958z"/>
</svg>
