<?xml version="1.0" encoding="utf-8"?>
<!-- Generator: Adobe Illustrator 16.0.0, SVG Export Plug-In . SVG Version: 6.00 Build 0)  -->
<!DOCTYPE svg PUBLIC "-//W3C//DTD SVG 1.1//EN" "http://www.w3.org/Graphics/SVG/1.1/DTD/svg11.dtd">
<svg version="1.1" id="Layer_1" xmlns="http://www.w3.org/2000/svg" xmlns:xlink="http://www.w3.org/1999/xlink" x="0px" y="0px"
	 width="50px" height="50px" viewBox="0 0 50 50" enable-background="new 0 0 50 50" xml:space="preserve">
<path d="M43.85,21.327h-4.322c-1.348-5.32-5.533-9.507-10.854-10.854V6.151h-7.346v4.322c-5.32,1.347-9.507,5.533-10.854,10.854
	H6.151v7.346h4.322c1.347,5.32,5.533,9.507,10.854,10.854v4.322h7.346v-4.324c5.32-1.346,9.507-5.532,10.854-10.854h4.322V21.327z
	 M28.673,35.355v-3.834L25,29.402l-3.673,2.119v3.834c-3.111-1.106-5.576-3.571-6.683-6.683h3.834L20.598,25l-2.12-3.673h-3.834
	c1.107-3.111,3.572-5.576,6.683-6.683v3.834L25,20.6l3.673-2.121v-3.834c3.111,1.107,5.576,3.572,6.683,6.683h-3.834L29.4,25
	l2.121,3.673h3.834C34.249,31.784,31.784,34.249,28.673,35.355z"/>
</svg>
