<?xml version="1.0" encoding="utf-8"?>
<!-- Generator: Adobe Illustrator 16.0.0, SVG Export Plug-In . SVG Version: 6.00 Build 0)  -->
<!DOCTYPE svg PUBLIC "-//W3C//DTD SVG 1.1//EN" "http://www.w3.org/Graphics/SVG/1.1/DTD/svg11.dtd">
<svg version="1.1" id="Layer_1" xmlns="http://www.w3.org/2000/svg" xmlns:xlink="http://www.w3.org/1999/xlink" x="0px" y="0px"
	 width="50px" height="50px" viewBox="0 0 50 50" enable-background="new 0 0 50 50" xml:space="preserve">
<path d="M40.201,28.572c0,8.381-6.818,15.201-15.201,15.201c-8.382,0-15.201-6.82-15.201-15.201c0-4.552,2.015-8.826,5.526-11.726
	c0.779-0.643,1.928-0.531,2.568,0.245c0.641,0.775,0.531,1.926-0.244,2.566c-2.67,2.205-4.203,5.454-4.203,8.913
	c0,6.371,5.184,11.553,11.554,11.553c6.371,0,11.552-5.182,11.552-11.553c0-3.458-1.531-6.708-4.201-8.913
	c-0.775-0.642-0.887-1.791-0.244-2.566c0.643-0.776,1.791-0.888,2.566-0.245C38.188,19.747,40.201,24.02,40.201,28.572z M25,22.793
	c1.007,0,1.824-0.816,1.824-1.823V8.05c0-1.008-0.816-1.823-1.824-1.823c-1.009,0-1.824,0.815-1.824,1.823v12.92
	C23.176,21.977,23.992,22.793,25,22.793z M32.93,14.461c1.752-1.753,1.398-4.944,1.398-4.944s-3.193-0.354-4.945,1.396
	s-1.396,4.944-1.396,4.944S31.18,16.212,32.93,14.461z"/>
</svg>
