<?xml version="1.0" encoding="utf-8"?>
<!-- Generator: Adobe Illustrator 16.0.0, SVG Export Plug-In . SVG Version: 6.00 Build 0)  -->
<!DOCTYPE svg PUBLIC "-//W3C//DTD SVG 1.1//EN" "http://www.w3.org/Graphics/SVG/1.1/DTD/svg11.dtd">
<svg version="1.1" id="Layer_1" xmlns="http://www.w3.org/2000/svg" xmlns:xlink="http://www.w3.org/1999/xlink" x="0px" y="0px"
	 width="50px" height="50px" viewBox="0 0 50 50" enable-background="new 0 0 50 50" xml:space="preserve">
<g>
	<path d="M26.249,23.871l-0.5-0.017V20.51h0.354c1.236,0,1.856,0.494,1.856,1.485l0.008,0.241h2.183V21.93
		c0-1.313-0.311-2.21-0.936-2.694c-0.619-0.484-1.777-0.725-3.467-0.725v-1.299h-1.521v1.299c-1.774,0-2.984,0.253-3.639,0.757
		c-0.651,0.504-0.978,1.44-0.978,2.81c0,1.412,0.326,2.375,0.973,2.888c0.652,0.514,1.864,0.773,3.644,0.773v3.62l-0.334-0.01
		c-0.911,0-1.501-0.119-1.764-0.356c-0.262-0.239-0.392-0.771-0.392-1.593v-0.232H19.48l-0.012,0.455c0,1.35,0.326,2.296,0.97,2.841
		c0.647,0.546,1.767,0.818,3.358,0.818l0.43,0.009v1.495h1.521v-1.495l0.464-0.009c1.598,0,2.719-0.286,3.355-0.855
		c0.645-0.569,0.961-1.56,0.961-2.973c0-1.312-0.293-2.213-0.877-2.706C29.063,24.256,27.928,23.963,26.249,23.871z M24.228,23.78
		c-0.213-0.013-0.321-0.021-0.334-0.021c-1.336,0-1.997-0.554-1.997-1.663c0-1.058,0.666-1.587,2.004-1.587l0.327-0.01V23.78z
		 M26.076,29.361h-0.327v-3.539c1.021,0,1.692,0.107,2.015,0.324c0.321,0.218,0.482,0.664,0.482,1.348
		C28.246,28.738,27.521,29.361,26.076,29.361z"/>
	<path d="M39.667,28.5v-7H37.51c-0.283-1.013-0.68-1.977-1.187-2.873l1.522-1.523l-4.949-4.95l-1.523,1.523
		c-0.896-0.507-1.859-0.904-2.873-1.187v-2.157h-7v2.157c-1.013,0.283-1.976,0.681-2.873,1.187l-1.523-1.523l-4.95,4.95l1.523,1.523
		c-0.506,0.897-0.903,1.86-1.186,2.873h-2.158v7h2.158c0.283,1.014,0.68,1.977,1.186,2.873l-1.523,1.523l4.95,4.949l1.523-1.522
		c0.897,0.506,1.86,0.903,2.873,1.186v2.158h7v-2.158c1.014-0.282,1.977-0.68,2.873-1.186l1.523,1.522l4.949-4.949l-1.522-1.523
		c0.506-0.896,0.903-1.859,1.187-2.873H39.667z M25,33.667c-4.787,0-8.667-3.88-8.667-8.667s3.88-8.667,8.667-8.667
		s8.667,3.88,8.667,8.667S29.787,33.667,25,33.667z"/>
</g>
</svg>
