<?xml version="1.0" encoding="utf-8"?>
<!-- Generator: Adobe Illustrator 16.0.0, SVG Export Plug-In . SVG Version: 6.00 Build 0)  -->
<!DOCTYPE svg PUBLIC "-//W3C//DTD SVG 1.1//EN" "http://www.w3.org/Graphics/SVG/1.1/DTD/svg11.dtd">
<svg version="1.1" id="Layer_1" xmlns="http://www.w3.org/2000/svg" xmlns:xlink="http://www.w3.org/1999/xlink" x="0px" y="0px"
	 width="50px" height="50px" viewBox="0 0 50 50" enable-background="new 0 0 50 50" xml:space="preserve">
<path d="M24.688,31.779l2.354,1.119c1.025,0.486,1.864,1.685,1.864,2.658v2.62H14.863v-2.62c0-0.975,0.838-2.172,1.862-2.658
	l2.281-1.082l1.583,3.298l0.811-2.196c0.158,0.03,0.317,0.071,0.483,0.071s0.324-0.041,0.484-0.071l0.769,2.089L24.688,31.779z
	 M21.885,31.779c2.003,0,3.627-2.492,3.627-4.778c0-2.287-1.624-3.5-3.627-3.5c-2.004,0-3.627,1.213-3.627,3.5
	C18.257,29.287,19.881,31.779,21.885,31.779z M32.512,15.094v26.186c0,0.554-0.448,1-1,1H12.116c-0.553,0-1-0.446-1-1V15.094
	c0-0.553,0.447-1,1-1h19.396C32.063,14.094,32.512,14.541,32.512,15.094z M30.512,21.635H25.97c-0.552,0-1-0.447-1-1v-4.541H13.116
	v24.186h17.396V21.635z M34.836,10.77H15.44c-0.553,0-1,0.446-1,1c0,0.553,0.447,1,1,1h18.396v25.186c0,0.553,0.448,1,1,1
	s1-0.447,1-1V11.77C35.836,11.216,35.388,10.77,34.836,10.77z M37.884,7.721H18.488c-0.553,0-1,0.447-1,1s0.447,1,1,1h18.396v25.187
	c0,0.553,0.448,1,1,1s1-0.447,1-1V8.721C38.884,8.168,38.436,7.721,37.884,7.721z"/>
</svg>
