<?xml version="1.0" encoding="utf-8"?>
<!-- Generator: Adobe Illustrator 16.0.0, SVG Export Plug-In . SVG Version: 6.00 Build 0)  -->
<!DOCTYPE svg PUBLIC "-//W3C//DTD SVG 1.1//EN" "http://www.w3.org/Graphics/SVG/1.1/DTD/svg11.dtd">
<svg version="1.1" id="Layer_1" xmlns="http://www.w3.org/2000/svg" xmlns:xlink="http://www.w3.org/1999/xlink" x="0px" y="0px"
	 width="50px" height="50px" viewBox="0 0 50 50" enable-background="new 0 0 50 50" xml:space="preserve">
<path d="M26.727,12.333l-0.194,9.296h-3.017l-0.24-9.296H26.727z M23.516,23.775h3.017v2.556h-3.017V23.775z M25,6.625
	c-6.973,0-12.625,5.652-12.625,12.625C12.375,33.875,25,43.375,25,43.375s12.625-11.25,12.625-24.125
	C37.625,12.277,31.973,6.625,25,6.625z M25,27.864c-4.852,0-8.781-3.933-8.781-8.781S20.15,10.302,25,10.302
	s8.781,3.933,8.781,8.781S29.852,27.864,25,27.864z"/>
</svg>
