<?xml version="1.0" encoding="utf-8"?>
<!-- Generator: Adobe Illustrator 16.0.0, SVG Export Plug-In . SVG Version: 6.00 Build 0)  -->
<!DOCTYPE svg PUBLIC "-//W3C//DTD SVG 1.1//EN" "http://www.w3.org/Graphics/SVG/1.1/DTD/svg11.dtd">
<svg version="1.1" id="Layer_1" xmlns="http://www.w3.org/2000/svg" xmlns:xlink="http://www.w3.org/1999/xlink" x="0px" y="0px"
	 width="50px" height="50px" viewBox="0 0 50 50" enable-background="new 0 0 50 50" xml:space="preserve">
<path d="M25.797,23.75c-0.642,0.629-1.671,0.621-2.302-0.021l-4.443-4.522v22.367c0,1.198-0.972,2.17-2.17,2.17
	c-0.756,0-1.42-0.388-1.809-0.974c-0.389,0.586-1.053,0.974-1.809,0.974c-1.198,0-2.169-0.972-2.169-2.17V29.541
	c-0.171,0.061-0.352,0.1-0.542,0.1c-0.899,0-1.627-0.729-1.627-1.627V17.437c0-0.897,0.729-1.627,1.627-1.627h3.507l0.614,0.817
	l-1.126,6.379l1.524,1.438l1.525-1.438l-1.126-6.379l0.614-0.817h3.507c0.437,0,0.854,0.176,1.161,0.487l5.063,5.153
	C26.447,22.09,26.438,23.121,25.797,23.75z M15.073,14.701c2.044,0,3.701-2.543,3.701-4.875c0-2.335-1.657-3.57-3.701-3.57
	c-2.045,0-3.701,1.235-3.701,3.57C11.373,12.158,13.028,14.701,15.073,14.701z M41.073,32.877c0,5.842-4.753,10.595-10.595,10.595
	s-10.595-4.753-10.595-10.595c0-5.844,4.753-10.597,10.595-10.597C36.32,22.281,41.073,27.035,41.073,32.877z M32.244,23.869
	c1.525,1.271,2.689,2.867,3.406,4.652h2.909C37.274,26.146,34.974,24.402,32.244,23.869z M39.169,29.934h-3.054
	c0.239,0.931,0.367,1.896,0.367,2.884c0,0.904-0.109,1.79-0.313,2.649h3.113c0.243-0.822,0.379-1.689,0.379-2.59
	C39.661,31.847,39.482,30.858,39.169,29.934z M21.675,35.467h3.114c-0.203-0.859-0.314-1.745-0.314-2.649
	c0-0.985,0.127-1.953,0.367-2.884h-3.053c-0.315,0.925-0.493,1.913-0.493,2.943C21.296,33.777,21.432,34.645,21.675,35.467z
	 M26.249,35.467h3.522v-5.533h-3.448c-0.275,0.926-0.437,1.891-0.437,2.884C25.888,33.727,26.017,34.613,26.249,35.467z
	 M31.185,28.521h2.906c-0.664-1.409-1.647-2.664-2.906-3.678V28.521z M29.771,24.844c-1.258,1.014-2.242,2.269-2.905,3.678h2.905
	V24.844z M26.758,36.879c0.662,1.504,1.686,2.844,3.014,3.912v-3.912H26.758z M31.185,40.791c1.329-1.067,2.354-2.406,3.015-3.91
	h-3.015V40.791z M34.709,35.467c0.231-0.854,0.36-1.74,0.36-2.649c0-0.993-0.161-1.958-0.437-2.884h-3.448v5.533H34.709z
	 M22.397,28.521h2.908c0.718-1.785,1.882-3.382,3.408-4.652C25.983,24.402,23.682,26.146,22.397,28.521z M28.885,41.912
	c-1.679-1.35-2.932-3.086-3.666-5.031h-2.992C23.495,39.48,25.948,41.394,28.885,41.912z M38.729,36.879h-2.992
	c-0.732,1.945-1.986,3.684-3.666,5.033C35.009,41.394,37.462,39.48,38.729,36.879z"/>
</svg>
