<?xml version="1.0" encoding="utf-8"?>
<!-- Generator: Adobe Illustrator 16.0.0, SVG Export Plug-In . SVG Version: 6.00 Build 0)  -->
<!DOCTYPE svg PUBLIC "-//W3C//DTD SVG 1.1//EN" "http://www.w3.org/Graphics/SVG/1.1/DTD/svg11.dtd">
<svg version="1.1" id="Layer_1" xmlns="http://www.w3.org/2000/svg" xmlns:xlink="http://www.w3.org/1999/xlink" x="0px" y="0px"
	 width="50px" height="50px" viewBox="0 0 50 50" enable-background="new 0 0 50 50" xml:space="preserve">
<path d="M28.352,27.379l-0.361-0.012v-2.423h0.257c0.896,0,1.346,0.356,1.346,1.075l0.006,0.176h1.581v-0.223
	c0-0.951-0.224-1.602-0.677-1.951c-0.449-0.352-1.289-0.525-2.512-0.525v-0.941h-1.103v0.941c-1.286,0-2.163,0.184-2.637,0.549
	c-0.472,0.365-0.708,1.044-0.708,2.036c0,1.023,0.236,1.721,0.705,2.093c0.473,0.372,1.351,0.561,2.64,0.561v2.623l-0.242-0.008
	c-0.66,0-1.087-0.087-1.278-0.259c-0.19-0.174-0.284-0.558-0.284-1.153V29.77H23.45l-0.009,0.329c0,0.979,0.236,1.663,0.703,2.059
	c0.469,0.396,1.28,0.593,2.435,0.593l0.312,0.008v1.082h1.103v-1.082l0.336-0.008c1.157,0,1.969-0.206,2.432-0.619
	c0.466-0.412,0.696-1.13,0.696-2.154c0-0.948-0.213-1.604-0.637-1.96C30.391,27.657,29.567,27.446,28.352,27.379z M26.888,27.313
	c-0.154-0.01-0.233-0.015-0.242-0.015c-0.968,0-1.447-0.401-1.447-1.205c0-0.767,0.482-1.148,1.452-1.148l0.237-0.009V27.313z
	 M28.226,31.356h-0.237v-2.563c0.74,0,1.227,0.078,1.46,0.234c0.232,0.157,0.35,0.481,0.35,0.977
	C29.798,30.905,29.272,31.356,28.226,31.356z M21.051,8.63c-6.539,0-11.858,5.32-11.858,11.858c0,5.892,4.322,10.777,9.959,11.69
	c-0.284-0.567-0.503-1.16-0.663-1.766c-2.937-0.759-5.37-2.771-6.674-5.445h3.349c0.678,1.8,1.759,3.436,3.172,4.802
	c-0.159-0.842-0.2-1.701-0.125-2.553c-0.525-0.701-0.974-1.453-1.324-2.249H18.7c0.189-0.544,0.43-1.073,0.723-1.581h-3.104
	c-0.26-0.956-0.405-1.948-0.405-2.966c0-1.11,0.18-2.189,0.489-3.228h3.859v4.959c0.196-0.24,0.406-0.475,0.63-0.697
	c0.299-0.3,0.621-0.567,0.952-0.819v-3.441h3.86c0.16,0.541,0.284,1.094,0.368,1.655c0.458-0.067,0.924-0.114,1.396-0.114
	c0.065,0,0.129,0.009,0.194,0.01c-0.069-0.524-0.169-1.042-0.301-1.551h3.417c0.257,0.754,0.43,1.545,0.506,2.362
	c0.57,0.259,1.114,0.574,1.627,0.945c0-0.005,0-0.01,0-0.015C32.911,13.95,27.591,8.63,21.051,8.63z M14.684,23.388h-3.485
	c-0.271-0.921-0.423-1.892-0.423-2.898c0-1.152,0.199-2.258,0.551-3.294h3.417c-0.269,1.042-0.411,2.124-0.411,3.228
	C14.333,21.435,14.457,22.427,14.684,23.388z M15.263,15.614h-3.255c1.438-2.658,4.014-4.61,7.069-5.209
	C17.369,11.829,16.065,13.616,15.263,15.614z M20.262,15.614h-3.252c0.742-1.577,1.843-2.983,3.252-4.117V15.614z M21.842,15.614
	v-4.117c1.409,1.134,2.51,2.54,3.252,4.117H21.842z M26.842,15.614c-0.803-1.998-2.105-3.785-3.814-5.209
	c3.057,0.599,5.632,2.551,7.069,5.209H26.842z M33.528,21.968c-3.343-3.343-8.783-3.343-12.125,0c-3.343,3.344-3.343,8.782,0,12.125
	c2.977,2.979,7.612,3.296,10.953,0.973c0.07,0.333,0.231,0.648,0.489,0.906l4.868,4.867c0.708,0.708,1.854,0.708,2.562,0
	c0.708-0.707,0.708-1.854,0-2.562l-4.867-4.867c-0.259-0.258-0.575-0.42-0.908-0.489C36.825,29.579,36.506,24.944,33.528,21.968z
	 M31.992,32.557c-2.496,2.495-6.557,2.495-9.052,0c-2.495-2.496-2.495-6.556,0-9.051c2.496-2.497,6.557-2.497,9.052,0
	C34.486,26.001,34.486,30.061,31.992,32.557z"/>
</svg>
