<?xml version="1.0" encoding="utf-8"?>
<!-- Generator: Adobe Illustrator 16.0.0, SVG Export Plug-In . SVG Version: 6.00 Build 0)  -->
<!DOCTYPE svg PUBLIC "-//W3C//DTD SVG 1.1//EN" "http://www.w3.org/Graphics/SVG/1.1/DTD/svg11.dtd">
<svg version="1.1" id="Layer_1" xmlns="http://www.w3.org/2000/svg" xmlns:xlink="http://www.w3.org/1999/xlink" x="0px" y="0px"
	 width="50px" height="50px" viewBox="0 0 50 50" enable-background="new 0 0 50 50" xml:space="preserve">
<path d="M34.146,26.678l0.037,14.143H22.895v-3.823h-4.558c-4.933,0-5.272-7.828-5.272-7.828s-3.412,0.384-3.52-1.01
	c-0.249-3.236,2.428-6.456,2.428-6.456c-0.068-2.444-0.097-5.648-0.068-7.482c0.05-3.277,4.367-4.896,5.789-4.956
	c4.638-0.193,16.406,0,16.406,0l0.012,4.307c-1.447,0.833-2.428,2.392-2.428,4.179v0.416h-1.498
	c-1.023-2.143-3.203-3.626-5.736-3.626c-3.514,0-6.361,2.848-6.361,6.362c0,3.514,2.848,6.362,6.361,6.362
	c3.117,0,5.705-2.243,6.25-5.203h0.983v0.416C31.686,24.281,32.68,25.852,34.146,26.678z M32.543,21.206h-5.21v1.816h-2.18v-1.816
	H22.61v2.544h-2.18v-4.724h12.112v-1.273c0-2.184,1.776-3.964,3.964-3.964c2.186,0,3.965,1.78,3.965,3.964v4.726
	c0,2.187-1.779,3.964-3.965,3.964c-2.188,0-3.964-1.777-3.964-3.964L32.543,21.206L32.543,21.206z M34.723,17.752v4.726
	c0,0.983,0.801,1.784,1.784,1.784s1.784-0.801,1.784-1.784v-4.726c0-0.983-0.801-1.784-1.784-1.784S34.723,16.77,34.723,17.752z"/>
</svg>
