<?xml version="1.0" encoding="utf-8"?>
<!-- Generator: Adobe Illustrator 16.0.0, SVG Export Plug-In . SVG Version: 6.00 Build 0)  -->
<!DOCTYPE svg PUBLIC "-//W3C//DTD SVG 1.1//EN" "http://www.w3.org/Graphics/SVG/1.1/DTD/svg11.dtd">
<svg version="1.1" id="Layer_1" xmlns="http://www.w3.org/2000/svg" xmlns:xlink="http://www.w3.org/1999/xlink" x="0px" y="0px"
	 width="50px" height="50px" viewBox="0 0 50 50" enable-background="new 0 0 50 50" xml:space="preserve">
<path d="M10.25,27.875h-3V10.5c0-0.829,0.671-1.5,1.5-1.5h29c0.829,0,1.5,0.671,1.5,1.5v6.625h-3V15H20.5v10.75
	c0,0.275-0.224,0.5-0.5,0.5s-0.5-0.225-0.5-0.5v-9h-6.875c-0.276,0-0.5-0.224-0.5-0.5s0.224-0.5,0.5-0.5H19.5V14.5
	c0-0.276,0.224-0.5,0.5-0.5h16.25v-2h-26v9h5.375v-3.125c0-0.276,0.224-0.5,0.5-0.5s0.5,0.224,0.5,0.5V22H10.25V27.875z
	 M36.25,23.375h-8.625c-0.275,0-0.5,0.224-0.5,0.5s0.225,0.5,0.5,0.5h8.625V38H31.5V26c0-0.275-0.225-0.5-0.5-0.5h-3.375
	c-0.275,0-0.5,0.225-0.5,0.5s0.225,0.5,0.5,0.5H30.5V34H17c-0.276,0-0.5,0.225-0.5,0.5S16.724,35,17,35h3.5v1.75
	c0,0.275,0.224,0.5,0.5,0.5s0.5-0.225,0.5-0.5V35h9v3H13.875v-4.625c0-0.275-0.224-0.5-0.5-0.5s-0.5,0.225-0.5,0.5V38H10.25v-5.125
	h-3V39.5c0,0.829,0.671,1.5,1.5,1.5h29c0.829,0,1.5-0.671,1.5-1.5V22.125h-3V23.375z M46.5,19.874l-5.374-4.249v2.5H23.25
	c-0.829,0-1.5,0.671-1.5,1.5v9.25H3.5v3h19.75c0.829,0,1.5-0.671,1.5-1.5v-9.25h16.376v2.996L46.5,19.874z"/>
</svg>
