<?xml version="1.0" encoding="utf-8"?>
<!-- Generator: Adobe Illustrator 16.0.0, SVG Export Plug-In . SVG Version: 6.00 Build 0)  -->
<!DOCTYPE svg PUBLIC "-//W3C//DTD SVG 1.1//EN" "http://www.w3.org/Graphics/SVG/1.1/DTD/svg11.dtd">
<svg version="1.1" id="Layer_1" xmlns="http://www.w3.org/2000/svg" xmlns:xlink="http://www.w3.org/1999/xlink" x="0px" y="0px"
	 width="50px" height="50px" viewBox="0 0 50 50" enable-background="new 0 0 50 50" xml:space="preserve">
<path d="M35.96,14.04c-6.043-6.044-15.876-6.044-21.92,0c-6.044,6.043-6.044,15.877,0,21.92c6.043,6.044,15.876,6.044,21.92,0
	C42.004,29.917,42.004,20.083,35.96,14.04z M36.4,32.216l-3.869-3.868c0.936-2.113,0.941-4.537,0.019-6.654l3.872-3.871
	C39.178,22.207,39.172,27.836,36.4,32.216z M20.581,29.42c-2.437-2.438-2.437-6.402,0-8.839c2.437-2.438,6.401-2.438,8.839,0
	c2.438,2.437,2.438,6.401,0,8.838S23.018,31.855,20.581,29.42z M32.18,13.578l-3.873,3.872c-2.117-0.925-4.541-0.918-6.654,0.019
	L17.784,13.6C22.164,10.828,27.793,10.822,32.18,13.578z M13.557,17.857l3.875,3.875c-0.901,2.095-0.894,4.483,0.019,6.574
	l-3.872,3.871C10.837,27.816,10.831,22.227,13.557,17.857z M17.821,36.422l3.872-3.872c2.091,0.912,4.48,0.921,6.575,0.019
	l3.875,3.875C27.773,39.169,22.183,39.163,17.821,36.422z"/>
</svg>
