<?xml version="1.0" encoding="utf-8"?>
<!-- Generator: Adobe Illustrator 16.0.0, SVG Export Plug-In . SVG Version: 6.00 Build 0)  -->
<!DOCTYPE svg PUBLIC "-//W3C//DTD SVG 1.1//EN" "http://www.w3.org/Graphics/SVG/1.1/DTD/svg11.dtd">
<svg version="1.1" id="Layer_1" xmlns="http://www.w3.org/2000/svg" xmlns:xlink="http://www.w3.org/1999/xlink" x="0px" y="0px"
	 width="50px" height="50px" viewBox="0 0 50 50" enable-background="new 0 0 50 50" xml:space="preserve">
<path d="M25,14.638c-4.729,0-8.563,3.832-8.563,8.563c0,2.072,0.736,3.973,1.962,5.453h-0.001c1.711,2.061,2.182,4.645,2.182,6.037
	c0,1.098,0.708,1.512,1.012,1.639c-0.196,0.129-0.334,0.34-0.334,0.592c0,0.396,0.321,0.72,0.719,0.72
	c-0.397,0-0.719,0.321-0.719,0.719s0.321,0.72,0.719,0.72c-0.397,0-0.719,0.321-0.719,0.719c0,0.396,0.321,0.719,0.719,0.719h0.779
	c-0.039,0.086-0.062,0.176-0.062,0.27c0,0.66,1.032,1.197,2.306,1.197c1.273,0,2.307-0.537,2.307-1.197
	c0-0.094-0.022-0.184-0.063-0.27h0.779c0.396,0,0.719-0.322,0.719-0.719c0-0.397-0.321-0.719-0.719-0.719
	c0.396,0,0.719-0.322,0.719-0.72s-0.321-0.719-0.719-0.719c0.396,0,0.719-0.322,0.719-0.72c0-0.252-0.139-0.463-0.334-0.592
	c0.304-0.127,1.012-0.541,1.012-1.639c0-1.393,0.471-3.977,2.182-6.037l0,0c1.226-1.48,1.961-3.381,1.961-5.453
	C33.563,18.47,29.729,14.638,25,14.638z M29.631,27.022l-1.14,1.668c-1.134,2.035-1.486,3.941-1.589,5.135h-3.809
	c-0.152-1.973-0.932-4.643-2.728-6.805c-0.884-1.07-1.372-2.428-1.372-3.82c0-3.313,2.694-6.006,6.006-6.006
	c3.313,0,6.006,2.693,6.006,6.006C31.006,24.593,30.518,25.952,29.631,27.022z M9.895,23.938v-1.627h4.054v1.627H9.895z
	 M40.104,22.31l0.002,1.627H36.05V22.31H40.104z M35.104,11.868l1.151,1.148l-2.866,2.867l-1.15-1.15L35.104,11.868z M24.185,8.019
	l1.627-0.002v4.057h-1.626L24.185,8.019z M13.742,13.019l1.149-1.15l2.868,2.867l-1.15,1.15L13.742,13.019z M25.809,23.356
	l-0.325-0.012v-2.161h0.229c0.801,0,1.201,0.319,1.201,0.961l0.005,0.155h1.411v-0.197c0-0.85-0.2-1.43-0.604-1.743
	c-0.401-0.313-1.15-0.469-2.243-0.469V19.05h-0.983v0.841c-1.147,0-1.93,0.165-2.354,0.489c-0.421,0.326-0.632,0.933-0.632,1.817
	c0,0.913,0.211,1.536,0.629,1.867c0.422,0.332,1.206,0.5,2.356,0.5v2.342l-0.216-0.007c-0.589,0-0.971-0.078-1.141-0.23
	c-0.169-0.154-0.253-0.498-0.253-1.028v-0.151h-1.459l-0.008,0.295c0,0.872,0.211,1.484,0.627,1.838
	c0.418,0.353,1.142,0.528,2.171,0.528l0.278,0.006v0.968h0.983v-0.968l0.3-0.006c1.032,0,1.757-0.187,2.17-0.554
	c0.416-0.367,0.622-1.008,0.622-1.922c0-0.849-0.19-1.433-0.568-1.75C27.627,23.605,26.895,23.417,25.809,23.356z M24.501,23.298
	c-0.138-0.008-0.208-0.014-0.216-0.014c-0.864,0-1.292-0.357-1.292-1.074c0-0.686,0.431-1.026,1.296-1.026l0.212-0.007V23.298
	L24.501,23.298z M25.695,26.907h-0.211V24.62c0.661,0,1.095,0.068,1.303,0.209S27.1,25.259,27.1,25.7
	C27.1,26.505,26.63,26.907,25.695,26.907z"/>
</svg>
