<?xml version="1.0" encoding="utf-8"?>
<!-- Generator: Adobe Illustrator 16.0.0, SVG Export Plug-In . SVG Version: 6.00 Build 0)  -->
<!DOCTYPE svg PUBLIC "-//W3C//DTD SVG 1.1//EN" "http://www.w3.org/Graphics/SVG/1.1/DTD/svg11.dtd">
<svg version="1.1" id="Layer_1" xmlns="http://www.w3.org/2000/svg" xmlns:xlink="http://www.w3.org/1999/xlink" x="0px" y="0px"
	 width="50px" height="50px" viewBox="0 0 50 50" enable-background="new 0 0 50 50" xml:space="preserve">
<path d="M39.385,35.852l-6.718-6.718c-0.355-0.356-0.793-0.579-1.252-0.675c1.895-2.725,2.506-6.069,1.851-9.2l-2.74,2.688
	c-0.059,2.182-0.91,4.347-2.571,6.008c-3.444,3.443-9.048,3.443-12.492,0c-3.444-3.444-3.444-9.048,0-12.492
	c3.444-3.444,9.048-3.444,12.492,0c0.49,0.49,0.902,1.027,1.252,1.592l-6.343,6.222l-5.127-4.912
	c-0.598-0.574-1.547-0.554-2.121,0.045c-0.573,0.598-0.553,1.548,0.045,2.121l6.177,5.918c0.29,0.277,0.664,0.416,1.038,0.416
	c0.379,0,0.759-0.143,1.05-0.428l12.322-12.086c0.591-0.58,0.601-1.53,0.021-2.121c-0.579-0.591-1.528-0.601-2.12-0.021
	l-2.763,2.709c-0.385-0.553-0.815-1.084-1.309-1.577c-4.614-4.614-12.121-4.614-16.734,0s-4.614,12.121,0,16.734
	c4.108,4.107,10.505,4.547,15.116,1.34c0.097,0.459,0.319,0.896,0.676,1.253l6.717,6.717c0.978,0.978,2.56,0.978,3.536,0
	C40.362,38.41,40.362,36.828,39.385,35.852z"/>
</svg>
