<?xml version="1.0" encoding="utf-8"?>
<!-- Generator: Adobe Illustrator 16.0.0, SVG Export Plug-In . SVG Version: 6.00 Build 0)  -->
<!DOCTYPE svg PUBLIC "-//W3C//DTD SVG 1.1//EN" "http://www.w3.org/Graphics/SVG/1.1/DTD/svg11.dtd">
<svg version="1.1" id="Layer_1" xmlns="http://www.w3.org/2000/svg" xmlns:xlink="http://www.w3.org/1999/xlink" x="0px" y="0px"
	 width="50px" height="50px" viewBox="0 0 50 50" enable-background="new 0 0 50 50" xml:space="preserve">
<path d="M23.906,25.199c0.141,0.446,0.481,0.804,0.924,0.962c0.441,0.157,0.931,0.101,1.325-0.154l13.834-9
	c0.693-0.452,0.891-1.381,0.438-2.075c-0.451-0.695-1.382-0.89-2.074-0.439l-3.779,2.459c-0.57-1.31-1.381-2.54-2.45-3.61
	c-4.613-4.614-12.122-4.614-16.735,0c-2.886,2.885-3.954,6.899-3.228,10.632l-3.596,2.157c-0.711,0.426-0.94,1.348-0.515,2.058
	c0.281,0.47,0.778,0.729,1.287,0.729c0.263,0,0.528-0.069,0.771-0.214l12.535-7.521L23.906,25.199z M17.508,15.462
	c3.444-3.444,9.048-3.444,12.493,0c0.923,0.923,1.577,2.008,2.004,3.159l-5.829,3.792l-1.241-3.948
	c-0.139-0.438-0.47-0.79-0.898-0.953c-0.43-0.163-0.911-0.12-1.305,0.116l-7.762,4.657C14.808,19.835,15.64,17.332,17.508,15.462z
	 M41.434,39.386c-0.978,0.978-2.56,0.978-3.535,0l-6.719-6.717c-0.355-0.356-0.578-0.794-0.676-1.253
	c-4.609,3.208-11.008,2.768-15.117-1.34c-0.558-0.559-1.046-1.16-1.469-1.793l2.581-1.549c0.296,0.429,0.628,0.84,1.009,1.221
	c3.444,3.443,9.048,3.443,12.493,0c1.163-1.163,1.923-2.574,2.301-4.063l3.272-2.129c-0.014,2.346-0.717,4.69-2.112,6.696
	c0.459,0.096,0.896,0.318,1.253,0.675l6.719,6.718C42.408,36.827,42.408,38.41,41.434,39.386z"/>
</svg>
