<?xml version="1.0" encoding="utf-8"?>
<!-- Generator: Adobe Illustrator 16.0.0, SVG Export Plug-In . SVG Version: 6.00 Build 0)  -->
<!DOCTYPE svg PUBLIC "-//W3C//DTD SVG 1.1//EN" "http://www.w3.org/Graphics/SVG/1.1/DTD/svg11.dtd">
<svg version="1.1" id="Layer_1" xmlns="http://www.w3.org/2000/svg" xmlns:xlink="http://www.w3.org/1999/xlink" x="0px" y="0px"
	 width="50px" height="50px" viewBox="0 0 50 50" enable-background="new 0 0 50 50" xml:space="preserve">
<path d="M26.996,8.858l8.491-1.814v7.643l-3.047-0.65c0,0.367-0.106,0.736-0.337,1.059l-4.108,5.734
	c-0.313,0.436-0.801,0.711-1.336,0.752c-0.534,0.043-1.062-0.156-1.438-0.538l-2.465-2.51V43.5c0,1.338-1.084,2.422-2.422,2.422
	c-0.844,0-1.585-0.432-2.019-1.086c-0.435,0.654-1.176,1.086-2.02,1.086c-1.337,0-2.421-1.084-2.421-2.422V30.068
	c-0.19,0.066-0.392,0.109-0.605,0.109c-1.003,0-1.815-0.813-1.815-1.814V16.557c0-1.004,0.813-1.816,1.815-1.816h3.915l0.687,0.913
	l-1.257,7.12l1.703,1.604l1.701-1.604l-1.257-7.12l0.687-0.913h3.916c0.486,0,0.954,0.195,1.296,0.544l1.642,1.671l2.629-3.671
	l-1.933-0.412v0.81h-1.335V8.049h1.335v0.809H26.996z M36.38,10.753v0.759h2.165v-0.759H36.38z M38.506,7.721l-0.557-0.537
	l-1.531,1.479l0.557,0.535L38.506,7.721z M36.418,13.604l1.531,1.477l0.557-0.536l-1.531-1.479L36.418,13.604z M18.316,13.503
	c2.281,0,4.132-2.838,4.132-5.44c0-2.605-1.851-3.985-4.132-3.985c-2.283,0-4.133,1.38-4.133,3.985
	C14.184,10.666,16.033,13.503,18.316,13.503z"/>
</svg>
