<?xml version="1.0" encoding="utf-8"?>
<!-- Generator: Adobe Illustrator 16.0.0, SVG Export Plug-In . SVG Version: 6.00 Build 0)  -->
<!DOCTYPE svg PUBLIC "-//W3C//DTD SVG 1.1//EN" "http://www.w3.org/Graphics/SVG/1.1/DTD/svg11.dtd">
<svg version="1.1" id="Layer_1" xmlns="http://www.w3.org/2000/svg" xmlns:xlink="http://www.w3.org/1999/xlink" x="0px" y="0px"
	 width="50px" height="50px" viewBox="0 0 50 50" enable-background="new 0 0 50 50" xml:space="preserve">
<path d="M30.467,22.085c0-1.938-1.571-3.51-3.508-3.51c-1.938,0-3.508,1.571-3.508,3.51c0,1.937,1.57,3.507,3.508,3.507
	C28.896,25.593,30.467,24.022,30.467,22.085z M28.81,24.283c-0.26,0.229-0.713,0.345-1.359,0.345l-0.188,0.005v0.604h-0.615v-0.604
	l-0.174-0.005c-0.646,0-1.098-0.109-1.359-0.33c-0.262-0.22-0.393-0.604-0.393-1.15l0.004-0.186h0.914v0.096
	c0,0.332,0.053,0.547,0.158,0.646c0.105,0.096,0.346,0.146,0.715,0.146l0.135,0.004v-1.466c-0.721,0-1.21-0.104-1.475-0.313
	c-0.262-0.208-0.394-0.599-0.394-1.171c0-0.555,0.132-0.932,0.396-1.137c0.267-0.203,0.754-0.308,1.473-0.308v-0.524h0.615v0.524
	c0.684,0,1.151,0.099,1.402,0.294c0.254,0.195,0.379,0.561,0.379,1.092v0.123h-0.883l-0.003-0.098c0-0.401-0.252-0.602-0.753-0.602
	h-0.145v1.354l0.203,0.008c0.68,0.036,1.141,0.155,1.377,0.354c0.237,0.199,0.355,0.564,0.355,1.098
	C29.196,23.651,29.069,24.052,28.81,24.283z M26.513,20.268l0.133-0.004v1.326c-0.086-0.005-0.129-0.007-0.135-0.007
	c-0.541,0-0.809-0.226-0.809-0.674C25.702,20.481,25.972,20.268,26.513,20.268z M28.077,22.548c0.13,0.088,0.193,0.269,0.193,0.546
	c0,0.504-0.291,0.756-0.877,0.756h-0.133v-1.433C27.674,22.417,27.946,22.461,28.077,22.548z M36.588,39.871l-0.079-29.662
	c0,0-11.062-0.182-15.423,0c-1.336,0.055-5.395,1.578-5.441,4.658c-0.025,1.725,0,4.736,0.063,7.033c0,0-2.515,3.026-2.28,6.067
	c0.1,1.312,3.309,0.949,3.309,0.949s0.32,7.358,4.957,7.358h4.283v3.595L36.588,39.871L36.588,39.871z M25.542,28.021v-0.875
	c-0.411-0.113-0.8-0.274-1.163-0.479l-0.616,0.616l-2.005-2.002l0.616-0.617c-0.204-0.362-0.365-0.753-0.479-1.162h-0.875v-2.834
	h0.875c0.113-0.411,0.274-0.801,0.479-1.163l-0.616-0.616l2.005-2.005l0.616,0.616c0.362-0.204,0.752-0.365,1.163-0.479v-0.875
	h2.834v0.875c0.409,0.113,0.8,0.274,1.162,0.479l0.617-0.616l2.003,2.005l-0.616,0.616c0.205,0.362,0.366,0.752,0.48,1.163h0.873
	v2.834h-0.873c-0.114,0.409-0.276,0.8-0.48,1.162l0.616,0.617l-2.003,2.002l-0.617-0.616c-0.362,0.204-0.753,0.365-1.162,0.479
	v0.875H25.542z"/>
</svg>
