<?xml version="1.0" encoding="utf-8"?>
<!-- Generator: Adobe Illustrator 16.0.0, SVG Export Plug-In . SVG Version: 6.00 Build 0)  -->
<!DOCTYPE svg PUBLIC "-//W3C//DTD SVG 1.1//EN" "http://www.w3.org/Graphics/SVG/1.1/DTD/svg11.dtd">
<svg version="1.1" id="Layer_1" xmlns="http://www.w3.org/2000/svg" xmlns:xlink="http://www.w3.org/1999/xlink" x="0px" y="0px"
	 width="50px" height="50px" viewBox="0 0 50 50" enable-background="new 0 0 50 50" xml:space="preserve">
<path d="M39.667,28.5v-7H37.51c-0.283-1.013-0.68-1.977-1.187-2.873l1.522-1.523l-4.949-4.95l-1.523,1.523
	c-0.896-0.506-1.859-0.903-2.873-1.187v-2.157h-7v2.157c-1.013,0.283-1.976,0.681-2.873,1.187l-1.523-1.523l-4.95,4.95l1.523,1.523
	c-0.506,0.897-0.903,1.86-1.186,2.873h-2.158v7h2.158c0.283,1.014,0.68,1.977,1.186,2.873l-1.523,1.523l4.95,4.949l1.523-1.522
	c0.897,0.506,1.86,0.903,2.873,1.186v2.158h7v-2.158c1.014-0.282,1.977-0.68,2.873-1.186l1.523,1.522l4.949-4.949l-1.522-1.523
	c0.506-0.896,0.903-1.859,1.187-2.873H39.667z M25,16.707c2.246,0,4.064,1.359,4.064,3.921c0,2.563-1.819,5.356-4.064,5.356
	s-4.064-2.793-4.064-5.356C20.936,18.066,22.754,16.707,25,16.707z M32.868,30.471c-1.743,2.471-4.614,4.088-7.868,4.088
	s-6.125-1.617-7.868-4.088v-0.255c0-1.09,0.94-2.432,2.088-2.977l2.555-1.214l1.773,3.695l0.908-2.461
	c0.178,0.033,0.357,0.079,0.543,0.079s0.363-0.046,0.543-0.079l0.862,2.342l1.736-3.617l2.637,1.256
	c1.149,0.545,2.09,1.886,2.09,2.978L32.868,30.471L32.868,30.471z"/>
</svg>
