<?xml version="1.0" encoding="utf-8"?>
<!-- Generator: Adobe Illustrator 16.0.0, SVG Export Plug-In . SVG Version: 6.00 Build 0)  -->
<!DOCTYPE svg PUBLIC "-//W3C//DTD SVG 1.1//EN" "http://www.w3.org/Graphics/SVG/1.1/DTD/svg11.dtd">
<svg version="1.1" id="Layer_1" xmlns="http://www.w3.org/2000/svg" xmlns:xlink="http://www.w3.org/1999/xlink" x="0px" y="0px"
	 width="50px" height="50px" viewBox="0 0 50 50" enable-background="new 0 0 50 50" xml:space="preserve">
<path d="M29.681,23.435l3.929,2.731c1.711,1.186,3.109,4.104,3.109,6.479v6.387H13.281v-6.387c0-2.375,1.399-5.293,3.109-6.479
	l3.809-2.641l2.641,8.04l1.354-5.354c0.266,0.07,0.531,0.172,0.808,0.172c0.278,0,0.542-0.102,0.809-0.172l1.284,5.094
	L29.681,23.435z M25,24.371c3.244,0,5.873-4.035,5.873-7.736c0-3.703-2.629-5.666-5.873-5.666s-5.873,1.963-5.873,5.666
	C19.127,20.335,21.756,24.371,25,24.371z M14.934,21.931v-7.465l-8.292,1.771v-0.789H5.338v5.5h1.304v-0.791L14.934,21.931z
	 M17.921,18.089h-2.115v0.74h2.115V18.089z M17.883,15.128l-0.543-0.525l-1.496,1.443l0.544,0.523L17.883,15.128z M17.883,21.792
	l-1.495-1.443l-0.544,0.525l1.496,1.441L17.883,21.792z M14.934,21.931v-7.465l-8.292,1.771v-0.789H5.338v5.5h1.304v-0.791
	L14.934,21.931z M17.921,18.089h-2.115v0.74h2.115V18.089z M17.883,15.128l-0.543-0.525l-1.496,1.443l0.544,0.523L17.883,15.128z
	 M17.883,21.792l-1.495-1.443l-0.544,0.525l1.496,1.441L17.883,21.792z M35.066,14.853v7.463l8.292-1.771v0.789h1.304v-5.5h-1.304
	v0.791L35.066,14.853z M32.079,18.693h2.115v-0.74h-2.115V18.693z M32.117,21.656l0.543,0.523l1.496-1.443l-0.544-0.523
	L32.117,21.656z M32.117,14.992l1.495,1.441l0.544-0.525l-1.496-1.441L32.117,14.992z M35.066,14.853v7.463l8.292-1.771v0.789h1.304
	v-5.5h-1.304v0.791L35.066,14.853z M32.079,18.693h2.115v-0.74h-2.115V18.693z M32.117,21.656l0.543,0.523l1.496-1.443l-0.544-0.523
	L32.117,21.656z M32.117,14.992l1.495,1.441l0.544-0.525l-1.496-1.441L32.117,14.992z"/>
</svg>
