<?xml version="1.0" encoding="utf-8"?>
<!-- Generator: Adobe Illustrator 16.0.0, SVG Export Plug-In . SVG Version: 6.00 Build 0)  -->
<!DOCTYPE svg PUBLIC "-//W3C//DTD SVG 1.1//EN" "http://www.w3.org/Graphics/SVG/1.1/DTD/svg11.dtd">
<svg version="1.1" id="Layer_1" xmlns="http://www.w3.org/2000/svg" xmlns:xlink="http://www.w3.org/1999/xlink" x="0px" y="0px"
	 width="50px" height="50px" viewBox="0 0 50 50" enable-background="new 0 0 50 50" xml:space="preserve">
<path fill-rule="evenodd" clip-rule="evenodd" d="M14.479,29.017l6.831-1.735c-1.866-1.733-4.511-2.948-4.511-2.948
	S9.466,29.133,8,34.467C7.6,34.6,7.199,34.6,6.8,34.733c0.533-6.534,3.467-12,7.6-13.733c0.399-0.133,0.533-0.533,0.533-0.933
	c0-0.4-0.267-0.8-0.533-0.934c-4.133-1.6-7.066-7.067-7.6-13.733c2.399,0.667,5.866,1.067,9.999,1.067c4.134,0,7.601-0.4,10-1.067
	c-0.533,6.533-3.466,12-7.6,13.733c-0.4,0.133-0.533,0.533-0.533,0.934c0,0.4,0.267,0.8,0.533,0.933c2,0.8,3.6,2.4,4.934,4.533
	l1.6-0.667c-1.2-2.133-2.533-3.733-4.267-4.934c4-2.667,6.667-8.533,6.935-15.2c0.666-0.267,1.066-0.667,1.066-1.067
	C29.467,2.2,23.732,1,16.799,1C9.732,1,4.133,2.2,4.133,3.667c0,0.4,0.4,0.667,1.066,1.067c0.267,6.667,3.067,12.533,6.934,15.2
	c-4,2.667-6.667,8.534-6.934,15.2C4.533,35.4,4.133,35.8,4.133,36.2c0,1.333,4.479,2.398,10.346,2.532V29.017z M32.533,26.333
	l4.4,2.534C36.934,28.867,36.133,26.199,32.533,26.333z M32.23,31.313l-4.801-2.8C26.764,32.246,32.23,31.313,32.23,31.313z
	 M44.717,27.673c0,0-2.584,1.594-6.051,3.194v2.399c2-0.933,4.135-2,6-3.333L44.717,27.673z M44.438,32.713
	c0,0-2.57,1.487-6.037,3.087v2.4c2-0.934,4.133-2,6-3.2L44.438,32.713z M44.66,37.054c0,0-3.193,1.813-6.395,3.413v2.4
	c1.867-0.934,4.662-2.348,6.395-3.547V37.054z M31.467,26.066l6.266,3.867c1.201-0.533,4-2.134,5.201-2.934L36.4,23.133
	C36.4,23.133,34.133,24.733,31.467,26.066z M34.133,32.867c-2.934,1.199-6,2.266-8.8,2.666L17.066,31v2.133l8.267,4.801
	c0,0,3.866-0.934,8.667-2.801L34.133,32.867z M34,37.8c-2.934,1.2-6,2.267-8.801,2.667l-8.201-4.475v2.133l8.201,4.742
	c0,0,3.867-0.934,8.801-2.801V37.8z M33.867,42.467c-3.068,1.199-6.268,2.4-9.201,2.8l-7.668-4.216v2.133l7.668,4.482
	c0,0,4.135-1.066,9.201-2.933V42.467z M19.333,30.467l6.399,3.467c0,0,4.135-1.066,7.734-2.4l-6.4-3.733
	C25.333,28.6,19.333,30.467,19.333,30.467z M45.867,30.867L44.934,31.4l0.902,0.267V35.4l-0.533,0.496l0.533,0.4v3.866
	c0,0-10.637,6.97-21.703,8.837l-8.618-5.145v-3.866l0.618-0.589l-0.563-0.612v-4l0.695-0.188L15.6,33.934v-4
	c0,0,10.533-2,20.666-8.4L45.867,27V30.867z M16.933,17.934c0,0-1.467-1.2-3.333-3.067c4.8-1.067,8.666-3.333,10.8-6.267
	C22.266,13.8,16.933,17.934,16.933,17.934z"/>
</svg>
