<?xml version="1.0" encoding="utf-8"?>
<!-- Generator: Adobe Illustrator 16.0.0, SVG Export Plug-In . SVG Version: 6.00 Build 0)  -->
<!DOCTYPE svg PUBLIC "-//W3C//DTD SVG 1.1//EN" "http://www.w3.org/Graphics/SVG/1.1/DTD/svg11.dtd">
<svg version="1.1" id="Layer_1" xmlns="http://www.w3.org/2000/svg" xmlns:xlink="http://www.w3.org/1999/xlink" x="0px" y="0px"
	 width="50px" height="50px" viewBox="0 0 50 50" enable-background="new 0 0 50 50" xml:space="preserve">
<path d="M23.828,25.396c0.22-0.008,0.386-0.015,0.498-0.02v3.261c-0.518-0.023-0.939-0.061-1.266-0.112
	c-0.328-0.05-0.574-0.155-0.74-0.315c-0.262-0.26-0.391-0.627-0.391-1.106c0-0.794,0.168-1.272,0.506-1.438
	c0.133-0.068,0.271-0.121,0.414-0.158c0.145-0.038,0.289-0.063,0.434-0.079C23.426,25.415,23.607,25.402,23.828,25.396z
	 M20.346,19.176h9.312c0.559,0,1.012-0.454,1.012-1.012c0-0.559-0.453-1.012-1.012-1.012h-9.312c-0.561,0-1.014,0.453-1.014,1.012
	S19.785,19.176,20.346,19.176z M20.626,16.642h8.752c0.288-0.321,0.481-0.859,0.537-1.308c0.124-1.004,0.901-3.59,0-4.047
	c-0.815-0.413-2.037,2.232-2.948,2.162c-0.691-0.053-1.271-1.965-1.965-1.965c-0.729,0-1.336,2.022-2.064,2.063
	c-0.906,0.052-2.03-2.656-2.85-2.26c-0.911,0.441-0.125,3.043,0,4.047C20.145,15.783,20.337,16.321,20.626,16.642z M27.148,30.699
	c-0.321-0.07-0.828-0.113-1.519-0.125v3.409c0.935,0,1.569-0.097,1.905-0.291c0.156-0.12,0.291-0.267,0.402-0.442
	c0.11-0.176,0.168-0.484,0.168-0.928c0-0.529-0.08-0.914-0.236-1.156C27.71,30.926,27.473,30.77,27.148,30.699z M35.039,36.342
	c0.574,0.533,0.615,1.418,0.094,1.978c-0.521,0.558-1.41,0.576-1.982,0.041c-0.053-0.049-0.096-0.103-0.14-0.157H16.982
	c-0.024,0.031-0.045,0.065-0.071,0.094c-0.535,0.574-1.42,0.617-1.979,0.095c-0.558-0.522-0.574-1.41-0.039-1.983
	c0.121-0.131,0.262-0.23,0.411-0.306V24.16c0-0.865,0.601-1.946,1.335-2.402l3.362-2.09c0.099,0.01,0.194,0.021,0.298,0.021h9.402
	c0.103,0,0.199-0.011,0.298-0.021l3.362,2.09c0.733,0.457,1.334,1.538,1.334,2.402v11.952
	C34.816,36.172,34.936,36.244,35.039,36.342z M30.339,32.252c0-1.272-0.266-2.174-0.797-2.705c-0.372-0.33-0.853-0.551-1.446-0.666
	c-0.593-0.116-1.414-0.197-2.465-0.246v-3.26c0.096,0.01,0.287,0.018,0.577,0.021c0.289,0.004,0.524,0.02,0.708,0.048
	c0.184,0.028,0.355,0.092,0.521,0.188c0.16,0.099,0.272,0.254,0.34,0.47c0.068,0.214,0.103,0.537,0.103,0.965h2.037
	c0-0.79-0.084-1.419-0.248-1.888c-0.168-0.469-0.419-0.822-0.759-1.059c-0.34-0.237-0.76-0.399-1.258-0.485
	c-0.5-0.086-1.172-0.143-2.021-0.169v-1.17h-1.305v1.17c-0.977,0-1.781,0.062-2.415,0.187c-0.636,0.125-1.149,0.427-1.545,0.908
	c-0.425,0.522-0.636,1.37-0.636,2.542c0,0.898,0.149,1.578,0.453,2.037c0.192,0.289,0.433,0.52,0.715,0.691
	c0.283,0.17,0.601,0.299,0.946,0.387c0.349,0.088,0.748,0.158,1.201,0.209c0.451,0.052,0.878,0.101,1.279,0.146v3.409
	c-0.438,0-0.882-0.021-1.339-0.063c-0.31-0.035-0.553-0.106-0.729-0.217c-0.179-0.111-0.32-0.293-0.429-0.553
	c-0.089-0.215-0.132-0.66-0.132-1.335h-2.038c0,0.841,0.059,1.497,0.174,1.97c0.116,0.471,0.379,0.885,0.791,1.237
	c0.397,0.341,0.905,0.569,1.515,0.688c0.61,0.119,1.34,0.18,2.187,0.18v1.27h1.305v-1.27c1.411,0,2.503-0.191,3.274-0.573
	C29.832,34.865,30.309,33.844,30.339,32.252z M41.764,24.75c-0.875,1.75-2.457,2.458-2.457,2.458
	C43.973,21.25,40.514,15.5,40.514,15.5c0.875,5.875-4.875,9.875-4.875,9.875v7.875C43.139,31.5,41.764,24.75,41.764,24.75z
	 M9.486,15.5c0,0-3.459,5.75,1.207,11.708c0,0-1.582-0.707-2.457-2.458c0,0-1.375,6.75,6.125,8.5v-7.875
	C14.361,25.375,8.611,21.375,9.486,15.5z"/>
</svg>
