<?xml version="1.0" encoding="utf-8"?>
<!-- Generator: Adobe Illustrator 16.0.0, SVG Export Plug-In . SVG Version: 6.00 Build 0)  -->
<!DOCTYPE svg PUBLIC "-//W3C//DTD SVG 1.1//EN" "http://www.w3.org/Graphics/SVG/1.1/DTD/svg11.dtd">
<svg version="1.1" id="Layer_1" xmlns="http://www.w3.org/2000/svg" xmlns:xlink="http://www.w3.org/1999/xlink" x="0px" y="0px"
	 width="50px" height="50px" viewBox="0 0 50 50" enable-background="new 0 0 50 50" xml:space="preserve">
<path d="M35.198,39.983v-2.274c0-0.552-0.448-1-1-1h-5.375v-5.75h-0.5v-3h5.875c0.829,0,1.5-0.671,1.5-1.5s-0.671-1.5-1.5-1.5
	h-3.127l2.521-5.766c0.135-0.309,0.105-0.666-0.079-0.948c-0.184-0.282-0.5-0.453-0.837-0.453H19.683l-2.576-9.638
	c-0.215-0.8-1.034-1.274-1.838-1.062c-0.8,0.214-1.274,1.037-1.062,1.837l4.791,17.917c0.176,0.656,0.77,1.112,1.449,1.112h5.875v3
	h-0.5v5.75h-5.375c-0.553,0-1,0.448-1,1v2.24c-0.415,0.303-0.688,0.79-0.688,1.343c0,0.921,0.746,1.667,1.667,1.667
	c0.92,0,1.667-0.746,1.667-1.667c0-0.534-0.255-1.004-0.646-1.309v-1.274h4.875v1.344c-0.343,0.306-0.563,0.745-0.563,1.239
	c0,0.921,0.746,1.667,1.667,1.667c0.92,0,1.667-0.746,1.667-1.667c0-0.59-0.309-1.105-0.771-1.401v-1.182h4.875v1.24
	c-0.415,0.303-0.688,0.79-0.688,1.343c0,0.921,0.746,1.667,1.667,1.667c0.92,0,1.667-0.746,1.667-1.667
	C35.844,40.758,35.588,40.288,35.198,39.983z M20.218,19.793h10.932l-2.262,5.167h-7.289L20.218,19.793z"/>
</svg>
