<?xml version="1.0" encoding="utf-8"?>
<!-- Generator: Adobe Illustrator 16.0.0, SVG Export Plug-In . SVG Version: 6.00 Build 0)  -->
<!DOCTYPE svg PUBLIC "-//W3C//DTD SVG 1.1//EN" "http://www.w3.org/Graphics/SVG/1.1/DTD/svg11.dtd">
<svg version="1.1" id="Layer_1" xmlns="http://www.w3.org/2000/svg" xmlns:xlink="http://www.w3.org/1999/xlink" x="0px" y="0px"
	 width="50px" height="50px" viewBox="0 0 50 50" enable-background="new 0 0 50 50" xml:space="preserve">
<path d="M40.853,18.143c-0.285-0.492-0.744-0.842-1.293-0.988l-0.979-0.26v-1.014c0-1.172-0.954-2.127-2.127-2.127h-3.131v-2.098
	c0-2.828-2.303-5.129-5.131-5.129c-2.831,0-5.131,2.301-5.131,5.129v1.109l-5.64-1.5c-1.118-0.293-2.31,0.403-2.601,1.51
	l-0.262,0.979h-1.014c-1.172,0-2.126,0.955-2.126,2.127v9.678l-2.487,9.354c-0.146,0.549-0.07,1.123,0.215,1.612
	c0.287,0.492,0.746,0.845,1.295,0.988l0.979,0.262v1.013c0,1.172,0.954,2.127,2.126,2.127h9.677l9.355,2.487
	c0.179,0.048,0.362,0.07,0.548,0.07c0.961,0,1.807-0.647,2.055-1.58l0.262-0.979h1.012c1.173,0,2.127-0.955,2.127-2.127v-9.676
	l2.488-9.355C41.214,19.207,41.138,18.635,40.853,18.143z M25.061,11.656c0-1.725,1.405-3.129,3.131-3.129s3.131,1.404,3.131,3.129
	v2.098h-4.547l-1.715-0.455V11.656z M33.248,41.379c-0.019,0.064-0.076,0.094-0.122,0.094l-22.17-5.893l-0.09-0.154l5.889-22.139
	c0.016-0.059,0.066-0.088,0.139-0.088c0.006,0,0.012,0,0.017,0l14.414,3.834v4.574c0,1.727-1.404,3.133-3.131,3.133
	s-3.131-1.406-3.131-3.133v-2.435c0-0.553-0.447-1-1-1s-1,0.447-1,1v2.435c0,2.83,2.301,5.133,5.131,5.133
	c2.828,0,5.131-2.303,5.131-5.133v-4.041l5.724,1.521l0.089,0.154L33.248,41.379z"/>
</svg>
