<?xml version="1.0" encoding="utf-8"?>
<!-- Generator: Adobe Illustrator 16.0.0, SVG Export Plug-In . SVG Version: 6.00 Build 0)  -->
<!DOCTYPE svg PUBLIC "-//W3C//DTD SVG 1.1//EN" "http://www.w3.org/Graphics/SVG/1.1/DTD/svg11.dtd">
<svg version="1.1" id="Layer_1" xmlns="http://www.w3.org/2000/svg" xmlns:xlink="http://www.w3.org/1999/xlink" x="0px" y="0px"
	 width="50px" height="50px" viewBox="0 0 50 50" enable-background="new 0 0 50 50" xml:space="preserve">
<path d="M32.941,32.791c0-1.94,1.379-2.97,3.08-2.97c1.699,0,3.078,1.027,3.078,2.97c0,1.94-1.379,4.056-3.078,4.056
	C34.32,36.847,32.941,34.731,32.941,32.791z M41.093,42.742l0.044-3.608c0.002-0.361-0.139-0.709-0.394-0.966
	s-0.601-0.399-0.961-0.399h-2.921h-1.685H32.26c-0.746,0-1.354,0.604-1.354,1.354l-0.002,3.621L41.093,42.742L41.093,42.742z
	 M25,36.847c1.701,0,3.079-2.114,3.079-4.056c0-1.94-1.378-2.97-3.079-2.97s-3.079,1.027-3.079,2.97
	C21.921,34.731,23.299,36.847,25,36.847z M30.07,42.742l0.043-3.608c0.004-0.361-0.137-0.709-0.391-0.966
	c-0.256-0.257-0.602-0.399-0.963-0.399h-2.92h-1.686h-2.916c-0.746,0-1.354,0.604-1.354,1.354l-0.001,3.621L30.07,42.742
	L30.07,42.742z M13.979,36.847c1.701,0,3.08-2.114,3.08-4.056c0-1.94-1.379-2.97-3.08-2.97s-3.08,1.027-3.08,2.97
	C10.898,34.731,12.277,36.847,13.979,36.847z M19.051,42.742l0.043-3.608c0.004-0.361-0.138-0.709-0.393-0.966
	c-0.254-0.257-0.602-0.399-0.961-0.399h-2.922h-1.685h-2.916c-0.747,0-1.354,0.604-1.354,1.354v3.621L19.051,42.742L19.051,42.742z
	 M20.697,13.487c0.169,0.07,0.304,0.203,0.387,0.365c0.229-2.151,1.893-3.291,3.916-3.291s3.688,1.14,3.916,3.291
	c0.113-0.225,0.331-0.383,0.59-0.418C29.17,11.247,27.279,9.566,25,9.566c-2.257,0-4.131,1.647-4.496,3.802
	c0.023,0.002,0.046,0.003,0.068,0.011C20.628,13.399,20.669,13.438,20.697,13.487z M36.529,7.257H13.471
	c-1.904,0-3.449,1.543-3.449,3.447v13.578c0,1.904,1.545,3.447,3.449,3.447h23.061c1.904,0,3.447-1.543,3.447-3.447V10.704
	C39.979,8.8,38.436,7.257,36.529,7.257z M19.615,14.204c0-0.273,0.143-0.516,0.357-0.652c0.289-2.521,2.432-4.482,5.026-4.482
	s4.737,1.963,5.026,4.482c0.216,0.139,0.357,0.379,0.357,0.652v1.618c0,0.43-0.348,0.778-0.777,0.778
	c-0.431,0-0.777-0.35-0.777-0.778v-0.34c-0.422,2.118-1.975,4.086-3.829,4.086s-3.407-1.968-3.828-4.086v0.34
	c0,0.351-0.231,0.642-0.548,0.739c0.311,1.055,0.997,1.966,1.945,2.563c0.176-0.059,0.396-0.048,0.611,0.063
	c0.346,0.181,0.521,0.527,0.391,0.777c-0.131,0.248-0.516,0.305-0.86,0.125c-0.253-0.133-0.413-0.354-0.431-0.563
	c-1.088-0.694-1.858-1.762-2.178-2.986c-0.285-0.113-0.488-0.395-0.488-0.722v-1.616H19.615z M32.639,25.918H17.363v-2.241
	c0-1.059,0.912-2.36,2.027-2.891l2.479-1.179l1.722,3.587l0.881-2.389c0.174,0.033,0.348,0.076,0.527,0.076s0.354-0.043,0.527-0.076
	l0.836,2.272l1.688-3.511l2.559,1.218c1.117,0.528,2.029,1.832,2.029,2.892V25.918L32.639,25.918z"/>
</svg>
