<?xml version="1.0" encoding="utf-8"?>
<!-- Generator: Adobe Illustrator 16.0.0, SVG Export Plug-In . SVG Version: 6.00 Build 0)  -->
<!DOCTYPE svg PUBLIC "-//W3C//DTD SVG 1.1//EN" "http://www.w3.org/Graphics/SVG/1.1/DTD/svg11.dtd">
<svg version="1.1" id="Layer_1" xmlns="http://www.w3.org/2000/svg" xmlns:xlink="http://www.w3.org/1999/xlink" x="0px" y="0px"
	 width="50px" height="50px" viewBox="0 0 50 50" enable-background="new 0 0 50 50" xml:space="preserve">
<path d="M40.818,11.666H9.182v22.998h31.637V11.666z M39.26,32.325h-5.841v-0.963c0-1.168-1.007-2.604-2.233-3.188l-2.822-1.343
	l-1.858,3.869l-0.922-2.504c-0.192,0.036-0.383,0.084-0.582,0.084s-0.392-0.048-0.581-0.084l-0.973,2.633l-1.896-3.954l-2.734,1.299
	c-1.229,0.583-2.234,2.02-2.234,3.186v0.965h-5.841v-19.1h28.521v19.1H39.26z M43.125,35.604v2.729H6.875v-2.729h16.307v0.584h3.639
	v-0.584H43.125z M19.604,23.499c0.349,1.352,1.199,2.525,2.397,3.293c0.021,0.229,0.197,0.473,0.476,0.618
	c0.381,0.198,0.807,0.137,0.949-0.138c0.143-0.275-0.052-0.658-0.432-0.856c-0.234-0.123-0.479-0.135-0.674-0.069
	c-1.047-0.66-1.803-1.664-2.146-2.828c0.349-0.107,0.604-0.43,0.604-0.813V22.33c0.463,2.336,2.174,4.504,4.22,4.504
	s3.755-2.168,4.22-4.504v0.375c0,0.476,0.385,0.856,0.858,0.856c0.473,0,0.856-0.383,0.856-0.856v-1.784
	c0-0.302-0.158-0.568-0.395-0.721c-0.318-2.776-2.682-4.94-5.541-4.94c-2.861,0-5.223,2.164-5.543,4.94
	c-0.236,0.152-0.393,0.419-0.393,0.721v1.784C19.064,23.063,19.287,23.372,19.604,23.499z M25,15.808
	c2.514,0,4.596,1.854,4.968,4.267c-0.286,0.038-0.524,0.213-0.651,0.459c-0.252-2.372-2.086-3.627-4.315-3.627
	s-4.063,1.255-4.317,3.627c-0.092-0.179-0.238-0.323-0.426-0.402c-0.031-0.052-0.076-0.097-0.137-0.118
	c-0.027-0.011-0.053-0.011-0.077-0.013C20.445,17.624,22.514,15.808,25,15.808z"/>
</svg>
