<?xml version="1.0" encoding="utf-8"?>
<!-- Generator: Adobe Illustrator 16.0.0, SVG Export Plug-In . SVG Version: 6.00 Build 0)  -->
<!DOCTYPE svg PUBLIC "-//W3C//DTD SVG 1.1//EN" "http://www.w3.org/Graphics/SVG/1.1/DTD/svg11.dtd">
<svg version="1.1" id="Layer_1" xmlns="http://www.w3.org/2000/svg" xmlns:xlink="http://www.w3.org/1999/xlink" x="0px" y="0px"
	 width="50px" height="50px" viewBox="0 0 50 50" enable-background="new 0 0 50 50" xml:space="preserve">
<path d="M32.156,18.617c-0.411-3.587-3.463-6.383-7.156-6.383c-3.695,0-6.745,2.796-7.157,6.383
	c-0.306,0.197-0.509,0.539-0.509,0.93v2.305c0,0.467,0.288,0.863,0.695,1.027c0.451,1.744,1.551,3.263,3.099,4.252
	c0.024,0.295,0.253,0.609,0.613,0.8c0.491,0.256,1.041,0.176,1.225-0.179c0.187-0.354-0.063-0.85-0.556-1.105
	c-0.305-0.158-0.62-0.174-0.869-0.091c-1.352-0.854-2.33-2.149-2.771-3.651c0.451-0.141,0.779-0.556,0.779-1.053v-0.484
	c0.6,3.019,2.809,5.817,5.45,5.817s4.851-2.8,5.45-5.817v0.484c0,0.613,0.496,1.107,1.107,1.107s1.107-0.494,1.107-1.107v-2.305
	C32.666,19.156,32.463,18.814,32.156,18.617z M30.575,19.047c-0.326-3.064-2.695-4.686-5.575-4.686s-5.249,1.62-5.575,4.686
	c-0.118-0.231-0.312-0.418-0.551-0.521c-0.04-0.066-0.099-0.125-0.179-0.154c-0.031-0.012-0.064-0.012-0.098-0.016
	c0.521-3.066,3.188-5.413,6.401-5.413c3.245,0,5.937,2.396,6.415,5.511C31.046,18.5,30.736,18.728,30.575,19.047z M38.875,8.938
	h-27.75c-2.895,0-5.25,2.355-5.25,5.25v17.25c0,2.895,2.355,5.25,5.25,5.25h7.625v1.375H16c-0.828,0-1.5,0.672-1.5,1.5
	s0.672,1.5,1.5,1.5h18c0.828,0,1.5-0.672,1.5-1.5s-0.672-1.5-1.5-1.5h-2.75v-1.375h7.625c2.895,0,5.25-2.355,5.25-5.25v-17.25
	C44.125,11.293,41.77,8.938,38.875,8.938z M41.625,31.438c0,0.216-0.031,0.424-0.078,0.625h-5.844
	c-0.393-1.26-1.457-2.548-2.717-3.145l-3.645-1.734l-2.345,4.879h-0.103l-1.146-3.117c-0.248,0.049-0.493,0.109-0.751,0.109
	s-0.504-0.063-0.751-0.109L23.1,32.063h-0.24l-2.313-4.823l-3.532,1.679c-1.259,0.598-2.324,1.886-2.717,3.146H8.454
	c-0.047-0.201-0.078-0.409-0.078-0.625v-17.25c0-1.517,1.233-2.75,2.75-2.75h27.75c1.517,0,2.75,1.233,2.75,2.75L41.625,31.438
	L41.625,31.438z"/>
</svg>
