<?xml version="1.0" encoding="utf-8"?>
<!-- Generator: Adobe Illustrator 16.0.0, SVG Export Plug-In . SVG Version: 6.00 Build 0)  -->
<!DOCTYPE svg PUBLIC "-//W3C//DTD SVG 1.1//EN" "http://www.w3.org/Graphics/SVG/1.1/DTD/svg11.dtd">
<svg version="1.1" id="Layer_1" xmlns="http://www.w3.org/2000/svg" xmlns:xlink="http://www.w3.org/1999/xlink" x="0px" y="0px"
	 width="50px" height="50px" viewBox="0 0 50 50" enable-background="new 0 0 50 50" xml:space="preserve">
<path d="M10.882,38.182h28.237v3.351H10.882V38.182z M37.842,28.971h-4.466c-0.685,0-1.319-0.369-1.66-0.961l-1.306-2.271H19.591
	l-1.307,2.271c-0.34,0.591-0.976,0.959-1.66,0.959h-4.307c-0.575,0-1.085-0.26-1.436-0.661v8.917h28.237v-8.753
	C38.779,28.778,38.334,28.971,37.842,28.971z M10.882,25.738v0.063c0.018-0.021,0.033-0.043,0.052-0.063H10.882z M12.318,28.013
	h4.307c0.343,0,0.659-0.184,0.83-0.48l5.25-9.125c0.15-0.262,0.168-0.579,0.049-0.855c-0.119-0.276-0.362-0.481-0.656-0.553
	c-2.427-0.584-4.057-1.847-4.058-3.14c0-1.644,2.859-3.475,6.959-3.475c4.101-0.001,6.959,1.83,6.959,3.475
	c0,1.294-1.631,2.556-4.058,3.141c-0.295,0.07-0.537,0.275-0.655,0.553c-0.119,0.276-0.103,0.594,0.05,0.854l5.25,9.125
	c0.171,0.298,0.487,0.48,0.83,0.48h4.466c0.528,0,0.958-0.43,0.958-0.957c0-0.529-0.429-0.958-0.958-0.958h-3.913l-4.369-7.596
	c2.656-0.948,4.313-2.693,4.313-4.644c0-3.022-3.897-5.39-8.874-5.39c-4.976,0-8.874,2.367-8.873,5.389
	c0,1.949,1.656,3.695,4.315,4.644l-4.371,7.596h-3.754c-0.529,0.001-0.958,0.43-0.958,0.958
	C11.36,27.583,11.789,28.013,12.318,28.013z"/>
</svg>
