<?xml version="1.0" encoding="utf-8"?>
<!-- Generator: Adobe Illustrator 16.0.0, SVG Export Plug-In . SVG Version: 6.00 Build 0)  -->
<!DOCTYPE svg PUBLIC "-//W3C//DTD SVG 1.1//EN" "http://www.w3.org/Graphics/SVG/1.1/DTD/svg11.dtd">
<svg version="1.1" id="Layer_1" xmlns="http://www.w3.org/2000/svg" xmlns:xlink="http://www.w3.org/1999/xlink" x="0px" y="0px"
	 width="50px" height="50px" viewBox="0 0 50 50" enable-background="new 0 0 50 50" xml:space="preserve">
<path d="M44.318,23.796c0-7.702-6.267-13.969-13.967-13.969c-3.576,0-6.83,1.36-9.304,3.578c-0.743-0.229-1.549-0.353-2.392-0.353
	c-3.701,0-6.701,2.242-6.701,6.467c0,4.224,3,8.832,6.701,8.832s6.703-4.606,6.703-8.832c0-0.927-0.152-1.752-0.416-2.486
	c1.482-1.189,3.361-1.905,5.406-1.905c4.778,0,8.666,3.887,8.666,8.667c0,4.71-3.779,8.547-8.467,8.656
	c-0.617-0.853-1.449-1.599-2.363-2.032l-4.35-2.068l-2.865,5.963l-1.421-3.86c-0.295,0.056-0.589,0.131-0.894,0.131
	c-0.309,0-0.602-0.075-0.896-0.131l-1.496,4.058l-2.926-6.093l-4.214,2.002C7.23,31.32,5.682,33.532,5.682,35.33v4.843h25.946
	v-2.478C38.732,37.044,44.318,31.066,44.318,23.796z M31.631,35.361v-0.03c0-0.681-0.223-1.421-0.604-2.127
	c4.891-0.351,8.767-4.431,8.767-9.407c0-5.207-4.237-9.443-9.442-9.443c-2.154,0-4.134,0.732-5.726,1.95
	c-0.351-0.676-0.813-1.248-1.37-1.715c1.965-1.52,4.424-2.433,7.096-2.433c6.42,0,11.641,5.222,11.641,11.641
	C41.991,29.781,37.449,34.723,31.631,35.361z M28.09,29.587c-0.238,0-0.477-0.091-0.658-0.272c-0.365-0.364-0.365-0.955,0-1.319
	l2.658-2.658v-4.89c0-0.514,0.416-0.932,0.932-0.932c0.517,0,0.933,0.418,0.933,0.932v5.275c0,0.247-0.097,0.485-0.272,0.659
	l-2.932,2.931C28.568,29.496,28.331,29.587,28.09,29.587z"/>
</svg>
