<?xml version="1.0" encoding="utf-8"?>
<!-- Generator: Adobe Illustrator 16.0.0, SVG Export Plug-In . SVG Version: 6.00 Build 0)  -->
<!DOCTYPE svg PUBLIC "-//W3C//DTD SVG 1.1//EN" "http://www.w3.org/Graphics/SVG/1.1/DTD/svg11.dtd">
<svg version="1.1" id="Layer_1" xmlns="http://www.w3.org/2000/svg" xmlns:xlink="http://www.w3.org/1999/xlink" x="0px" y="0px"
	 width="50px" height="50px" viewBox="0 0 50 50" enable-background="new 0 0 50 50" xml:space="preserve">
<path d="M8.481,36.991c-3.304,0-5.889-4.022-5.889-7.757s2.585-5.745,5.889-5.745s5.889,2.011,5.889,5.745
	S11.785,36.991,8.481,36.991z M25,15.445c-4.884,0-8.762,3.017-8.762,8.475S20.116,35.411,25,35.411s8.762-6.033,8.762-11.491
	C33.762,18.318,29.884,15.445,25,15.445z M37.354,37.997l-5.603-2.729l-3.734,7.757l-1.868-5.027
	c-0.43,0.144-0.718,0.144-1.148,0.144c-0.431,0-0.718-0.144-1.149-0.144l-2.011,5.314l-3.734-7.9l-5.458,2.586
	c-2.442,1.148-4.453,4.021-4.453,6.319v3.735h33.755v-3.735C41.806,42.162,39.795,39.289,37.354,37.997z M41.519,23.489
	c-3.304,0-5.89,2.011-5.89,5.745s2.586,7.757,5.89,7.757s5.89-4.022,5.89-7.757S44.822,23.489,41.519,23.489z M15.622,16.186
	c-0.005-1.256-0.01-2.73-0.003-2.778c0.32-2.329,4.7-3.878,9.376-3.878c4.677,0,9.056,1.549,9.376,3.878
	c0.006,0.048,0.002,1.522-0.004,2.778h14.626c0.006-1.29,0.011-2.828,0.002-2.898c-0.18-6.276-11.39-11.339-24-11.339
	c-12.486,0-23.58,4.963-23.972,11.152C1.004,13.206,1,14.839,1,16.186H15.622z M34.363,17.15c-0.002,0.471-0.004,0.793-0.004,0.793
	c0,1.732,1.405,3.137,3.138,3.137h8.384c1.732,0,3.104-1.404,3.104-3.137c0,0,0.002-0.321,0.004-0.793H34.363z M1,17.15
	c0,0.491,0.001,0.823,0.001,0.823c0,1.732,1.375,3.106,3.107,3.106h8.384c1.732,0,3.137-1.404,3.137-3.137
	c0,0-0.001-0.322-0.003-0.793H1z"/>
</svg>
