<?xml version="1.0" encoding="utf-8"?>
<!-- Generator: Adobe Illustrator 16.0.0, SVG Export Plug-In . SVG Version: 6.00 Build 0)  -->
<!DOCTYPE svg PUBLIC "-//W3C//DTD SVG 1.1//EN" "http://www.w3.org/Graphics/SVG/1.1/DTD/svg11.dtd">
<svg version="1.1" id="Layer_1" xmlns="http://www.w3.org/2000/svg" xmlns:xlink="http://www.w3.org/1999/xlink" x="0px" y="0px"
	 width="50px" height="50px" viewBox="0 0 50 50" enable-background="new 0 0 50 50" xml:space="preserve">
<path d="M29.301,23.7c-0.666,0.653-1.738,0.646-2.395-0.022l-4.623-4.705v23.272c0,1.246-1.011,2.258-2.258,2.258
	c-0.787,0-1.478-0.403-1.881-1.014c-0.404,0.61-1.095,1.014-1.882,1.014c-1.247,0-2.257-1.012-2.257-2.258V29.725
	c-0.178,0.063-0.366,0.103-0.564,0.103c-0.935,0-1.693-0.759-1.693-1.692V17.13c0-0.935,0.758-1.692,1.693-1.692h3.649l0.639,0.852
	l-1.172,6.636l1.587,1.496l1.586-1.496l-1.171-6.636l0.639-0.852h3.649c0.454,0,0.889,0.183,1.208,0.506l5.267,5.363
	C29.979,21.973,29.969,23.045,29.301,23.7z M18.145,14.285c2.127,0,3.851-2.646,3.851-5.073c0-2.429-1.724-3.715-3.851-3.715
	c-2.128,0-3.852,1.286-3.852,3.715S16.017,14.285,18.145,14.285z M38.252,27.261v12.78c0,0.23-0.188,0.417-0.418,0.417H25.055
	c-0.23,0-0.417-0.187-0.417-0.417v-12.78c0-0.229,0.187-0.417,0.417-0.417h12.779C38.064,26.844,38.252,27.029,38.252,27.261z
	 M36.879,30.439c-0.406-0.404-1.063-0.404-1.469,0l-4.324,4.324l-2.08-2.08c-0.405-0.406-1.063-0.406-1.469,0
	c-0.406,0.404-0.406,1.063,0,1.467l2.813,2.816c0.405,0.404,1.063,0.405,1.469,0l5.058-5.059
	C37.285,31.503,37.285,30.846,36.879,30.439z"/>
</svg>
