<?xml version="1.0" encoding="utf-8"?>
<!-- Generator: Adobe Illustrator 16.0.0, SVG Export Plug-In . SVG Version: 6.00 Build 0)  -->
<!DOCTYPE svg PUBLIC "-//W3C//DTD SVG 1.1//EN" "http://www.w3.org/Graphics/SVG/1.1/DTD/svg11.dtd">
<svg version="1.1" id="Layer_1" xmlns="http://www.w3.org/2000/svg" xmlns:xlink="http://www.w3.org/1999/xlink" x="0px" y="0px"
	 width="50px" height="50px" viewBox="0 0 50 50" enable-background="new 0 0 50 50" xml:space="preserve">
<path d="M33.912,45.414v-2.477h-2.949c-3.194,0-3.415-5.068-3.415-5.068s-2.21,0.248-2.278-0.654
	c-0.161-2.094,1.571-4.18,1.571-4.18c-0.044-1.582-0.063-3.656-0.044-4.846c0.031-2.121,2.828-3.169,3.748-3.208
	c2.223-0.093,5.803-0.047,7.518-0.019v20.45h-4.15V45.414z M15.115,45.414v-2.477h2.949c3.194,0,3.415-5.068,3.415-5.068
	s2.21,0.248,2.278-0.654c0.16-2.094-1.571-4.18-1.571-4.18c0.044-1.582,0.063-3.656,0.044-4.846
	c-0.031-2.121-2.828-3.169-3.748-3.208c-2.223-0.093-5.803-0.047-7.518-0.019v20.45h4.15V45.414z M38.887,21.057
	c-0.426-1.07-1.637-1.592-2.707-1.166c-1.068,0.426-1.59,1.637-1.165,2.706c0.426,1.069,1.638,1.591,2.706,1.166
	C38.791,23.337,39.313,22.125,38.887,21.057z M12.933,19.84c-1.013,0-1.832,0.82-1.832,1.832s0.819,1.832,1.832,1.832
	s1.832-0.82,1.832-1.832S13.945,19.84,12.933,19.84z M14.852,22.965c-0.438,0-0.793,0.354-0.793,0.79
	c0,0.438,0.354,0.792,0.793,0.792c0.436,0,0.79-0.354,0.79-0.792C15.642,23.319,15.287,22.965,14.852,22.965z M34.246,22.459
	c-0.19-0.479-0.732-0.709-1.207-0.521c-0.478,0.189-0.707,0.729-0.517,1.207c0.19,0.474,0.731,0.707,1.208,0.518
	C34.205,23.473,34.438,22.934,34.246,22.459z M24.326,11.826c-1.338,0-2.424,1.084-2.424,2.422s1.086,2.422,2.424,2.422
	s2.422-1.084,2.422-2.422S25.662,11.826,24.326,11.826z M36.146,15.772c0,2.779-2.253,5.033-5.033,5.033H17.914
	c-2.78,0-5.033-2.254-5.033-5.033c0-2.16,1.363-3.998,3.273-4.711c-0.015-0.144-0.021-0.287-0.021-0.435
	c0-2.281,1.85-4.131,4.131-4.131c0.835,0,1.611,0.251,2.262,0.677c1.207-1.568,3.098-2.586,5.231-2.586c3.645,0,6.6,2.955,6.6,6.6
	c0,0.237-0.014,0.474-0.039,0.705C35.436,12.813,36.146,14.209,36.146,15.772z M28.424,13.27H27.82
	c-0.078-0.283-0.189-0.554-0.332-0.804l0.426-0.426l-1.383-1.384l-0.426,0.426c-0.251-0.141-0.521-0.252-0.803-0.331v-0.603h-1.956
	v0.603c-0.284,0.079-0.554,0.19-0.804,0.331l-0.426-0.426l-1.385,1.384l0.426,0.426c-0.141,0.25-0.252,0.521-0.33,0.804h-0.604
	v1.957h0.604c0.078,0.281,0.189,0.551,0.33,0.803l-0.426,0.425l1.385,1.384l0.426-0.425c0.25,0.141,0.52,0.252,0.804,0.331v0.603
	h1.956v-0.603c0.281-0.079,0.552-0.19,0.803-0.331l0.426,0.425l1.383-1.384l-0.426-0.425c0.143-0.252,0.254-0.521,0.332-0.803h0.604
	V13.27z M34.805,15.772c0-1.104-0.489-2.143-1.344-2.848l-0.555-0.46l0.076-0.718c0.02-0.186,0.03-0.371,0.03-0.561
	c0-2.899-2.358-5.258-5.257-5.258c-1.641,0-3.159,0.751-4.168,2.063l-0.004,0.005c0.91-0.707,2.024-1.103,3.207-1.103
	c2.897,0,5.258,2.357,5.258,5.258c0,0.188-0.012,0.375-0.031,0.56l-0.077,0.719l0.558,0.46c0.853,0.705,1.342,1.743,1.342,2.848
	c0,0.771-0.238,1.488-0.646,2.08C34.166,18.151,34.805,17.036,34.805,15.772z"/>
</svg>
