<?xml version="1.0" encoding="utf-8"?>
<!-- Generator: Adobe Illustrator 16.0.0, SVG Export Plug-In . SVG Version: 6.00 Build 0)  -->
<!DOCTYPE svg PUBLIC "-//W3C//DTD SVG 1.1//EN" "http://www.w3.org/Graphics/SVG/1.1/DTD/svg11.dtd">
<svg version="1.1" id="Layer_1" xmlns="http://www.w3.org/2000/svg" xmlns:xlink="http://www.w3.org/1999/xlink" x="0px" y="0px"
	 width="50px" height="50px" viewBox="0 0 50 50" enable-background="new 0 0 50 50" xml:space="preserve">
<path d="M29.615,24.115c0,2.908-2.066,6.082-4.616,6.082s-4.615-3.174-4.615-6.082c0-2.91,2.065-4.455,4.615-4.455
	S29.615,21.205,29.615,24.115z M40.811,28.374v-1.749h-2.67c-0.398,3.214-1.949,6.07-4.229,8.15
	c-1.978,1.805-4.499,3.016-7.287,3.361v2.676h1.749l-3.374,3.375l-3.374-3.375h1.749v-2.676c-2.788-0.347-5.309-1.558-7.287-3.361
	c-2.279-2.08-3.831-4.938-4.229-8.15H9.187v1.749L5.812,25l3.375-3.374v1.749h2.673c0.739-6.008,5.508-10.775,11.515-11.516V9.188
	h-1.749L25,5.813l3.374,3.375h-1.749v2.672c6.007,0.74,10.775,5.508,11.516,11.516h2.672v-1.749L44.188,25L40.811,28.374z
	 M36.705,25c0-6.455-5.251-11.707-11.706-11.707c-6.454,0-11.706,5.252-11.706,11.707c0,3.199,1.294,6.104,3.383,8.219
	c0.435-0.67,1.06-1.266,1.76-1.598l2.902-1.379l2.015,4.197l1.03-2.795c0.203,0.039,0.405,0.09,0.616,0.09
	c0.212,0,0.413-0.051,0.617-0.09l0.978,2.657l1.975-4.104l2.994,1.424c0.701,0.332,1.326,0.928,1.762,1.598
	C35.412,31.104,36.705,28.199,36.705,25z"/>
</svg>
