<?xml version="1.0" encoding="utf-8"?>
<!-- Generator: Adobe Illustrator 16.0.0, SVG Export Plug-In . SVG Version: 6.00 Build 0)  -->
<!DOCTYPE svg PUBLIC "-//W3C//DTD SVG 1.1//EN" "http://www.w3.org/Graphics/SVG/1.1/DTD/svg11.dtd">
<svg version="1.1" id="Layer_1" xmlns="http://www.w3.org/2000/svg" xmlns:xlink="http://www.w3.org/1999/xlink" x="0px" y="0px"
	 width="50px" height="50px" viewBox="0 0 50 50" enable-background="new 0 0 50 50" xml:space="preserve">
<path d="M40.563,11.563H9.438c-1.1,0-2,0.9-2,2v22.875c0,1.1,0.9,2,2,2h3.832v-1.563c-0.157,0.057-0.323,0.092-0.5,0.092
	c-0.829,0-1.5-0.672-1.5-1.5l0.001-9.475c0-0.83,0.672-1.5,1.5-1.5h3.232l0.565,0.754l-1.038,5.879l1.406,1.326l1.406-1.326
	l-1.038-5.879l0.565-0.754h3.009l7.241-2.237c0.795-0.243,1.633,0.199,1.877,0.99c0.244,0.792-0.199,1.631-0.99,1.876l-7.458,2.303
	c-0.144,0.045-0.293,0.068-0.443,0.068h-0.51c0.001,0.027,0.008,0.055,0.008,0.084v10.861h19.959c1.101,0,2-0.9,2-2V13.563
	C42.563,12.462,41.664,11.563,40.563,11.563z M16.938,23.472c-1.885,0-3.412-2.344-3.412-4.494c0-2.151,1.527-3.291,3.412-3.291
	c1.885,0,3.412,1.14,3.412,3.291C20.35,21.127,18.822,23.472,16.938,23.472z M29.953,19.352c0.024-2.704,2.223-4.888,4.932-4.888
	c0.08,0,0.156,0.008,0.236,0.012v4.876H29.953z M35.613,25.034c-2.727,0-4.936-2.209-4.936-4.935c0-0.016,0.003-0.032,0.003-0.047
	h5.168v-4.877c2.614,0.124,4.7,2.278,4.7,4.924C40.549,22.825,38.338,25.034,35.613,25.034z"/>
</svg>
