<?xml version="1.0" encoding="utf-8"?>
<!-- Generator: Adobe Illustrator 16.0.0, SVG Export Plug-In . SVG Version: 6.00 Build 0)  -->
<!DOCTYPE svg PUBLIC "-//W3C//DTD SVG 1.1//EN" "http://www.w3.org/Graphics/SVG/1.1/DTD/svg11.dtd">
<svg version="1.1" id="Layer_1" xmlns="http://www.w3.org/2000/svg" xmlns:xlink="http://www.w3.org/1999/xlink" x="0px" y="0px"
	 width="50px" height="50px" viewBox="0 0 50 50" enable-background="new 0 0 50 50" xml:space="preserve">
<path d="M38.334,7.585H15c-0.829,0-1.5,0.672-1.5,1.5V14.5h-1.833c-0.829,0-1.5,0.672-1.5,1.5s0.671,1.5,1.5,1.5H13.5v6h-1.833
	c-0.829,0-1.5,0.672-1.5,1.5s0.671,1.5,1.5,1.5H13.5v6h-1.833c-0.829,0-1.5,0.672-1.5,1.5s0.671,1.5,1.5,1.5H13.5v5.415
	c0,0.828,0.671,1.5,1.5,1.5h23.334c0.828,0,1.5-0.672,1.5-1.5V9.085C39.834,8.257,39.162,7.585,38.334,7.585z M36.834,39.415H16.5
	V35.5h0.834c0.829,0,1.5-0.672,1.5-1.5s-0.671-1.5-1.5-1.5H16.5v-6h0.834c0.829,0,1.5-0.672,1.5-1.5s-0.671-1.5-1.5-1.5H16.5v-6
	h0.834c0.829,0,1.5-0.672,1.5-1.5s-0.671-1.5-1.5-1.5H16.5v-3.915h20.334V39.415z M20.993,27.896
	c-0.226-0.678-0.338-1.394-0.338-2.148c0-0.902,0.171-1.771,0.515-2.604c0.343-0.834,0.829-1.565,1.457-2.192
	c0.5-0.501,1.042-0.905,1.626-1.216c0.583-0.309,1.194-0.516,1.832-0.625c0.383-0.059,0.779-0.088,1.191-0.088
	c0.991,0,1.893,0.151,2.708,0.457c0.599,0.227,1.167,0.565,1.707,1.021s0.988,0.961,1.347,1.516
	c0.357,0.556,0.639,1.149,0.846,1.789c0.205,0.637,0.309,1.283,0.309,1.94c0,0.696-0.121,1.392-0.359,2.082
	c-0.242,0.69-0.558,1.321-0.949,1.892c-0.354,0.479-0.782,0.924-1.288,1.331c-0.507,0.407-1.042,0.724-1.611,0.948
	c-0.834,0.334-1.692,0.5-2.575,0.5c-0.549,0-1.068-0.057-1.56-0.169c-0.49-0.112-0.899-0.255-1.228-0.427s-0.586-0.399-0.772-0.685
	c-0.186-0.284-0.28-0.595-0.28-0.927c0-0.216,0.037-0.417,0.11-0.604c0.074-0.188,0.185-0.369,0.331-0.545
	c-0.068-0.168-0.115-0.318-0.14-0.457c-0.024-0.137-0.037-0.313-0.037-0.528c0-0.296,0.042-0.634,0.125-1.017
	c0.083-0.382,0.184-0.76,0.302-1.133c0.196-0.686,0.534-1.437,1.015-2.251c0.412-0.696,0.882-1.378,1.412-2.045
	c0.196-0.245,0.458-0.456,0.787-0.632c0.329-0.178,0.679-0.266,1.052-0.266c0.206,0,0.421,0.028,0.646,0.088
	c0,0.205-0.01,0.404-0.029,0.601c-0.02,0.192-0.061,0.404-0.125,0.628c-0.063,0.225-0.143,0.442-0.234,0.651
	c-0.094,0.21-0.209,0.401-0.347,0.577c-0.049,0-0.123,0-0.222,0c-0.176,0-0.34,0.035-0.492,0.104
	c-0.152,0.069-0.287,0.191-0.405,0.367c-0.304,0.49-0.466,0.751-0.485,0.779c-0.059,0.108-0.156,0.285-0.293,0.529
	c-0.188,0.363-0.33,0.692-0.427,0.985c-0.098,0.295-0.147,0.575-0.147,0.84c0,0.177,0.029,0.32,0.089,0.435
	c0.06,0.111,0.157,0.229,0.294,0.346c-0.069,0.372-0.25,0.74-0.544,1.104c-0.118,0.187-0.285,0.383-0.5,0.588
	c-0.216,0.207-0.392,0.336-0.53,0.385c-0.059-0.021-0.125-0.063-0.198-0.127c-0.074-0.063-0.14-0.123-0.199-0.184
	c-0.098,0.127-0.165,0.237-0.199,0.331c-0.035,0.093-0.051,0.203-0.051,0.33c0,0.513,0.294,0.927,0.882,1.244
	c0.589,0.317,1.388,0.478,2.398,0.478c1.227,0,2.372-0.356,3.436-1.072c1.064-0.717,1.818-1.629,2.259-2.736
	c0.274-0.697,0.412-1.447,0.412-2.251c0-0.825-0.154-1.628-0.464-2.414c-0.309-0.784-0.744-1.461-1.309-2.028
	c-0.564-0.568-1.23-1.004-2-1.304c-0.771-0.299-1.582-0.448-2.437-0.448c-0.794,0-1.544,0.141-2.251,0.42
	c-0.706,0.278-1.368,0.729-1.986,1.346c-0.618,0.617-1.061,1.283-1.331,1.994s-0.405,1.487-0.405,2.332
	c0,0.774,0.108,1.48,0.324,2.117c0.059,0.217,0.159,0.454,0.302,0.715c0.142,0.26,0.312,0.531,0.508,0.815
	c0,0.089-0.024,0.167-0.074,0.235c-0.049,0.068-0.118,0.104-0.206,0.104c-0.059,0-0.108-0.009-0.147-0.029
	C21.566,29.172,21.217,28.573,20.993,27.896z M28.73,23.48c0.305-0.381,0.516-0.797,0.633-1.25c0.049-0.205,0.088-0.414,0.118-0.625
	c0.028-0.209,0.043-0.408,0.043-0.596c0.235,0.09,0.412,0.188,0.53,0.303c0.117,0.111,0.177,0.281,0.177,0.508
	c0,0.187-0.044,0.437-0.132,0.75s-0.169,0.531-0.243,0.654c-0.073,0.123-0.159,0.217-0.257,0.279S29.385,23.6,29.246,23.6
	c-0.067,0-0.154-0.013-0.257-0.037C28.885,23.539,28.799,23.512,28.73,23.48z M26.937,28.176c0.106,0.129,0.162,0.26,0.162,0.397
	c0,0.137-0.044,0.306-0.132,0.507s-0.189,0.384-0.303,0.545c-0.113,0.162-0.256,0.307-0.434,0.434
	c-0.177,0.129-0.329,0.191-0.456,0.191s-0.245-0.021-0.353-0.064c-0.108-0.045-0.226-0.102-0.354-0.17
	c0.177-0.099,0.363-0.24,0.56-0.428c0.195-0.188,0.359-0.377,0.492-0.572c0.133-0.197,0.233-0.373,0.303-0.531
	c0.068-0.156,0.132-0.354,0.19-0.588C26.77,28.004,26.877,28.098,26.937,28.176z"/>
</svg>
