<?xml version="1.0" encoding="utf-8"?>
<!-- Generator: Adobe Illustrator 16.0.0, SVG Export Plug-In . SVG Version: 6.00 Build 0)  -->
<!DOCTYPE svg PUBLIC "-//W3C//DTD SVG 1.1//EN" "http://www.w3.org/Graphics/SVG/1.1/DTD/svg11.dtd">
<svg version="1.1" id="Layer_1" xmlns="http://www.w3.org/2000/svg" xmlns:xlink="http://www.w3.org/1999/xlink" x="0px" y="0px"
	 width="50px" height="50px" viewBox="0 0 50 50" enable-background="new 0 0 50 50" xml:space="preserve">
<path d="M20.6,11.4C20.6,6.6,25,1,25,1s4.4,5.6,4.4,10.4c0,4.8-4.4,6.8-4.4,6.8S20.6,16.1,20.6,11.4z M15.2,23.7
	c3.8,2.8,8.1,0.6,8.1,0.6s0.9-4.8-2.9-7.6C16.6,13.9,9.5,14,9.5,14S11.4,20.9,15.2,23.7z M47.5,24.5v12.4c0,1.5-0.7,3-1.9,3.9
	l-9.4,6.7c-1.3,1-3,1.5-4.6,1.5c-0.4,0-0.9,0-1.3-0.1c-2.1-0.3-4-1.5-5.2-3.2c-1.2,1.8-3.1,2.9-5.2,3.2C19.4,49,18.9,49,18.5,49
	c-1.6,0-3.3-0.4-4.6-1.5l-9.4-6.7c-1.2-0.9-1.9-2.4-1.9-3.9V24.5c0-2.7,2.1-4.8,4.8-4.8c2.7,0,4.8,2.1,4.8,4.8v4.8
	c0.7-0.3,1.3-0.4,2.1-0.4c1,0,2.1,0.3,2.8,0.9l6.4,4.6c0.6,0.5,1.2,0.9,1.6,1.5c0.4-0.5,1-1,1.6-1.5l0,0V24.1
	c-0.1-1-0.4-4.9,2.9-7.4c3.8-2.8,10.9-2.7,10.9-2.7s-1.9,6.9-5.7,9.7c-2.7,2-5.7,1.5-7.1,1v8.9l5.4-3.9c0.7-0.6,1.8-0.9,2.8-0.9
	c0.7,0,1.3,0.1,2.1,0.4v-4.8c0-2.7,2.1-4.8,4.8-4.8C45.4,19.7,47.5,21.8,47.5,24.5z M24.7,39.7c-0.1-1.5-1-3-2.4-3.9l-6.4-4.6
	c-1.2-0.9-2.8-0.6-3.7,0.6c-0.9,1.2-0.6,2.8,0.6,3.7l4.9,3.1C18,38.8,18,39,18,39.1s0,0.3-0.1,0.4c-0.1,0.3-0.3,0.3-0.4,0.3
	c-0.1,0-0.3,0-0.4-0.1l-6.7-4.3V24.5c0-1.5-1.2-2.7-2.7-2.7c-1.5,0-2.7,1.2-2.7,2.7v12.4c0,0.9,0.4,1.8,1.2,2.2l9.4,6.7
	c1,0.6,2.2,1,3.4,1c0.3,0,0.7-0.2,1-0.2c1.5-0.1,3-1,3.9-2.4C24.7,43,25,41.4,24.7,39.7z M45.1,24.5c0-1.5-1.2-2.7-2.7-2.7
	c-1.5,0-2.7,1.2-2.7,2.7v10.9L33,39.7c-0.1,0.1-0.3,0.1-0.4,0.1c-0.1,0-0.3,0-0.4-0.3C32,39.4,32,39.3,32,39.1s0-0.3,0.3-0.4
	l4.9-3.1c1.2-0.9,1.5-2.5,0.6-3.7c-0.9-1.2-2.5-1.5-3.7-0.6l-6.4,4.6c-1.3,0.9-2.2,2.4-2.4,3.9c-0.3,1.6,0,3.3,0.9,4.6
	c0.9,1.3,2.4,2.2,3.9,2.4c0.3,0,0.7,0.2,1,0.2c1.2,0,2.4-0.4,3.4-1l9.4-6.7c0.7-0.4,1.2-1.3,1.2-2.2V24.5z"/>
</svg>
