<?xml version="1.0" encoding="utf-8"?>
<!-- Generator: Adobe Illustrator 16.0.0, SVG Export Plug-In . SVG Version: 6.00 Build 0)  -->
<!DOCTYPE svg PUBLIC "-//W3C//DTD SVG 1.1//EN" "http://www.w3.org/Graphics/SVG/1.1/DTD/svg11.dtd">
<svg version="1.1" id="Layer_1" xmlns="http://www.w3.org/2000/svg" xmlns:xlink="http://www.w3.org/1999/xlink" x="0px" y="0px"
	 width="50px" height="50px" viewBox="0 0 50 50" enable-background="new 0 0 50 50" xml:space="preserve">
<path fill-rule="evenodd" clip-rule="evenodd" d="M19.491,14.037C19.491,8.054,25,1,25,1s5.509,7.054,5.509,13.037
	c0,5.983-5.509,8.63-5.509,8.63S19.491,20.021,19.491,14.037z M12.571,29.685c4.793,3.581,10.211,0.751,10.211,0.751
	s1.176-5.997-3.618-9.578c-4.793-3.581-13.741-3.389-13.741-3.389S7.778,26.104,12.571,29.685z M28.192,30.841
	c1.773,0.627,5.677,1.503,9.236-1.156c4.794-3.581,7.147-12.216,7.147-12.216s-8.947-0.191-13.74,3.389
	c-3.154,2.355-3.724,5.755-3.744,7.808H27.09v8.236h-0.049H7.219C7.219,43.607,15.235,49,25,49c9.766,0,17.781-5.393,17.781-12.098
	H28.192V30.841z"/>
</svg>
