<?xml version="1.0" encoding="utf-8"?>
<!-- Generator: Adobe Illustrator 16.0.0, SVG Export Plug-In . SVG Version: 6.00 Build 0)  -->
<!DOCTYPE svg PUBLIC "-//W3C//DTD SVG 1.1//EN" "http://www.w3.org/Graphics/SVG/1.1/DTD/svg11.dtd">
<svg version="1.1" id="Layer_1" xmlns="http://www.w3.org/2000/svg" xmlns:xlink="http://www.w3.org/1999/xlink" x="0px" y="0px"
	 width="50px" height="50px" viewBox="0 0 50 50" enable-background="new 0 0 50 50" xml:space="preserve">
<path d="M38.5,26.5c0.828,0,1.5-0.671,1.5-1.5s-0.672-1.5-1.5-1.5H38v-0.991h0.5c0.828,0,1.5-0.671,1.5-1.5
	c0-0.829-0.672-1.5-1.5-1.5H38V13c0-0.552-0.447-1-1-1h-6.509v-0.5c0-0.829-0.673-1.5-1.5-1.5c-0.828,0-1.5,0.671-1.5,1.5V12H26.5
	v-0.5c0-0.829-0.672-1.5-1.5-1.5s-1.5,0.671-1.5,1.5V12h-0.991v-0.5c0-0.829-0.672-1.5-1.5-1.5c-0.827,0-1.5,0.671-1.5,1.5V12H13
	c-0.553,0-1,0.448-1,1v6.509h-0.5c-0.828,0-1.5,0.671-1.5,1.5c0,0.829,0.672,1.5,1.5,1.5H12V23.5h-0.5c-0.828,0-1.5,0.671-1.5,1.5
	s0.672,1.5,1.5,1.5H12v0.991h-0.5c-0.828,0-1.5,0.671-1.5,1.5s0.672,1.5,1.5,1.5H12V37c0,0.552,0.447,1,1,1h6.509v0.5
	c0,0.829,0.673,1.5,1.5,1.5c0.828,0,1.5-0.671,1.5-1.5V38H23.5v0.5c0,0.829,0.672,1.5,1.5,1.5s1.5-0.671,1.5-1.5V38h0.991v0.5
	c0,0.829,0.672,1.5,1.5,1.5c0.827,0,1.5-0.671,1.5-1.5V38H37c0.553,0,1-0.448,1-1v-6.509h0.5c0.828,0,1.5-0.671,1.5-1.5
	s-0.672-1.5-1.5-1.5H38V26.5H38.5z M36,23.5h-2.167v-0.991H36V23.5z M36,14v5.509h-2.167v-1.842c0-0.829-0.672-1.5-1.5-1.5h-1.842
	V14H36z M27.491,14v2.167H26.5V14H27.491z M23.5,14v2.167h-0.991V14H23.5z M14,14h5.509v2.167h-1.842c-0.828,0-1.5,0.671-1.5,1.5
	v1.842H14V14z M14,22.509h2.167V23.5H14V22.509z M14,26.5h2.167v0.991H14V26.5z M14,36v-5.509h2.167v1.842
	c0,0.829,0.672,1.5,1.5,1.5h1.842V36H14z M22.509,36v-2.167H23.5V36H22.509z M26.5,36v-2.167h0.991V36H26.5z M36,36h-5.509v-2.167
	h1.842c0.828,0,1.5-0.671,1.5-1.5v-1.842H36V36z M36,27.491h-2.167V26.5H36V27.491z"/>
</svg>
