<?xml version="1.0" encoding="utf-8"?>
<!-- Generator: Adobe Illustrator 16.0.0, SVG Export Plug-In . SVG Version: 6.00 Build 0)  -->
<!DOCTYPE svg PUBLIC "-//W3C//DTD SVG 1.1//EN" "http://www.w3.org/Graphics/SVG/1.1/DTD/svg11.dtd">
<svg version="1.1" id="Layer_1" xmlns="http://www.w3.org/2000/svg" xmlns:xlink="http://www.w3.org/1999/xlink" x="0px" y="0px"
	 width="50px" height="50px" viewBox="0 0 50 50" enable-background="new 0 0 50 50" xml:space="preserve">
<path d="M27.562,8.333C21.46,9.446,15.966,12.704,8.618,9.417c0.096,0.333,0.189,0.667,0.283,1h-1.75l-0.141-0.5h-1l8.988,31.75h1
	L11.988,27.5h1.75c0.109,0.39,0.221,0.778,0.33,1.168c7.347,3.285,12.842,0.027,18.942-1.086
	C31.195,21.166,29.379,14.749,27.562,8.333z M15.806,11.842c2.07-0.046,4.032-0.473,5.971-0.983c0.521,1.833,1.039,3.667,1.559,5.5
	c-1.938,0.51-3.901,0.937-5.973,0.983C16.844,15.508,16.324,13.675,15.806,11.842z M11.776,26.75L7.364,11.167h1.75
	c1.472,5.194,2.941,10.389,4.412,15.583H11.776z M13.183,22.002c-0.508-1.792-1.017-3.583-1.522-5.375
	c2.046,0.751,3.951,1.005,5.773,0.964c0.507,1.792,1.015,3.583,1.521,5.375C17.135,23.007,15.229,22.753,13.183,22.002z
	 M26.661,28.108c-1.938,0.511-3.9,0.937-5.972,0.983c-0.519-1.834-1.038-3.667-1.558-5.5c2.069-0.046,4.032-0.473,5.972-0.983
	C25.623,24.442,26.142,26.275,26.661,28.108z M30.049,20.646c-1.728,0.375-3.414,0.889-5.121,1.337
	c-0.508-1.792-1.016-3.583-1.521-5.375c1.706-0.449,3.395-0.962,5.121-1.337C29.033,17.063,29.541,18.854,30.049,20.646z
	 M29.237,11.457c0.095,0.333,0.189,0.667,0.283,1c0.786-0.118,1.584-0.195,2.398-0.213c0.519,1.833,1.037,3.667,1.557,5.5
	c-0.814,0.018-1.611,0.095-2.397,0.213c0.591,2.083,1.181,4.167,1.771,6.25c0.786-0.118,1.584-0.195,2.396-0.213
	c0.521,1.833,1.039,3.667,1.559,5.5c-2.07,0.045-4.032,0.473-5.973,0.982c-0.121-0.432-0.243-0.861-0.364-1.292
	c-2.018,0.53-4.008,1.151-6.068,1.526c0.217,0.765,0.434,1.529,0.649,2.293c6.101-1.114,11.596-4.371,18.941-1.086
	c-1.815-6.416-3.634-12.833-5.45-19.25C35.12,11.139,32.103,11.026,29.237,11.457z M40.843,24.333
	c-2.046-0.751-3.951-1.005-5.773-0.964c-0.507-1.792-1.015-3.583-1.521-5.375c1.82-0.041,3.727,0.213,5.771,0.964
	C39.827,20.75,40.336,22.541,40.843,24.333z"/>
</svg>
