<?xml version="1.0" encoding="utf-8"?>
<!-- Generator: Adobe Illustrator 16.0.0, SVG Export Plug-In . SVG Version: 6.00 Build 0)  -->
<!DOCTYPE svg PUBLIC "-//W3C//DTD SVG 1.1//EN" "http://www.w3.org/Graphics/SVG/1.1/DTD/svg11.dtd">
<svg version="1.1" id="Layer_1" xmlns="http://www.w3.org/2000/svg" xmlns:xlink="http://www.w3.org/1999/xlink" x="0px" y="0px"
	 width="50px" height="50px" viewBox="0 0 50 50" enable-background="new 0 0 50 50" xml:space="preserve">
<path d="M15.918,25.795c-1.104,1.689-1.882,2.953-2.104,3.317c-1.917-1.196-3.694-0.2-3.694-0.2
	C12.114,26.853,14.363,26.082,15.918,25.795z M25.916,35.863c-1.688,1.104-2.941,1.872-3.285,2.084
	c1.158,1.9,0.179,3.655,0.179,3.655C24.842,39.633,25.621,37.416,25.916,35.863z M26.074,34.625
	c-2.32,1.536-4.013,2.565-4.013,2.565l-2.208-2.209l2.791-2.791c0.85-0.849,0.851-2.231,0-3.082c-0.85-0.851-2.233-0.851-3.082,0
	l-2.792,2.791l-2.208-2.208c0,0,1.039-1.707,2.587-4.049c2.823-4.262,7.345-10.623,10.411-12.615
	c4.749-3.081,11.246-0.083,11.246-0.083s3,6.5-0.082,11.248C36.729,27.268,30.338,31.807,26.074,34.625z M23.372,22.498
	c0.386-0.386,0.386-1.01,0-1.396s-1.01-0.386-1.396,0c-0.385,0.386-0.387,1.011,0,1.396C22.361,22.883,22.986,22.883,23.372,22.498z
	 M23.025,19.825c0.325,0.058,0.634,0.203,0.902,0.42c1.31-2.541,4.757-6.008,4.757-6.008C26.203,15.187,23.627,18.916,23.025,19.825
	z M30.699,29.441c0,0,2.982-2.537,5.984-5.539c3.402-3.4,0.652-9.484,0.652-9.484l-1.486,1.485c1.361,2.472,0.764,5.235-0.04,6.873
	C34.957,24.508,30.699,29.441,30.699,29.441z M21.978,29.775c-0.483-0.482-1.267-0.482-1.748,0l-3.75,3.749
	c-0.483,0.483-0.483,1.267,0,1.749s1.267,0.484,1.75,0.001l3.749-3.749C22.461,31.043,22.461,30.258,21.978,29.775z M19.827,37.096
	l-0.901,0.623l0.521-1.295c0,0-1.721,1.021-2.563,1.09l0.631-0.772c0,0-2.393,0.769-3.232,0.7c-0.068-0.842,0.7-3.232,0.7-3.232
	l-0.772,0.631c0.069-0.843,1.088-2.563,1.088-2.563l-1.293,0.521l0.621-0.903l-0.947-0.947c-0.456,0.808-1.09,2.703-1.09,2.703
	l0.949-0.035c-0.809,1.09-0.947,3.619-0.947,3.619l0.525-0.526c-0.281,0.633-0.104,2.004-0.104,2.004s1.371,0.178,2.004-0.104
	l-0.526,0.525c0,0,2.529-0.14,3.618-0.947l-0.035,0.947c0,0,1.896-0.631,2.704-1.088L19.827,37.096z M17.747,15.223
	c-0.063-0.045-0.13-0.084-0.2-0.119c-0.072-0.034-0.146-0.063-0.223-0.079c-0.193-0.052-0.428,0.085-0.701,0.405
	c-0.166,0.191-0.242,0.386-0.228,0.582c0.012,0.121,0.075,0.248,0.19,0.383c0.112,0.134,0.271,0.294,0.471,0.482l1.131-1.315
	c-0.047-0.037-0.117-0.091-0.208-0.164C17.887,15.324,17.81,15.266,17.747,15.223z M18.727,11.68l3.758,3.226
	c0.227,0.194,0.566,0.167,0.759-0.058c0.193-0.226,0.167-0.566-0.058-0.76l-3.76-3.225c-0.226-0.193-0.565-0.167-0.758,0.059
	C18.475,11.147,18.502,11.488,18.727,11.68z M19.717,10.756l3.533,3.029c0.227-0.027,0.49-0.179,0.668-0.342
	c0.398-0.361,1.607-1.137,1.402-1.634c-0.188-0.45-1.596,0.194-1.938-0.147c-0.264-0.262,0.166-1.232-0.113-1.475
	c-0.295-0.252-1.24,0.354-1.549,0.119c-0.385-0.293,0.1-1.775-0.367-1.899c-0.521-0.137-1.104,1.187-1.402,1.634
	C19.82,10.242,19.713,10.526,19.717,10.756z M17.483,18.687c-0.106-0.14-0.297-0.332-0.569-0.575l-1.181,1.376
	c0.376,0.324,0.665,0.505,0.869,0.543c0.104,0.007,0.209-0.007,0.315-0.039c0.104-0.032,0.234-0.137,0.389-0.315
	c0.184-0.213,0.283-0.396,0.306-0.549C17.633,18.973,17.59,18.828,17.483,18.687z M18.713,23.697
	c-0.006-0.076-0.029-0.146-0.058-0.212l4.138-4.824c0.301-0.35,0.432-0.993,0.293-1.433l-0.634-2.008
	c-0.042-0.029-0.086-0.06-0.127-0.096l-3.795-3.254c-0.041-0.035-0.076-0.074-0.112-0.111l-2.08-0.32
	c-0.455-0.069-1.072,0.158-1.371,0.507l-4.136,4.819c-0.085-0.021-0.178-0.027-0.272-0.02c-0.413,0.047-0.715,0.412-0.67,0.815
	s0.416,0.694,0.832,0.646c0.021-0.002,0.039-0.008,0.062-0.014l6.47,5.55c0,0.038-0.004,0.075,0.002,0.112
	c0.045,0.415,0.41,0.715,0.813,0.67C18.471,24.483,18.76,24.111,18.713,23.697z M16.592,21.16c-0.443-0.113-0.951-0.415-1.52-0.902
	l-0.439,0.513l-0.526-0.452l0.438-0.512c-0.342-0.293-0.613-0.571-0.82-0.829c-0.203-0.259-0.328-0.527-0.372-0.804
	c-0.043-0.283-0.007-0.541,0.108-0.771c0.118-0.23,0.32-0.518,0.612-0.855l0.821,0.705c-0.233,0.272-0.368,0.469-0.409,0.586
	c-0.044,0.142-0.051,0.266-0.017,0.371c0.031,0.104,0.104,0.219,0.218,0.34c0.17,0.174,0.343,0.338,0.519,0.487l1.182-1.376
	c-0.146-0.156-0.303-0.324-0.465-0.501c-0.166-0.178-0.304-0.343-0.414-0.5c-0.108-0.155-0.191-0.315-0.248-0.485
	c-0.055-0.164-0.071-0.342-0.049-0.524c0.037-0.29,0.211-0.616,0.521-0.979c0.407-0.473,0.784-0.742,1.139-0.806
	c0.323-0.058,0.637-0.001,0.938,0.169c0.298,0.169,0.645,0.422,1.039,0.762l0.404-0.474l0.526,0.451l-0.403,0.474
	c0.332,0.305,0.582,0.561,0.756,0.768c0.172,0.209,0.285,0.416,0.34,0.632c0.055,0.214,0.033,0.442-0.062,0.69
	c-0.097,0.246-0.278,0.528-0.554,0.846l-0.822-0.703c0.148-0.174,0.247-0.315,0.293-0.426c0.047-0.108,0.057-0.213,0.026-0.308
	c-0.032-0.096-0.081-0.183-0.146-0.257c-0.063-0.074-0.154-0.164-0.271-0.264c-0.115-0.104-0.19-0.172-0.226-0.211l-1.129,1.316
	c0.407,0.385,0.711,0.7,0.909,0.953c0.2,0.251,0.316,0.508,0.354,0.77c0.029,0.397-0.176,0.854-0.616,1.369
	C17.668,21.051,17.123,21.299,16.592,21.16z"/>
</svg>
