<?xml version="1.0" encoding="utf-8"?>
<!-- Generator: Adobe Illustrator 16.0.0, SVG Export Plug-In . SVG Version: 6.00 Build 0)  -->
<!DOCTYPE svg PUBLIC "-//W3C//DTD SVG 1.1//EN" "http://www.w3.org/Graphics/SVG/1.1/DTD/svg11.dtd">
<svg version="1.1" id="Layer_1" xmlns="http://www.w3.org/2000/svg" xmlns:xlink="http://www.w3.org/1999/xlink" x="0px" y="0px"
	 width="50px" height="50px" viewBox="0 0 50 50" enable-background="new 0 0 50 50" xml:space="preserve">
<path d="M32.77,10.176h-4.402l2.201-3.637L32.77,10.176z M36.143,23.895v16.217c0,1.85-1.498,3.35-3.348,3.35h-15.59
	c-1.85,0-3.348-1.5-3.348-3.35V23.895c0-1.842,1.486-3.334,3.324-3.348V8.406h9.021v12.139h2.114v-9.274h1.813v9.274h0.875v-9.274
	h1.813v9.276C34.654,20.561,36.143,22.053,36.143,23.895z M25.42,27.586l1.795,1.037l1.795-1.035v-2.074l-1.795-1.037l-1.795,1.037
	V27.586z M27.563,29.371v2.072l1.795,1.038l1.795-1.037v-2.073l-1.795-1.037L27.563,29.371z M22.785,28.623l1.795-1.035v-2.074
	l-1.795-1.037l-1.795,1.037v2.072L22.785,28.623z M20.5,28.334l-1.795,1.037v2.072l1.795,1.038l1.794-1.037v-2.073L20.5,28.334z
	 M23.134,31.443l1.796,1.038l1.795-1.037v-2.073l-1.795-1.037l-1.796,1.037V31.443z M18.184,20.545h7.02v-1.229h-1.385v-1h1.385
	V16.69h-1.385v-1h1.385v-1.625h-1.385v-1h1.385V11.44h-1.385v-1h1.385V9.407h-7.02V20.545z M16.563,27.586l1.795,1.037l1.795-1.035
	v-2.074l-1.795-1.037l-1.795,1.037V27.586z M18.355,36.338l1.795-1.037v-2.073l-1.795-1.037l-1.795,1.037v2.073L18.355,36.338z
	 M22.294,37.086L20.5,36.049l-1.795,1.035v2.073l1.795,1.039l1.794-1.036V37.086z M22.785,36.338l1.795-1.037v-2.073l-1.795-1.037
	l-1.795,1.037v2.073L22.785,36.338z M26.725,37.086l-1.795-1.037l-1.796,1.037v2.072l1.796,1.038l1.795-1.036V37.086z
	 M27.215,36.338l1.795-1.037v-2.073l-1.795-1.037l-1.795,1.037v2.073L27.215,36.338z M31.152,37.086l-1.795-1.037l-1.795,1.037
	v2.072l1.795,1.038l1.795-1.036V37.086z M33.438,33.228l-1.795-1.037l-1.795,1.037v2.073l1.795,1.037l1.795-1.037V33.228z
	 M33.438,25.513l-1.795-1.037l-1.795,1.037v2.071l1.795,1.039l1.795-1.037V25.513z"/>
</svg>
