<?xml version="1.0" encoding="utf-8"?>
<!-- Generator: Adobe Illustrator 16.0.0, SVG Export Plug-In . SVG Version: 6.00 Build 0)  -->
<!DOCTYPE svg PUBLIC "-//W3C//DTD SVG 1.1//EN" "http://www.w3.org/Graphics/SVG/1.1/DTD/svg11.dtd">
<svg version="1.1" id="Layer_1" xmlns="http://www.w3.org/2000/svg" xmlns:xlink="http://www.w3.org/1999/xlink" x="0px" y="0px"
	 width="50px" height="50px" viewBox="0 0 50 50" enable-background="new 0 0 50 50" xml:space="preserve">
<path d="M39.57,16.609l5.213-1.281l-1.281,5.213L39.57,16.609z M40.168,19.16l-1.617-1.617L15.158,40.936l1.619,1.619L40.168,19.16z
	 M40.951,19.941L17.557,43.336l1.618,1.619L42.568,21.56L40.951,19.941z M39.219,13.098L13.27,39.049l-8.053-8.053L31.168,5.045
	L39.219,13.098z M13.27,37.262l1.258-1.256l-1.235-1.236l0.894-0.893l1.235,1.236l1.451-1.451l-1.235-1.236l0.893-0.893l1.236,1.235
	l1.448-1.45l-1.233-1.236l0.893-0.893l1.234,1.235l1.451-1.451l-1.236-1.235l0.893-0.894l1.236,1.236l1.451-1.451l-1.236-1.236
	l0.893-0.893l1.236,1.236l1.451-1.451l-1.236-1.234l0.893-0.893l1.238,1.233l1.449-1.448l-1.236-1.238l0.894-0.894l1.235,1.236
	l1.451-1.449l-1.235-1.237l0.893-0.894l1.236,1.236l1.45-1.451l-1.235-1.236l0.894-0.893l1.235,1.236l1.449-1.451l-1.233-1.234
	l0.893-0.893l1.234,1.233l0.924-0.922l-6.267-6.266L7.007,30.993L13.27,37.262z"/>
</svg>
