<?xml version="1.0" encoding="utf-8"?>
<!-- Generator: Adobe Illustrator 16.0.0, SVG Export Plug-In . SVG Version: 6.00 Build 0)  -->
<!DOCTYPE svg PUBLIC "-//W3C//DTD SVG 1.1//EN" "http://www.w3.org/Graphics/SVG/1.1/DTD/svg11.dtd">
<svg version="1.1" id="Layer_1" xmlns="http://www.w3.org/2000/svg" xmlns:xlink="http://www.w3.org/1999/xlink" x="0px" y="0px"
	 width="50px" height="50px" viewBox="0 0 50 50" enable-background="new 0 0 50 50" xml:space="preserve">
<path d="M30.341,21.5c-5.259,0-9.539,4.277-9.539,9.536c0,5.258,4.28,9.535,9.539,9.535s9.534-4.277,9.534-9.535
	C39.875,25.777,35.6,21.5,30.341,21.5z M30.341,39.772c-4.817,0-8.737-3.919-8.737-8.736c0-4.818,3.92-8.735,8.737-8.735
	c4.818,0,8.736,3.917,8.736,8.735C39.077,35.854,35.159,39.772,30.341,39.772z M31.461,30.136l-0.398-0.014v-2.664h0.283
	c0.985,0,1.479,0.394,1.479,1.183l0.007,0.193h1.736v-0.243c0-1.049-0.245-1.763-0.743-2.148c-0.493-0.387-1.418-0.576-2.763-0.576
	V24.83H29.85v1.036c-1.414,0-2.379,0.2-2.898,0.604c-0.52,0.401-0.78,1.148-0.78,2.24c0,1.125,0.261,1.893,0.774,2.301
	c0.521,0.409,1.486,0.615,2.904,0.615v2.888l-0.266-0.009c-0.727,0-1.198-0.097-1.406-0.285c-0.209-0.189-0.312-0.612-0.312-1.269
	v-0.187h-1.8l-0.01,0.363c0,1.075,0.26,1.83,0.772,2.265c0.516,0.436,1.407,0.651,2.677,0.651l0.342,0.007v1.191h1.213v-1.191
	l0.371-0.007c1.271,0,2.163-0.229,2.674-0.683c0.514-0.452,0.767-1.241,0.767-2.369c0-1.044-0.233-1.764-0.699-2.156
	C33.703,30.443,32.8,30.209,31.461,30.136z M29.85,30.063c-0.17-0.009-0.254-0.015-0.265-0.015c-1.065,0-1.593-0.44-1.593-1.325
	c0-0.845,0.531-1.265,1.598-1.265l0.26-0.01V30.063z M31.322,34.513h-0.26v-2.82c0.813,0,1.348,0.086,1.604,0.259
	c0.256,0.173,0.385,0.529,0.385,1.073C33.053,34.015,32.475,34.513,31.322,34.513z M38.174,21.383
	c-0.152-3.755-1.642-7.465-4.502-10.325c-6.044-6.044-15.877-6.044-21.92,0c-6.045,6.043-6.045,15.877,0,21.92
	c2.21,2.21,4.928,3.604,7.78,4.196c2.144,3.758,6.181,6.302,10.809,6.302c6.86,0,12.44-5.578,12.44-12.438
	C42.781,27.144,40.98,23.666,38.174,21.383z M34.133,14.839c1.001,1.593,1.633,3.351,1.904,5.15
	c-1.699-0.88-3.621-1.387-5.662-1.393L34.133,14.839z M18.292,26.438c-2.437-2.438-2.437-6.401,0-8.839s6.401-2.438,8.839,0
	c0.372,0.372,0.68,0.782,0.938,1.216c-4.354,0.808-7.909,3.888-9.401,7.963C18.539,26.668,18.412,26.558,18.292,26.438z
	 M11.29,29.196c-2.741-4.361-2.747-9.952-0.021-14.321l3.873,3.875c-0.899,2.095-0.893,4.484,0.021,6.574L11.29,29.196z
	 M29.891,10.596l-3.871,3.872c-2.117-0.924-4.541-0.918-6.653,0.02l-3.869-3.869C19.875,7.846,25.504,7.84,29.891,10.596z
	 M15.533,33.439l2.367-2.368c0.004,1.307,0.213,2.563,0.592,3.748C17.466,34.483,16.471,34.028,15.533,33.439z M30.341,41.474
	c-3.321,0-6.278-1.564-8.192-3.989c-0.51-0.646-0.942-1.354-1.291-2.111c-0.606-1.322-0.955-2.788-0.955-4.336
	c0-0.424,0.033-0.84,0.082-1.251c0.08-0.674,0.225-1.329,0.429-1.958c1.206-3.721,4.448-6.523,8.407-7.105
	c0.498-0.072,1.004-0.124,1.521-0.124c0.162,0,0.32,0.018,0.481,0.024c1.978,0.091,3.817,0.722,5.36,1.768
	c0.689,0.47,1.313,1.025,1.875,1.643c1.686,1.854,2.723,4.309,2.723,7.005C40.779,36.79,36.098,41.474,30.341,41.474z"/>
</svg>
