<?xml version="1.0" encoding="utf-8"?>
<!-- Generator: Adobe Illustrator 16.0.0, SVG Export Plug-In . SVG Version: 6.00 Build 0)  -->
<!DOCTYPE svg PUBLIC "-//W3C//DTD SVG 1.1//EN" "http://www.w3.org/Graphics/SVG/1.1/DTD/svg11.dtd">
<svg version="1.1" id="Layer_1" xmlns="http://www.w3.org/2000/svg" xmlns:xlink="http://www.w3.org/1999/xlink" x="0px" y="0px"
	 width="50px" height="50px" viewBox="0 0 50 50" enable-background="new 0 0 50 50" xml:space="preserve">
<path d="M15.428,34.066c-1.023-0.297-2.017-0.734-2.943-1.316l3.341-3.342c0.011,0.006,0.022,0.008,0.032,0.014v-1.936
	c-0.353-0.217-0.688-0.473-0.992-0.777c-2.102-2.104-2.102-5.524,0-7.626c2.103-2.103,5.521-2.103,7.626,0
	c0.321,0.323,0.59,0.681,0.813,1.056c0.897-0.313,1.858-0.668,2.864-1.072l2.363-2.363c0.221,0.354,0.415,0.717,0.595,1.086
	c0.514-0.238,1.033-0.488,1.559-0.75c-0.633-1.3-1.475-2.521-2.552-3.598c-5.214-5.215-13.696-5.215-18.909,0
	c-5.217,5.213-5.217,13.698,0,18.911c1.773,1.773,3.93,2.93,6.205,3.498v-1.783H15.428z M8.824,29.088
	c-2.365-3.762-2.37-8.585-0.02-12.354l3.342,3.344c-0.775,1.807-0.771,3.867,0.018,5.67L8.824,29.088z M24.871,13.042l-3.341,3.34
	c-1.826-0.797-3.917-0.791-5.74,0.017l-3.338-3.338C16.23,10.668,21.087,10.664,24.871,13.042z M44.686,20.162l-8.834-5.049
	c-9.293,5.908-18.986,7.744-18.986,7.744v3.729l0.89,0.518l-1.032,0.287v3.672l0.803,0.545l-1.233,0.4v3.584l8.547,4.879
	c10.153-1.664,19.276-7.689,19.276-7.689l-0.03-3.613l-0.544-0.43l0.975-0.574v-3.471l-0.631-0.545l0.803-0.459v-3.527H44.686z
	 M27.266,21.101l5.918,3.41c-3.264,1.223-7.063,2.167-7.063,2.167l-5.902-3.254C20.219,23.423,25.723,21.683,27.266,21.101z
	 M33.564,36.559c-4.623,1.797-8.446,2.723-8.446,2.723l-7.603-4.416v-1.922l7.603,4.129c2.714-0.43,5.745-1.471,8.515-2.629
	L33.564,36.559z M33.705,32.211c-4.439,1.695-8.046,2.568-8.046,2.568l-7.601-4.418v-1.922l7.601,4.131
	c2.584-0.412,5.453-1.373,8.112-2.463L33.705,32.211z M33.917,25.59l-0.067,2.105c-4.438,1.693-8.037,2.563-8.037,2.563
	l-7.601-4.418v-1.921l7.601,4.13C28.395,27.639,31.259,26.68,33.917,25.59L33.917,25.59z M35.961,16.629l5.958,3.519
	c-1.086,0.677-3.616,2.131-4.752,2.676l-5.742-3.51C33.822,18.14,35.961,16.629,35.961,16.629z M42.714,31.996
	c-1.573,1.041-3.298,1.973-5.03,2.795l0.057-2.215c2.935-1.438,4.975-2.645,4.975-2.645L42.714,31.996L42.714,31.996z
	 M43.257,27.492c-1.706,1.127-3.587,2.129-5.465,3l0.056-2.209c3.166-1.527,5.409-2.854,5.409-2.854V27.492z M43.409,22.972
	c-1.718,1.135-3.612,2.144-5.503,3.018l0.057-2.208c3.186-1.535,5.446-2.875,5.446-2.875V22.972L43.409,22.972z M27.447,21.769
	l4.359,2.58C31.809,24.349,26.788,25.209,27.447,21.769z M36.454,21.968l-4.002-2.352C35.688,19.435,36.454,21.968,36.454,21.968z"
	/>
</svg>
