<?xml version="1.0" encoding="utf-8"?>
<!-- Generator: Adobe Illustrator 16.0.0, SVG Export Plug-In . SVG Version: 6.00 Build 0)  -->
<!DOCTYPE svg PUBLIC "-//W3C//DTD SVG 1.1//EN" "http://www.w3.org/Graphics/SVG/1.1/DTD/svg11.dtd">
<svg version="1.1" id="Layer_1" xmlns="http://www.w3.org/2000/svg" xmlns:xlink="http://www.w3.org/1999/xlink" x="0px" y="0px"
	 width="50px" height="50px" viewBox="0 0 50 50" enable-background="new 0 0 50 50" xml:space="preserve">
<path d="M36.508,39.978c-0.289-6.601-2.951-12.351-6.84-14.978c3.891-2.627,6.553-8.378,6.84-14.978
	C37.146,9.708,37.5,9.365,37.5,9.002c0-1.441-5.596-2.608-12.5-2.608c-6.904,0-12.5,1.167-12.5,2.608
	c0,0.362,0.354,0.706,0.992,1.019c0.289,6.6,2.951,12.352,6.84,14.978c-3.89,2.625-6.552,8.377-6.84,14.978
	c-0.638,0.313-0.992,0.657-0.992,1.021c0,1.439,5.596,2.607,12.5,2.607c6.904,0,12.5-1.167,12.5-2.607
	C37.5,40.635,37.146,40.291,36.508,39.978z M22.654,25.949c0.345-0.136,0.578-0.519,0.578-0.95s-0.233-0.814-0.578-0.95
	c-4.048-1.588-6.971-6.977-7.435-13.426c2.29,0.601,5.816,0.987,9.781,0.987s7.491-0.386,9.781-0.987
	c-0.465,6.449-3.387,11.838-7.436,13.426c-0.345,0.136-0.578,0.519-0.578,0.95s0.233,0.814,0.578,0.95
	c4.049,1.588,6.971,6.977,7.436,13.426c-0.368-0.097-0.77-0.187-1.199-0.271C32.264,33.769,25,29.092,25,29.092
	s-7.263,4.677-8.582,10.012c-0.429,0.084-0.831,0.175-1.199,0.271C15.683,32.926,18.606,27.537,22.654,25.949z M25,23.771
	c0,0-1.573-1.237-3.387-3.216c4.938-1.059,8.959-3.403,11.14-6.423C30.426,19.501,25,23.771,25,23.771z"/>
</svg>
