<?xml version="1.0" encoding="utf-8"?>
<!-- Generator: Adobe Illustrator 16.0.0, SVG Export Plug-In . SVG Version: 6.00 Build 0)  -->
<!DOCTYPE svg PUBLIC "-//W3C//DTD SVG 1.1//EN" "http://www.w3.org/Graphics/SVG/1.1/DTD/svg11.dtd">
<svg version="1.1" id="Layer_1" xmlns="http://www.w3.org/2000/svg" xmlns:xlink="http://www.w3.org/1999/xlink" x="0px" y="0px"
	 width="50px" height="50px" viewBox="0 0 50 50" enable-background="new 0 0 50 50" xml:space="preserve">
<path d="M44.551,29.436c-3.094-1.565-6.594-1.445-8.324,0.284c-0.049,0.05-0.098,0.103-0.145,0.154l-6.684-3.626
	c-0.6-1.202-1.291-2.524-2.082-3.981C21.835,12.167,14.782,1.039,10.839,1L22.51,22.51L1,10.839
	c0.04,3.942,11.167,10.997,21.267,16.478c1.458,0.79,2.779,1.483,3.981,2.082l3.627,6.684c-0.053,0.047-0.105,0.095-0.154,0.146
	c-1.73,1.729-1.852,5.23-0.285,8.322c1.084,2.143,2.795,3.735,4.574,4.262c1.121,0.331,2.193,0.226,3.104-0.305
	c0.273-0.159,0.527-0.356,0.756-0.584c1.73-1.73,1.85-5.23,0.285-8.322c-1.086-2.143-2.795-3.736-4.574-4.262
	c-0.428-0.126-0.85-0.188-1.258-0.188c0.084-0.872-0.092-1.973-0.545-3.372c1.4,0.452,2.5,0.628,3.373,0.545
	c0,0.407,0.063,0.828,0.188,1.257c0.527,1.779,2.119,3.488,4.262,4.573c3.092,1.565,6.594,1.446,8.322-0.284l0,0
	c0.229-0.228,0.426-0.482,0.584-0.756c0.531-0.91,0.637-1.983,0.305-3.104C48.285,32.23,46.693,30.521,44.551,29.436z
	 M36.445,40.465c1.184,2.337,1.213,4.961,0.07,6.104c-0.111,0.111-0.234,0.206-0.365,0.283c-0.451,0.262-0.988,0.303-1.6,0.122
	c-1.264-0.373-2.568-1.634-3.406-3.289c-1.184-2.337-1.213-4.961-0.07-6.104c0.111-0.111,0.234-0.207,0.365-0.283
	c0.449-0.262,0.986-0.303,1.598-0.123C34.301,37.549,35.607,38.81,36.445,40.465z M46.975,34.552
	c0.18,0.611,0.139,1.148-0.123,1.598c-0.076,0.131-0.172,0.254-0.283,0.366c-1.143,1.143-3.768,1.112-6.104-0.07
	c-1.656-0.838-2.916-2.145-3.289-3.408c-0.182-0.61-0.141-1.148,0.121-1.598c0.078-0.131,0.172-0.254,0.283-0.365
	c1.145-1.144,3.768-1.113,6.105,0.069C45.342,31.982,46.602,33.288,46.975,34.552z"/>
</svg>
