<?xml version="1.0" encoding="utf-8"?>
<!-- Generator: Adobe Illustrator 16.0.0, SVG Export Plug-In . SVG Version: 6.00 Build 0)  -->
<!DOCTYPE svg PUBLIC "-//W3C//DTD SVG 1.1//EN" "http://www.w3.org/Graphics/SVG/1.1/DTD/svg11.dtd">
<svg version="1.1" id="Layer_1" xmlns="http://www.w3.org/2000/svg" xmlns:xlink="http://www.w3.org/1999/xlink" x="0px" y="0px"
	 width="50px" height="50px" viewBox="0 0 50 50" enable-background="new 0 0 50 50" xml:space="preserve">
<path fill-rule="evenodd" clip-rule="evenodd" d="M36.506,17.825c0-5.443-4.454-9.773-9.897-9.773h-0.124v10.268h9.896
	C36.506,18.072,36.506,17.948,36.506,17.825 M35.268,20.423c0-0.248-0.123-0.619-0.247-0.742c-0.247-0.248-0.495-0.372-0.742-0.372
	l0,0h-8.784v-9.154c0-0.248-0.124-0.495-0.371-0.743c-0.247-0.247-0.495-0.247-0.742-0.247c-5.938,0.124-10.763,4.948-10.763,10.887
	s4.948,10.886,10.887,10.886C30.32,30.814,35.021,26.237,35.268,20.423z M44.299,6.443v26.598c0,0.99-0.865,1.855-1.855,1.855H7.557
	c-0.99,0-1.855-0.865-1.855-1.855V6.443c0-0.99,0.866-1.856,1.855-1.856H42.32C43.434,4.587,44.299,5.33,44.299,6.443z
	 M24.258,21.412c-0.248,0-0.495-0.124-0.742-0.247c-0.248-0.248-0.371-0.495-0.371-0.742v-9.031c-4.33,0.619-7.546,4.33-7.546,8.66
	c0,4.825,3.958,8.783,8.783,8.783l0,0c4.33,0,7.917-3.093,8.66-7.299L24.258,21.412z M6.938,3.474h36.125
	c0.742,0,1.236-0.495,1.236-1.237C44.299,1.495,43.805,1,43.063,1H6.938C6.196,1,5.701,1.495,5.701,2.237
	C5.701,2.979,6.196,3.474,6.938,3.474z M34.525,37c0,0.742-0.494,1.237-1.236,1.237h-7.052v8.288h3.093
	c0.742,0,1.236,0.495,1.236,1.237c0,0.743-0.494,1.237-1.236,1.237h-8.536c-0.742,0-1.237-0.494-1.237-1.237
	c0-0.742,0.495-1.237,1.237-1.237h2.969v-8.288h-7.051c-0.742,0-1.237-0.495-1.237-1.237s0.495-1.237,1.237-1.237h16.701
	C34.031,35.763,34.525,36.258,34.525,37z"/>
</svg>
