<?xml version="1.0" encoding="utf-8"?>
<!-- Generator: Adobe Illustrator 16.0.0, SVG Export Plug-In . SVG Version: 6.00 Build 0)  -->
<!DOCTYPE svg PUBLIC "-//W3C//DTD SVG 1.1//EN" "http://www.w3.org/Graphics/SVG/1.1/DTD/svg11.dtd">
<svg version="1.1" id="Layer_1" xmlns="http://www.w3.org/2000/svg" xmlns:xlink="http://www.w3.org/1999/xlink" x="0px" y="0px"
	 width="50px" height="50px" viewBox="0 0 50 50" enable-background="new 0 0 50 50" xml:space="preserve">
<path d="M20.646,34.438c-0.981,0.979-2.287,1.521-3.679,1.521s-2.696-0.539-3.678-1.521c-0.231-0.232-0.437-0.485-0.617-0.752V31.54
	c0-1.903,1.64-4.245,3.646-5.196l1.477-0.701c1.075,0.17,2.068,0.656,2.852,1.439C22.673,29.109,22.673,32.409,20.646,34.438z
	 M26.403,24.152c3.921,0,7.096-4.877,7.096-9.347c0-4.473-3.175-6.846-7.096-6.846c-3.918,0-7.094,2.373-7.094,6.846
	C19.312,19.275,22.485,24.152,26.403,24.152z M36.492,26.344l-4.603-2.189l-3.035,6.313l-1.504-4.087
	c-0.313,0.06-0.621,0.138-0.946,0.138c-0.324,0-0.636-0.078-0.947-0.138l-0.86,2.335c0.541,2.029,0.277,4.242-0.859,6.125
	c0.17,0.092,0.328,0.207,0.467,0.346l1.48,1.481h14.453v-5.124C40.138,29.637,38.497,27.295,36.492,26.344z M27.899,40.014
	c0.225,0.226,0.348,0.522,0.348,0.84c0,0.316-0.123,0.614-0.348,0.84c-0.226,0.225-0.522,0.348-0.84,0.348
	c-0.316,0-0.615-0.123-0.84-0.348l-4.262-4.262c-0.161-0.162-0.271-0.367-0.32-0.596l-0.123-0.588l-0.494,0.343
	c-1.193,0.831-2.6,1.271-4.063,1.271c-1.896,0-3.679-0.736-5.017-2.074c-2.771-2.771-2.771-7.282,0-10.053
	c1.341-1.342,3.125-2.079,5.025-2.079c1.901,0,3.686,0.737,5.026,2.079c2.435,2.434,2.772,6.252,0.805,9.08l-0.344,0.494
	l0.589,0.123c0.229,0.049,0.434,0.158,0.596,0.32L27.899,40.014z M21.212,26.516c-1.133-1.133-2.64-1.756-4.245-1.756
	c-1.604,0-3.112,0.623-4.243,1.756c-2.342,2.34-2.342,6.147,0,8.488c1.131,1.132,2.64,1.756,4.243,1.756
	c1.605,0,3.112-0.624,4.245-1.756C23.552,32.663,23.552,28.855,21.212,26.516z"/>
</svg>
