<?xml version="1.0" encoding="utf-8"?>
<!-- Generator: Adobe Illustrator 16.0.0, SVG Export Plug-In . SVG Version: 6.00 Build 0)  -->
<!DOCTYPE svg PUBLIC "-//W3C//DTD SVG 1.1//EN" "http://www.w3.org/Graphics/SVG/1.1/DTD/svg11.dtd">
<svg version="1.1" id="Layer_1" xmlns="http://www.w3.org/2000/svg" xmlns:xlink="http://www.w3.org/1999/xlink" x="0px" y="0px"
	 width="50px" height="50px" viewBox="0 0 50 50" enable-background="new 0 0 50 50" xml:space="preserve">
<path d="M30.08,14.53c-0.125,0-0.268,0.012-0.422,0.032c-0.535,0.045-1.057,0.174-1.557,0.383
	c-5.74,1.847-18.597,9.266-20.236,10.218l-1.108,0.645l1.108,0.646c0.596,0.344,2.662,1.539,5.33,3.01
	c-0.016,0.188-0.057,0.371-0.057,0.563c0,3.533,2.875,6.408,6.408,6.408c1.587,0,3.023-0.604,4.145-1.563
	c1.646,0.76,3.146,1.383,4.345,1.774c0.65,0.28,1.334,0.44,2.043,0.44c4.111,0,7.455-5.061,7.455-11.278
	C37.535,19.588,34.191,14.53,30.08,14.53z M30.08,35.594c-3.291,0-5.964-4.389-5.964-9.786c0-5.397,2.673-9.787,5.964-9.787
	c3.289,0,5.965,4.39,5.965,9.787C36.045,31.205,33.369,35.594,30.08,35.594z M10.409,26.084c-0.24-0.137-0.43-0.246-0.578-0.332
	c4.631-2.653,10.593-5.87,14.945-7.858c-0.195,0.299-0.375,0.617-0.548,0.946C19.53,20.958,13.091,24.558,10.409,26.084z
	 M19.548,34.941c-2.63,0-4.767-2.081-4.894-4.682c2.371,1.289,5.047,2.695,7.535,3.898C21.425,34.648,20.524,34.941,19.548,34.941z
	 M35.18,14.903l3.23-3.23l1.055,1.054l-3.23,3.23L35.18,14.903z M37.602,34.043l3.232,3.229l-1.055,1.054l-3.23-3.229L37.602,34.043
	z M38.609,24.361l4.564-0.212l0.068,1.49l-4.563,0.212L38.609,24.361z"/>
</svg>
