<?xml version="1.0" encoding="utf-8"?>
<!-- Generator: Adobe Illustrator 16.0.0, SVG Export Plug-In . SVG Version: 6.00 Build 0)  -->
<!DOCTYPE svg PUBLIC "-//W3C//DTD SVG 1.1//EN" "http://www.w3.org/Graphics/SVG/1.1/DTD/svg11.dtd">
<svg version="1.1" id="Layer_1" xmlns="http://www.w3.org/2000/svg" xmlns:xlink="http://www.w3.org/1999/xlink" x="0px" y="0px"
	 width="50px" height="50px" viewBox="0 0 50 50" enable-background="new 0 0 50 50" xml:space="preserve">
<path d="M25.977,39.871v-3.594h-4.283c-4.637,0-4.957-7.359-4.957-7.359s-3.209,0.361-3.31-0.949
	c-0.233-3.042,2.281-6.068,2.281-6.068c-0.063-2.298-0.09-5.309-0.063-7.034c0.047-3.08,4.105-4.604,5.441-4.658
	c4.359-0.181,15.424,0,15.424,0l0.079,29.662H25.977L25.977,39.871z M27.75,14.17c-3.59,0-6.5,2.91-6.5,6.5
	c0,2.055,0.956,3.885,2.445,5.076l-2.07,4.424l4.869-3.124c0.406,0.08,0.826,0.124,1.256,0.124c3.59,0,6.5-2.91,6.5-6.5
	S31.34,14.17,27.75,14.17z M28.334,22.08c0.02-0.117,0.1-0.226,0.24-0.325c0.107-0.098,0.22-0.173,0.337-0.227
	c0.116-0.054,0.296-0.128,0.536-0.224c0.24-0.096,0.408-0.173,0.507-0.231c0.305-0.176,0.532-0.403,0.685-0.683
	c0.15-0.279,0.228-0.723,0.228-1.333c0-0.877-0.173-1.508-0.517-1.895c-0.389-0.441-1.168-0.662-2.341-0.662
	c-0.524,0-0.968,0.024-1.325,0.072c-0.358,0.048-0.685,0.165-0.978,0.35c-0.254,0.16-0.44,0.424-0.563,0.792
	c-0.121,0.368-0.182,0.903-0.182,1.606h1.523v-0.361c0-0.08-0.008-0.14-0.023-0.179c0.027-0.338,0.087-0.575,0.18-0.709
	c0.092-0.113,0.229-0.188,0.411-0.224c0.183-0.036,0.47-0.061,0.862-0.075c0.35,0,0.615,0.017,0.797,0.05
	c0.182,0.033,0.318,0.108,0.413,0.226c0.16,0.158,0.239,0.487,0.239,0.985c0,0.389-0.079,0.685-0.239,0.888
	c-0.062,0.08-0.142,0.149-0.242,0.208c-0.1,0.059-0.219,0.114-0.356,0.167c-0.137,0.053-0.303,0.116-0.493,0.188
	c-0.404,0.172-0.697,0.354-0.88,0.548c-0.182,0.194-0.293,0.407-0.332,0.639c-0.041,0.232-0.061,0.581-0.061,1.046h1.523
	C28.284,22.388,28.301,22.176,28.334,22.08z M26.762,25.573h1.522v-1.645h-1.522V25.573z"/>
</svg>
