<?xml version="1.0" encoding="utf-8"?>
<!-- Generator: Adobe Illustrator 16.0.0, SVG Export Plug-In . SVG Version: 6.00 Build 0)  -->
<!DOCTYPE svg PUBLIC "-//W3C//DTD SVG 1.1//EN" "http://www.w3.org/Graphics/SVG/1.1/DTD/svg11.dtd">
<svg version="1.1" id="Layer_1" xmlns="http://www.w3.org/2000/svg" xmlns:xlink="http://www.w3.org/1999/xlink" x="0px" y="0px"
	 width="50px" height="50px" viewBox="0 0 50 50" enable-background="new 0 0 50 50" xml:space="preserve">
<path d="M23.342,27.163l2.893,2.531H11.651l2.893-2.531H23.342z M28.404,14.388c0,0.12,0,2.29-1.084,4.58
	c-0.844,1.808-2.652,3.978-6.147,4.58v3.134h-4.46v-3.134c-3.495-0.482-5.303-2.651-6.147-4.58c-1.084-2.17-1.084-4.46-1.084-4.58
	c0-0.482,0.362-0.844,0.844-0.844h1.808c-0.482-1.567-0.723-3.375-0.723-5.304h15.187c0,1.929-0.241,3.736-0.724,5.304h1.688
	C28.043,13.544,28.404,13.905,28.404,14.388z M16.833,20.293c-1.688-0.843-3.134-2.651-4.098-5.183H11.29
	c0.241,1.809,1.205,5.786,5.544,6.629V20.293z M18.883,19.69c-2.652-1.325-4.701-5.303-5.063-10.244h-1.205
	C12.856,15.11,15.628,19.69,18.883,19.69z M26.717,15.231h-1.326c-0.964,2.41-2.411,4.219-4.098,5.183v1.446
	c2.17-0.361,3.736-1.567,4.701-3.616C26.477,17.039,26.717,15.954,26.717,15.231z M33.476,28.93c0.711,0.146,1.39,0.495,1.941,1.047
	l12.456,12.456c1.503,1.503,1.503,3.938,0,5.44c-1.502,1.503-3.938,1.503-5.44,0L29.977,35.417c-0.552-0.552-0.9-1.23-1.047-1.941
	c-6.939,4.793-16.548,4.104-22.719-2.067c-6.947-6.947-6.947-18.251,0-25.198s18.251-6.947,25.198,0
	C37.58,12.382,38.269,21.991,33.476,28.93z M29.047,8.572c-5.646-5.645-14.83-5.645-20.474,0s-5.645,14.829,0,20.474
	s14.829,5.645,20.474,0C34.691,23.401,34.691,14.217,29.047,8.572z"/>
</svg>
