<?xml version="1.0" encoding="utf-8"?>
<!-- Generator: Adobe Illustrator 16.0.0, SVG Export Plug-In . SVG Version: 6.00 Build 0)  -->
<!DOCTYPE svg PUBLIC "-//W3C//DTD SVG 1.1//EN" "http://www.w3.org/Graphics/SVG/1.1/DTD/svg11.dtd">
<svg version="1.1" id="Layer_1" xmlns="http://www.w3.org/2000/svg" xmlns:xlink="http://www.w3.org/1999/xlink" x="0px" y="0px"
	 width="50px" height="50px" viewBox="0 0 50 50" enable-background="new 0 0 50 50" xml:space="preserve">
<path d="M13.965,41.14l4.414-3.86h13.244l4.414,3.86 M39.174,18.042c0,0.14-0.019,3.45-1.616,6.795
	c-1.332,2.789-3.997,6.044-9.247,6.796v4.632h-6.621v-4.632c-5.25-0.752-7.915-4.008-9.247-6.796
	c-1.599-3.345-1.617-6.656-1.617-6.795c0-0.673,0.545-1.218,1.218-1.218h2.621c-0.678-2.422-1.067-5.115-1.067-7.963h22.805
	c0,2.848-0.389,5.541-1.066,7.963h2.621C38.629,16.824,39.174,17.369,39.174,18.042z M21.689,26.987
	c-2.578-1.298-4.766-4.07-6.216-7.728h-2.126c0.311,2.649,1.761,8.712,8.342,9.887V26.987z M24.868,26.06
	c-4.056-1.919-7.115-8.026-7.532-15.465h-1.84C15.797,19.143,19.875,25.938,24.868,26.06z M36.646,19.259h-2.119
	c-1.45,3.657-3.638,6.43-6.216,7.728v2.159c3.234-0.566,5.609-2.348,7.048-5.36C36.176,22.078,36.51,20.365,36.646,19.259z"/>
</svg>
