<?xml version="1.0" encoding="utf-8"?>
<!-- Generator: Adobe Illustrator 16.0.0, SVG Export Plug-In . SVG Version: 6.00 Build 0)  -->
<!DOCTYPE svg PUBLIC "-//W3C//DTD SVG 1.1//EN" "http://www.w3.org/Graphics/SVG/1.1/DTD/svg11.dtd">
<svg version="1.1" id="Layer_1" xmlns="http://www.w3.org/2000/svg" xmlns:xlink="http://www.w3.org/1999/xlink" x="0px" y="0px"
	 width="50px" height="50px" viewBox="0 0 50 50" enable-background="new 0 0 50 50" xml:space="preserve">
<path d="M11.821,42.282H38.18v1.757H11.821V42.282z M38.18,31.979v8.822H11.821v-8.822h7.687v-5.91
	c-3.178-1.883-5.315-5.336-5.315-9.297c0-5.97,4.838-10.811,10.807-10.811c5.969,0,10.809,4.841,10.809,10.811
	c0,3.961-2.139,7.414-5.315,9.297v5.91H38.18z M25,24.743c4.366,0,7.904-3.54,7.904-7.906S29.366,8.932,25,8.932
	c-0.297,0-0.588,0.021-0.876,0.053c3.953,0.436,7.028,3.783,7.028,7.854s-3.075,7.419-7.028,7.854
	C24.412,24.725,24.703,24.743,25,24.743z"/>
</svg>
