<?xml version="1.0" encoding="utf-8"?>
<!-- Generator: Adobe Illustrator 16.0.0, SVG Export Plug-In . SVG Version: 6.00 Build 0)  -->
<!DOCTYPE svg PUBLIC "-//W3C//DTD SVG 1.1//EN" "http://www.w3.org/Graphics/SVG/1.1/DTD/svg11.dtd">
<svg version="1.1" id="Layer_1" xmlns="http://www.w3.org/2000/svg" xmlns:xlink="http://www.w3.org/1999/xlink" x="0px" y="0px"
	 width="50px" height="50px" viewBox="0 0 50 50" enable-background="new 0 0 50 50" xml:space="preserve">
<path d="M6.644,10.128c1.504,5.444,3.008,10.889,4.515,16.333c14.576,10.127,20.757-10.127,35.333,0
	c-1.504-5.445-3.008-10.889-4.514-16.333C27.402,0.002,21.22,20.254,6.644,10.128z M16.265,23.033
	c-0.021,0.203-0.094,0.35-0.219,0.438c-0.197,0.131-0.666,0.145-1.441-0.074c-0.129-0.037-0.258-0.076-0.389-0.117
	c-0.348-0.11-0.658-0.24-0.926-0.379c-0.266-0.135-0.512-0.318-0.736-0.541c-0.162-0.162-0.293-0.324-0.393-0.485
	c-0.098-0.161-0.174-0.315-0.227-0.461c-0.054-0.146-0.111-0.332-0.172-0.556c0.362,0.178,0.723,0.336,1.077,0.478
	c0.017,0.058,0.022,0.101,0.022,0.133c0.052,0.156,0.099,0.278,0.142,0.365c0.043,0.088,0.104,0.169,0.181,0.243
	c0.086,0.085,0.19,0.16,0.313,0.222c0.123,0.063,0.291,0.136,0.504,0.209c0.103,0.033,0.179,0.062,0.229,0.084
	c0.26,0.068,0.453,0.104,0.58,0.122c0.125,0.018,0.227,0.012,0.301-0.017c0.129-0.058,0.148-0.25,0.061-0.573
	c-0.064-0.229-0.156-0.4-0.283-0.521c-0.045-0.037-0.1-0.074-0.16-0.104c-0.061-0.033-0.121-0.06-0.18-0.081
	c-0.061-0.021-0.135-0.046-0.223-0.072c-0.09-0.027-0.189-0.059-0.303-0.097c-0.193-0.062-0.377-0.124-0.553-0.188
	c-0.173-0.064-0.341-0.135-0.502-0.211c-0.162-0.076-0.328-0.168-0.496-0.275s-0.316-0.223-0.441-0.342
	c-0.35-0.324-0.611-0.767-0.777-1.307c-0.154-0.556-0.115-0.869,0.109-0.962c0.24-0.073,0.775,0.071,1.57,0.317
	c0.479,0.148,0.817,0.234,1.024,0.297c0.336,0.111,0.603,0.238,0.804,0.396c0.211,0.162,0.364,0.338,0.469,0.537
	c0.102,0.196,0.19,0.441,0.272,0.733c-0.33-0.04-0.666-0.097-1.004-0.166c-0.021-0.065-0.037-0.133-0.056-0.199
	c-0.053-0.187-0.12-0.319-0.211-0.405c-0.106-0.105-0.33-0.195-0.676-0.289c-0.141-0.039-0.281-0.08-0.424-0.123
	c-0.412-0.129-0.674-0.188-0.771-0.146c-0.055,0.02-0.086,0.059-0.096,0.12c-0.008,0.063,0.008,0.165,0.047,0.31
	c0.058,0.168,0.104,0.295,0.146,0.375c0.043,0.082,0.115,0.162,0.215,0.237c0.082,0.062,0.178,0.12,0.289,0.177
	c0.109,0.057,0.238,0.112,0.381,0.166c0.146,0.057,0.283,0.104,0.41,0.148c0.434,0.146,0.787,0.255,1.068,0.347
	c0.279,0.091,0.504,0.19,0.672,0.313c0.105,0.08,0.195,0.168,0.27,0.267c0.075,0.099,0.137,0.199,0.188,0.304
	c0.049,0.104,0.086,0.193,0.11,0.269c0.025,0.075,0.064,0.198,0.119,0.372C16.259,22.59,16.287,22.831,16.265,23.033z
	 M20.857,21.966c0.143,0.52,0.113,0.936-0.096,1.235c-0.125,0.175-0.322,0.312-0.593,0.396c-0.271,0.086-0.606,0.158-1.015,0.2
	c-0.295,0.03-0.557,0.032-0.78,0.011c-0.224-0.021-0.438-0.08-0.646-0.179c-0.215-0.11-0.396-0.278-0.549-0.504
	c-0.15-0.224-0.264-0.476-0.342-0.756c-0.324-1.175-0.648-2.347-0.973-3.521c0.324,0.019,0.646,0.022,0.963,0.015
	c0.332,1.2,0.662,2.399,0.994,3.599c0.033,0.118,0.07,0.209,0.113,0.27c0.045,0.063,0.108,0.115,0.196,0.162
	c0.111,0.061,0.229,0.094,0.356,0.104c0.128,0.008,0.302,0.003,0.519-0.021c0.076-0.009,0.134-0.011,0.17-0.006
	c0.224-0.035,0.39-0.076,0.5-0.117c0.109-0.041,0.195-0.104,0.255-0.191c0.051-0.073,0.073-0.151,0.071-0.233
	c-0.006-0.083-0.03-0.211-0.078-0.384c-0.315-1.141-0.631-2.281-0.944-3.422c0.301-0.059,0.598-0.127,0.895-0.204
	C20.203,19.601,20.529,20.784,20.857,21.966z M25.187,20.257c0.011,0.039,0.021,0.079,0.033,0.119
	c0.133,0.484,0.123,0.887-0.031,1.206c-0.143,0.256-0.405,0.487-0.789,0.687c-0.135,0.07-0.301,0.151-0.5,0.241
	c-0.198,0.089-0.315,0.14-0.35,0.154c-0.615,0.243-1.088,0.254-1.408,0.065c-0.149-0.09-0.279-0.224-0.387-0.401
	c-0.107-0.177-0.199-0.379-0.273-0.604c-0.075-0.228-0.172-0.549-0.287-0.965c-0.116-0.426-0.2-0.749-0.25-0.97
	c-0.049-0.222-0.075-0.429-0.077-0.621s0.028-0.381,0.094-0.567c0.067-0.174,0.177-0.326,0.328-0.461
	c0.151-0.134,0.319-0.248,0.506-0.344c0.187-0.097,0.39-0.188,0.606-0.277c0.246-0.101,0.449-0.181,0.607-0.236
	c0.158-0.057,0.316-0.096,0.477-0.116c0.158-0.021,0.3-0.005,0.425,0.047c0.135,0.06,0.248,0.157,0.342,0.295
	c0.095,0.138,0.168,0.278,0.222,0.427c0.055,0.147,0.106,0.318,0.161,0.516c-0.276,0.13-0.557,0.257-0.834,0.38
	c-0.028-0.103-0.057-0.206-0.086-0.31c-0.055-0.201-0.139-0.326-0.25-0.381c-0.116-0.058-0.375,0.004-0.778,0.17
	c-0.041,0.017-0.082,0.033-0.125,0.051c-0.226,0.091-0.394,0.172-0.502,0.246c-0.107,0.074-0.188,0.162-0.236,0.263
	c-0.086,0.179-0.072,0.474,0.043,0.894c0.119,0.432,0.238,0.863,0.357,1.295c0.137,0.496,0.295,0.773,0.475,0.83
	c0.111,0.045,0.227,0.055,0.352,0.027s0.293-0.081,0.502-0.166c0.254-0.104,0.422-0.18,0.506-0.225c0.144-0.1,0.24-0.207,0.295-0.32
	c0.023-0.057,0.037-0.116,0.039-0.184c0.002-0.066,0-0.131-0.01-0.193c-0.012-0.063-0.027-0.143-0.049-0.236
	c-0.023-0.095-0.043-0.183-0.064-0.263c0.279-0.124,0.558-0.252,0.834-0.381C25.13,20.049,25.158,20.152,25.187,20.257z
	 M29.242,18.32c0.012,0.039,0.023,0.078,0.033,0.119c0.135,0.483,0.123,0.884-0.031,1.203c-0.143,0.256-0.404,0.488-0.783,0.703
	c-0.133,0.076-0.297,0.166-0.492,0.27c-0.197,0.102-0.311,0.162-0.342,0.181c-0.602,0.293-1.059,0.362-1.371,0.208
	c-0.145-0.072-0.271-0.193-0.377-0.363c-0.104-0.17-0.193-0.367-0.27-0.592c-0.074-0.226-0.17-0.546-0.286-0.962
	c-0.117-0.426-0.201-0.749-0.252-0.972c-0.049-0.223-0.076-0.434-0.08-0.635c-0.004-0.199,0.025-0.399,0.086-0.603
	c0.063-0.188,0.166-0.358,0.313-0.514c0.145-0.155,0.309-0.29,0.489-0.404c0.18-0.116,0.377-0.226,0.592-0.33
	c0.242-0.116,0.443-0.207,0.6-0.271s0.313-0.106,0.471-0.131c0.158-0.021,0.299-0.008,0.424,0.045
	c0.137,0.059,0.248,0.156,0.344,0.295c0.094,0.137,0.168,0.277,0.221,0.427c0.055,0.147,0.109,0.319,0.162,0.517
	c-0.277,0.125-0.557,0.254-0.832,0.385c-0.027-0.104-0.059-0.207-0.084-0.31c-0.059-0.2-0.141-0.325-0.25-0.377
	c-0.115-0.054-0.373,0.015-0.771,0.206c-0.039,0.02-0.082,0.039-0.121,0.061c-0.223,0.106-0.387,0.203-0.49,0.289
	c-0.105,0.086-0.182,0.184-0.229,0.291c-0.084,0.191-0.066,0.495,0.047,0.914c0.119,0.432,0.24,0.863,0.359,1.295
	c0.137,0.496,0.293,0.766,0.467,0.808c0.107,0.034,0.221,0.032,0.344-0.005c0.121-0.037,0.283-0.106,0.49-0.207
	c0.248-0.12,0.414-0.204,0.496-0.254c0.141-0.105,0.238-0.217,0.293-0.334c0.023-0.058,0.035-0.119,0.037-0.187
	c0.004-0.065,0-0.132-0.01-0.194s-0.027-0.142-0.049-0.235c-0.023-0.097-0.043-0.183-0.064-0.265
	c0.277-0.131,0.555-0.259,0.832-0.384C29.186,18.111,29.215,18.215,29.242,18.32z M33.273,18.443
	c-1.064,0.279-2.092,0.668-3.109,1.106c-0.457-1.651-0.912-3.303-1.369-4.954c1.014-0.438,2.041-0.824,3.098-1.104
	c0.074,0.271,0.148,0.542,0.225,0.813c-0.762,0.202-1.508,0.459-2.244,0.752c0.113,0.412,0.23,0.826,0.344,1.24
	c0.697-0.277,1.404-0.521,2.125-0.719c0.072,0.257,0.145,0.515,0.217,0.771c-0.725,0.196-1.43,0.441-2.127,0.719
	c0.119,0.438,0.24,0.877,0.361,1.314c0.74-0.293,1.49-0.552,2.256-0.754C33.123,17.9,33.197,18.171,33.273,18.443z M37.387,17.31
	c-0.02,0.207-0.09,0.358-0.211,0.463c-0.188,0.162-0.645,0.227-1.346,0.274c-0.115,0.009-0.232,0.019-0.348,0.03
	c-0.311,0.029-0.576,0.051-0.809,0.051c-0.229,0.002-0.438-0.05-0.629-0.156c-0.141-0.078-0.254-0.177-0.342-0.298
	c-0.086-0.118-0.156-0.248-0.205-0.384c-0.051-0.137-0.105-0.316-0.168-0.541c0.297-0.068,0.596-0.127,0.896-0.177
	c0.016,0.057,0.025,0.104,0.027,0.141c0.049,0.151,0.094,0.267,0.133,0.343c0.039,0.075,0.094,0.135,0.162,0.178
	c0.076,0.048,0.168,0.074,0.275,0.08c0.107,0.008,0.254,0.002,0.443-0.008c0.092-0.01,0.156-0.011,0.205-0.005
	c0.23-0.03,0.406-0.053,0.523-0.071c0.115-0.021,0.209-0.054,0.277-0.103c0.121-0.092,0.137-0.299,0.047-0.622
	c-0.063-0.229-0.154-0.393-0.273-0.49c-0.043-0.031-0.094-0.057-0.15-0.074c-0.061-0.021-0.113-0.032-0.168-0.037
	c-0.059-0.008-0.125-0.012-0.207-0.012c-0.08,0-0.172,0-0.275,0c-0.174,0.006-0.338,0.014-0.492,0.021
	c-0.152,0.009-0.299,0.016-0.441,0.018c-0.139,0.002-0.281-0.007-0.426-0.026c-0.145-0.021-0.27-0.058-0.377-0.11
	c-0.301-0.143-0.529-0.472-0.693-1c-0.152-0.554-0.143-0.971,0.033-1.238c0.189-0.257,0.629-0.455,1.338-0.521
	c0.43-0.039,0.744-0.037,0.938-0.021c0.314,0.034,0.572,0.129,0.77,0.269c0.205,0.142,0.355,0.313,0.459,0.507
	c0.102,0.195,0.191,0.439,0.271,0.73c-0.326-0.024-0.646-0.037-0.969-0.035c-0.018-0.065-0.035-0.133-0.055-0.198
	c-0.051-0.187-0.119-0.313-0.203-0.382c-0.102-0.088-0.313-0.131-0.627-0.111c-0.127,0.008-0.254,0.02-0.381,0.03
	c-0.367,0.034-0.59,0.114-0.672,0.219c-0.045,0.052-0.068,0.117-0.074,0.194c-0.004,0.076,0.014,0.188,0.055,0.332
	c0.053,0.162,0.1,0.279,0.139,0.35s0.105,0.12,0.191,0.15c0.07,0.025,0.154,0.041,0.252,0.048s0.209,0.008,0.338,0.003
	c0.129-0.003,0.25-0.006,0.367-0.006c0.391-0.006,0.721,0.021,0.988,0.061c0.266,0.038,0.482,0.118,0.648,0.229
	c0.104,0.07,0.189,0.154,0.266,0.252c0.072,0.095,0.135,0.193,0.184,0.298s0.086,0.192,0.111,0.267
	c0.025,0.075,0.064,0.198,0.119,0.372C37.381,16.861,37.408,17.103,37.387,17.31z M42.221,18.687
	c-0.031,0.17-0.117,0.268-0.256,0.299c-0.219,0.053-0.736-0.109-1.521-0.364c-0.133-0.043-0.262-0.083-0.391-0.12
	c-0.346-0.1-0.643-0.188-0.896-0.273s-0.482-0.209-0.689-0.375c-0.15-0.121-0.271-0.25-0.365-0.39
	c-0.094-0.139-0.164-0.278-0.219-0.419c-0.051-0.141-0.105-0.322-0.168-0.547c0.326,0.041,0.658,0.096,0.992,0.167
	c0.018,0.058,0.023,0.103,0.023,0.136c0.051,0.154,0.098,0.273,0.139,0.356c0.043,0.084,0.102,0.155,0.174,0.221
	c0.084,0.073,0.186,0.133,0.305,0.181c0.117,0.049,0.281,0.104,0.492,0.172c0.102,0.028,0.178,0.058,0.229,0.082
	c0.262,0.07,0.459,0.127,0.592,0.162c0.131,0.033,0.236,0.047,0.314,0.033c0.141-0.025,0.166-0.197,0.074-0.521
	c-0.063-0.229-0.16-0.414-0.293-0.555c-0.047-0.047-0.104-0.092-0.168-0.134c-0.063-0.043-0.127-0.079-0.188-0.108
	c-0.063-0.028-0.139-0.063-0.23-0.099s-0.193-0.075-0.309-0.118c-0.195-0.07-0.379-0.132-0.549-0.187
	c-0.172-0.056-0.336-0.106-0.49-0.16c-0.156-0.054-0.313-0.116-0.473-0.188c-0.158-0.071-0.295-0.15-0.412-0.237
	c-0.326-0.236-0.568-0.614-0.734-1.148c-0.152-0.554-0.131-0.928,0.072-1.104c0.215-0.161,0.703-0.182,1.494,0.054
	c0.48,0.146,0.834,0.287,1.051,0.387c0.354,0.173,0.641,0.375,0.857,0.591c0.227,0.219,0.395,0.441,0.502,0.659
	s0.201,0.474,0.281,0.767c-0.369-0.183-0.732-0.344-1.092-0.487c-0.018-0.065-0.037-0.133-0.055-0.199
	c-0.051-0.187-0.123-0.327-0.217-0.427c-0.111-0.121-0.348-0.255-0.699-0.373c-0.145-0.048-0.285-0.093-0.426-0.137
	c-0.412-0.12-0.658-0.135-0.756-0.074c-0.051,0.029-0.078,0.078-0.086,0.146c-0.008,0.066,0.01,0.172,0.049,0.316
	c0.055,0.166,0.104,0.289,0.145,0.366s0.111,0.147,0.207,0.209c0.078,0.05,0.172,0.097,0.279,0.142
	c0.105,0.045,0.23,0.09,0.375,0.139c0.143,0.051,0.277,0.1,0.408,0.147c0.438,0.162,0.809,0.333,1.105,0.49
	c0.299,0.155,0.543,0.329,0.725,0.503c0.115,0.111,0.215,0.229,0.291,0.347c0.082,0.119,0.146,0.234,0.199,0.349
	c0.055,0.113,0.092,0.209,0.117,0.287c0.025,0.076,0.066,0.201,0.121,0.379C42.23,18.298,42.252,18.519,42.221,18.687z M3.507,9.628
	h1.666l9.164,33.167h-1.666L3.507,9.628z"/>
</svg>
