<?xml version="1.0" encoding="utf-8"?>
<!-- Generator: Adobe Illustrator 16.0.0, SVG Export Plug-In . SVG Version: 6.00 Build 0)  -->
<!DOCTYPE svg PUBLIC "-//W3C//DTD SVG 1.1//EN" "http://www.w3.org/Graphics/SVG/1.1/DTD/svg11.dtd">
<svg version="1.1" id="Layer_1" xmlns="http://www.w3.org/2000/svg" xmlns:xlink="http://www.w3.org/1999/xlink" x="0px" y="0px"
	 width="50px" height="50px" viewBox="0 0 50 50" enable-background="new 0 0 50 50" xml:space="preserve">
<path d="M36.216,30.808c1.865-0.581,3.539-2.235,4.369-4.317c0.688-1.728,0.655-3.439-0.087-4.577
	c-0.523-0.801-1.116-1.348-1.782-1.698c0.123-0.819,0.205-1.652,0.205-2.507l-0.017-0.161c0.002-0.03,0.017-0.059,0.017-0.089
	c0-2.814-7.729-4.333-15-4.333c-7.05,0-14.507,1.431-14.957,4.083H8.921v0.5c0,5.289,2.453,9.97,6.206,12.866
	c-3.761,0.639-6.206,1.653-6.206,2.801c0,1.933,6.912,3.5,15.438,3.5s15.438-1.567,15.438-3.5c0-0.932-1.613-1.774-4.226-2.401
	c0.185-0.042,0.368-0.084,0.553-0.138L36.216,30.808z M12.872,33.375c0-0.633,0.993-1.211,2.642-1.662
	c-0.725,0.425-1.142,0.898-1.142,1.4c0,1.016,1.656,1.92,4.245,2.514C15.186,35.178,12.872,34.338,12.872,33.375z M11.835,21.677
	c0.657,0.231,1.354,0.415,2.082,0.551c1.636,4.109,4.996,7.527,9.352,9.602C17.683,31.519,13.071,27.283,11.835,21.677z
	 M33.143,19.9c-0.25,0.056-0.513,0.109-0.781,0.162c-0.131,0.025-0.262,0.051-0.396,0.075c-0.191,0.035-0.392,0.067-0.59,0.1
	c-0.21,0.034-0.42,0.067-0.639,0.099c-0.142,0.021-0.289,0.039-0.435,0.059c-0.271,0.035-0.543,0.07-0.825,0.102
	c-0.118,0.013-0.24,0.024-0.358,0.037c-0.307,0.031-0.615,0.062-0.934,0.088c-0.132,0.011-0.27,0.019-0.404,0.029
	c-0.311,0.022-0.623,0.045-0.942,0.063c-0.2,0.011-0.409,0.018-0.614,0.026c-0.265,0.011-0.528,0.024-0.8,0.032
	c-0.49,0.013-0.989,0.021-1.503,0.021s-1.013-0.008-1.503-0.021c-0.272-0.007-0.535-0.021-0.8-0.032
	c-0.205-0.008-0.414-0.015-0.614-0.026c-0.321-0.018-0.633-0.04-0.943-0.063c-0.134-0.01-0.272-0.019-0.404-0.029
	c-0.318-0.026-0.626-0.057-0.933-0.088c-0.12-0.013-0.242-0.024-0.36-0.037c-0.282-0.031-0.554-0.066-0.825-0.102
	c-0.146-0.02-0.293-0.038-0.435-0.059c-0.218-0.031-0.428-0.065-0.638-0.099c-0.2-0.033-0.399-0.065-0.59-0.1
	c-0.135-0.024-0.266-0.049-0.396-0.075C15.213,20.01,14.95,19.958,14.7,19.9c-0.046-0.01-0.09-0.021-0.135-0.031
	c-1.642-0.378-2.885-0.835-3.669-1.3c-0.003-0.002-0.007-0.004-0.011-0.006c-0.121-0.072-0.221-0.145-0.32-0.216
	c-0.056-0.042-0.114-0.085-0.163-0.127c-0.038-0.032-0.069-0.064-0.103-0.096c-0.179-0.178-0.301-0.356-0.344-0.534l-0.008-0.023
	c-0.007-0.036-0.025-0.073-0.025-0.108c0-1.392,5.326-3.333,14-3.333c8.667,0,13.991,1.938,13.999,3.33l-0.033,0.135
	c-0.043,0.178-0.165,0.356-0.344,0.534c-0.033,0.032-0.065,0.063-0.104,0.096c-0.049,0.042-0.106,0.085-0.163,0.127
	c-0.099,0.072-0.198,0.144-0.318,0.216c-0.004,0.002-0.008,0.004-0.013,0.007c-0.783,0.465-2.026,0.922-3.668,1.3
	C33.232,19.879,33.188,19.891,33.143,19.9z M35.728,29.474c-0.692,0.202-1.383,0.292-2.046,0.295
	c2.268-2.069,3.938-4.842,4.726-7.998c0.296,0.241,0.565,0.54,0.817,0.926c0.496,0.758,0.483,2.032-0.033,3.325
	c-0.667,1.672-1.968,2.988-3.396,3.434l0.21,0.676L35.728,29.474z"/>
</svg>
