<?xml version="1.0" encoding="utf-8"?>
<!-- Generator: Adobe Illustrator 16.0.0, SVG Export Plug-In . SVG Version: 6.00 Build 0)  -->
<!DOCTYPE svg PUBLIC "-//W3C//DTD SVG 1.1//EN" "http://www.w3.org/Graphics/SVG/1.1/DTD/svg11.dtd">
<svg version="1.1" id="Layer_1" xmlns="http://www.w3.org/2000/svg" xmlns:xlink="http://www.w3.org/1999/xlink" x="0px" y="0px"
	 width="50px" height="50px" viewBox="0 0 50 50" enable-background="new 0 0 50 50" xml:space="preserve">
<path d="M23.769,21.744c-0.431,0.041-0.879,0.09-1.334,0.15c-0.091-0.215-0.047-0.47,0.135-0.635
	c0.231-0.209,0.59-0.191,0.798,0.039L23.769,21.744z M26.472,21.584c0.369-0.009,0.645-0.011,0.779-0.011
	c0.559,0,1.171,0.015,1.811,0.046v-0.339h-2.59V21.584z M14.821,28.193h1.562c-0.19-0.844-0.3-1.709-0.31-2.59h-1.252V28.193z
	 M14.821,23.869h1.922c0.189-0.186,0.412-0.358,0.667-0.516v-2.072h-2.589V23.869z M17.278,30.768h-4.393V19.169h18.108v2.598
	c0.715,0.074,1.435,0.172,2.13,0.297v-6.801c0-0.588-0.479-1.063-1.064-1.063h-3.725v-1.411c0-0.918-0.796-1.663-1.779-1.663
	c-0.982,0-1.777,0.745-1.777,1.663V14.2h-5.676v-1.411c0-0.918-0.795-1.663-1.777-1.663s-1.778,0.745-1.778,1.663V14.2h-3.726
	c-0.588,0-1.065,0.477-1.065,1.063v16.569c0,0.588,0.478,1.064,1.065,1.064h6.759C18.073,32.236,17.64,31.521,17.278,30.768z
	 M18.705,22.742c0.784-0.287,1.679-0.504,2.588-0.668v-0.793h-2.588V22.742z M24.562,21.299l-0.367,0.407
	c0.484-0.04,0.938-0.066,1.341-0.087c-0.015-0.134-0.069-0.263-0.177-0.359C25.127,21.051,24.771,21.068,24.562,21.299z
	 M35.78,34.652c-0.129,0.039-0.256,0.068-0.385,0.098c1.824,0.438,2.953,1.027,2.953,1.68c0,1.352-4.832,2.445-10.791,2.445
	c-5.961,0-10.793-1.096-10.793-2.445c0-0.803,1.711-1.514,4.338-1.959c-2.623-2.023-4.338-5.297-4.338-8.993v-0.351h0.03
	c0.313-1.854,5.526-2.854,10.455-2.854c5.084,0,10.485,1.063,10.485,3.029c0,0.021-0.01,0.041-0.01,0.063l0.01,0.113
	c0,0.596-0.058,1.18-0.144,1.752c0.466,0.244,0.879,0.627,1.245,1.188c0.521,0.795,0.543,1.99,0.063,3.197
	c-0.58,1.457-1.75,2.613-3.056,3.02L35.78,34.652z M23.543,38.004c-1.81-0.416-2.967-1.049-2.967-1.758
	c0-0.352,0.292-0.682,0.798-0.979c-1.152,0.314-1.846,0.719-1.846,1.162C19.528,37.104,21.146,37.688,23.543,38.004z M26.796,35.35
	c-3.047-1.451-5.395-3.84-6.538-6.713c-0.509-0.096-0.995-0.225-1.454-0.385C19.667,32.17,22.892,35.131,26.796,35.35z
	 M33.793,26.988c1.146-0.266,2.017-0.584,2.563-0.91c0.002-0.002,0.006-0.002,0.008-0.004c0.085-0.051,0.154-0.102,0.224-0.15
	c0.039-0.029,0.08-0.061,0.114-0.09c0.025-0.021,0.049-0.045,0.07-0.066c0.125-0.123,0.211-0.248,0.242-0.374l0.021-0.095
	c-0.006-0.973-3.729-2.327-9.786-2.327c-6.063,0-9.786,1.356-9.786,2.33c0,0.024,0.014,0.051,0.018,0.075l0.006,0.017
	c0.031,0.125,0.117,0.25,0.242,0.374c0.021,0.021,0.045,0.045,0.07,0.066c0.034,0.029,0.075,0.061,0.114,0.09
	c0.067,0.051,0.14,0.102,0.224,0.15c0.002,0.002,0.006,0.002,0.008,0.004c0.547,0.326,1.418,0.646,2.563,0.91
	c0.031,0.006,0.063,0.014,0.097,0.02c0.174,0.041,0.356,0.078,0.545,0.113c0.092,0.02,0.183,0.037,0.276,0.053
	c0.134,0.025,0.272,0.049,0.413,0.07c0.146,0.023,0.293,0.047,0.445,0.068c0.1,0.016,0.201,0.027,0.305,0.041
	c0.188,0.023,0.38,0.049,0.576,0.07c0.082,0.01,0.168,0.018,0.251,0.025c0.215,0.023,0.431,0.043,0.651,0.063
	c0.094,0.008,0.188,0.014,0.283,0.021c0.217,0.016,0.436,0.031,0.659,0.043c0.14,0.008,0.285,0.012,0.429,0.02
	c0.187,0.008,0.369,0.018,0.561,0.021c0.342,0.008,0.691,0.014,1.05,0.014s0.709-0.006,1.051-0.014
	c0.19-0.006,0.374-0.016,0.56-0.021c0.145-0.008,0.289-0.012,0.43-0.02c0.225-0.012,0.441-0.027,0.658-0.043
	c0.096-0.008,0.191-0.014,0.283-0.021c0.223-0.02,0.438-0.039,0.652-0.063c0.083-0.008,0.169-0.016,0.251-0.025
	c0.196-0.021,0.388-0.047,0.577-0.07c0.102-0.014,0.204-0.025,0.305-0.041c0.151-0.021,0.299-0.045,0.444-0.068
	c0.142-0.021,0.278-0.045,0.413-0.07c0.095-0.016,0.186-0.033,0.277-0.053c0.187-0.035,0.371-0.072,0.545-0.113
	C33.729,27.002,33.761,26.994,33.793,26.988z M35.698,34.16l-0.147-0.473c1-0.313,1.909-1.23,2.375-2.4
	c0.361-0.904,0.37-1.793,0.022-2.324c-0.176-0.27-0.364-0.479-0.57-0.646c-0.55,2.207-1.718,4.145-3.304,5.592
	c0.464-0.002,0.946-0.064,1.431-0.207L35.698,34.16z"/>
</svg>
