<?xml version="1.0" encoding="utf-8"?>
<!-- Generator: Adobe Illustrator 16.0.0, SVG Export Plug-In . SVG Version: 6.00 Build 0)  -->
<!DOCTYPE svg PUBLIC "-//W3C//DTD SVG 1.1//EN" "http://www.w3.org/Graphics/SVG/1.1/DTD/svg11.dtd">
<svg version="1.1" id="Layer_1" xmlns="http://www.w3.org/2000/svg" xmlns:xlink="http://www.w3.org/1999/xlink" x="0px" y="0px"
	 width="50px" height="50px" viewBox="0 0 50 50" enable-background="new 0 0 50 50" xml:space="preserve">
<path d="M21.443,16.85c-1.267,0.08-2.385,0.229-3.357,0.451c-0.969,0.222-1.652,0.544-2.051,0.969
	c0.063,0.266,0.096,0.709,0.096,1.328v0.61H9.419c0.244-1.947,0.752-3.433,1.523-4.459c0.731-0.956,1.736-1.584,3.008-1.885
	c1.273-0.301,2.141-0.496,2.604-0.584c1.053-0.194,2.176-0.332,3.365-0.412c1.188-0.08,2.889-0.12,5.1-0.12
	c3.252,0,5.536,0.066,6.846,0.2c1.313,0.133,2.674,0.42,4.088,0.862c1.414,0.443,2.461,1.116,3.145,2.018
	c0.746,0.992,1.24,2.453,1.482,4.38h-6.611V19.89c0-0.743,0.023-1.282,0.076-1.62c-0.41-0.442-1.117-0.773-2.123-0.995
	c-1.002-0.221-2.066-0.367-3.199-0.438c-1.133-0.07-2.363-0.106-3.702-0.106C23.9,16.729,22.708,16.77,21.443,16.85z M16.13,20.711
	v1.143c0,0.548-0.271,0.823-0.811,0.823h-5.228c-0.141,0-0.286-0.089-0.442-0.266c-0.154-0.177-0.23-0.363-0.23-0.557v-1.143H16.13z
	 M12.023,35.633v-5.362c0-0.584,0.076-1.077,0.229-1.474c0.156-0.398,0.412-0.828,0.771-1.289l5.806-7.884v-1.673h2.506l0.117,1.673
	h6.98v-1.673h2.834v1.805l5.996,7.752c0.451,0.55,0.73,0.982,0.838,1.302c0.111,0.317,0.166,0.806,0.166,1.461v5.362
	c0,1.08-0.438,1.619-1.313,1.619H13.216C12.421,37.252,12.023,36.713,12.023,35.633z M29.504,26.766
	c1.252-0.602,1.879-1.327,1.879-2.177c0-0.833-0.629-1.544-1.889-2.137c-1.26-0.593-2.752-0.889-4.475-0.889
	c-1.748,0-3.252,0.301-4.513,0.902c-1.26,0.602-1.891,1.311-1.891,2.124c0,0.85,0.627,1.576,1.881,2.177
	c1.252,0.604,2.762,0.902,4.521,0.902C26.756,27.668,28.25,27.367,29.504,26.766z M40.58,21.854c0,0.212-0.061,0.402-0.182,0.57
	c-0.123,0.168-0.254,0.253-0.396,0.253H34.66c-0.166,0-0.324-0.076-0.471-0.226c-0.148-0.15-0.225-0.349-0.225-0.597V20.71h6.613
	v1.143H40.58z"/>
</svg>
