<?xml version="1.0" encoding="utf-8"?>
<!-- Generator: Adobe Illustrator 16.0.0, SVG Export Plug-In . SVG Version: 6.00 Build 0)  -->
<!DOCTYPE svg PUBLIC "-//W3C//DTD SVG 1.1//EN" "http://www.w3.org/Graphics/SVG/1.1/DTD/svg11.dtd">
<svg version="1.1" id="Layer_1" xmlns="http://www.w3.org/2000/svg" xmlns:xlink="http://www.w3.org/1999/xlink" x="0px" y="0px"
	 width="50px" height="50px" viewBox="0 0 50 50" enable-background="new 0 0 50 50" xml:space="preserve">
<g>
	<polygon points="21.5,7.9 9.9,7.9 9.9,42.1 9.9,42.3 21.5,42.3 	"/>
	<path d="M3.1,1v48h44.6V1H3.1z M23.6,44.3H7.7V5.7h15.8V44.3z M28.1,8.8h15v5.8h-0.3H28.1h0V8.8z M32.2,30.8h-4.1v-3.6h3.9h0.2
		V30.8z M32.2,25.5h-4.1v-3.6h3.9h0.2V25.5z M32.2,20.1h-4.1v-3.6h3.9h0.2V20.1z M37.5,30.8h-4.1v-3.6h4.1V30.8z M37.5,25.5h-4.1
		v-3.6h4.1V25.5z M37.5,20.1h-4.1v-3.6h4.1V20.1z M43.2,30.8h-4.1v-3.6H43h0.2V30.8z M43.2,25.5h-4.1v-3.6H43h0.2V25.5z M43.2,20.1
		h-4.1v-3.6H43h0.2V20.1z"/>
</g>
</svg>
