<?xml version="1.0" encoding="utf-8"?>
<!-- Generator: Adobe Illustrator 16.0.0, SVG Export Plug-In . SVG Version: 6.00 Build 0)  -->
<!DOCTYPE svg PUBLIC "-//W3C//DTD SVG 1.1//EN" "http://www.w3.org/Graphics/SVG/1.1/DTD/svg11.dtd">
<svg version="1.1" id="Layer_1" xmlns="http://www.w3.org/2000/svg" xmlns:xlink="http://www.w3.org/1999/xlink" x="0px" y="0px"
	 width="50px" height="50px" viewBox="0 0 50 50" enable-background="new 0 0 50 50" xml:space="preserve">
<path d="M38.064,16.248l1.064-1.063c0.924,0.505,1.784,0.61,2.219,0.176c0.66-0.661,0.09-2.304-1.272-3.667
	c-1.363-1.363-3.005-1.934-3.666-1.271c-0.435,0.436-0.329,1.295,0.176,2.219l-1.201,1.201c-2.329-1.697-5.081-2.838-8.071-3.23
	V8.216C28.613,7.835,29.49,7.15,29.49,6.36c0-1.202-2.012-2.178-4.49-2.178c-2.479,0-4.49,0.976-4.49,2.178
	c0,0.79,0.877,1.476,2.177,1.856v2.395c-8.662,1.139-15.375,8.553-15.375,17.52c0,9.754,7.935,17.688,17.688,17.688
	s17.688-7.936,17.688-17.688C42.688,23.552,40.927,19.39,38.064,16.248z M25,44.729c-9.153,0-16.6-7.447-16.6-16.602
	c0-9.154,7.446-16.6,16.6-16.6c9.154,0,16.6,7.446,16.6,16.6C41.6,37.281,34.152,44.729,25,44.729z M25,12.344
	c-8.703,0-15.783,7.08-15.783,15.783c0,8.703,7.08,15.785,15.783,15.785s15.783-7.082,15.783-15.785
	C40.783,19.424,33.703,12.344,25,12.344z M25,41.734c-7.502,0-13.606-6.104-13.606-13.605c0-7.502,6.104-13.606,13.606-13.606
	s13.605,6.104,13.605,13.606C38.605,35.631,32.502,41.734,25,41.734z M25.544,16.97h-1.089v-1.904h1.089V16.97z M24.456,39.285
	h1.089v1.904h-1.089V39.285z M38.063,27.584v1.088h-1.905v-1.088H38.063z M13.843,28.672h-1.905v-1.088h1.905V28.672z
	 M31.234,16.637l0.936,0.56l-0.979,1.635l-0.935-0.56L31.234,16.637z M18.808,37.426l0.935,0.559l-0.978,1.635l-0.935-0.559
	L18.808,37.426z M34.855,33.387l1.636,0.977l-0.56,0.934l-1.635-0.977L34.855,33.387z M14.068,20.958l1.635,0.978l-0.559,0.935
	l-1.635-0.979L14.068,20.958z M35.063,23.278l-0.521-0.956l1.674-0.91l0.521,0.957L35.063,23.278z M14.938,32.979l0.52,0.957
	l-1.674,0.908l-0.52-0.957L14.938,32.979z M30.807,37.67l0.909,1.674l-0.956,0.521l-0.91-1.676L30.807,37.67z M19.194,18.583
	l-0.91-1.672l0.956-0.521l0.91,1.673L19.194,18.583z M25.816,19.964v8.163c0,0.229-0.072,0.451-0.205,0.637l-4.898,6.803
	c-0.212,0.297-0.546,0.453-0.884,0.453c-0.22,0-0.442-0.066-0.635-0.205c-0.488-0.352-0.599-1.031-0.247-1.52l4.693-6.52v-7.813
	c0-0.602,0.487-1.088,1.088-1.088S25.816,19.363,25.816,19.964z"/>
</svg>
