<?xml version="1.0" encoding="utf-8"?>
<!-- Generator: Adobe Illustrator 16.0.0, SVG Export Plug-In . SVG Version: 6.00 Build 0)  -->
<!DOCTYPE svg PUBLIC "-//W3C//DTD SVG 1.1//EN" "http://www.w3.org/Graphics/SVG/1.1/DTD/svg11.dtd">
<svg version="1.1" id="Layer_1" xmlns="http://www.w3.org/2000/svg" xmlns:xlink="http://www.w3.org/1999/xlink" x="0px" y="0px"
	 width="50px" height="50px" viewBox="0 0 50 50" enable-background="new 0 0 50 50" xml:space="preserve">
<path d="M42.734,25.649c0,9.104-7.406,16.512-16.512,16.512c-9.078,0-16.465-7.365-16.507-16.434h-2.45l3.669-5.506l3.669,5.506
	h-2.137c0.042,7.551,6.195,13.682,13.755,13.682c7.587,0,13.76-6.172,13.76-13.76s-6.173-13.76-13.76-13.76
	c-0.76,0-1.376-0.617-1.376-1.377s0.616-1.375,1.376-1.375C35.328,9.138,42.734,16.546,42.734,25.649z M26.224,35.894
	c-5.648,0-10.244-4.595-10.244-10.244c0-0.254-0.205-0.459-0.459-0.459c-0.253,0-0.458,0.205-0.458,0.459
	c0,6.154,5.007,11.162,11.161,11.162c6.153,0,11.161-5.008,11.161-11.162c0-6.153-5.008-11.162-11.161-11.162
	c-0.253,0-0.458,0.207-0.458,0.46c0,0.254,0.205,0.459,0.458,0.459c5.647,0,10.243,4.596,10.243,10.243
	C36.467,31.299,31.871,35.894,26.224,35.894z M20.926,32.347c0.269,0.269,0.621,0.402,0.973,0.402s0.704-0.135,0.973-0.402
	l4.324-4.324c0.259-0.258,0.403-0.607,0.403-0.973v-7.783c0-0.761-0.616-1.377-1.376-1.377c-0.76,0-1.376,0.616-1.376,1.377v7.213
	l-3.92,3.92C20.39,30.937,20.39,31.808,20.926,32.347z M10.477,14.489c0-3.674,2.978-6.65,6.65-6.65s6.65,2.979,6.65,6.65
	s-2.978,6.65-6.65,6.65S10.477,18.162,10.477,14.489z M12.5,14.584l2.969,2.968c0.179,0.18,0.414,0.27,0.648,0.27
	c0.235,0,0.47-0.09,0.649-0.27l4.974-4.975c0.358-0.358,0.358-0.938,0-1.297c-0.358-0.359-0.939-0.358-1.297,0l-4.326,4.324
	l-2.32-2.318c-0.358-0.357-0.94-0.357-1.297,0C12.141,13.646,12.141,14.226,12.5,14.584z"/>
</svg>
