<?xml version="1.0" encoding="utf-8"?>
<!-- Generator: Adobe Illustrator 16.0.0, SVG Export Plug-In . SVG Version: 6.00 Build 0)  -->
<!DOCTYPE svg PUBLIC "-//W3C//DTD SVG 1.1//EN" "http://www.w3.org/Graphics/SVG/1.1/DTD/svg11.dtd">
<svg version="1.1" id="Layer_1" xmlns="http://www.w3.org/2000/svg" xmlns:xlink="http://www.w3.org/1999/xlink" x="0px" y="0px"
	 width="50px" height="50px" viewBox="0 0 50 50" enable-background="new 0 0 50 50" xml:space="preserve">
<path d="M34.168,11.859h-3.565c0.004-0.039,0.022-0.074,0.022-0.114c0-2.171-1.767-3.938-3.938-3.938h-4.125
	c-2.171,0-3.938,1.767-3.938,3.938c0,0.041,0.019,0.075,0.023,0.114h-2.815c-1.656,0-3,1.344-3,3v1.167h24.333v-1.167
	C37.168,13.203,35.824,11.859,34.168,11.859z M20.625,11.745c0-1.068,0.869-1.938,1.938-1.938h4.125
	c1.067,0,1.938,0.869,1.938,1.938c0,0.041,0.019,0.075,0.022,0.114h-8.046C20.606,11.82,20.625,11.785,20.625,11.745z
	 M12.833,39.193c0,1.656,1.344,3,3,3h18.334c1.656,0,3-1.344,3-3V18.026H12.833V39.193z M32,21.527c0-0.552,0.449-1,1-1
	c0.553,0,1,0.448,1,1V38.9c0,0.553-0.447,1-1,1c-0.551,0-1-0.447-1-1V21.527z M26.668,21.527c0-0.552,0.447-1,1-1
	c0.551,0,1,0.448,1,1V38.9c0,0.553-0.449,1-1,1c-0.553,0-1-0.447-1-1V21.527z M21.333,21.527c0-0.552,0.448-1,1-1s1,0.448,1,1V38.9
	c0,0.553-0.448,1-1,1s-1-0.447-1-1V21.527z M16,21.527c0-0.552,0.448-1,1-1s1,0.448,1,1V38.9c0,0.553-0.448,1-1,1s-1-0.447-1-1
	V21.527z"/>
</svg>
