<?xml version="1.0" encoding="utf-8"?>
<!-- Generator: Adobe Illustrator 16.0.0, SVG Export Plug-In . SVG Version: 6.00 Build 0)  -->
<!DOCTYPE svg PUBLIC "-//W3C//DTD SVG 1.1//EN" "http://www.w3.org/Graphics/SVG/1.1/DTD/svg11.dtd">
<svg version="1.1" id="Layer_1" xmlns="http://www.w3.org/2000/svg" xmlns:xlink="http://www.w3.org/1999/xlink" x="0px" y="0px"
	 width="50px" height="50px" viewBox="0 0 50 50" enable-background="new 0 0 50 50" xml:space="preserve">
<path d="M15.063,28.282v-4.219h17.922c0.515,0,0.931-0.416,0.931-0.931v-9.651c0-0.514-0.416-0.93-0.931-0.93H15.063V8.333
	c0-0.398-0.256-0.754-0.633-0.881c-0.38-0.127-0.797,0.002-1.037,0.32l-7.541,9.975c-0.125,0.166-0.188,0.363-0.188,0.561
	c0,0.198,0.063,0.396,0.188,0.562l7.541,9.974c0.24,0.318,0.657,0.447,1.037,0.32C14.809,29.036,15.063,28.683,15.063,28.282z
	 M7.759,18.309l5.445-7.205v2.379c0,0.514,0.416,0.93,0.93,0.93h17.923v7.792H14.134c-0.514,0-0.93,0.416-0.93,0.93v2.38
	L7.759,18.309z M35.568,42.549c-0.377-0.127-0.633-0.481-0.633-0.881v-4.219h-17.92c-0.515,0-0.931-0.416-0.931-0.931v-9.65
	c0-0.514,0.416-0.93,0.931-0.93h17.92v-4.22c0-0.399,0.256-0.754,0.633-0.881c0.38-0.127,0.797,0.002,1.037,0.32l7.543,9.975
	c0.25,0.332,0.25,0.789,0,1.121l-7.543,9.974C36.365,42.547,35.948,42.676,35.568,42.549z"/>
</svg>
