<?xml version="1.0" encoding="utf-8"?>
<!-- Generator: Adobe Illustrator 16.0.0, SVG Export Plug-In . SVG Version: 6.00 Build 0)  -->
<!DOCTYPE svg PUBLIC "-//W3C//DTD SVG 1.1//EN" "http://www.w3.org/Graphics/SVG/1.1/DTD/svg11.dtd">
<svg version="1.1" id="Layer_1" xmlns="http://www.w3.org/2000/svg" xmlns:xlink="http://www.w3.org/1999/xlink" x="0px" y="0px"
	 width="50px" height="50px" viewBox="0 0 50 50" enable-background="new 0 0 50 50" xml:space="preserve">
<path d="M28.281,38.529h-4.22V20.607c0-0.514-0.416-0.93-0.929-0.93h-9.651c-0.513,0-0.929,0.416-0.929,0.93v17.922H8.333
	c-0.399,0-0.754,0.257-0.881,0.635c-0.127,0.379,0.002,0.796,0.32,1.037l9.975,7.54c0.166,0.125,0.363,0.188,0.561,0.188
	c0.198,0,0.395-0.063,0.561-0.188l9.974-7.54c0.318-0.241,0.447-0.658,0.32-1.037C29.035,38.786,28.681,38.529,28.281,38.529z
	 M18.308,45.835l-7.205-5.444h2.378c0.513,0,0.929-0.416,0.929-0.931V21.538h7.793V39.46c0,0.515,0.416,0.931,0.929,0.931h2.378
	L18.308,45.835z M42.548,18.023c-0.127,0.379-0.481,0.635-0.881,0.635h-4.219v17.92c0,0.514-0.416,0.93-0.93,0.93h-9.65
	c-0.514,0-0.93-0.416-0.93-0.93v-17.92H21.72c-0.399,0-0.754-0.256-0.881-0.635s0.002-0.795,0.32-1.037l9.974-7.541
	c0.332-0.25,0.789-0.25,1.121,0l9.974,7.541C42.546,17.229,42.675,17.646,42.548,18.023z M30.764,6.824V3
	c0-0.514,0.416-0.93,0.929-0.93c0.514,0,0.93,0.416,0.93,0.93v3.824c0,0.514-0.416,0.93-0.93,0.93
	C31.18,7.754,30.764,7.338,30.764,6.824z M35.065,9.518c-0.344-0.383-0.313-0.97,0.067-1.313L38.129,5.5
	c0.382-0.346,0.97-0.313,1.313,0.066c0.345,0.382,0.313,0.969-0.066,1.313l-2.996,2.704c-0.178,0.161-0.4,0.24-0.622,0.24
	C35.503,9.823,35.25,9.721,35.065,9.518z M24.012,6.879c-0.381-0.344-0.411-0.931-0.067-1.313c0.344-0.381,0.931-0.412,1.313-0.066
	l2.997,2.704c0.381,0.344,0.411,0.931,0.066,1.313c-0.184,0.203-0.437,0.307-0.689,0.307c-0.222,0-0.444-0.079-0.622-0.24
	L24.012,6.879z"/>
</svg>
