<?xml version="1.0" encoding="utf-8"?>
<!-- Generator: Adobe Illustrator 16.0.0, SVG Export Plug-In . SVG Version: 6.00 Build 0)  -->
<!DOCTYPE svg PUBLIC "-//W3C//DTD SVG 1.1//EN" "http://www.w3.org/Graphics/SVG/1.1/DTD/svg11.dtd">
<svg version="1.1" id="Layer_1" xmlns="http://www.w3.org/2000/svg" xmlns:xlink="http://www.w3.org/1999/xlink" x="0px" y="0px"
	 width="50px" height="50px" viewBox="0 0 50 50" enable-background="new 0 0 50 50" xml:space="preserve">
<path d="M36.588,39.871l-0.079-29.662c0,0-11.062-0.181-15.423,0c-1.336,0.056-5.395,1.578-5.441,4.658
	c-0.025,1.725,0,4.736,0.063,7.034c0,0-2.515,3.026-2.28,6.068c0.1,1.312,3.309,0.949,3.309,0.949s0.32,7.358,4.957,7.358h4.283
	v3.594L36.588,39.871L36.588,39.871z M33.862,16.021c0.298,0.38,0.229,0.929-0.149,1.227L28.08,21.64
	c-0.196,0.153-0.438,0.21-0.669,0.174c-0.188-0.028-0.369-0.119-0.51-0.27l-1.853-2.003c-0.328-0.354-0.307-0.905,0.047-1.234
	c0.354-0.327,0.906-0.306,1.234,0.048l1.311,1.413l4.998-3.898C33.019,15.572,33.565,15.64,33.862,16.021z M25.338,29.771
	c0-0.056,0.015-0.107,0.036-0.157h-0.453c-0.232,0-0.419-0.188-0.419-0.419c0-0.231,0.187-0.419,0.419-0.419
	c-0.232,0-0.419-0.188-0.419-0.418c0-0.231,0.187-0.419,0.419-0.419c-0.232,0-0.419-0.188-0.419-0.419
	c0-0.146,0.079-0.271,0.192-0.346c-0.176-0.072-0.588-0.314-0.588-0.954c0-0.812-0.273-2.316-1.271-3.517h0.001
	c-0.715-0.861-1.143-1.969-1.143-3.176c0-2.755,2.231-4.987,4.986-4.987c1.459,0,2.766,0.63,3.678,1.627l-1.178,0.919
	c-0.636-0.65-1.521-1.057-2.5-1.057c-1.928,0-3.498,1.568-3.498,3.498c0,0.811,0.283,1.602,0.799,2.225
	c1.047,1.26,1.5,2.814,1.589,3.964h2.218c0.06-0.695,0.267-1.806,0.925-2.991l0.154-0.223l2.727-2.128
	c-0.148,0.875-0.525,1.674-1.068,2.329l0,0c-0.996,1.2-1.271,2.705-1.271,3.517c0,0.64-0.411,0.882-0.59,0.954
	c0.114,0.075,0.194,0.198,0.194,0.346c0,0.23-0.188,0.419-0.418,0.419c0.23,0,0.418,0.188,0.418,0.419
	c0,0.229-0.188,0.418-0.418,0.418c0.23,0,0.418,0.188,0.418,0.419c0,0.23-0.188,0.419-0.418,0.419h-0.453
	c0.021,0.05,0.033,0.103,0.033,0.157c0,0.384-0.601,0.696-1.342,0.696C25.94,30.468,25.338,30.154,25.338,29.771z"/>
</svg>
