<?xml version="1.0" encoding="utf-8"?>
<!-- Generator: Adobe Illustrator 16.0.0, SVG Export Plug-In . SVG Version: 6.00 Build 0)  -->
<!DOCTYPE svg PUBLIC "-//W3C//DTD SVG 1.1//EN" "http://www.w3.org/Graphics/SVG/1.1/DTD/svg11.dtd">
<svg version="1.1" id="Layer_1" xmlns="http://www.w3.org/2000/svg" xmlns:xlink="http://www.w3.org/1999/xlink" x="0px" y="0px"
	 width="50px" height="50px" viewBox="0 0 50 50" enable-background="new 0 0 50 50" xml:space="preserve">
<path d="M25,21.6c4.548,0,8.689,1.337,11.833,3.514v4.694c0,6.535-5.298,11.834-11.833,11.834s-11.833-5.299-11.833-11.834v-4.694
	C16.311,22.937,20.452,21.6,25,21.6z M22.125,17.775v-4.1c0-1.318,0.783-2.436,1.875-2.873V8.358
	c-6.066,0.509-10.833,5.585-10.833,11.784v2.615c2.745-1.639,6.037-2.723,9.618-3.046C22.379,19.181,22.125,18.513,22.125,17.775z
	 M26,8.358v2.444c1.092,0.437,1.875,1.554,1.875,2.873v4.1c0,0.738-0.254,1.406-0.66,1.937c3.581,0.323,6.874,1.407,9.618,3.046
	v-2.615C36.833,13.944,32.066,8.867,26,8.358z M23.625,17.975c0,0.759,0.616,1.375,1.375,1.375s1.375-0.616,1.375-1.375v-4.5
	c0-0.759-0.616-1.375-1.375-1.375s-1.375,0.616-1.375,1.375V17.975z"/>
</svg>
